<svg id="svg" version="1.1" xmlns="http://www.w3.org/2000/svg" xmlns:xlink="http://www.w3.org/1999/xlink" width="400" height="400" viewBox="0, 0, 400,400"><g id="svgg"><path id="path0" d="M315.354 67.308 C 314.888 67.799,314.378 68.789,314.220 69.507 C 313.454 72.995,310.727 74.400,304.720 74.400 C 299.667 74.400,299.023 74.742,298.069 77.928 C 297.794 78.847,297.297 79.823,296.965 80.099 C 296.633 80.375,296.000 80.960,295.558 81.400 C 294.854 82.102,294.108 82.218,289.484 82.343 C 283.506 82.504,283.025 82.737,282.069 85.928 C 281.794 86.847,281.297 87.823,280.965 88.099 C 280.633 88.375,280.000 88.960,279.558 89.400 C 278.854 90.102,278.108 90.218,273.484 90.343 C 267.506 90.504,267.025 90.737,266.069 93.928 C 265.794 94.847,265.297 95.823,264.965 96.099 C 264.633 96.375,264.000 96.960,263.558 97.400 C 262.853 98.102,262.108 98.218,257.480 98.343 C 251.576 98.502,250.796 98.845,250.210 101.541 C 249.835 103.267,247.267 105.835,245.541 106.210 C 244.803 106.371,243.810 106.889,243.334 107.363 L 242.467 108.224 243.334 109.058 C 243.811 109.517,244.789 110.022,245.507 110.180 C 249.002 110.947,250.398 113.667,250.407 119.726 C 250.415 124.774,250.821 125.597,253.601 126.193 C 254.370 126.358,255.306 126.787,255.681 127.147 C 256.055 127.506,256.633 128.025,256.965 128.301 C 257.297 128.577,257.794 129.553,258.069 130.472 C 259.025 133.663,259.506 133.896,265.484 134.057 C 270.108 134.182,270.854 134.298,271.558 135.000 C 272.000 135.440,272.633 136.025,272.965 136.301 C 273.297 136.577,273.794 137.553,274.069 138.472 C 275.006 141.601,275.714 142.000,280.330 142.000 C 285.879 142.000,285.896 141.979,286.069 135.142 C 286.150 131.959,286.369 129.860,286.640 129.685 C 286.882 129.528,287.294 128.995,287.554 128.500 C 287.815 128.005,288.273 127.600,288.571 127.600 C 288.870 127.600,289.209 127.353,289.325 127.051 C 289.441 126.748,290.181 126.380,290.970 126.232 C 293.590 125.741,293.921 124.982,294.069 119.142 C 294.150 115.959,294.369 113.860,294.640 113.685 C 294.882 113.528,295.294 112.995,295.554 112.500 C 295.815 112.005,296.273 111.600,296.571 111.600 C 296.870 111.600,297.209 111.353,297.325 111.051 C 297.441 110.748,298.181 110.380,298.970 110.232 C 300.665 109.914,301.820 108.798,302.147 107.164 C 302.277 106.515,302.612 105.702,302.892 105.357 C 304.446 103.439,305.696 102.442,306.875 102.183 C 309.577 101.590,309.985 100.745,309.993 95.726 C 310.002 89.667,311.398 86.947,314.893 86.180 C 317.576 85.590,317.985 84.738,317.993 79.726 C 318.002 73.667,319.398 70.947,322.893 70.180 C 323.611 70.022,324.587 69.519,325.061 69.063 L 325.923 68.233 325.062 67.323 C 323.768 65.958,316.643 65.946,315.354 67.308 M227.354 115.308 C 226.888 115.799,226.375 116.804,226.213 117.541 C 225.834 119.268,223.264 121.835,221.541 122.210 C 219.832 122.582,218.582 123.832,218.210 125.541 C 217.835 127.267,215.267 129.835,213.541 130.210 C 211.832 130.582,210.582 131.832,210.210 133.541 C 209.835 135.267,207.267 137.835,205.541 138.210 C 204.803 138.371,203.818 138.884,203.351 139.351 C 202.884 139.818,202.371 140.803,202.210 141.541 C 202.049 142.280,201.238 143.562,200.400 144.400 C 199.562 145.238,198.280 146.049,197.541 146.210 C 195.832 146.582,194.582 147.832,194.210 149.541 C 193.835 151.267,191.267 153.835,189.541 154.210 C 187.832 154.582,186.582 155.832,186.210 157.541 C 186.049 158.280,185.238 159.562,184.400 160.400 C 183.562 161.238,182.280 162.049,181.541 162.210 C 179.832 162.582,178.582 163.832,178.210 165.541 C 177.835 167.267,175.267 169.835,173.541 170.210 C 172.803 170.371,171.818 170.884,171.351 171.351 C 170.884 171.818,170.371 172.803,170.210 173.541 C 169.835 175.267,167.267 177.835,165.541 178.210 C 164.803 178.371,163.818 178.884,163.351 179.351 C 162.884 179.818,162.371 180.803,162.210 181.541 C 161.835 183.267,159.267 185.835,157.541 186.210 C 156.803 186.371,155.818 186.884,155.351 187.351 C 154.884 187.818,154.371 188.803,154.210 189.541 C 153.835 191.267,151.267 193.835,149.541 194.210 C 147.832 194.582,146.582 195.832,146.210 197.541 C 145.835 199.267,143.267 201.835,141.541 202.210 C 139.832 202.582,138.582 203.832,138.210 205.541 C 137.835 207.267,135.267 209.835,133.541 210.210 C 131.832 210.582,130.582 211.832,130.210 213.541 C 129.835 215.267,127.267 217.835,125.541 218.210 C 123.832 218.582,122.582 219.832,122.210 221.541 C 121.835 223.267,119.267 225.835,117.541 226.210 C 115.832 226.582,114.582 227.832,114.210 229.541 C 113.835 231.267,111.267 233.835,109.541 234.210 C 107.832 234.582,106.582 235.832,106.210 237.541 C 105.835 239.267,103.267 241.835,101.541 242.210 C 100.803 242.371,99.810 242.889,99.334 243.363 L 98.467 244.224 99.334 245.058 C 99.811 245.517,100.804 246.025,101.541 246.187 C 103.265 246.566,105.834 249.135,106.213 250.859 C 106.810 253.578,107.649 253.985,112.674 253.993 C 118.734 254.002,121.458 255.401,122.218 258.893 C 122.580 260.559,123.841 261.820,125.507 262.182 C 128.999 262.942,130.398 265.666,130.407 271.726 C 130.415 276.751,130.822 277.590,133.541 278.187 C 135.268 278.566,137.835 281.136,138.210 282.859 C 138.371 283.597,138.889 284.590,139.363 285.066 L 140.224 285.933 141.058 285.066 C 141.517 284.589,142.025 283.596,142.187 282.859 C 142.566 281.132,145.136 278.565,146.859 278.190 C 148.568 277.818,149.818 276.568,150.190 274.859 C 150.565 273.133,153.133 270.565,154.859 270.190 C 156.568 269.818,157.818 268.568,158.190 266.859 C 158.565 265.133,161.133 262.565,162.859 262.190 C 164.568 261.818,165.818 260.568,166.190 258.859 C 166.565 257.133,169.133 254.565,170.859 254.190 C 172.568 253.818,173.818 252.568,174.190 250.859 C 174.565 249.133,177.133 246.565,178.859 246.190 C 180.568 245.818,181.818 244.568,182.190 242.859 C 182.565 241.133,185.133 238.565,186.859 238.190 C 188.568 237.818,189.818 236.568,190.190 234.859 C 190.565 233.133,193.133 230.565,194.859 230.190 C 196.568 229.818,197.818 228.568,198.190 226.859 C 198.565 225.133,201.133 222.565,202.859 222.190 C 204.568 221.818,205.818 220.568,206.190 218.859 C 206.565 217.133,209.133 214.565,210.859 214.190 C 212.568 213.818,213.818 212.568,214.190 210.859 C 214.565 209.133,217.133 206.565,218.859 206.190 C 220.568 205.818,221.818 204.568,222.190 202.859 C 222.565 201.133,225.133 198.565,226.859 198.190 C 228.568 197.818,229.818 196.568,230.190 194.859 C 230.565 193.133,233.133 190.565,234.859 190.190 C 236.568 189.818,237.818 188.568,238.190 186.859 C 238.351 186.120,239.162 184.838,240.000 184.000 C 240.838 183.162,242.120 182.351,242.859 182.190 C 244.568 181.818,245.818 180.568,246.190 178.859 C 246.351 178.120,247.162 176.838,248.000 176.000 C 248.838 175.162,250.120 174.351,250.859 174.190 C 252.555 173.821,253.818 172.570,254.181 170.900 C 254.336 170.185,254.600 169.600,254.768 169.600 C 254.935 169.600,255.277 169.150,255.527 168.600 C 255.778 168.050,256.237 167.600,256.549 167.600 C 256.860 167.600,257.209 167.353,257.325 167.051 C 257.441 166.748,258.181 166.380,258.970 166.232 C 260.728 165.902,261.842 164.769,262.180 162.965 C 262.321 162.214,262.579 161.600,262.754 161.600 C 262.929 161.600,263.277 161.150,263.527 160.600 C 263.778 160.050,264.237 159.600,264.549 159.600 C 264.860 159.600,265.209 159.353,265.325 159.051 C 265.441 158.748,266.181 158.380,266.970 158.232 C 269.535 157.751,270.002 156.821,269.987 152.225 C 269.969 146.538,270.099 146.652,263.344 146.389 C 258.831 146.213,257.835 146.062,257.416 145.489 C 257.139 145.110,256.703 144.800,256.447 144.800 C 256.192 144.800,255.778 144.350,255.527 143.800 C 255.277 143.250,254.935 142.800,254.768 142.800 C 254.600 142.800,254.336 142.215,254.181 141.500 C 253.818 139.830,252.555 138.579,250.859 138.210 C 249.133 137.835,246.565 135.267,246.190 133.541 C 245.821 131.843,244.570 130.582,242.893 130.218 C 239.401 129.458,238.002 126.734,237.993 120.674 C 237.984 114.656,237.742 114.397,232.144 114.407 C 228.586 114.413,228.117 114.501,227.354 115.308 M83.300 259.363 C 82.428 260.283,82.400 260.562,82.407 268.256 C 82.415 277.144,82.534 277.527,85.507 278.180 C 88.993 278.945,90.400 281.674,90.400 287.670 C 90.400 293.810,90.572 293.984,96.674 293.993 C 102.733 294.002,105.453 295.398,106.220 298.893 C 106.874 301.870,107.248 301.986,116.200 301.986 C 126.806 301.986,126.002 302.794,125.993 292.144 C 125.985 283.256,125.866 282.873,122.893 282.220 C 119.398 281.453,118.002 278.733,117.993 272.674 C 117.984 266.572,117.810 266.400,111.670 266.400 C 105.674 266.400,102.945 264.993,102.180 261.507 C 101.526 258.530,101.152 258.414,92.200 258.414 C 84.300 258.414,84.189 258.426,83.300 259.363 " stroke="none" fill="#fccc0c" fill-rule="evenodd"></path><path id="path1" d="M324.480 44.480 C 324.179 44.781,324.000 46.276,324.000 48.480 L 324.000 52.000 316.480 52.000 C 307.553 52.000,308.000 51.764,308.000 56.480 L 308.000 60.000 300.480 60.000 C 291.553 60.000,292.000 59.764,292.000 64.480 L 292.000 68.000 284.480 68.000 C 275.553 68.000,276.000 67.764,276.000 72.480 L 276.000 76.000 268.480 76.000 C 259.553 76.000,260.000 75.764,260.000 80.480 L 260.000 84.000 252.480 84.000 C 243.553 84.000,244.000 83.764,244.000 88.480 L 244.000 92.000 236.480 92.000 C 227.553 92.000,228.000 91.764,228.000 96.480 L 228.000 100.000 224.480 100.000 C 220.056 100.000,220.000 100.056,220.000 104.480 L 220.000 108.000 216.480 108.000 C 212.056 108.000,212.000 108.056,212.000 112.480 L 212.000 116.000 208.480 116.000 C 204.056 116.000,204.000 116.056,204.000 120.480 L 204.000 124.000 200.480 124.000 C 198.276 124.000,196.781 124.179,196.480 124.480 C 196.179 124.781,196.000 126.276,196.000 128.480 L 196.000 132.000 192.480 132.000 C 188.056 132.000,188.000 132.056,188.000 136.480 L 188.000 140.000 184.480 140.000 C 180.056 140.000,180.000 140.056,180.000 144.480 L 180.000 148.000 176.480 148.000 C 172.056 148.000,172.000 148.056,172.000 152.480 L 172.000 156.000 168.480 156.000 C 164.056 156.000,164.000 156.056,164.000 160.480 L 164.000 164.000 160.480 164.000 C 156.056 164.000,156.000 164.056,156.000 168.480 L 156.000 172.000 152.480 172.000 C 148.056 172.000,148.000 172.056,148.000 176.480 L 148.000 180.000 144.480 180.000 C 140.056 180.000,140.000 180.056,140.000 184.480 L 140.000 188.000 136.480 188.000 C 132.056 188.000,132.000 188.056,132.000 192.480 L 132.000 196.000 128.480 196.000 C 124.056 196.000,124.000 196.056,124.000 200.480 L 124.000 204.000 120.480 204.000 C 118.276 204.000,116.781 204.179,116.480 204.480 C 116.179 204.781,116.000 206.276,116.000 208.480 L 116.000 212.000 112.480 212.000 C 108.056 212.000,108.000 212.056,108.000 216.480 L 108.000 220.000 104.480 220.000 C 100.056 220.000,100.000 220.056,100.000 224.480 L 100.000 228.000 96.480 228.000 C 92.056 228.000,92.000 228.056,92.000 232.480 L 92.000 236.000 88.480 236.000 C 84.056 236.000,84.000 236.056,84.000 240.480 L 84.000 244.000 80.480 244.000 C 76.056 244.000,76.000 244.056,76.000 248.480 L 76.000 252.000 72.480 252.000 C 67.603 252.000,68.000 250.581,68.000 268.000 C 68.000 285.419,67.603 284.000,72.480 284.000 L 76.000 284.000 76.000 291.520 C 76.000 300.447,75.764 300.000,80.480 300.000 L 84.000 300.000 84.000 303.520 C 84.000 308.236,83.553 308.000,92.480 308.000 L 100.000 308.000 100.000 311.551 C 100.000 316.409,98.558 316.027,116.447 315.905 L 131.800 315.800 131.914 311.914 L 132.029 308.029 135.914 307.914 L 139.800 307.800 139.914 303.914 L 140.029 300.029 143.914 299.914 L 147.800 299.800 147.914 295.914 L 148.029 292.029 151.914 291.914 L 155.800 291.800 155.914 287.914 L 156.029 284.029 159.914 283.914 L 163.800 283.800 163.914 279.914 L 164.029 276.029 167.914 275.914 L 171.800 275.800 171.914 271.914 L 172.029 268.029 175.914 267.914 L 179.800 267.800 179.914 263.914 L 180.029 260.029 183.914 259.914 L 187.800 259.800 187.914 255.914 L 188.029 252.029 191.914 251.914 L 195.800 251.800 195.914 247.914 L 196.029 244.029 199.914 243.914 L 203.800 243.800 203.914 239.914 L 204.029 236.029 207.914 235.914 L 211.800 235.800 211.914 231.914 L 212.029 228.029 215.914 227.914 L 219.800 227.800 219.914 223.914 L 220.029 220.029 223.914 219.914 L 227.800 219.800 227.914 215.914 L 228.029 212.029 231.914 211.914 L 235.800 211.800 235.914 207.914 L 236.029 204.029 239.914 203.914 L 243.800 203.800 243.914 199.914 L 244.029 196.029 247.914 195.914 L 251.800 195.800 251.914 191.914 L 252.029 188.029 255.914 187.914 L 259.800 187.800 259.914 183.914 L 260.029 180.029 263.914 179.914 L 267.800 179.800 267.914 175.914 L 268.029 172.029 271.914 171.914 L 275.800 171.800 275.914 167.914 L 276.029 164.029 279.914 163.914 L 283.800 163.800 283.914 159.914 L 284.029 156.029 287.914 155.914 L 291.800 155.800 291.914 151.914 L 292.029 148.029 295.914 147.914 L 299.800 147.800 299.908 139.914 L 300.017 132.029 303.908 131.914 L 307.800 131.800 307.908 123.914 L 308.017 116.029 311.908 115.914 L 315.800 115.800 315.914 111.914 L 316.029 108.029 319.914 107.914 L 323.800 107.800 323.908 99.914 L 324.017 92.029 327.908 91.914 L 331.800 91.800 331.908 83.914 L 332.017 76.029 335.908 75.914 L 339.800 75.800 339.908 67.914 L 340.017 60.029 343.908 59.914 L 347.800 59.800 347.909 52.452 C 347.985 47.371,347.877 44.934,347.560 44.552 C 346.937 43.801,325.227 43.733,324.480 44.480 M324.860 64.500 C 329.173 67.039,328.952 70.426,324.353 72.266 C 321.001 73.607,320.640 74.323,320.352 80.200 C 320.211 83.060,320.075 85.419,320.048 85.442 C 320.022 85.464,319.562 85.956,319.026 86.535 C 318.490 87.113,317.301 87.886,316.383 88.253 C 312.999 89.608,312.640 90.314,312.352 96.200 C 312.211 99.060,312.075 101.419,312.048 101.442 C 312.022 101.464,311.562 101.956,311.026 102.535 C 310.490 103.113,309.301 103.886,308.383 104.253 C 306.252 105.106,305.097 106.274,304.225 108.458 C 303.376 110.585,302.562 111.382,300.323 112.276 C 298.576 112.974,297.238 114.189,297.213 115.100 C 297.206 115.375,297.020 115.600,296.800 115.600 C 296.559 115.600,296.400 117.258,296.400 119.774 C 296.400 125.629,295.796 126.889,292.323 128.276 C 290.576 128.974,289.238 130.189,289.213 131.100 C 289.206 131.375,289.020 131.600,288.800 131.600 C 288.559 131.600,288.400 133.258,288.400 135.774 C 288.400 143.584,287.433 144.400,278.174 144.400 L 272.400 144.400 272.400 150.174 C 272.400 157.748,271.967 158.821,268.323 160.276 C 266.576 160.974,265.238 162.189,265.213 163.100 C 265.206 163.375,265.034 163.600,264.831 163.600 C 264.628 163.600,264.267 164.191,264.029 164.913 C 263.503 166.507,262.509 167.403,260.284 168.292 C 258.572 168.976,257.237 170.196,257.213 171.100 C 257.206 171.375,257.034 171.600,256.831 171.600 C 256.628 171.600,256.267 172.191,256.029 172.913 C 255.506 174.495,254.511 175.402,252.342 176.270 C 250.279 177.095,249.094 178.282,248.266 180.353 C 247.438 182.421,246.421 183.438,244.353 184.266 C 242.279 185.095,241.095 186.279,240.266 188.353 C 239.438 190.421,238.421 191.438,236.353 192.266 C 234.279 193.095,233.095 194.279,232.266 196.353 C 231.438 198.421,230.421 199.438,228.353 200.266 C 226.279 201.095,225.095 202.279,224.266 204.353 C 223.438 206.421,222.421 207.438,220.353 208.266 C 218.279 209.095,217.095 210.279,216.266 212.353 C 215.438 214.421,214.421 215.438,212.353 216.266 C 210.279 217.095,209.095 218.279,208.266 220.353 C 207.438 222.421,206.421 223.438,204.353 224.266 C 202.279 225.095,201.095 226.279,200.266 228.353 C 199.438 230.421,198.421 231.438,196.353 232.266 C 194.279 233.095,193.095 234.279,192.266 236.353 C 191.438 238.421,190.421 239.438,188.353 240.266 C 186.279 241.095,185.095 242.279,184.266 244.353 C 183.438 246.421,182.421 247.438,180.353 248.266 C 178.279 249.095,177.095 250.279,176.266 252.353 C 175.438 254.421,174.421 255.438,172.353 256.266 C 170.279 257.095,169.095 258.279,168.266 260.353 C 167.438 262.421,166.421 263.438,164.353 264.266 C 162.279 265.095,161.095 266.279,160.266 268.353 C 159.438 270.421,158.421 271.438,156.353 272.266 C 154.279 273.095,153.095 274.279,152.266 276.353 C 151.438 278.421,150.421 279.438,148.353 280.266 C 146.279 281.095,145.095 282.279,144.266 284.353 C 142.311 289.237,138.778 289.177,136.200 284.216 C 134.726 281.380,133.690 280.648,130.900 280.468 L 128.400 280.307 128.400 290.127 C 128.400 304.661,128.623 304.400,116.200 304.400 C 106.638 304.400,105.335 303.959,104.063 300.288 C 102.955 297.089,102.056 296.639,96.200 296.352 C 93.340 296.211,90.987 296.075,90.972 296.048 C 90.957 296.022,90.335 295.456,89.590 294.791 L 88.237 293.583 88.012 288.291 C 87.758 282.320,87.411 281.611,84.085 280.280 C 83.205 279.928,81.971 279.164,81.342 278.582 L 80.200 277.523 80.200 268.231 L 80.200 258.938 81.569 257.569 L 82.937 256.200 93.514 256.075 L 104.090 255.951 103.931 253.475 C 103.753 250.712,103.012 249.670,100.184 248.200 C 95.233 245.627,95.199 241.790,100.112 240.069 C 102.035 239.396,103.396 238.035,104.069 236.112 C 104.743 234.188,106.188 232.743,108.112 232.069 C 110.035 231.396,111.396 230.035,112.069 228.112 C 112.743 226.188,114.188 224.743,116.112 224.069 C 118.035 223.396,119.396 222.035,120.069 220.112 C 120.743 218.188,122.188 216.743,124.112 216.069 C 126.035 215.396,127.396 214.035,128.069 212.112 C 128.743 210.188,130.188 208.743,132.112 208.069 C 134.035 207.396,135.396 206.035,136.069 204.112 C 136.743 202.188,138.188 200.743,140.112 200.069 C 142.035 199.396,143.396 198.035,144.069 196.112 C 144.743 194.188,146.188 192.743,148.112 192.069 C 150.035 191.396,151.396 190.035,152.069 188.112 C 152.743 186.188,154.188 184.743,156.112 184.069 C 158.035 183.396,159.396 182.035,160.069 180.112 C 160.743 178.188,162.188 176.743,164.112 176.069 C 166.035 175.396,167.396 174.035,168.069 172.112 C 168.743 170.188,170.188 168.743,172.112 168.069 C 174.035 167.396,175.396 166.035,176.069 164.112 C 176.743 162.188,178.188 160.743,180.112 160.069 C 182.035 159.396,183.396 158.035,184.069 156.112 C 184.743 154.188,186.188 152.743,188.112 152.069 C 190.035 151.396,191.396 150.035,192.069 148.112 C 192.743 146.188,194.188 144.743,196.112 144.069 C 196.944 143.778,198.055 143.109,198.582 142.582 C 199.109 142.055,199.778 140.944,200.069 140.112 C 200.743 138.188,202.188 136.743,204.112 136.069 C 206.035 135.396,207.396 134.035,208.069 132.112 C 208.743 130.188,210.188 128.743,212.112 128.069 C 214.035 127.396,215.396 126.035,216.069 124.112 C 216.361 123.280,217.049 122.150,217.599 121.599 C 218.150 121.049,219.280 120.361,220.112 120.069 C 222.035 119.396,223.396 118.035,224.069 116.112 C 224.361 115.280,225.125 114.060,225.768 113.400 L 226.937 112.200 233.468 112.066 L 240.000 111.931 240.000 110.160 C 240.000 107.553,241.303 105.697,244.184 104.200 C 246.299 103.101,247.444 101.896,248.069 100.112 C 249.245 96.756,250.260 96.241,256.162 96.007 C 262.087 95.773,262.923 95.373,264.042 92.237 C 265.296 88.725,266.221 88.242,272.146 88.008 C 278.089 87.773,278.923 87.374,280.042 84.237 C 281.296 80.725,282.221 80.242,288.146 80.008 C 294.089 79.773,294.923 79.374,296.042 76.237 C 297.291 72.740,298.204 72.263,304.138 72.011 C 310.066 71.759,310.943 71.328,312.069 68.112 C 312.667 66.406,314.266 64.586,315.426 64.290 C 317.127 63.857,324.028 64.010,324.860 64.500 M240.472 118.852 L 240.600 125.400 241.800 126.586 C 242.820 127.593,243.379 127.795,245.528 127.934 L 248.055 128.097 247.928 121.548 L 247.800 115.000 246.600 113.814 C 245.580 112.807,245.021 112.605,242.872 112.466 L 240.345 112.303 240.472 118.852 M248.465 130.850 C 248.697 134.453,249.947 135.703,253.550 135.935 L 256.100 136.100 255.932 133.472 C 255.703 129.865,254.529 128.709,250.850 128.468 L 248.300 128.300 248.465 130.850 M256.400 138.600 C 256.400 139.810,256.580 140.800,256.800 140.800 C 257.020 140.800,257.206 141.025,257.213 141.300 C 257.269 143.386,258.554 143.794,265.493 143.928 L 272.097 144.055 271.930 141.436 C 271.779 139.061,271.637 138.704,270.410 137.609 L 269.056 136.400 262.728 136.400 L 256.400 136.400 256.400 138.600 M104.466 258.872 C 104.605 261.021,104.807 261.580,105.814 262.600 L 107.000 263.800 113.548 263.928 L 120.097 264.055 119.934 261.528 C 119.795 259.379,119.593 258.820,118.586 257.800 L 117.400 256.600 110.852 256.472 L 104.303 256.345 104.466 258.872 M120.472 270.852 L 120.600 277.400 121.800 278.586 C 122.820 279.593,123.379 279.795,125.528 279.934 L 128.055 280.097 127.928 273.548 L 127.800 267.000 126.600 265.814 C 125.580 264.807,125.021 264.605,122.872 264.466 L 120.345 264.303 120.472 270.852 " stroke="none" fill="#2c2c2c" fill-rule="evenodd"></path><path id="path2" d="M315.426 64.290 C 314.266 64.586,312.667 66.406,312.069 68.112 C 310.943 71.328,310.066 71.759,304.138 72.011 C 298.204 72.263,297.291 72.740,296.042 76.237 C 294.923 79.374,294.089 79.773,288.146 80.008 C 282.221 80.242,281.296 80.725,280.042 84.237 C 278.923 87.374,278.089 87.773,272.146 88.008 C 266.221 88.242,265.296 88.725,264.042 92.237 C 262.923 95.373,262.087 95.773,256.162 96.007 C 250.260 96.241,249.245 96.756,248.069 100.112 C 247.444 101.896,246.299 103.101,244.184 104.200 C 241.303 105.697,240.000 107.553,240.000 110.160 L 240.000 111.931 233.468 112.066 L 226.937 112.200 225.768 113.400 C 225.125 114.060,224.361 115.280,224.069 116.112 C 223.396 118.035,222.035 119.396,220.112 120.069 C 219.280 120.361,218.150 121.049,217.599 121.599 C 217.049 122.150,216.361 123.280,216.069 124.112 C 215.396 126.035,214.035 127.396,212.112 128.069 C 210.188 128.743,208.743 130.188,208.069 132.112 C 207.396 134.035,206.035 135.396,204.112 136.069 C 202.188 136.743,200.743 138.188,200.069 140.112 C 199.396 142.035,198.035 143.396,196.112 144.069 C 194.188 144.743,192.743 146.188,192.069 148.112 C 191.396 150.035,190.035 151.396,188.112 152.069 C 186.188 152.743,184.743 154.188,184.069 156.112 C 183.396 158.035,182.035 159.396,180.112 160.069 C 178.188 160.743,176.743 162.188,176.069 164.112 C 175.396 166.035,174.035 167.396,172.112 168.069 C 170.188 168.743,168.743 170.188,168.069 172.112 C 167.396 174.035,166.035 175.396,164.112 176.069 C 162.188 176.743,160.743 178.188,160.069 180.112 C 159.396 182.035,158.035 183.396,156.112 184.069 C 154.188 184.743,152.743 186.188,152.069 188.112 C 151.396 190.035,150.035 191.396,148.112 192.069 C 146.188 192.743,144.743 194.188,144.069 196.112 C 143.396 198.035,142.035 199.396,140.112 200.069 C 138.188 200.743,136.743 202.188,136.069 204.112 C 135.396 206.035,134.035 207.396,132.112 208.069 C 130.188 208.743,128.743 210.188,128.069 212.112 C 127.396 214.035,126.035 215.396,124.112 216.069 C 122.188 216.743,120.743 218.188,120.069 220.112 C 119.396 222.035,118.035 223.396,116.112 224.069 C 114.188 224.743,112.743 226.188,112.069 228.112 C 111.396 230.035,110.035 231.396,108.112 232.069 C 106.188 232.743,104.743 234.188,104.069 236.112 C 103.396 238.035,102.035 239.396,100.112 240.069 C 95.199 241.790,95.233 245.627,100.184 248.200 C 103.012 249.670,103.753 250.712,103.931 253.475 L 104.090 255.951 93.514 256.075 L 82.937 256.200 81.569 257.569 L 80.200 258.938 80.200 268.231 L 80.200 277.523 81.342 278.582 C 81.971 279.164,83.205 279.928,84.085 280.280 C 87.411 281.611,87.758 282.320,88.012 288.291 L 88.237 293.583 89.590 294.791 C 90.335 295.456,90.957 296.022,90.972 296.048 C 90.987 296.075,93.340 296.211,96.200 296.352 C 102.056 296.639,102.955 297.089,104.063 300.288 C 105.335 303.959,106.638 304.400,116.200 304.400 C 128.623 304.400,128.400 304.661,128.400 290.127 L 128.400 280.307 130.900 280.468 C 133.690 280.648,134.726 281.380,136.200 284.216 C 138.778 289.177,142.311 289.237,144.266 284.353 C 145.095 282.279,146.279 281.095,148.353 280.266 C 150.421 279.438,151.438 278.421,152.266 276.353 C 153.095 274.279,154.279 273.095,156.353 272.266 C 158.421 271.438,159.438 270.421,160.266 268.353 C 161.095 266.279,162.279 265.095,164.353 264.266 C 166.421 263.438,167.438 262.421,168.266 260.353 C 169.095 258.279,170.279 257.095,172.353 256.266 C 174.421 255.438,175.438 254.421,176.266 252.353 C 177.095 250.279,178.279 249.095,180.353 248.266 C 182.421 247.438,183.438 246.421,184.266 244.353 C 185.095 242.279,186.279 241.095,188.353 240.266 C 190.421 239.438,191.438 238.421,192.266 236.353 C 193.095 234.279,194.279 233.095,196.353 232.266 C 198.421 231.438,199.438 230.421,200.266 228.353 C 201.095 226.279,202.279 225.095,204.353 224.266 C 206.421 223.438,207.438 222.421,208.266 220.353 C 209.095 218.279,210.279 217.095,212.353 216.266 C 214.421 215.438,215.438 214.421,216.266 212.353 C 217.095 210.279,218.279 209.095,220.353 208.266 C 222.421 207.438,223.438 206.421,224.266 204.353 C 225.095 202.279,226.279 201.095,228.353 200.266 C 230.421 199.438,231.438 198.421,232.266 196.353 C 233.095 194.279,234.279 193.095,236.353 192.266 C 238.421 191.438,239.438 190.421,240.266 188.353 C 241.095 186.279,242.279 185.095,244.353 184.266 C 246.421 183.438,247.438 182.421,248.266 180.353 C 249.094 178.282,250.279 177.095,252.342 176.270 C 254.511 175.402,255.506 174.495,256.029 172.913 C 256.267 172.191,256.628 171.600,256.831 171.600 C 257.034 171.600,257.206 171.375,257.213 171.100 C 257.237 170.196,258.572 168.976,260.284 168.292 C 262.509 167.403,263.503 166.507,264.029 164.913 C 264.267 164.191,264.628 163.600,264.831 163.600 C 265.034 163.600,265.206 163.375,265.213 163.100 C 265.238 162.189,266.576 160.974,268.323 160.276 C 271.967 158.821,272.400 157.748,272.400 150.174 L 272.400 144.400 278.174 144.400 C 287.433 144.400,288.400 143.584,288.400 135.774 C 288.400 133.258,288.559 131.600,288.800 131.600 C 289.020 131.600,289.206 131.375,289.213 131.100 C 289.238 130.189,290.576 128.974,292.323 128.276 C 295.796 126.889,296.400 125.629,296.400 119.774 C 296.400 117.258,296.559 115.600,296.800 115.600 C 297.020 115.600,297.206 115.375,297.213 115.100 C 297.238 114.189,298.576 112.974,300.323 112.276 C 302.562 111.382,303.376 110.585,304.225 108.458 C 305.097 106.274,306.252 105.106,308.383 104.253 C 309.301 103.886,310.490 103.113,311.026 102.535 C 311.562 101.956,312.022 101.464,312.048 101.442 C 312.075 101.419,312.211 99.060,312.352 96.200 C 312.640 90.314,312.999 89.608,316.383 88.253 C 317.301 87.886,318.490 87.113,319.026 86.535 C 319.562 85.956,320.022 85.464,320.048 85.442 C 320.075 85.419,320.211 83.060,320.352 80.200 C 320.640 74.323,321.001 73.607,324.353 72.266 C 328.952 70.426,329.173 67.039,324.860 64.500 C 324.028 64.010,317.127 63.857,315.426 64.290 M325.062 67.323 L 325.923 68.233 325.061 69.063 C 324.587 69.519,323.611 70.022,322.893 70.180 C 319.398 70.947,318.002 73.667,317.993 79.726 C 317.985 84.738,317.576 85.590,314.893 86.180 C 311.398 86.947,310.002 89.667,309.993 95.726 C 309.985 100.745,309.577 101.590,306.875 102.183 C 305.696 102.442,304.446 103.439,302.892 105.357 C 302.612 105.702,302.277 106.515,302.147 107.164 C 301.820 108.798,300.665 109.914,298.970 110.232 C 298.181 110.380,297.441 110.748,297.325 111.051 C 297.209 111.353,296.870 111.600,296.571 111.600 C 296.273 111.600,295.815 112.005,295.554 112.500 C 295.294 112.995,294.882 113.528,294.640 113.685 C 294.369 113.860,294.150 115.959,294.069 119.142 C 293.921 124.982,293.590 125.741,290.970 126.232 C 290.181 126.380,289.441 126.748,289.325 127.051 C 289.209 127.353,288.870 127.600,288.571 127.600 C 288.273 127.600,287.815 128.005,287.554 128.500 C 287.294 128.995,286.882 129.528,286.640 129.685 C 286.369 129.860,286.150 131.959,286.069 135.142 C 285.896 141.979,285.879 142.000,280.330 142.000 C 275.714 142.000,275.006 141.601,274.069 138.472 C 273.794 137.553,273.297 136.577,272.965 136.301 C 272.633 136.025,272.000 135.440,271.558 135.000 C 270.854 134.298,270.108 134.182,265.484 134.057 C 259.506 133.896,259.025 133.663,258.069 130.472 C 257.794 129.553,257.297 128.577,256.965 128.301 C 256.633 128.025,256.055 127.506,255.681 127.147 C 255.306 126.787,254.370 126.358,253.601 126.193 C 250.821 125.597,250.415 124.774,250.407 119.726 C 250.398 113.667,249.002 110.947,245.507 110.180 C 244.789 110.022,243.811 109.517,243.334 109.058 L 242.467 108.224 243.334 107.363 C 243.810 106.889,244.803 106.371,245.541 106.210 C 247.267 105.835,249.835 103.267,250.210 101.541 C 250.796 98.845,251.576 98.502,257.480 98.343 C 262.108 98.218,262.853 98.102,263.558 97.400 C 264.000 96.960,264.633 96.375,264.965 96.099 C 265.297 95.823,265.794 94.847,266.069 93.928 C 267.025 90.737,267.506 90.504,273.484 90.343 C 278.108 90.218,278.854 90.102,279.558 89.400 C 280.000 88.960,280.633 88.375,280.965 88.099 C 281.297 87.823,281.794 86.847,282.069 85.928 C 283.025 82.737,283.506 82.504,289.484 82.343 C 294.108 82.218,294.854 82.102,295.558 81.400 C 296.000 80.960,296.633 80.375,296.965 80.099 C 297.297 79.823,297.794 78.847,298.069 77.928 C 299.023 74.742,299.667 74.400,304.720 74.400 C 310.727 74.400,313.454 72.995,314.220 69.507 C 314.918 66.329,322.645 64.772,325.062 67.323 M246.600 113.814 L 247.800 115.000 247.928 121.548 L 248.055 128.097 245.528 127.934 C 243.379 127.795,242.820 127.593,241.800 126.586 L 240.600 125.400 240.472 118.852 L 240.345 112.303 242.872 112.466 C 245.021 112.605,245.580 112.807,246.600 113.814 M237.037 115.300 C 237.925 116.142,237.987 116.489,237.993 120.674 C 238.002 126.734,239.401 129.458,242.893 130.218 C 244.570 130.582,245.821 131.843,246.190 133.541 C 246.565 135.267,249.133 137.835,250.859 138.210 C 252.555 138.579,253.818 139.830,254.181 141.500 C 254.336 142.215,254.600 142.800,254.768 142.800 C 254.935 142.800,255.277 143.250,255.527 143.800 C 255.778 144.350,256.192 144.800,256.447 144.800 C 256.703 144.800,257.139 145.110,257.416 145.489 C 257.835 146.062,258.831 146.213,263.344 146.389 C 270.099 146.652,269.969 146.538,269.987 152.225 C 270.002 156.821,269.535 157.751,266.970 158.232 C 266.181 158.380,265.441 158.748,265.325 159.051 C 265.209 159.353,264.860 159.600,264.549 159.600 C 264.237 159.600,263.778 160.050,263.527 160.600 C 263.277 161.150,262.929 161.600,262.754 161.600 C 262.579 161.600,262.321 162.214,262.180 162.965 C 261.842 164.769,260.728 165.902,258.970 166.232 C 258.181 166.380,257.441 166.748,257.325 167.051 C 257.209 167.353,256.860 167.600,256.549 167.600 C 256.237 167.600,255.778 168.050,255.527 168.600 C 255.277 169.150,254.935 169.600,254.768 169.600 C 254.600 169.600,254.336 170.185,254.181 170.900 C 253.818 172.570,252.555 173.821,250.859 174.190 C 249.133 174.565,246.565 177.133,246.190 178.859 C 245.818 180.568,244.568 181.818,242.859 182.190 C 241.133 182.565,238.565 185.133,238.190 186.859 C 237.818 188.568,236.568 189.818,234.859 190.190 C 233.133 190.565,230.565 193.133,230.190 194.859 C 229.818 196.568,228.568 197.818,226.859 198.190 C 226.120 198.351,224.838 199.162,224.000 200.000 C 223.162 200.838,222.351 202.120,222.190 202.859 C 221.818 204.568,220.568 205.818,218.859 206.190 C 217.133 206.565,214.565 209.133,214.190 210.859 C 213.818 212.568,212.568 213.818,210.859 214.190 C 209.133 214.565,206.565 217.133,206.190 218.859 C 205.818 220.568,204.568 221.818,202.859 222.190 C 201.133 222.565,198.565 225.133,198.190 226.859 C 197.818 228.568,196.568 229.818,194.859 230.190 C 193.133 230.565,190.565 233.133,190.190 234.859 C 189.818 236.568,188.568 237.818,186.859 238.190 C 185.133 238.565,182.565 241.133,182.190 242.859 C 181.818 244.568,180.568 245.818,178.859 246.190 C 177.133 246.565,174.565 249.133,174.190 250.859 C 173.818 252.568,172.568 253.818,170.859 254.190 C 169.133 254.565,166.565 257.133,166.190 258.859 C 165.818 260.568,164.568 261.818,162.859 262.190 C 161.133 262.565,158.565 265.133,158.190 266.859 C 157.818 268.568,156.568 269.818,154.859 270.190 C 153.133 270.565,150.565 273.133,150.190 274.859 C 149.818 276.568,148.568 277.818,146.859 278.190 C 145.136 278.565,142.566 281.132,142.187 282.859 C 142.025 283.596,141.517 284.589,141.058 285.066 L 140.224 285.933 139.363 285.066 C 138.889 284.590,138.371 283.597,138.210 282.859 C 137.835 281.136,135.268 278.566,133.541 278.187 C 130.822 277.590,130.415 276.751,130.407 271.726 C 130.398 265.666,128.999 262.942,125.507 262.182 C 123.841 261.820,122.580 260.559,122.218 258.893 C 121.458 255.401,118.734 254.002,112.674 253.993 C 107.649 253.985,106.810 253.578,106.213 250.859 C 105.834 249.135,103.265 246.566,101.541 246.187 C 100.804 246.025,99.811 245.517,99.334 245.058 L 98.467 244.224 99.334 243.363 C 99.810 242.889,100.803 242.371,101.541 242.210 C 103.267 241.835,105.835 239.267,106.210 237.541 C 106.582 235.832,107.832 234.582,109.541 234.210 C 111.267 233.835,113.835 231.267,114.210 229.541 C 114.582 227.832,115.832 226.582,117.541 226.210 C 118.280 226.049,119.562 225.238,120.400 224.400 C 121.238 223.562,122.049 222.280,122.210 221.541 C 122.582 219.832,123.832 218.582,125.541 218.210 C 127.267 217.835,129.835 215.267,130.210 213.541 C 130.582 211.832,131.832 210.582,133.541 210.210 C 135.267 209.835,137.835 207.267,138.210 205.541 C 138.582 203.832,139.832 202.582,141.541 202.210 C 142.280 202.049,143.562 201.238,144.400 200.400 C 145.238 199.562,146.049 198.280,146.210 197.541 C 146.582 195.832,147.832 194.582,149.541 194.210 C 151.267 193.835,153.835 191.267,154.210 189.541 C 154.371 188.803,154.884 187.818,155.351 187.351 C 155.818 186.884,156.803 186.371,157.541 186.210 C 159.267 185.835,161.835 183.267,162.210 181.541 C 162.371 180.803,162.884 179.818,163.351 179.351 C 163.818 178.884,164.803 178.371,165.541 178.210 C 167.267 177.835,169.835 175.267,170.210 173.541 C 170.371 172.803,170.884 171.818,171.351 171.351 C 171.818 170.884,172.803 170.371,173.541 170.210 C 175.267 169.835,177.835 167.267,178.210 165.541 C 178.582 163.832,179.832 162.582,181.541 162.210 C 183.267 161.835,185.835 159.267,186.210 157.541 C 186.582 155.832,187.832 154.582,189.541 154.210 C 191.267 153.835,193.835 151.267,194.210 149.541 C 194.582 147.832,195.832 146.582,197.541 146.210 C 198.280 146.049,199.562 145.238,200.400 144.400 C 201.238 143.562,202.049 142.280,202.210 141.541 C 202.371 140.803,202.884 139.818,203.351 139.351 C 203.818 138.884,204.803 138.371,205.541 138.210 C 207.267 137.835,209.835 135.267,210.210 133.541 C 210.582 131.832,211.832 130.582,213.541 130.210 C 214.280 130.049,215.562 129.238,216.400 128.400 C 217.238 127.562,218.049 126.280,218.210 125.541 C 218.582 123.832,219.832 122.582,221.541 122.210 C 223.264 121.835,225.834 119.268,226.213 117.541 C 226.918 114.330,234.383 112.784,237.037 115.300 M254.582 129.740 C 255.611 130.700,255.787 131.187,255.932 133.472 L 256.100 136.100 253.550 135.935 C 249.947 135.703,248.697 134.453,248.465 130.850 L 248.300 128.300 250.850 128.468 C 252.951 128.605,253.608 128.829,254.582 129.740 M270.410 137.609 C 271.637 138.704,271.779 139.061,271.930 141.436 L 272.097 144.055 265.493 143.928 C 258.554 143.794,257.269 143.386,257.213 141.300 C 257.206 141.025,257.020 140.800,256.800 140.800 C 256.580 140.800,256.400 139.810,256.400 138.600 L 256.400 136.400 262.728 136.400 L 269.056 136.400 270.410 137.609 M118.586 257.800 C 119.593 258.820,119.795 259.379,119.934 261.528 L 120.097 264.055 113.548 263.928 L 107.000 263.800 105.814 262.600 C 104.807 261.580,104.605 261.021,104.466 258.872 L 104.303 256.345 110.852 256.472 L 117.400 256.600 118.586 257.800 M101.046 259.308 C 101.512 259.799,102.022 260.789,102.180 261.507 C 102.945 264.993,105.674 266.400,111.670 266.400 C 117.810 266.400,117.984 266.572,117.993 272.674 C 118.002 278.733,119.398 281.453,122.893 282.220 C 125.866 282.873,125.985 283.256,125.993 292.144 C 126.002 302.794,126.806 301.986,116.200 301.986 C 107.248 301.986,106.874 301.870,106.220 298.893 C 105.453 295.398,102.733 294.002,96.674 293.993 C 90.572 293.984,90.400 293.810,90.400 287.670 C 90.400 281.674,88.993 278.945,85.507 278.180 C 82.534 277.527,82.415 277.144,82.407 268.256 C 82.398 257.606,81.594 258.414,92.200 258.414 C 99.961 258.414,100.225 258.441,101.046 259.308 M126.600 265.814 L 127.800 267.000 127.928 273.548 L 128.055 280.097 125.528 279.934 C 123.379 279.795,122.820 279.593,121.800 278.586 L 120.600 277.400 120.472 270.852 L 120.345 264.303 122.872 264.466 C 125.021 264.605,125.580 264.807,126.600 265.814 " stroke="none" fill="#c8d01c" fill-rule="evenodd"></path><path id="path3" d="M315.426 64.290 C 314.266 64.586,312.667 66.406,312.069 68.112 C 310.943 71.328,310.066 71.759,304.138 72.011 C 298.204 72.263,297.291 72.740,296.042 76.237 C 294.923 79.374,294.089 79.773,288.146 80.008 C 282.221 80.242,281.296 80.725,280.042 84.237 C 278.923 87.374,278.089 87.773,272.146 88.008 C 266.221 88.242,265.296 88.725,264.042 92.237 C 262.923 95.373,262.087 95.773,256.162 96.007 C 250.260 96.241,249.245 96.756,248.069 100.112 C 247.444 101.896,246.299 103.101,244.184 104.200 C 241.303 105.697,240.000 107.553,240.000 110.160 L 240.000 111.931 233.468 112.066 L 226.937 112.200 225.768 113.400 C 225.125 114.060,224.361 115.280,224.069 116.112 C 223.396 118.035,222.035 119.396,220.112 120.069 C 219.280 120.361,218.150 121.049,217.599 121.599 C 217.049 122.150,216.361 123.280,216.069 124.112 C 215.396 126.035,214.035 127.396,212.112 128.069 C 210.188 128.743,208.743 130.188,208.069 132.112 C 207.396 134.035,206.035 135.396,204.112 136.069 C 202.188 136.743,200.743 138.188,200.069 140.112 C 199.396 142.035,198.035 143.396,196.112 144.069 C 194.188 144.743,192.743 146.188,192.069 148.112 C 191.396 150.035,190.035 151.396,188.112 152.069 C 186.188 152.743,184.743 154.188,184.069 156.112 C 183.396 158.035,182.035 159.396,180.112 160.069 C 178.188 160.743,176.743 162.188,176.069 164.112 C 175.396 166.035,174.035 167.396,172.112 168.069 C 170.188 168.743,168.743 170.188,168.069 172.112 C 167.396 174.035,166.035 175.396,164.112 176.069 C 162.188 176.743,160.743 178.188,160.069 180.112 C 159.396 182.035,158.035 183.396,156.112 184.069 C 154.188 184.743,152.743 186.188,152.069 188.112 C 151.396 190.035,150.035 191.396,148.112 192.069 C 146.188 192.743,144.743 194.188,144.069 196.112 C 143.396 198.035,142.035 199.396,140.112 200.069 C 138.188 200.743,136.743 202.188,136.069 204.112 C 135.396 206.035,134.035 207.396,132.112 208.069 C 130.188 208.743,128.743 210.188,128.069 212.112 C 127.396 214.035,126.035 215.396,124.112 216.069 C 122.188 216.743,120.743 218.188,120.069 220.112 C 119.396 222.035,118.035 223.396,116.112 224.069 C 114.188 224.743,112.743 226.188,112.069 228.112 C 111.396 230.035,110.035 231.396,108.112 232.069 C 106.188 232.743,104.743 234.188,104.069 236.112 C 103.396 238.035,102.035 239.396,100.112 240.069 C 95.199 241.790,95.233 245.627,100.184 248.200 C 103.012 249.670,103.753 250.712,103.931 253.475 L 104.090 255.951 93.514 256.075 L 82.937 256.200 81.569 257.569 L 80.200 258.938 80.200 268.231 L 80.200 277.523 81.342 278.582 C 81.971 279.164,83.205 279.928,84.085 280.280 C 87.411 281.611,87.758 282.320,88.012 288.291 L 88.237 293.583 89.590 294.791 C 90.335 295.456,90.957 296.022,90.972 296.048 C 90.987 296.075,93.340 296.211,96.200 296.352 C 102.056 296.639,102.955 297.089,104.063 300.288 C 105.335 303.959,106.638 304.400,116.200 304.400 C 128.623 304.400,128.400 304.661,128.400 290.127 L 128.400 280.307 130.900 280.468 C 133.690 280.648,134.726 281.380,136.200 284.216 C 138.778 289.177,142.311 289.237,144.266 284.353 C 145.095 282.279,146.279 281.095,148.353 280.266 C 150.421 279.438,151.438 278.421,152.266 276.353 C 153.095 274.279,154.279 273.095,156.353 272.266 C 158.421 271.438,159.438 270.421,160.266 268.353 C 161.095 266.279,162.279 265.095,164.353 264.266 C 166.421 263.438,167.438 262.421,168.266 260.353 C 169.095 258.279,170.279 257.095,172.353 256.266 C 174.421 255.438,175.438 254.421,176.266 252.353 C 177.095 250.279,178.279 249.095,180.353 248.266 C 182.421 247.438,183.438 246.421,184.266 244.353 C 185.095 242.279,186.279 241.095,188.353 240.266 C 190.421 239.438,191.438 238.421,192.266 236.353 C 193.095 234.279,194.279 233.095,196.353 232.266 C 198.421 231.438,199.438 230.421,200.266 228.353 C 201.095 226.279,202.279 225.095,204.353 224.266 C 206.421 223.438,207.438 222.421,208.266 220.353 C 209.095 218.279,210.279 217.095,212.353 216.266 C 214.421 215.438,215.438 214.421,216.266 212.353 C 217.095 210.279,218.279 209.095,220.353 208.266 C 222.421 207.438,223.438 206.421,224.266 204.353 C 225.095 202.279,226.279 201.095,228.353 200.266 C 230.421 199.438,231.438 198.421,232.266 196.353 C 233.095 194.279,234.279 193.095,236.353 192.266 C 238.421 191.438,239.438 190.421,240.266 188.353 C 241.095 186.279,242.279 185.095,244.353 184.266 C 246.421 183.438,247.438 182.421,248.266 180.353 C 249.094 178.282,250.279 177.095,252.342 176.270 C 254.511 175.402,255.506 174.495,256.029 172.913 C 256.267 172.191,256.628 171.600,256.831 171.600 C 257.034 171.600,257.206 171.375,257.213 171.100 C 257.237 170.196,258.572 168.976,260.284 168.292 C 262.509 167.403,263.503 166.507,264.029 164.913 C 264.267 164.191,264.628 163.600,264.831 163.600 C 265.034 163.600,265.206 163.375,265.213 163.100 C 265.238 162.189,266.576 160.974,268.323 160.276 C 271.967 158.821,272.400 157.748,272.400 150.174 L 272.400 144.400 278.174 144.400 C 287.433 144.400,288.400 143.584,288.400 135.774 C 288.400 133.258,288.559 131.600,288.800 131.600 C 289.020 131.600,289.206 131.375,289.213 131.100 C 289.238 130.189,290.576 128.974,292.323 128.276 C 295.796 126.889,296.400 125.629,296.400 119.774 C 296.400 117.258,296.559 115.600,296.800 115.600 C 297.020 115.600,297.206 115.375,297.213 115.100 C 297.238 114.189,298.576 112.974,300.323 112.276 C 302.562 111.382,303.376 110.585,304.225 108.458 C 305.097 106.274,306.252 105.106,308.383 104.253 C 309.301 103.886,310.490 103.113,311.026 102.535 C 311.562 101.956,312.022 101.464,312.048 101.442 C 312.075 101.419,312.211 99.060,312.352 96.200 C 312.640 90.314,312.999 89.608,316.383 88.253 C 317.301 87.886,318.490 87.113,319.026 86.535 C 319.562 85.956,320.022 85.464,320.048 85.442 C 320.075 85.419,320.211 83.060,320.352 80.200 C 320.640 74.323,321.001 73.607,324.353 72.266 C 328.952 70.426,329.173 67.039,324.860 64.500 C 324.028 64.010,317.127 63.857,315.426 64.290 M325.062 67.323 L 325.923 68.233 325.061 69.063 C 324.587 69.519,323.611 70.022,322.893 70.180 C 319.398 70.947,318.002 73.667,317.993 79.726 C 317.985 84.738,317.576 85.590,314.893 86.180 C 311.398 86.947,310.002 89.667,309.993 95.726 C 309.985 100.745,309.577 101.590,306.875 102.183 C 305.696 102.442,304.446 103.439,302.892 105.357 C 302.612 105.702,302.277 106.515,302.147 107.164 C 301.820 108.798,300.665 109.914,298.970 110.232 C 298.181 110.380,297.441 110.748,297.325 111.051 C 297.209 111.353,296.870 111.600,296.571 111.600 C 296.273 111.600,295.815 112.005,295.554 112.500 C 295.294 112.995,294.882 113.528,294.640 113.685 C 294.369 113.860,294.150 115.959,294.069 119.142 C 293.921 124.982,293.590 125.741,290.970 126.232 C 290.181 126.380,289.441 126.748,289.325 127.051 C 289.209 127.353,288.870 127.600,288.571 127.600 C 288.273 127.600,287.815 128.005,287.554 128.500 C 287.294 128.995,286.882 129.528,286.640 129.685 C 286.369 129.860,286.150 131.959,286.069 135.142 C 285.896 141.979,285.879 142.000,280.330 142.000 C 275.714 142.000,275.006 141.601,274.069 138.472 C 273.794 137.553,273.297 136.577,272.965 136.301 C 272.633 136.025,272.000 135.440,271.558 135.000 C 270.854 134.298,270.108 134.182,265.484 134.057 C 259.506 133.896,259.025 133.663,258.069 130.472 C 257.794 129.553,257.297 128.577,256.965 128.301 C 256.633 128.025,256.055 127.506,255.681 127.147 C 255.306 126.787,254.370 126.358,253.601 126.193 C 250.821 125.597,250.415 124.774,250.407 119.726 C 250.398 113.667,249.002 110.947,245.507 110.180 C 244.789 110.022,243.811 109.517,243.334 109.058 L 242.467 108.224 243.334 107.363 C 243.810 106.889,244.803 106.371,245.541 106.210 C 247.267 105.835,249.835 103.267,250.210 101.541 C 250.796 98.845,251.576 98.502,257.480 98.343 C 262.108 98.218,262.853 98.102,263.558 97.400 C 264.000 96.960,264.633 96.375,264.965 96.099 C 265.297 95.823,265.794 94.847,266.069 93.928 C 267.025 90.737,267.506 90.504,273.484 90.343 C 278.108 90.218,278.854 90.102,279.558 89.400 C 280.000 88.960,280.633 88.375,280.965 88.099 C 281.297 87.823,281.794 86.847,282.069 85.928 C 283.025 82.737,283.506 82.504,289.484 82.343 C 294.108 82.218,294.854 82.102,295.558 81.400 C 296.000 80.960,296.633 80.375,296.965 80.099 C 297.297 79.823,297.794 78.847,298.069 77.928 C 299.023 74.742,299.667 74.400,304.720 74.400 C 310.727 74.400,313.454 72.995,314.220 69.507 C 314.918 66.329,322.645 64.772,325.062 67.323 M246.600 113.814 L 247.800 115.000 247.928 121.548 L 248.055 128.097 245.528 127.934 C 243.379 127.795,242.820 127.593,241.800 126.586 L 240.600 125.400 240.472 118.852 L 240.345 112.303 242.872 112.466 C 245.021 112.605,245.580 112.807,246.600 113.814 M237.037 115.300 C 237.925 116.142,237.987 116.489,237.993 120.674 C 238.002 126.734,239.401 129.458,242.893 130.218 C 244.570 130.582,245.821 131.843,246.190 133.541 C 246.565 135.267,249.133 137.835,250.859 138.210 C 252.555 138.579,253.818 139.830,254.181 141.500 C 254.336 142.215,254.600 142.800,254.768 142.800 C 254.935 142.800,255.277 143.250,255.527 143.800 C 255.778 144.350,256.192 144.800,256.447 144.800 C 256.703 144.800,257.139 145.110,257.416 145.489 C 257.835 146.062,258.831 146.213,263.344 146.389 C 270.099 146.652,269.969 146.538,269.987 152.225 C 270.002 156.821,269.535 157.751,266.970 158.232 C 266.181 158.380,265.441 158.748,265.325 159.051 C 265.209 159.353,264.860 159.600,264.549 159.600 C 264.237 159.600,263.778 160.050,263.527 160.600 C 263.277 161.150,262.929 161.600,262.754 161.600 C 262.579 161.600,262.321 162.214,262.180 162.965 C 261.842 164.769,260.728 165.902,258.970 166.232 C 258.181 166.380,257.441 166.748,257.325 167.051 C 257.209 167.353,256.860 167.600,256.549 167.600 C 256.237 167.600,255.778 168.050,255.527 168.600 C 255.277 169.150,254.935 169.600,254.768 169.600 C 254.600 169.600,254.336 170.185,254.181 170.900 C 253.818 172.570,252.555 173.821,250.859 174.190 C 249.133 174.565,246.565 177.133,246.190 178.859 C 245.818 180.568,244.568 181.818,242.859 182.190 C 241.133 182.565,238.565 185.133,238.190 186.859 C 237.818 188.568,236.568 189.818,234.859 190.190 C 233.133 190.565,230.565 193.133,230.190 194.859 C 229.818 196.568,228.568 197.818,226.859 198.190 C 226.120 198.351,224.838 199.162,224.000 200.000 C 223.162 200.838,222.351 202.120,222.190 202.859 C 221.818 204.568,220.568 205.818,218.859 206.190 C 217.133 206.565,214.565 209.133,214.190 210.859 C 213.818 212.568,212.568 213.818,210.859 214.190 C 209.133 214.565,206.565 217.133,206.190 218.859 C 205.818 220.568,204.568 221.818,202.859 222.190 C 201.133 222.565,198.565 225.133,198.190 226.859 C 197.818 228.568,196.568 229.818,194.859 230.190 C 193.133 230.565,190.565 233.133,190.190 234.859 C 189.818 236.568,188.568 237.818,186.859 238.190 C 185.133 238.565,182.565 241.133,182.190 242.859 C 181.818 244.568,180.568 245.818,178.859 246.190 C 177.133 246.565,174.565 249.133,174.190 250.859 C 173.818 252.568,172.568 253.818,170.859 254.190 C 169.133 254.565,166.565 257.133,166.190 258.859 C 165.818 260.568,164.568 261.818,162.859 262.190 C 161.133 262.565,158.565 265.133,158.190 266.859 C 157.818 268.568,156.568 269.818,154.859 270.190 C 153.133 270.565,150.565 273.133,150.190 274.859 C 149.818 276.568,148.568 277.818,146.859 278.190 C 145.136 278.565,142.566 281.132,142.187 282.859 C 142.025 283.596,141.517 284.589,141.058 285.066 L 140.224 285.933 139.363 285.066 C 138.889 284.590,138.371 283.597,138.210 282.859 C 137.835 281.136,135.268 278.566,133.541 278.187 C 130.822 277.590,130.415 276.751,130.407 271.726 C 130.398 265.666,128.999 262.942,125.507 262.182 C 123.841 261.820,122.580 260.559,122.218 258.893 C 121.458 255.401,118.734 254.002,112.674 253.993 C 107.649 253.985,106.810 253.578,106.213 250.859 C 105.834 249.135,103.265 246.566,101.541 246.187 C 100.804 246.025,99.811 245.517,99.334 245.058 L 98.467 244.224 99.334 243.363 C 99.810 242.889,100.803 242.371,101.541 242.210 C 103.267 241.835,105.835 239.267,106.210 237.541 C 106.582 235.832,107.832 234.582,109.541 234.210 C 111.267 233.835,113.835 231.267,114.210 229.541 C 114.582 227.832,115.832 226.582,117.541 226.210 C 118.280 226.049,119.562 225.238,120.400 224.400 C 121.238 223.562,122.049 222.280,122.210 221.541 C 122.582 219.832,123.832 218.582,125.541 218.210 C 127.267 217.835,129.835 215.267,130.210 213.541 C 130.582 211.832,131.832 210.582,133.541 210.210 C 135.267 209.835,137.835 207.267,138.210 205.541 C 138.582 203.832,139.832 202.582,141.541 202.210 C 142.280 202.049,143.562 201.238,144.400 200.400 C 145.238 199.562,146.049 198.280,146.210 197.541 C 146.582 195.832,147.832 194.582,149.541 194.210 C 151.267 193.835,153.835 191.267,154.210 189.541 C 154.371 188.803,154.884 187.818,155.351 187.351 C 155.818 186.884,156.803 186.371,157.541 186.210 C 159.267 185.835,161.835 183.267,162.210 181.541 C 162.371 180.803,162.884 179.818,163.351 179.351 C 163.818 178.884,164.803 178.371,165.541 178.210 C 167.267 177.835,169.835 175.267,170.210 173.541 C 170.371 172.803,170.884 171.818,171.351 171.351 C 171.818 170.884,172.803 170.371,173.541 170.210 C 175.267 169.835,177.835 167.267,178.210 165.541 C 178.582 163.832,179.832 162.582,181.541 162.210 C 183.267 161.835,185.835 159.267,186.210 157.541 C 186.582 155.832,187.832 154.582,189.541 154.210 C 191.267 153.835,193.835 151.267,194.210 149.541 C 194.582 147.832,195.832 146.582,197.541 146.210 C 198.280 146.049,199.562 145.238,200.400 144.400 C 201.238 143.562,202.049 142.280,202.210 141.541 C 202.371 140.803,202.884 139.818,203.351 139.351 C 203.818 138.884,204.803 138.371,205.541 138.210 C 207.267 137.835,209.835 135.267,210.210 133.541 C 210.582 131.832,211.832 130.582,213.541 130.210 C 214.280 130.049,215.562 129.238,216.400 128.400 C 217.238 127.562,218.049 126.280,218.210 125.541 C 218.582 123.832,219.832 122.582,221.541 122.210 C 223.264 121.835,225.834 119.268,226.213 117.541 C 226.918 114.330,234.383 112.784,237.037 115.300 M254.582 129.740 C 255.611 130.700,255.787 131.187,255.932 133.472 L 256.100 136.100 253.550 135.935 C 249.947 135.703,248.697 134.453,248.465 130.850 L 248.300 128.300 250.850 128.468 C 252.951 128.605,253.608 128.829,254.582 129.740 M270.410 137.609 C 271.637 138.704,271.779 139.061,271.930 141.436 L 272.097 144.055 265.493 143.928 C 258.554 143.794,257.269 143.386,257.213 141.300 C 257.206 141.025,257.020 140.800,256.800 140.800 C 256.580 140.800,256.400 139.810,256.400 138.600 L 256.400 136.400 262.728 136.400 L 269.056 136.400 270.410 137.609 M118.586 257.800 C 119.593 258.820,119.795 259.379,119.934 261.528 L 120.097 264.055 113.548 263.928 L 107.000 263.800 105.814 262.600 C 104.807 261.580,104.605 261.021,104.466 258.872 L 104.303 256.345 110.852 256.472 L 117.400 256.600 118.586 257.800 M101.046 259.308 C 101.512 259.799,102.022 260.789,102.180 261.507 C 102.945 264.993,105.674 266.400,111.670 266.400 C 117.810 266.400,117.984 266.572,117.993 272.674 C 118.002 278.733,119.398 281.453,122.893 282.220 C 125.866 282.873,125.985 283.256,125.993 292.144 C 126.002 302.794,126.806 301.986,116.200 301.986 C 107.248 301.986,106.874 301.870,106.220 298.893 C 105.453 295.398,102.733 294.002,96.674 293.993 C 90.572 293.984,90.400 293.810,90.400 287.670 C 90.400 281.674,88.993 278.945,85.507 278.180 C 82.534 277.527,82.415 277.144,82.407 268.256 C 82.398 257.606,81.594 258.414,92.200 258.414 C 99.961 258.414,100.225 258.441,101.046 259.308 M126.600 265.814 L 127.800 267.000 127.928 273.548 L 128.055 280.097 125.528 279.934 C 123.379 279.795,122.820 279.593,121.800 278.586 L 120.600 277.400 120.472 270.852 L 120.345 264.303 122.872 264.466 C 125.021 264.605,125.580 264.807,126.600 265.814 " stroke="none" fill="#c8d01c" fill-rule="evenodd"></path><path id="path4" d="M315.426 64.290 C 314.266 64.586,312.667 66.406,312.069 68.112 C 310.943 71.328,310.066 71.759,304.138 72.011 C 298.204 72.263,297.291 72.740,296.042 76.237 C 294.923 79.374,294.089 79.773,288.146 80.008 C 282.221 80.242,281.296 80.725,280.042 84.237 C 278.923 87.374,278.089 87.773,272.146 88.008 C 266.221 88.242,265.296 88.725,264.042 92.237 C 262.923 95.373,262.087 95.773,256.162 96.007 C 250.260 96.241,249.245 96.756,248.069 100.112 C 247.444 101.896,246.299 103.101,244.184 104.200 C 241.303 105.697,240.000 107.553,240.000 110.160 L 240.000 111.931 233.468 112.066 L 226.937 112.200 225.768 113.400 C 225.125 114.060,224.361 115.280,224.069 116.112 C 223.396 118.035,222.035 119.396,220.112 120.069 C 219.280 120.361,218.150 121.049,217.599 121.599 C 217.049 122.150,216.361 123.280,216.069 124.112 C 215.396 126.035,214.035 127.396,212.112 128.069 C 210.188 128.743,208.743 130.188,208.069 132.112 C 207.396 134.035,206.035 135.396,204.112 136.069 C 202.188 136.743,200.743 138.188,200.069 140.112 C 199.396 142.035,198.035 143.396,196.112 144.069 C 194.188 144.743,192.743 146.188,192.069 148.112 C 191.396 150.035,190.035 151.396,188.112 152.069 C 186.188 152.743,184.743 154.188,184.069 156.112 C 183.396 158.035,182.035 159.396,180.112 160.069 C 178.188 160.743,176.743 162.188,176.069 164.112 C 175.396 166.035,174.035 167.396,172.112 168.069 C 170.188 168.743,168.743 170.188,168.069 172.112 C 167.396 174.035,166.035 175.396,164.112 176.069 C 162.188 176.743,160.743 178.188,160.069 180.112 C 159.396 182.035,158.035 183.396,156.112 184.069 C 154.188 184.743,152.743 186.188,152.069 188.112 C 151.396 190.035,150.035 191.396,148.112 192.069 C 146.188 192.743,144.743 194.188,144.069 196.112 C 143.396 198.035,142.035 199.396,140.112 200.069 C 138.188 200.743,136.743 202.188,136.069 204.112 C 135.396 206.035,134.035 207.396,132.112 208.069 C 130.188 208.743,128.743 210.188,128.069 212.112 C 127.396 214.035,126.035 215.396,124.112 216.069 C 122.188 216.743,120.743 218.188,120.069 220.112 C 119.396 222.035,118.035 223.396,116.112 224.069 C 114.188 224.743,112.743 226.188,112.069 228.112 C 111.396 230.035,110.035 231.396,108.112 232.069 C 106.188 232.743,104.743 234.188,104.069 236.112 C 103.396 238.035,102.035 239.396,100.112 240.069 C 95.199 241.790,95.233 245.627,100.184 248.200 C 103.012 249.670,103.753 250.712,103.931 253.475 L 104.090 255.951 93.514 256.075 L 82.937 256.200 81.569 257.569 L 80.200 258.938 80.200 268.231 L 80.200 277.523 81.342 278.582 C 81.971 279.164,83.205 279.928,84.085 280.280 C 87.411 281.611,87.758 282.320,88.012 288.291 L 88.237 293.583 89.590 294.791 C 90.335 295.456,90.957 296.022,90.972 296.048 C 90.987 296.075,93.340 296.211,96.200 296.352 C 102.056 296.639,102.955 297.089,104.063 300.288 C 105.335 303.959,106.638 304.400,116.200 304.400 C 128.623 304.400,128.400 304.661,128.400 290.127 L 128.400 280.307 130.900 280.468 C 133.690 280.648,134.726 281.380,136.200 284.216 C 138.778 289.177,142.311 289.237,144.266 284.353 C 145.095 282.279,146.279 281.095,148.353 280.266 C 150.421 279.438,151.438 278.421,152.266 276.353 C 153.095 274.279,154.279 273.095,156.353 272.266 C 158.421 271.438,159.438 270.421,160.266 268.353 C 161.095 266.279,162.279 265.095,164.353 264.266 C 166.421 263.438,167.438 262.421,168.266 260.353 C 169.095 258.279,170.279 257.095,172.353 256.266 C 174.421 255.438,175.438 254.421,176.266 252.353 C 177.095 250.279,178.279 249.095,180.353 248.266 C 182.421 247.438,183.438 246.421,184.266 244.353 C 185.095 242.279,186.279 241.095,188.353 240.266 C 190.421 239.438,191.438 238.421,192.266 236.353 C 193.095 234.279,194.279 233.095,196.353 232.266 C 198.421 231.438,199.438 230.421,200.266 228.353 C 201.095 226.279,202.279 225.095,204.353 224.266 C 206.421 223.438,207.438 222.421,208.266 220.353 C 209.095 218.279,210.279 217.095,212.353 216.266 C 214.421 215.438,215.438 214.421,216.266 212.353 C 217.095 210.279,218.279 209.095,220.353 208.266 C 222.421 207.438,223.438 206.421,224.266 204.353 C 225.095 202.279,226.279 201.095,228.353 200.266 C 230.421 199.438,231.438 198.421,232.266 196.353 C 233.095 194.279,234.279 193.095,236.353 192.266 C 238.421 191.438,239.438 190.421,240.266 188.353 C 241.095 186.279,242.279 185.095,244.353 184.266 C 246.421 183.438,247.438 182.421,248.266 180.353 C 249.094 178.282,250.279 177.095,252.342 176.270 C 254.511 175.402,255.506 174.495,256.029 172.913 C 256.267 172.191,256.628 171.600,256.831 171.600 C 257.034 171.600,257.206 171.375,257.213 171.100 C 257.237 170.196,258.572 168.976,260.284 168.292 C 262.509 167.403,263.503 166.507,264.029 164.913 C 264.267 164.191,264.628 163.600,264.831 163.600 C 265.034 163.600,265.206 163.375,265.213 163.100 C 265.238 162.189,266.576 160.974,268.323 160.276 C 271.967 158.821,272.400 157.748,272.400 150.174 L 272.400 144.400 278.174 144.400 C 287.433 144.400,288.400 143.584,288.400 135.774 C 288.400 133.258,288.559 131.600,288.800 131.600 C 289.020 131.600,289.206 131.375,289.213 131.100 C 289.238 130.189,290.576 128.974,292.323 128.276 C 295.796 126.889,296.400 125.629,296.400 119.774 C 296.400 117.258,296.559 115.600,296.800 115.600 C 297.020 115.600,297.206 115.375,297.213 115.100 C 297.238 114.189,298.576 112.974,300.323 112.276 C 302.562 111.382,303.376 110.585,304.225 108.458 C 305.097 106.274,306.252 105.106,308.383 104.253 C 309.301 103.886,310.490 103.113,311.026 102.535 C 311.562 101.956,312.022 101.464,312.048 101.442 C 312.075 101.419,312.211 99.060,312.352 96.200 C 312.640 90.314,312.999 89.608,316.383 88.253 C 317.301 87.886,318.490 87.113,319.026 86.535 C 319.562 85.956,320.022 85.464,320.048 85.442 C 320.075 85.419,320.211 83.060,320.352 80.200 C 320.640 74.323,321.001 73.607,324.353 72.266 C 328.952 70.426,329.173 67.039,324.860 64.500 C 324.028 64.010,317.127 63.857,315.426 64.290 M325.062 67.323 L 325.923 68.233 325.061 69.063 C 324.587 69.519,323.611 70.022,322.893 70.180 C 319.398 70.947,318.002 73.667,317.993 79.726 C 317.985 84.738,317.576 85.590,314.893 86.180 C 311.398 86.947,310.002 89.667,309.993 95.726 C 309.985 100.745,309.577 101.590,306.875 102.183 C 305.696 102.442,304.446 103.439,302.892 105.357 C 302.612 105.702,302.277 106.515,302.147 107.164 C 301.820 108.798,300.665 109.914,298.970 110.232 C 298.181 110.380,297.441 110.748,297.325 111.051 C 297.209 111.353,296.870 111.600,296.571 111.600 C 296.273 111.600,295.815 112.005,295.554 112.500 C 295.294 112.995,294.882 113.528,294.640 113.685 C 294.369 113.860,294.150 115.959,294.069 119.142 C 293.921 124.982,293.590 125.741,290.970 126.232 C 290.181 126.380,289.441 126.748,289.325 127.051 C 289.209 127.353,288.870 127.600,288.571 127.600 C 288.273 127.600,287.815 128.005,287.554 128.500 C 287.294 128.995,286.882 129.528,286.640 129.685 C 286.369 129.860,286.150 131.959,286.069 135.142 C 285.896 141.979,285.879 142.000,280.330 142.000 C 275.714 142.000,275.006 141.601,274.069 138.472 C 273.794 137.553,273.297 136.577,272.965 136.301 C 272.633 136.025,272.000 135.440,271.558 135.000 C 270.854 134.298,270.108 134.182,265.484 134.057 C 259.506 133.896,259.025 133.663,258.069 130.472 C 257.794 129.553,257.297 128.577,256.965 128.301 C 256.633 128.025,256.055 127.506,255.681 127.147 C 255.306 126.787,254.370 126.358,253.601 126.193 C 250.821 125.597,250.415 124.774,250.407 119.726 C 250.398 113.667,249.002 110.947,245.507 110.180 C 244.789 110.022,243.811 109.517,243.334 109.058 L 242.467 108.224 243.334 107.363 C 243.810 106.889,244.803 106.371,245.541 106.210 C 247.267 105.835,249.835 103.267,250.210 101.541 C 250.796 98.845,251.576 98.502,257.480 98.343 C 262.108 98.218,262.853 98.102,263.558 97.400 C 264.000 96.960,264.633 96.375,264.965 96.099 C 265.297 95.823,265.794 94.847,266.069 93.928 C 267.025 90.737,267.506 90.504,273.484 90.343 C 278.108 90.218,278.854 90.102,279.558 89.400 C 280.000 88.960,280.633 88.375,280.965 88.099 C 281.297 87.823,281.794 86.847,282.069 85.928 C 283.025 82.737,283.506 82.504,289.484 82.343 C 294.108 82.218,294.854 82.102,295.558 81.400 C 296.000 80.960,296.633 80.375,296.965 80.099 C 297.297 79.823,297.794 78.847,298.069 77.928 C 299.023 74.742,299.667 74.400,304.720 74.400 C 310.727 74.400,313.454 72.995,314.220 69.507 C 314.918 66.329,322.645 64.772,325.062 67.323 M246.600 113.814 L 247.800 115.000 247.928 121.548 L 248.055 128.097 245.528 127.934 C 243.379 127.795,242.820 127.593,241.800 126.586 L 240.600 125.400 240.472 118.852 L 240.345 112.303 242.872 112.466 C 245.021 112.605,245.580 112.807,246.600 113.814 M237.037 115.300 C 237.925 116.142,237.987 116.489,237.993 120.674 C 238.002 126.734,239.401 129.458,242.893 130.218 C 244.570 130.582,245.821 131.843,246.190 133.541 C 246.565 135.267,249.133 137.835,250.859 138.210 C 252.555 138.579,253.818 139.830,254.181 141.500 C 254.336 142.215,254.600 142.800,254.768 142.800 C 254.935 142.800,255.277 143.250,255.527 143.800 C 255.778 144.350,256.192 144.800,256.447 144.800 C 256.703 144.800,257.139 145.110,257.416 145.489 C 257.835 146.062,258.831 146.213,263.344 146.389 C 270.099 146.652,269.969 146.538,269.987 152.225 C 270.002 156.821,269.535 157.751,266.970 158.232 C 266.181 158.380,265.441 158.748,265.325 159.051 C 265.209 159.353,264.860 159.600,264.549 159.600 C 264.237 159.600,263.778 160.050,263.527 160.600 C 263.277 161.150,262.929 161.600,262.754 161.600 C 262.579 161.600,262.321 162.214,262.180 162.965 C 261.842 164.769,260.728 165.902,258.970 166.232 C 258.181 166.380,257.441 166.748,257.325 167.051 C 257.209 167.353,256.860 167.600,256.549 167.600 C 256.237 167.600,255.778 168.050,255.527 168.600 C 255.277 169.150,254.935 169.600,254.768 169.600 C 254.600 169.600,254.336 170.185,254.181 170.900 C 253.818 172.570,252.555 173.821,250.859 174.190 C 249.133 174.565,246.565 177.133,246.190 178.859 C 245.818 180.568,244.568 181.818,242.859 182.190 C 241.133 182.565,238.565 185.133,238.190 186.859 C 237.818 188.568,236.568 189.818,234.859 190.190 C 233.133 190.565,230.565 193.133,230.190 194.859 C 229.818 196.568,228.568 197.818,226.859 198.190 C 226.120 198.351,224.838 199.162,224.000 200.000 C 223.162 200.838,222.351 202.120,222.190 202.859 C 221.818 204.568,220.568 205.818,218.859 206.190 C 217.133 206.565,214.565 209.133,214.190 210.859 C 213.818 212.568,212.568 213.818,210.859 214.190 C 209.133 214.565,206.565 217.133,206.190 218.859 C 205.818 220.568,204.568 221.818,202.859 222.190 C 201.133 222.565,198.565 225.133,198.190 226.859 C 197.818 228.568,196.568 229.818,194.859 230.190 C 193.133 230.565,190.565 233.133,190.190 234.859 C 189.818 236.568,188.568 237.818,186.859 238.190 C 185.133 238.565,182.565 241.133,182.190 242.859 C 181.818 244.568,180.568 245.818,178.859 246.190 C 177.133 246.565,174.565 249.133,174.190 250.859 C 173.818 252.568,172.568 253.818,170.859 254.190 C 169.133 254.565,166.565 257.133,166.190 258.859 C 165.818 260.568,164.568 261.818,162.859 262.190 C 161.133 262.565,158.565 265.133,158.190 266.859 C 157.818 268.568,156.568 269.818,154.859 270.190 C 153.133 270.565,150.565 273.133,150.190 274.859 C 149.818 276.568,148.568 277.818,146.859 278.190 C 145.136 278.565,142.566 281.132,142.187 282.859 C 142.025 283.596,141.517 284.589,141.058 285.066 L 140.224 285.933 139.363 285.066 C 138.889 284.590,138.371 283.597,138.210 282.859 C 137.835 281.136,135.268 278.566,133.541 278.187 C 130.822 277.590,130.415 276.751,130.407 271.726 C 130.398 265.666,128.999 262.942,125.507 262.182 C 123.841 261.820,122.580 260.559,122.218 258.893 C 121.458 255.401,118.734 254.002,112.674 253.993 C 107.649 253.985,106.810 253.578,106.213 250.859 C 105.834 249.135,103.265 246.566,101.541 246.187 C 100.804 246.025,99.811 245.517,99.334 245.058 L 98.467 244.224 99.334 243.363 C 99.810 242.889,100.803 242.371,101.541 242.210 C 103.267 241.835,105.835 239.267,106.210 237.541 C 106.582 235.832,107.832 234.582,109.541 234.210 C 111.267 233.835,113.835 231.267,114.210 229.541 C 114.582 227.832,115.832 226.582,117.541 226.210 C 118.280 226.049,119.562 225.238,120.400 224.400 C 121.238 223.562,122.049 222.280,122.210 221.541 C 122.582 219.832,123.832 218.582,125.541 218.210 C 127.267 217.835,129.835 215.267,130.210 213.541 C 130.582 211.832,131.832 210.582,133.541 210.210 C 135.267 209.835,137.835 207.267,138.210 205.541 C 138.582 203.832,139.832 202.582,141.541 202.210 C 142.280 202.049,143.562 201.238,144.400 200.400 C 145.238 199.562,146.049 198.280,146.210 197.541 C 146.582 195.832,147.832 194.582,149.541 194.210 C 151.267 193.835,153.835 191.267,154.210 189.541 C 154.371 188.803,154.884 187.818,155.351 187.351 C 155.818 186.884,156.803 186.371,157.541 186.210 C 159.267 185.835,161.835 183.267,162.210 181.541 C 162.371 180.803,162.884 179.818,163.351 179.351 C 163.818 178.884,164.803 178.371,165.541 178.210 C 167.267 177.835,169.835 175.267,170.210 173.541 C 170.371 172.803,170.884 171.818,171.351 171.351 C 171.818 170.884,172.803 170.371,173.541 170.210 C 175.267 169.835,177.835 167.267,178.210 165.541 C 178.582 163.832,179.832 162.582,181.541 162.210 C 183.267 161.835,185.835 159.267,186.210 157.541 C 186.582 155.832,187.832 154.582,189.541 154.210 C 191.267 153.835,193.835 151.267,194.210 149.541 C 194.582 147.832,195.832 146.582,197.541 146.210 C 198.280 146.049,199.562 145.238,200.400 144.400 C 201.238 143.562,202.049 142.280,202.210 141.541 C 202.371 140.803,202.884 139.818,203.351 139.351 C 203.818 138.884,204.803 138.371,205.541 138.210 C 207.267 137.835,209.835 135.267,210.210 133.541 C 210.582 131.832,211.832 130.582,213.541 130.210 C 214.280 130.049,215.562 129.238,216.400 128.400 C 217.238 127.562,218.049 126.280,218.210 125.541 C 218.582 123.832,219.832 122.582,221.541 122.210 C 223.264 121.835,225.834 119.268,226.213 117.541 C 226.918 114.330,234.383 112.784,237.037 115.300 M254.582 129.740 C 255.611 130.700,255.787 131.187,255.932 133.472 L 256.100 136.100 253.550 135.935 C 249.947 135.703,248.697 134.453,248.465 130.850 L 248.300 128.300 250.850 128.468 C 252.951 128.605,253.608 128.829,254.582 129.740 M270.410 137.609 C 271.637 138.704,271.779 139.061,271.930 141.436 L 272.097 144.055 265.493 143.928 C 258.554 143.794,257.269 143.386,257.213 141.300 C 257.206 141.025,257.020 140.800,256.800 140.800 C 256.580 140.800,256.400 139.810,256.400 138.600 L 256.400 136.400 262.728 136.400 L 269.056 136.400 270.410 137.609 M118.586 257.800 C 119.593 258.820,119.795 259.379,119.934 261.528 L 120.097 264.055 113.548 263.928 L 107.000 263.800 105.814 262.600 C 104.807 261.580,104.605 261.021,104.466 258.872 L 104.303 256.345 110.852 256.472 L 117.400 256.600 118.586 257.800 M101.046 259.308 C 101.512 259.799,102.022 260.789,102.180 261.507 C 102.945 264.993,105.674 266.400,111.670 266.400 C 117.810 266.400,117.984 266.572,117.993 272.674 C 118.002 278.733,119.398 281.453,122.893 282.220 C 125.866 282.873,125.985 283.256,125.993 292.144 C 126.002 302.794,126.806 301.986,116.200 301.986 C 107.248 301.986,106.874 301.870,106.220 298.893 C 105.453 295.398,102.733 294.002,96.674 293.993 C 90.572 293.984,90.400 293.810,90.400 287.670 C 90.400 281.674,88.993 278.945,85.507 278.180 C 82.534 277.527,82.415 277.144,82.407 268.256 C 82.398 257.606,81.594 258.414,92.200 258.414 C 99.961 258.414,100.225 258.441,101.046 259.308 M126.600 265.814 L 127.800 267.000 127.928 273.548 L 128.055 280.097 125.528 279.934 C 123.379 279.795,122.820 279.593,121.800 278.586 L 120.600 277.400 120.472 270.852 L 120.345 264.303 122.872 264.466 C 125.021 264.605,125.580 264.807,126.600 265.814 " stroke="none" fill="#c8d01c" fill-rule="evenodd"></path></g></svg>