<svg id="svg" version="1.1" xmlns="http://www.w3.org/2000/svg" xmlns:xlink="http://www.w3.org/1999/xlink" width="400" height="400" viewBox="0, 0, 400,400"><g id="svgg"><path id="path0" d="M117.980 76.458 C 116.068 79.691,115.575 80.000,112.318 80.001 C 108.999 80.003,106.800 80.964,106.800 82.412 C 106.800 84.223,105.094 85.199,101.918 85.206 C 98.514 85.213,97.228 85.743,96.400 87.482 C 95.535 89.299,94.120 90.800,93.272 90.800 C 91.599 90.800,90.800 92.428,90.800 95.837 C 90.800 99.432,90.363 100.387,88.333 101.228 C 85.872 102.247,85.448 103.021,85.213 106.922 C 84.981 110.758,84.499 111.574,81.929 112.480 C 80.373 113.029,80.000 114.599,80.000 120.598 C 80.000 126.564,79.935 126.724,76.800 128.434 L 75.000 129.415 74.896 149.276 L 74.793 169.136 75.850 169.968 C 76.432 170.426,77.146 170.800,77.438 170.800 C 77.729 170.800,78.425 171.293,78.984 171.896 L 80.000 172.992 80.006 181.196 C 80.013 190.493,80.094 190.815,82.795 192.248 C 85.102 193.473,85.139 193.593,85.172 200.046 C 85.204 206.204,85.478 206.909,88.424 208.412 C 90.493 209.468,90.800 210.182,90.800 213.945 C 90.800 217.231,91.652 218.800,93.438 218.800 C 94.877 218.800,96.000 220.920,96.000 223.636 C 96.000 227.133,96.552 228.635,98.025 229.149 C 100.463 229.999,101.200 231.247,101.200 234.528 C 101.200 237.942,101.828 239.088,104.424 240.412 C 106.493 241.468,106.800 242.182,106.800 245.945 C 106.800 249.242,107.652 250.800,109.457 250.800 C 110.127 250.800,111.589 252.429,112.400 254.079 C 112.745 254.781,113.743 255.694,114.746 256.225 C 115.972 256.874,116.749 257.664,117.351 258.873 C 117.884 259.944,118.688 260.824,119.475 261.198 C 121.326 262.077,122.800 263.483,122.800 264.368 C 122.800 265.189,124.547 266.800,125.438 266.800 C 126.877 266.800,128.000 268.920,128.000 271.636 C 128.000 275.363,128.491 276.510,130.462 277.379 C 131.409 277.797,132.368 278.603,132.747 279.300 C 133.816 281.266,135.225 282.800,135.961 282.800 C 136.817 282.800,138.800 284.816,138.800 285.686 C 138.800 286.381,140.376 287.807,142.300 288.853 C 142.997 289.232,143.803 290.191,144.221 291.138 C 145.090 293.109,146.237 293.600,149.964 293.600 C 152.828 293.600,154.800 294.737,154.800 296.387 C 154.800 297.201,156.560 298.800,157.457 298.800 C 158.127 298.800,159.589 300.429,160.400 302.079 C 160.745 302.781,161.743 303.694,162.746 304.225 C 163.972 304.874,164.749 305.664,165.351 306.873 C 165.884 307.944,166.688 308.824,167.475 309.198 C 169.326 310.077,170.800 311.483,170.800 312.368 C 170.800 313.955,172.631 314.800,176.068 314.800 C 179.533 314.800,179.858 314.983,181.752 318.000 C 182.235 318.770,183.405 319.827,184.351 320.350 C 185.584 321.030,186.273 321.769,186.784 322.962 C 187.670 325.030,188.850 325.600,192.245 325.600 C 195.315 325.600,196.164 325.974,197.043 327.712 C 198.463 330.522,198.988 330.800,202.874 330.800 L 206.408 330.800 207.504 329.154 C 209.728 325.814,210.068 325.600,213.163 325.600 C 216.752 325.600,217.919 325.055,218.816 322.962 C 219.327 321.769,220.016 321.030,221.249 320.350 C 222.195 319.827,223.365 318.770,223.848 318.000 C 225.749 314.972,226.058 314.800,229.604 314.800 C 232.976 314.800,234.800 313.899,234.800 312.234 C 234.800 311.462,236.209 310.132,238.010 309.203 C 238.904 308.742,239.742 307.839,240.298 306.738 C 240.926 305.495,241.645 304.778,242.821 304.220 C 243.856 303.729,244.747 302.913,245.224 302.020 C 246.373 299.868,246.893 299.339,248.528 298.656 C 249.605 298.206,250.203 297.612,250.645 296.554 C 251.620 294.222,252.613 293.629,255.572 293.613 C 259.129 293.595,260.443 293.036,261.327 291.164 C 261.807 290.147,262.826 289.110,264.324 288.112 C 265.573 287.280,266.658 286.240,266.736 285.800 C 266.931 284.700,268.728 282.867,269.755 282.721 C 270.266 282.648,271.198 281.701,272.112 280.327 C 273.087 278.861,274.156 277.800,275.123 277.338 C 276.101 276.871,276.871 276.101,277.338 275.123 C 277.800 274.156,278.861 273.087,280.327 272.112 L 282.600 270.600 282.800 266.916 C 283.018 262.909,283.083 262.792,286.010 261.229 C 286.886 260.761,287.753 259.817,288.298 258.738 C 288.926 257.495,289.645 256.778,290.821 256.220 C 291.876 255.719,292.728 254.930,293.198 254.020 C 294.132 252.209,295.461 250.800,296.234 250.800 C 297.861 250.800,298.800 248.967,298.800 245.792 C 298.800 242.186,299.120 241.461,301.176 240.412 C 303.777 239.085,304.400 237.944,304.400 234.507 C 304.400 231.302,305.469 229.549,307.776 228.970 C 308.953 228.675,309.600 226.759,309.600 223.568 C 309.600 220.872,310.745 218.800,312.234 218.800 C 313.861 218.800,314.800 216.966,314.800 213.792 C 314.800 210.186,315.120 209.461,317.176 208.412 C 320.110 206.915,320.399 206.184,320.405 200.246 C 320.412 193.651,320.480 193.416,322.681 192.317 C 325.468 190.925,325.600 190.418,325.600 181.116 L 325.600 172.992 326.616 171.896 C 327.175 171.293,327.903 170.800,328.234 170.800 C 328.565 170.800,329.278 170.358,329.818 169.818 L 330.800 168.836 330.800 149.651 C 330.800 128.308,330.918 129.480,328.651 128.326 C 325.714 126.831,325.600 126.542,325.600 120.598 C 325.600 114.488,325.238 113.031,323.575 112.451 C 321.137 111.601,320.400 110.353,320.400 107.072 C 320.400 103.658,319.772 102.512,317.176 101.188 C 315.127 100.143,314.800 99.411,314.800 95.880 C 314.800 92.639,313.920 90.800,312.368 90.800 C 311.484 90.800,310.079 89.328,309.200 87.482 C 308.378 85.755,307.088 85.213,303.789 85.206 C 300.517 85.199,299.478 84.655,298.797 82.592 C 298.177 80.711,296.695 80.000,293.394 80.000 C 290.285 80.000,289.438 79.630,288.557 77.888 C 286.913 74.633,287.665 74.800,274.611 74.800 L 262.961 74.800 261.980 76.458 C 260.068 79.691,259.575 80.000,256.318 80.001 C 252.999 80.003,250.800 80.964,250.800 82.412 C 250.800 84.223,249.094 85.199,245.918 85.206 C 242.514 85.213,241.228 85.743,240.400 87.482 C 239.535 89.299,238.120 90.800,237.272 90.800 C 236.371 90.800,234.800 92.407,234.800 93.328 C 234.800 94.128,233.254 95.557,231.475 96.402 C 230.685 96.777,229.883 97.657,229.344 98.741 C 228.719 99.996,227.996 100.719,226.741 101.344 C 225.657 101.883,224.777 102.685,224.402 103.475 C 223.537 105.297,222.122 106.800,221.272 106.800 C 219.599 106.800,218.800 108.428,218.800 111.837 C 218.800 115.432,218.363 116.387,216.333 117.228 C 213.872 118.247,213.448 119.021,213.213 122.922 C 212.981 126.758,212.499 127.574,209.929 128.480 C 208.560 128.963,208.000 130.554,208.000 133.964 C 208.000 137.932,207.067 138.800,202.800 138.800 C 198.533 138.800,197.600 137.932,197.600 133.964 C 197.600 130.467,197.048 128.965,195.575 128.451 C 193.137 127.601,192.400 126.353,192.400 123.072 C 192.400 119.658,191.772 118.512,189.176 117.188 C 187.127 116.143,186.800 115.411,186.800 111.880 C 186.800 108.639,185.920 106.800,184.368 106.800 C 183.483 106.800,182.077 105.326,181.198 103.475 C 180.824 102.688,179.944 101.884,178.873 101.351 C 177.664 100.749,176.874 99.972,176.225 98.746 C 175.694 97.743,174.781 96.745,174.079 96.400 C 172.429 95.589,170.800 94.127,170.800 93.457 C 170.800 92.551,169.197 90.800,168.368 90.800 C 167.483 90.800,166.077 89.326,165.198 87.475 C 164.824 86.688,163.944 85.884,162.873 85.351 C 161.665 84.750,160.872 83.970,160.222 82.746 C 158.894 80.243,158.210 80.013,152.074 80.006 C 146.240 79.999,145.522 79.797,144.557 77.888 C 142.913 74.633,143.665 74.800,130.611 74.800 L 118.961 74.800 117.980 76.458 " stroke="none" fill="#ec1c24" fill-rule="evenodd"></path><path id="path1" d="M114.800 69.384 L 114.800 71.977 109.500 72.088 L 104.200 72.200 104.081 74.700 L 103.962 77.200 99.209 77.200 C 93.521 77.200,93.200 77.383,93.200 80.629 L 93.200 82.800 90.600 82.800 L 88.000 82.800 88.000 85.400 L 88.000 88.000 85.400 88.000 L 82.800 88.000 82.800 93.400 L 82.800 98.800 80.243 98.800 C 77.122 98.800,77.200 98.651,77.200 104.633 L 77.200 109.200 75.233 109.200 C 71.807 109.200,72.000 108.707,72.000 117.443 L 72.000 125.200 70.033 125.200 C 66.472 125.200,66.800 122.740,66.800 149.443 L 66.800 173.200 69.400 173.200 L 72.000 173.200 72.000 183.757 C 72.000 195.635,71.756 194.800,75.233 194.800 L 77.200 194.800 77.200 202.026 C 77.200 210.764,77.213 210.800,80.414 210.800 L 82.800 210.800 82.800 216.000 L 82.800 221.200 85.388 221.200 L 87.977 221.200 88.088 226.500 L 88.200 231.800 90.700 231.919 L 93.200 232.038 93.200 236.645 C 93.200 242.531,93.341 242.800,96.414 242.800 L 98.800 242.800 98.800 248.000 L 98.800 253.200 101.400 253.200 L 104.000 253.200 104.000 255.757 C 104.000 258.674,104.134 258.800,107.233 258.800 L 109.200 258.800 109.200 260.767 C 109.200 263.866,109.326 264.000,112.243 264.000 L 114.800 264.000 114.800 266.600 L 114.800 269.200 117.388 269.200 L 119.977 269.200 120.088 274.500 L 120.200 279.800 122.700 279.919 L 125.200 280.038 125.200 281.986 C 125.200 285.061,125.331 285.200,128.225 285.200 L 130.763 285.200 130.882 287.900 L 131.000 290.600 133.481 290.719 L 135.963 290.837 136.081 293.319 L 136.200 295.800 138.700 295.919 L 141.200 296.038 141.200 297.986 C 141.200 301.299,141.026 301.200,146.843 301.200 L 152.000 301.200 152.000 303.757 C 152.000 306.674,152.134 306.800,155.233 306.800 L 157.200 306.800 157.200 308.767 C 157.200 311.866,157.326 312.000,160.243 312.000 L 162.800 312.000 162.800 314.600 L 162.800 317.200 165.400 317.200 L 168.000 317.200 168.000 319.757 C 168.000 322.887,167.828 322.800,174.033 322.800 L 178.800 322.800 178.800 325.400 L 178.800 328.000 181.400 328.000 L 184.000 328.000 184.000 330.600 L 184.000 333.200 189.382 333.200 L 194.763 333.200 194.882 335.900 L 195.000 338.600 202.800 338.600 L 210.600 338.600 210.718 335.900 L 210.837 333.200 216.018 333.200 L 221.200 333.200 221.200 330.618 L 221.200 328.037 223.900 327.918 L 226.600 327.800 226.719 325.312 L 226.838 322.824 231.919 322.712 L 237.000 322.600 237.118 319.918 L 237.236 317.236 239.918 317.118 L 242.600 317.000 242.719 314.519 L 242.837 312.037 245.319 311.919 L 247.800 311.800 247.919 309.319 L 248.037 306.837 250.519 306.719 L 253.000 306.600 253.118 303.900 L 253.237 301.200 258.618 301.200 L 264.000 301.200 264.000 298.600 L 264.000 296.000 266.600 296.000 L 269.200 296.000 269.200 293.418 L 269.200 290.837 271.900 290.718 L 274.600 290.600 274.718 287.900 L 274.837 285.200 277.418 285.200 L 280.000 285.200 280.000 282.600 L 280.000 280.000 282.600 280.000 L 285.200 280.000 285.200 277.418 L 285.200 274.837 287.900 274.718 L 290.600 274.600 290.711 269.319 L 290.823 264.038 293.311 263.919 L 295.800 263.800 295.919 261.319 L 296.037 258.837 298.519 258.719 L 301.000 258.600 301.118 255.918 L 301.236 253.236 303.918 253.118 L 306.600 253.000 306.712 247.919 L 306.824 242.838 309.312 242.719 L 311.800 242.600 311.912 237.300 L 312.023 232.000 314.612 232.000 L 317.200 232.000 317.200 226.618 L 317.200 221.237 319.900 221.118 L 322.600 221.000 322.712 215.919 L 322.824 210.838 325.312 210.719 L 327.800 210.600 327.908 202.719 L 328.017 194.838 330.508 194.719 L 333.000 194.600 333.106 183.918 L 333.213 173.236 335.906 173.118 L 338.600 173.000 338.704 149.600 C 338.823 123.028,339.124 125.200,335.324 125.200 L 333.200 125.200 333.200 117.443 C 333.200 108.707,333.393 109.200,329.967 109.200 L 328.000 109.200 328.000 104.000 L 328.000 98.800 325.400 98.800 L 322.800 98.800 322.800 94.033 C 322.800 87.828,322.887 88.000,319.757 88.000 L 317.200 88.000 317.200 85.400 L 317.200 82.800 314.600 82.800 L 312.000 82.800 312.000 80.243 C 312.000 77.113,312.172 77.200,305.967 77.200 L 301.200 77.200 301.200 74.600 L 301.200 72.000 296.019 72.000 L 290.838 72.000 290.719 69.500 L 290.600 67.000 274.700 66.895 L 258.800 66.791 258.800 69.384 L 258.800 71.977 253.500 72.088 L 248.200 72.200 248.081 74.700 L 247.962 77.200 243.209 77.200 C 237.521 77.200,237.200 77.383,237.200 80.629 L 237.200 82.800 234.600 82.800 L 232.000 82.800 232.000 85.400 L 232.000 88.000 229.400 88.000 L 226.800 88.000 226.800 90.600 L 226.800 93.200 224.629 93.200 C 221.792 93.200,221.200 93.792,221.200 96.629 L 221.200 98.800 218.600 98.800 L 216.000 98.800 216.000 101.400 L 216.000 104.000 213.400 104.000 L 210.800 104.000 210.800 109.400 L 210.800 114.800 208.243 114.800 C 205.122 114.800,205.200 114.651,205.200 120.633 L 205.200 125.200 202.600 125.200 L 200.000 125.200 200.000 120.000 L 200.000 114.800 197.400 114.800 L 194.800 114.800 194.800 110.033 C 194.800 103.828,194.887 104.000,191.757 104.000 L 189.200 104.000 189.200 101.400 L 189.200 98.800 186.600 98.800 L 184.000 98.800 184.000 96.243 C 184.000 93.326,183.866 93.200,180.767 93.200 L 178.800 93.200 178.800 91.233 C 178.800 88.134,178.674 88.000,175.757 88.000 L 173.200 88.000 173.200 85.400 L 173.200 82.800 170.600 82.800 L 168.000 82.800 168.000 80.243 C 168.000 77.326,167.866 77.200,164.767 77.200 L 162.800 77.200 162.800 75.233 C 162.800 71.807,163.290 72.000,154.576 72.000 L 146.838 72.000 146.719 69.500 L 146.600 67.000 130.700 66.895 L 114.800 66.791 114.800 69.384 M143.083 75.700 C 143.536 76.195,144.199 77.180,144.557 77.888 C 145.522 79.797,146.240 79.999,152.074 80.006 C 158.210 80.013,158.894 80.243,160.222 82.746 C 160.872 83.970,161.665 84.750,162.873 85.351 C 163.944 85.884,164.824 86.688,165.198 87.475 C 166.077 89.326,167.483 90.800,168.368 90.800 C 169.197 90.800,170.800 92.551,170.800 93.457 C 170.800 94.127,172.429 95.589,174.079 96.400 C 174.781 96.745,175.694 97.743,176.225 98.746 C 176.874 99.972,177.664 100.749,178.873 101.351 C 179.944 101.884,180.824 102.688,181.198 103.475 C 182.077 105.326,183.483 106.800,184.368 106.800 C 185.920 106.800,186.800 108.639,186.800 111.880 C 186.800 115.411,187.127 116.143,189.176 117.188 C 191.772 118.512,192.400 119.658,192.400 123.072 C 192.400 126.353,193.137 127.601,195.575 128.451 C 197.048 128.965,197.600 130.467,197.600 133.964 C 197.600 137.932,198.533 138.800,202.800 138.800 C 207.067 138.800,208.000 137.932,208.000 133.964 C 208.000 130.554,208.560 128.963,209.929 128.480 C 212.499 127.574,212.981 126.758,213.213 122.922 C 213.448 119.021,213.872 118.247,216.333 117.228 C 218.363 116.387,218.800 115.432,218.800 111.837 C 218.800 108.428,219.599 106.800,221.272 106.800 C 222.122 106.800,223.537 105.297,224.402 103.475 C 224.777 102.685,225.657 101.883,226.741 101.344 C 227.996 100.719,228.719 99.996,229.344 98.741 C 229.883 97.657,230.685 96.777,231.475 96.402 C 233.254 95.557,234.800 94.128,234.800 93.328 C 234.800 92.407,236.371 90.800,237.272 90.800 C 238.120 90.800,239.535 89.299,240.400 87.482 C 241.228 85.743,242.514 85.213,245.918 85.206 C 249.094 85.199,250.800 84.223,250.800 82.412 C 250.800 80.964,252.999 80.003,256.318 80.001 C 259.575 80.000,260.068 79.691,261.980 76.458 L 262.961 74.800 274.611 74.800 C 287.665 74.800,286.913 74.633,288.557 77.888 C 289.438 79.630,290.285 80.000,293.394 80.000 C 296.695 80.000,298.177 80.711,298.797 82.592 C 299.478 84.655,300.517 85.199,303.789 85.206 C 307.088 85.213,308.378 85.755,309.200 87.482 C 310.079 89.328,311.484 90.800,312.368 90.800 C 313.920 90.800,314.800 92.639,314.800 95.880 C 314.800 99.411,315.127 100.143,317.176 101.188 C 319.772 102.512,320.400 103.658,320.400 107.072 C 320.400 110.353,321.137 111.601,323.575 112.451 C 325.238 113.031,325.600 114.488,325.600 120.598 C 325.600 126.542,325.714 126.831,328.651 128.326 C 330.918 129.480,330.800 128.308,330.800 149.651 L 330.800 168.836 329.818 169.818 C 329.278 170.358,328.565 170.800,328.234 170.800 C 327.903 170.800,327.175 171.293,326.616 171.896 L 325.600 172.992 325.600 181.116 C 325.600 190.418,325.468 190.925,322.681 192.317 C 320.480 193.416,320.412 193.651,320.405 200.246 C 320.399 206.184,320.110 206.915,317.176 208.412 C 315.120 209.461,314.800 210.186,314.800 213.792 C 314.800 216.966,313.861 218.800,312.234 218.800 C 310.745 218.800,309.600 220.872,309.600 223.568 C 309.600 226.759,308.953 228.675,307.776 228.970 C 305.469 229.549,304.400 231.302,304.400 234.507 C 304.400 237.944,303.777 239.085,301.176 240.412 C 299.120 241.461,298.800 242.186,298.800 245.792 C 298.800 248.967,297.861 250.800,296.234 250.800 C 295.461 250.800,294.132 252.209,293.198 254.020 C 292.728 254.930,291.876 255.719,290.821 256.220 C 289.645 256.778,288.926 257.495,288.298 258.738 C 287.753 259.817,286.886 260.761,286.010 261.229 C 283.083 262.792,283.018 262.909,282.800 266.916 L 282.600 270.600 280.327 272.112 C 278.861 273.087,277.800 274.156,277.338 275.123 C 276.871 276.101,276.101 276.871,275.123 277.338 C 274.156 277.800,273.087 278.861,272.112 280.327 C 271.198 281.701,270.266 282.648,269.755 282.721 C 268.728 282.867,266.931 284.700,266.736 285.800 C 266.658 286.240,265.573 287.280,264.324 288.112 C 262.826 289.110,261.807 290.147,261.327 291.164 C 260.443 293.036,259.129 293.595,255.572 293.613 C 252.613 293.629,251.620 294.222,250.645 296.554 C 250.203 297.612,249.605 298.206,248.528 298.656 C 246.893 299.339,246.373 299.868,245.224 302.020 C 244.747 302.913,243.856 303.729,242.821 304.220 C 241.645 304.778,240.926 305.495,240.298 306.738 C 239.742 307.839,238.904 308.742,238.010 309.203 C 236.209 310.132,234.800 311.462,234.800 312.234 C 234.800 313.899,232.976 314.800,229.604 314.800 C 226.058 314.800,225.749 314.972,223.848 318.000 C 223.365 318.770,222.195 319.827,221.249 320.350 C 220.016 321.030,219.327 321.769,218.816 322.962 C 217.919 325.055,216.752 325.600,213.163 325.600 C 210.068 325.600,209.728 325.814,207.504 329.154 L 206.408 330.800 202.874 330.800 C 198.988 330.800,198.463 330.522,197.043 327.712 C 196.164 325.974,195.315 325.600,192.245 325.600 C 188.850 325.600,187.670 325.030,186.784 322.962 C 186.273 321.769,185.584 321.030,184.351 320.350 C 183.405 319.827,182.235 318.770,181.752 318.000 C 179.858 314.983,179.533 314.800,176.068 314.800 C 172.631 314.800,170.800 313.955,170.800 312.368 C 170.800 311.483,169.326 310.077,167.475 309.198 C 166.688 308.824,165.884 307.944,165.351 306.873 C 164.749 305.664,163.972 304.874,162.746 304.225 C 161.743 303.694,160.745 302.781,160.400 302.079 C 159.589 300.429,158.127 298.800,157.457 298.800 C 156.560 298.800,154.800 297.201,154.800 296.387 C 154.800 294.737,152.828 293.600,149.964 293.600 C 146.237 293.600,145.090 293.109,144.221 291.138 C 143.803 290.191,142.997 289.232,142.300 288.853 C 140.376 287.807,138.800 286.381,138.800 285.686 C 138.800 284.816,136.817 282.800,135.961 282.800 C 135.225 282.800,133.816 281.266,132.747 279.300 C 132.368 278.603,131.409 277.797,130.462 277.379 C 128.491 276.510,128.000 275.363,128.000 271.636 C 128.000 268.920,126.877 266.800,125.438 266.800 C 124.547 266.800,122.800 265.189,122.800 264.368 C 122.800 263.483,121.326 262.077,119.475 261.198 C 118.688 260.824,117.884 259.944,117.351 258.873 C 116.749 257.664,115.972 256.874,114.746 256.225 C 113.743 255.694,112.745 254.781,112.400 254.079 C 111.589 252.429,110.127 250.800,109.457 250.800 C 107.652 250.800,106.800 249.242,106.800 245.945 C 106.800 242.182,106.493 241.468,104.424 240.412 C 101.828 239.088,101.200 237.942,101.200 234.528 C 101.200 231.247,100.463 229.999,98.025 229.149 C 96.552 228.635,96.000 227.133,96.000 223.636 C 96.000 220.920,94.877 218.800,93.438 218.800 C 91.652 218.800,90.800 217.231,90.800 213.945 C 90.800 210.182,90.493 209.468,88.424 208.412 C 85.478 206.909,85.204 206.204,85.172 200.046 C 85.139 193.593,85.102 193.473,82.795 192.248 C 80.094 190.815,80.013 190.493,80.006 181.196 L 80.000 172.992 78.984 171.896 C 78.425 171.293,77.729 170.800,77.438 170.800 C 77.146 170.800,76.432 170.426,75.850 169.968 L 74.793 169.136 74.896 149.276 L 75.000 129.415 76.800 128.434 C 79.935 126.724,80.000 126.564,80.000 120.598 C 80.000 114.599,80.373 113.029,81.929 112.480 C 84.499 111.574,84.981 110.758,85.213 106.922 C 85.448 103.021,85.872 102.247,88.333 101.228 C 90.363 100.387,90.800 99.432,90.800 95.837 C 90.800 92.428,91.599 90.800,93.272 90.800 C 94.120 90.800,95.535 89.299,96.400 87.482 C 97.228 85.743,98.514 85.213,101.918 85.206 C 105.094 85.199,106.800 84.223,106.800 82.412 C 106.800 80.964,108.999 80.003,112.318 80.001 C 115.575 80.000,116.068 79.691,117.980 76.458 L 118.961 74.800 130.611 74.800 C 142.182 74.800,142.266 74.806,143.083 75.700 " stroke="none" fill="#2c2c2c" fill-rule="evenodd"></path><path id="path2" d="" stroke="none" fill="#f02428" fill-rule="evenodd"></path><path id="path3" d="" stroke="none" fill="#f02428" fill-rule="evenodd"></path><path id="path4" d="" stroke="none" fill="#f02428" fill-rule="evenodd"></path></g></svg>