<svg id="svg" version="1.1" xmlns="http://www.w3.org/2000/svg" xmlns:xlink="http://www.w3.org/1999/xlink" width="400" height="400" viewBox="0, 0, 400,400"><g id="svgg"><path id="path0" d="M189.139 35.019 C 188.741 36.118,188.237 36.632,187.117 37.080 C 186.015 37.521,185.491 38.045,185.117 39.080 C 184.742 40.115,184.218 40.639,183.117 41.080 C 182.015 41.521,181.491 42.045,181.117 43.080 C 180.742 44.115,180.218 44.639,179.117 45.080 C 178.015 45.521,177.491 46.045,177.117 47.080 C 176.744 48.110,176.217 48.640,175.136 49.072 C 174.060 49.503,173.503 50.060,173.072 51.136 C 172.640 52.217,172.110 52.744,171.080 53.117 C 170.045 53.491,169.521 54.015,169.080 55.117 C 168.637 56.224,168.116 56.742,167.060 57.124 C 165.999 57.507,165.507 57.999,165.124 59.060 C 164.744 60.111,164.224 60.637,163.136 61.072 C 162.060 61.503,161.503 62.060,161.072 63.136 C 160.640 64.217,160.110 64.744,159.080 65.117 C 158.045 65.491,157.521 66.015,157.080 67.117 C 156.639 68.218,156.115 68.742,155.080 69.117 C 154.045 69.491,153.521 70.015,153.080 71.117 C 152.639 72.218,152.115 72.742,151.080 73.117 C 150.045 73.491,149.521 74.015,149.080 75.117 C 148.639 76.218,148.115 76.742,147.080 77.117 C 146.045 77.491,145.521 78.015,145.080 79.117 C 144.637 80.224,144.116 80.742,143.060 81.124 C 141.999 81.507,141.507 81.999,141.124 83.060 C 140.744 84.111,140.224 84.637,139.136 85.072 C 138.060 85.503,137.503 86.060,137.072 87.136 C 136.640 88.217,136.110 88.744,135.080 89.117 C 134.045 89.491,133.521 90.015,133.080 91.117 C 132.639 92.218,132.115 92.742,131.080 93.117 C 130.045 93.491,129.521 94.015,129.080 95.117 C 128.639 96.218,128.115 96.742,127.080 97.117 C 126.045 97.491,125.521 98.015,125.080 99.117 C 124.639 100.218,124.115 100.742,123.080 101.117 C 122.045 101.491,121.521 102.015,121.080 103.117 C 120.639 104.218,120.115 104.742,119.080 105.117 C 118.045 105.491,117.521 106.015,117.080 107.117 C 116.639 108.218,116.115 108.742,115.080 109.117 C 114.045 109.491,113.521 110.015,113.080 111.117 C 112.634 112.230,112.117 112.742,111.041 113.131 L 109.600 113.652 109.600 198.021 L 109.600 282.389 110.996 282.973 C 111.912 283.355,112.630 284.056,113.085 285.010 C 113.524 285.929,114.259 286.665,115.085 287.010 C 115.911 287.355,116.647 288.091,117.085 289.010 C 117.524 289.929,118.259 290.665,119.085 291.010 C 119.911 291.355,120.647 292.091,121.085 293.010 C 121.524 293.929,122.259 294.665,123.085 295.010 C 123.911 295.355,124.647 296.091,125.085 297.010 C 125.524 297.929,126.259 298.665,127.085 299.010 C 127.911 299.355,128.647 300.091,129.085 301.010 C 129.524 301.929,130.259 302.665,131.085 303.010 C 131.911 303.355,132.647 304.091,133.085 305.010 C 133.524 305.929,134.259 306.665,135.085 307.010 C 135.911 307.355,136.647 308.091,137.085 309.010 C 137.524 309.929,138.259 310.665,139.085 311.010 C 139.911 311.355,140.647 312.091,141.085 313.010 C 141.524 313.929,142.259 314.665,143.085 315.010 C 143.911 315.355,144.647 316.091,145.085 317.010 C 145.524 317.929,146.259 318.665,147.085 319.010 C 147.911 319.355,148.647 320.091,149.085 321.010 C 149.524 321.929,150.259 322.665,151.085 323.010 C 151.911 323.355,152.647 324.091,153.085 325.010 C 153.524 325.929,154.259 326.665,155.085 327.010 C 155.911 327.355,156.647 328.091,157.085 329.010 C 157.524 329.929,158.259 330.665,159.085 331.010 C 159.911 331.355,160.647 332.091,161.085 333.010 C 161.524 333.929,162.259 334.665,163.085 335.010 C 163.911 335.355,164.647 336.091,165.085 337.010 C 165.524 337.929,166.259 338.665,167.085 339.010 C 167.911 339.355,168.647 340.091,169.085 341.010 C 169.524 341.929,170.259 342.665,171.085 343.010 C 171.911 343.355,172.647 344.091,173.085 345.010 C 173.524 345.929,174.259 346.665,175.085 347.010 C 175.911 347.355,176.647 348.091,177.085 349.010 C 177.524 349.929,178.259 350.665,179.085 351.010 C 179.911 351.355,180.647 352.091,181.085 353.010 C 181.524 353.929,182.259 354.665,183.085 355.010 C 183.911 355.355,184.647 356.091,185.085 357.010 C 185.520 357.921,186.259 358.665,187.066 359.002 C 187.901 359.351,188.653 360.128,189.209 361.217 C 189.730 362.239,190.209 362.751,190.433 362.527 C 191.018 361.942,190.720 33.907,190.134 33.711 C 189.877 33.626,189.430 34.214,189.139 35.019 M69.699 198.094 L 69.800 278.600 82.200 278.600 L 94.600 278.600 94.600 198.200 L 94.600 117.800 82.099 117.694 L 69.598 117.589 69.699 198.094 " stroke="none" fill="#dcfcfc" fill-rule="evenodd"></path><path id="path1" d="M190.000 8.000 L 190.000 10.000 188.000 10.000 L 186.000 10.000 186.000 12.000 L 186.000 14.000 184.000 14.000 L 182.000 14.000 182.000 16.000 L 182.000 18.000 180.000 18.000 L 178.000 18.000 178.000 20.000 L 178.000 22.000 176.000 22.000 L 174.000 22.000 174.000 24.000 L 174.000 26.000 172.000 26.000 L 170.000 26.000 170.000 28.000 L 170.000 30.000 168.000 30.000 L 166.000 30.000 166.000 32.000 L 166.000 34.000 164.000 34.000 L 162.000 34.000 162.000 36.000 L 162.000 38.000 160.000 38.000 L 158.000 38.000 158.000 40.000 L 158.000 42.000 156.000 42.000 L 154.000 42.000 154.000 44.000 L 154.000 46.000 152.000 46.000 L 150.000 46.000 150.000 48.000 L 150.000 50.000 148.000 50.000 L 146.000 50.000 146.000 52.000 L 146.000 54.000 144.000 54.000 L 142.000 54.000 142.000 56.000 L 142.000 58.000 140.000 58.000 L 138.000 58.000 138.000 60.000 L 138.000 62.000 136.000 62.000 L 134.000 62.000 134.000 64.000 L 134.000 66.000 132.000 66.000 L 130.000 66.000 130.000 68.000 L 130.000 70.000 128.000 70.000 L 126.000 70.000 126.000 72.000 L 126.000 74.000 124.000 74.000 L 122.000 74.000 122.000 76.000 L 122.000 78.000 120.000 78.000 L 118.000 78.000 118.000 80.000 L 118.000 82.000 116.000 82.000 L 114.000 82.000 114.000 84.000 L 114.000 86.000 112.000 86.000 L 110.000 86.000 110.000 88.000 L 110.000 90.000 108.000 90.000 L 106.000 90.000 106.000 92.000 L 106.000 94.000 104.000 94.000 L 102.000 94.000 102.000 96.000 L 102.000 98.000 100.000 98.000 L 98.000 98.000 98.000 100.000 L 98.000 102.000 76.000 102.000 L 54.000 102.000 54.000 198.000 L 54.000 294.000 76.000 294.000 L 98.000 294.000 98.000 296.000 L 98.000 298.000 100.000 298.000 L 102.000 298.000 102.000 300.000 L 102.000 302.000 104.000 302.000 L 106.000 302.000 106.000 304.000 L 106.000 306.000 108.000 306.000 L 110.000 306.000 110.000 308.000 L 110.000 310.000 112.000 310.000 L 114.000 310.000 114.000 312.000 L 114.000 314.000 116.000 314.000 L 118.000 314.000 118.000 316.000 L 118.000 318.000 120.000 318.000 L 122.000 318.000 122.000 320.000 L 122.000 322.000 124.000 322.000 L 126.000 322.000 126.000 324.000 L 126.000 326.000 128.000 326.000 L 130.000 326.000 130.000 328.000 L 130.000 330.000 132.000 330.000 L 134.000 330.000 134.000 332.000 L 134.000 334.000 136.000 334.000 L 138.000 334.000 138.000 336.000 L 138.000 338.000 140.000 338.000 L 142.000 338.000 142.000 340.000 L 142.000 342.000 144.000 342.000 L 146.000 342.000 146.000 344.000 L 146.000 346.000 148.000 346.000 L 150.000 346.000 150.000 348.000 L 150.000 350.000 152.000 350.000 L 154.000 350.000 154.000 352.000 L 154.000 354.000 156.000 354.000 L 158.000 354.000 158.000 356.000 L 158.000 358.000 160.000 358.000 L 162.000 358.000 162.000 360.000 L 162.000 362.000 164.000 362.000 L 166.000 362.000 166.000 364.000 L 166.000 366.000 168.000 366.000 L 170.000 366.000 170.000 368.000 L 170.000 370.000 172.000 370.000 L 174.000 370.000 174.000 372.000 L 174.000 374.000 176.000 374.000 L 178.000 374.000 178.000 376.000 L 178.000 378.000 180.000 378.000 L 182.000 378.000 182.000 380.000 L 182.000 382.000 184.000 382.000 L 186.000 382.000 186.000 384.000 L 186.000 386.000 188.000 386.000 L 190.000 386.000 190.000 388.000 L 190.000 390.000 198.000 390.000 L 206.000 390.000 206.000 198.000 L 206.000 6.000 198.000 6.000 L 190.000 6.000 190.000 8.000 M192.519 30.400 C 192.918 30.400,193.592 31.200,194.193 32.387 L 195.200 34.373 195.200 198.030 L 195.200 361.687 194.335 363.573 C 193.095 366.274,190.739 367.396,188.605 366.301 C 186.929 365.442,106.400 285.076,106.400 284.263 C 106.400 283.967,106.040 283.398,105.600 283.000 C 104.353 281.871,104.353 114.795,105.600 113.200 C 106.030 112.650,106.386 111.879,106.391 111.487 C 106.396 111.096,106.672 110.671,107.005 110.543 C 107.789 110.242,110.400 107.631,110.400 107.147 C 110.400 106.943,110.672 106.671,111.005 106.543 C 111.789 106.242,114.400 103.631,114.400 103.147 C 114.400 102.943,114.672 102.671,115.005 102.543 C 115.789 102.242,118.400 99.631,118.400 99.147 C 118.400 98.943,118.672 98.671,119.005 98.543 C 119.789 98.242,122.400 95.631,122.400 95.147 C 122.400 94.943,122.672 94.671,123.005 94.543 C 123.789 94.242,126.400 91.631,126.400 91.147 C 126.400 90.943,126.672 90.671,127.005 90.543 C 127.789 90.242,130.400 87.631,130.400 87.147 C 130.400 86.943,130.672 86.671,131.005 86.543 C 131.789 86.242,134.400 83.631,134.400 83.147 C 134.400 82.943,134.672 82.671,135.005 82.543 C 135.789 82.242,138.400 79.631,138.400 79.147 C 138.400 78.943,138.672 78.671,139.005 78.543 C 139.337 78.415,140.237 77.683,141.005 76.915 C 141.772 76.148,142.400 75.352,142.400 75.147 C 142.400 74.943,142.672 74.671,143.005 74.543 C 143.789 74.242,146.400 71.631,146.400 71.147 C 146.400 70.943,146.672 70.671,147.005 70.543 C 147.337 70.415,148.237 69.683,149.005 68.915 C 149.772 68.148,150.400 67.352,150.400 67.147 C 150.400 66.943,150.672 66.671,151.005 66.543 C 151.789 66.242,154.400 63.631,154.400 63.147 C 154.400 62.943,154.672 62.671,155.005 62.543 C 155.789 62.242,158.400 59.631,158.400 59.147 C 158.400 58.943,158.672 58.671,159.005 58.543 C 159.337 58.415,160.237 57.683,161.005 56.915 C 161.772 56.148,162.400 55.352,162.400 55.147 C 162.400 54.943,162.672 54.671,163.005 54.543 C 163.789 54.242,166.400 51.631,166.400 51.147 C 166.400 50.943,166.672 50.671,167.005 50.543 C 167.789 50.242,170.400 47.631,170.400 47.147 C 170.400 46.943,170.672 46.671,171.005 46.543 C 171.789 46.242,174.400 43.631,174.400 43.147 C 174.400 42.943,174.672 42.671,175.005 42.543 C 175.789 42.242,178.400 39.631,178.400 39.147 C 178.400 38.943,178.672 38.671,179.005 38.543 C 179.787 38.243,182.243 35.787,182.543 35.005 C 182.671 34.672,182.943 34.400,183.147 34.400 C 183.631 34.400,186.242 31.789,186.543 31.005 C 186.671 30.672,187.096 30.396,187.487 30.391 C 187.879 30.386,188.650 30.037,189.199 29.615 C 190.185 28.857,190.210 28.857,191.025 29.623 C 191.480 30.051,192.152 30.400,192.519 30.400 M282.000 36.000 L 282.000 38.000 280.000 38.000 L 278.000 38.000 278.000 44.000 L 278.000 50.000 280.000 50.000 L 282.000 50.000 282.000 54.000 L 282.000 58.000 284.000 58.000 L 286.000 58.000 286.000 64.000 L 286.000 70.000 288.000 70.000 L 290.000 70.000 290.000 74.000 L 290.000 78.000 292.000 78.000 L 294.000 78.000 294.000 82.000 L 294.000 86.000 296.000 86.000 L 298.000 86.000 298.000 90.000 L 298.000 94.000 300.000 94.000 L 302.000 94.000 302.000 100.000 L 302.000 106.000 304.000 106.000 L 306.000 106.000 306.000 110.000 L 306.000 114.000 308.000 114.000 L 310.000 114.000 310.000 120.000 L 310.000 126.000 312.000 126.000 L 314.000 126.000 314.000 130.000 L 314.000 134.000 316.000 134.000 L 318.000 134.000 318.000 140.000 L 318.000 146.000 320.000 146.000 L 322.000 146.000 322.000 152.000 L 322.000 158.000 324.000 158.000 L 326.000 158.000 326.000 166.000 L 326.000 174.000 328.000 174.000 L 330.000 174.000 330.000 206.000 L 330.000 238.000 328.000 238.000 L 326.000 238.000 326.000 244.000 L 326.000 250.000 324.000 250.000 L 322.000 250.000 322.000 258.000 L 322.000 266.000 320.000 266.000 L 318.000 266.000 318.000 270.000 L 318.000 274.000 316.000 274.000 L 314.000 274.000 314.000 280.000 L 314.000 286.000 312.000 286.000 L 310.000 286.000 310.000 290.000 L 310.000 294.000 308.000 294.000 L 306.000 294.000 306.000 300.000 L 306.000 306.000 304.000 306.000 L 302.000 306.000 302.000 310.000 L 302.000 314.000 300.000 314.000 L 298.000 314.000 298.000 318.000 L 298.000 322.000 296.000 322.000 L 294.000 322.000 294.000 328.000 L 294.000 334.000 292.000 334.000 L 290.000 334.000 290.000 338.000 L 290.000 342.000 288.000 342.000 L 286.000 342.000 286.000 346.000 L 286.000 350.000 284.000 350.000 L 282.000 350.000 282.000 354.000 L 282.000 358.000 280.000 358.000 L 278.000 358.000 278.000 364.000 L 278.000 370.000 280.000 370.000 L 282.000 370.000 282.000 372.000 L 282.000 374.000 286.000 374.000 L 290.000 374.000 290.000 372.000 L 290.000 370.000 292.000 370.000 L 294.000 370.000 294.000 368.000 L 294.000 366.000 296.000 366.000 L 298.000 366.000 298.000 362.000 L 298.000 358.000 300.000 358.000 L 302.000 358.000 302.000 352.000 L 302.000 346.000 304.000 346.000 L 306.000 346.000 306.000 342.000 L 306.000 338.000 308.000 338.000 L 310.000 338.000 310.000 334.000 L 310.000 330.000 312.000 330.000 L 314.000 330.000 314.000 326.000 L 314.000 322.000 316.000 322.000 L 318.000 322.000 318.000 316.000 L 318.000 310.000 320.000 310.000 L 322.000 310.000 322.000 306.000 L 322.000 302.000 324.000 302.000 L 326.000 302.000 326.000 296.000 L 326.000 290.000 328.000 290.000 L 330.000 290.000 330.000 286.000 L 330.000 282.000 332.000 282.000 L 334.000 282.000 334.000 276.000 L 334.000 270.000 336.000 270.000 L 338.000 270.000 338.000 264.000 L 338.000 258.000 340.000 258.000 L 342.000 258.000 342.000 250.000 L 342.000 242.000 344.000 242.000 L 346.000 242.000 346.000 206.000 L 346.000 170.000 344.000 170.000 L 342.000 170.000 342.000 162.000 L 342.000 154.000 340.000 154.000 L 338.000 154.000 338.000 148.000 L 338.000 142.000 336.000 142.000 L 334.000 142.000 334.000 136.000 L 334.000 130.000 332.000 130.000 L 330.000 130.000 330.000 124.000 L 330.000 118.000 328.000 118.000 L 326.000 118.000 326.000 114.000 L 326.000 110.000 324.000 110.000 L 322.000 110.000 322.000 104.000 L 322.000 98.000 320.000 98.000 L 318.000 98.000 318.000 94.000 L 318.000 90.000 316.000 90.000 L 314.000 90.000 314.000 84.000 L 314.000 78.000 312.000 78.000 L 310.000 78.000 310.000 74.000 L 310.000 70.000 308.000 70.000 L 306.000 70.000 306.000 66.000 L 306.000 62.000 304.000 62.000 L 302.000 62.000 302.000 58.000 L 302.000 54.000 300.000 54.000 L 298.000 54.000 298.000 48.000 L 298.000 42.000 296.000 42.000 L 294.000 42.000 294.000 40.000 L 294.000 38.000 292.000 38.000 L 290.000 38.000 290.000 36.000 L 290.000 34.000 286.000 34.000 L 282.000 34.000 282.000 36.000 M246.000 96.000 L 246.000 98.000 244.000 98.000 L 242.000 98.000 242.000 104.000 L 242.000 110.000 244.000 110.000 L 246.000 110.000 246.000 114.000 L 246.000 118.000 248.000 118.000 L 250.000 118.000 250.000 122.000 L 250.000 126.000 252.000 126.000 L 254.000 126.000 254.000 130.000 L 254.000 134.000 256.000 134.000 L 258.000 134.000 258.000 140.000 L 258.000 146.000 260.000 146.000 L 262.000 146.000 262.000 150.000 L 262.000 154.000 264.000 154.000 L 266.000 154.000 266.000 160.000 L 266.000 166.000 268.000 166.000 L 270.000 166.000 270.000 174.000 L 270.000 182.000 272.000 182.000 L 274.000 182.000 274.000 204.000 L 274.000 226.000 272.000 226.000 L 270.000 226.000 270.000 232.000 L 270.000 238.000 268.000 238.000 L 266.000 238.000 266.000 244.000 L 266.000 250.000 264.000 250.000 L 262.000 250.000 262.000 256.000 L 262.000 262.000 260.000 262.000 L 258.000 262.000 258.000 266.000 L 258.000 270.000 256.000 270.000 L 254.000 270.000 254.000 276.000 L 254.000 282.000 252.000 282.000 L 250.000 282.000 250.000 288.000 L 250.000 294.000 248.000 294.000 L 246.000 294.000 246.000 300.000 L 246.000 306.000 244.000 306.000 L 242.000 306.000 242.000 312.000 L 242.000 318.000 244.000 318.000 L 246.000 318.000 246.000 320.000 L 246.000 322.000 252.000 322.000 L 258.000 322.000 258.000 316.000 L 258.000 310.000 260.000 310.000 L 262.000 310.000 262.000 304.000 L 262.000 298.000 264.000 298.000 L 266.000 298.000 266.000 294.000 L 266.000 290.000 268.000 290.000 L 270.000 290.000 270.000 284.000 L 270.000 278.000 272.000 278.000 L 274.000 278.000 274.000 272.000 L 274.000 266.000 276.000 266.000 L 278.000 266.000 278.000 260.000 L 278.000 254.000 280.000 254.000 L 282.000 254.000 282.000 248.000 L 282.000 242.000 284.000 242.000 L 286.000 242.000 286.000 236.000 L 286.000 230.000 288.000 230.000 L 290.000 230.000 290.000 204.000 L 290.000 178.000 288.000 178.000 L 286.000 178.000 286.000 170.000 L 286.000 162.000 284.000 162.000 L 282.000 162.000 282.000 156.000 L 282.000 150.000 280.000 150.000 L 278.000 150.000 278.000 144.000 L 278.000 138.000 276.000 138.000 L 274.000 138.000 274.000 134.000 L 274.000 130.000 272.000 130.000 L 270.000 130.000 270.000 126.000 L 270.000 122.000 268.000 122.000 L 266.000 122.000 266.000 118.000 L 266.000 114.000 264.000 114.000 L 262.000 114.000 262.000 108.000 L 262.000 102.000 260.000 102.000 L 258.000 102.000 258.000 100.000 L 258.000 98.000 256.000 98.000 L 254.000 98.000 254.000 96.000 L 254.000 94.000 250.000 94.000 L 246.000 94.000 246.000 96.000 M95.000 113.600 C 95.398 114.040,96.053 114.400,96.455 114.400 C 96.930 114.400,97.539 115.096,98.193 116.387 L 99.200 118.373 99.200 198.030 L 99.200 277.687 98.333 279.576 C 96.762 283.000,95.864 283.200,82.030 283.200 L 70.373 283.200 68.387 282.193 C 67.096 281.539,66.400 280.930,66.400 280.455 C 66.400 280.053,66.040 279.398,65.600 279.000 C 64.378 277.894,64.332 118.983,65.553 117.262 C 65.968 116.678,66.375 115.842,66.458 115.405 C 66.541 114.967,66.967 114.542,67.405 114.460 C 67.842 114.377,68.650 113.976,69.200 113.568 C 70.802 112.378,93.921 112.407,95.000 113.600 M214.000 144.000 L 214.000 146.000 212.000 146.000 L 210.000 146.000 210.000 152.000 L 210.000 158.000 212.000 158.000 L 214.000 158.000 214.000 164.000 L 214.000 170.000 216.000 170.000 L 218.000 170.000 218.000 176.000 L 218.000 182.000 220.000 182.000 L 222.000 182.000 222.000 190.000 L 222.000 198.000 224.000 198.000 L 226.000 198.000 226.000 208.000 L 226.000 218.000 224.000 218.000 L 222.000 218.000 222.000 226.000 L 222.000 234.000 220.000 234.000 L 218.000 234.000 218.000 240.000 L 218.000 246.000 216.000 246.000 L 214.000 246.000 214.000 252.000 L 214.000 258.000 212.000 258.000 L 210.000 258.000 210.000 264.000 L 210.000 270.000 212.000 270.000 L 214.000 270.000 214.000 272.000 L 214.000 274.000 220.000 274.000 L 226.000 274.000 226.000 268.000 L 226.000 262.000 228.000 262.000 L 230.000 262.000 230.000 256.000 L 230.000 250.000 232.000 250.000 L 234.000 250.000 234.000 244.000 L 234.000 238.000 236.000 238.000 L 238.000 238.000 238.000 230.000 L 238.000 222.000 240.000 222.000 L 242.000 222.000 242.000 208.000 L 242.000 194.000 240.000 194.000 L 238.000 194.000 238.000 186.000 L 238.000 178.000 236.000 178.000 L 234.000 178.000 234.000 172.000 L 234.000 166.000 232.000 166.000 L 230.000 166.000 230.000 160.000 L 230.000 154.000 228.000 154.000 L 226.000 154.000 226.000 150.000 L 226.000 146.000 224.000 146.000 L 222.000 146.000 222.000 144.000 L 222.000 142.000 218.000 142.000 L 214.000 142.000 214.000 144.000 " stroke="none" fill="#040404" fill-rule="evenodd"></path><path id="path2" d="M189.199 29.615 C 188.650 30.037,187.879 30.386,187.487 30.391 C 187.096 30.396,186.671 30.672,186.543 31.005 C 186.242 31.789,183.631 34.400,183.147 34.400 C 182.943 34.400,182.671 34.672,182.543 35.005 C 182.243 35.787,179.787 38.243,179.005 38.543 C 178.672 38.671,178.400 38.943,178.400 39.147 C 178.400 39.631,175.789 42.242,175.005 42.543 C 174.672 42.671,174.400 42.943,174.400 43.147 C 174.400 43.631,171.789 46.242,171.005 46.543 C 170.672 46.671,170.400 46.943,170.400 47.147 C 170.400 47.631,167.789 50.242,167.005 50.543 C 166.672 50.671,166.400 50.943,166.400 51.147 C 166.400 51.631,163.789 54.242,163.005 54.543 C 162.672 54.671,162.400 54.943,162.400 55.147 C 162.400 55.631,159.789 58.242,159.005 58.543 C 158.672 58.671,158.400 58.943,158.400 59.147 C 158.400 59.631,155.789 62.242,155.005 62.543 C 154.672 62.671,154.400 62.943,154.400 63.147 C 154.400 63.631,151.789 66.242,151.005 66.543 C 150.672 66.671,150.400 66.943,150.400 67.147 C 150.400 67.631,147.789 70.242,147.005 70.543 C 146.672 70.671,146.400 70.943,146.400 71.147 C 146.400 71.631,143.789 74.242,143.005 74.543 C 142.672 74.671,142.400 74.943,142.400 75.147 C 142.400 75.631,139.789 78.242,139.005 78.543 C 138.672 78.671,138.400 78.943,138.400 79.147 C 138.400 79.631,135.789 82.242,135.005 82.543 C 134.672 82.671,134.400 82.943,134.400 83.147 C 134.400 83.631,131.789 86.242,131.005 86.543 C 130.672 86.671,130.400 86.943,130.400 87.147 C 130.400 87.631,127.789 90.242,127.005 90.543 C 126.672 90.671,126.400 90.943,126.400 91.147 C 126.400 91.631,123.789 94.242,123.005 94.543 C 122.672 94.671,122.400 94.943,122.400 95.147 C 122.400 95.631,119.789 98.242,119.005 98.543 C 118.672 98.671,118.400 98.943,118.400 99.147 C 118.400 99.631,115.789 102.242,115.005 102.543 C 114.672 102.671,114.400 102.943,114.400 103.147 C 114.400 103.631,111.789 106.242,111.005 106.543 C 110.672 106.671,110.400 106.943,110.400 107.147 C 110.400 107.631,107.789 110.242,107.005 110.543 C 106.672 110.671,106.396 111.096,106.391 111.487 C 106.386 111.879,106.030 112.650,105.600 113.200 C 104.353 114.795,104.353 281.871,105.600 283.000 C 106.040 283.398,106.400 283.967,106.400 284.263 C 106.400 285.076,186.929 365.442,188.605 366.301 C 190.739 367.396,193.095 366.274,194.335 363.573 L 195.200 361.687 195.200 198.030 L 195.200 34.373 194.193 32.387 C 193.592 31.200,192.918 30.400,192.519 30.400 C 192.152 30.400,191.480 30.051,191.025 29.623 C 190.210 28.857,190.185 28.857,189.199 29.615 M191.346 32.829 L 192.400 33.658 192.387 197.929 C 192.377 326.448,192.269 362.331,191.887 362.800 C 190.198 364.881,193.021 367.472,149.013 323.455 L 108.000 282.434 108.000 197.987 L 108.000 113.539 109.044 112.670 C 109.618 112.191,110.563 111.281,111.144 110.646 C 111.725 110.011,112.625 109.111,113.144 108.646 C 113.663 108.181,114.563 107.281,115.144 106.646 C 115.725 106.011,116.625 105.111,117.144 104.646 C 117.663 104.181,118.563 103.281,119.144 102.646 C 119.725 102.011,120.625 101.111,121.144 100.646 C 121.663 100.181,122.563 99.281,123.144 98.646 C 123.725 98.011,124.625 97.111,125.144 96.646 C 125.663 96.181,126.563 95.281,127.144 94.646 C 127.725 94.011,128.625 93.111,129.144 92.646 C 129.663 92.181,130.563 91.281,131.144 90.646 C 131.725 90.011,132.625 89.111,133.144 88.646 C 133.663 88.181,134.563 87.281,135.144 86.646 C 135.725 86.011,136.625 85.111,137.144 84.646 C 137.663 84.181,138.563 83.281,139.144 82.646 C 139.725 82.011,140.625 81.111,141.144 80.646 C 141.663 80.181,142.563 79.281,143.144 78.646 C 143.725 78.011,144.625 77.111,145.144 76.646 C 145.663 76.181,146.563 75.281,147.144 74.646 C 147.725 74.011,148.625 73.111,149.144 72.646 C 149.663 72.181,150.563 71.281,151.144 70.646 C 151.725 70.011,152.625 69.111,153.144 68.646 C 153.663 68.181,154.563 67.287,155.144 66.660 C 156.473 65.224,157.224 64.473,158.660 63.144 C 159.287 62.563,160.181 61.663,160.646 61.144 C 161.111 60.625,162.011 59.725,162.646 59.144 C 163.281 58.563,164.181 57.663,164.646 57.144 C 165.111 56.625,166.011 55.725,166.646 55.144 C 167.281 54.563,168.181 53.663,168.646 53.144 C 169.111 52.625,170.011 51.725,170.646 51.144 C 171.281 50.563,172.181 49.663,172.646 49.144 C 173.111 48.625,174.011 47.725,174.646 47.144 C 175.281 46.563,176.181 45.663,176.646 45.144 C 177.111 44.625,178.011 43.725,178.646 43.144 C 179.281 42.563,180.181 41.663,180.646 41.144 C 181.111 40.625,182.011 39.725,182.646 39.144 C 183.281 38.563,184.181 37.663,184.646 37.144 C 185.111 36.625,186.011 35.725,186.646 35.144 C 187.281 34.563,188.191 33.618,188.670 33.044 C 189.720 31.784,189.990 31.762,191.346 32.829 M69.200 113.568 C 68.650 113.976,67.842 114.377,67.405 114.460 C 66.967 114.542,66.541 114.967,66.458 115.405 C 66.375 115.842,65.968 116.678,65.553 117.262 C 64.332 118.983,64.378 277.894,65.600 279.000 C 66.040 279.398,66.400 280.053,66.400 280.455 C 66.400 280.930,67.096 281.539,68.387 282.193 L 70.373 283.200 82.030 283.200 C 95.864 283.200,96.762 283.000,98.333 279.576 L 99.200 277.687 99.200 198.030 L 99.200 118.373 98.193 116.387 C 97.539 115.096,96.930 114.400,96.455 114.400 C 96.053 114.400,95.398 114.040,95.000 113.600 C 93.921 112.407,70.802 112.378,69.200 113.568 M95.346 116.829 L 96.400 117.658 96.400 197.974 L 96.400 278.291 95.345 279.345 L 94.291 280.400 81.974 280.400 L 69.658 280.400 68.829 279.346 L 68.000 278.292 68.000 197.946 C 68.000 118.133,68.005 117.595,68.800 116.800 C 70.064 115.536,93.735 115.562,95.346 116.829 " stroke="none" fill="#242c2c" fill-rule="evenodd"></path><path id="path3" d="" stroke="none" fill="#70cc100" fill-rule="evenodd"></path><path id="path4" d="" stroke="none" fill="#70cc100" fill-rule="evenodd"></path></g></svg>