<svg id="svg" version="1.1" xmlns="http://www.w3.org/2000/svg" xmlns:xlink="http://www.w3.org/1999/xlink" width="400" height="400" viewBox="0, 0, 400,400"><g id="svgg"><path id="path0" d="M315.103 67.006 C 314.550 67.559,313.986 68.570,313.850 69.252 C 313.712 69.939,312.864 71.231,311.949 72.146 L 310.296 73.800 305.248 73.932 C 299.611 74.079,298.448 74.633,297.829 77.463 C 297.677 78.158,296.888 79.418,296.076 80.263 L 294.600 81.800 289.400 81.937 C 283.594 82.091,282.450 82.623,281.829 85.463 C 281.677 86.158,280.888 87.418,280.076 88.263 L 278.600 89.800 273.400 89.937 C 267.594 90.091,266.450 90.623,265.829 93.463 C 265.677 94.158,264.888 95.418,264.076 96.263 L 262.600 97.800 257.316 97.939 C 251.424 98.094,250.389 98.553,249.850 101.252 C 249.530 102.851,246.851 105.530,245.252 105.850 C 241.564 106.587,241.629 109.822,245.346 110.568 C 245.977 110.695,247.237 111.542,248.146 112.451 L 249.800 114.104 249.931 119.229 C 250.080 125.011,250.568 126.042,253.410 126.576 C 255.118 126.896,257.448 129.196,257.829 130.937 C 258.450 133.777,259.594 134.309,265.400 134.463 L 270.600 134.600 272.076 136.137 C 272.888 136.982,273.677 138.238,273.828 138.928 C 274.442 141.722,275.709 142.400,280.318 142.400 C 286.125 142.400,286.400 142.090,286.400 135.542 C 286.400 132.647,286.556 130.800,286.800 130.800 C 287.020 130.800,287.200 130.524,287.200 130.187 C 287.200 129.176,289.685 127.016,291.456 126.488 C 294.019 125.724,294.400 124.808,294.400 119.414 C 294.400 116.605,294.556 114.800,294.800 114.800 C 295.020 114.800,295.200 114.524,295.200 114.187 C 295.200 113.176,297.685 111.016,299.456 110.488 C 301.090 110.001,302.400 108.633,302.400 107.414 C 302.400 107.076,302.580 106.800,302.800 106.800 C 303.020 106.800,303.200 106.521,303.200 106.180 C 303.200 105.189,305.760 102.828,307.132 102.554 C 309.839 102.012,310.322 100.952,310.469 95.229 L 310.600 90.104 312.254 88.451 C 313.169 87.536,314.461 86.688,315.148 86.550 C 317.838 86.012,318.322 84.945,318.469 79.229 L 318.600 74.104 320.254 72.451 C 321.169 71.536,322.461 70.688,323.148 70.550 C 325.992 69.982,326.760 68.105,324.800 66.513 C 323.535 65.485,316.254 65.855,315.103 67.006 M227.103 115.006 C 226.550 115.559,225.986 116.570,225.850 117.252 C 225.530 118.851,222.851 121.530,221.252 121.850 C 219.665 122.167,218.167 123.665,217.850 125.252 C 217.530 126.851,214.851 129.530,213.252 129.850 C 211.665 130.167,210.167 131.665,209.850 133.252 C 209.530 134.851,206.851 137.530,205.252 137.850 C 203.665 138.167,202.167 139.665,201.850 141.252 C 201.713 141.934,200.902 143.192,200.047 144.047 C 199.192 144.902,197.934 145.713,197.252 145.850 C 195.665 146.167,194.167 147.665,193.850 149.252 C 193.530 150.851,190.851 153.530,189.252 153.850 C 187.665 154.167,186.167 155.665,185.850 157.252 C 185.530 158.851,182.851 161.530,181.252 161.850 C 179.665 162.167,178.167 163.665,177.850 165.252 C 177.530 166.851,174.851 169.530,173.252 169.850 C 171.665 170.167,170.167 171.665,169.850 173.252 C 169.530 174.851,166.851 177.530,165.252 177.850 C 163.665 178.167,162.167 179.665,161.850 181.252 C 161.530 182.851,158.851 185.530,157.252 185.850 C 155.665 186.167,154.167 187.665,153.850 189.252 C 153.530 190.851,150.851 193.530,149.252 193.850 C 147.665 194.167,146.167 195.665,145.850 197.252 C 145.530 198.851,142.851 201.530,141.252 201.850 C 139.665 202.167,138.167 203.665,137.850 205.252 C 137.530 206.851,134.851 209.530,133.252 209.850 C 131.665 210.167,130.167 211.665,129.850 213.252 C 129.530 214.851,126.851 217.530,125.252 217.850 C 123.665 218.167,122.167 219.665,121.850 221.252 C 121.530 222.851,118.851 225.530,117.252 225.850 C 115.665 226.167,114.167 227.665,113.850 229.252 C 113.530 230.851,110.851 233.530,109.252 233.850 C 107.665 234.167,106.167 235.665,105.850 237.252 C 105.530 238.851,102.851 241.530,101.252 241.850 C 97.564 242.587,97.629 245.822,101.346 246.568 C 102.866 246.873,105.538 249.591,105.850 251.148 C 106.388 253.838,107.455 254.322,113.171 254.469 L 118.296 254.600 119.949 256.254 C 120.864 257.169,121.712 258.461,121.850 259.148 C 122.167 260.735,123.665 262.233,125.252 262.550 C 125.939 262.688,127.231 263.536,128.146 264.451 L 129.800 266.104 129.931 271.229 C 130.078 276.945,130.562 278.012,133.252 278.550 C 134.851 278.870,137.530 281.549,137.850 283.148 C 138.587 286.836,141.822 286.771,142.568 283.054 C 142.873 281.534,145.591 278.862,147.148 278.550 C 148.735 278.233,150.233 276.735,150.550 275.148 C 150.870 273.549,153.549 270.870,155.148 270.550 C 156.735 270.233,158.233 268.735,158.550 267.148 C 158.870 265.549,161.549 262.870,163.148 262.550 C 164.735 262.233,166.233 260.735,166.550 259.148 C 166.870 257.549,169.549 254.870,171.148 254.550 C 172.735 254.233,174.233 252.735,174.550 251.148 C 174.870 249.549,177.549 246.870,179.148 246.550 C 180.735 246.233,182.233 244.735,182.550 243.148 C 182.870 241.549,185.549 238.870,187.148 238.550 C 188.735 238.233,190.233 236.735,190.550 235.148 C 190.870 233.549,193.549 230.870,195.148 230.550 C 196.735 230.233,198.233 228.735,198.550 227.148 C 198.870 225.549,201.549 222.870,203.148 222.550 C 204.735 222.233,206.233 220.735,206.550 219.148 C 206.870 217.549,209.549 214.870,211.148 214.550 C 212.735 214.233,214.233 212.735,214.550 211.148 C 214.870 209.549,217.549 206.870,219.148 206.550 C 220.735 206.233,222.233 204.735,222.550 203.148 C 222.870 201.549,225.549 198.870,227.148 198.550 C 228.735 198.233,230.233 196.735,230.550 195.148 C 230.870 193.549,233.549 190.870,235.148 190.550 C 236.735 190.233,238.233 188.735,238.550 187.148 C 238.870 185.549,241.549 182.870,243.148 182.550 C 244.735 182.233,246.233 180.735,246.550 179.148 C 246.870 177.549,249.549 174.870,251.148 174.550 C 252.610 174.258,254.400 172.604,254.400 171.545 C 254.400 171.135,254.580 170.800,254.800 170.800 C 255.020 170.800,255.200 170.524,255.200 170.187 C 255.200 169.176,257.685 167.016,259.456 166.488 C 261.090 166.001,262.400 164.633,262.400 163.414 C 262.400 163.076,262.580 162.800,262.800 162.800 C 263.020 162.800,263.200 162.524,263.200 162.187 C 263.200 161.176,265.685 159.016,267.456 158.488 C 269.940 157.747,270.402 156.745,270.391 152.114 C 270.378 146.317,270.310 146.257,263.504 145.993 L 258.160 145.787 256.680 144.307 C 255.866 143.493,255.200 142.551,255.200 142.213 C 255.200 141.876,255.020 141.600,254.800 141.600 C 254.580 141.600,254.400 141.265,254.400 140.855 C 254.400 139.796,252.610 138.142,251.148 137.850 C 249.549 137.530,246.870 134.851,246.550 133.252 C 246.233 131.665,244.735 130.167,243.148 129.850 C 242.461 129.712,241.169 128.864,240.254 127.949 L 238.600 126.296 238.469 121.171 C 238.291 114.254,238.069 114.000,232.200 114.000 C 228.364 114.000,228.047 114.063,227.103 115.006 M83.055 259.055 L 82.000 260.109 82.000 268.200 L 82.000 276.291 83.006 277.297 C 83.559 277.850,84.570 278.414,85.252 278.550 C 85.939 278.688,87.231 279.536,88.146 280.451 L 89.800 282.104 89.931 287.229 C 90.112 294.266,90.134 294.288,97.171 294.469 L 102.296 294.600 103.949 296.254 C 104.864 297.169,105.712 298.461,105.850 299.148 C 105.986 299.830,106.550 300.841,107.103 301.394 L 108.109 302.400 116.200 302.400 L 124.291 302.400 125.345 301.345 L 126.400 300.291 126.400 292.200 L 126.400 284.109 125.394 283.103 C 124.841 282.550,123.830 281.986,123.148 281.850 C 122.461 281.712,121.169 280.864,120.254 279.949 L 118.600 278.296 118.469 273.171 C 118.288 266.134,118.266 266.112,111.229 265.931 L 106.104 265.800 104.451 264.146 C 103.536 263.231,102.688 261.939,102.550 261.252 C 102.414 260.570,101.850 259.559,101.297 259.006 L 100.291 258.000 92.200 258.000 L 84.109 258.000 83.055 259.055 " stroke="none" fill="#fcfcfc" fill-rule="evenodd"></path><path id="path1" d="M324.480 44.480 C 324.179 44.781,324.000 46.276,324.000 48.480 L 324.000 52.000 316.480 52.000 C 307.553 52.000,308.000 51.764,308.000 56.480 L 308.000 60.000 300.480 60.000 C 291.553 60.000,292.000 59.764,292.000 64.480 L 292.000 68.000 284.480 68.000 C 275.553 68.000,276.000 67.764,276.000 72.480 L 276.000 76.000 268.480 76.000 C 259.553 76.000,260.000 75.764,260.000 80.480 L 260.000 84.000 252.480 84.000 C 243.553 84.000,244.000 83.764,244.000 88.480 L 244.000 92.000 236.480 92.000 C 227.553 92.000,228.000 91.764,228.000 96.480 L 228.000 100.000 224.480 100.000 C 220.056 100.000,220.000 100.056,220.000 104.480 L 220.000 108.000 216.480 108.000 C 212.056 108.000,212.000 108.056,212.000 112.480 L 212.000 116.000 208.480 116.000 C 204.056 116.000,204.000 116.056,204.000 120.480 L 204.000 124.000 200.480 124.000 C 198.276 124.000,196.781 124.179,196.480 124.480 C 196.179 124.781,196.000 126.276,196.000 128.480 L 196.000 132.000 192.480 132.000 C 188.056 132.000,188.000 132.056,188.000 136.480 L 188.000 140.000 184.480 140.000 C 180.056 140.000,180.000 140.056,180.000 144.480 L 180.000 148.000 176.480 148.000 C 172.056 148.000,172.000 148.056,172.000 152.480 L 172.000 156.000 168.480 156.000 C 164.056 156.000,164.000 156.056,164.000 160.480 L 164.000 164.000 160.480 164.000 C 156.056 164.000,156.000 164.056,156.000 168.480 L 156.000 172.000 152.480 172.000 C 148.056 172.000,148.000 172.056,148.000 176.480 L 148.000 180.000 144.480 180.000 C 140.056 180.000,140.000 180.056,140.000 184.480 L 140.000 188.000 136.480 188.000 C 132.056 188.000,132.000 188.056,132.000 192.480 L 132.000 196.000 128.480 196.000 C 124.056 196.000,124.000 196.056,124.000 200.480 L 124.000 204.000 120.480 204.000 C 118.276 204.000,116.781 204.179,116.480 204.480 C 116.179 204.781,116.000 206.276,116.000 208.480 L 116.000 212.000 112.480 212.000 C 108.056 212.000,108.000 212.056,108.000 216.480 L 108.000 220.000 104.480 220.000 C 100.056 220.000,100.000 220.056,100.000 224.480 L 100.000 228.000 96.480 228.000 C 92.056 228.000,92.000 228.056,92.000 232.480 L 92.000 236.000 88.480 236.000 C 84.056 236.000,84.000 236.056,84.000 240.480 L 84.000 244.000 80.480 244.000 C 76.056 244.000,76.000 244.056,76.000 248.480 L 76.000 252.000 72.480 252.000 C 67.603 252.000,68.000 250.581,68.000 268.000 C 68.000 285.419,67.603 284.000,72.480 284.000 L 76.000 284.000 76.000 291.520 C 76.000 300.447,75.764 300.000,80.480 300.000 L 84.000 300.000 84.000 303.520 C 84.000 308.236,83.553 308.000,92.480 308.000 L 100.000 308.000 100.000 311.551 C 100.000 316.409,98.558 316.027,116.447 315.905 L 131.800 315.800 131.914 311.914 L 132.029 308.029 135.914 307.914 L 139.800 307.800 139.914 303.914 L 140.029 300.029 143.914 299.914 L 147.800 299.800 147.914 295.914 L 148.029 292.029 151.914 291.914 L 155.800 291.800 155.914 287.914 L 156.029 284.029 159.914 283.914 L 163.800 283.800 163.914 279.914 L 164.029 276.029 167.914 275.914 L 171.800 275.800 171.914 271.914 L 172.029 268.029 175.914 267.914 L 179.800 267.800 179.914 263.914 L 180.029 260.029 183.914 259.914 L 187.800 259.800 187.914 255.914 L 188.029 252.029 191.914 251.914 L 195.800 251.800 195.914 247.914 L 196.029 244.029 199.914 243.914 L 203.800 243.800 203.914 239.914 L 204.029 236.029 207.914 235.914 L 211.800 235.800 211.914 231.914 L 212.029 228.029 215.914 227.914 L 219.800 227.800 219.914 223.914 L 220.029 220.029 223.914 219.914 L 227.800 219.800 227.914 215.914 L 228.029 212.029 231.914 211.914 L 235.800 211.800 235.914 207.914 L 236.029 204.029 239.914 203.914 L 243.800 203.800 243.914 199.914 L 244.029 196.029 247.914 195.914 L 251.800 195.800 251.914 191.914 L 252.029 188.029 255.914 187.914 L 259.800 187.800 259.914 183.914 L 260.029 180.029 263.914 179.914 L 267.800 179.800 267.914 175.914 L 268.029 172.029 271.914 171.914 L 275.800 171.800 275.914 167.914 L 276.029 164.029 279.914 163.914 L 283.800 163.800 283.914 159.914 L 284.029 156.029 287.914 155.914 L 291.800 155.800 291.914 151.914 L 292.029 148.029 295.914 147.914 L 299.800 147.800 299.908 139.914 L 300.017 132.029 303.908 131.914 L 307.800 131.800 307.908 123.914 L 308.017 116.029 311.908 115.914 L 315.800 115.800 315.914 111.914 L 316.029 108.029 319.914 107.914 L 323.800 107.800 323.908 99.914 L 324.017 92.029 327.908 91.914 L 331.800 91.800 331.908 83.914 L 332.017 76.029 335.908 75.914 L 339.800 75.800 339.908 67.914 L 340.017 60.029 343.908 59.914 L 347.800 59.800 347.909 52.452 C 347.985 47.371,347.877 44.934,347.560 44.552 C 346.937 43.801,325.227 43.733,324.480 44.480 M326.711 65.449 C 329.419 68.159,328.136 72.400,324.607 72.400 C 324.259 72.400,323.878 72.652,323.760 72.961 C 323.641 73.269,323.198 73.612,322.774 73.723 C 322.351 73.833,321.882 74.256,321.732 74.662 C 321.583 75.068,321.222 75.544,320.930 75.720 C 320.539 75.956,320.400 77.248,320.400 80.640 C 320.400 86.430,319.436 88.400,316.601 88.400 C 316.292 88.400,315.896 88.639,315.720 88.930 C 315.544 89.222,315.068 89.583,314.662 89.732 C 314.256 89.882,313.833 90.351,313.723 90.774 C 313.612 91.198,313.269 91.641,312.961 91.760 C 312.525 91.927,312.400 92.998,312.400 96.569 C 312.400 102.400,311.431 104.400,308.607 104.400 C 308.259 104.400,307.878 104.652,307.760 104.961 C 307.641 105.269,307.198 105.612,306.774 105.723 C 306.351 105.833,305.879 106.256,305.727 106.662 C 305.574 107.068,305.235 107.580,304.973 107.800 C 304.711 108.020,304.380 108.700,304.238 109.310 C 303.908 110.727,302.727 111.908,301.310 112.238 C 300.700 112.380,300.020 112.711,299.800 112.973 C 299.580 113.235,299.082 113.569,298.694 113.715 C 298.306 113.860,297.815 114.434,297.604 114.990 C 297.393 115.545,297.035 116.000,296.810 116.000 C 296.554 116.000,296.400 117.720,296.400 120.581 C 296.400 126.377,295.427 128.400,292.640 128.400 C 292.310 128.400,291.896 128.639,291.720 128.930 C 291.544 129.222,291.082 129.577,290.694 129.720 C 290.306 129.863,289.815 130.434,289.604 130.990 C 289.393 131.545,289.035 132.000,288.810 132.000 C 288.554 132.000,288.400 133.732,288.400 136.620 C 288.400 143.934,288.004 144.292,279.717 144.480 C 274.115 144.607,273.249 144.930,273.213 146.900 C 273.206 147.285,273.020 147.600,272.800 147.600 C 272.555 147.600,272.400 149.473,272.400 152.420 C 272.400 158.468,271.472 160.400,268.569 160.400 C 268.242 160.400,267.878 160.652,267.760 160.961 C 267.641 161.269,267.199 161.611,266.777 161.722 C 266.355 161.832,265.832 162.390,265.615 162.961 C 265.398 163.533,265.058 164.000,264.860 164.000 C 264.662 164.000,264.393 164.534,264.262 165.188 C 263.968 166.661,262.770 167.898,261.310 168.238 C 260.700 168.380,260.020 168.711,259.800 168.973 C 259.580 169.235,259.082 169.569,258.694 169.715 C 258.306 169.860,257.815 170.434,257.604 170.990 C 257.393 171.545,257.058 172.000,256.860 172.000 C 256.662 172.000,256.393 172.534,256.262 173.188 C 255.968 174.661,254.770 175.898,253.310 176.238 C 252.700 176.380,252.020 176.711,251.800 176.973 C 251.580 177.235,251.081 177.569,250.691 177.716 C 250.301 177.862,249.862 178.301,249.716 178.691 C 249.569 179.081,249.235 179.580,248.973 179.800 C 248.711 180.020,248.380 180.700,248.238 181.310 C 247.908 182.727,246.727 183.908,245.310 184.238 C 244.700 184.380,244.020 184.711,243.800 184.973 C 243.580 185.235,243.081 185.569,242.691 185.716 C 242.301 185.862,241.862 186.301,241.716 186.691 C 241.569 187.081,241.235 187.580,240.973 187.800 C 240.711 188.020,240.380 188.700,240.238 189.310 C 239.908 190.727,238.727 191.908,237.310 192.238 C 236.700 192.380,236.020 192.711,235.800 192.973 C 235.580 193.235,235.081 193.569,234.691 193.716 C 234.301 193.862,233.862 194.301,233.716 194.691 C 233.569 195.081,233.235 195.580,232.973 195.800 C 232.711 196.020,232.380 196.700,232.238 197.310 C 231.908 198.727,230.727 199.908,229.310 200.238 C 228.700 200.380,228.020 200.711,227.800 200.973 C 227.580 201.235,227.081 201.569,226.691 201.716 C 226.301 201.862,225.862 202.301,225.716 202.691 C 225.569 203.081,225.235 203.580,224.973 203.800 C 224.711 204.020,224.380 204.700,224.238 205.310 C 223.908 206.727,222.727 207.908,221.310 208.238 C 220.700 208.380,220.020 208.711,219.800 208.973 C 219.580 209.235,219.081 209.569,218.691 209.716 C 218.301 209.862,217.862 210.301,217.716 210.691 C 217.569 211.081,217.235 211.580,216.973 211.800 C 216.711 212.020,216.380 212.700,216.238 213.310 C 215.908 214.727,214.727 215.908,213.310 216.238 C 212.700 216.380,212.020 216.711,211.800 216.973 C 211.580 217.235,211.081 217.569,210.691 217.716 C 210.301 217.862,209.862 218.301,209.716 218.691 C 209.569 219.081,209.235 219.580,208.973 219.800 C 208.711 220.020,208.380 220.700,208.238 221.310 C 207.908 222.727,206.727 223.908,205.310 224.238 C 204.700 224.380,204.020 224.711,203.800 224.973 C 203.580 225.235,203.081 225.569,202.691 225.716 C 202.301 225.862,201.862 226.301,201.716 226.691 C 201.569 227.081,201.235 227.580,200.973 227.800 C 200.711 228.020,200.380 228.700,200.238 229.310 C 199.908 230.727,198.727 231.908,197.310 232.238 C 196.700 232.380,196.020 232.711,195.800 232.973 C 195.580 233.235,195.081 233.569,194.691 233.716 C 194.301 233.862,193.862 234.301,193.716 234.691 C 193.569 235.081,193.235 235.580,192.973 235.800 C 192.711 236.020,192.380 236.700,192.238 237.310 C 191.908 238.727,190.727 239.908,189.310 240.238 C 188.700 240.380,188.020 240.711,187.800 240.973 C 187.580 241.235,187.081 241.569,186.691 241.716 C 186.301 241.862,185.862 242.301,185.716 242.691 C 185.569 243.081,185.235 243.580,184.973 243.800 C 184.711 244.020,184.380 244.700,184.238 245.310 C 183.908 246.727,182.727 247.908,181.310 248.238 C 180.700 248.380,180.020 248.711,179.800 248.973 C 179.580 249.235,179.081 249.569,178.691 249.716 C 178.301 249.862,177.862 250.301,177.716 250.691 C 177.569 251.081,177.235 251.580,176.973 251.800 C 176.711 252.020,176.380 252.700,176.238 253.310 C 175.908 254.727,174.727 255.908,173.310 256.238 C 172.700 256.380,172.020 256.711,171.800 256.973 C 171.580 257.235,171.081 257.569,170.691 257.716 C 170.301 257.862,169.862 258.301,169.716 258.691 C 169.569 259.081,169.235 259.580,168.973 259.800 C 168.711 260.020,168.380 260.700,168.238 261.310 C 167.908 262.727,166.727 263.908,165.310 264.238 C 164.700 264.380,164.020 264.711,163.800 264.973 C 163.580 265.235,163.081 265.569,162.691 265.716 C 162.301 265.862,161.862 266.301,161.716 266.691 C 161.569 267.081,161.235 267.580,160.973 267.800 C 160.711 268.020,160.380 268.700,160.238 269.310 C 159.908 270.727,158.727 271.908,157.310 272.238 C 156.700 272.380,156.020 272.711,155.800 272.973 C 155.580 273.235,155.081 273.569,154.691 273.716 C 154.301 273.862,153.862 274.301,153.716 274.691 C 153.569 275.081,153.235 275.580,152.973 275.800 C 152.711 276.020,152.380 276.700,152.238 277.310 C 151.908 278.727,150.727 279.908,149.310 280.238 C 148.700 280.380,148.020 280.711,147.800 280.973 C 147.580 281.235,147.081 281.569,146.691 281.716 C 146.301 281.862,145.865 282.301,145.721 282.691 C 145.578 283.081,145.222 283.544,144.930 283.720 C 144.639 283.896,144.400 284.310,144.400 284.640 C 144.400 289.277,138.145 289.323,136.103 284.700 C 135.836 284.095,135.454 283.600,135.255 283.600 C 135.056 283.600,134.799 283.241,134.685 282.802 C 134.570 282.363,134.144 281.882,133.738 281.732 C 133.332 281.583,132.855 281.221,132.679 280.928 C 132.253 280.222,130.540 280.661,129.442 281.757 C 128.646 282.553,128.589 283.118,128.392 292.199 C 128.106 305.350,129.044 304.400,116.348 304.400 C 105.908 304.400,105.123 304.232,104.375 301.835 C 104.094 300.936,103.659 300.020,103.407 299.800 C 103.156 299.580,102.826 299.068,102.673 298.662 C 102.521 298.256,102.049 297.833,101.626 297.723 C 101.202 297.612,100.759 297.269,100.640 296.961 C 100.473 296.526,99.418 296.400,95.941 296.400 C 88.463 296.400,88.000 295.937,88.000 288.459 C 88.000 284.982,87.874 283.927,87.439 283.760 C 87.131 283.641,86.788 283.198,86.677 282.774 C 86.567 282.351,86.144 281.879,85.738 281.727 C 85.332 281.574,84.820 281.244,84.600 280.993 C 84.380 280.741,83.464 280.306,82.565 280.025 C 80.173 279.279,80.000 278.480,80.000 268.200 C 80.000 255.278,79.195 256.052,92.801 255.900 C 101.348 255.805,101.844 255.758,102.643 254.958 C 103.739 253.860,104.178 252.147,103.472 251.721 C 103.179 251.545,102.817 251.068,102.668 250.662 C 102.518 250.256,102.037 249.830,101.598 249.715 C 101.159 249.601,100.800 249.344,100.800 249.145 C 100.800 248.946,100.305 248.564,99.700 248.297 C 95.511 246.446,94.799 241.552,98.548 240.380 C 99.457 240.096,100.380 239.659,100.600 239.407 C 100.820 239.156,101.319 238.831,101.709 238.684 C 102.099 238.538,102.538 238.099,102.684 237.709 C 102.831 237.319,103.156 236.820,103.407 236.600 C 103.659 236.380,104.096 235.457,104.380 234.548 C 104.826 233.121,105.121 232.826,106.548 232.380 C 107.457 232.096,108.380 231.659,108.600 231.407 C 108.820 231.156,109.319 230.831,109.709 230.684 C 110.099 230.538,110.538 230.099,110.684 229.709 C 110.831 229.319,111.156 228.820,111.407 228.600 C 111.659 228.380,112.096 227.457,112.380 226.548 C 112.826 225.121,113.121 224.826,114.548 224.380 C 115.457 224.096,116.380 223.659,116.600 223.407 C 116.820 223.156,117.319 222.831,117.709 222.684 C 118.099 222.538,118.538 222.099,118.684 221.709 C 118.831 221.319,119.156 220.820,119.407 220.600 C 119.659 220.380,120.096 219.457,120.380 218.548 C 120.826 217.121,121.121 216.826,122.548 216.380 C 123.457 216.096,124.380 215.659,124.600 215.407 C 124.820 215.156,125.319 214.831,125.709 214.684 C 126.099 214.538,126.538 214.099,126.684 213.709 C 126.831 213.319,127.156 212.820,127.407 212.600 C 127.659 212.380,128.096 211.457,128.380 210.548 C 128.826 209.121,129.121 208.826,130.548 208.380 C 131.457 208.096,132.380 207.659,132.600 207.407 C 132.820 207.156,133.319 206.831,133.709 206.684 C 134.099 206.538,134.538 206.099,134.684 205.709 C 134.831 205.319,135.156 204.820,135.407 204.600 C 135.659 204.380,136.096 203.457,136.380 202.548 C 136.826 201.121,137.121 200.826,138.548 200.380 C 139.457 200.096,140.380 199.659,140.600 199.407 C 140.820 199.156,141.319 198.831,141.709 198.684 C 142.099 198.538,142.538 198.099,142.684 197.709 C 142.831 197.319,143.156 196.820,143.407 196.600 C 143.659 196.380,144.096 195.457,144.380 194.548 C 144.826 193.121,145.121 192.826,146.548 192.380 C 147.457 192.096,148.380 191.659,148.600 191.407 C 148.820 191.156,149.319 190.831,149.709 190.684 C 150.099 190.538,150.538 190.099,150.684 189.709 C 150.831 189.319,151.156 188.820,151.407 188.600 C 151.659 188.380,152.096 187.457,152.380 186.548 C 152.826 185.121,153.121 184.826,154.548 184.380 C 155.457 184.096,156.380 183.659,156.600 183.407 C 156.820 183.156,157.319 182.831,157.709 182.684 C 158.099 182.538,158.538 182.099,158.684 181.709 C 158.831 181.319,159.156 180.820,159.407 180.600 C 159.659 180.380,160.096 179.457,160.380 178.548 C 160.826 177.121,161.121 176.826,162.548 176.380 C 163.457 176.096,164.380 175.659,164.600 175.407 C 164.820 175.156,165.319 174.831,165.709 174.684 C 166.099 174.538,166.538 174.099,166.684 173.709 C 166.831 173.319,167.156 172.820,167.407 172.600 C 167.659 172.380,168.096 171.457,168.380 170.548 C 168.826 169.121,169.121 168.826,170.548 168.380 C 171.457 168.096,172.380 167.659,172.600 167.407 C 172.820 167.156,173.319 166.831,173.709 166.684 C 174.099 166.538,174.538 166.099,174.684 165.709 C 174.831 165.319,175.156 164.820,175.407 164.600 C 175.659 164.380,176.096 163.457,176.380 162.548 C 176.826 161.121,177.121 160.826,178.548 160.380 C 179.457 160.096,180.380 159.659,180.600 159.407 C 180.820 159.156,181.319 158.831,181.709 158.684 C 182.099 158.538,182.538 158.099,182.684 157.709 C 182.831 157.319,183.156 156.820,183.407 156.600 C 183.659 156.380,184.096 155.457,184.380 154.548 C 184.826 153.121,185.121 152.826,186.548 152.380 C 187.457 152.096,188.380 151.659,188.600 151.407 C 188.820 151.156,189.319 150.831,189.709 150.684 C 190.099 150.538,190.538 150.099,190.684 149.709 C 190.831 149.319,191.156 148.820,191.407 148.600 C 191.659 148.380,192.096 147.457,192.380 146.548 C 192.826 145.121,193.121 144.826,194.548 144.380 C 195.457 144.096,196.380 143.659,196.600 143.407 C 196.820 143.156,197.319 142.831,197.709 142.684 C 198.099 142.538,198.538 142.099,198.684 141.709 C 198.831 141.319,199.156 140.820,199.407 140.600 C 199.659 140.380,200.096 139.457,200.380 138.548 C 200.826 137.121,201.121 136.826,202.548 136.380 C 203.457 136.096,204.380 135.659,204.600 135.407 C 204.820 135.156,205.319 134.831,205.709 134.684 C 206.099 134.538,206.538 134.099,206.684 133.709 C 206.831 133.319,207.156 132.820,207.407 132.600 C 207.659 132.380,208.096 131.457,208.380 130.548 C 208.826 129.121,209.121 128.826,210.548 128.380 C 211.457 128.096,212.380 127.659,212.600 127.407 C 212.820 127.156,213.319 126.831,213.709 126.684 C 214.099 126.538,214.538 126.099,214.684 125.709 C 214.831 125.319,215.156 124.820,215.407 124.600 C 215.659 124.380,216.096 123.457,216.380 122.548 C 216.826 121.121,217.121 120.826,218.548 120.380 C 219.457 120.096,220.380 119.659,220.600 119.407 C 220.820 119.156,221.319 118.831,221.709 118.684 C 222.099 118.538,222.538 118.099,222.684 117.709 C 222.831 117.319,223.156 116.820,223.407 116.600 C 223.659 116.380,224.096 115.457,224.380 114.548 C 225.050 112.406,226.178 112.052,232.800 111.908 C 238.512 111.785,239.012 111.541,239.946 108.424 C 240.514 106.526,241.947 104.878,243.700 104.103 C 244.305 103.836,244.800 103.454,244.800 103.255 C 244.800 103.056,245.159 102.799,245.598 102.685 C 246.037 102.570,246.521 102.144,246.673 101.738 C 246.826 101.332,247.156 100.820,247.407 100.600 C 247.659 100.380,248.094 99.464,248.375 98.565 C 249.049 96.405,250.231 96.000,255.866 96.000 C 259.992 96.000,260.350 95.936,261.438 95.000 C 262.077 94.451,262.691 94.001,262.802 94.000 C 262.914 94.000,263.239 93.415,263.525 92.700 C 265.326 88.198,265.674 88.000,271.757 88.000 C 276.000 88.000,276.347 87.939,277.438 87.000 C 278.077 86.451,278.691 86.001,278.802 86.000 C 278.914 86.000,279.239 85.415,279.525 84.700 C 281.326 80.198,281.674 80.000,287.757 80.000 C 292.000 80.000,292.347 79.939,293.438 79.000 C 294.077 78.451,294.691 78.001,294.802 78.000 C 294.914 78.000,295.239 77.415,295.525 76.700 C 297.329 72.190,297.666 72.000,303.831 72.000 C 307.402 72.000,308.473 71.875,308.640 71.439 C 308.759 71.131,309.202 70.788,309.626 70.677 C 310.049 70.567,310.521 70.144,310.673 69.738 C 310.826 69.332,311.156 68.820,311.407 68.600 C 311.659 68.380,312.094 67.463,312.376 66.562 C 313.078 64.313,313.960 64.040,320.232 64.127 L 325.464 64.200 326.711 65.449 M243.064 112.683 C 240.752 113.279,238.945 123.121,240.881 124.573 C 241.193 124.808,241.574 125.332,241.727 125.738 C 241.879 126.144,242.351 126.567,242.774 126.677 C 243.198 126.788,243.643 127.136,243.764 127.449 C 244.056 128.211,245.840 127.760,246.958 126.642 C 248.049 125.552,248.515 116.574,247.519 115.827 C 247.207 115.592,246.826 115.068,246.673 114.662 C 246.521 114.256,246.049 113.833,245.626 113.723 C 245.202 113.612,244.759 113.269,244.640 112.961 C 244.418 112.382,244.307 112.362,243.064 112.683 M251.064 128.683 C 249.352 129.124,247.812 132.006,248.928 132.679 C 249.221 132.855,249.578 133.319,249.721 133.709 C 249.865 134.099,250.301 134.535,250.691 134.679 C 251.081 134.822,251.545 135.179,251.721 135.472 C 252.113 136.121,253.875 135.760,254.827 134.835 C 256.326 133.381,255.908 130.898,254.000 129.916 C 253.450 129.633,252.856 129.176,252.680 128.901 C 252.347 128.380,252.275 128.370,251.064 128.683 M259.010 136.693 C 258.067 136.932,257.230 137.944,257.213 138.867 C 257.206 139.233,256.975 139.638,256.700 139.767 C 256.308 139.950,256.313 140.052,256.726 140.242 C 257.015 140.375,257.417 140.920,257.620 141.452 C 257.822 141.985,258.306 142.540,258.694 142.685 C 259.082 142.831,259.589 143.202,259.820 143.511 C 260.540 144.469,269.569 144.043,270.651 143.000 C 272.109 141.595,272.084 139.318,270.600 138.335 C 270.380 138.189,269.767 137.694,269.239 137.235 C 268.291 136.412,261.532 136.054,259.010 136.693 M107.064 256.683 C 105.352 257.124,103.812 260.006,104.928 260.679 C 105.221 260.855,105.578 261.319,105.721 261.709 C 105.865 262.099,106.301 262.538,106.691 262.684 C 107.081 262.831,107.592 263.207,107.827 263.519 C 108.574 264.515,117.552 264.049,118.642 262.958 C 119.739 261.861,120.178 260.147,119.472 259.721 C 119.179 259.545,118.822 259.081,118.679 258.691 C 118.535 258.301,118.099 257.865,117.709 257.721 C 117.319 257.578,116.856 257.222,116.680 256.930 C 116.365 256.407,108.878 256.215,107.064 256.683 M123.064 264.683 C 120.752 265.279,118.945 275.121,120.881 276.573 C 121.193 276.808,121.574 277.332,121.727 277.738 C 121.879 278.144,122.351 278.567,122.774 278.677 C 123.198 278.788,123.643 279.136,123.764 279.449 C 124.056 280.211,125.840 279.760,126.958 278.642 C 128.049 277.552,128.515 268.574,127.519 267.827 C 127.207 267.592,126.826 267.068,126.673 266.662 C 126.521 266.256,126.049 265.833,125.626 265.723 C 125.202 265.612,124.759 265.269,124.640 264.961 C 124.418 264.382,124.307 264.362,123.064 264.683 " stroke="none" fill="#2c2c2c" fill-rule="evenodd"></path><path id="path2" d="" stroke="none" fill="#c810094" fill-rule="evenodd"></path><path id="path3" d="" stroke="none" fill="#c810094" fill-rule="evenodd"></path><path id="path4" d="" stroke="none" fill="#c810094" fill-rule="evenodd"></path></g></svg>