<svg id="svg" version="1.1" xmlns="http://www.w3.org/2000/svg" xmlns:xlink="http://www.w3.org/1999/xlink" width="400" height="400" viewBox="0, 0, 400,400"><g id="svgg"><path id="path0" d="M119.500 76.557 C 119.115 76.849,118.800 77.381,118.800 77.738 C 118.800 79.738,116.649 80.975,112.796 81.193 L 109.113 81.400 108.257 82.974 C 106.449 86.296,105.977 86.585,102.096 86.739 C 98.236 86.893,97.402 87.309,96.874 89.346 C 96.649 90.216,96.073 90.814,94.828 91.473 C 92.106 92.912,92.090 92.941,91.939 96.716 C 91.786 100.559,90.998 102.063,88.858 102.600 C 86.997 103.067,86.800 103.490,86.800 107.018 C 86.800 110.443,85.738 112.800,84.195 112.800 C 83.902 112.800,83.120 113.255,82.459 113.812 L 81.256 114.824 81.128 120.971 C 80.987 127.731,80.729 128.489,78.388 129.003 C 75.980 129.532,76.000 129.357,76.000 149.737 C 76.000 164.966,76.098 168.384,76.548 168.757 C 76.849 169.007,77.879 169.625,78.836 170.132 C 81.089 171.323,81.113 171.435,81.160 181.238 C 81.203 190.153,81.236 190.290,83.513 190.984 C 86.195 191.802,86.589 192.855,86.730 199.595 C 86.866 206.135,86.996 206.604,88.773 206.994 C 90.965 207.475,91.784 208.999,91.939 212.884 C 92.090 216.660,92.105 216.688,94.836 218.132 C 96.848 219.195,97.104 219.828,97.160 223.864 C 97.201 226.794,98.434 228.800,100.195 228.800 C 101.738 228.800,102.800 231.157,102.800 234.582 C 102.800 238.110,102.997 238.533,104.858 239.000 C 106.998 239.537,107.786 241.041,107.939 244.884 C 108.090 248.658,108.107 248.688,110.824 250.126 C 112.005 250.750,112.648 251.396,112.853 252.163 C 113.239 253.606,114.206 254.665,115.415 254.968 C 116.644 255.277,118.323 256.956,118.632 258.185 C 118.935 259.392,119.994 260.361,121.429 260.745 C 122.212 260.954,122.860 261.626,123.598 262.996 C 124.380 264.446,125.157 265.222,126.615 266.008 C 128.870 267.224,129.103 267.760,129.160 271.864 C 129.201 274.794,130.434 276.800,132.195 276.800 C 132.918 276.800,134.800 279.089,134.800 279.968 C 134.800 280.382,135.420 280.988,136.300 281.434 C 138.505 282.550,139.088 283.117,140.026 285.053 C 140.568 286.173,141.135 286.800,141.605 286.800 C 142.505 286.800,144.800 288.671,144.800 289.405 C 144.800 291.166,146.806 292.399,149.736 292.440 C 153.840 292.497,154.376 292.730,155.592 294.985 C 156.378 296.443,157.154 297.220,158.604 298.002 C 159.974 298.740,160.646 299.388,160.855 300.171 C 161.239 301.606,162.208 302.665,163.415 302.968 C 164.644 303.277,166.323 304.956,166.632 306.185 C 166.935 307.394,167.994 308.361,169.437 308.747 C 170.204 308.952,170.850 309.595,171.474 310.776 C 172.912 313.493,172.942 313.510,176.716 313.661 C 180.559 313.814,182.063 314.602,182.600 316.742 C 182.963 318.187,183.464 318.706,184.773 318.994 C 186.002 319.264,186.954 320.260,188.257 322.637 L 189.113 324.200 192.796 324.407 C 196.649 324.625,198.800 325.862,198.800 327.862 C 198.800 329.021,200.092 329.575,202.800 329.575 C 205.508 329.575,206.800 329.021,206.800 327.862 C 206.800 325.862,208.951 324.625,212.804 324.407 L 216.487 324.200 217.343 322.637 C 218.646 320.260,219.598 319.264,220.827 318.994 C 222.136 318.706,222.637 318.187,223.000 316.742 C 223.537 314.602,225.041 313.814,228.884 313.661 C 232.658 313.510,232.688 313.493,234.126 310.776 C 234.750 309.595,235.396 308.952,236.163 308.747 C 237.606 308.361,238.665 307.394,238.968 306.185 C 239.277 304.956,240.956 303.277,242.185 302.968 C 243.392 302.665,244.361 301.606,244.745 300.171 C 244.954 299.388,245.626 298.740,246.996 298.002 C 248.446 297.220,249.222 296.443,250.008 294.985 C 251.224 292.730,251.760 292.497,255.864 292.440 C 258.794 292.399,260.800 291.166,260.800 289.405 C 260.800 288.671,263.095 286.800,263.995 286.800 C 264.465 286.800,265.032 286.173,265.574 285.053 C 266.512 283.117,267.095 282.550,269.300 281.434 C 270.180 280.988,270.800 280.382,270.800 279.968 C 270.800 279.047,272.698 276.800,273.476 276.800 C 274.260 276.800,276.800 274.260,276.800 273.476 C 276.800 272.732,279.029 270.800,279.887 270.800 C 281.063 270.800,281.574 269.490,281.587 266.447 C 281.601 263.209,282.621 260.800,283.979 260.800 C 285.017 260.800,286.671 259.369,286.959 258.220 C 287.275 256.960,288.942 255.280,290.185 254.968 C 291.394 254.665,292.361 253.606,292.747 252.163 C 292.952 251.396,293.595 250.750,294.776 250.126 C 297.493 248.688,297.510 248.658,297.661 244.884 C 297.814 241.041,298.602 239.537,300.742 239.000 C 302.603 238.533,302.800 238.110,302.800 234.582 C 302.800 231.157,303.862 228.800,305.405 228.800 C 307.166 228.800,308.399 226.794,308.440 223.864 C 308.496 219.828,308.752 219.195,310.764 218.132 C 313.495 216.688,313.510 216.660,313.661 212.884 C 313.816 208.999,314.635 207.475,316.827 206.994 C 318.604 206.604,318.734 206.135,318.870 199.595 C 319.011 192.855,319.405 191.802,322.087 190.984 C 324.364 190.290,324.397 190.153,324.440 181.238 C 324.487 171.435,324.511 171.323,326.764 170.132 C 327.721 169.625,328.751 169.007,329.052 168.757 C 329.502 168.384,329.600 164.966,329.600 149.737 C 329.600 129.357,329.620 129.532,327.212 129.003 C 324.871 128.489,324.613 127.731,324.472 120.971 L 324.344 114.824 323.141 113.812 C 322.480 113.255,321.698 112.800,321.405 112.800 C 319.862 112.800,318.800 110.443,318.800 107.018 C 318.800 103.490,318.603 103.067,316.742 102.600 C 314.602 102.063,313.814 100.559,313.661 96.716 C 313.510 92.941,313.494 92.912,310.772 91.473 C 309.527 90.814,308.951 90.216,308.726 89.346 C 308.198 87.309,307.364 86.893,303.504 86.739 C 299.623 86.585,299.151 86.296,297.343 82.974 L 296.487 81.400 292.804 81.193 C 288.951 80.975,286.800 79.738,286.800 77.738 C 286.800 76.165,285.822 76.025,274.800 76.025 C 263.778 76.025,262.800 76.165,262.800 77.738 C 262.800 79.738,260.649 80.975,256.796 81.193 L 253.113 81.400 252.257 82.974 C 250.449 86.296,249.977 86.585,246.096 86.739 C 242.239 86.893,241.402 87.310,240.876 89.338 C 240.646 90.225,240.050 90.818,238.608 91.596 C 237.157 92.378,236.379 93.156,235.598 94.604 C 234.860 95.974,234.212 96.646,233.429 96.855 C 231.994 97.239,230.935 98.208,230.632 99.415 C 230.323 100.644,228.644 102.323,227.415 102.632 C 226.206 102.935,225.239 103.994,224.853 105.437 C 224.648 106.204,224.005 106.850,222.824 107.474 C 220.107 108.912,220.090 108.942,219.939 112.716 C 219.786 116.559,218.998 118.063,216.858 118.600 C 214.997 119.067,214.800 119.490,214.800 123.018 C 214.800 126.443,213.738 128.800,212.195 128.800 C 210.518 128.800,209.200 130.818,209.200 133.386 C 209.200 138.992,208.225 140.000,202.800 140.000 C 197.375 140.000,196.400 138.992,196.400 133.386 C 196.400 130.818,195.082 128.800,193.405 128.800 C 191.862 128.800,190.800 126.443,190.800 123.018 C 190.800 119.490,190.603 119.067,188.742 118.600 C 186.602 118.063,185.814 116.559,185.661 112.716 C 185.510 108.942,185.493 108.912,182.776 107.474 C 181.595 106.850,180.952 106.204,180.747 105.437 C 180.361 103.994,179.394 102.935,178.185 102.632 C 176.956 102.323,175.277 100.644,174.968 99.415 C 174.665 98.208,173.606 97.239,172.171 96.855 C 171.388 96.646,170.740 95.974,170.002 94.604 C 169.222 93.157,168.443 92.378,166.996 91.598 C 165.626 90.860,164.954 90.212,164.745 89.429 C 164.361 87.994,163.392 86.935,162.185 86.632 C 160.956 86.323,159.277 84.644,158.968 83.415 C 158.478 81.461,157.830 81.268,151.266 81.130 L 145.132 81.000 143.966 79.694 C 143.325 78.975,142.800 78.095,142.800 77.738 C 142.800 76.165,141.822 76.025,130.800 76.025 C 122.604 76.025,120.041 76.146,119.500 76.557 " stroke="none" fill="#fcfcfc" fill-rule="evenodd"></path><path id="path1" d="M114.800 69.384 L 114.800 71.977 109.500 72.088 L 104.200 72.200 104.081 74.700 L 103.962 77.200 99.209 77.200 C 93.521 77.200,93.200 77.383,93.200 80.629 L 93.200 82.800 90.600 82.800 L 88.000 82.800 88.000 85.400 L 88.000 88.000 85.400 88.000 L 82.800 88.000 82.800 93.400 L 82.800 98.800 80.243 98.800 C 77.122 98.800,77.200 98.651,77.200 104.633 L 77.200 109.200 75.233 109.200 C 71.807 109.200,72.000 108.707,72.000 117.443 L 72.000 125.200 70.033 125.200 C 66.472 125.200,66.800 122.740,66.800 149.443 L 66.800 173.200 69.400 173.200 L 72.000 173.200 72.000 183.757 C 72.000 195.635,71.756 194.800,75.233 194.800 L 77.200 194.800 77.200 202.026 C 77.200 210.764,77.213 210.800,80.414 210.800 L 82.800 210.800 82.800 216.000 L 82.800 221.200 85.388 221.200 L 87.977 221.200 88.088 226.500 L 88.200 231.800 90.700 231.919 L 93.200 232.038 93.200 236.645 C 93.200 242.531,93.341 242.800,96.414 242.800 L 98.800 242.800 98.800 248.000 L 98.800 253.200 101.400 253.200 L 104.000 253.200 104.000 255.757 C 104.000 258.674,104.134 258.800,107.233 258.800 L 109.200 258.800 109.200 260.767 C 109.200 263.866,109.326 264.000,112.243 264.000 L 114.800 264.000 114.800 266.600 L 114.800 269.200 117.388 269.200 L 119.977 269.200 120.088 274.500 L 120.200 279.800 122.700 279.919 L 125.200 280.038 125.200 281.986 C 125.200 285.061,125.331 285.200,128.225 285.200 L 130.763 285.200 130.882 287.900 L 131.000 290.600 133.481 290.719 L 135.963 290.837 136.081 293.319 L 136.200 295.800 138.700 295.919 L 141.200 296.038 141.200 297.986 C 141.200 301.299,141.026 301.200,146.843 301.200 L 152.000 301.200 152.000 303.757 C 152.000 306.674,152.134 306.800,155.233 306.800 L 157.200 306.800 157.200 308.767 C 157.200 311.866,157.326 312.000,160.243 312.000 L 162.800 312.000 162.800 314.600 L 162.800 317.200 165.400 317.200 L 168.000 317.200 168.000 319.757 C 168.000 322.887,167.828 322.800,174.033 322.800 L 178.800 322.800 178.800 325.400 L 178.800 328.000 181.400 328.000 L 184.000 328.000 184.000 330.600 L 184.000 333.200 189.382 333.200 L 194.763 333.200 194.882 335.900 L 195.000 338.600 202.800 338.600 L 210.600 338.600 210.718 335.900 L 210.837 333.200 216.018 333.200 L 221.200 333.200 221.200 330.618 L 221.200 328.037 223.900 327.918 L 226.600 327.800 226.719 325.312 L 226.838 322.824 231.919 322.712 L 237.000 322.600 237.118 319.918 L 237.236 317.236 239.918 317.118 L 242.600 317.000 242.719 314.519 L 242.837 312.037 245.319 311.919 L 247.800 311.800 247.919 309.319 L 248.037 306.837 250.519 306.719 L 253.000 306.600 253.118 303.900 L 253.237 301.200 258.618 301.200 L 264.000 301.200 264.000 298.600 L 264.000 296.000 266.600 296.000 L 269.200 296.000 269.200 293.418 L 269.200 290.837 271.900 290.718 L 274.600 290.600 274.718 287.900 L 274.837 285.200 277.418 285.200 L 280.000 285.200 280.000 282.600 L 280.000 280.000 282.600 280.000 L 285.200 280.000 285.200 277.418 L 285.200 274.837 287.900 274.718 L 290.600 274.600 290.711 269.319 L 290.823 264.038 293.311 263.919 L 295.800 263.800 295.919 261.319 L 296.037 258.837 298.519 258.719 L 301.000 258.600 301.118 255.918 L 301.236 253.236 303.918 253.118 L 306.600 253.000 306.712 247.919 L 306.824 242.838 309.312 242.719 L 311.800 242.600 311.912 237.300 L 312.023 232.000 314.612 232.000 L 317.200 232.000 317.200 226.618 L 317.200 221.237 319.900 221.118 L 322.600 221.000 322.712 215.919 L 322.824 210.838 325.312 210.719 L 327.800 210.600 327.908 202.719 L 328.017 194.838 330.508 194.719 L 333.000 194.600 333.106 183.918 L 333.213 173.236 335.906 173.118 L 338.600 173.000 338.704 149.600 C 338.823 123.028,339.124 125.200,335.324 125.200 L 333.200 125.200 333.200 117.443 C 333.200 108.707,333.393 109.200,329.967 109.200 L 328.000 109.200 328.000 104.000 L 328.000 98.800 325.400 98.800 L 322.800 98.800 322.800 94.033 C 322.800 87.828,322.887 88.000,319.757 88.000 L 317.200 88.000 317.200 85.400 L 317.200 82.800 314.600 82.800 L 312.000 82.800 312.000 80.243 C 312.000 77.113,312.172 77.200,305.967 77.200 L 301.200 77.200 301.200 74.600 L 301.200 72.000 296.019 72.000 L 290.838 72.000 290.719 69.500 L 290.600 67.000 274.700 66.895 L 258.800 66.791 258.800 69.384 L 258.800 71.977 253.500 72.088 L 248.200 72.200 248.081 74.700 L 247.962 77.200 243.209 77.200 C 237.521 77.200,237.200 77.383,237.200 80.629 L 237.200 82.800 234.600 82.800 L 232.000 82.800 232.000 85.400 L 232.000 88.000 229.400 88.000 L 226.800 88.000 226.800 90.600 L 226.800 93.200 224.629 93.200 C 221.792 93.200,221.200 93.792,221.200 96.629 L 221.200 98.800 218.600 98.800 L 216.000 98.800 216.000 101.400 L 216.000 104.000 213.400 104.000 L 210.800 104.000 210.800 109.400 L 210.800 114.800 208.243 114.800 C 205.122 114.800,205.200 114.651,205.200 120.633 L 205.200 125.200 202.600 125.200 L 200.000 125.200 200.000 120.000 L 200.000 114.800 197.400 114.800 L 194.800 114.800 194.800 110.033 C 194.800 103.828,194.887 104.000,191.757 104.000 L 189.200 104.000 189.200 101.400 L 189.200 98.800 186.600 98.800 L 184.000 98.800 184.000 96.243 C 184.000 93.326,183.866 93.200,180.767 93.200 L 178.800 93.200 178.800 91.233 C 178.800 88.134,178.674 88.000,175.757 88.000 L 173.200 88.000 173.200 85.400 L 173.200 82.800 170.600 82.800 L 168.000 82.800 168.000 80.243 C 168.000 77.326,167.866 77.200,164.767 77.200 L 162.800 77.200 162.800 75.233 C 162.800 71.807,163.290 72.000,154.576 72.000 L 146.838 72.000 146.719 69.500 L 146.600 67.000 130.700 66.895 L 114.800 66.791 114.800 69.384 M143.347 75.404 C 143.679 75.737,144.166 76.602,144.428 77.327 C 145.244 79.583,146.528 80.000,152.659 80.000 C 158.825 80.000,159.373 80.184,160.451 82.621 C 161.057 83.992,161.600 84.540,162.942 85.133 C 164.129 85.658,164.860 86.319,165.315 87.278 C 166.223 89.190,167.783 90.657,169.214 90.943 C 170.151 91.130,170.470 91.449,170.657 92.386 C 170.948 93.838,172.490 95.460,174.301 96.216 C 175.262 96.618,175.855 97.274,176.429 98.574 C 177.058 99.994,177.588 100.534,178.942 101.133 C 180.129 101.658,180.860 102.319,181.315 103.278 C 182.155 105.048,183.902 106.800,184.826 106.800 C 186.334 106.800,186.800 107.882,186.800 111.386 C 186.800 114.850,187.975 117.200,189.706 117.200 C 191.311 117.200,192.400 119.199,192.405 122.155 C 192.413 126.090,192.579 126.473,194.821 127.734 C 197.325 129.141,197.600 129.692,197.600 133.298 C 197.600 137.505,198.823 138.800,202.800 138.800 C 206.868 138.800,208.000 137.537,208.000 133.001 C 208.000 129.286,208.212 128.887,210.868 127.597 C 213.002 126.561,213.187 126.131,213.195 122.189 C 213.201 118.922,213.745 117.878,215.795 117.202 C 218.071 116.451,218.800 115.010,218.800 111.267 C 218.800 107.888,219.281 106.800,220.774 106.800 C 221.719 106.800,223.519 104.969,224.216 103.299 C 224.618 102.338,225.274 101.745,226.574 101.171 C 228.018 100.532,228.532 100.018,229.171 98.574 C 229.745 97.274,230.338 96.618,231.299 96.216 C 233.110 95.460,234.652 93.838,234.943 92.386 C 235.131 91.447,235.449 91.130,236.393 90.941 C 237.685 90.683,240.000 88.606,240.000 87.706 C 240.000 86.094,241.864 85.200,245.221 85.200 C 248.692 85.200,250.800 83.984,250.800 81.980 C 250.800 80.660,252.352 80.000,255.457 80.000 C 258.807 80.000,260.650 79.188,261.009 77.554 C 261.619 74.785,261.543 74.800,274.787 74.800 C 287.937 74.800,287.484 74.716,288.428 77.327 C 289.104 79.197,290.734 80.000,293.852 80.000 C 296.766 80.000,298.800 80.809,298.800 81.968 C 298.800 83.983,300.900 85.200,304.380 85.200 C 307.686 85.200,309.600 86.147,309.600 87.782 C 309.600 88.527,312.025 90.800,312.819 90.800 C 314.334 90.800,314.800 91.878,314.800 95.386 C 314.800 98.850,315.975 101.200,317.706 101.200 C 319.311 101.200,320.400 103.199,320.405 106.155 C 320.413 110.090,320.579 110.473,322.821 111.734 C 325.496 113.238,325.600 113.543,325.600 119.915 C 325.600 126.217,325.785 126.658,329.149 128.374 L 330.800 129.216 330.800 149.277 C 330.800 170.832,330.803 170.800,328.785 170.800 C 328.406 170.800,327.534 171.374,326.847 172.076 L 325.600 173.352 325.600 181.690 C 325.600 191.095,325.502 191.472,322.766 192.567 C 320.633 193.420,320.400 194.229,320.400 200.771 C 320.400 206.578,319.756 208.400,317.706 208.400 C 315.998 208.400,314.800 210.755,314.800 214.111 C 314.800 217.510,314.246 218.800,312.785 218.800 C 310.972 218.800,309.600 221.170,309.600 224.302 C 309.600 227.908,309.325 228.459,306.821 229.866 C 304.579 231.127,304.413 231.510,304.405 235.445 C 304.400 238.401,303.311 240.400,301.706 240.400 C 299.998 240.400,298.800 242.755,298.800 246.111 C 298.800 249.505,298.246 250.800,296.793 250.800 C 295.898 250.800,294.143 252.577,293.315 254.322 C 292.860 255.281,292.129 255.942,290.942 256.467 C 289.610 257.056,289.056 257.610,288.467 258.942 C 287.942 260.129,287.281 260.860,286.322 261.315 C 283.387 262.708,282.800 263.726,282.800 267.426 C 282.800 271.087,282.535 271.610,280.266 272.431 C 279.335 272.767,278.618 273.484,277.856 274.840 C 277.098 276.187,276.195 277.094,274.867 277.840 C 273.412 278.658,272.794 279.321,272.241 280.658 C 271.713 281.935,271.233 282.472,270.459 282.653 C 269.009 282.993,266.933 285.036,266.662 286.390 C 266.491 287.245,266.028 287.675,264.675 288.234 C 263.317 288.796,262.662 289.406,261.833 290.880 C 260.461 293.321,259.894 293.600,256.302 293.600 C 253.215 293.600,250.800 294.968,250.800 296.716 C 250.800 297.574,249.619 298.800,248.793 298.800 C 247.898 298.800,246.143 300.577,245.315 302.322 C 244.860 303.281,244.129 303.942,242.942 304.467 C 241.610 305.056,241.056 305.610,240.467 306.942 C 239.942 308.129,239.281 308.860,238.322 309.315 C 236.631 310.118,234.800 311.889,234.800 312.723 C 234.800 314.241,233.594 314.800,230.324 314.800 C 226.581 314.800,225.514 315.341,224.342 317.835 C 223.746 319.102,223.102 319.746,221.835 320.342 C 220.125 321.145,218.800 322.645,218.800 323.776 C 218.800 324.798,216.624 325.600,213.852 325.600 C 210.734 325.600,209.104 326.403,208.428 328.273 C 207.587 330.600,207.141 330.800,202.800 330.800 C 198.459 330.800,198.013 330.600,197.172 328.273 C 196.496 326.403,194.866 325.600,191.748 325.600 C 188.976 325.600,186.800 324.798,186.800 323.776 C 186.800 322.645,185.475 321.145,183.765 320.342 C 182.498 319.746,181.854 319.102,181.258 317.835 C 180.084 315.336,179.022 314.800,175.243 314.800 C 171.889 314.800,170.800 314.316,170.800 312.826 C 170.800 311.902,169.048 310.155,167.278 309.315 C 166.319 308.860,165.658 308.129,165.133 306.942 C 164.534 305.588,163.994 305.058,162.574 304.429 C 161.274 303.855,160.618 303.262,160.216 302.301 C 159.460 300.490,157.838 298.948,156.386 298.657 C 155.447 298.469,155.130 298.151,154.941 297.207 C 154.452 294.760,152.637 293.600,149.298 293.600 C 145.706 293.600,145.139 293.321,143.767 290.880 C 142.938 289.406,142.283 288.796,140.925 288.234 C 139.572 287.675,139.109 287.245,138.938 286.390 C 138.667 285.036,136.591 282.993,135.141 282.653 C 134.367 282.472,133.887 281.935,133.359 280.658 C 132.805 279.318,132.188 278.658,130.720 277.833 C 128.279 276.461,128.000 275.894,128.000 272.302 C 128.000 268.963,126.840 267.148,124.393 266.659 C 123.449 266.470,123.131 266.153,122.943 265.214 C 122.657 263.783,121.190 262.223,119.278 261.315 C 118.319 260.860,117.658 260.129,117.133 258.942 C 116.534 257.588,115.994 257.058,114.574 256.429 C 113.274 255.855,112.618 255.262,112.216 254.301 C 111.519 252.631,109.719 250.800,108.774 250.800 C 107.266 250.800,106.800 249.718,106.800 246.214 C 106.800 242.750,105.625 240.400,103.894 240.400 C 102.289 240.400,101.200 238.401,101.195 235.445 C 101.187 231.510,101.021 231.127,98.779 229.866 C 96.275 228.459,96.000 227.908,96.000 224.302 C 96.000 221.149,94.626 218.800,92.781 218.800 C 91.266 218.800,90.800 217.722,90.800 214.214 C 90.800 210.750,89.625 208.400,87.894 208.400 C 85.844 208.400,85.200 206.578,85.200 200.771 C 85.200 194.148,85.003 193.504,82.655 192.465 C 80.057 191.316,80.000 191.086,80.000 181.702 L 80.000 173.352 78.753 172.076 C 78.066 171.374,77.179 170.800,76.781 170.800 C 74.763 170.800,74.785 171.054,74.896 149.277 L 75.000 129.019 76.890 128.009 C 79.897 126.403,79.973 126.196,79.987 119.576 C 80.002 113.040,80.024 112.978,82.868 111.597 C 85.002 110.561,85.187 110.131,85.195 106.189 C 85.201 102.922,85.745 101.878,87.795 101.202 C 90.071 100.451,90.800 99.010,90.800 95.267 C 90.800 91.884,91.281 90.800,92.781 90.800 C 93.617 90.800,96.000 88.510,96.000 87.706 C 96.000 86.094,97.864 85.200,101.221 85.200 C 104.692 85.200,106.800 83.984,106.800 81.980 C 106.800 80.660,108.352 80.000,111.457 80.000 C 114.807 80.000,116.650 79.188,117.009 77.554 C 117.619 74.785,117.543 74.800,130.787 74.800 C 140.918 74.800,142.835 74.892,143.347 75.404 " stroke="none" fill="#2c2c2c" fill-rule="evenodd"></path><path id="path2" d="" stroke="none" fill="#c810094" fill-rule="evenodd"></path><path id="path3" d="" stroke="none" fill="#c810094" fill-rule="evenodd"></path><path id="path4" d="" stroke="none" fill="#c810094" fill-rule="evenodd"></path></g></svg>