<svg id="svg" version="1.1" xmlns="http://www.w3.org/2000/svg" xmlns:xlink="http://www.w3.org/1999/xlink" width="400" height="400" viewBox="0, 0, 400,400"><g id="svgg"><path id="path0" d="M352.400 17.779 C 351.630 18.087,349.644 18.353,347.987 18.370 C 346.330 18.386,343.990 18.685,342.787 19.033 C 341.584 19.381,339.021 19.820,337.091 20.008 C 335.160 20.197,333.000 20.645,332.291 21.005 C 328.218 23.071,327.417 23.199,318.600 23.205 C 312.034 23.208,309.720 23.351,308.000 23.858 C 306.790 24.215,303.783 24.629,301.317 24.777 C 298.031 24.974,296.642 25.219,296.116 25.695 C 294.542 27.119,293.042 27.345,283.400 27.607 C 275.159 27.832,273.347 27.997,270.600 28.773 C 265.056 30.339,263.081 30.756,260.158 30.979 C 258.594 31.098,256.547 31.466,255.607 31.797 C 254.247 32.278,251.689 32.400,243.023 32.400 C 232.959 32.400,228.032 32.767,227.000 33.595 C 226.091 34.324,221.532 35.294,217.600 35.594 C 215.290 35.771,212.860 36.155,212.200 36.446 C 211.320 36.835,207.532 37.033,197.982 37.188 C 186.548 37.374,184.835 37.484,183.909 38.091 C 181.498 39.672,178.687 40.400,174.984 40.400 C 172.989 40.400,170.299 40.680,168.984 41.025 C 167.673 41.369,165.732 41.817,164.670 42.020 C 163.609 42.224,162.169 42.640,161.470 42.945 C 159.881 43.639,156.356 44.561,152.200 45.371 C 145.342 46.708,143.458 47.249,142.321 48.205 C 141.685 48.741,140.497 49.336,139.682 49.529 C 138.867 49.721,137.300 50.108,136.200 50.387 C 135.100 50.667,133.030 51.148,131.600 51.457 C 130.170 51.765,128.820 52.251,128.600 52.535 C 127.898 53.444,125.526 54.400,123.974 54.400 C 123.148 54.400,121.330 54.758,119.936 55.195 C 117.826 55.856,116.258 55.991,110.597 55.995 C 103.226 56.000,101.785 56.237,100.009 57.731 L 98.846 58.710 100.166 60.255 C 100.892 61.105,101.615 62.209,101.773 62.710 C 101.931 63.210,102.998 64.650,104.144 65.910 C 105.290 67.169,106.426 68.650,106.668 69.200 C 106.911 69.750,108.029 71.245,109.154 72.523 C 110.279 73.801,111.205 75.061,111.211 75.323 C 111.226 75.971,113.226 77.887,114.302 78.285 C 114.782 78.463,116.666 80.042,118.487 81.795 L 121.800 84.981 130.175 84.852 C 138.754 84.720,139.075 84.671,142.730 82.951 C 143.901 82.399,145.797 81.796,146.942 81.609 C 148.088 81.423,149.650 80.999,150.413 80.668 C 151.176 80.337,153.960 79.404,156.600 78.595 C 159.240 77.785,162.120 76.832,163.000 76.475 C 164.048 76.051,166.394 75.752,169.800 75.607 C 173.386 75.455,175.435 75.183,176.400 74.731 C 177.170 74.371,178.670 73.970,179.733 73.841 C 180.796 73.712,182.236 73.352,182.933 73.042 C 186.859 71.292,188.217 71.042,195.000 70.821 C 200.177 70.653,202.134 70.440,203.200 69.931 C 204.049 69.526,205.949 69.201,208.030 69.107 C 211.210 68.962,211.580 68.854,213.123 67.614 C 214.734 66.319,214.933 66.269,219.493 66.004 C 222.643 65.821,224.624 65.510,225.480 65.065 C 226.184 64.699,227.001 64.400,227.296 64.400 C 227.590 64.400,228.544 64.030,229.415 63.577 C 233.114 61.656,233.505 61.612,247.200 61.597 C 259.280 61.583,260.323 61.526,261.944 60.791 C 263.431 60.116,264.576 59.999,269.744 59.991 C 274.911 59.984,276.056 59.866,277.544 59.191 C 278.939 58.558,280.158 58.400,283.639 58.400 C 287.023 58.400,288.460 58.222,290.096 57.600 C 292.051 56.857,293.170 56.800,305.892 56.800 C 317.598 56.800,319.819 56.706,321.209 56.150 C 322.102 55.792,322.927 55.593,323.041 55.708 C 323.657 56.323,323.162 103.402,322.522 105.181 C 322.115 106.311,321.804 108.743,321.700 111.600 C 321.598 114.421,321.284 116.896,320.888 118.000 C 320.421 119.304,320.170 122.005,319.979 127.800 C 319.794 133.403,319.518 136.455,319.057 137.987 C 318.503 139.832,318.399 142.339,318.395 153.987 C 318.390 166.644,318.323 168.012,317.595 170.336 C 316.392 174.173,316.401 192.441,317.608 196.024 C 318.334 198.180,318.405 199.278,318.308 206.911 L 318.200 215.400 316.715 215.523 C 315.258 215.644,313.082 214.553,312.280 213.300 C 312.104 213.025,311.675 212.800,311.327 212.800 C 310.979 212.800,310.133 212.456,309.447 212.035 C 306.677 210.335,290.271 209.666,284.400 211.014 C 282.970 211.342,280.222 211.869,278.294 212.185 C 274.084 212.876,273.858 212.987,274.443 214.080 C 275.229 215.550,284.915 224.742,285.951 225.002 C 286.501 225.140,287.502 225.803,288.176 226.474 C 288.849 227.146,289.948 227.931,290.618 228.219 C 291.288 228.507,292.548 229.400,293.418 230.204 C 295.240 231.888,296.486 232.588,298.252 232.923 C 299.016 233.068,300.412 234.026,301.833 235.380 C 303.114 236.601,304.440 237.601,304.781 237.603 C 305.121 237.605,306.478 238.597,307.796 239.807 C 309.113 241.017,310.553 242.121,310.996 242.261 C 311.438 242.401,312.866 243.480,314.168 244.658 C 315.471 245.836,316.780 246.800,317.077 246.800 C 317.375 246.800,318.399 247.520,319.354 248.400 C 320.308 249.280,321.417 250.000,321.817 250.000 C 322.219 250.000,325.327 252.764,328.787 256.200 C 332.241 259.629,335.356 262.400,335.757 262.400 C 336.157 262.400,338.310 264.171,340.542 266.336 C 342.774 268.500,345.050 270.383,345.600 270.519 C 346.150 270.655,347.836 272.043,349.347 273.603 C 353.439 277.829,353.378 277.922,353.513 267.195 C 353.617 258.910,353.558 257.987,352.765 255.507 L 351.904 252.815 353.152 251.393 C 354.489 249.871,354.953 246.313,353.946 245.306 C 353.120 244.480,353.478 198.178,354.323 196.631 C 354.883 195.606,355.016 193.927,355.118 186.600 C 355.219 179.309,355.357 177.560,355.920 176.400 C 356.454 175.300,356.625 173.630,356.717 168.600 C 356.809 163.554,356.978 161.904,357.517 160.800 C 358.139 159.525,358.209 156.792,358.305 130.200 C 358.415 99.774,358.395 100.153,360.020 97.600 C 360.934 96.164,361.266 94.800,361.481 91.605 C 361.606 89.732,361.909 87.947,362.154 87.639 C 362.956 86.629,362.982 26.508,362.181 24.334 C 361.830 23.380,361.358 21.942,361.132 21.137 C 360.205 17.834,356.153 16.276,352.400 17.779 M89.067 87.867 C 88.406 88.527,88.811 133.342,89.493 135.000 C 90.585 137.656,90.662 146.447,89.621 149.538 C 88.905 151.663,88.800 152.967,88.800 159.737 C 88.800 165.843,88.664 167.873,88.162 169.250 C 87.811 170.212,87.442 172.620,87.341 174.600 C 87.163 178.088,86.263 182.478,84.881 186.600 C 84.353 188.176,84.162 190.805,83.978 199.000 C 83.817 206.195,83.581 209.831,83.212 210.800 C 82.887 211.652,82.571 215.020,82.405 219.400 C 82.222 224.230,81.914 227.324,81.471 228.800 C 80.914 230.654,80.809 233.094,80.805 244.300 C 80.800 256.691,80.752 257.601,80.100 257.618 C 79.715 257.628,74.360 257.673,68.200 257.718 L 57.000 257.800 52.400 260.044 C 49.870 261.279,47.203 262.402,46.473 262.540 C 45.743 262.678,44.393 263.402,43.473 264.150 C 42.553 264.897,40.630 266.052,39.200 266.716 C 37.035 267.722,35.559 268.964,30.372 274.148 L 24.144 280.372 22.234 286.086 C 21.183 289.229,20.088 292.070,19.801 292.400 C 18.815 293.534,18.404 296.210,18.389 301.600 C 18.377 305.886,18.214 307.454,17.600 309.200 C 16.490 312.354,16.461 322.191,17.551 325.513 C 17.964 326.771,18.408 328.898,18.538 330.239 C 18.805 332.992,20.257 336.195,22.282 338.501 C 23.007 339.327,23.600 340.343,23.600 340.760 C 23.600 341.176,24.275 342.068,25.100 342.741 C 26.671 344.023,26.748 344.100,30.600 348.194 C 34.918 352.784,37.600 356.593,37.600 358.136 C 37.600 358.810,41.153 362.149,42.451 362.696 C 43.029 362.939,44.109 363.653,44.851 364.283 C 47.550 366.573,50.672 367.736,53.174 367.382 C 54.398 367.209,56.390 367.117,57.600 367.179 C 58.810 367.240,64.766 367.315,70.835 367.345 L 81.870 367.400 84.218 365.254 C 85.509 364.073,87.024 362.909,87.583 362.667 C 88.142 362.424,89.320 361.662,90.200 360.971 C 91.080 360.281,92.986 359.164,94.435 358.490 C 96.178 357.678,97.669 356.596,98.842 355.291 C 100.452 353.500,103.634 351.600,105.022 351.600 C 106.213 351.600,112.264 345.057,112.566 343.442 C 112.727 342.584,113.119 341.485,113.438 340.999 C 113.756 340.512,114.161 338.924,114.336 337.469 C 114.728 334.208,115.411 333.381,117.990 333.039 C 121.965 332.512,122.617 330.443,122.223 319.600 C 120.867 282.251,120.580 257.854,121.476 256.054 C 122.674 253.647,122.795 223.547,121.621 220.062 C 120.444 216.568,120.340 181.602,121.500 179.480 C 122.210 178.181,122.856 120.096,122.200 116.498 C 121.935 115.045,120.886 113.897,118.800 112.781 C 118.030 112.369,115.510 110.199,113.200 107.958 C 110.890 105.717,108.433 103.645,107.740 103.353 C 107.047 103.061,106.057 102.264,105.540 101.582 C 105.023 100.900,104.240 100.000,103.800 99.582 C 103.360 99.164,100.833 96.749,98.185 94.216 C 91.688 88.002,90.063 86.870,89.067 87.867 M251.309 231.284 C 250.819 231.521,250.317 232.032,250.194 232.420 C 250.070 232.808,249.723 233.221,249.422 233.336 C 249.122 233.451,248.759 234.076,248.617 234.723 C 248.475 235.370,247.896 236.327,247.331 236.850 C 246.766 237.372,245.957 238.520,245.534 239.400 C 245.111 240.280,244.465 241.540,244.099 242.200 C 242.612 244.877,242.981 263.297,244.571 265.800 C 244.851 266.240,245.199 267.247,245.346 268.037 C 245.493 268.828,246.145 270.178,246.795 271.037 C 247.847 272.428,247.979 272.918,247.989 275.480 C 248.000 278.372,248.626 282.253,249.202 283.000 C 249.372 283.220,249.637 284.390,249.793 285.600 C 249.948 286.810,250.291 288.250,250.556 288.800 C 250.820 289.350,251.627 291.620,252.350 293.843 C 253.490 297.351,253.951 298.199,255.829 300.243 C 257.019 301.540,257.995 302.815,257.997 303.079 C 258.002 303.796,259.786 307.013,261.119 308.707 C 261.765 309.528,262.406 310.562,262.543 311.005 C 263.208 313.144,269.821 318.879,271.852 319.079 C 272.923 319.185,274.430 319.566,275.200 319.927 C 276.159 320.377,278.173 320.649,281.600 320.792 C 285.807 320.967,286.885 321.148,288.400 321.936 C 290.597 323.080,295.022 323.496,298.307 322.868 C 299.568 322.627,301.255 322.329,302.055 322.205 C 302.856 322.082,304.330 321.355,305.331 320.590 C 306.751 319.506,307.532 319.198,308.876 319.191 C 309.824 319.186,311.385 318.826,312.344 318.391 C 313.635 317.805,314.954 317.600,317.425 317.600 C 322.031 317.600,328.477 315.486,331.772 312.894 C 332.362 312.429,333.780 311.741,334.923 311.365 C 340.342 309.580,346.832 300.000,342.621 300.000 C 342.319 300.000,341.599 299.439,341.021 298.753 C 339.987 297.523,337.450 295.600,336.863 295.600 C 336.698 295.600,335.858 294.878,334.996 293.996 C 334.135 293.114,332.703 292.014,331.815 291.552 C 330.927 291.090,329.459 290.057,328.554 289.256 C 327.648 288.455,326.133 287.350,325.187 286.800 C 324.240 286.250,322.675 285.125,321.709 284.300 C 320.742 283.475,319.643 282.800,319.267 282.800 C 318.891 282.800,317.331 281.888,315.801 280.772 C 314.272 279.657,311.900 278.187,310.532 277.506 C 309.061 276.774,307.435 275.554,306.556 274.523 C 305.018 272.718,300.030 268.800,299.271 268.800 C 299.034 268.800,298.696 268.568,298.520 268.285 C 297.517 266.670,292.117 263.212,289.083 262.241 C 288.689 262.115,288.146 261.487,287.876 260.846 C 287.302 259.481,282.537 255.680,279.508 254.171 C 277.402 253.122,276.479 252.310,269.036 244.955 C 265.323 241.285,262.789 239.200,262.043 239.200 C 261.866 239.200,260.749 238.192,259.561 236.961 C 257.139 234.452,252.907 230.786,252.479 230.827 C 252.326 230.842,251.799 231.048,251.309 231.284 " stroke="none" fill="#040404" fill-rule="evenodd"></path><path id="path1" d="M40.276 13.851 C 38.998 14.160,37.558 14.658,37.076 14.958 C 36.594 15.257,35.613 15.610,34.895 15.742 C 30.810 16.493,29.297 23.527,32.449 27.117 C 33.137 27.900,33.941 29.118,34.235 29.823 C 34.530 30.528,35.272 31.544,35.885 32.082 C 40.189 35.856,65.218 61.635,65.710 62.800 C 66.257 64.095,75.265 73.428,84.240 82.000 L 87.800 85.400 88.000 109.200 C 88.122 123.766,88.355 133.340,88.600 133.877 C 88.872 134.473,89.000 127.246,89.000 111.277 C 89.000 82.706,88.031 84.505,98.185 94.216 C 100.833 96.749,103.360 99.164,103.800 99.582 C 104.240 100.000,105.023 100.900,105.540 101.582 C 106.057 102.264,107.047 103.061,107.740 103.353 C 108.433 103.645,110.890 105.717,113.200 107.958 C 115.510 110.199,118.030 112.369,118.800 112.781 C 122.724 114.881,122.460 112.229,122.319 148.067 C 122.253 164.714,122.290 178.244,122.400 178.134 C 122.510 178.024,122.690 164.442,122.800 147.952 C 122.967 122.925,123.092 117.914,123.557 117.627 C 123.963 117.376,125.586 118.742,129.546 122.665 C 132.533 125.625,135.535 128.311,136.216 128.634 C 136.896 128.957,140.051 131.742,143.227 134.821 C 146.402 137.901,149.495 140.725,150.101 141.097 C 150.706 141.469,151.298 142.080,151.418 142.455 C 151.537 142.831,152.391 143.781,153.317 144.568 C 155.527 146.447,155.840 146.760,157.065 148.318 C 157.635 149.042,158.753 149.969,159.550 150.377 C 161.011 151.125,168.255 157.727,171.598 161.357 C 174.868 164.910,182.176 172.000,182.566 172.000 C 183.052 172.000,186.710 175.058,187.907 176.465 C 188.405 177.051,189.755 178.068,190.907 178.724 C 192.105 179.406,195.697 182.586,199.304 186.158 C 202.772 189.591,205.839 192.400,206.120 192.400 C 206.706 192.400,210.855 196.036,213.800 199.131 C 214.900 200.287,216.384 201.486,217.098 201.795 C 218.413 202.365,222.554 206.203,229.510 213.300 C 231.612 215.445,233.551 217.200,233.818 217.200 C 234.866 217.200,239.973 221.396,241.337 223.377 C 242.084 224.463,243.717 225.365,245.680 225.778 C 246.274 225.903,247.828 226.994,249.134 228.203 L 251.507 230.400 249.954 232.100 C 249.099 233.035,248.411 234.070,248.425 234.400 C 248.440 234.742,248.606 234.613,248.812 234.100 C 249.011 233.605,249.348 233.200,249.560 233.200 C 249.772 233.200,250.052 232.867,250.181 232.461 C 251.031 229.782,252.927 230.526,258.103 235.568 C 260.040 237.456,261.827 239.069,262.074 239.154 C 263.225 239.548,265.393 241.354,269.036 244.955 C 276.479 252.310,277.402 253.122,279.508 254.171 C 282.537 255.680,287.302 259.481,287.876 260.846 C 288.146 261.487,288.689 262.115,289.083 262.241 C 292.117 263.212,297.517 266.670,298.520 268.285 C 298.696 268.568,299.034 268.800,299.271 268.800 C 300.030 268.800,305.018 272.718,306.556 274.523 C 307.435 275.554,309.061 276.774,310.532 277.506 C 311.900 278.187,314.272 279.657,315.801 280.772 C 317.331 281.888,318.891 282.800,319.267 282.800 C 319.643 282.800,320.742 283.475,321.709 284.300 C 322.675 285.125,324.240 286.250,325.187 286.800 C 326.133 287.350,327.648 288.455,328.554 289.256 C 329.459 290.057,330.927 291.090,331.815 291.552 C 332.703 292.014,334.135 293.114,334.996 293.996 C 335.858 294.878,336.698 295.600,336.863 295.600 C 337.450 295.600,339.987 297.523,341.021 298.753 C 341.599 299.439,342.319 300.000,342.621 300.000 C 344.728 300.000,344.192 303.572,341.706 306.095 C 340.674 307.143,339.967 308.000,340.134 308.000 C 340.609 308.000,343.974 304.313,344.227 303.515 C 344.524 302.580,344.810 302.611,346.503 303.760 C 347.281 304.288,348.251 304.827,348.659 304.959 C 349.066 305.090,350.070 305.815,350.889 306.569 C 351.708 307.322,352.704 308.043,353.102 308.169 C 353.501 308.296,354.172 308.984,354.593 309.699 C 355.594 311.396,356.282 312.038,358.085 312.955 C 358.902 313.370,363.877 318.002,369.141 323.248 C 379.133 333.206,379.652 333.600,382.766 333.600 C 386.386 333.600,388.848 332.115,389.401 329.598 C 389.648 328.473,390.500 327.428,392.575 325.707 C 394.347 324.238,395.239 314.926,393.960 311.256 C 393.425 309.722,389.077 305.327,387.403 304.627 C 386.737 304.349,385.187 303.124,383.958 301.904 C 382.729 300.685,380.976 299.216,380.062 298.639 C 379.148 298.062,378.400 297.330,378.400 297.011 C 378.400 296.323,376.634 294.578,375.128 293.778 C 374.539 293.465,373.940 292.841,373.797 292.392 C 373.457 291.320,371.705 289.684,370.200 289.033 C 369.540 288.748,368.033 287.589,366.852 286.457 C 365.670 285.326,364.409 284.400,364.050 284.400 C 363.691 284.400,362.337 283.390,361.042 282.155 C 359.315 280.509,358.196 279.789,356.843 279.455 C 354.200 278.803,354.050 278.136,354.023 266.950 C 354.005 259.797,353.864 257.315,353.400 256.000 C 352.557 253.611,352.649 252.495,353.800 251.127 C 355.070 249.618,355.154 246.864,354.000 244.600 C 353.423 243.468,353.200 243.263,353.200 243.866 C 353.200 244.326,353.470 244.926,353.800 245.200 C 354.965 246.167,354.589 249.757,353.152 251.393 L 351.904 252.815 352.765 255.507 C 353.558 257.987,353.617 258.910,353.513 267.195 C 353.378 277.922,353.439 277.829,349.347 273.603 C 347.836 272.043,346.150 270.655,345.600 270.519 C 345.050 270.383,342.774 268.500,340.542 266.336 C 338.310 264.171,336.157 262.400,335.757 262.400 C 335.356 262.400,332.241 259.629,328.787 256.200 C 325.327 252.764,322.219 250.000,321.817 250.000 C 321.417 250.000,320.308 249.280,319.354 248.400 C 318.399 247.520,317.375 246.800,317.077 246.800 C 316.780 246.800,315.471 245.836,314.168 244.658 C 312.866 243.480,311.438 242.401,310.996 242.261 C 310.553 242.121,309.113 241.017,307.796 239.807 C 306.478 238.597,305.121 237.605,304.781 237.603 C 304.440 237.601,303.114 236.601,301.833 235.380 C 300.412 234.026,299.016 233.068,298.252 232.923 C 296.486 232.588,295.240 231.888,293.418 230.204 C 292.548 229.400,291.288 228.507,290.618 228.219 C 289.948 227.931,288.849 227.146,288.176 226.474 C 287.502 225.803,286.501 225.140,285.951 225.002 C 284.903 224.739,275.225 215.542,274.427 214.050 C 274.027 213.303,274.088 213.138,274.882 212.819 C 275.387 212.616,275.558 212.439,275.262 212.425 C 274.966 212.411,274.208 212.704,273.578 213.077 L 272.433 213.753 269.916 211.473 C 266.517 208.393,266.148 208.024,264.786 206.351 C 264.137 205.553,263.110 204.799,262.503 204.675 C 261.803 204.531,259.866 202.899,257.200 200.203 C 254.890 197.869,252.460 195.718,251.800 195.424 C 251.140 195.129,248.890 193.256,246.800 191.261 C 244.710 189.265,242.678 187.625,242.285 187.616 C 241.892 187.607,240.182 186.245,238.485 184.590 C 236.788 182.934,234.964 181.467,234.430 181.329 C 233.897 181.191,231.737 179.397,229.630 177.342 C 227.524 175.286,225.608 173.604,225.372 173.602 C 225.137 173.601,223.979 172.880,222.800 172.000 C 221.621 171.120,220.448 170.400,220.194 170.400 C 219.941 170.400,217.975 168.679,215.826 166.575 C 213.677 164.471,211.484 162.584,210.952 162.382 C 210.421 162.180,209.816 161.568,209.609 161.023 C 209.105 159.698,207.902 158.541,206.309 157.851 C 205.589 157.539,203.304 155.644,201.230 153.642 C 199.157 151.639,197.169 150.000,196.811 150.000 C 196.454 150.000,194.873 148.734,193.298 147.187 C 191.723 145.639,189.816 144.115,189.062 143.800 C 188.307 143.485,186.899 142.436,185.932 141.469 C 184.965 140.501,183.607 139.417,182.915 139.059 C 182.223 138.702,181.530 138.002,181.376 137.504 C 181.060 136.488,179.043 134.531,177.956 134.186 C 177.562 134.061,177.123 133.587,176.978 133.131 C 176.619 131.998,174.086 129.600,173.249 129.600 C 172.874 129.600,170.684 127.696,168.383 125.369 C 166.082 123.042,163.570 120.863,162.800 120.526 C 162.030 120.190,160.378 118.944,159.130 117.758 C 157.881 116.571,156.525 115.600,156.116 115.600 C 155.707 115.600,154.408 114.623,153.228 113.429 C 152.049 112.235,150.629 111.143,150.073 111.004 C 148.936 110.718,147.624 109.501,137.872 99.678 C 134.092 95.870,130.432 92.512,129.738 92.214 C 129.044 91.916,127.372 90.611,126.021 89.314 C 122.307 85.747,122.504 85.600,131.019 85.600 L 137.953 85.600 141.352 84.000 C 143.222 83.120,145.165 82.400,145.670 82.400 C 146.710 82.400,156.368 79.303,162.600 76.971 C 164.057 76.425,165.958 76.186,169.600 76.088 C 172.350 76.015,174.726 75.830,174.881 75.677 C 175.549 75.019,165.378 75.641,163.400 76.379 C 162.300 76.790,159.240 77.787,156.600 78.596 C 153.960 79.405,151.176 80.337,150.413 80.668 C 149.650 80.999,148.088 81.423,146.942 81.609 C 145.797 81.796,143.901 82.399,142.730 82.951 C 139.075 84.671,138.754 84.720,130.175 84.852 L 121.800 84.981 118.487 81.795 C 116.666 80.042,114.782 78.463,114.302 78.285 C 113.226 77.887,111.226 75.971,111.211 75.323 C 111.205 75.061,110.279 73.801,109.154 72.523 C 108.029 71.245,106.911 69.750,106.668 69.200 C 106.426 68.650,105.290 67.169,104.144 65.910 C 102.998 64.650,101.931 63.210,101.773 62.710 C 101.615 62.209,100.892 61.105,100.166 60.255 L 98.846 58.710 100.009 57.731 C 101.785 56.237,103.226 56.000,110.597 55.995 C 116.258 55.991,117.826 55.856,119.936 55.195 C 121.330 54.758,123.148 54.400,123.974 54.400 C 125.526 54.400,127.897 53.444,128.600 52.536 C 128.820 52.252,130.260 51.756,131.800 51.435 C 134.566 50.858,136.998 50.075,136.176 50.025 C 134.993 49.955,128.895 51.782,128.200 52.416 C 126.708 53.777,120.091 54.890,111.600 55.207 C 103.786 55.499,100.517 56.030,100.117 57.072 C 99.630 58.341,97.675 58.890,97.161 57.902 C 96.376 56.392,61.860 22.000,61.130 22.000 C 60.755 22.000,59.617 21.280,58.600 20.400 C 57.583 19.520,56.517 18.800,56.230 18.800 C 55.943 18.800,55.269 18.455,54.733 18.033 C 54.196 17.611,53.047 17.136,52.179 16.976 C 51.310 16.817,49.910 16.145,49.066 15.483 C 47.836 14.518,43.764 13.067,42.800 13.251 C 42.690 13.271,41.554 13.542,40.276 13.851 M352.800 17.179 C 352.250 17.367,350.630 17.542,349.200 17.568 C 347.770 17.594,345.700 17.854,344.600 18.146 C 342.640 18.666,342.680 18.673,346.600 18.506 C 348.800 18.413,351.475 18.060,352.544 17.721 C 356.811 16.372,360.238 17.811,361.158 21.339 C 361.396 22.252,361.790 23.270,362.033 23.600 C 362.551 24.302,362.532 24.219,361.435 21.000 C 360.270 17.580,356.507 15.915,352.800 17.179 M339.800 19.067 C 336.470 19.342,333.325 20.096,331.200 21.130 C 329.061 22.170,328.738 22.207,319.600 22.439 C 312.623 22.617,309.633 22.848,308.000 23.335 C 306.790 23.695,304.630 24.011,303.200 24.035 C 301.770 24.060,300.150 24.231,299.600 24.416 C 297.661 25.068,305.771 24.542,308.000 23.871 C 309.742 23.347,311.948 23.208,318.600 23.205 C 327.428 23.199,328.213 23.073,332.320 20.991 C 333.062 20.615,335.076 20.224,336.920 20.098 C 338.724 19.975,340.740 19.640,341.400 19.353 C 342.060 19.066,342.330 18.855,342.000 18.883 C 341.670 18.911,340.680 18.994,339.800 19.067 M362.600 55.800 C 362.600 80.294,362.703 86.904,363.070 85.894 C 363.413 84.949,363.539 76.843,363.539 55.800 C 363.539 34.757,363.413 26.651,363.070 25.706 C 362.703 24.696,362.600 31.306,362.600 55.800 M295.237 25.756 C 294.358 26.815,291.213 27.200,283.123 27.240 C 278.655 27.262,274.582 27.397,274.071 27.541 C 273.561 27.685,277.251 27.746,282.271 27.677 C 291.634 27.549,294.920 27.101,295.997 25.804 C 296.275 25.469,296.320 25.200,296.098 25.200 C 295.878 25.200,295.490 25.450,295.237 25.756 M270.000 28.564 C 265.569 29.815,262.727 30.403,260.934 30.440 C 259.870 30.462,258.550 30.623,258.000 30.797 C 257.440 30.975,258.495 31.019,260.400 30.897 C 262.270 30.777,264.498 30.436,265.350 30.140 C 266.203 29.843,267.283 29.589,267.750 29.576 C 268.765 29.546,273.266 28.088,272.400 28.069 C 272.070 28.062,270.990 28.284,270.000 28.564 M255.434 31.500 C 255.269 31.665,249.344 31.899,242.267 32.021 C 233.321 32.174,229.095 32.391,228.400 32.732 L 227.400 33.223 228.400 32.953 C 228.950 32.805,235.160 32.569,242.200 32.428 C 250.480 32.262,255.353 32.009,256.000 31.711 C 256.616 31.427,256.757 31.241,256.367 31.225 C 256.018 31.211,255.599 31.335,255.434 31.500 M225.200 33.861 L 223.800 34.426 225.188 34.206 C 225.951 34.084,226.752 33.808,226.968 33.593 C 227.486 33.074,226.944 33.157,225.200 33.861 M219.000 34.821 C 217.020 34.987,214.356 35.409,213.080 35.761 C 211.218 36.274,208.578 36.402,199.680 36.408 C 192.229 36.413,187.977 36.577,186.698 36.908 C 185.100 37.321,186.794 37.382,197.298 37.285 C 207.369 37.193,210.150 37.049,211.600 36.546 C 212.590 36.203,215.196 35.823,217.392 35.703 C 219.587 35.583,221.927 35.247,222.592 34.958 C 223.256 34.668,223.530 34.451,223.200 34.476 C 222.870 34.500,220.980 34.656,219.000 34.821 M182.837 38.156 C 182.140 38.995,179.210 39.598,175.723 39.619 C 172.944 39.636,162.168 41.907,164.600 41.963 C 165.040 41.973,166.738 41.625,168.373 41.191 C 170.293 40.680,172.630 40.400,174.973 40.400 C 177.665 40.400,179.158 40.187,180.766 39.576 C 183.319 38.606,184.934 37.600,183.938 37.600 C 183.586 37.600,183.090 37.850,182.837 38.156 M160.800 42.800 C 159.650 43.282,159.301 43.563,159.833 43.578 C 160.292 43.590,160.800 43.465,160.962 43.300 C 161.124 43.135,161.829 42.789,162.529 42.530 C 163.228 42.272,163.530 42.057,163.200 42.053 C 162.870 42.048,161.790 42.385,160.800 42.800 M156.200 44.041 C 155.320 44.231,153.551 44.585,152.268 44.828 C 150.986 45.071,150.003 45.337,150.085 45.418 C 150.311 45.644,156.862 44.516,158.000 44.055 C 159.196 43.572,158.406 43.565,156.200 44.041 M148.200 45.806 C 147.980 45.885,146.759 46.155,145.487 46.406 C 144.138 46.672,142.855 47.204,142.410 47.681 C 141.991 48.132,140.512 48.825,139.124 49.222 C 137.736 49.618,136.960 49.955,137.400 49.969 C 138.842 50.017,141.153 49.188,142.323 48.203 C 143.039 47.601,144.569 47.009,146.392 46.628 C 147.999 46.293,149.408 45.925,149.524 45.810 C 149.753 45.580,148.839 45.578,148.200 45.806 M321.600 56.041 C 321.115 56.387,321.167 56.433,321.874 56.279 C 322.975 56.039,323.271 56.758,322.779 58.474 C 322.561 59.234,322.400 69.227,322.400 81.999 C 322.400 103.003,322.357 104.354,321.600 107.000 C 321.070 108.852,320.798 111.015,320.793 113.399 C 320.789 115.674,320.497 118.104,320.000 120.000 C 319.382 122.357,319.212 124.337,319.207 129.236 C 319.201 134.146,319.030 136.137,318.400 138.600 C 317.679 141.421,317.600 143.047,317.595 155.164 C 317.592 165.739,317.465 169.068,317.000 170.800 C 316.540 172.515,316.427 175.295,316.487 183.400 L 316.565 193.800 316.797 182.600 C 316.988 173.363,317.149 171.093,317.715 169.650 C 318.315 168.117,318.400 166.180,318.400 154.037 C 318.400 142.332,318.502 139.834,319.057 137.987 C 319.518 136.455,319.794 133.403,319.979 127.800 C 320.170 122.005,320.421 119.304,320.888 118.000 C 321.284 116.896,321.598 114.421,321.700 111.600 C 321.804 108.744,322.115 106.311,322.521 105.182 C 323.070 103.658,323.547 69.766,323.212 56.100 C 323.197 55.490,322.412 55.461,321.600 56.041 M305.800 56.790 C 293.345 56.972,291.164 57.095,289.650 57.700 C 288.360 58.216,286.728 58.404,283.450 58.414 C 280.172 58.425,278.737 58.590,278.000 59.042 C 277.405 59.407,277.324 59.530,277.800 59.347 C 278.240 59.177,280.940 58.920,283.800 58.775 C 286.857 58.620,289.809 58.241,290.964 57.856 C 292.626 57.301,294.990 57.199,306.364 57.194 C 314.348 57.190,320.043 57.030,320.400 56.800 C 320.730 56.587,320.820 56.450,320.600 56.496 C 320.380 56.542,313.720 56.675,305.800 56.790 M269.600 59.981 C 265.115 60.130,262.744 60.370,262.200 60.730 L 261.400 61.260 262.200 60.940 C 262.640 60.764,266.001 60.525,269.668 60.410 C 273.336 60.294,276.471 60.065,276.635 59.900 C 276.799 59.735,276.768 59.636,276.567 59.681 C 276.365 59.726,273.230 59.861,269.600 59.981 M246.933 61.590 C 239.416 61.705,233.176 61.890,233.066 62.000 C 232.694 62.372,260.120 61.973,260.763 61.597 C 261.113 61.392,261.220 61.259,261.000 61.302 C 260.780 61.344,254.450 61.474,246.933 61.590 M230.448 63.052 C 229.936 63.410,228.771 63.942,227.859 64.233 C 226.946 64.524,225.480 65.033,224.600 65.364 C 223.712 65.697,221.643 65.973,219.950 65.982 C 215.816 66.006,214.693 66.284,213.133 67.672 L 211.800 68.858 213.238 67.829 C 214.523 66.909,215.054 66.800,218.238 66.796 C 221.243 66.793,222.394 66.583,225.600 65.458 C 229.544 64.073,233.036 62.400,231.983 62.400 C 231.650 62.400,230.959 62.693,230.448 63.052 M207.600 69.091 C 205.821 69.169,204.030 69.503,203.200 69.912 C 202.111 70.447,200.288 70.649,195.000 70.821 C 188.229 71.041,186.690 71.325,183.000 73.028 C 181.062 73.923,182.193 73.686,186.000 72.400 C 189.277 71.293,189.987 71.200,195.150 71.200 C 198.356 71.200,201.229 71.008,201.874 70.751 C 202.493 70.504,204.665 70.153,206.700 69.971 C 208.735 69.789,210.715 69.456,211.100 69.232 C 211.617 68.931,211.643 68.842,211.200 68.892 C 210.870 68.929,209.250 69.018,207.600 69.091 M179.000 73.894 C 178.120 73.982,177.220 74.236,177.000 74.460 C 176.528 74.939,180.248 74.499,181.200 73.962 C 181.870 73.585,182.046 73.590,179.000 73.894 M361.821 88.100 C 361.518 89.084,361.222 95.312,361.490 95.043 C 361.750 94.784,362.326 87.600,362.087 87.600 C 362.026 87.600,361.906 87.825,361.821 88.100 M360.662 96.284 C 360.531 96.678,360.247 97.270,360.031 97.600 C 358.397 100.097,358.415 99.755,358.305 130.200 C 358.209 156.792,358.139 159.525,357.517 160.800 C 356.978 161.904,356.809 163.554,356.717 168.600 C 356.625 173.630,356.454 175.300,355.920 176.400 C 355.356 177.562,355.220 179.311,355.120 186.688 C 355.054 191.576,355.122 195.266,355.272 194.888 C 355.421 194.510,355.557 190.600,355.572 186.200 C 355.597 179.213,355.702 177.934,356.400 176.096 C 357.064 174.349,357.200 173.022,357.200 168.296 C 357.200 163.569,357.336 162.242,358.000 160.496 C 358.773 158.463,358.800 157.421,358.800 129.753 L 358.800 101.114 360.035 98.526 C 360.715 97.102,361.188 95.854,361.086 95.753 C 360.985 95.651,360.794 95.890,360.662 96.284 M89.535 141.368 C 89.649 146.553,89.544 147.969,88.846 150.644 C 87.874 154.367,87.333 171.682,88.270 169.097 C 88.564 168.285,88.755 164.811,88.783 159.800 C 88.820 152.989,88.941 151.473,89.600 149.600 C 90.527 146.966,90.725 137.636,89.886 136.125 C 89.492 135.415,89.426 136.408,89.535 141.368 M86.833 172.820 C 86.595 173.931,86.400 175.894,86.400 177.184 C 86.400 178.474,85.936 181.271,85.369 183.400 C 84.803 185.530,84.430 187.364,84.542 187.475 C 84.653 187.587,84.921 186.985,85.137 186.139 C 85.353 185.293,85.896 183.160,86.343 181.400 C 87.014 178.762,87.795 170.800,87.383 170.800 C 87.319 170.800,87.071 171.709,86.833 172.820 M121.265 179.817 C 120.327 181.877,120.638 217.146,121.621 220.062 C 122.777 223.495,122.676 253.674,121.500 255.961 C 120.763 257.394,120.453 281.583,121.123 285.363 C 121.275 286.223,121.338 280.429,121.262 272.487 C 121.130 258.629,121.158 257.959,121.962 255.809 C 123.225 252.434,123.256 223.450,122.000 219.800 C 121.083 217.135,120.743 182.454,121.611 180.171 C 122.144 178.768,121.870 178.488,121.265 179.817 M83.639 189.992 C 83.150 192.272,83.024 210.309,83.500 209.834 C 83.742 209.593,84.363 188.518,84.142 188.072 C 84.107 188.002,83.881 188.866,83.639 189.992 M317.042 195.000 C 317.197 195.660,317.396 200.475,317.483 205.700 L 317.640 215.200 316.361 215.200 C 315.487 215.200,314.531 214.748,313.339 213.771 C 312.318 212.935,311.306 212.418,310.897 212.525 C 310.364 212.664,310.407 212.718,311.080 212.754 C 311.564 212.779,312.104 213.025,312.280 213.300 C 313.082 214.553,315.258 215.644,316.715 215.523 L 318.200 215.400 318.308 206.909 C 318.406 199.170,318.343 198.214,317.588 196.109 C 317.132 194.839,316.886 194.340,317.042 195.000 M354.058 197.087 C 353.748 197.854,353.575 205.130,353.504 220.486 C 353.447 232.744,353.522 242.464,353.672 242.086 C 353.821 241.709,353.956 231.737,353.972 219.926 C 353.990 206.258,354.149 198.059,354.411 197.371 C 354.960 195.928,354.632 195.666,354.058 197.087 M284.464 210.473 C 282.025 211.018,282.622 211.289,285.190 210.802 C 290.760 209.746,306.924 210.472,309.200 211.880 C 310.144 212.465,310.164 212.461,309.543 211.807 C 307.979 210.159,290.123 209.209,284.464 210.473 M82.462 212.089 C 81.966 213.985,81.627 227.399,82.094 226.663 C 82.256 226.408,82.392 223.410,82.396 220.000 C 82.401 216.590,82.597 213.108,82.831 212.262 C 83.066 211.417,83.180 210.647,83.084 210.551 C 82.989 210.455,82.709 211.147,82.462 212.089 M279.040 211.642 C 277.742 211.831,276.572 212.102,276.440 212.243 C 276.122 212.583,280.695 212.021,281.765 211.588 C 282.781 211.178,282.135 211.190,279.040 211.642 M80.864 229.144 C 80.554 230.179,80.400 234.932,80.400 243.470 C 80.400 258.244,80.450 258.010,77.483 257.263 C 74.794 256.585,60.755 256.662,58.103 257.368 C 56.949 257.675,54.276 258.773,52.161 259.809 C 50.046 260.844,47.840 261.836,47.258 262.011 C 46.579 262.217,46.458 262.344,46.920 262.366 C 47.317 262.385,49.747 261.365,52.320 260.100 L 57.000 257.800 68.200 257.718 C 74.360 257.673,79.715 257.628,80.100 257.618 C 80.752 257.601,80.800 256.692,80.802 244.300 C 80.804 236.108,80.968 230.409,81.231 229.462 C 81.795 227.434,81.463 227.146,80.864 229.144 M246.659 237.058 C 245.857 238.088,245.200 239.098,245.200 239.303 C 245.200 239.507,244.840 240.131,244.400 240.691 C 243.960 241.250,243.603 241.999,243.606 242.354 C 243.612 243.065,244.317 242.000,245.426 239.600 C 245.781 238.830,246.629 237.618,247.309 236.906 C 247.989 236.194,248.449 235.516,248.332 235.399 C 248.215 235.281,247.462 236.028,246.659 237.058 M243.052 244.100 C 242.532 246.040,242.795 261.348,243.383 263.400 C 244.506 267.314,245.558 269.976,246.473 271.212 C 247.244 272.254,247.443 273.151,247.653 276.533 C 247.793 278.770,248.184 281.500,248.524 282.600 C 248.863 283.700,249.325 285.230,249.549 286.000 C 249.923 287.280,249.938 287.229,249.729 285.400 C 249.602 284.300,249.363 283.220,249.196 283.000 C 248.624 282.244,248.000 278.357,247.989 275.480 C 247.979 272.918,247.847 272.428,246.795 271.037 C 246.145 270.178,245.493 268.828,245.346 268.037 C 245.199 267.247,244.851 266.240,244.571 265.800 C 243.474 264.075,243.107 260.105,243.261 251.631 C 243.344 246.994,243.386 243.200,243.353 243.200 C 243.320 243.200,243.185 243.605,243.052 244.100 M43.572 263.631 C 42.817 264.308,41.244 265.317,40.074 265.872 C 38.905 266.428,38.029 266.962,38.126 267.060 C 38.410 267.344,41.655 265.581,43.400 264.195 C 44.280 263.496,45.270 262.820,45.600 262.694 C 46.117 262.495,46.113 262.459,45.572 262.432 C 45.227 262.414,44.327 262.954,43.572 263.631 M35.065 269.000 C 34.002 269.990,33.318 270.800,33.544 270.800 C 33.770 270.800,34.190 270.483,34.477 270.096 C 34.765 269.709,35.599 268.899,36.331 268.296 C 37.063 267.693,37.512 267.200,37.330 267.200 C 37.147 267.200,36.129 268.010,35.065 269.000 M28.321 275.773 L 23.723 280.345 22.029 285.407 C 21.097 288.191,20.413 290.546,20.508 290.641 C 20.603 290.736,21.455 288.466,22.401 285.597 L 24.122 280.381 28.738 275.790 C 31.276 273.266,33.256 271.200,33.137 271.200 C 33.017 271.200,30.850 273.258,28.321 275.773 M250.136 288.600 C 251.412 293.471,253.696 298.680,255.194 300.133 C 256.110 301.022,257.465 303.053,258.280 304.759 C 259.079 306.432,259.884 307.901,260.068 308.025 C 260.253 308.148,260.853 308.858,261.402 309.602 C 261.951 310.347,262.400 310.811,262.400 310.635 C 262.400 310.459,261.848 309.618,261.172 308.765 C 259.800 307.032,258.002 303.812,257.997 303.079 C 257.995 302.815,257.019 301.540,255.829 300.243 C 253.950 298.198,253.491 297.353,252.353 293.843 C 251.183 290.238,249.558 286.395,250.136 288.600 M19.540 292.161 C 18.345 293.761,17.903 296.121,17.589 302.600 C 17.419 306.120,17.162 309.540,17.019 310.200 C 16.876 310.860,17.122 310.410,17.566 309.200 C 18.224 307.408,18.377 305.997,18.389 301.600 C 18.405 296.044,18.816 293.522,19.904 292.298 C 20.247 291.911,20.455 291.524,20.364 291.437 C 20.274 291.350,19.903 291.675,19.540 292.161 M338.355 309.310 C 337.639 310.207,336.616 310.838,335.102 311.315 C 333.887 311.698,332.399 312.400,331.796 312.875 C 328.476 315.486,322.047 317.600,317.425 317.600 C 314.954 317.600,313.635 317.805,312.344 318.391 C 311.385 318.826,309.824 319.186,308.876 319.191 C 307.532 319.198,306.751 319.506,305.331 320.590 C 304.330 321.355,302.856 322.081,302.055 322.204 C 298.469 322.756,297.308 323.175,299.975 322.955 C 302.288 322.765,304.662 321.969,305.200 321.204 C 305.643 320.575,307.224 320.000,308.512 320.000 C 309.263 320.000,310.490 319.686,311.239 319.303 C 312.135 318.844,314.034 318.518,316.800 318.349 C 321.074 318.086,327.745 316.266,329.231 314.956 C 329.579 314.650,330.060 314.400,330.301 314.400 C 330.542 314.400,331.265 313.957,331.908 313.416 C 332.551 312.875,333.960 312.137,335.039 311.776 C 337.016 311.114,338.555 309.990,339.251 308.700 C 339.818 307.648,339.518 307.852,338.355 309.310 M121.893 312.000 C 122.062 312.990,122.200 317.439,122.200 321.888 C 122.200 326.336,122.322 329.666,122.472 329.288 C 123.028 327.881,122.793 314.295,122.176 312.200 L 121.586 310.200 121.893 312.000 M262.400 311.376 C 262.400 311.863,263.983 313.584,267.008 316.386 C 269.519 318.711,269.437 318.591,266.200 315.198 C 264.220 313.123,262.555 311.344,262.500 311.246 C 262.445 311.147,262.400 311.206,262.400 311.376 M16.560 317.400 C 16.561 320.700,16.622 321.997,16.698 320.282 C 16.773 318.567,16.772 315.867,16.697 314.282 C 16.621 312.697,16.559 314.100,16.560 317.400 M270.446 319.231 C 270.751 319.421,271.810 319.696,272.800 319.843 C 273.790 319.989,275.050 320.294,275.600 320.519 C 276.150 320.745,278.852 321.043,281.604 321.183 C 285.588 321.384,286.980 321.616,288.430 322.318 C 289.433 322.803,290.511 323.182,290.826 323.160 C 291.158 323.137,291.063 323.001,290.600 322.838 C 290.160 322.683,289.080 322.211,288.200 321.788 C 286.993 321.209,285.370 320.966,281.600 320.802 C 278.193 320.653,276.154 320.374,275.200 319.927 C 273.735 319.240,269.456 318.614,270.446 319.231 M16.996 324.800 C 18.037 330.853,18.447 332.847,18.816 333.662 C 19.743 335.706,20.565 337.070,21.792 338.600 C 22.498 339.480,23.180 340.470,23.306 340.800 C 23.490 341.279,23.543 341.259,23.568 340.701 C 23.586 340.317,23.007 339.327,22.282 338.501 C 20.257 336.194,18.805 332.992,18.538 330.239 C 18.408 328.898,17.954 326.810,17.528 325.600 C 16.994 324.081,16.829 323.833,16.996 324.800 M120.879 331.642 C 120.179 332.505,119.486 332.841,117.996 333.038 C 115.410 333.381,114.728 334.206,114.336 337.469 C 114.161 338.924,113.756 340.512,113.438 340.999 C 113.119 341.485,112.753 342.584,112.625 343.442 C 112.413 344.856,112.468 344.796,113.216 342.800 C 114.355 339.760,115.190 336.770,115.195 335.709 C 115.201 334.648,116.453 333.759,118.461 333.392 C 119.753 333.156,122.434 331.067,121.971 330.657 C 121.877 330.574,121.385 331.017,120.879 331.642 M24.217 342.490 C 24.648 343.089,25.312 343.686,25.694 343.815 C 26.075 343.944,27.032 344.837,27.820 345.798 C 28.608 346.760,30.096 348.216,31.126 349.034 C 32.875 350.422,32.840 350.359,30.600 348.094 C 29.280 346.760,27.840 345.285,27.400 344.816 C 25.658 342.963,23.340 341.269,24.217 342.490 M108.800 348.400 C 107.016 350.160,105.316 351.600,105.022 351.600 C 104.343 351.600,100.832 353.179,101.485 353.191 C 103.339 353.225,106.408 351.340,109.328 348.376 C 111.049 346.629,112.363 345.200,112.250 345.200 C 112.136 345.200,110.584 346.640,108.800 348.400 M32.800 351.110 C 32.800 351.281,33.376 352.047,34.081 352.811 C 34.785 353.575,35.796 355.064,36.327 356.121 C 36.858 357.177,37.368 357.965,37.462 357.871 C 37.774 357.560,35.638 353.939,34.210 352.359 C 33.435 351.500,32.800 350.938,32.800 351.110 M98.378 355.838 C 97.620 356.629,95.830 357.826,94.400 358.497 C 92.970 359.168,91.080 360.281,90.200 360.971 C 89.320 361.662,88.142 362.424,87.583 362.667 C 87.024 362.909,85.509 364.073,84.218 365.254 L 81.870 367.400 70.835 367.400 C 64.766 367.400,59.170 367.263,58.400 367.096 C 57.630 366.928,58.170 367.152,59.600 367.594 C 61.870 368.295,63.322 368.397,71.051 368.398 C 80.819 368.400,81.616 368.249,84.034 365.939 C 85.580 364.462,87.872 362.800,88.364 362.800 C 88.544 362.800,89.301 362.253,90.046 361.585 C 90.791 360.916,92.660 359.764,94.200 359.024 C 96.419 357.957,100.850 354.400,99.960 354.400 C 99.848 354.400,99.137 355.047,98.378 355.838 M39.183 360.500 C 40.841 362.266,41.200 362.584,41.200 362.283 C 41.200 362.219,40.345 361.364,39.300 360.383 L 37.400 358.600 39.183 360.500 M43.044 363.442 C 43.900 364.015,44.960 364.800,45.400 365.186 C 46.320 365.994,50.124 367.789,51.600 368.113 C 52.150 368.233,53.590 367.990,54.800 367.572 C 56.010 367.153,56.550 366.905,56.000 367.020 C 51.336 367.995,48.361 367.186,44.069 363.776 C 43.117 363.019,42.147 362.400,41.913 362.400 C 41.679 362.400,42.188 362.869,43.044 363.442 " stroke="none" fill="#eb1e25" fill-rule="evenodd"></path></g></svg>