<svg id="svg" version="1.1" xmlns="http://www.w3.org/2000/svg" xmlns:xlink="http://www.w3.org/1999/xlink" width="400" height="400" viewBox="0, 0, 400,400"><g id="svgg"><path id="path0" d="M352.400 18.168 C 351.810 18.483,349.564 18.776,346.927 18.880 C 344.011 18.996,342.229 19.244,341.808 19.593 C 341.428 19.908,339.414 20.265,336.917 20.460 C 334.082 20.682,332.450 20.992,332.005 21.396 C 331.637 21.728,331.171 22.006,330.969 22.014 C 330.766 22.021,329.880 22.375,329.000 22.800 C 327.564 23.494,326.437 23.576,318.000 23.601 C 310.624 23.622,308.385 23.751,307.600 24.200 C 307.050 24.514,305.520 24.782,304.200 24.794 C 300.755 24.826,296.825 25.460,296.059 26.108 C 294.289 27.603,291.975 27.941,282.400 28.100 C 274.894 28.226,272.701 28.387,271.515 28.902 C 270.699 29.256,269.169 29.669,268.115 29.819 C 267.062 29.969,265.660 30.324,265.000 30.609 C 264.340 30.893,262.212 31.234,260.271 31.367 C 258.331 31.500,256.258 31.860,255.665 32.166 C 254.827 32.600,251.704 32.754,241.594 32.862 C 230.407 32.981,228.433 33.092,227.400 33.664 C 224.993 34.997,221.009 35.929,216.996 36.099 C 214.580 36.202,212.597 36.493,211.996 36.835 C 211.215 37.278,208.143 37.443,197.741 37.600 C 185.847 37.779,184.403 37.872,183.710 38.500 C 183.285 38.885,182.771 39.206,182.569 39.214 C 182.366 39.221,181.480 39.575,180.600 40.000 C 179.330 40.613,178.111 40.776,174.690 40.786 C 171.432 40.797,169.824 40.995,168.104 41.600 C 166.852 42.040,165.279 42.400,164.608 42.400 C 163.937 42.400,162.716 42.760,161.896 43.200 C 161.075 43.640,159.997 44.001,159.501 44.002 C 159.006 44.004,158.106 44.263,157.501 44.578 C 156.897 44.893,155.097 45.273,153.501 45.422 C 151.906 45.571,150.060 45.937,149.400 46.234 C 148.740 46.532,147.194 46.929,145.964 47.117 C 144.435 47.351,143.235 47.846,142.164 48.684 C 141.054 49.554,139.972 49.987,138.437 50.177 C 137.248 50.324,135.808 50.681,135.237 50.971 C 134.667 51.261,133.165 51.624,131.900 51.778 C 130.635 51.932,129.316 52.341,128.970 52.687 C 127.758 53.899,125.427 54.800,123.503 54.800 C 122.442 54.800,120.905 55.111,120.087 55.490 C 118.883 56.049,116.997 56.221,110.183 56.390 C 100.629 56.628,99.565 56.971,98.969 60.000 C 98.556 62.096,97.686 63.636,95.997 65.263 C 95.161 66.067,94.357 67.104,94.210 67.567 C 94.064 68.030,93.461 68.674,92.872 68.998 C 92.282 69.321,91.260 70.037,90.600 70.588 L 89.400 71.590 89.400 103.295 C 89.400 132.847,89.448 135.067,90.100 135.989 C 91.169 137.499,91.097 147.129,90.000 149.400 C 89.313 150.823,89.226 151.935,89.214 159.456 C 89.201 167.009,89.115 168.099,88.409 169.656 C 87.796 171.007,87.616 172.283,87.609 175.320 C 87.603 178.018,87.412 179.604,86.996 180.408 C 86.664 181.050,86.230 182.616,86.032 183.888 C 85.834 185.159,85.393 186.920,85.053 187.800 C 84.559 189.080,84.432 191.342,84.418 199.120 C 84.402 207.495,84.306 209.017,83.717 210.120 C 83.162 211.160,83.007 212.785,82.891 218.800 C 82.777 224.702,82.611 226.483,82.074 227.600 C 81.493 228.806,81.372 230.994,81.200 243.400 L 81.000 257.800 68.541 258.000 C 57.778 258.173,55.982 258.289,55.341 258.853 C 54.934 259.212,54.150 259.641,53.600 259.807 C 53.050 259.972,52.510 260.234,52.400 260.387 C 51.994 260.955,47.617 262.800,46.677 262.800 C 46.142 262.800,44.826 263.485,43.752 264.321 C 42.679 265.158,40.622 266.411,39.182 267.106 C 37.581 267.878,35.775 269.191,34.530 270.484 C 33.412 271.648,31.889 273.151,31.148 273.825 C 30.407 274.500,29.331 275.580,28.757 276.225 C 28.184 276.871,26.885 278.173,25.872 279.118 C 24.535 280.364,23.964 281.241,23.790 282.318 C 23.658 283.133,23.201 284.540,22.775 285.444 C 22.349 286.348,22.000 287.398,22.000 287.778 C 22.000 288.158,21.340 289.758,20.532 291.334 L 19.064 294.200 18.832 301.000 C 18.662 305.999,18.441 308.065,18.000 308.800 C 17.082 310.329,17.126 324.981,18.053 326.400 C 18.426 326.971,18.802 328.647,18.930 330.308 C 19.091 332.388,19.389 333.514,19.977 334.262 C 20.430 334.837,20.802 335.599,20.805 335.954 C 20.808 336.309,21.528 337.373,22.405 338.317 C 23.282 339.262,24.000 340.373,24.000 340.787 C 24.000 341.201,24.556 341.958,25.235 342.470 C 25.914 342.981,26.949 343.903,27.535 344.517 C 28.121 345.132,29.636 346.662,30.902 347.917 C 32.168 349.173,33.203 350.388,33.202 350.619 C 33.201 350.849,33.920 351.741,34.800 352.600 C 35.680 353.459,36.400 354.464,36.400 354.832 C 36.400 355.201,36.652 355.711,36.961 355.967 C 37.269 356.223,37.643 356.920,37.792 357.516 C 38.085 358.693,41.672 362.400,42.517 362.400 C 43.086 362.400,44.523 363.400,45.534 364.500 C 45.888 364.885,46.384 365.200,46.635 365.200 C 46.886 365.200,47.607 365.605,48.237 366.100 C 49.615 367.183,55.368 367.422,56.545 366.446 C 57.097 365.987,57.304 365.988,57.861 366.451 C 58.388 366.889,60.888 367.000,70.187 367.000 L 81.852 367.000 84.394 364.700 C 85.792 363.435,87.221 362.397,87.568 362.394 C 87.916 362.391,88.996 361.671,89.968 360.794 C 90.940 359.917,91.992 359.200,92.305 359.200 C 92.618 359.200,93.331 358.840,93.891 358.400 C 94.450 357.960,95.192 357.600,95.539 357.600 C 95.886 357.600,97.128 356.588,98.297 355.351 C 100.479 353.044,102.341 351.852,104.509 351.376 C 105.551 351.147,107.263 349.676,109.454 347.128 C 109.703 346.837,110.468 346.152,111.154 345.604 C 112.091 344.856,112.400 344.285,112.400 343.303 C 112.400 342.585,112.760 341.325,113.200 340.504 C 113.676 339.616,114.000 338.248,114.000 337.125 C 114.000 334.370,114.632 333.260,116.361 332.980 C 122.526 331.979,122.310 333.468,121.223 299.400 C 120.315 270.942,120.271 257.368,121.085 256.126 C 122.169 254.472,122.182 221.299,121.100 219.320 C 120.027 217.358,120.027 181.104,121.100 179.589 C 121.754 178.665,121.813 175.552,122.000 132.068 C 122.195 86.588,122.218 85.522,122.976 84.968 C 123.582 84.525,125.433 84.399,131.376 84.393 L 139.000 84.387 141.800 82.944 C 143.640 81.996,145.462 81.399,147.113 81.201 C 148.495 81.036,149.935 80.632,150.313 80.304 C 150.691 79.975,151.741 79.594,152.647 79.457 C 153.553 79.320,154.813 78.937,155.447 78.606 C 156.081 78.276,157.061 78.004,157.624 78.002 C 158.186 78.001,158.996 77.736,159.424 77.413 C 159.851 77.090,160.548 76.820,160.974 76.813 C 161.399 76.806,162.479 76.453,163.374 76.029 C 164.658 75.420,166.092 75.231,170.200 75.127 C 174.154 75.026,175.688 74.833,176.600 74.319 C 177.260 73.948,178.835 73.531,180.100 73.393 C 181.365 73.255,182.636 72.907,182.924 72.619 C 183.211 72.332,184.246 71.965,185.223 71.805 C 186.200 71.644,187.270 71.277,187.600 70.989 C 188.032 70.611,190.164 70.428,195.219 70.332 C 200.897 70.225,202.429 70.074,203.240 69.543 C 203.923 69.095,205.380 68.839,207.821 68.738 C 211.246 68.597,211.483 68.526,213.331 67.095 L 215.261 65.600 219.287 65.600 C 222.437 65.600,223.670 65.431,224.956 64.825 C 225.860 64.399,227.257 63.944,228.060 63.815 C 228.863 63.685,229.740 63.314,230.009 62.989 C 230.278 62.665,230.796 62.400,231.160 62.400 C 231.524 62.400,232.195 62.139,232.651 61.820 C 233.328 61.345,236.037 61.217,247.498 61.120 C 259.920 61.014,261.602 60.924,262.259 60.332 C 262.878 59.774,264.153 59.643,270.019 59.532 C 275.700 59.425,277.229 59.275,278.041 58.742 C 278.806 58.240,280.272 58.051,284.240 57.942 C 288.286 57.831,289.667 57.649,290.476 57.119 C 291.399 56.514,293.174 56.424,306.316 56.319 C 320.054 56.209,321.176 56.147,321.933 55.461 C 323.579 53.971,323.600 54.278,323.600 79.580 C 323.600 102.968,323.569 103.980,322.809 105.656 C 322.172 107.059,322.016 108.284,322.009 111.920 C 322.002 115.425,321.845 116.727,321.310 117.720 C 320.743 118.773,320.583 120.490,320.410 127.400 C 320.248 133.865,320.062 136.030,319.600 136.800 C 319.105 137.625,318.961 140.529,318.780 153.400 C 318.587 167.029,318.470 169.225,317.853 170.783 C 316.806 173.427,317.016 195.493,318.100 196.690 C 318.980 197.662,319.179 214.661,318.320 215.520 C 317.529 216.311,314.886 216.110,314.107 215.200 C 313.730 214.760,313.187 214.400,312.899 214.400 C 312.611 214.400,312.276 214.141,312.154 213.824 C 312.033 213.508,311.406 213.133,310.762 212.992 C 310.119 212.850,309.318 212.461,308.984 212.127 C 307.497 210.640,285.328 210.263,282.600 211.678 C 281.940 212.020,279.995 212.429,278.278 212.586 C 275.377 212.852,275.038 212.982,273.478 214.431 C 272.555 215.289,271.654 215.992,271.475 215.995 C 271.028 216.002,266.730 218.052,266.066 218.575 C 265.770 218.809,264.869 219.651,264.064 220.448 C 263.259 221.244,262.225 222.012,261.766 222.154 C 261.307 222.296,260.239 223.028,259.393 223.781 C 258.547 224.534,257.396 225.265,256.836 225.406 C 255.706 225.689,253.600 227.832,253.600 228.698 C 253.600 229.003,252.605 230.263,251.389 231.498 C 250.174 232.734,249.071 234.207,248.939 234.772 C 248.808 235.337,248.112 236.430,247.393 237.200 C 246.675 237.970,245.956 239.050,245.796 239.600 C 245.636 240.150,245.246 240.896,244.928 241.259 C 243.197 243.234,243.130 264.568,244.852 265.632 C 245.090 265.779,245.439 266.725,245.627 267.735 C 245.816 268.744,246.292 269.924,246.685 270.356 C 247.078 270.789,247.598 271.389,247.839 271.690 C 248.081 271.991,248.373 274.223,248.488 276.650 C 248.615 279.332,248.939 281.599,249.312 282.431 C 249.651 283.184,250.043 284.765,250.183 285.944 C 250.324 287.123,250.687 288.473,250.990 288.944 C 251.293 289.415,251.667 290.520,251.821 291.400 C 251.975 292.280,252.329 293.270,252.607 293.600 C 252.885 293.930,253.232 294.920,253.377 295.800 C 253.573 296.980,254.221 298.030,255.849 299.800 C 257.063 301.120,258.156 302.695,258.278 303.300 C 258.400 303.905,258.644 304.400,258.819 304.400 C 258.994 304.400,259.345 305.028,259.599 305.796 C 259.852 306.564,260.676 307.828,261.430 308.604 C 262.183 309.380,262.800 310.329,262.800 310.713 C 262.800 312.578,269.854 318.523,272.294 318.714 C 273.613 318.817,274.914 319.171,275.333 319.539 C 275.894 320.033,277.297 320.235,281.333 320.407 C 286.003 320.605,286.864 320.756,288.934 321.743 C 292.791 323.580,302.340 322.724,305.347 320.271 C 306.716 319.154,307.435 318.883,309.530 318.696 C 310.921 318.572,312.361 318.203,312.730 317.875 C 313.218 317.442,314.655 317.242,318.018 317.140 C 321.567 317.032,322.883 316.838,323.704 316.300 C 324.291 315.915,325.183 315.597,325.686 315.594 C 326.189 315.591,327.050 315.329,327.600 315.011 C 328.150 314.694,329.031 314.241,329.558 314.005 C 330.084 313.769,331.203 313.031,332.044 312.365 C 332.885 311.699,334.254 311.048,335.087 310.917 C 336.774 310.654,343.599 304.414,343.600 303.134 C 343.600 302.768,344.275 301.784,345.100 300.946 C 347.894 298.110,348.400 297.203,348.402 295.022 C 348.404 293.281,348.593 292.794,349.763 291.520 C 350.662 290.541,351.219 289.457,351.405 288.320 C 351.560 287.374,351.982 286.266,352.344 285.858 C 353.374 284.693,353.334 256.675,352.300 255.096 C 351.264 253.515,351.439 252.498,353.000 251.026 C 354.603 249.514,354.964 246.886,353.752 245.547 C 352.744 244.433,352.904 198.423,353.922 196.870 C 354.498 195.992,354.621 194.454,354.739 186.645 C 354.856 178.931,354.984 177.291,355.539 176.445 C 356.072 175.633,356.226 174.127,356.335 168.652 C 356.444 163.159,356.596 161.672,357.135 160.851 C 357.737 159.931,357.810 157.049,357.910 130.271 C 358.004 104.987,358.105 100.585,358.610 99.864 C 358.935 99.401,359.200 98.785,359.200 98.495 C 359.200 98.205,359.559 97.480,359.999 96.884 C 360.604 96.062,360.861 94.880,361.058 92.000 C 361.203 89.886,361.558 87.850,361.859 87.411 C 362.827 85.999,362.640 25.841,361.662 23.994 C 361.255 23.227,360.817 21.926,360.687 21.103 C 360.207 18.057,355.632 16.437,352.400 18.168 " stroke="none" fill="#040404" fill-rule="evenodd"></path></g></svg>