<svg id="svg" version="1.1" xmlns="http://www.w3.org/2000/svg" xmlns:xlink="http://www.w3.org/1999/xlink" width="400" height="400" viewBox="0, 0, 400,400"><g id="svgg"><path id="path0" d="M88.200 25.629 C 83.807 26.037,80.035 28.914,79.206 32.490 C 77.642 39.238,77.318 43.204,77.602 52.127 C 77.651 53.690,77.483 54.674,77.088 55.127 C 75.498 56.950,75.400 58.300,75.400 78.400 C 75.400 99.297,75.547 101.111,77.390 102.953 L 78.400 103.964 78.420 136.882 C 78.431 154.987,78.424 211.951,78.403 263.469 C 78.362 366.469,78.296 363.705,80.823 365.012 C 81.489 365.357,82.220 366.044,82.446 366.540 C 83.054 367.876,85.534 368.415,90.920 368.379 C 94.862 368.353,95.916 368.480,97.320 369.150 C 100.948 370.883,111.102 367.060,112.219 363.541 C 112.350 363.129,112.965 362.529,113.585 362.208 C 115.660 361.135,115.587 366.473,115.589 215.149 C 115.590 90.452,115.662 73.358,116.195 70.823 C 116.910 67.426,117.050 51.840,116.386 49.597 C 116.159 48.829,115.790 46.130,115.568 43.600 C 115.063 37.867,114.596 36.069,113.358 35.095 C 112.751 34.618,112.140 33.453,111.737 32.004 C 111.261 30.289,110.837 29.563,110.127 29.239 C 109.597 28.998,108.862 28.277,108.495 27.636 C 107.450 25.815,97.168 24.798,88.200 25.629 M260.200 28.830 C 256.766 29.145,255.445 29.654,254.562 31.003 C 254.187 31.574,253.383 32.299,252.774 32.613 C 250.450 33.815,249.161 42.986,249.605 55.169 C 249.673 57.033,249.540 57.857,249.120 58.169 C 246.335 60.240,246.365 103.899,249.152 105.852 C 250.453 106.763,250.431 104.625,250.538 237.400 C 250.646 370.209,250.597 366.868,252.439 367.820 C 253.067 368.145,253.826 368.880,254.127 369.455 C 254.962 371.048,257.111 371.591,262.476 371.565 C 266.271 371.546,267.483 371.688,268.907 372.318 C 270.825 373.166,272.416 373.064,276.200 371.850 C 277.300 371.497,278.584 371.207,279.053 371.204 C 279.553 371.202,280.345 370.623,280.973 369.800 C 281.560 369.030,282.302 368.400,282.620 368.400 C 282.939 368.400,283.200 368.213,283.200 367.985 C 283.200 367.757,284.055 366.739,285.100 365.724 L 287.000 363.877 287.081 232.639 C 287.172 86.097,287.235 76.648,288.159 72.800 C 289.130 68.758,289.041 56.452,288.009 51.780 C 287.573 49.811,287.213 47.065,287.209 45.677 C 287.197 42.136,286.494 39.593,285.187 38.361 C 284.452 37.669,283.917 36.571,283.580 35.069 C 283.236 33.528,282.845 32.741,282.347 32.583 C 281.947 32.456,281.119 31.762,280.509 31.041 C 278.762 28.976,269.548 27.973,260.200 28.830 " stroke="none" fill="#050505" fill-rule="evenodd"></path><path id="path1" d="M88.800 24.208 L 86.600 24.761 88.800 24.495 C 91.385 24.181,91.999 24.182,97.800 24.507 C 101.190 24.697,101.512 24.678,99.200 24.426 C 92.473 23.692,90.975 23.660,88.800 24.208 M106.470 25.296 C 107.278 25.573,108.943 26.725,110.170 27.855 C 111.396 28.986,112.400 29.791,112.400 29.644 C 112.400 28.907,107.518 25.170,106.320 24.990 L 105.000 24.791 106.470 25.296 M80.918 27.483 C 79.568 28.813,79.140 29.388,79.893 28.861 C 80.604 28.363,81.457 27.568,81.789 27.094 C 82.121 26.620,82.800 26.006,83.297 25.730 C 83.793 25.454,83.983 25.222,83.718 25.214 C 83.453 25.206,82.193 26.227,80.918 27.483 M263.000 26.661 C 262.560 26.761,260.885 27.124,259.278 27.467 C 257.671 27.810,256.430 28.163,256.519 28.252 C 256.608 28.341,258.013 28.132,259.640 27.788 C 261.760 27.339,263.906 27.216,267.200 27.355 C 271.058 27.517,271.316 27.495,268.800 27.219 C 267.150 27.038,265.350 26.797,264.800 26.683 C 264.250 26.570,263.440 26.560,263.000 26.661 M273.100 27.889 C 273.815 27.978,274.985 27.978,275.700 27.889 C 276.415 27.801,275.830 27.728,274.400 27.728 C 272.970 27.728,272.385 27.801,273.100 27.889 M279.278 28.728 C 280.742 29.314,283.864 32.769,284.327 34.313 C 284.743 35.704,287.200 39.380,287.200 38.613 C 287.200 38.449,286.755 37.786,286.211 37.140 C 285.667 36.493,285.000 35.224,284.729 34.320 C 284.197 32.547,280.289 28.383,279.200 28.430 C 278.733 28.450,278.751 28.517,279.278 28.728 M252.261 31.170 C 251.017 32.474,250.007 33.869,250.016 34.270 C 250.026 34.733,250.233 34.536,250.584 33.730 C 250.887 33.032,251.564 32.180,252.088 31.837 C 252.940 31.278,255.050 28.800,254.673 28.800 C 254.590 28.800,253.504 29.867,252.261 31.170 M77.220 34.498 C 76.402 37.308,75.863 40.127,75.784 42.000 L 75.659 45.000 75.975 42.200 C 76.149 40.660,76.861 37.351,77.558 34.846 C 78.255 32.342,78.759 30.226,78.677 30.144 C 78.596 30.062,77.940 32.022,77.220 34.498 M112.616 31.348 C 112.739 31.979,113.350 33.149,113.974 33.948 C 114.599 34.747,115.311 35.940,115.557 36.600 L 116.005 37.800 115.771 36.600 C 115.643 35.940,115.057 34.778,114.469 34.017 C 113.881 33.256,113.173 32.086,112.896 31.417 L 112.393 30.200 112.616 31.348 M248.685 39.710 C 247.989 42.263,247.597 44.627,247.643 46.000 L 247.717 48.200 248.004 45.400 C 248.161 43.860,248.688 41.198,249.174 39.485 C 249.659 37.772,249.999 36.202,249.928 35.995 C 249.858 35.789,249.298 37.461,248.685 39.710 M116.068 38.400 C 116.088 39.439,116.718 41.146,116.732 40.200 C 116.738 39.760,116.589 39.040,116.400 38.600 C 116.189 38.110,116.061 38.032,116.068 38.400 M287.229 39.305 C 287.213 39.473,287.560 40.909,288.000 42.497 C 288.440 44.085,288.800 46.019,288.800 46.795 C 288.800 47.570,289.009 48.834,289.264 49.603 C 289.543 50.441,289.832 55.484,289.987 62.200 L 290.245 73.400 290.322 63.722 C 290.385 55.872,290.251 53.038,289.614 48.722 C 288.980 44.430,287.354 38.007,287.229 39.305 M116.870 43.200 C 116.860 44.190,117.106 46.080,117.418 47.400 L 117.984 49.800 117.748 47.200 C 117.618 45.770,117.371 43.880,117.199 43.000 L 116.888 41.400 116.870 43.200 M75.560 51.000 C 75.428 53.640,75.199 56.250,75.052 56.800 C 74.904 57.350,75.063 57.081,75.404 56.203 C 75.858 55.038,75.995 53.472,75.913 50.403 L 75.800 46.200 75.560 51.000 M247.685 53.667 C 247.638 56.014,247.496 58.264,247.370 58.667 C 247.158 59.342,247.175 59.346,247.583 58.711 C 247.861 58.280,247.979 56.407,247.899 53.711 L 247.770 49.400 247.685 53.667 M118.174 60.000 C 118.174 65.610,118.230 67.905,118.299 65.100 C 118.368 62.295,118.368 57.705,118.299 54.900 C 118.230 52.095,118.174 54.390,118.174 60.000 M74.080 60.219 C 73.325 63.041,73.445 94.751,74.221 97.400 C 74.543 98.500,74.690 98.770,74.547 98.000 C 74.047 95.309,73.924 63.541,74.403 61.061 C 74.948 58.244,74.747 57.722,74.080 60.219 M246.021 62.513 C 244.366 67.710,245.366 105.967,247.112 104.222 C 247.213 104.121,246.959 102.724,246.548 101.119 C 245.572 97.309,245.409 66.922,246.345 63.278 C 247.005 60.710,246.771 60.157,246.021 62.513 M117.259 73.177 C 116.924 75.205,116.826 94.388,116.895 144.277 L 116.989 212.600 117.237 143.000 C 117.374 104.720,117.621 72.725,117.787 71.900 C 117.952 71.075,118.004 70.400,117.902 70.400 C 117.801 70.400,117.511 71.650,117.259 73.177 M289.381 74.900 C 289.131 75.945,288.284 211.521,288.472 220.200 C 288.690 230.222,288.536 360.504,288.305 361.600 L 288.010 363.000 288.607 361.698 C 289.169 360.472,289.226 326.617,288.845 219.600 C 288.770 198.408,289.566 75.829,289.784 74.900 C 289.953 74.185,290.001 73.600,289.891 73.600 C 289.781 73.600,289.551 74.185,289.381 74.900 M75.209 101.920 C 75.204 102.206,75.462 102.947,75.783 103.567 C 76.280 104.529,76.373 110.312,76.417 143.047 C 76.461 175.830,76.557 181.800,77.079 184.156 C 77.689 186.907,77.634 188.922,76.838 193.000 C 75.975 197.424,76.357 356.728,77.236 359.000 C 77.662 360.100,77.910 360.550,77.788 360.000 C 77.666 359.450,77.397 357.920,77.191 356.600 C 76.600 352.817,76.696 196.905,77.291 193.400 C 77.890 189.875,77.902 186.346,77.330 182.000 C 77.033 179.743,76.859 166.191,76.811 141.675 C 76.742 106.327,76.706 104.679,75.978 103.075 C 75.560 102.154,75.214 101.634,75.209 101.920 M247.209 105.120 C 247.204 105.406,247.462 106.147,247.783 106.767 C 248.280 107.729,248.373 113.513,248.418 146.247 C 248.453 171.128,248.617 185.232,248.886 186.400 C 249.115 187.390,249.447 189.370,249.624 190.800 L 249.947 193.400 249.792 190.600 C 249.706 189.060,249.471 186.540,249.268 185.000 C 249.066 183.460,248.865 165.496,248.822 145.081 C 248.747 109.506,248.712 107.892,247.981 106.281 C 247.561 105.356,247.214 104.834,247.209 105.120 M248.960 194.484 C 248.108 196.767,248.330 359.283,249.189 361.825 C 249.630 363.131,249.895 363.750,249.778 363.200 C 249.661 362.650,249.397 361.120,249.191 359.800 C 248.668 356.449,248.691 200.266,249.215 196.640 C 249.633 193.749,249.537 192.938,248.960 194.484 M116.534 216.000 C 116.534 217.650,116.605 218.325,116.691 217.500 C 116.778 216.675,116.778 215.325,116.691 214.500 C 116.605 213.675,116.534 214.350,116.534 216.000 M116.992 259.000 C 116.992 280.780,117.041 289.631,117.100 278.670 C 117.159 267.708,117.159 249.888,117.100 239.070 C 117.041 228.251,116.992 237.220,116.992 259.000 M116.990 328.200 C 116.990 344.480,117.039 351.082,117.100 342.870 C 117.160 334.659,117.160 321.339,117.100 313.270 C 117.039 305.202,116.990 311.920,116.990 328.200 M115.600 361.199 C 115.600 361.801,112.889 364.688,110.279 366.865 C 109.003 367.929,108.103 368.798,108.279 368.796 C 108.871 368.788,112.281 365.820,114.149 363.687 C 115.808 361.792,116.376 360.800,115.800 360.800 C 115.690 360.800,115.600 360.979,115.600 361.199 M287.463 364.081 C 287.249 364.921,281.809 370.719,280.400 371.609 C 279.917 371.914,279.909 371.989,280.358 371.994 C 281.652 372.008,288.582 364.049,287.885 363.351 C 287.781 363.248,287.591 363.576,287.463 364.081 M78.400 364.402 C 78.400 364.879,82.653 368.453,84.407 369.449 C 85.909 370.302,86.568 370.400,90.792 370.400 C 94.225 370.400,95.922 370.575,97.050 371.047 C 99.502 372.071,108.699 370.166,107.430 368.897 C 107.349 368.816,106.368 369.227,105.250 369.812 C 102.624 371.185,99.178 371.536,97.050 370.647 C 95.923 370.176,94.226 370.000,90.802 370.000 C 85.392 370.000,84.277 369.575,80.500 366.072 C 79.345 365.001,78.400 364.249,78.400 364.402 M251.310 368.561 C 251.921 369.121,252.879 370.079,253.439 370.690 L 254.458 371.800 253.586 370.543 C 253.106 369.852,252.148 368.894,251.457 368.414 L 250.200 367.542 251.310 368.561 M256.341 372.605 C 257.913 373.503,258.520 373.600,262.592 373.600 C 265.841 373.600,267.535 373.781,268.650 374.247 C 269.745 374.704,270.901 374.834,272.599 374.689 C 274.992 374.485,275.746 374.236,278.400 372.773 C 280.545 371.591,279.153 371.855,276.797 373.077 C 274.186 374.432,270.679 374.772,268.884 373.843 C 267.943 373.357,266.467 373.200,262.830 373.200 C 258.726 373.200,257.827 373.083,256.710 372.401 C 255.989 371.962,255.220 371.604,255.000 371.606 C 254.780 371.608,255.383 372.057,256.341 372.605 " stroke="none" fill="#7c7c7c" fill-rule="evenodd"></path><path id="path2" d="M0.000 200.000 L 0.000 400.000 200.000 400.000 L 400.000 400.000 400.000 200.000 L 400.000 0.000 200.000 0.000 L 0.000 0.000 0.000 200.000 M100.600 23.008 C 109.876 24.951,109.135 24.691,111.177 26.713 C 112.250 27.775,113.309 29.290,113.599 30.179 C 113.882 31.048,114.542 32.218,115.066 32.779 C 115.589 33.341,116.201 34.520,116.425 35.400 C 116.649 36.280,117.261 37.900,117.785 39.000 C 119.042 41.639,119.808 52.679,119.424 62.600 C 119.235 67.464,118.366 209.733,118.481 217.000 C 118.488 217.440,118.564 249.362,118.650 287.938 L 118.807 358.077 117.803 359.269 C 117.251 359.925,116.800 360.883,116.800 361.398 C 116.800 363.123,111.349 368.684,108.811 369.548 C 108.048 369.808,106.915 370.506,106.295 371.101 C 104.974 372.366,100.458 372.979,97.045 372.357 C 95.970 372.160,92.899 372.000,90.220 372.000 C 85.361 372.000,85.347 371.997,84.231 370.832 C 83.616 370.190,82.685 369.558,82.163 369.427 C 81.642 369.296,80.937 368.651,80.597 367.994 C 80.257 367.337,79.718 366.800,79.399 366.800 C 78.543 366.800,77.660 365.226,77.223 362.922 C 77.011 361.805,76.377 360.212,75.813 359.382 L 74.789 357.872 74.894 274.836 L 75.000 191.800 75.907 190.342 L 76.813 188.884 75.829 185.742 L 74.845 182.600 74.812 143.247 C 74.779 102.503,74.765 102.168,73.006 98.325 L 71.976 96.076 72.088 78.138 C 72.197 60.624,72.220 60.172,73.044 59.000 C 74.388 57.091,74.940 53.942,74.689 49.632 C 74.324 43.386,74.923 35.378,75.852 34.082 C 76.278 33.487,76.949 31.951,77.343 30.669 C 77.910 28.827,78.339 28.173,79.387 27.554 C 80.117 27.124,80.806 26.419,80.919 25.988 C 81.032 25.557,81.366 25.128,81.662 25.034 C 84.144 24.251,87.274 23.167,88.600 22.632 C 90.482 21.871,95.997 22.044,100.600 23.008 M268.400 25.423 C 269.610 25.545,271.770 25.900,273.200 26.210 C 274.630 26.520,276.967 26.993,278.394 27.262 C 281.248 27.798,284.133 30.185,285.236 32.921 C 285.519 33.624,286.167 34.757,286.676 35.438 C 287.184 36.119,287.962 37.726,288.404 39.010 C 288.845 40.294,289.497 41.665,289.852 42.058 C 290.897 43.212,291.688 54.872,291.396 64.800 C 291.222 70.730,290.380 211.874,290.471 220.000 C 290.477 220.550,290.555 252.499,290.644 290.997 L 290.807 360.994 289.980 362.112 C 289.526 362.727,288.913 363.898,288.618 364.715 C 287.782 367.034,282.623 372.322,280.878 372.649 C 280.095 372.796,279.045 373.357,278.546 373.896 C 277.159 375.392,275.320 375.603,266.074 375.327 L 257.548 375.072 256.119 373.936 C 255.333 373.311,254.529 372.800,254.333 372.800 C 253.069 372.800,249.874 368.717,249.344 366.424 C 249.038 365.101,248.338 363.355,247.789 362.545 L 246.789 361.072 246.894 278.036 L 247.000 195.000 247.881 193.509 L 248.763 192.017 247.812 188.839 L 246.860 185.660 246.820 146.803 C 246.777 105.709,246.773 105.604,244.854 101.600 L 243.800 99.400 243.800 81.533 C 243.800 64.069,243.819 63.641,244.632 62.533 C 246.018 60.644,246.400 58.056,246.403 50.523 C 246.406 42.943,246.862 38.788,247.858 37.260 C 248.195 36.744,248.810 35.334,249.225 34.127 C 250.259 31.123,253.484 27.926,256.161 27.252 C 257.213 26.987,258.484 26.501,258.985 26.173 C 260.199 25.377,263.068 24.812,264.800 25.026 C 265.570 25.121,267.190 25.300,268.400 25.423 " stroke="none" fill="#fcfcfc" fill-rule="evenodd"></path><path id="path3" d="M88.127 24.601 C 83.635 25.325,83.556 25.360,81.109 27.715 C 77.700 30.995,75.898 38.036,75.954 47.858 C 75.982 52.665,75.833 55.178,75.456 56.258 C 74.148 60.003,73.925 63.986,74.103 80.400 C 74.282 96.984,74.510 99.725,75.988 103.067 C 76.703 104.682,76.742 106.531,76.811 141.682 C 76.859 166.193,77.033 179.743,77.330 182.000 C 77.904 186.359,77.884 189.794,77.263 193.800 C 76.380 199.496,76.803 357.194,77.708 359.764 C 78.089 360.844,78.400 362.267,78.400 362.926 C 78.400 363.858,78.867 364.558,80.500 366.072 C 84.277 369.575,85.392 370.000,90.802 370.000 C 94.226 370.000,95.923 370.176,97.050 370.647 C 102.310 372.844,113.703 366.457,116.010 360.017 C 116.780 357.867,116.792 355.735,116.792 216.775 C 116.791 92.609,116.864 75.337,117.396 72.558 C 118.234 68.176,118.232 51.362,117.393 47.400 C 117.067 45.860,116.800 43.877,116.800 42.992 C 116.800 40.470,115.283 35.561,114.010 33.964 C 113.380 33.174,112.672 31.824,112.435 30.964 C 111.310 26.871,107.355 24.980,99.200 24.633 C 96.450 24.516,93.570 24.343,92.800 24.247 C 92.030 24.152,89.927 24.311,88.127 24.601 M105.614 26.051 C 107.416 26.394,107.951 26.689,108.495 27.636 C 108.862 28.277,109.597 28.998,110.127 29.239 C 110.837 29.563,111.261 30.289,111.737 32.004 C 112.140 33.453,112.751 34.618,113.358 35.095 C 114.596 36.069,115.063 37.867,115.568 43.600 C 115.790 46.130,116.159 48.829,116.386 49.597 C 117.050 51.840,116.910 67.426,116.195 70.823 C 115.662 73.358,115.590 90.452,115.589 215.149 C 115.587 366.473,115.660 361.135,113.585 362.208 C 112.965 362.529,112.350 363.129,112.219 363.541 C 111.729 365.083,107.941 367.766,105.211 368.504 C 99.791 369.969,99.146 370.022,97.320 369.150 C 95.916 368.480,94.862 368.353,90.920 368.379 C 85.534 368.415,83.054 367.876,82.446 366.540 C 82.220 366.044,81.489 365.357,80.823 365.012 C 78.296 363.705,78.362 366.469,78.403 263.469 C 78.424 211.951,78.431 154.987,78.420 136.882 L 78.400 103.964 77.390 102.953 C 75.547 101.111,75.400 99.297,75.400 78.400 C 75.400 58.300,75.498 56.950,77.088 55.127 C 77.483 54.674,77.651 53.690,77.602 52.127 C 77.318 43.204,77.642 39.238,79.206 32.490 C 79.610 30.745,82.885 26.949,84.616 26.219 C 86.773 25.310,101.120 25.195,105.614 26.051 M258.449 28.024 C 254.416 28.934,250.688 32.116,250.189 35.074 C 250.047 35.913,249.482 38.297,248.933 40.372 C 248.075 43.617,247.921 45.153,247.833 51.372 C 247.743 57.667,247.608 58.987,246.787 61.600 C 244.524 68.808,245.548 101.672,248.196 106.792 C 248.629 107.630,248.765 115.253,248.904 146.614 C 249.038 176.840,249.194 186.033,249.614 188.270 C 250.071 190.708,250.067 191.520,249.584 193.670 C 248.843 196.969,248.500 355.166,249.224 359.800 C 250.483 367.866,250.243 367.152,252.427 369.303 C 255.788 372.611,257.365 373.196,262.920 373.198 C 266.472 373.200,267.948 373.359,268.884 373.843 C 270.623 374.743,274.110 374.428,276.838 373.126 C 278.027 372.558,279.415 371.935,279.921 371.741 C 281.979 370.955,287.191 365.125,287.915 362.800 C 288.503 360.910,288.966 242.680,288.473 220.200 C 288.183 207.004,289.114 75.926,289.507 74.600 C 290.234 72.147,290.148 54.166,289.393 50.600 C 289.067 49.060,288.800 47.259,288.800 46.597 C 288.800 44.442,286.927 38.466,285.850 37.186 C 285.284 36.514,284.604 35.238,284.338 34.351 C 283.036 30.007,280.053 28.467,271.600 27.776 C 263.241 27.093,262.510 27.107,258.449 28.024 M277.600 29.284 C 278.800 29.581,279.770 30.167,280.509 31.041 C 281.119 31.762,281.947 32.456,282.347 32.583 C 282.845 32.741,283.236 33.528,283.580 35.069 C 283.917 36.571,284.452 37.669,285.187 38.361 C 286.494 39.593,287.197 42.136,287.209 45.677 C 287.213 47.065,287.573 49.811,288.009 51.780 C 289.041 56.452,289.130 68.758,288.159 72.800 C 287.235 76.648,287.172 86.097,287.081 232.639 L 287.000 363.877 285.100 365.724 C 284.055 366.739,283.200 367.757,283.200 367.985 C 283.200 368.213,282.939 368.400,282.620 368.400 C 282.302 368.400,281.560 369.030,280.973 369.800 C 280.345 370.623,279.553 371.202,279.053 371.204 C 278.584 371.207,277.300 371.497,276.200 371.850 C 272.416 373.064,270.825 373.166,268.907 372.318 C 267.483 371.688,266.271 371.546,262.476 371.565 C 257.111 371.591,254.962 371.048,254.127 369.455 C 253.826 368.880,253.067 368.145,252.439 367.820 C 250.597 366.868,250.646 370.209,250.538 237.400 C 250.431 104.625,250.453 106.763,249.152 105.852 C 247.482 104.682,247.126 99.656,247.295 79.600 C 247.452 60.851,247.583 59.312,249.120 58.169 C 249.540 57.857,249.673 57.033,249.605 55.169 C 249.161 42.986,250.450 33.815,252.774 32.613 C 253.383 32.299,254.187 31.574,254.562 31.003 C 255.445 29.654,256.766 29.145,260.200 28.830 C 264.197 28.463,275.471 28.758,277.600 29.284 " stroke="none" fill="#646464" fill-rule="evenodd"></path><path id="path4" d="M88.600 22.632 C 87.274 23.167,84.144 24.251,81.662 25.034 C 81.366 25.128,81.032 25.557,80.919 25.988 C 80.806 26.419,80.117 27.124,79.387 27.554 C 78.339 28.173,77.910 28.827,77.343 30.669 C 76.949 31.951,76.278 33.487,75.852 34.082 C 74.923 35.378,74.324 43.386,74.689 49.632 C 74.940 53.942,74.388 57.091,73.044 59.000 C 72.220 60.172,72.197 60.624,72.088 78.138 L 71.976 96.076 73.006 98.325 C 74.765 102.168,74.779 102.503,74.812 143.247 L 74.845 182.600 75.829 185.742 L 76.813 188.884 75.907 190.342 L 75.000 191.800 74.894 274.836 L 74.789 357.872 75.813 359.382 C 76.377 360.212,77.011 361.805,77.223 362.922 C 77.660 365.226,78.543 366.800,79.399 366.800 C 79.718 366.800,80.257 367.337,80.597 367.994 C 80.937 368.651,81.642 369.296,82.163 369.427 C 82.685 369.558,83.616 370.190,84.231 370.832 C 85.347 371.997,85.361 372.000,90.220 372.000 C 92.899 372.000,95.970 372.160,97.045 372.357 C 100.458 372.979,104.974 372.366,106.295 371.101 C 106.915 370.506,108.048 369.808,108.811 369.548 C 111.349 368.684,116.800 363.123,116.800 361.398 C 116.800 360.883,117.251 359.925,117.803 359.269 L 118.807 358.077 118.650 287.938 C 118.564 249.362,118.488 217.440,118.481 217.000 C 118.366 209.733,119.235 67.464,119.424 62.600 C 119.808 52.679,119.042 41.639,117.785 39.000 C 117.261 37.900,116.649 36.280,116.425 35.400 C 116.201 34.520,115.589 33.341,115.066 32.779 C 114.542 32.218,113.882 31.048,113.599 30.179 C 113.309 29.290,112.250 27.775,111.177 26.713 C 109.135 24.691,109.876 24.951,100.600 23.008 C 95.997 22.044,90.482 21.871,88.600 22.632 M101.632 24.564 L 107.507 25.071 109.904 27.181 C 111.624 28.695,112.438 29.749,112.787 30.914 C 113.055 31.808,113.779 33.182,114.397 33.969 C 117.734 38.219,119.625 59.932,117.795 72.972 C 117.264 76.753,117.190 94.476,117.188 217.221 C 117.186 354.845,117.174 357.201,116.406 359.686 C 114.280 366.570,102.659 373.390,97.050 371.047 C 95.921 370.575,94.223 370.400,90.769 370.400 C 83.992 370.400,78.925 367.212,78.050 362.400 C 77.830 361.190,77.369 359.412,77.025 358.450 C 76.280 356.363,76.099 196.786,76.838 193.000 C 77.634 188.922,77.689 186.907,77.079 184.156 C 76.557 181.800,76.461 175.830,76.417 143.047 C 76.375 111.830,76.266 104.499,75.829 103.647 C 73.531 99.165,72.518 66.161,74.458 59.021 C 75.166 56.417,75.389 54.153,75.623 47.200 C 76.087 33.405,79.127 25.958,84.699 24.970 C 85.525 24.824,87.280 24.465,88.600 24.172 C 89.952 23.872,92.039 23.731,93.378 23.849 C 94.687 23.964,98.401 24.286,101.632 24.564 M261.648 25.214 C 260.685 25.413,259.486 25.845,258.985 26.173 C 258.484 26.501,257.213 26.987,256.161 27.252 C 253.484 27.926,250.259 31.123,249.225 34.127 C 248.810 35.334,248.195 36.744,247.858 37.260 C 246.862 38.788,246.406 42.943,246.403 50.523 C 246.400 58.056,246.018 60.644,244.632 62.533 C 243.819 63.641,243.800 64.069,243.800 81.533 L 243.800 99.400 244.854 101.600 C 246.773 105.604,246.777 105.709,246.820 146.803 L 246.860 185.660 247.812 188.839 L 248.763 192.017 247.881 193.509 L 247.000 195.000 246.894 278.036 L 246.789 361.072 247.789 362.545 C 248.338 363.355,249.038 365.101,249.344 366.424 C 249.874 368.717,253.069 372.800,254.333 372.800 C 254.529 372.800,255.333 373.311,256.119 373.936 L 257.548 375.072 266.074 375.327 C 275.320 375.603,277.159 375.392,278.546 373.896 C 279.045 373.357,280.095 372.796,280.878 372.649 C 282.623 372.322,287.782 367.034,288.618 364.715 C 288.913 363.898,289.526 362.727,289.980 362.112 L 290.807 360.994 290.644 290.997 C 290.555 252.499,290.477 220.550,290.471 220.000 C 290.380 211.874,291.222 70.730,291.396 64.800 C 291.688 54.872,290.897 43.212,289.852 42.058 C 289.497 41.665,288.845 40.294,288.404 39.010 C 287.962 37.726,287.184 36.119,286.676 35.438 C 286.167 34.757,285.519 33.624,285.236 32.921 C 284.133 30.185,281.248 27.798,278.394 27.262 C 276.967 26.993,274.630 26.520,273.200 26.210 C 271.770 25.900,269.610 25.545,268.400 25.423 C 267.190 25.300,265.570 25.121,264.800 25.026 C 264.030 24.931,262.612 25.015,261.648 25.214 M271.600 27.392 C 280.167 28.177,283.398 29.879,284.725 34.308 C 284.998 35.219,285.640 36.467,286.152 37.082 C 289.447 41.042,291.980 66.190,289.912 74.400 C 289.560 75.796,288.734 188.248,288.845 219.600 C 288.849 220.590,288.931 252.615,289.028 290.766 L 289.204 360.132 288.344 362.677 C 287.289 365.800,281.936 371.697,279.719 372.178 C 279.014 372.330,278.021 372.783,277.512 373.183 C 275.496 374.769,271.095 375.268,268.538 374.200 C 267.551 373.787,265.697 373.600,262.602 373.600 C 256.335 373.600,250.010 369.741,249.995 365.908 C 249.992 365.189,249.632 363.459,249.195 362.064 C 248.298 359.203,247.957 200.715,248.838 196.200 C 249.634 192.122,249.689 190.107,249.079 187.356 C 248.557 185.000,248.461 179.030,248.417 146.247 C 248.375 115.208,248.264 107.694,247.834 106.847 C 247.541 106.271,246.816 103.755,246.223 101.256 L 245.145 96.712 245.299 80.456 L 245.454 64.200 246.521 61.000 C 247.517 58.012,247.589 57.322,247.596 50.600 C 247.604 43.808,247.673 43.165,248.802 39.248 C 249.461 36.965,250.000 34.747,250.000 34.319 C 250.000 33.172,254.232 28.919,255.946 28.343 C 258.536 27.473,263.778 26.438,264.600 26.634 C 265.040 26.739,268.190 27.080,271.600 27.392 " stroke="none" fill="#8c8c8c" fill-rule="evenodd"></path></g></svg>