<svg id="svg" version="1.1" xmlns="http://www.w3.org/2000/svg" xmlns:xlink="http://www.w3.org/1999/xlink" width="400" height="200" viewBox="0, 0, 400,200"><g id="svgg"><path id="path0" d="M296.347 34.490 C 294.043 36.872,293.989 36.949,293.780 38.138 C 293.566 39.352,293.565 39.353,290.803 42.090 L 288.040 44.828 287.802 46.091 L 287.563 47.355 284.802 50.091 L 282.040 52.828 281.802 54.091 L 281.563 55.355 278.802 58.091 L 276.040 60.828 275.801 62.093 C 275.565 63.346,275.539 63.382,273.312 65.580 L 271.061 67.800 250.193 67.800 L 229.325 67.800 228.664 68.250 C 227.724 68.890,227.795 69.067,229.772 70.994 C 231.501 72.679,231.549 72.751,231.767 73.989 C 231.985 75.227,232.032 75.299,233.767 76.989 C 235.501 78.679,235.549 78.751,235.767 79.989 C 235.985 81.227,236.032 81.299,237.767 82.989 C 239.501 84.679,239.549 84.751,239.767 85.989 C 239.985 87.227,240.032 87.299,241.767 88.989 C 243.501 90.679,243.549 90.751,243.767 91.989 C 243.985 93.227,244.033 93.299,245.760 94.982 C 247.484 96.663,247.536 96.740,247.775 98.004 C 247.989 99.131,248.130 99.399,248.860 100.058 L 249.700 100.815 249.692 103.024 L 249.684 105.232 247.863 107.024 C 246.094 108.764,246.036 108.851,245.802 110.090 C 245.569 111.326,245.507 111.419,243.803 113.087 C 242.097 114.756,242.037 114.846,241.803 116.087 C 241.568 117.327,241.508 117.417,239.803 119.087 C 238.097 120.756,238.037 120.846,237.803 122.087 C 237.568 123.327,237.508 123.417,235.803 125.087 C 234.097 126.756,234.037 126.846,233.803 128.087 C 233.568 129.331,233.513 129.413,231.753 131.133 L 229.944 132.900 229.922 134.044 C 229.904 134.984,229.981 135.268,230.355 135.644 L 230.811 136.100 250.955 136.200 L 271.100 136.300 273.319 138.523 C 275.498 140.706,275.542 140.769,275.787 142.017 L 276.037 143.288 278.785 146.006 L 281.533 148.725 281.785 150.006 L 282.037 151.288 284.785 154.006 L 287.533 156.725 287.785 158.006 L 288.037 159.288 290.785 162.006 L 293.533 164.725 293.783 165.995 C 294.030 167.251,294.060 167.292,296.421 169.653 C 299.072 172.305,299.380 172.426,300.177 171.138 C 300.402 170.773,300.810 170.355,301.084 170.209 C 301.693 169.883,302.161 168.942,302.331 167.701 C 302.455 166.797,304.157 164.856,307.459 161.852 C 307.946 161.410,308.400 160.092,308.400 159.123 C 308.400 158.779,308.588 158.512,309.000 158.268 C 309.330 158.073,309.600 157.856,309.600 157.785 C 309.600 157.651,310.579 156.627,311.449 155.852 C 311.944 155.412,312.400 154.102,312.400 153.123 C 312.400 152.779,312.588 152.512,313.000 152.268 C 313.330 152.073,313.600 151.856,313.600 151.785 C 313.600 151.651,314.579 150.627,315.449 149.852 C 315.944 149.412,316.400 148.102,316.400 147.123 C 316.400 146.779,316.588 146.512,317.000 146.268 C 317.330 146.073,317.600 145.850,317.600 145.771 C 317.600 145.641,320.281 142.917,321.457 141.852 C 321.942 141.413,322.400 140.095,322.400 139.138 C 322.400 138.794,322.632 138.499,323.200 138.124 C 323.640 137.833,324.000 137.502,324.000 137.389 C 324.000 137.276,324.178 136.992,324.396 136.759 L 324.791 136.334 344.746 136.257 C 367.443 136.170,365.495 136.279,366.014 135.068 C 366.587 133.730,366.299 133.083,364.199 131.000 C 362.544 129.358,362.477 129.256,362.250 128.024 C 362.021 126.782,361.966 126.699,360.250 125.024 C 358.534 123.348,358.479 123.265,358.250 122.024 C 358.021 120.782,357.966 120.699,356.250 119.024 C 354.534 117.348,354.479 117.265,354.250 116.024 C 354.021 114.782,353.966 114.699,352.250 113.024 C 350.534 111.348,350.479 111.265,350.250 110.024 C 350.021 108.782,349.966 108.700,348.247 107.024 C 346.121 104.950,346.168 105.059,346.330 102.581 C 346.460 100.604,346.463 100.594,347.120 100.188 C 347.483 99.963,347.972 99.469,348.206 99.090 C 348.441 98.710,348.746 98.400,348.885 98.400 C 349.534 98.400,350.367 96.621,350.391 95.184 C 350.397 94.815,350.610 94.528,351.132 94.184 C 351.859 93.704,352.366 92.527,352.391 91.261 C 352.399 90.874,353.545 89.602,355.461 87.852 C 355.925 87.429,356.400 86.099,356.400 85.223 C 356.400 84.877,357.621 83.532,359.461 81.852 C 359.925 81.429,360.400 80.099,360.400 79.223 C 360.400 78.877,361.621 77.532,363.461 75.852 C 363.924 75.430,364.400 74.099,364.400 73.229 C 364.400 72.816,366.236 70.829,367.351 70.035 C 368.112 69.493,368.197 68.840,367.579 68.281 C 367.172 67.913,366.451 67.897,346.029 67.800 L 324.900 67.700 322.692 65.488 C 320.516 63.307,320.481 63.258,320.250 62.011 C 320.022 60.786,319.960 60.694,318.250 59.024 C 316.534 57.348,316.479 57.265,316.250 56.024 C 316.021 54.783,315.964 54.698,314.254 53.024 C 312.556 51.361,312.484 51.254,312.230 50.008 L 311.967 48.717 309.228 46.007 L 306.489 43.296 306.251 42.022 C 306.021 40.785,305.962 40.696,304.254 39.024 C 302.558 37.363,302.483 37.253,302.231 36.014 C 301.962 34.691,299.720 31.950,298.971 32.028 C 298.822 32.044,297.641 33.152,296.347 34.490 M96.343 34.556 C 94.026 36.880,93.990 36.930,93.800 38.101 C 93.607 39.286,93.600 39.295,90.817 42.094 C 88.049 44.878,88.026 44.909,87.811 46.100 C 87.597 47.290,87.573 47.322,84.811 50.100 C 82.049 52.878,82.026 52.909,81.811 54.100 C 81.597 55.290,81.573 55.322,78.811 58.100 C 76.050 60.877,76.025 60.910,75.811 62.099 C 75.612 63.206,73.194 66.175,71.300 67.639 C 71.190 67.724,61.693 67.795,50.195 67.797 C 27.561 67.800,28.765 67.744,28.185 68.828 C 27.992 69.189,28.176 69.438,29.799 71.021 C 31.606 72.782,31.634 72.823,31.803 74.025 C 31.973 75.225,32.003 75.270,33.780 77.002 C 35.551 78.728,35.589 78.785,35.786 80.007 C 35.983 81.230,36.021 81.288,37.786 83.007 C 39.550 84.727,39.589 84.785,39.786 86.007 C 39.983 87.230,40.021 87.288,41.786 89.007 C 43.550 90.727,43.589 90.785,43.786 92.007 C 43.983 93.231,44.020 93.286,45.804 95.025 C 47.592 96.768,47.625 96.817,47.821 98.048 C 47.998 99.165,48.118 99.392,48.932 100.155 L 49.845 101.011 49.767 103.106 L 49.690 105.202 47.859 107.051 C 46.111 108.816,46.018 108.954,45.812 110.098 C 45.606 111.239,45.510 111.383,43.812 113.098 C 42.114 114.814,42.018 114.958,41.812 116.098 C 41.606 117.239,41.510 117.383,39.812 119.098 C 38.114 120.814,38.018 120.958,37.812 122.098 C 37.606 123.239,37.510 123.383,35.812 125.098 C 34.114 126.814,34.018 126.958,33.812 128.098 C 33.605 129.245,33.516 129.377,31.759 131.142 L 29.921 132.986 29.911 134.087 C 29.902 134.975,29.988 135.276,30.355 135.644 L 30.811 136.100 50.955 136.200 L 71.100 136.300 73.364 138.569 C 75.606 140.815,75.630 140.849,75.824 142.054 L 76.020 143.270 78.822 146.043 L 81.625 148.816 81.822 150.043 L 82.020 151.270 84.822 154.043 L 87.625 156.816 87.822 158.043 L 88.020 159.270 90.822 162.043 L 93.625 164.816 93.821 166.033 C 94.016 167.243,94.030 167.263,96.392 169.625 C 98.937 172.169,99.161 172.289,99.851 171.464 C 100.098 171.169,100.684 170.562,101.154 170.114 C 101.892 169.411,102.041 169.124,102.247 168.011 L 102.485 166.723 105.250 163.985 L 108.015 161.248 108.251 159.982 C 108.479 158.755,108.540 158.663,110.248 156.996 C 111.961 155.323,112.017 155.239,112.248 153.996 C 112.480 152.752,112.536 152.668,114.248 150.996 C 115.960 149.324,116.017 149.238,116.248 147.999 L 116.485 146.723 119.251 143.985 L 122.017 141.247 122.258 139.941 C 122.455 138.878,122.611 138.550,123.100 138.172 C 123.430 137.916,123.727 137.647,123.760 137.573 C 123.793 137.499,124.035 137.188,124.298 136.883 L 124.775 136.328 144.837 136.252 C 166.485 136.170,165.631 136.218,166.017 135.049 C 166.485 133.629,166.154 132.883,164.219 130.997 C 162.500 129.322,162.451 129.248,162.233 128.011 C 162.015 126.773,161.968 126.701,160.233 125.011 C 158.499 123.321,158.451 123.249,158.233 122.011 C 158.015 120.773,157.968 120.701,156.233 119.011 C 154.499 117.321,154.451 117.249,154.233 116.011 C 154.015 114.773,153.968 114.701,152.233 113.011 C 150.499 111.321,150.451 111.249,150.233 110.011 C 150.015 108.774,149.966 108.700,148.245 107.021 C 146.121 104.950,146.140 104.994,146.313 102.551 C 146.451 100.610,146.455 100.599,147.123 100.186 C 147.493 99.957,147.953 99.503,148.146 99.177 C 148.339 98.850,148.781 98.415,149.129 98.210 C 149.776 97.828,150.400 96.320,150.400 95.139 C 150.400 94.782,150.596 94.524,151.087 94.234 C 151.787 93.821,152.046 93.258,152.332 91.521 C 152.438 90.877,152.769 90.440,154.235 89.008 C 155.962 87.322,156.017 87.240,156.248 85.996 C 156.480 84.752,156.536 84.668,158.248 82.996 C 159.961 81.323,160.017 81.239,160.248 79.996 C 160.480 78.752,160.536 78.668,162.248 76.996 C 163.957 75.327,164.018 75.236,164.246 74.008 C 164.485 72.722,165.246 71.742,167.472 69.851 C 168.142 69.282,168.143 68.741,167.473 68.215 C 166.948 67.801,166.888 67.800,145.985 67.800 L 125.023 67.800 122.737 65.525 C 120.468 63.266,120.450 63.240,120.231 61.996 C 120.016 60.776,119.962 60.696,118.233 59.011 C 116.499 57.321,116.451 57.249,116.233 56.011 C 116.015 54.773,115.967 54.701,114.240 53.018 C 112.525 51.346,112.463 51.253,112.216 50.003 L 111.963 48.712 109.208 45.987 L 106.454 43.262 106.232 42.002 C 106.016 40.775,105.964 40.698,104.240 39.018 C 102.525 37.346,102.462 37.253,102.217 36.003 C 101.945 34.622,99.934 32.200,99.059 32.200 C 98.858 32.200,97.636 33.260,96.343 34.556 M118.738 81.762 L 120.000 83.062 120.000 85.080 L 120.000 87.099 101.550 105.550 L 83.101 124.000 81.081 124.000 L 79.062 124.000 77.731 122.708 L 76.400 121.416 76.400 119.081 L 76.400 116.746 94.562 98.586 C 115.125 78.027,112.636 80.144,115.988 80.364 L 117.476 80.462 118.738 81.762 M318.738 81.762 L 320.000 83.062 320.000 85.080 L 320.000 87.099 301.550 105.550 L 283.101 124.000 281.081 124.000 L 279.062 124.000 277.731 122.708 L 276.400 121.416 276.400 119.079 L 276.400 116.742 294.568 98.584 C 315.128 78.035,312.648 80.145,315.988 80.364 L 317.476 80.462 318.738 81.762 " stroke="none" fill="#24b44c" fill-rule="evenodd"></path><path id="path1" d="M295.133 17.133 C 295.060 17.207,295.000 17.652,295.000 18.122 L 295.000 18.978 294.050 19.039 L 293.100 19.100 293.039 20.039 L 292.979 20.979 292.039 21.039 L 291.100 21.100 291.043 23.039 L 290.986 24.979 290.043 25.039 L 289.100 25.100 289.039 26.039 L 288.979 26.979 288.039 27.039 L 287.100 27.100 287.039 28.039 L 286.979 28.979 286.039 29.039 L 285.100 29.100 285.043 31.039 L 284.986 32.979 284.043 33.039 L 283.100 33.100 283.039 34.039 L 282.979 34.979 282.039 35.039 L 281.100 35.100 281.039 36.039 L 280.979 36.979 280.039 37.039 L 279.100 37.100 279.043 39.039 L 278.986 40.979 278.043 41.039 L 277.100 41.100 277.039 42.039 L 276.979 42.979 276.039 43.039 L 275.100 43.100 275.039 44.039 L 274.979 44.979 274.039 45.039 L 273.100 45.100 273.043 47.039 L 272.986 48.979 272.043 49.039 L 271.100 49.100 271.039 50.039 L 270.979 50.979 270.039 51.039 L 269.100 51.100 269.039 52.039 L 268.979 52.979 268.039 53.039 L 267.100 53.100 267.043 55.049 L 266.986 56.999 241.043 57.049 L 215.100 57.100 215.039 58.039 L 214.979 58.979 214.039 59.039 L 213.100 59.100 213.046 63.050 L 212.992 67.000 213.996 67.000 L 215.000 67.000 215.000 69.000 L 215.000 71.000 216.000 71.000 L 217.000 71.000 217.000 72.000 L 217.000 73.000 218.000 73.000 L 219.000 73.000 219.000 75.000 L 219.000 77.000 220.000 77.000 L 221.000 77.000 221.000 78.000 L 221.000 79.000 222.000 79.000 L 223.000 79.000 223.000 81.000 L 223.000 83.000 224.000 83.000 L 225.000 83.000 225.000 84.000 L 225.000 85.000 226.000 85.000 L 227.000 85.000 227.000 87.000 L 227.000 89.000 228.000 89.000 L 229.000 89.000 229.000 90.000 L 229.000 91.000 230.000 91.000 L 231.000 91.000 231.000 93.000 L 231.000 95.000 232.000 95.000 L 233.000 95.000 233.000 96.000 L 233.000 97.000 234.000 97.000 L 235.000 97.000 235.000 99.000 L 235.000 101.000 236.000 101.000 L 237.000 101.000 237.000 102.989 L 237.000 104.978 236.050 105.039 L 235.100 105.100 235.039 106.039 L 234.979 106.979 234.039 107.039 L 233.100 107.100 233.043 109.039 L 232.986 110.979 232.043 111.039 L 231.100 111.100 231.039 112.039 L 230.979 112.979 230.039 113.039 L 229.100 113.100 229.043 115.039 L 228.986 116.979 228.043 117.039 L 227.100 117.100 227.039 118.039 L 226.979 118.979 226.039 119.039 L 225.100 119.100 225.043 121.039 L 224.986 122.979 224.043 123.039 L 223.100 123.100 223.039 124.039 L 222.979 124.979 222.039 125.039 L 221.100 125.100 221.043 127.039 L 220.986 128.979 220.043 129.039 L 219.100 129.100 219.039 130.039 L 218.979 130.979 218.039 131.039 L 217.100 131.100 217.043 133.039 L 216.986 134.979 216.043 135.039 L 215.100 135.100 215.039 136.039 L 214.979 136.979 214.039 137.039 L 213.100 137.100 213.046 141.050 L 212.992 145.000 213.996 145.000 L 215.000 145.000 215.000 146.000 L 215.000 147.000 241.000 147.000 L 267.000 147.000 267.000 149.000 L 267.000 151.000 268.000 151.000 L 269.000 151.000 269.000 152.000 L 269.000 153.000 270.000 153.000 L 271.000 153.000 271.000 154.000 L 271.000 155.000 272.000 155.000 L 273.000 155.000 273.000 157.000 L 273.000 159.000 274.000 159.000 L 275.000 159.000 275.000 160.000 L 275.000 161.000 276.000 161.000 L 277.000 161.000 277.000 162.000 L 277.000 163.000 278.000 163.000 L 279.000 163.000 279.000 165.000 L 279.000 167.000 280.000 167.000 L 281.000 167.000 281.000 168.000 L 281.000 169.000 282.000 169.000 L 283.000 169.000 283.000 170.000 L 283.000 171.000 284.000 171.000 L 285.000 171.000 285.000 173.000 L 285.000 175.000 286.000 175.000 L 287.000 175.000 287.000 176.000 L 287.000 177.000 288.000 177.000 L 289.000 177.000 289.000 178.000 L 289.000 179.000 290.000 179.000 L 291.000 179.000 291.000 181.000 L 291.000 183.000 292.000 183.000 L 293.000 183.000 293.000 184.000 L 293.000 185.000 294.000 185.000 L 295.000 185.000 295.000 186.000 L 295.000 187.000 298.989 187.000 L 302.978 187.000 303.039 186.050 L 303.100 185.100 304.039 185.039 L 304.979 184.979 305.039 184.039 L 305.100 183.100 306.043 183.039 L 306.986 182.979 307.043 181.039 L 307.100 179.100 308.039 179.039 L 308.979 178.979 309.039 178.039 L 309.100 177.100 310.043 177.039 L 310.986 176.979 311.043 175.039 L 311.100 173.100 312.039 173.039 L 312.979 172.979 313.039 172.039 L 313.100 171.100 314.043 171.039 L 314.986 170.979 315.043 169.039 L 315.100 167.100 316.039 167.039 L 316.979 166.979 317.039 166.039 L 317.100 165.100 318.039 165.039 L 318.979 164.979 319.039 164.039 L 319.100 163.100 320.043 163.039 L 320.986 162.979 321.043 161.039 L 321.100 159.100 322.039 159.039 L 322.979 158.979 323.039 158.039 L 323.100 157.100 324.043 157.039 L 324.986 156.979 325.043 155.039 L 325.100 153.100 326.039 153.039 L 326.979 152.979 327.039 152.039 L 327.100 151.100 328.043 151.039 L 328.986 150.979 329.043 149.039 L 329.100 147.100 355.039 147.049 L 380.978 146.999 381.039 146.049 L 381.100 145.100 382.050 145.039 L 383.000 144.978 383.000 140.989 L 383.000 137.000 382.000 137.000 L 381.000 137.000 381.000 136.000 L 381.000 135.000 380.000 135.000 L 379.000 135.000 379.000 133.000 L 379.000 131.000 378.000 131.000 L 377.000 131.000 377.000 130.000 L 377.000 129.000 376.000 129.000 L 375.000 129.000 375.000 127.000 L 375.000 125.000 374.000 125.000 L 373.000 125.000 373.000 124.000 L 373.000 123.000 372.000 123.000 L 371.000 123.000 371.000 121.000 L 371.000 119.000 370.000 119.000 L 369.000 119.000 369.000 118.000 L 369.000 117.000 368.000 117.000 L 367.000 117.000 367.000 115.000 L 367.000 113.000 366.000 113.000 L 365.000 113.000 365.000 112.000 L 365.000 111.000 364.000 111.000 L 363.000 111.000 363.000 109.000 L 363.000 107.000 362.000 107.000 L 361.000 107.000 361.000 106.000 L 361.000 105.000 359.993 105.000 L 358.986 105.000 359.043 103.050 L 359.100 101.100 360.043 101.039 L 360.986 100.979 361.043 99.039 L 361.100 97.100 362.039 97.039 L 362.979 96.979 363.039 96.039 L 363.100 95.100 364.043 95.039 L 364.986 94.979 365.043 93.039 L 365.100 91.100 366.039 91.039 L 366.979 90.979 367.039 90.039 L 367.100 89.100 368.043 89.039 L 368.986 88.979 369.043 87.039 L 369.100 85.100 370.039 85.039 L 370.979 84.979 371.039 84.039 L 371.100 83.100 372.043 83.039 L 372.986 82.979 373.043 81.039 L 373.100 79.100 374.039 79.039 L 374.979 78.979 375.039 78.039 L 375.100 77.100 376.043 77.039 L 376.986 76.979 377.043 75.039 L 377.100 73.100 378.039 73.039 L 378.979 72.979 379.039 72.039 L 379.100 71.100 380.043 71.039 L 380.986 70.979 381.043 69.039 L 381.100 67.100 382.050 67.039 L 383.000 66.978 383.000 62.989 L 383.000 59.000 382.000 59.000 L 381.000 59.000 381.000 58.000 L 381.000 57.000 355.000 57.000 L 329.000 57.000 329.000 55.000 L 329.000 53.000 328.000 53.000 L 327.000 53.000 327.000 52.000 L 327.000 51.000 326.000 51.000 L 325.000 51.000 325.000 49.000 L 325.000 47.000 324.000 47.000 L 323.000 47.000 323.000 46.000 L 323.000 45.000 322.000 45.000 L 321.000 45.000 321.000 43.000 L 321.000 41.000 320.000 41.000 L 319.000 41.000 319.000 40.000 L 319.000 39.000 318.000 39.000 L 317.000 39.000 317.000 38.000 L 317.000 37.000 316.000 37.000 L 315.000 37.000 315.000 35.000 L 315.000 33.000 314.000 33.000 L 313.000 33.000 313.000 32.000 L 313.000 31.000 312.000 31.000 L 311.000 31.000 311.000 29.000 L 311.000 27.000 310.000 27.000 L 309.000 27.000 309.000 26.000 L 309.000 25.000 308.000 25.000 L 307.000 25.000 307.000 23.000 L 307.000 21.000 306.000 21.000 L 305.000 21.000 305.000 20.000 L 305.000 19.000 304.000 19.000 L 303.000 19.000 303.000 18.000 L 303.000 17.000 299.133 17.000 C 297.007 17.000,295.207 17.060,295.133 17.133 M300.846 33.145 C 302.366 34.657,302.400 34.712,302.400 35.677 C 302.400 36.659,302.408 36.672,304.450 38.742 L 306.500 40.821 306.431 41.728 L 306.361 42.634 309.431 45.726 L 312.500 48.817 312.431 49.721 L 312.362 50.625 314.431 52.723 L 316.500 54.821 316.431 55.723 L 316.362 56.625 318.431 58.723 L 320.500 60.821 320.430 61.731 L 320.361 62.640 322.830 65.118 L 325.300 67.596 346.289 67.598 L 367.278 67.600 367.839 68.137 C 368.670 68.933,368.581 69.130,366.405 71.305 C 364.411 73.299,364.410 73.301,364.405 74.305 C 364.400 75.310,364.399 75.312,362.405 77.305 C 360.411 79.299,360.410 79.301,360.405 80.305 C 360.400 81.310,360.399 81.312,358.405 83.305 C 356.411 85.299,356.410 85.301,356.405 86.305 C 356.400 87.310,356.399 87.312,354.405 89.305 L 352.410 91.300 352.405 92.338 C 352.402 92.909,352.310 93.432,352.200 93.500 C 352.090 93.568,352.000 93.798,352.000 94.012 C 352.000 94.235,351.863 94.400,351.678 94.400 C 350.962 94.400,350.407 95.244,350.403 96.338 C 350.402 96.909,350.310 97.432,350.200 97.500 C 350.090 97.568,350.000 97.798,350.000 98.012 C 350.000 98.247,349.862 98.401,349.650 98.403 C 349.457 98.405,348.648 99.065,347.850 99.870 L 346.400 101.334 346.404 103.017 L 346.409 104.700 348.403 106.700 C 350.393 108.695,350.398 108.703,350.403 109.700 C 350.409 110.697,350.414 110.705,352.403 112.700 C 354.393 114.695,354.398 114.703,354.403 115.700 C 354.409 116.697,354.414 116.705,356.403 118.700 C 358.393 120.695,358.398 120.703,358.403 121.700 C 358.409 122.697,358.414 122.705,360.403 124.700 C 362.393 126.695,362.398 126.703,362.403 127.700 C 362.409 128.697,362.414 128.705,364.403 130.700 L 366.398 132.700 366.399 133.989 C 366.400 135.116,366.332 135.349,365.863 135.839 L 365.325 136.400 345.313 136.403 L 325.300 136.406 323.823 137.897 C 322.355 139.379,322.347 139.393,322.448 140.287 L 322.549 141.187 319.463 144.244 L 316.377 147.300 316.459 148.251 L 316.542 149.202 314.459 151.251 L 312.377 153.300 312.459 154.251 L 312.542 155.202 310.459 157.251 L 308.377 159.300 308.459 160.248 L 308.541 161.196 305.473 164.248 L 302.405 167.300 302.402 168.308 C 302.400 169.297,302.371 169.345,300.858 170.858 C 298.912 172.804,299.165 172.858,296.153 169.853 L 293.600 167.306 293.597 166.303 L 293.594 165.300 290.598 162.300 L 287.602 159.300 287.598 158.300 L 287.594 157.300 284.598 154.300 L 281.602 151.300 281.598 150.300 L 281.594 149.300 278.598 146.300 L 275.602 143.300 275.599 142.300 L 275.596 141.300 273.138 138.850 L 270.679 136.400 250.677 136.400 L 230.675 136.400 230.137 135.839 C 229.582 135.260,229.314 133.000,229.800 133.000 C 229.910 133.000,230.000 132.840,230.000 132.645 C 230.000 132.200,232.558 129.660,233.100 129.566 C 233.442 129.506,233.509 129.315,233.560 128.248 C 233.592 127.562,233.705 127.000,233.810 127.000 C 233.914 127.000,234.000 126.840,234.000 126.645 C 234.000 126.200,236.558 123.660,237.100 123.566 C 237.442 123.506,237.509 123.315,237.560 122.248 C 237.592 121.562,237.705 121.000,237.810 121.000 C 237.914 121.000,238.000 120.840,238.000 120.645 C 238.000 120.200,240.558 117.660,241.100 117.566 C 241.442 117.506,241.509 117.315,241.560 116.248 C 241.592 115.562,241.705 115.000,241.810 115.000 C 241.914 115.000,242.000 114.840,242.000 114.645 C 242.000 114.200,244.558 111.660,245.100 111.566 C 245.442 111.506,245.509 111.315,245.560 110.248 C 245.592 109.562,245.705 109.000,245.810 109.000 C 245.914 109.000,246.000 108.840,246.000 108.645 C 246.000 108.201,248.557 105.660,249.100 105.565 C 249.465 105.501,249.505 105.315,249.557 103.430 L 249.614 101.364 248.608 100.332 C 247.674 99.374,247.601 99.228,247.596 98.300 C 247.591 97.303,247.586 97.295,245.597 95.300 C 243.607 93.305,243.602 93.297,243.597 92.300 C 243.591 91.303,243.586 91.295,241.597 89.300 C 239.607 87.305,239.602 87.297,239.597 86.300 C 239.591 85.303,239.586 85.295,237.597 83.300 C 235.607 81.305,235.602 81.297,235.597 80.300 C 235.591 79.303,235.586 79.295,233.597 77.300 C 231.614 75.312,231.602 75.294,231.601 74.319 C 231.600 73.347,231.582 73.320,229.650 71.361 C 227.677 69.360,227.392 69.000,227.783 69.000 C 227.903 69.000,228.000 68.834,228.000 68.631 C 228.000 67.553,226.916 67.606,250.115 67.551 L 271.500 67.500 271.559 67.086 C 271.633 66.568,274.558 63.660,275.100 63.565 C 275.442 63.506,275.509 63.315,275.560 62.248 C 275.592 61.562,275.705 61.000,275.810 61.000 C 275.914 61.000,276.000 60.841,276.000 60.647 C 276.000 60.202,280.560 55.658,281.100 55.565 C 281.442 55.506,281.509 55.315,281.560 54.248 C 281.592 53.562,281.705 53.000,281.810 53.000 C 281.914 53.000,282.000 52.841,282.000 52.647 C 282.000 52.202,286.560 47.658,287.100 47.565 C 287.442 47.506,287.509 47.315,287.560 46.248 C 287.592 45.562,287.705 45.000,287.810 45.000 C 287.914 45.000,288.000 44.841,288.000 44.647 C 288.000 44.202,292.560 39.658,293.100 39.565 C 293.448 39.505,293.507 39.316,293.558 38.098 L 293.616 36.700 295.955 34.350 C 297.241 33.057,298.453 32.000,298.647 32.000 C 298.841 32.000,299.000 31.910,299.000 31.800 C 299.000 31.396,299.324 31.632,300.846 33.145 M113.612 80.347 C 112.730 80.426,112.621 80.531,94.562 98.586 L 76.400 116.746 76.400 119.081 L 76.400 121.416 77.731 122.708 L 79.062 124.000 81.081 124.000 L 83.101 124.000 101.550 105.550 L 120.000 87.099 120.000 85.080 L 120.000 83.062 118.738 81.762 L 117.476 80.462 115.988 80.364 C 115.170 80.310,114.101 80.302,113.612 80.347 M313.618 80.346 C 312.742 80.426,312.592 80.570,294.568 98.584 L 276.400 116.742 276.400 119.079 L 276.400 121.416 277.731 122.708 L 279.062 124.000 281.081 124.000 L 283.101 124.000 301.550 105.550 L 320.000 87.099 320.000 85.080 L 320.000 83.062 318.738 81.762 L 317.476 80.462 315.988 80.364 C 315.170 80.310,314.103 80.302,313.618 80.346 " stroke="none" fill="#ed1c24" fill-rule="evenodd"></path><path id="path2" d="M95.133 17.133 C 95.060 17.207,95.000 17.652,95.000 18.122 L 95.000 18.978 94.050 19.039 L 93.100 19.100 93.039 20.039 L 92.979 20.979 92.039 21.039 L 91.100 21.100 91.043 23.039 L 90.986 24.979 90.043 25.039 L 89.100 25.100 89.039 26.039 L 88.979 26.979 88.039 27.039 L 87.100 27.100 87.039 28.039 L 86.979 28.979 86.039 29.039 L 85.100 29.100 85.043 31.039 L 84.986 32.979 84.043 33.039 L 83.100 33.100 83.039 34.039 L 82.979 34.979 82.039 35.039 L 81.100 35.100 81.039 36.039 L 80.979 36.979 80.039 37.039 L 79.100 37.100 79.043 39.039 L 78.986 40.979 78.043 41.039 L 77.100 41.100 77.039 42.039 L 76.979 42.979 76.039 43.039 L 75.100 43.100 75.039 44.039 L 74.979 44.979 74.039 45.039 L 73.100 45.100 73.043 47.039 L 72.986 48.979 72.043 49.039 L 71.100 49.100 71.039 50.039 L 70.979 50.979 70.039 51.039 L 69.100 51.100 69.039 52.039 L 68.979 52.979 68.039 53.039 L 67.100 53.100 67.043 55.049 L 66.986 56.999 41.043 57.049 L 15.100 57.100 15.039 58.039 L 14.979 58.979 14.039 59.039 L 13.100 59.100 13.046 63.050 L 12.992 67.000 13.996 67.000 L 15.000 67.000 15.000 69.000 L 15.000 71.000 16.000 71.000 L 17.000 71.000 17.000 72.000 L 17.000 73.000 18.000 73.000 L 19.000 73.000 19.000 75.000 L 19.000 77.000 20.000 77.000 L 21.000 77.000 21.000 78.000 L 21.000 79.000 22.000 79.000 L 23.000 79.000 23.000 81.000 L 23.000 83.000 24.000 83.000 L 25.000 83.000 25.000 84.000 L 25.000 85.000 26.000 85.000 L 27.000 85.000 27.000 87.000 L 27.000 89.000 28.000 89.000 L 29.000 89.000 29.000 90.000 L 29.000 91.000 30.000 91.000 L 31.000 91.000 31.000 93.000 L 31.000 95.000 32.000 95.000 L 33.000 95.000 33.000 96.000 L 33.000 97.000 34.000 97.000 L 35.000 97.000 35.000 99.000 L 35.000 101.000 36.000 101.000 L 37.000 101.000 37.000 102.989 L 37.000 104.978 36.050 105.039 L 35.100 105.100 35.039 106.039 L 34.979 106.979 34.039 107.039 L 33.100 107.100 33.043 109.039 L 32.986 110.979 32.043 111.039 L 31.100 111.100 31.039 112.039 L 30.979 112.979 30.039 113.039 L 29.100 113.100 29.043 115.039 L 28.986 116.979 28.043 117.039 L 27.100 117.100 27.039 118.039 L 26.979 118.979 26.039 119.039 L 25.100 119.100 25.043 121.039 L 24.986 122.979 24.043 123.039 L 23.100 123.100 23.039 124.039 L 22.979 124.979 22.039 125.039 L 21.100 125.100 21.043 127.039 L 20.986 128.979 20.043 129.039 L 19.100 129.100 19.039 130.039 L 18.979 130.979 18.039 131.039 L 17.100 131.100 17.043 133.039 L 16.986 134.979 16.043 135.039 L 15.100 135.100 15.039 136.039 L 14.979 136.979 14.039 137.039 L 13.100 137.100 13.046 141.050 L 12.992 145.000 13.996 145.000 L 15.000 145.000 15.000 146.000 L 15.000 147.000 41.000 147.000 L 67.000 147.000 67.000 149.000 L 67.000 151.000 68.000 151.000 L 69.000 151.000 69.000 152.000 L 69.000 153.000 70.000 153.000 L 71.000 153.000 71.000 154.000 L 71.000 155.000 72.000 155.000 L 73.000 155.000 73.000 157.000 L 73.000 159.000 74.000 159.000 L 75.000 159.000 75.000 160.000 L 75.000 161.000 76.000 161.000 L 77.000 161.000 77.000 162.000 L 77.000 163.000 78.000 163.000 L 79.000 163.000 79.000 165.000 L 79.000 167.000 80.000 167.000 L 81.000 167.000 81.000 168.000 L 81.000 169.000 82.000 169.000 L 83.000 169.000 83.000 170.000 L 83.000 171.000 84.000 171.000 L 85.000 171.000 85.000 173.000 L 85.000 175.000 86.000 175.000 L 87.000 175.000 87.000 176.000 L 87.000 177.000 88.000 177.000 L 89.000 177.000 89.000 178.000 L 89.000 179.000 90.000 179.000 L 91.000 179.000 91.000 181.000 L 91.000 183.000 92.000 183.000 L 93.000 183.000 93.000 184.000 L 93.000 185.000 94.000 185.000 L 95.000 185.000 95.000 186.000 L 95.000 187.000 98.989 187.000 L 102.978 187.000 103.039 186.050 L 103.100 185.100 104.039 185.039 L 104.979 184.979 105.039 184.039 L 105.100 183.100 106.043 183.039 L 106.986 182.979 107.043 181.039 L 107.100 179.100 108.039 179.039 L 108.979 178.979 109.039 178.039 L 109.100 177.100 110.043 177.039 L 110.986 176.979 111.043 175.039 L 111.100 173.100 112.039 173.039 L 112.979 172.979 113.039 172.039 L 113.100 171.100 114.043 171.039 L 114.986 170.979 115.043 169.039 L 115.100 167.100 116.039 167.039 L 116.979 166.979 117.039 166.039 L 117.100 165.100 118.039 165.039 L 118.979 164.979 119.039 164.039 L 119.100 163.100 120.043 163.039 L 120.986 162.979 121.043 161.039 L 121.100 159.100 122.039 159.039 L 122.979 158.979 123.039 158.039 L 123.100 157.100 124.043 157.039 L 124.986 156.979 125.043 155.039 L 125.100 153.100 126.039 153.039 L 126.979 152.979 127.039 152.039 L 127.100 151.100 128.043 151.039 L 128.986 150.979 129.043 149.039 L 129.100 147.100 155.039 147.049 L 180.978 146.999 181.039 146.049 L 181.100 145.100 182.050 145.039 L 183.000 144.978 183.000 140.989 L 183.000 137.000 182.000 137.000 L 181.000 137.000 181.000 136.000 L 181.000 135.000 180.000 135.000 L 179.000 135.000 179.000 133.000 L 179.000 131.000 178.000 131.000 L 177.000 131.000 177.000 130.000 L 177.000 129.000 176.000 129.000 L 175.000 129.000 175.000 127.000 L 175.000 125.000 174.000 125.000 L 173.000 125.000 173.000 124.000 L 173.000 123.000 172.000 123.000 L 171.000 123.000 171.000 121.000 L 171.000 119.000 170.000 119.000 L 169.000 119.000 169.000 118.000 L 169.000 117.000 168.000 117.000 L 167.000 117.000 167.000 115.000 L 167.000 113.000 166.000 113.000 L 165.000 113.000 165.000 112.000 L 165.000 111.000 164.000 111.000 L 163.000 111.000 163.000 109.000 L 163.000 107.000 162.000 107.000 L 161.000 107.000 161.000 106.000 L 161.000 105.000 159.993 105.000 L 158.986 105.000 159.043 103.050 L 159.100 101.100 160.043 101.039 L 160.986 100.979 161.043 99.039 L 161.100 97.100 162.039 97.039 L 162.979 96.979 163.039 96.039 L 163.100 95.100 164.043 95.039 L 164.986 94.979 165.043 93.039 L 165.100 91.100 166.039 91.039 L 166.979 90.979 167.039 90.039 L 167.100 89.100 168.043 89.039 L 168.986 88.979 169.043 87.039 L 169.100 85.100 170.039 85.039 L 170.979 84.979 171.039 84.039 L 171.100 83.100 172.043 83.039 L 172.986 82.979 173.043 81.039 L 173.100 79.100 174.039 79.039 L 174.979 78.979 175.039 78.039 L 175.100 77.100 176.043 77.039 L 176.986 76.979 177.043 75.039 L 177.100 73.100 178.039 73.039 L 178.979 72.979 179.039 72.039 L 179.100 71.100 180.043 71.039 L 180.986 70.979 181.043 69.039 L 181.100 67.100 182.050 67.039 L 183.000 66.978 183.000 62.989 L 183.000 59.000 182.000 59.000 L 181.000 59.000 181.000 58.000 L 181.000 57.000 155.000 57.000 L 129.000 57.000 129.000 55.000 L 129.000 53.000 128.000 53.000 L 127.000 53.000 127.000 52.000 L 127.000 51.000 126.000 51.000 L 125.000 51.000 125.000 49.000 L 125.000 47.000 124.000 47.000 L 123.000 47.000 123.000 46.000 L 123.000 45.000 122.000 45.000 L 121.000 45.000 121.000 43.000 L 121.000 41.000 120.000 41.000 L 119.000 41.000 119.000 40.000 L 119.000 39.000 118.000 39.000 L 117.000 39.000 117.000 38.000 L 117.000 37.000 116.000 37.000 L 115.000 37.000 115.000 35.000 L 115.000 33.000 114.000 33.000 L 113.000 33.000 113.000 32.000 L 113.000 31.000 112.000 31.000 L 111.000 31.000 111.000 29.000 L 111.000 27.000 110.000 27.000 L 109.000 27.000 109.000 26.000 L 109.000 25.000 108.000 25.000 L 107.000 25.000 107.000 23.000 L 107.000 21.000 106.000 21.000 L 105.000 21.000 105.000 20.000 L 105.000 19.000 104.000 19.000 L 103.000 19.000 103.000 18.000 L 103.000 17.000 99.133 17.000 C 97.007 17.000,95.207 17.060,95.133 17.133 M299.000 31.693 C 299.000 31.744,299.653 32.431,300.450 33.218 C 301.505 34.260,301.963 34.875,302.130 35.475 L 302.361 36.300 302.380 35.495 C 302.399 34.748,302.290 34.581,300.846 33.145 C 299.452 31.760,299.000 31.404,299.000 31.693 M295.947 34.353 L 293.600 36.706 293.622 37.703 L 293.644 38.700 293.819 37.806 C 293.972 37.023,294.281 36.624,296.297 34.603 C 297.564 33.333,298.600 32.228,298.600 32.147 C 298.600 31.773,298.133 32.161,295.947 34.353 M100.694 33.457 C 101.863 34.615,101.983 34.815,102.217 36.003 C 102.462 37.253,102.525 37.346,104.240 39.018 C 105.964 40.698,106.016 40.775,106.232 42.002 L 106.454 43.262 109.208 45.987 L 111.963 48.712 112.216 50.003 C 112.463 51.253,112.525 51.346,114.240 53.018 C 115.967 54.701,116.015 54.773,116.233 56.011 C 116.451 57.249,116.499 57.321,118.233 59.011 C 119.962 60.696,120.016 60.776,120.231 61.996 C 120.450 63.240,120.468 63.266,122.737 65.525 L 125.023 67.800 145.985 67.800 C 166.888 67.800,166.948 67.801,167.473 68.215 C 168.143 68.741,168.142 69.282,167.472 69.851 C 165.246 71.742,164.485 72.722,164.246 74.008 C 164.018 75.236,163.957 75.327,162.248 76.996 C 160.536 78.668,160.480 78.752,160.248 79.996 C 160.017 81.239,159.961 81.323,158.248 82.996 C 156.536 84.668,156.480 84.752,156.248 85.996 C 156.017 87.240,155.962 87.322,154.235 89.008 C 152.769 90.440,152.438 90.877,152.332 91.521 C 152.046 93.258,151.787 93.821,151.087 94.234 C 150.596 94.524,150.400 94.782,150.400 95.139 C 150.400 96.320,149.776 97.828,149.129 98.210 C 148.781 98.415,148.339 98.850,148.146 99.177 C 147.953 99.503,147.493 99.957,147.123 100.186 C 146.455 100.599,146.451 100.610,146.313 102.551 C 146.140 104.994,146.121 104.950,148.245 107.021 C 149.966 108.700,150.015 108.774,150.233 110.011 C 150.451 111.249,150.499 111.321,152.233 113.011 C 153.968 114.701,154.015 114.773,154.233 116.011 C 154.451 117.249,154.499 117.321,156.233 119.011 C 157.968 120.701,158.015 120.773,158.233 122.011 C 158.451 123.249,158.499 123.321,160.233 125.011 C 161.968 126.701,162.015 126.773,162.233 128.011 C 162.451 129.248,162.500 129.322,164.219 130.997 C 166.154 132.883,166.485 133.629,166.017 135.049 C 165.631 136.218,166.485 136.170,144.837 136.252 L 124.775 136.328 124.298 136.883 C 124.035 137.188,123.793 137.499,123.760 137.573 C 123.727 137.647,123.430 137.916,123.100 138.172 C 122.611 138.550,122.455 138.878,122.258 139.941 L 122.017 141.247 119.251 143.985 L 116.485 146.723 116.248 147.999 C 116.017 149.238,115.960 149.324,114.248 150.996 C 112.536 152.668,112.480 152.752,112.248 153.996 C 112.017 155.239,111.961 155.323,110.248 156.996 C 108.540 158.663,108.479 158.755,108.251 159.982 L 108.015 161.248 105.250 163.985 L 102.485 166.723 102.247 168.011 C 102.041 169.124,101.892 169.411,101.154 170.114 C 100.684 170.562,100.098 171.169,99.851 171.464 C 99.161 172.289,98.937 172.169,96.392 169.625 C 94.030 167.263,94.016 167.243,93.821 166.033 L 93.625 164.816 90.822 162.043 L 88.020 159.270 87.822 158.043 L 87.625 156.816 84.822 154.043 L 82.020 151.270 81.822 150.043 L 81.625 148.816 78.822 146.043 L 76.020 143.270 75.824 142.054 C 75.630 140.849,75.606 140.815,73.364 138.569 L 71.100 136.300 50.955 136.200 L 30.811 136.100 30.355 135.644 C 29.988 135.276,29.902 134.975,29.911 134.087 L 29.921 132.986 31.759 131.142 C 33.516 129.377,33.605 129.245,33.812 128.098 C 34.018 126.958,34.114 126.814,35.812 125.098 C 37.510 123.383,37.606 123.239,37.812 122.098 C 38.018 120.958,38.114 120.814,39.812 119.098 C 41.510 117.383,41.606 117.239,41.812 116.098 C 42.018 114.958,42.114 114.814,43.812 113.098 C 45.510 111.383,45.606 111.239,45.812 110.098 C 46.018 108.954,46.111 108.816,47.859 107.051 L 49.690 105.202 49.767 103.106 L 49.845 101.011 48.932 100.155 C 48.118 99.392,47.998 99.165,47.821 98.048 C 47.625 96.817,47.592 96.768,45.804 95.025 C 44.020 93.286,43.983 93.231,43.786 92.007 C 43.589 90.785,43.550 90.727,41.786 89.007 C 40.021 87.288,39.983 87.230,39.786 86.007 C 39.589 84.785,39.550 84.727,37.786 83.007 C 36.021 81.288,35.983 81.230,35.786 80.007 C 35.589 78.785,35.551 78.728,33.780 77.002 C 32.003 75.270,31.973 75.225,31.803 74.025 C 31.634 72.823,31.606 72.782,29.799 71.021 C 28.176 69.438,27.992 69.189,28.185 68.828 C 28.765 67.744,27.561 67.800,50.195 67.797 C 61.693 67.795,71.190 67.724,71.300 67.639 C 73.194 66.175,75.612 63.206,75.811 62.099 C 76.025 60.910,76.050 60.877,78.811 58.100 C 81.573 55.322,81.597 55.290,81.811 54.100 C 82.026 52.909,82.049 52.878,84.811 50.100 C 87.573 47.322,87.597 47.290,87.811 46.100 C 88.026 44.909,88.049 44.878,90.817 42.094 C 93.600 39.295,93.607 39.286,93.800 38.101 C 93.990 36.930,94.026 36.880,96.343 34.556 C 99.083 31.810,99.041 31.821,100.694 33.457 M302.400 37.018 C 302.400 37.132,303.214 38.017,304.208 38.987 C 305.700 40.441,306.040 40.885,306.146 41.525 L 306.276 42.300 306.425 41.600 C 306.568 40.923,306.514 40.838,304.737 38.981 C 302.888 37.049,302.400 36.639,302.400 37.018 M290.307 41.993 C 288.994 43.309,287.986 44.453,288.068 44.534 C 288.149 44.616,289.359 43.539,290.757 42.141 C 292.155 40.744,293.162 39.600,292.996 39.600 C 292.830 39.600,291.620 40.677,290.307 41.993 M306.400 43.011 C 306.400 43.120,307.652 44.448,309.183 45.962 C 311.543 48.298,311.989 48.836,312.120 49.508 L 312.273 50.300 312.424 49.600 C 312.573 48.909,312.539 48.862,309.738 45.983 C 306.930 43.098,306.400 42.625,306.400 43.011 M287.600 45.833 C 287.600 46.816,287.695 46.788,287.883 45.750 C 287.968 45.275,287.941 45.000,287.809 45.000 C 287.694 45.000,287.600 45.375,287.600 45.833 M284.307 49.993 C 282.994 51.309,281.986 52.453,282.068 52.534 C 282.149 52.616,283.359 51.539,284.757 50.141 C 286.155 48.744,287.162 47.600,286.996 47.600 C 286.830 47.600,285.620 48.677,284.307 49.993 M312.400 51.018 C 312.400 51.132,313.214 52.017,314.208 52.987 C 315.700 54.441,316.040 54.885,316.146 55.525 L 316.276 56.300 316.425 55.600 C 316.568 54.923,316.514 54.838,314.737 52.981 C 312.888 51.049,312.400 50.639,312.400 51.018 M281.600 53.833 C 281.600 54.816,281.695 54.788,281.883 53.750 C 281.968 53.275,281.941 53.000,281.809 53.000 C 281.694 53.000,281.600 53.375,281.600 53.833 M278.307 57.993 C 276.994 59.309,275.986 60.453,276.068 60.534 C 276.149 60.616,277.359 59.539,278.757 58.141 C 280.155 56.744,281.162 55.600,280.996 55.600 C 280.830 55.600,279.620 56.677,278.307 57.993 M316.400 57.018 C 316.400 57.132,317.214 58.017,318.208 58.987 C 319.700 60.441,320.040 60.885,320.146 61.525 L 320.276 62.300 320.425 61.600 C 320.568 60.923,320.514 60.838,318.737 58.981 C 316.888 57.049,316.400 56.639,316.400 57.018 M275.600 61.833 C 275.600 62.816,275.695 62.788,275.883 61.750 C 275.968 61.275,275.941 61.000,275.809 61.000 C 275.694 61.000,275.600 61.375,275.600 61.833 M320.400 62.996 C 320.400 63.103,321.413 64.206,322.650 65.446 L 324.900 67.700 346.029 67.800 C 366.451 67.897,367.172 67.913,367.579 68.281 C 368.197 68.840,368.112 69.493,367.351 70.035 C 366.417 70.700,364.372 72.817,364.447 73.041 C 364.536 73.308,368.400 69.370,368.400 69.013 C 368.400 68.853,368.158 68.469,367.863 68.161 L 367.325 67.600 346.313 67.598 L 325.300 67.597 322.912 65.198 C 320.422 62.698,320.400 62.678,320.400 62.996 M273.121 65.178 C 272.258 66.047,271.586 66.858,271.627 66.982 C 271.668 67.105,272.510 66.395,273.497 65.403 C 274.484 64.411,275.156 63.600,274.991 63.600 C 274.826 63.600,273.984 64.310,273.121 65.178 M228.299 68.001 C 227.816 68.535,228.082 68.768,228.620 68.282 C 229.028 67.912,229.728 67.897,250.071 67.798 L 271.100 67.696 249.881 67.648 C 228.863 67.600,228.659 67.604,228.299 68.001 M227.633 69.190 C 227.773 69.589,231.492 73.223,231.558 73.026 C 231.620 72.841,227.903 69.000,227.663 69.000 C 227.610 69.000,227.597 69.086,227.633 69.190 M231.624 74.400 C 231.604 75.297,235.340 79.679,235.561 79.017 C 235.600 78.901,234.812 78.007,233.810 77.031 C 232.254 75.515,231.964 75.128,231.816 74.378 L 231.644 73.500 231.624 74.400 M364.116 74.685 C 364.045 75.062,363.759 75.579,363.479 75.835 C 361.856 77.319,360.389 78.868,360.446 79.037 C 360.608 79.523,364.400 75.318,364.400 74.652 C 364.400 73.807,364.278 73.821,364.116 74.685 M235.624 80.400 C 235.604 81.297,239.340 85.679,239.561 85.017 C 239.600 84.901,238.812 84.007,237.810 83.031 C 236.254 81.515,235.964 81.128,235.816 80.378 L 235.644 79.500 235.624 80.400 M360.116 80.685 C 360.045 81.062,359.759 81.579,359.479 81.835 C 357.856 83.319,356.389 84.868,356.446 85.037 C 356.608 85.523,360.400 81.318,360.400 80.652 C 360.400 79.807,360.278 79.821,360.116 80.685 M239.624 86.400 C 239.604 87.297,243.340 91.679,243.561 91.017 C 243.600 90.901,242.812 90.007,241.810 89.031 C 240.254 87.515,239.964 87.128,239.816 86.378 L 239.644 85.500 239.624 86.400 M356.116 86.685 C 356.045 87.062,355.759 87.579,355.479 87.835 C 353.856 89.319,352.389 90.868,352.446 91.037 C 352.608 91.523,356.400 87.318,356.400 86.652 C 356.400 85.807,356.278 85.821,356.116 86.685 M243.624 92.400 C 243.604 93.297,247.340 97.679,247.561 97.017 C 247.600 96.901,246.812 96.007,245.810 95.031 C 244.254 93.515,243.964 93.128,243.816 92.378 L 243.644 91.500 243.624 92.400 M352.111 92.756 C 351.957 93.561,351.652 93.938,350.691 94.509 C 350.498 94.624,350.382 94.847,350.434 95.003 C 350.507 95.222,350.616 95.185,350.909 94.844 C 351.118 94.600,351.449 94.400,351.644 94.400 C 351.853 94.400,352.000 94.252,352.000 94.040 C 352.000 93.842,352.097 93.583,352.215 93.465 C 352.333 93.347,352.394 92.947,352.352 92.575 L 352.275 91.900 352.111 92.756 M350.117 96.700 C 349.944 97.531,349.313 98.400,348.881 98.400 C 348.745 98.400,348.441 98.710,348.206 99.090 C 347.972 99.469,347.469 99.972,347.090 100.206 C 346.710 100.441,346.400 100.760,346.400 100.916 C 346.400 101.337,346.427 101.317,347.921 99.802 C 348.680 99.034,349.457 98.404,349.650 98.402 C 349.853 98.401,350.000 98.249,350.000 98.040 C 350.000 97.842,350.097 97.583,350.215 97.465 C 350.333 97.347,350.396 96.947,350.356 96.575 L 350.283 95.900 350.117 96.700 M247.622 98.400 C 247.603 99.221,247.689 99.390,248.591 100.315 C 249.557 101.305,249.583 101.364,249.659 102.715 C 249.731 103.989,249.735 103.968,249.718 102.456 L 249.700 100.813 248.861 100.056 C 248.235 99.491,247.975 99.073,247.833 98.400 L 247.643 97.500 247.622 98.400 M346.296 104.232 C 346.336 105.125,346.414 105.238,348.164 106.944 C 349.595 108.338,350.030 108.894,350.175 109.512 L 350.360 110.300 350.379 109.500 C 350.397 108.746,350.285 108.586,348.409 106.700 C 346.790 105.071,346.405 104.570,346.338 104.000 C 346.290 103.595,346.272 103.693,346.296 104.232 M247.306 106.994 C 246.545 107.761,245.988 108.455,246.069 108.535 C 246.149 108.616,246.908 107.988,247.756 107.141 C 248.603 106.293,249.160 105.600,248.993 105.600 C 248.826 105.600,248.067 106.227,247.306 106.994 M245.600 109.833 C 245.600 110.816,245.695 110.788,245.883 109.750 C 245.968 109.275,245.941 109.000,245.809 109.000 C 245.694 109.000,245.600 109.375,245.600 109.833 M350.400 110.979 C 350.400 111.114,351.208 112.012,352.195 112.974 C 353.598 114.341,354.031 114.896,354.175 115.512 L 354.360 116.300 354.378 115.500 C 354.396 114.749,354.284 114.587,352.548 112.851 C 350.264 110.566,350.400 110.685,350.400 110.979 M243.306 112.994 C 242.545 113.761,241.988 114.455,242.069 114.535 C 242.149 114.616,242.908 113.988,243.756 113.141 C 244.603 112.293,245.160 111.600,244.993 111.600 C 244.826 111.600,244.067 112.227,243.306 112.994 M241.600 115.833 C 241.600 116.816,241.695 116.788,241.883 115.750 C 241.968 115.275,241.941 115.000,241.809 115.000 C 241.694 115.000,241.600 115.375,241.600 115.833 M354.400 116.979 C 354.400 117.114,355.208 118.012,356.195 118.974 C 357.598 120.341,358.031 120.896,358.175 121.512 L 358.360 122.300 358.378 121.500 C 358.396 120.749,358.284 120.587,356.548 118.851 C 354.264 116.566,354.400 116.685,354.400 116.979 M239.306 118.994 C 238.545 119.761,237.988 120.455,238.069 120.535 C 238.149 120.616,238.908 119.988,239.756 119.141 C 240.603 118.293,241.160 117.600,240.993 117.600 C 240.826 117.600,240.067 118.227,239.306 118.994 M237.600 121.833 C 237.600 122.816,237.695 122.788,237.883 121.750 C 237.968 121.275,237.941 121.000,237.809 121.000 C 237.694 121.000,237.600 121.375,237.600 121.833 M358.400 122.979 C 358.400 123.114,359.208 124.012,360.195 124.974 C 361.598 126.341,362.031 126.896,362.175 127.512 L 362.360 128.300 362.378 127.500 C 362.396 126.749,362.284 126.587,360.548 124.851 C 358.264 122.566,358.400 122.685,358.400 122.979 M235.306 124.994 C 234.545 125.761,233.988 126.455,234.069 126.535 C 234.149 126.616,234.908 125.988,235.756 125.141 C 236.603 124.293,237.160 123.600,236.993 123.600 C 236.826 123.600,236.067 124.227,235.306 124.994 M233.600 127.833 C 233.600 128.816,233.695 128.788,233.883 127.750 C 233.968 127.275,233.941 127.000,233.809 127.000 C 233.694 127.000,233.600 127.375,233.600 127.833 M362.400 129.018 C 362.400 129.132,363.197 130.006,364.172 130.962 C 365.226 131.996,366.011 132.943,366.111 133.300 L 366.278 133.900 366.354 133.327 C 366.420 132.835,366.181 132.492,364.666 130.907 C 362.885 129.046,362.400 128.641,362.400 129.018 M231.306 130.994 C 230.545 131.761,229.988 132.455,230.069 132.535 C 230.149 132.616,230.908 131.988,231.756 131.141 C 232.603 130.293,233.160 129.600,232.993 129.600 C 232.826 129.600,232.067 130.227,231.306 130.994 M229.600 134.163 C 229.600 135.175,229.672 135.394,230.161 135.863 L 230.722 136.400 250.711 136.402 L 270.700 136.403 273.097 138.811 C 274.415 140.135,275.523 141.131,275.558 141.025 C 275.594 140.919,274.605 139.812,273.361 138.566 L 271.100 136.300 250.955 136.200 L 230.811 136.100 230.355 135.644 C 229.989 135.277,229.902 134.974,229.911 134.094 C 229.916 133.492,229.849 133.000,229.761 133.000 C 229.672 133.000,229.600 133.523,229.600 134.163 M366.029 135.047 C 365.648 136.151,366.512 136.092,348.900 136.202 L 332.500 136.305 348.913 136.352 L 365.325 136.400 365.879 135.822 C 366.245 135.440,366.409 135.083,366.361 134.772 C 366.297 134.359,366.255 134.394,366.029 135.047 M324.344 136.802 C 324.155 137.024,324.000 137.292,324.000 137.399 C 324.000 137.507,323.640 137.833,323.200 138.124 C 322.564 138.545,322.117 139.200,322.467 139.200 C 322.554 139.200,325.200 136.554,325.200 136.467 C 325.200 136.242,324.634 136.464,324.344 136.802 M322.128 140.635 C 322.051 141.039,321.758 141.579,321.477 141.835 C 320.641 142.597,317.924 145.316,317.593 145.723 C 317.424 145.930,317.073 146.240,316.813 146.411 C 316.553 146.582,316.378 146.833,316.423 146.969 C 316.630 147.589,322.605 141.175,322.432 140.519 L 322.269 139.900 322.128 140.635 M275.623 142.400 C 275.603 143.299,275.605 143.302,278.548 146.260 C 280.168 147.888,281.524 149.129,281.560 149.019 C 281.597 148.909,280.371 147.575,278.834 146.055 C 276.380 143.627,276.018 143.183,275.842 142.396 L 275.643 141.500 275.623 142.400 M316.128 148.635 C 316.051 149.039,315.755 149.579,315.470 149.835 C 314.733 150.497,313.950 151.285,313.593 151.723 C 313.424 151.930,313.073 152.240,312.813 152.411 C 312.553 152.582,312.378 152.834,312.423 152.970 C 312.630 153.591,316.606 149.179,316.433 148.521 L 316.269 147.900 316.128 148.635 M281.623 150.400 C 281.603 151.299,281.605 151.302,284.548 154.260 C 286.168 155.888,287.524 157.129,287.560 157.019 C 287.597 156.909,286.371 155.575,284.834 154.055 C 282.380 151.627,282.018 151.183,281.842 150.396 L 281.643 149.500 281.623 150.400 M312.128 154.635 C 312.051 155.039,311.755 155.579,311.470 155.835 C 310.733 156.497,309.950 157.285,309.593 157.723 C 309.424 157.930,309.073 158.240,308.813 158.411 C 308.553 158.582,308.378 158.834,308.423 158.970 C 308.630 159.591,312.606 155.179,312.433 154.521 L 312.269 153.900 312.128 154.635 M287.623 158.400 C 287.603 159.299,287.605 159.302,290.548 162.260 C 292.168 163.888,293.524 165.129,293.560 165.019 C 293.597 164.909,292.371 163.575,290.834 162.055 C 288.380 159.627,288.018 159.183,287.842 158.396 L 287.643 157.500 287.623 158.400 M308.128 160.635 C 308.051 161.039,307.758 161.579,307.477 161.835 C 305.748 163.411,302.392 166.876,302.444 167.031 C 302.637 167.611,308.594 161.132,308.432 160.519 L 308.269 159.900 308.128 160.635 M293.621 166.403 C 293.599 167.339,298.147 172.400,299.011 172.400 C 299.709 172.400,302.402 169.366,302.377 168.608 C 302.363 168.184,302.315 168.061,302.257 168.300 C 302.051 169.156,301.560 169.954,301.084 170.209 C 300.810 170.355,300.402 170.773,300.177 171.138 C 299.380 172.426,299.072 172.305,296.423 169.656 C 294.377 167.610,294.009 167.144,293.840 166.385 L 293.643 165.500 293.621 166.403 " stroke="none" fill="#fae206" fill-rule="evenodd"></path></g></svg>