<svg id="svg" version="1.1" xmlns="http://www.w3.org/2000/svg" xmlns:xlink="http://www.w3.org/1999/xlink" width="400" height="400" viewBox="0, 0, 400,400"><g id="svgg"><path id="path0" d="M181.300 141.398 C 181.025 141.711,180.800 142.146,180.800 142.365 C 180.800 144.052,178.820 144.800,174.353 144.800 C 169.992 144.800,168.800 145.133,168.800 146.353 C 168.800 147.667,166.742 148.800,164.353 148.800 C 162.025 148.800,160.800 149.335,160.800 150.353 C 160.800 150.886,158.886 152.800,158.353 152.800 C 157.823 152.800,156.800 153.823,156.800 154.353 C 156.800 154.886,154.886 156.800,154.353 156.800 C 153.823 156.800,152.800 157.823,152.800 158.353 C 152.800 158.886,150.886 160.800,150.353 160.800 C 149.823 160.800,148.800 161.823,148.800 162.353 C 148.800 162.886,146.886 164.800,146.353 164.800 C 145.823 164.800,144.800 165.823,144.800 166.353 C 144.800 166.886,142.886 168.800,142.353 168.800 C 141.335 168.800,140.800 170.025,140.800 172.353 C 140.800 174.742,139.667 176.800,138.353 176.800 C 137.133 176.800,136.800 177.992,136.800 182.353 C 136.800 186.829,136.052 188.800,134.353 188.800 C 132.879 188.800,132.800 189.575,132.800 204.109 C 132.800 219.098,132.862 219.600,134.702 219.600 C 136.125 219.600,136.800 221.656,136.800 225.992 C 136.800 230.332,137.230 231.600,138.702 231.600 C 139.794 231.600,140.800 233.707,140.800 235.992 C 140.800 238.322,141.261 239.146,142.883 239.720 C 143.259 239.853,144.030 240.697,144.598 241.596 C 145.165 242.495,146.066 243.397,146.600 243.600 C 147.134 243.803,148.034 244.703,148.600 245.600 C 149.166 246.497,150.066 247.397,150.600 247.600 C 151.134 247.803,152.034 248.703,152.600 249.600 C 153.166 250.497,154.066 251.397,154.600 251.600 C 155.134 251.803,156.034 252.703,156.600 253.600 C 157.166 254.497,158.053 255.392,158.570 255.589 C 159.088 255.785,160.032 256.723,160.668 257.673 C 161.813 259.382,161.855 259.402,164.582 259.600 C 167.317 259.798,167.347 259.814,168.601 261.600 L 169.864 263.400 174.600 263.600 L 179.336 263.800 180.601 265.600 L 181.867 267.400 195.928 267.505 C 210.847 267.617,211.600 267.525,211.600 265.600 C 211.600 264.121,213.164 263.600,217.600 263.600 C 222.036 263.600,223.600 263.079,223.600 261.600 C 223.600 260.421,225.242 259.600,227.600 259.600 C 229.958 259.600,231.600 258.779,231.600 257.600 C 231.600 257.081,233.081 255.600,233.600 255.600 C 234.119 255.600,235.600 254.119,235.600 253.600 C 235.600 253.081,237.081 251.600,237.600 251.600 C 238.119 251.600,239.600 250.119,239.600 249.600 C 239.600 249.081,241.081 247.600,241.600 247.600 C 242.119 247.600,243.600 246.119,243.600 245.600 C 243.600 245.081,245.081 243.600,245.600 243.600 C 246.119 243.600,247.600 242.119,247.600 241.600 C 247.600 241.081,249.081 239.600,249.600 239.600 C 250.779 239.600,251.600 237.958,251.600 235.600 C 251.600 233.245,252.421 231.600,253.595 231.600 C 255.154 231.600,255.600 230.283,255.600 225.675 C 255.600 221.103,256.097 219.681,257.717 219.613 C 259.544 219.537,259.616 218.904,259.505 203.999 L 259.400 189.867 257.600 188.601 L 255.800 187.336 255.600 182.600 L 255.400 177.864 253.600 176.601 C 251.814 175.347,251.798 175.317,251.600 172.582 C 251.402 169.855,251.382 169.813,249.673 168.668 C 248.723 168.032,247.785 167.088,247.589 166.570 C 247.392 166.053,246.497 165.166,245.600 164.600 C 244.703 164.034,243.803 163.134,243.600 162.600 C 243.397 162.066,242.497 161.166,241.600 160.600 C 240.703 160.034,239.803 159.134,239.600 158.600 C 239.397 158.066,238.497 157.166,237.600 156.600 C 236.703 156.034,235.803 155.134,235.600 154.600 C 235.397 154.066,234.495 153.165,233.596 152.598 C 232.697 152.030,231.853 151.259,231.720 150.883 C 231.146 149.261,230.322 148.800,227.992 148.800 C 225.650 148.800,223.600 147.788,223.600 146.633 C 223.600 145.247,222.215 144.800,217.922 144.800 C 213.593 144.800,211.600 144.117,211.600 142.633 C 211.600 142.353,211.271 141.826,210.869 141.462 C 209.844 140.535,182.113 140.475,181.300 141.398 " stroke="none" fill="#9cdcec" fill-rule="evenodd"></path><path id="path1" d="M190.000 36.000 L 190.000 38.000 188.000 38.000 L 186.000 38.000 186.000 40.000 L 186.000 42.000 184.000 42.000 L 182.000 42.000 182.000 46.000 L 182.000 50.000 180.000 50.000 L 178.000 50.000 178.000 52.000 L 178.000 54.000 176.000 54.000 L 174.000 54.000 174.000 56.000 L 174.000 58.000 172.000 58.000 L 170.000 58.000 170.000 62.000 L 170.000 66.000 168.000 66.000 L 166.000 66.000 166.000 68.000 L 166.000 70.000 164.000 70.000 L 162.000 70.000 162.000 72.000 L 162.000 74.000 160.000 74.000 L 158.000 74.000 158.000 78.000 L 158.000 82.000 156.000 82.000 L 154.000 82.000 154.000 84.000 L 154.000 86.000 152.000 86.000 L 150.000 86.000 150.000 88.000 L 150.000 90.000 148.000 90.000 L 146.000 90.000 146.000 94.000 L 146.000 98.000 144.000 98.000 L 142.000 98.000 142.000 100.000 L 142.000 102.000 140.000 102.000 L 138.000 102.000 138.000 104.000 L 138.000 106.000 136.000 106.000 L 134.000 106.000 134.000 110.000 L 134.000 114.000 82.000 114.000 L 30.000 114.000 30.000 116.000 L 30.000 118.000 28.000 118.000 L 26.000 118.000 26.000 126.000 L 26.000 134.000 28.000 134.000 L 30.000 134.000 30.000 138.000 L 30.000 142.000 32.000 142.000 L 34.000 142.000 34.000 144.000 L 34.000 146.000 36.000 146.000 L 38.000 146.000 38.000 150.000 L 38.000 154.000 40.000 154.000 L 42.000 154.000 42.000 156.000 L 42.000 158.000 44.000 158.000 L 46.000 158.000 46.000 162.000 L 46.000 166.000 48.000 166.000 L 50.000 166.000 50.000 168.000 L 50.000 170.000 52.000 170.000 L 54.000 170.000 54.000 174.000 L 54.000 178.000 56.000 178.000 L 58.000 178.000 58.000 180.000 L 58.000 182.000 60.000 182.000 L 62.000 182.000 62.000 186.000 L 62.000 190.000 64.000 190.000 L 66.000 190.000 66.000 192.000 L 66.000 194.000 68.000 194.000 L 70.000 194.000 70.000 198.000 L 70.000 202.000 72.000 202.000 L 74.000 202.000 74.000 206.000 L 74.000 210.000 72.000 210.000 L 70.000 210.000 70.000 212.000 L 70.000 214.000 68.000 214.000 L 66.000 214.000 66.000 218.000 L 66.000 222.000 64.000 222.000 L 62.000 222.000 62.000 224.000 L 62.000 226.000 60.000 226.000 L 58.000 226.000 58.000 230.000 L 58.000 234.000 56.000 234.000 L 54.000 234.000 54.000 236.000 L 54.000 238.000 52.000 238.000 L 50.000 238.000 50.000 242.000 L 50.000 246.000 48.000 246.000 L 46.000 246.000 46.000 248.000 L 46.000 250.000 44.000 250.000 L 42.000 250.000 42.000 254.000 L 42.000 258.000 40.000 258.000 L 38.000 258.000 38.000 260.000 L 38.000 262.000 36.000 262.000 L 34.000 262.000 34.000 266.000 L 34.000 270.000 32.000 270.000 L 30.000 270.000 30.000 272.000 L 30.000 274.000 28.000 274.000 L 26.000 274.000 26.000 282.000 L 26.000 290.000 28.000 290.000 L 30.000 290.000 30.000 292.000 L 30.000 294.000 82.000 294.000 L 134.000 294.000 134.000 298.000 L 134.000 302.000 136.000 302.000 L 138.000 302.000 138.000 304.000 L 138.000 306.000 140.000 306.000 L 142.000 306.000 142.000 308.000 L 142.000 310.000 144.000 310.000 L 146.000 310.000 146.000 314.000 L 146.000 318.000 148.000 318.000 L 150.000 318.000 150.000 320.000 L 150.000 322.000 152.000 322.000 L 154.000 322.000 154.000 324.000 L 154.000 326.000 156.000 326.000 L 158.000 326.000 158.000 330.000 L 158.000 334.000 160.000 334.000 L 162.000 334.000 162.000 336.000 L 162.000 338.000 164.000 338.000 L 166.000 338.000 166.000 340.000 L 166.000 342.000 168.000 342.000 L 170.000 342.000 170.000 346.000 L 170.000 350.000 172.000 350.000 L 174.000 350.000 174.000 352.000 L 174.000 354.000 176.000 354.000 L 178.000 354.000 178.000 356.000 L 178.000 358.000 180.000 358.000 L 182.000 358.000 182.000 362.000 L 182.000 366.000 184.000 366.000 L 186.000 366.000 186.000 368.000 L 186.000 370.000 188.000 370.000 L 190.000 370.000 190.000 372.000 L 190.000 374.000 198.000 374.000 L 206.000 374.000 206.000 372.000 L 206.000 370.000 208.000 370.000 L 210.000 370.000 210.000 368.000 L 210.000 366.000 212.000 366.000 L 214.000 366.000 214.000 362.000 L 214.000 358.000 216.000 358.000 L 218.000 358.000 218.000 356.000 L 218.000 354.000 220.000 354.000 L 222.000 354.000 222.000 350.000 L 222.000 346.000 224.000 346.000 L 226.000 346.000 226.000 344.000 L 226.000 342.000 228.000 342.000 L 230.000 342.000 230.000 338.000 L 230.000 334.000 232.000 334.000 L 234.000 334.000 234.000 332.000 L 234.000 330.000 236.000 330.000 L 238.000 330.000 238.000 328.000 L 238.000 326.000 240.000 326.000 L 242.000 326.000 242.000 322.000 L 242.000 318.000 244.000 318.000 L 246.000 318.000 246.000 316.000 L 246.000 314.000 248.000 314.000 L 250.000 314.000 250.000 310.000 L 250.000 306.000 252.000 306.000 L 254.000 306.000 254.000 304.000 L 254.000 302.000 256.000 302.000 L 258.000 302.000 258.000 298.000 L 258.000 294.000 310.000 294.000 L 362.000 294.000 362.000 292.000 L 362.000 290.000 364.000 290.000 L 366.000 290.000 366.000 282.000 L 366.000 274.000 364.000 274.000 L 362.000 274.000 362.000 272.000 L 362.000 270.000 360.000 270.000 L 358.000 270.000 358.000 266.000 L 358.000 262.000 356.000 262.000 L 354.000 262.000 354.000 260.000 L 354.000 258.000 352.000 258.000 L 350.000 258.000 350.000 254.000 L 350.000 250.000 348.000 250.000 L 346.000 250.000 346.000 248.000 L 346.000 246.000 344.000 246.000 L 342.000 246.000 342.000 242.000 L 342.000 238.000 340.000 238.000 L 338.000 238.000 338.000 236.000 L 338.000 234.000 336.000 234.000 L 334.000 234.000 334.000 230.000 L 334.000 226.000 332.000 226.000 L 330.000 226.000 330.000 224.000 L 330.000 222.000 328.000 222.000 L 326.000 222.000 326.000 218.000 L 326.000 214.000 324.000 214.000 L 322.000 214.000 322.000 212.000 L 322.000 210.000 320.000 210.000 L 318.000 210.000 318.000 206.000 L 318.000 202.000 320.000 202.000 L 322.000 202.000 322.000 198.000 L 322.000 194.000 324.000 194.000 L 326.000 194.000 326.000 192.000 L 326.000 190.000 328.000 190.000 L 330.000 190.000 330.000 186.000 L 330.000 182.000 332.000 182.000 L 334.000 182.000 334.000 180.000 L 334.000 178.000 336.000 178.000 L 338.000 178.000 338.000 174.000 L 338.000 170.000 340.000 170.000 L 342.000 170.000 342.000 168.000 L 342.000 166.000 344.000 166.000 L 346.000 166.000 346.000 162.000 L 346.000 158.000 348.000 158.000 L 350.000 158.000 350.000 156.000 L 350.000 154.000 352.000 154.000 L 354.000 154.000 354.000 150.000 L 354.000 146.000 356.000 146.000 L 358.000 146.000 358.000 144.000 L 358.000 142.000 360.000 142.000 L 362.000 142.000 362.000 138.000 L 362.000 134.000 364.000 134.000 L 366.000 134.000 366.000 126.000 L 366.000 118.000 364.000 118.000 L 362.000 118.000 362.000 116.000 L 362.000 114.000 310.000 114.000 L 258.000 114.000 258.000 110.000 L 258.000 106.000 256.000 106.000 L 254.000 106.000 254.000 104.000 L 254.000 102.000 252.000 102.000 L 250.000 102.000 250.000 98.000 L 250.000 94.000 248.000 94.000 L 246.000 94.000 246.000 92.000 L 246.000 90.000 244.000 90.000 L 242.000 90.000 242.000 86.000 L 242.000 82.000 240.000 82.000 L 238.000 82.000 238.000 80.000 L 238.000 78.000 236.000 78.000 L 234.000 78.000 234.000 76.000 L 234.000 74.000 232.000 74.000 L 230.000 74.000 230.000 70.000 L 230.000 66.000 228.000 66.000 L 226.000 66.000 226.000 64.000 L 226.000 62.000 224.000 62.000 L 222.000 62.000 222.000 58.000 L 222.000 54.000 220.000 54.000 L 218.000 54.000 218.000 52.000 L 218.000 50.000 216.000 50.000 L 214.000 50.000 214.000 46.000 L 214.000 42.000 212.000 42.000 L 210.000 42.000 210.000 40.000 L 210.000 38.000 208.000 38.000 L 206.000 38.000 206.000 36.000 L 206.000 34.000 198.000 34.000 L 190.000 34.000 190.000 36.000 M199.611 64.500 C 200.615 65.655,202.745 67.785,203.900 68.789 C 204.646 69.438,204.800 69.981,204.800 71.967 C 204.800 74.101,204.914 74.441,205.847 75.081 C 206.422 75.477,207.231 76.160,207.643 76.600 C 209.908 79.015,210.790 79.863,211.649 80.453 C 212.451 81.004,212.631 81.535,212.800 83.837 C 212.992 86.459,213.059 86.606,214.505 87.586 C 215.333 88.147,216.360 89.181,216.788 89.884 C 217.215 90.586,218.091 91.433,218.734 91.766 C 219.377 92.099,220.273 92.996,220.724 93.761 C 221.175 94.525,222.091 95.433,222.760 95.779 C 224.380 96.617,224.800 97.518,224.800 100.155 C 224.800 102.086,224.931 102.453,225.847 103.081 C 226.422 103.477,227.231 104.160,227.643 104.600 C 228.944 105.987,230.966 107.977,231.900 108.789 C 232.646 109.438,232.800 109.981,232.800 111.967 C 232.800 114.101,232.914 114.441,233.847 115.081 C 234.422 115.477,235.231 116.160,235.643 116.600 C 237.908 119.015,238.790 119.863,239.649 120.453 C 240.451 121.004,240.631 121.535,240.800 123.837 C 240.992 126.459,241.059 126.606,242.505 127.586 C 243.333 128.147,244.359 129.179,244.785 129.880 C 245.211 130.580,246.047 131.409,246.643 131.721 C 247.238 132.033,248.201 132.988,248.782 133.844 L 249.839 135.400 292.555 135.600 L 335.271 135.800 336.045 136.756 C 337.061 138.010,336.275 140.400,334.847 140.400 C 334.314 140.400,332.400 142.314,332.400 142.847 C 332.400 143.357,331.386 144.400,330.890 144.400 C 329.694 144.400,328.900 145.892,328.738 148.445 C 328.576 150.989,327.901 152.400,326.847 152.400 C 326.314 152.400,324.400 154.314,324.400 154.847 C 324.400 155.357,323.386 156.400,322.890 156.400 C 321.694 156.400,320.900 157.892,320.738 160.445 C 320.576 162.989,319.901 164.400,318.847 164.400 C 318.314 164.400,316.400 166.314,316.400 166.847 C 316.400 167.357,315.386 168.400,314.890 168.400 C 313.694 168.400,312.900 169.892,312.738 172.445 C 312.576 174.989,311.901 176.400,310.847 176.400 C 310.314 176.400,308.400 178.314,308.400 178.847 C 308.400 179.357,307.386 180.400,306.890 180.400 C 305.694 180.400,304.900 181.892,304.738 184.445 C 304.564 187.165,304.084 188.066,302.545 188.554 C 301.428 188.908,300.881 190.182,300.697 192.858 C 300.548 195.013,299.823 196.400,298.845 196.400 C 298.367 196.400,296.400 198.431,296.400 198.924 C 296.400 199.393,295.339 200.400,294.844 200.400 C 293.406 200.400,292.800 202.125,292.800 206.213 C 292.800 210.453,293.031 211.065,294.883 211.720 C 295.259 211.853,296.030 212.697,296.598 213.596 C 297.165 214.495,298.055 215.393,298.574 215.590 C 300.110 216.174,300.800 217.549,300.800 220.027 C 300.800 222.319,301.268 223.148,302.883 223.720 C 303.259 223.853,304.023 224.685,304.581 225.569 C 305.139 226.454,306.131 227.454,306.786 227.793 C 308.380 228.617,308.800 229.527,308.800 232.155 C 308.800 234.086,308.931 234.453,309.847 235.081 C 310.422 235.477,311.231 236.160,311.643 236.600 C 312.944 237.987,314.966 239.977,315.900 240.789 C 316.646 241.438,316.800 241.981,316.800 243.967 C 316.800 246.101,316.914 246.441,317.847 247.081 C 318.422 247.477,319.231 248.160,319.643 248.600 C 320.944 249.987,322.966 251.977,323.900 252.789 C 324.646 253.438,324.800 253.981,324.800 255.967 C 324.800 258.101,324.914 258.441,325.847 259.081 C 326.422 259.477,327.231 260.160,327.643 260.600 C 328.939 261.981,330.962 263.974,331.943 264.833 C 332.796 265.579,332.872 265.922,332.734 268.368 C 332.468 273.074,337.238 272.584,290.471 272.706 L 249.884 272.811 249.142 273.667 C 248.734 274.137,248.400 274.688,248.400 274.890 C 248.400 275.365,247.365 276.400,246.890 276.400 C 245.694 276.400,244.900 277.892,244.738 280.445 C 244.576 282.989,243.901 284.400,242.847 284.400 C 242.314 284.400,240.400 286.314,240.400 286.847 C 240.400 287.377,239.377 288.400,238.847 288.400 C 238.314 288.400,236.400 290.314,236.400 290.847 C 236.400 291.357,235.386 292.400,234.890 292.400 C 233.694 292.400,232.900 293.892,232.738 296.445 C 232.576 298.989,231.901 300.400,230.847 300.400 C 230.314 300.400,228.400 302.314,228.400 302.847 C 228.400 303.357,227.386 304.400,226.890 304.400 C 225.694 304.400,224.900 305.892,224.738 308.445 C 224.576 310.989,223.901 312.400,222.847 312.400 C 222.314 312.400,220.400 314.314,220.400 314.847 C 220.400 315.357,219.386 316.400,218.890 316.400 C 217.694 316.400,216.900 317.892,216.738 320.445 C 216.576 322.989,215.901 324.400,214.847 324.400 C 214.314 324.400,212.400 326.314,212.400 326.847 C 212.400 327.377,211.377 328.400,210.847 328.400 C 210.314 328.400,208.400 330.314,208.400 330.847 C 208.400 331.357,207.386 332.400,206.890 332.400 C 205.694 332.400,204.900 333.892,204.738 336.445 C 204.576 338.989,203.901 340.400,202.847 340.400 C 202.314 340.400,200.400 342.314,200.400 342.847 C 200.400 344.361,197.860 345.123,196.813 343.924 C 196.369 343.416,195.443 342.437,194.755 341.748 C 194.067 341.059,193.144 340.136,192.704 339.696 C 192.264 339.256,191.409 338.379,190.803 337.748 C 190.198 337.117,189.275 336.306,188.751 335.947 C 187.949 335.396,187.769 334.865,187.600 332.563 C 187.408 329.941,187.341 329.794,185.895 328.814 C 185.067 328.253,184.040 327.219,183.612 326.516 C 183.185 325.814,182.290 324.957,181.624 324.613 C 180.958 324.268,180.135 323.449,179.795 322.791 C 179.455 322.134,178.466 321.147,177.596 320.598 C 175.919 319.539,175.671 318.971,175.505 315.817 C 175.410 314.020,175.259 313.738,173.895 312.814 C 173.067 312.253,172.040 311.219,171.612 310.516 C 171.185 309.814,170.290 308.957,169.624 308.613 C 168.958 308.268,168.135 307.449,167.795 306.791 C 167.455 306.134,166.466 305.147,165.596 304.598 C 163.919 303.539,163.671 302.971,163.505 299.817 C 163.410 298.020,163.259 297.738,161.895 296.814 C 161.067 296.253,160.040 295.219,159.612 294.516 C 159.185 293.814,158.290 292.957,157.624 292.613 C 156.958 292.268,156.135 291.449,155.795 290.791 C 155.455 290.134,154.466 289.147,153.596 288.598 C 151.919 287.539,151.671 286.971,151.505 283.817 C 151.409 282.007,151.264 281.741,149.844 280.779 C 148.988 280.199,148.033 279.238,147.721 278.643 C 147.409 278.047,146.580 277.211,145.880 276.785 C 145.179 276.359,144.146 275.333,143.584 274.505 L 142.561 273.000 101.845 272.800 L 61.129 272.600 60.365 271.656 C 58.735 269.643,59.714 263.600,61.670 263.600 C 62.068 263.600,63.600 262.112,63.600 261.726 C 63.600 261.327,65.281 259.600,65.670 259.600 C 66.755 259.600,67.600 257.904,67.600 255.726 C 67.600 253.542,68.574 251.600,69.670 251.600 C 70.068 251.600,71.600 250.112,71.600 249.726 C 71.600 249.327,73.281 247.600,73.670 247.600 C 74.755 247.600,75.600 245.904,75.600 243.726 C 75.600 241.542,76.574 239.600,77.670 239.600 C 78.068 239.600,79.600 238.112,79.600 237.726 C 79.600 237.327,81.281 235.600,81.670 235.600 C 82.755 235.600,83.600 233.904,83.600 231.726 C 83.600 229.542,84.574 227.600,85.670 227.600 C 86.068 227.600,87.600 226.112,87.600 225.726 C 87.600 225.327,89.281 223.600,89.670 223.600 C 90.755 223.600,91.600 221.904,91.600 219.726 C 91.600 217.542,92.574 215.600,93.670 215.600 C 94.068 215.600,95.600 214.112,95.600 213.726 C 95.600 213.327,97.281 211.600,97.670 211.600 C 99.861 211.600,100.621 202.737,98.551 201.319 C 95.932 199.523,95.600 198.975,95.600 196.437 C 95.600 194.299,95.486 193.959,94.553 193.319 C 93.978 192.923,93.169 192.240,92.757 191.800 C 91.456 190.413,89.434 188.423,88.500 187.611 C 87.754 186.962,87.600 186.419,87.600 184.433 C 87.600 182.299,87.486 181.959,86.553 181.319 C 85.978 180.923,85.169 180.240,84.757 179.800 C 83.456 178.413,81.434 176.423,80.500 175.611 C 79.754 174.962,79.600 174.419,79.600 172.433 C 79.600 170.299,79.486 169.959,78.553 169.319 C 77.978 168.923,77.169 168.240,76.757 167.800 C 75.456 166.413,73.434 164.423,72.500 163.611 C 71.754 162.962,71.600 162.419,71.600 160.433 C 71.600 158.299,71.486 157.959,70.553 157.319 C 69.978 156.923,69.169 156.240,68.757 155.800 C 66.492 153.385,65.610 152.537,64.751 151.947 C 63.949 151.396,63.769 150.865,63.600 148.563 C 63.407 145.923,63.349 145.799,61.844 144.779 C 60.988 144.200,60.036 143.245,59.729 142.658 C 59.421 142.071,58.460 141.143,57.592 140.595 C 55.568 139.317,55.161 137.919,56.421 136.578 L 57.339 135.600 99.670 135.600 C 145.356 135.600,143.600 135.675,143.600 133.726 C 143.600 133.327,145.281 131.600,145.670 131.600 C 146.068 131.600,147.600 130.112,147.600 129.726 C 147.600 129.327,149.281 127.600,149.670 127.600 C 150.755 127.600,151.600 125.904,151.600 123.726 C 151.600 121.542,152.574 119.600,153.670 119.600 C 154.068 119.600,155.600 118.112,155.600 117.726 C 155.600 117.327,157.281 115.600,157.670 115.600 C 158.068 115.600,159.600 114.112,159.600 113.726 C 159.600 113.327,161.281 111.600,161.670 111.600 C 162.755 111.600,163.600 109.904,163.600 107.726 C 163.600 105.542,164.574 103.600,165.670 103.600 C 166.068 103.600,167.600 102.112,167.600 101.726 C 167.600 101.327,169.281 99.600,169.670 99.600 C 170.068 99.600,171.600 98.112,171.600 97.726 C 171.600 97.327,173.281 95.600,173.670 95.600 C 174.755 95.600,175.600 93.904,175.600 91.726 C 175.600 89.542,176.574 87.600,177.670 87.600 C 178.068 87.600,179.600 86.112,179.600 85.726 C 179.600 85.327,181.281 83.600,181.670 83.600 C 182.068 83.600,183.600 82.112,183.600 81.726 C 183.600 81.327,185.281 79.600,185.670 79.600 C 186.755 79.600,187.600 77.904,187.600 75.726 C 187.600 73.542,188.574 71.600,189.670 71.600 C 190.068 71.600,191.600 70.112,191.600 69.726 C 191.600 69.327,193.281 67.600,193.670 67.600 C 194.068 67.600,195.600 66.112,195.600 65.726 C 195.600 64.041,198.454 63.169,199.611 64.500 " stroke="none" fill="#fcf404" fill-rule="evenodd"></path><path id="path2" d="M197.067 65.680 C 196.496 66.406,195.771 67.243,195.455 67.540 C 194.713 68.237,192.237 70.713,191.540 71.455 C 191.243 71.771,190.415 72.489,189.700 73.050 C 188.495 73.996,188.400 74.244,188.400 76.436 C 188.400 78.267,188.229 78.944,187.640 79.440 C 187.222 79.792,186.250 80.710,185.480 81.480 C 184.710 82.250,183.837 83.123,183.540 83.420 C 183.243 83.717,182.316 84.644,181.480 85.480 C 180.644 86.316,179.744 87.232,179.480 87.515 C 179.216 87.798,178.415 88.489,177.700 89.050 C 176.495 89.996,176.400 90.244,176.400 92.436 C 176.400 94.267,176.229 94.944,175.640 95.440 C 175.222 95.792,174.250 96.710,173.480 97.480 C 172.710 98.250,171.783 99.177,171.420 99.540 C 171.057 99.903,170.130 100.830,169.360 101.600 C 168.590 102.370,167.744 103.232,167.480 103.515 C 167.216 103.798,166.415 104.489,165.700 105.050 C 164.495 105.996,164.400 106.244,164.400 108.436 C 164.400 110.267,164.229 110.944,163.640 111.440 C 163.222 111.792,162.223 112.737,161.420 113.540 C 160.617 114.343,159.717 115.243,159.420 115.540 C 159.123 115.837,158.250 116.710,157.480 117.480 C 156.710 118.250,155.837 119.139,155.540 119.455 C 155.243 119.771,154.415 120.489,153.700 121.050 C 152.495 121.996,152.400 122.244,152.400 124.436 C 152.400 126.200,152.222 126.947,151.700 127.380 C 151.315 127.699,150.343 128.617,149.540 129.420 C 148.737 130.223,147.810 131.150,147.480 131.480 C 147.150 131.810,146.277 132.683,145.540 133.420 C 144.803 134.157,143.885 135.129,143.500 135.580 C 142.802 136.397,142.650 136.400,100.470 136.400 L 58.139 136.400 57.277 137.318 C 56.463 138.184,57.037 139.600,58.202 139.600 C 58.618 139.600,60.400 141.370,60.400 141.783 C 60.400 142.199,61.790 143.600,62.202 143.600 C 63.392 143.600,64.400 145.519,64.400 147.783 C 64.400 150.032,65.140 151.600,66.202 151.600 C 66.618 151.600,68.400 153.370,68.400 153.783 C 68.400 154.199,69.790 155.600,70.202 155.600 C 71.392 155.600,72.400 157.519,72.400 159.783 C 72.400 162.032,73.140 163.600,74.202 163.600 C 74.618 163.600,76.400 165.370,76.400 165.783 C 76.400 166.199,77.790 167.600,78.202 167.600 C 79.392 167.600,80.400 169.519,80.400 171.783 C 80.400 174.032,81.140 175.600,82.202 175.600 C 82.618 175.600,84.400 177.370,84.400 177.783 C 84.400 178.199,85.790 179.600,86.202 179.600 C 87.392 179.600,88.400 181.519,88.400 183.783 C 88.400 186.032,89.140 187.600,90.202 187.600 C 90.618 187.600,92.400 189.370,92.400 189.783 C 92.400 190.199,93.790 191.600,94.202 191.600 C 95.392 191.600,96.400 193.519,96.400 195.783 C 96.400 198.032,97.140 199.600,98.202 199.600 C 100.371 199.600,101.608 209.782,99.640 211.440 C 98.918 212.048,96.705 214.215,95.540 215.455 C 95.243 215.771,94.415 216.489,93.700 217.050 C 92.495 217.996,92.400 218.244,92.400 220.436 C 92.400 222.200,92.222 222.947,91.700 223.380 C 91.038 223.928,88.720 226.199,87.540 227.455 C 87.243 227.771,86.415 228.489,85.700 229.050 C 84.495 229.996,84.400 230.244,84.400 232.436 C 84.400 234.325,84.235 234.941,83.580 235.500 C 82.797 236.168,80.690 238.231,79.540 239.455 C 79.243 239.771,78.415 240.489,77.700 241.050 C 76.495 241.996,76.400 242.244,76.400 244.436 C 76.400 246.200,76.222 246.947,75.700 247.380 C 75.038 247.928,72.720 250.199,71.540 251.455 C 71.243 251.771,70.415 252.489,69.700 253.050 C 68.495 253.996,68.400 254.244,68.400 256.436 C 68.400 258.200,68.222 258.947,67.700 259.380 C 67.038 259.928,64.720 262.199,63.540 263.455 C 63.243 263.771,62.415 264.489,61.700 265.050 C 60.532 265.968,60.400 266.281,60.400 268.147 C 60.400 271.928,56.424 271.600,102.202 271.600 L 142.394 271.600 143.397 272.472 C 143.949 272.952,144.400 273.542,144.400 273.783 C 144.400 274.199,145.790 275.600,146.202 275.600 C 146.618 275.600,148.400 277.370,148.400 277.783 C 148.400 278.199,149.790 279.600,150.202 279.600 C 151.392 279.600,152.400 281.519,152.400 283.783 C 152.400 286.032,153.140 287.600,154.202 287.600 C 154.618 287.600,156.400 289.370,156.400 289.783 C 156.400 290.199,157.790 291.600,158.202 291.600 C 158.618 291.600,160.400 293.370,160.400 293.783 C 160.400 294.199,161.790 295.600,162.202 295.600 C 163.392 295.600,164.400 297.519,164.400 299.783 C 164.400 302.032,165.140 303.600,166.202 303.600 C 166.618 303.600,168.400 305.370,168.400 305.783 C 168.400 306.199,169.790 307.600,170.202 307.600 C 170.618 307.600,172.400 309.370,172.400 309.783 C 172.400 310.199,173.790 311.600,174.202 311.600 C 175.392 311.600,176.400 313.519,176.400 315.783 C 176.400 318.032,177.140 319.600,178.202 319.600 C 178.618 319.600,180.400 321.370,180.400 321.783 C 180.400 322.199,181.790 323.600,182.202 323.600 C 182.618 323.600,184.400 325.370,184.400 325.783 C 184.400 326.199,185.790 327.600,186.202 327.600 C 187.392 327.600,188.400 329.519,188.400 331.783 C 188.400 334.032,189.140 335.600,190.202 335.600 C 190.618 335.600,192.400 337.370,192.400 337.783 C 192.400 338.199,193.790 339.600,194.202 339.600 C 194.618 339.600,196.400 341.370,196.400 341.783 C 196.400 344.009,198.684 343.607,200.279 341.100 C 200.455 340.822,201.275 340.092,202.100 339.477 C 203.523 338.417,203.601 338.243,203.613 336.080 C 203.626 333.614,203.918 333.050,205.889 331.666 C 206.598 331.169,207.466 330.272,207.820 329.675 C 208.173 329.077,209.063 328.194,209.797 327.712 C 210.532 327.230,211.435 326.333,211.804 325.718 C 212.173 325.103,213.178 324.107,214.038 323.504 C 215.554 322.440,215.600 322.338,215.600 320.046 C 215.600 317.997,215.740 317.559,216.656 316.742 C 218.877 314.762,219.866 313.779,220.227 313.198 C 220.432 312.866,221.275 312.092,222.100 311.477 C 223.535 310.408,223.600 310.258,223.600 308.022 C 223.600 305.999,223.743 305.557,224.656 304.742 C 226.877 302.762,227.866 301.779,228.227 301.198 C 228.432 300.866,229.275 300.092,230.100 299.477 C 231.523 298.417,231.601 298.243,231.613 296.080 C 231.626 293.614,231.918 293.050,233.889 291.666 C 234.598 291.169,235.466 290.272,235.820 289.675 C 236.173 289.077,237.063 288.194,237.797 287.712 C 238.532 287.230,239.435 286.333,239.804 285.718 C 240.173 285.103,241.178 284.107,242.038 283.504 C 243.554 282.440,243.600 282.338,243.600 280.046 C 243.600 277.997,243.740 277.559,244.656 276.742 C 246.002 275.542,247.542 274.002,248.742 272.656 L 249.684 271.600 289.980 271.600 C 328.510 271.600,330.305 271.568,330.938 270.869 C 332.339 269.320,331.461 264.400,329.783 264.400 C 329.370 264.400,327.600 262.618,327.600 262.202 C 327.600 261.790,326.199 260.400,325.783 260.400 C 324.645 260.400,323.600 258.390,323.600 256.202 C 323.600 254.033,322.819 252.400,321.783 252.400 C 321.370 252.400,319.600 250.618,319.600 250.202 C 319.600 249.790,318.199 248.400,317.783 248.400 C 316.645 248.400,315.600 246.390,315.600 244.202 C 315.600 242.033,314.819 240.400,313.783 240.400 C 313.370 240.400,311.600 238.618,311.600 238.202 C 311.600 237.790,310.199 236.400,309.783 236.400 C 308.645 236.400,307.600 234.390,307.600 232.202 C 307.600 230.033,306.819 228.400,305.783 228.400 C 305.324 228.400,304.112 227.083,303.361 225.769 C 303.119 225.346,302.525 224.799,302.039 224.552 C 300.170 223.604,299.600 222.559,299.600 220.079 C 299.600 217.778,298.904 216.400,297.741 216.400 C 297.318 216.400,296.086 215.038,295.361 213.769 C 295.119 213.346,294.525 212.799,294.039 212.552 C 291.238 211.131,290.271 202.869,292.656 200.742 C 294.877 198.762,295.866 197.779,296.227 197.198 C 296.432 196.866,297.275 196.092,298.100 195.477 C 299.523 194.417,299.601 194.243,299.613 192.080 C 299.627 189.590,299.865 189.149,302.100 187.480 C 303.534 186.408,303.600 186.257,303.600 184.022 C 303.600 181.999,303.743 181.557,304.656 180.742 C 306.877 178.762,307.866 177.779,308.227 177.198 C 308.432 176.866,309.275 176.092,310.100 175.477 C 311.535 174.408,311.600 174.258,311.600 172.022 C 311.600 169.999,311.743 169.557,312.656 168.742 C 314.877 166.762,315.866 165.779,316.227 165.198 C 316.432 164.866,317.275 164.092,318.100 163.477 C 319.535 162.408,319.600 162.258,319.600 160.022 C 319.600 157.999,319.743 157.557,320.656 156.742 C 322.877 154.762,323.866 153.779,324.227 153.198 C 324.432 152.866,325.275 152.092,326.100 151.477 C 327.535 150.408,327.600 150.258,327.600 148.022 C 327.600 145.991,327.740 145.560,328.667 144.742 C 329.553 143.959,331.394 142.108,332.706 140.679 C 332.867 140.503,333.613 139.862,334.361 139.255 C 335.711 138.162,335.716 138.145,334.972 137.276 L 334.222 136.400 291.783 136.400 L 249.344 136.400 248.472 135.397 C 247.992 134.845,247.600 134.307,247.600 134.202 C 247.600 133.790,246.199 132.400,245.783 132.400 C 245.370 132.400,243.600 130.618,243.600 130.202 C 243.600 129.790,242.199 128.400,241.783 128.400 C 240.645 128.400,239.600 126.390,239.600 124.202 C 239.600 122.033,238.819 120.400,237.783 120.400 C 237.370 120.400,235.600 118.618,235.600 118.202 C 235.600 117.790,234.199 116.400,233.783 116.400 C 232.645 116.400,231.600 114.390,231.600 112.202 C 231.600 110.033,230.819 108.400,229.783 108.400 C 229.370 108.400,227.600 106.618,227.600 106.202 C 227.600 105.790,226.199 104.400,225.783 104.400 C 224.645 104.400,223.600 102.390,223.600 100.202 C 223.600 98.033,222.819 96.400,221.783 96.400 C 221.370 96.400,219.600 94.618,219.600 94.202 C 219.600 93.790,218.199 92.400,217.783 92.400 C 217.370 92.400,215.600 90.618,215.600 90.202 C 215.600 89.790,214.199 88.400,213.783 88.400 C 212.645 88.400,211.600 86.390,211.600 84.202 C 211.600 82.033,210.819 80.400,209.783 80.400 C 209.370 80.400,207.600 78.618,207.600 78.202 C 207.600 77.790,206.199 76.400,205.783 76.400 C 204.645 76.400,203.600 74.390,203.600 72.202 C 203.600 70.033,202.819 68.400,201.783 68.400 C 201.358 68.400,199.600 66.612,199.600 66.180 C 199.600 64.752,198.039 64.444,197.067 65.680 M211.133 139.487 C 211.792 139.866,212.571 140.721,212.865 141.387 L 213.400 142.600 217.600 142.705 C 222.391 142.824,223.995 143.412,224.857 145.368 C 225.358 146.504,225.571 146.609,227.600 146.710 C 230.293 146.844,232.257 147.813,232.760 149.256 C 232.976 149.878,233.830 150.737,234.762 151.270 C 235.681 151.796,236.550 152.665,236.762 153.270 C 236.974 153.875,237.843 154.744,238.762 155.270 C 239.681 155.796,240.550 156.665,240.762 157.270 C 240.974 157.875,241.843 158.744,242.762 159.270 C 243.681 159.796,244.550 160.665,244.762 161.270 C 244.974 161.875,245.843 162.744,246.762 163.270 C 247.681 163.796,248.550 164.665,248.762 165.270 C 248.974 165.875,249.843 166.744,250.762 167.270 C 252.609 168.328,253.200 169.582,253.200 172.449 C 253.200 174.185,253.320 174.441,254.388 174.994 C 256.960 176.324,257.200 176.911,257.200 181.865 L 257.200 186.379 258.388 186.994 C 261.335 188.518,261.200 187.708,261.200 203.857 C 261.200 219.887,261.188 219.969,258.755 220.925 L 257.200 221.536 257.200 225.949 C 257.200 231.124,256.858 232.099,254.755 232.925 C 253.214 233.530,253.200 233.555,253.200 235.708 C 253.200 238.942,252.608 240.269,250.917 240.827 C 249.835 241.184,249.357 241.654,248.905 242.804 C 248.460 243.937,247.937 244.460,246.804 244.905 C 245.662 245.354,245.184 245.837,244.835 246.893 C 244.484 247.958,244.010 248.432,242.835 248.893 C 241.661 249.355,241.186 249.829,240.835 250.893 C 240.484 251.958,240.010 252.432,238.835 252.893 C 237.661 253.355,237.186 253.829,236.835 254.893 C 236.484 255.958,236.010 256.432,234.835 256.893 C 233.653 257.358,233.187 257.827,232.827 258.917 C 232.269 260.608,230.942 261.200,227.708 261.200 C 225.550 261.200,225.532 261.210,224.915 262.779 C 224.109 264.833,223.015 265.200,217.708 265.200 L 213.536 265.200 212.915 266.779 C 211.987 269.143,211.595 269.200,196.200 269.200 C 181.002 269.200,180.636 269.148,179.288 266.793 L 178.376 265.200 174.448 265.200 C 169.553 265.200,168.454 264.831,167.288 262.793 C 166.423 261.282,166.277 261.200,164.448 261.200 C 161.582 261.200,160.327 260.609,159.270 258.762 C 158.744 257.843,157.875 256.974,157.270 256.762 C 156.665 256.550,155.796 255.681,155.270 254.762 C 154.744 253.843,153.875 252.974,153.270 252.762 C 152.665 252.550,151.796 251.681,151.270 250.762 C 150.744 249.843,149.875 248.974,149.270 248.762 C 148.665 248.550,147.796 247.681,147.270 246.762 C 146.744 245.843,145.875 244.974,145.270 244.762 C 144.665 244.550,143.796 243.681,143.270 242.762 C 142.737 241.830,141.878 240.976,141.256 240.760 C 139.813 240.257,138.844 238.293,138.710 235.600 C 138.609 233.571,138.504 233.358,137.368 232.857 C 135.412 231.995,134.824 230.391,134.705 225.600 L 134.600 221.400 133.387 220.865 C 130.850 219.747,130.800 219.421,130.801 204.068 C 130.803 188.631,130.851 188.339,133.553 187.220 L 134.800 186.703 134.801 182.451 C 134.803 177.621,135.373 176.122,137.553 175.220 C 138.740 174.728,138.800 174.594,138.801 172.451 C 138.803 169.786,139.741 167.970,141.489 167.246 C 142.174 166.962,142.951 166.173,143.332 165.373 C 143.720 164.561,144.549 163.725,145.345 163.345 C 146.132 162.971,146.971 162.132,147.345 161.345 C 147.720 160.559,148.559 159.720,149.345 159.345 C 150.132 158.971,150.971 158.132,151.345 157.345 C 151.720 156.559,152.559 155.720,153.345 155.345 C 154.132 154.971,154.971 154.132,155.345 153.345 C 155.725 152.549,156.561 151.720,157.373 151.332 C 158.173 150.951,158.962 150.174,159.246 149.489 C 159.970 147.741,161.786 146.803,164.451 146.801 C 166.594 146.800,166.728 146.740,167.220 145.553 C 168.122 143.373,169.621 142.803,174.451 142.801 L 178.703 142.800 179.220 141.553 C 180.339 138.851,180.631 138.803,196.068 138.801 C 208.449 138.800,210.064 138.874,211.133 139.487 " stroke="none" fill="#24b44c" fill-rule="evenodd"></path><path id="path3" d="M196.470 64.526 C 195.991 65.035,195.600 65.575,195.600 65.726 C 195.600 66.112,194.068 67.600,193.670 67.600 C 193.281 67.600,191.600 69.327,191.600 69.726 C 191.600 70.112,190.068 71.600,189.670 71.600 C 188.574 71.600,187.600 73.542,187.600 75.726 C 187.600 77.904,186.755 79.600,185.670 79.600 C 185.281 79.600,183.600 81.327,183.600 81.726 C 183.600 82.112,182.068 83.600,181.670 83.600 C 181.281 83.600,179.600 85.327,179.600 85.726 C 179.600 86.112,178.068 87.600,177.670 87.600 C 176.574 87.600,175.600 89.542,175.600 91.726 C 175.600 93.904,174.755 95.600,173.670 95.600 C 173.281 95.600,171.600 97.327,171.600 97.726 C 171.600 98.112,170.068 99.600,169.670 99.600 C 169.281 99.600,167.600 101.327,167.600 101.726 C 167.600 102.112,166.068 103.600,165.670 103.600 C 164.574 103.600,163.600 105.542,163.600 107.726 C 163.600 109.904,162.755 111.600,161.670 111.600 C 161.281 111.600,159.600 113.327,159.600 113.726 C 159.600 114.112,158.068 115.600,157.670 115.600 C 157.281 115.600,155.600 117.327,155.600 117.726 C 155.600 118.112,154.068 119.600,153.670 119.600 C 152.574 119.600,151.600 121.542,151.600 123.726 C 151.600 125.904,150.755 127.600,149.670 127.600 C 149.281 127.600,147.600 129.327,147.600 129.726 C 147.600 130.112,146.068 131.600,145.670 131.600 C 145.281 131.600,143.600 133.327,143.600 133.726 C 143.600 135.675,145.356 135.600,99.670 135.600 L 57.339 135.600 56.421 136.578 C 55.161 137.919,55.568 139.317,57.592 140.595 C 58.460 141.143,59.421 142.071,59.729 142.658 C 60.036 143.245,60.988 144.200,61.844 144.779 C 63.349 145.799,63.407 145.923,63.600 148.563 C 63.769 150.865,63.949 151.396,64.751 151.947 C 65.610 152.537,66.492 153.385,68.757 155.800 C 69.169 156.240,69.978 156.923,70.553 157.319 C 71.486 157.959,71.600 158.299,71.600 160.433 C 71.600 162.419,71.754 162.962,72.500 163.611 C 73.434 164.423,75.456 166.413,76.757 167.800 C 77.169 168.240,77.978 168.923,78.553 169.319 C 79.486 169.959,79.600 170.299,79.600 172.433 C 79.600 174.419,79.754 174.962,80.500 175.611 C 81.434 176.423,83.456 178.413,84.757 179.800 C 85.169 180.240,85.978 180.923,86.553 181.319 C 87.486 181.959,87.600 182.299,87.600 184.433 C 87.600 186.419,87.754 186.962,88.500 187.611 C 89.434 188.423,91.456 190.413,92.757 191.800 C 93.169 192.240,93.978 192.923,94.553 193.319 C 95.486 193.959,95.600 194.299,95.600 196.437 C 95.600 198.975,95.932 199.523,98.551 201.319 C 100.621 202.737,99.861 211.600,97.670 211.600 C 97.281 211.600,95.600 213.327,95.600 213.726 C 95.600 214.112,94.068 215.600,93.670 215.600 C 92.574 215.600,91.600 217.542,91.600 219.726 C 91.600 221.904,90.755 223.600,89.670 223.600 C 89.281 223.600,87.600 225.327,87.600 225.726 C 87.600 226.112,86.068 227.600,85.670 227.600 C 84.574 227.600,83.600 229.542,83.600 231.726 C 83.600 233.904,82.755 235.600,81.670 235.600 C 81.281 235.600,79.600 237.327,79.600 237.726 C 79.600 238.112,78.068 239.600,77.670 239.600 C 76.574 239.600,75.600 241.542,75.600 243.726 C 75.600 245.904,74.755 247.600,73.670 247.600 C 73.281 247.600,71.600 249.327,71.600 249.726 C 71.600 250.112,70.068 251.600,69.670 251.600 C 68.574 251.600,67.600 253.542,67.600 255.726 C 67.600 257.904,66.755 259.600,65.670 259.600 C 65.281 259.600,63.600 261.327,63.600 261.726 C 63.600 262.112,62.068 263.600,61.670 263.600 C 59.714 263.600,58.735 269.643,60.365 271.656 L 61.129 272.600 101.845 272.800 L 142.561 273.000 143.584 274.505 C 144.146 275.333,145.179 276.359,145.880 276.785 C 146.580 277.211,147.409 278.047,147.721 278.643 C 148.033 279.238,148.988 280.199,149.844 280.779 C 151.264 281.741,151.409 282.007,151.505 283.817 C 151.671 286.971,151.919 287.539,153.596 288.598 C 154.466 289.147,155.455 290.134,155.795 290.791 C 156.135 291.449,156.958 292.268,157.624 292.613 C 158.290 292.957,159.185 293.814,159.612 294.516 C 160.040 295.219,161.067 296.253,161.895 296.814 C 163.259 297.738,163.410 298.020,163.505 299.817 C 163.671 302.971,163.919 303.539,165.596 304.598 C 166.466 305.147,167.455 306.134,167.795 306.791 C 168.135 307.449,168.958 308.268,169.624 308.613 C 170.290 308.957,171.185 309.814,171.612 310.516 C 172.040 311.219,173.067 312.253,173.895 312.814 C 175.259 313.738,175.410 314.020,175.505 315.817 C 175.671 318.971,175.919 319.539,177.596 320.598 C 178.466 321.147,179.455 322.134,179.795 322.791 C 180.135 323.449,180.958 324.268,181.624 324.613 C 182.290 324.957,183.185 325.814,183.612 326.516 C 184.040 327.219,185.067 328.253,185.895 328.814 C 187.341 329.794,187.408 329.941,187.600 332.563 C 187.769 334.865,187.949 335.396,188.751 335.947 C 189.275 336.306,190.198 337.117,190.803 337.748 C 191.409 338.379,192.264 339.256,192.704 339.696 C 193.144 340.136,194.067 341.059,194.755 341.748 C 195.443 342.437,196.369 343.416,196.813 343.924 C 197.860 345.123,200.400 344.361,200.400 342.847 C 200.400 342.314,202.314 340.400,202.847 340.400 C 203.901 340.400,204.576 338.989,204.738 336.445 C 204.900 333.892,205.694 332.400,206.890 332.400 C 207.386 332.400,208.400 331.357,208.400 330.847 C 208.400 330.314,210.314 328.400,210.847 328.400 C 211.377 328.400,212.400 327.377,212.400 326.847 C 212.400 326.314,214.314 324.400,214.847 324.400 C 215.901 324.400,216.576 322.989,216.738 320.445 C 216.900 317.892,217.694 316.400,218.890 316.400 C 219.386 316.400,220.400 315.357,220.400 314.847 C 220.400 314.314,222.314 312.400,222.847 312.400 C 223.901 312.400,224.576 310.989,224.738 308.445 C 224.900 305.892,225.694 304.400,226.890 304.400 C 227.386 304.400,228.400 303.357,228.400 302.847 C 228.400 302.314,230.314 300.400,230.847 300.400 C 231.901 300.400,232.576 298.989,232.738 296.445 C 232.900 293.892,233.694 292.400,234.890 292.400 C 235.386 292.400,236.400 291.357,236.400 290.847 C 236.400 290.314,238.314 288.400,238.847 288.400 C 239.377 288.400,240.400 287.377,240.400 286.847 C 240.400 286.314,242.314 284.400,242.847 284.400 C 243.901 284.400,244.576 282.989,244.738 280.445 C 244.900 277.892,245.694 276.400,246.890 276.400 C 247.365 276.400,248.400 275.365,248.400 274.890 C 248.400 274.688,248.734 274.137,249.142 273.667 L 249.884 272.811 290.471 272.706 C 337.238 272.584,332.468 273.074,332.734 268.368 C 332.872 265.922,332.796 265.579,331.943 264.833 C 330.962 263.974,328.939 261.981,327.643 260.600 C 327.231 260.160,326.422 259.477,325.847 259.081 C 324.914 258.441,324.800 258.101,324.800 255.967 C 324.800 253.981,324.646 253.438,323.900 252.789 C 322.966 251.977,320.944 249.987,319.643 248.600 C 319.231 248.160,318.422 247.477,317.847 247.081 C 316.914 246.441,316.800 246.101,316.800 243.967 C 316.800 241.981,316.646 241.438,315.900 240.789 C 314.966 239.977,312.944 237.987,311.643 236.600 C 311.231 236.160,310.422 235.477,309.847 235.081 C 308.931 234.453,308.800 234.086,308.800 232.155 C 308.800 229.527,308.380 228.617,306.786 227.793 C 306.131 227.454,305.139 226.454,304.581 225.569 C 304.023 224.685,303.259 223.853,302.883 223.720 C 301.268 223.148,300.800 222.319,300.800 220.027 C 300.800 217.549,300.110 216.174,298.574 215.590 C 298.055 215.393,297.165 214.495,296.598 213.596 C 296.030 212.697,295.259 211.853,294.883 211.720 C 293.031 211.065,292.800 210.453,292.800 206.213 C 292.800 202.125,293.406 200.400,294.844 200.400 C 295.339 200.400,296.400 199.393,296.400 198.924 C 296.400 198.431,298.367 196.400,298.845 196.400 C 299.823 196.400,300.548 195.013,300.697 192.858 C 300.881 190.182,301.428 188.908,302.545 188.554 C 304.084 188.066,304.564 187.165,304.738 184.445 C 304.900 181.892,305.694 180.400,306.890 180.400 C 307.386 180.400,308.400 179.357,308.400 178.847 C 308.400 178.314,310.314 176.400,310.847 176.400 C 311.901 176.400,312.576 174.989,312.738 172.445 C 312.900 169.892,313.694 168.400,314.890 168.400 C 315.386 168.400,316.400 167.357,316.400 166.847 C 316.400 166.314,318.314 164.400,318.847 164.400 C 319.901 164.400,320.576 162.989,320.738 160.445 C 320.900 157.892,321.694 156.400,322.890 156.400 C 323.386 156.400,324.400 155.357,324.400 154.847 C 324.400 154.314,326.314 152.400,326.847 152.400 C 327.901 152.400,328.576 150.989,328.738 148.445 C 328.900 145.892,329.694 144.400,330.890 144.400 C 331.386 144.400,332.400 143.357,332.400 142.847 C 332.400 142.314,334.314 140.400,334.847 140.400 C 336.275 140.400,337.061 138.010,336.045 136.756 L 335.271 135.800 292.555 135.600 L 249.839 135.400 248.782 133.844 C 248.201 132.988,247.238 132.033,246.643 131.721 C 246.047 131.409,245.211 130.580,244.785 129.880 C 244.359 129.179,243.333 128.147,242.505 127.586 C 241.059 126.606,240.992 126.459,240.800 123.837 C 240.631 121.535,240.451 121.004,239.649 120.453 C 238.790 119.863,237.908 119.015,235.643 116.600 C 235.231 116.160,234.422 115.477,233.847 115.081 C 232.914 114.441,232.800 114.101,232.800 111.967 C 232.800 109.981,232.646 109.438,231.900 108.789 C 230.966 107.977,228.944 105.987,227.643 104.600 C 227.231 104.160,226.422 103.477,225.847 103.081 C 224.931 102.453,224.800 102.086,224.800 100.155 C 224.800 97.518,224.380 96.617,222.760 95.779 C 222.091 95.433,221.175 94.525,220.724 93.761 C 220.273 92.996,219.377 92.099,218.734 91.766 C 218.091 91.433,217.215 90.586,216.788 89.884 C 216.360 89.181,215.333 88.147,214.505 87.586 C 213.059 86.606,212.992 86.459,212.800 83.837 C 212.631 81.535,212.451 81.004,211.649 80.453 C 210.790 79.863,209.908 79.015,207.643 76.600 C 207.231 76.160,206.422 75.477,205.847 75.081 C 204.914 74.441,204.800 74.101,204.800 71.967 C 204.800 69.981,204.646 69.438,203.900 68.789 C 202.745 67.785,200.615 65.655,199.611 64.500 C 198.610 63.349,197.567 63.357,196.470 64.526 M199.600 66.180 C 199.600 66.612,201.358 68.400,201.783 68.400 C 202.819 68.400,203.600 70.033,203.600 72.202 C 203.600 74.390,204.645 76.400,205.783 76.400 C 206.199 76.400,207.600 77.790,207.600 78.202 C 207.600 78.618,209.370 80.400,209.783 80.400 C 210.819 80.400,211.600 82.033,211.600 84.202 C 211.600 86.390,212.645 88.400,213.783 88.400 C 214.199 88.400,215.600 89.790,215.600 90.202 C 215.600 90.618,217.370 92.400,217.783 92.400 C 218.199 92.400,219.600 93.790,219.600 94.202 C 219.600 94.618,221.370 96.400,221.783 96.400 C 222.819 96.400,223.600 98.033,223.600 100.202 C 223.600 102.390,224.645 104.400,225.783 104.400 C 226.199 104.400,227.600 105.790,227.600 106.202 C 227.600 106.618,229.370 108.400,229.783 108.400 C 230.819 108.400,231.600 110.033,231.600 112.202 C 231.600 114.390,232.645 116.400,233.783 116.400 C 234.199 116.400,235.600 117.790,235.600 118.202 C 235.600 118.618,237.370 120.400,237.783 120.400 C 238.819 120.400,239.600 122.033,239.600 124.202 C 239.600 126.390,240.645 128.400,241.783 128.400 C 242.199 128.400,243.600 129.790,243.600 130.202 C 243.600 130.618,245.370 132.400,245.783 132.400 C 246.199 132.400,247.600 133.790,247.600 134.202 C 247.600 134.307,247.992 134.845,248.472 135.397 L 249.344 136.400 291.783 136.400 L 334.222 136.400 334.972 137.276 C 335.716 138.145,335.711 138.162,334.361 139.255 C 333.613 139.862,332.867 140.503,332.706 140.679 C 331.394 142.108,329.553 143.959,328.667 144.742 C 327.740 145.560,327.600 145.991,327.600 148.022 C 327.600 150.258,327.535 150.408,326.100 151.477 C 325.275 152.092,324.432 152.866,324.227 153.198 C 323.866 153.779,322.877 154.762,320.656 156.742 C 319.743 157.557,319.600 157.999,319.600 160.022 C 319.600 162.258,319.535 162.408,318.100 163.477 C 317.275 164.092,316.432 164.866,316.227 165.198 C 315.866 165.779,314.877 166.762,312.656 168.742 C 311.743 169.557,311.600 169.999,311.600 172.022 C 311.600 174.258,311.535 174.408,310.100 175.477 C 309.275 176.092,308.432 176.866,308.227 177.198 C 307.866 177.779,306.877 178.762,304.656 180.742 C 303.743 181.557,303.600 181.999,303.600 184.022 C 303.600 186.257,303.534 186.408,302.100 187.480 C 299.865 189.149,299.627 189.590,299.613 192.080 C 299.601 194.243,299.523 194.417,298.100 195.477 C 297.275 196.092,296.432 196.866,296.227 197.198 C 295.866 197.779,294.877 198.762,292.656 200.742 C 290.271 202.869,291.238 211.131,294.039 212.552 C 294.525 212.799,295.119 213.346,295.361 213.769 C 296.086 215.038,297.318 216.400,297.741 216.400 C 298.904 216.400,299.600 217.778,299.600 220.079 C 299.600 222.559,300.170 223.604,302.039 224.552 C 302.525 224.799,303.119 225.346,303.361 225.769 C 304.112 227.083,305.324 228.400,305.783 228.400 C 306.819 228.400,307.600 230.033,307.600 232.202 C 307.600 234.390,308.645 236.400,309.783 236.400 C 310.199 236.400,311.600 237.790,311.600 238.202 C 311.600 238.618,313.370 240.400,313.783 240.400 C 314.819 240.400,315.600 242.033,315.600 244.202 C 315.600 246.390,316.645 248.400,317.783 248.400 C 318.199 248.400,319.600 249.790,319.600 250.202 C 319.600 250.618,321.370 252.400,321.783 252.400 C 322.819 252.400,323.600 254.033,323.600 256.202 C 323.600 258.390,324.645 260.400,325.783 260.400 C 326.199 260.400,327.600 261.790,327.600 262.202 C 327.600 262.618,329.370 264.400,329.783 264.400 C 331.461 264.400,332.339 269.320,330.938 270.869 C 330.305 271.568,328.510 271.600,289.980 271.600 L 249.684 271.600 248.742 272.656 C 247.542 274.002,246.002 275.542,244.656 276.742 C 243.740 277.559,243.600 277.997,243.600 280.046 C 243.600 282.338,243.554 282.440,242.038 283.504 C 241.178 284.107,240.173 285.103,239.804 285.718 C 239.435 286.333,238.532 287.230,237.797 287.712 C 237.063 288.194,236.173 289.077,235.820 289.675 C 235.466 290.272,234.598 291.169,233.889 291.666 C 231.918 293.050,231.626 293.614,231.613 296.080 C 231.601 298.243,231.523 298.417,230.100 299.477 C 229.275 300.092,228.432 300.866,228.227 301.198 C 227.866 301.779,226.877 302.762,224.656 304.742 C 223.743 305.557,223.600 305.999,223.600 308.022 C 223.600 310.258,223.535 310.408,222.100 311.477 C 221.275 312.092,220.432 312.866,220.227 313.198 C 219.866 313.779,218.877 314.762,216.656 316.742 C 215.740 317.559,215.600 317.997,215.600 320.046 C 215.600 322.338,215.554 322.440,214.038 323.504 C 213.178 324.107,212.173 325.103,211.804 325.718 C 211.435 326.333,210.532 327.230,209.797 327.712 C 209.063 328.194,208.173 329.077,207.820 329.675 C 207.466 330.272,206.598 331.169,205.889 331.666 C 203.918 333.050,203.626 333.614,203.613 336.080 C 203.601 338.243,203.523 338.417,202.100 339.477 C 201.275 340.092,200.455 340.822,200.279 341.100 C 198.684 343.607,196.400 344.009,196.400 341.783 C 196.400 341.370,194.618 339.600,194.202 339.600 C 193.790 339.600,192.400 338.199,192.400 337.783 C 192.400 337.370,190.618 335.600,190.202 335.600 C 189.140 335.600,188.400 334.032,188.400 331.783 C 188.400 329.519,187.392 327.600,186.202 327.600 C 185.790 327.600,184.400 326.199,184.400 325.783 C 184.400 325.370,182.618 323.600,182.202 323.600 C 181.790 323.600,180.400 322.199,180.400 321.783 C 180.400 321.370,178.618 319.600,178.202 319.600 C 177.140 319.600,176.400 318.032,176.400 315.783 C 176.400 313.519,175.392 311.600,174.202 311.600 C 173.790 311.600,172.400 310.199,172.400 309.783 C 172.400 309.370,170.618 307.600,170.202 307.600 C 169.790 307.600,168.400 306.199,168.400 305.783 C 168.400 305.370,166.618 303.600,166.202 303.600 C 165.140 303.600,164.400 302.032,164.400 299.783 C 164.400 297.519,163.392 295.600,162.202 295.600 C 161.790 295.600,160.400 294.199,160.400 293.783 C 160.400 293.370,158.618 291.600,158.202 291.600 C 157.790 291.600,156.400 290.199,156.400 289.783 C 156.400 289.370,154.618 287.600,154.202 287.600 C 153.140 287.600,152.400 286.032,152.400 283.783 C 152.400 281.519,151.392 279.600,150.202 279.600 C 149.790 279.600,148.400 278.199,148.400 277.783 C 148.400 277.370,146.618 275.600,146.202 275.600 C 145.790 275.600,144.400 274.199,144.400 273.783 C 144.400 273.542,143.949 272.952,143.397 272.472 L 142.394 271.600 102.202 271.600 C 56.424 271.600,60.400 271.928,60.400 268.147 C 60.400 266.281,60.532 265.968,61.700 265.050 C 62.415 264.489,63.243 263.771,63.540 263.455 C 64.720 262.199,67.038 259.928,67.700 259.380 C 68.222 258.947,68.400 258.200,68.400 256.436 C 68.400 254.244,68.495 253.996,69.700 253.050 C 70.415 252.489,71.243 251.771,71.540 251.455 C 72.720 250.199,75.038 247.928,75.700 247.380 C 76.222 246.947,76.400 246.200,76.400 244.436 C 76.400 242.244,76.495 241.996,77.700 241.050 C 78.415 240.489,79.243 239.771,79.540 239.455 C 80.690 238.231,82.797 236.168,83.580 235.500 C 84.235 234.941,84.400 234.325,84.400 232.436 C 84.400 230.244,84.495 229.996,85.700 229.050 C 86.415 228.489,87.243 227.771,87.540 227.455 C 88.720 226.199,91.038 223.928,91.700 223.380 C 92.222 222.947,92.400 222.200,92.400 220.436 C 92.400 218.244,92.495 217.996,93.700 217.050 C 94.415 216.489,95.243 215.771,95.540 215.455 C 96.705 214.215,98.918 212.048,99.640 211.440 C 101.608 209.782,100.371 199.600,98.202 199.600 C 97.140 199.600,96.400 198.032,96.400 195.783 C 96.400 193.519,95.392 191.600,94.202 191.600 C 93.790 191.600,92.400 190.199,92.400 189.783 C 92.400 189.370,90.618 187.600,90.202 187.600 C 89.140 187.600,88.400 186.032,88.400 183.783 C 88.400 181.519,87.392 179.600,86.202 179.600 C 85.790 179.600,84.400 178.199,84.400 177.783 C 84.400 177.370,82.618 175.600,82.202 175.600 C 81.140 175.600,80.400 174.032,80.400 171.783 C 80.400 169.519,79.392 167.600,78.202 167.600 C 77.790 167.600,76.400 166.199,76.400 165.783 C 76.400 165.370,74.618 163.600,74.202 163.600 C 73.140 163.600,72.400 162.032,72.400 159.783 C 72.400 157.519,71.392 155.600,70.202 155.600 C 69.790 155.600,68.400 154.199,68.400 153.783 C 68.400 153.370,66.618 151.600,66.202 151.600 C 65.140 151.600,64.400 150.032,64.400 147.783 C 64.400 145.519,63.392 143.600,62.202 143.600 C 61.790 143.600,60.400 142.199,60.400 141.783 C 60.400 141.370,58.618 139.600,58.202 139.600 C 57.037 139.600,56.463 138.184,57.277 137.318 L 58.139 136.400 100.470 136.400 C 142.650 136.400,142.802 136.397,143.500 135.580 C 143.885 135.129,144.803 134.157,145.540 133.420 C 146.277 132.683,147.150 131.810,147.480 131.480 C 147.810 131.150,148.737 130.223,149.540 129.420 C 150.343 128.617,151.315 127.699,151.700 127.380 C 152.222 126.947,152.400 126.200,152.400 124.436 C 152.400 122.244,152.495 121.996,153.700 121.050 C 154.415 120.489,155.243 119.771,155.540 119.455 C 155.837 119.139,156.710 118.250,157.480 117.480 C 158.250 116.710,159.123 115.837,159.420 115.540 C 159.717 115.243,160.617 114.343,161.420 113.540 C 162.223 112.737,163.222 111.792,163.640 111.440 C 164.229 110.944,164.400 110.267,164.400 108.436 C 164.400 106.244,164.495 105.996,165.700 105.050 C 166.415 104.489,167.216 103.798,167.480 103.515 C 167.744 103.232,168.590 102.370,169.360 101.600 C 170.130 100.830,171.057 99.903,171.420 99.540 C 171.783 99.177,172.710 98.250,173.480 97.480 C 174.250 96.710,175.222 95.792,175.640 95.440 C 176.229 94.944,176.400 94.267,176.400 92.436 C 176.400 90.244,176.495 89.996,177.700 89.050 C 178.415 88.489,179.216 87.798,179.480 87.515 C 179.744 87.232,180.644 86.316,181.480 85.480 C 182.316 84.644,183.243 83.717,183.540 83.420 C 183.837 83.123,184.710 82.250,185.480 81.480 C 186.250 80.710,187.222 79.792,187.640 79.440 C 188.229 78.944,188.400 78.267,188.400 76.436 C 188.400 74.244,188.495 73.996,189.700 73.050 C 190.415 72.489,191.243 71.771,191.540 71.455 C 192.237 70.713,194.713 68.237,195.455 67.540 C 195.771 67.243,196.496 66.406,197.067 65.680 C 198.039 64.444,199.600 64.752,199.600 66.180 " stroke="none" fill="#c8d454" fill-rule="evenodd"></path><path id="path4" d="M180.968 139.554 C 180.291 139.967,179.504 140.867,179.220 141.553 L 178.703 142.800 174.451 142.801 C 169.621 142.803,168.122 143.373,167.220 145.553 C 166.728 146.740,166.594 146.800,164.451 146.801 C 161.786 146.803,159.970 147.741,159.246 149.489 C 158.962 150.174,158.173 150.951,157.373 151.332 C 156.561 151.720,155.725 152.549,155.345 153.345 C 154.971 154.132,154.132 154.971,153.345 155.345 C 152.559 155.720,151.720 156.559,151.345 157.345 C 150.971 158.132,150.132 158.971,149.345 159.345 C 148.559 159.720,147.720 160.559,147.345 161.345 C 146.971 162.132,146.132 162.971,145.345 163.345 C 144.549 163.725,143.720 164.561,143.332 165.373 C 142.951 166.173,142.174 166.962,141.489 167.246 C 139.741 167.970,138.803 169.786,138.801 172.451 C 138.800 174.594,138.740 174.728,137.553 175.220 C 135.373 176.122,134.803 177.621,134.801 182.451 L 134.800 186.703 133.553 187.220 C 130.851 188.339,130.803 188.631,130.801 204.068 C 130.800 219.421,130.850 219.747,133.387 220.865 L 134.600 221.400 134.705 225.600 C 134.824 230.391,135.412 231.995,137.368 232.857 C 138.504 233.358,138.609 233.571,138.710 235.600 C 138.844 238.293,139.813 240.257,141.256 240.760 C 141.878 240.976,142.737 241.830,143.270 242.762 C 143.796 243.681,144.665 244.550,145.270 244.762 C 145.875 244.974,146.744 245.843,147.270 246.762 C 147.796 247.681,148.665 248.550,149.270 248.762 C 149.875 248.974,150.744 249.843,151.270 250.762 C 151.796 251.681,152.665 252.550,153.270 252.762 C 153.875 252.974,154.744 253.843,155.270 254.762 C 155.796 255.681,156.665 256.550,157.270 256.762 C 157.875 256.974,158.744 257.843,159.270 258.762 C 160.327 260.609,161.582 261.200,164.448 261.200 C 166.277 261.200,166.423 261.282,167.288 262.793 C 168.454 264.831,169.553 265.200,174.448 265.200 L 178.376 265.200 179.288 266.793 C 180.636 269.148,181.002 269.200,196.200 269.200 C 211.595 269.200,211.987 269.143,212.915 266.779 L 213.536 265.200 217.708 265.200 C 223.015 265.200,224.109 264.833,224.915 262.779 C 225.532 261.210,225.550 261.200,227.708 261.200 C 230.942 261.200,232.269 260.608,232.827 258.917 C 233.187 257.827,233.653 257.358,234.835 256.893 C 236.010 256.432,236.484 255.958,236.835 254.893 C 237.186 253.829,237.661 253.355,238.835 252.893 C 240.010 252.432,240.484 251.958,240.835 250.893 C 241.186 249.829,241.661 249.355,242.835 248.893 C 244.010 248.432,244.484 247.958,244.835 246.893 C 245.184 245.837,245.662 245.354,246.804 244.905 C 247.937 244.460,248.460 243.937,248.905 242.804 C 249.357 241.654,249.835 241.184,250.917 240.827 C 252.608 240.269,253.200 238.942,253.200 235.708 C 253.200 233.555,253.214 233.530,254.755 232.925 C 256.858 232.099,257.200 231.124,257.200 225.949 L 257.200 221.536 258.755 220.925 C 261.188 219.969,261.200 219.887,261.200 203.857 C 261.200 187.708,261.335 188.518,258.388 186.994 L 257.200 186.379 257.200 181.865 C 257.200 176.911,256.960 176.324,254.388 174.994 C 253.320 174.441,253.200 174.185,253.200 172.449 C 253.200 169.582,252.609 168.328,250.762 167.270 C 249.843 166.744,248.974 165.875,248.762 165.270 C 248.550 164.665,247.681 163.796,246.762 163.270 C 245.843 162.744,244.974 161.875,244.762 161.270 C 244.550 160.665,243.681 159.796,242.762 159.270 C 241.843 158.744,240.974 157.875,240.762 157.270 C 240.550 156.665,239.681 155.796,238.762 155.270 C 237.843 154.744,236.974 153.875,236.762 153.270 C 236.550 152.665,235.681 151.796,234.762 151.270 C 233.830 150.737,232.976 149.878,232.760 149.256 C 232.257 147.813,230.293 146.844,227.600 146.710 C 225.571 146.609,225.358 146.504,224.857 145.368 C 223.995 143.412,222.391 142.824,217.600 142.705 L 213.400 142.600 212.865 141.387 C 211.747 138.850,211.421 138.800,196.068 138.801 C 183.206 138.803,182.111 138.857,180.968 139.554 M210.869 141.462 C 211.271 141.826,211.600 142.353,211.600 142.633 C 211.600 144.117,213.593 144.800,217.922 144.800 C 222.215 144.800,223.600 145.247,223.600 146.633 C 223.600 147.788,225.650 148.800,227.992 148.800 C 230.322 148.800,231.146 149.261,231.720 150.883 C 231.853 151.259,232.697 152.030,233.596 152.598 C 234.495 153.165,235.397 154.066,235.600 154.600 C 235.803 155.134,236.703 156.034,237.600 156.600 C 238.497 157.166,239.397 158.066,239.600 158.600 C 239.803 159.134,240.703 160.034,241.600 160.600 C 242.497 161.166,243.397 162.066,243.600 162.600 C 243.803 163.134,244.703 164.034,245.600 164.600 C 246.497 165.166,247.392 166.053,247.589 166.570 C 247.785 167.088,248.723 168.032,249.673 168.668 C 251.382 169.813,251.402 169.855,251.600 172.582 C 251.798 175.317,251.814 175.347,253.600 176.601 L 255.400 177.864 255.600 182.600 L 255.800 187.336 257.600 188.601 L 259.400 189.867 259.505 203.999 C 259.616 218.904,259.544 219.537,257.717 219.613 C 256.097 219.681,255.600 221.103,255.600 225.675 C 255.600 230.283,255.154 231.600,253.595 231.600 C 252.421 231.600,251.600 233.245,251.600 235.600 C 251.600 237.958,250.779 239.600,249.600 239.600 C 249.081 239.600,247.600 241.081,247.600 241.600 C 247.600 242.119,246.119 243.600,245.600 243.600 C 245.081 243.600,243.600 245.081,243.600 245.600 C 243.600 246.119,242.119 247.600,241.600 247.600 C 241.081 247.600,239.600 249.081,239.600 249.600 C 239.600 250.119,238.119 251.600,237.600 251.600 C 237.081 251.600,235.600 253.081,235.600 253.600 C 235.600 254.119,234.119 255.600,233.600 255.600 C 233.081 255.600,231.600 257.081,231.600 257.600 C 231.600 258.779,229.958 259.600,227.600 259.600 C 225.242 259.600,223.600 260.421,223.600 261.600 C 223.600 263.079,222.036 263.600,217.600 263.600 C 213.164 263.600,211.600 264.121,211.600 265.600 C 211.600 267.525,210.847 267.617,195.928 267.505 L 181.867 267.400 180.601 265.600 L 179.336 263.800 174.600 263.600 L 169.864 263.400 168.601 261.600 C 167.347 259.814,167.317 259.798,164.582 259.600 C 161.855 259.402,161.813 259.382,160.668 257.673 C 160.032 256.723,159.088 255.785,158.570 255.589 C 158.053 255.392,157.166 254.497,156.600 253.600 C 156.034 252.703,155.134 251.803,154.600 251.600 C 154.066 251.397,153.166 250.497,152.600 249.600 C 152.034 248.703,151.134 247.803,150.600 247.600 C 150.066 247.397,149.166 246.497,148.600 245.600 C 148.034 244.703,147.134 243.803,146.600 243.600 C 146.066 243.397,145.165 242.495,144.598 241.596 C 144.030 240.697,143.259 239.853,142.883 239.720 C 141.261 239.146,140.800 238.322,140.800 235.992 C 140.800 233.707,139.794 231.600,138.702 231.600 C 137.230 231.600,136.800 230.332,136.800 225.992 C 136.800 221.656,136.125 219.600,134.702 219.600 C 132.862 219.600,132.800 219.098,132.800 204.109 C 132.800 189.575,132.879 188.800,134.353 188.800 C 136.052 188.800,136.800 186.829,136.800 182.353 C 136.800 177.992,137.133 176.800,138.353 176.800 C 139.667 176.800,140.800 174.742,140.800 172.353 C 140.800 170.025,141.335 168.800,142.353 168.800 C 142.886 168.800,144.800 166.886,144.800 166.353 C 144.800 165.823,145.823 164.800,146.353 164.800 C 146.886 164.800,148.800 162.886,148.800 162.353 C 148.800 161.823,149.823 160.800,150.353 160.800 C 150.886 160.800,152.800 158.886,152.800 158.353 C 152.800 157.823,153.823 156.800,154.353 156.800 C 154.886 156.800,156.800 154.886,156.800 154.353 C 156.800 153.823,157.823 152.800,158.353 152.800 C 158.886 152.800,160.800 150.886,160.800 150.353 C 160.800 149.335,162.025 148.800,164.353 148.800 C 166.742 148.800,168.800 147.667,168.800 146.353 C 168.800 145.133,169.992 144.800,174.353 144.800 C 178.820 144.800,180.800 144.052,180.800 142.365 C 180.800 140.896,181.442 140.831,195.969 140.815 C 208.605 140.802,210.216 140.872,210.869 141.462 " stroke="none" fill="#58d478" fill-rule="evenodd"></path></g></svg>