<svg id="svg" version="1.1" xmlns="http://www.w3.org/2000/svg" xmlns:xlink="http://www.w3.org/1999/xlink" width="400" height="400" viewBox="0, 0, 400,400"><g id="svgg"><path id="path0" d="M193.300 137.398 C 193.025 137.711,192.800 138.146,192.800 138.365 C 192.800 138.889,190.880 140.800,190.353 140.800 C 189.823 140.800,188.800 141.823,188.800 142.353 C 188.800 142.579,188.342 143.222,187.782 143.782 C 187.222 144.342,186.579 144.800,186.353 144.800 C 185.823 144.800,184.800 145.823,184.800 146.353 C 184.800 146.886,182.886 148.800,182.353 148.800 C 182.128 148.800,181.686 149.057,181.371 149.371 C 181.057 149.686,180.800 150.128,180.800 150.353 C 180.800 150.886,178.886 152.800,178.353 152.800 C 178.128 152.800,177.686 153.057,177.371 153.371 C 177.057 153.686,176.800 154.128,176.800 154.353 C 176.800 155.667,174.742 156.800,172.353 156.800 C 170.025 156.800,168.800 157.335,168.800 158.353 C 168.800 158.886,166.886 160.800,166.353 160.800 C 165.823 160.800,164.800 161.823,164.800 162.353 C 164.800 162.886,162.886 164.800,162.353 164.800 C 161.823 164.800,160.800 165.823,160.800 166.353 C 160.800 166.579,160.342 167.222,159.782 167.782 C 159.222 168.342,158.579 168.800,158.353 168.800 C 157.823 168.800,156.800 169.823,156.800 170.353 C 156.800 170.886,154.886 172.800,154.353 172.800 C 153.823 172.800,152.800 173.823,152.800 174.353 C 152.800 175.667,150.742 176.800,148.353 176.800 C 146.025 176.800,144.800 177.335,144.800 178.353 C 144.800 178.886,142.886 180.800,142.353 180.800 C 141.823 180.800,140.800 181.823,140.800 182.353 C 140.800 182.579,140.342 183.222,139.782 183.782 C 139.222 184.342,138.579 184.800,138.353 184.800 C 138.128 184.800,137.686 185.057,137.371 185.371 C 137.057 185.686,136.800 186.128,136.800 186.353 C 136.800 186.579,136.342 187.222,135.782 187.782 C 135.222 188.342,134.579 188.800,134.353 188.800 C 133.151 188.800,132.800 189.998,132.800 194.109 C 132.800 198.447,133.026 199.065,134.853 199.709 C 135.212 199.835,136.029 200.718,136.667 201.669 L 137.828 203.400 141.900 203.514 C 146.015 203.629,147.600 203.097,147.600 201.600 C 147.600 201.081,149.081 199.600,149.600 199.600 C 149.820 199.600,150.360 199.240,150.800 198.800 C 151.240 198.360,151.600 197.820,151.600 197.600 C 151.600 197.081,153.081 195.600,153.600 195.600 C 153.820 195.600,154.360 195.240,154.800 194.800 C 155.240 194.360,155.600 193.820,155.600 193.600 C 155.600 192.421,157.242 191.600,159.600 191.600 C 161.958 191.600,163.600 190.779,163.600 189.600 C 163.600 189.380,163.960 188.840,164.400 188.400 C 164.840 187.960,165.380 187.600,165.600 187.600 C 166.119 187.600,167.600 186.119,167.600 185.600 C 167.600 185.380,167.960 184.840,168.400 184.400 C 168.840 183.960,169.380 183.600,169.600 183.600 C 170.119 183.600,171.600 182.119,171.600 181.600 C 171.600 181.380,171.960 180.840,172.400 180.400 C 172.840 179.960,173.380 179.600,173.600 179.600 C 173.820 179.600,174.360 179.240,174.800 178.800 C 175.240 178.360,175.600 177.820,175.600 177.600 C 175.600 177.380,175.960 176.840,176.400 176.400 C 176.840 175.960,177.380 175.600,177.600 175.600 C 177.820 175.600,178.360 175.240,178.800 174.800 C 179.240 174.360,179.600 173.820,179.600 173.600 C 179.600 172.421,181.242 171.600,183.600 171.600 C 185.958 171.600,187.600 170.779,187.600 169.600 C 187.600 169.380,187.960 168.840,188.400 168.400 C 188.840 167.960,189.380 167.600,189.600 167.600 C 189.820 167.600,190.360 167.240,190.800 166.800 C 191.240 166.360,191.600 165.820,191.600 165.600 C 191.600 165.380,191.960 164.840,192.400 164.400 C 192.840 163.960,193.380 163.600,193.600 163.600 C 193.820 163.600,194.360 163.240,194.800 162.800 C 195.240 162.360,195.600 161.820,195.600 161.600 C 195.600 160.845,197.200 159.600,198.171 159.600 C 199.766 159.600,200.800 161.327,200.800 163.992 C 200.800 166.322,201.261 167.146,202.883 167.720 C 203.259 167.853,204.030 168.697,204.598 169.596 C 205.165 170.495,206.066 171.397,206.600 171.600 C 207.134 171.803,208.034 172.703,208.600 173.600 C 209.166 174.497,210.066 175.397,210.600 175.600 C 211.134 175.803,212.034 176.703,212.600 177.600 C 213.166 178.497,214.066 179.397,214.600 179.600 C 215.134 179.803,216.034 180.703,216.600 181.600 C 217.166 182.497,218.066 183.397,218.600 183.600 C 219.134 183.803,220.034 184.703,220.600 185.600 C 221.166 186.497,222.055 187.393,222.574 187.590 C 224.110 188.174,224.800 189.549,224.800 192.027 C 224.800 194.319,225.268 195.148,226.883 195.720 C 227.259 195.853,228.030 196.697,228.598 197.596 C 229.165 198.495,230.066 199.397,230.600 199.600 C 231.134 199.803,232.034 200.703,232.600 201.600 C 233.166 202.497,234.053 203.392,234.570 203.589 C 235.088 203.785,236.033 204.723,236.670 205.673 L 237.828 207.400 241.900 207.514 C 246.015 207.629,247.600 207.097,247.600 205.600 C 247.600 205.081,249.081 203.600,249.600 203.600 C 251.097 203.600,251.629 202.015,251.514 197.900 L 251.400 193.828 249.673 192.670 C 248.723 192.033,247.785 191.088,247.589 190.570 C 247.392 190.053,246.497 189.166,245.600 188.600 C 244.703 188.034,243.808 187.147,243.611 186.630 C 243.415 186.112,242.477 185.168,241.527 184.532 C 239.816 183.385,239.798 183.349,239.600 180.600 C 239.402 177.851,239.384 177.815,237.673 176.668 C 236.723 176.032,235.785 175.088,235.589 174.570 C 235.392 174.053,234.497 173.166,233.600 172.600 C 232.703 172.034,231.803 171.134,231.600 170.600 C 231.397 170.066,230.497 169.166,229.600 168.600 C 228.703 168.034,227.803 167.134,227.600 166.600 C 227.397 166.066,226.497 165.166,225.600 164.600 C 224.703 164.034,223.803 163.134,223.600 162.600 C 223.397 162.066,222.497 161.166,221.600 160.600 C 220.703 160.034,219.808 159.147,219.611 158.630 C 219.415 158.112,218.477 157.168,217.527 156.532 C 215.816 155.385,215.798 155.349,215.600 152.600 C 215.402 149.851,215.384 149.815,213.673 148.668 C 212.723 148.032,211.785 147.088,211.589 146.570 C 211.392 146.053,210.497 145.166,209.600 144.600 C 208.703 144.034,207.803 143.134,207.600 142.600 C 207.397 142.066,206.495 141.165,205.596 140.598 C 204.697 140.030,203.853 139.259,203.720 138.883 C 203.058 137.013,202.471 136.799,198.038 136.815 C 194.894 136.827,193.671 136.977,193.300 137.398 M189.300 181.398 C 189.025 181.711,188.800 182.146,188.800 182.365 C 188.800 182.889,186.880 184.800,186.353 184.800 C 185.823 184.800,184.800 185.823,184.800 186.353 C 184.800 186.579,184.342 187.222,183.782 187.782 C 183.222 188.342,182.579 188.800,182.353 188.800 C 181.823 188.800,180.800 189.823,180.800 190.353 C 180.800 190.886,178.886 192.800,178.353 192.800 C 178.128 192.800,177.686 193.057,177.371 193.371 C 177.057 193.686,176.800 194.128,176.800 194.353 C 176.800 194.886,174.886 196.800,174.353 196.800 C 174.128 196.800,173.686 197.057,173.371 197.371 C 173.057 197.686,172.800 198.128,172.800 198.353 C 172.800 199.667,170.742 200.800,168.353 200.800 C 166.025 200.800,164.800 201.335,164.800 202.353 C 164.800 202.886,162.886 204.800,162.353 204.800 C 161.823 204.800,160.800 205.823,160.800 206.353 C 160.800 206.886,158.886 208.800,158.353 208.800 C 157.823 208.800,156.800 209.823,156.800 210.353 C 156.800 210.886,154.886 212.800,154.353 212.800 C 153.823 212.800,152.800 213.823,152.800 214.353 C 152.800 214.886,150.886 216.800,150.353 216.800 C 149.823 216.800,148.800 217.823,148.800 218.353 C 148.800 219.667,146.742 220.800,144.353 220.800 C 142.025 220.800,140.800 221.335,140.800 222.353 C 140.800 222.886,138.886 224.800,138.353 224.800 C 137.823 224.800,136.800 225.823,136.800 226.353 C 136.800 226.886,134.886 228.800,134.353 228.800 C 134.128 228.800,133.686 229.057,133.371 229.371 C 133.057 229.686,132.800 230.128,132.800 230.353 C 132.800 230.886,130.886 232.800,130.353 232.800 C 129.151 232.800,128.800 233.998,128.800 238.109 C 128.800 242.447,129.026 243.065,130.853 243.709 C 131.212 243.835,132.029 244.718,132.667 245.669 L 133.828 247.400 137.900 247.514 C 142.015 247.629,143.600 247.097,143.600 245.600 C 143.600 245.081,145.081 243.600,145.600 243.600 C 146.119 243.600,147.600 242.119,147.600 241.600 C 147.600 241.081,149.081 239.600,149.600 239.600 C 150.119 239.600,151.600 238.119,151.600 237.600 C 151.600 236.421,153.242 235.600,155.600 235.600 C 157.958 235.600,159.600 234.779,159.600 233.600 C 159.600 233.081,161.081 231.600,161.600 231.600 C 162.119 231.600,163.600 230.119,163.600 229.600 C 163.600 229.380,163.960 228.840,164.400 228.400 C 164.840 227.960,165.380 227.600,165.600 227.600 C 165.820 227.600,166.360 227.240,166.800 226.800 C 167.240 226.360,167.600 225.820,167.600 225.600 C 167.600 225.380,167.960 224.840,168.400 224.400 C 168.840 223.960,169.380 223.600,169.600 223.600 C 170.119 223.600,171.600 222.119,171.600 221.600 C 171.600 221.380,171.960 220.840,172.400 220.400 C 172.840 219.960,173.380 219.600,173.600 219.600 C 173.820 219.600,174.360 219.240,174.800 218.800 C 175.240 218.360,175.600 217.820,175.600 217.600 C 175.600 216.421,177.242 215.600,179.600 215.600 C 181.958 215.600,183.600 214.779,183.600 213.600 C 183.600 213.081,185.081 211.600,185.600 211.600 C 186.119 211.600,187.600 210.119,187.600 209.600 C 187.600 209.081,189.081 207.600,189.600 207.600 C 190.119 207.600,191.600 206.119,191.600 205.600 C 191.600 204.845,193.200 203.600,194.171 203.600 C 195.766 203.600,196.800 205.327,196.800 207.992 C 196.800 210.322,197.261 211.146,198.883 211.720 C 199.259 211.853,200.030 212.697,200.598 213.596 C 201.165 214.495,202.066 215.397,202.600 215.600 C 203.134 215.803,204.034 216.703,204.600 217.600 C 205.166 218.497,206.066 219.397,206.600 219.600 C 207.134 219.803,208.034 220.703,208.600 221.600 C 209.166 222.497,210.066 223.397,210.600 223.600 C 211.134 223.803,212.034 224.703,212.600 225.600 C 213.166 226.497,214.066 227.397,214.600 227.600 C 215.134 227.803,216.034 228.703,216.600 229.600 C 217.166 230.497,218.055 231.393,218.574 231.590 C 220.110 232.174,220.800 233.549,220.800 236.027 C 220.800 238.319,221.268 239.148,222.883 239.720 C 223.259 239.853,224.030 240.697,224.598 241.596 C 225.165 242.495,226.066 243.397,226.600 243.600 C 227.134 243.803,228.034 244.703,228.600 245.600 C 229.166 246.497,230.053 247.392,230.570 247.589 C 231.088 247.785,232.033 248.723,232.670 249.673 L 233.828 251.400 237.900 251.514 C 242.015 251.629,243.600 251.097,243.600 249.600 C 243.600 249.081,245.081 247.600,245.600 247.600 C 247.097 247.600,247.629 246.015,247.514 241.900 L 247.400 237.828 245.673 236.670 C 244.723 236.033,243.785 235.088,243.589 234.570 C 243.392 234.053,242.497 233.166,241.600 232.600 C 240.703 232.034,239.808 231.147,239.611 230.630 C 239.415 230.112,238.477 229.168,237.527 228.532 C 235.816 227.385,235.798 227.349,235.600 224.600 C 235.402 221.851,235.384 221.815,233.673 220.668 C 232.723 220.032,231.785 219.088,231.589 218.570 C 231.392 218.053,230.497 217.166,229.600 216.600 C 228.703 216.034,227.803 215.134,227.600 214.600 C 227.397 214.066,226.497 213.166,225.600 212.600 C 224.703 212.034,223.803 211.134,223.600 210.600 C 223.397 210.066,222.497 209.166,221.600 208.600 C 220.703 208.034,219.803 207.134,219.600 206.600 C 219.397 206.066,218.497 205.166,217.600 204.600 C 216.703 204.034,215.808 203.147,215.611 202.630 C 215.415 202.112,214.477 201.168,213.527 200.532 C 211.816 199.385,211.798 199.349,211.600 196.600 C 211.402 193.851,211.384 193.815,209.673 192.668 C 208.723 192.032,207.785 191.088,207.589 190.570 C 207.392 190.053,206.497 189.166,205.600 188.600 C 204.703 188.034,203.803 187.134,203.600 186.600 C 203.397 186.066,202.495 185.165,201.596 184.598 C 200.697 184.030,199.853 183.259,199.720 182.883 C 199.058 181.013,198.471 180.799,194.038 180.815 C 190.894 180.827,189.671 180.977,189.300 181.398 " stroke="none" fill="#9cdcec" fill-rule="evenodd"></path><path id="path1" d="M197.067 65.680 C 196.496 66.406,195.771 67.243,195.455 67.540 C 194.713 68.237,192.237 70.713,191.540 71.455 C 191.243 71.771,190.415 72.489,189.700 73.050 C 188.495 73.996,188.400 74.244,188.400 76.436 C 188.400 78.267,188.229 78.944,187.640 79.440 C 187.222 79.792,186.250 80.710,185.480 81.480 C 184.710 82.250,183.837 83.123,183.540 83.420 C 183.243 83.717,182.316 84.644,181.480 85.480 C 180.644 86.316,179.744 87.232,179.480 87.515 C 179.216 87.798,178.415 88.489,177.700 89.050 C 176.495 89.996,176.400 90.244,176.400 92.436 C 176.400 94.267,176.229 94.944,175.640 95.440 C 175.222 95.792,174.250 96.710,173.480 97.480 C 172.710 98.250,171.783 99.177,171.420 99.540 C 171.057 99.903,170.130 100.830,169.360 101.600 C 168.590 102.370,167.744 103.232,167.480 103.515 C 167.216 103.798,166.415 104.489,165.700 105.050 C 164.495 105.996,164.400 106.244,164.400 108.436 C 164.400 110.267,164.229 110.944,163.640 111.440 C 163.222 111.792,162.223 112.737,161.420 113.540 C 160.617 114.343,159.717 115.243,159.420 115.540 C 159.123 115.837,158.250 116.710,157.480 117.480 C 156.710 118.250,155.837 119.139,155.540 119.455 C 155.243 119.771,154.415 120.489,153.700 121.050 C 152.495 121.996,152.400 122.244,152.400 124.436 C 152.400 126.200,152.222 126.947,151.700 127.380 C 151.315 127.699,150.343 128.617,149.540 129.420 C 148.737 130.223,147.810 131.150,147.480 131.480 C 147.150 131.810,146.277 132.683,145.540 133.420 C 144.803 134.157,143.885 135.129,143.500 135.580 C 142.802 136.397,142.650 136.400,100.470 136.400 L 58.139 136.400 57.277 137.318 C 56.463 138.184,57.037 139.600,58.202 139.600 C 58.618 139.600,60.400 141.370,60.400 141.783 C 60.400 142.199,61.790 143.600,62.202 143.600 C 63.392 143.600,64.400 145.519,64.400 147.783 C 64.400 150.032,65.140 151.600,66.202 151.600 C 66.618 151.600,68.400 153.370,68.400 153.783 C 68.400 154.199,69.790 155.600,70.202 155.600 C 71.392 155.600,72.400 157.519,72.400 159.783 C 72.400 162.032,73.140 163.600,74.202 163.600 C 74.618 163.600,76.400 165.370,76.400 165.783 C 76.400 166.199,77.790 167.600,78.202 167.600 C 79.392 167.600,80.400 169.519,80.400 171.783 C 80.400 174.032,81.140 175.600,82.202 175.600 C 82.618 175.600,84.400 177.370,84.400 177.783 C 84.400 178.199,85.790 179.600,86.202 179.600 C 87.392 179.600,88.400 181.519,88.400 183.783 C 88.400 186.032,89.140 187.600,90.202 187.600 C 90.618 187.600,92.400 189.370,92.400 189.783 C 92.400 190.199,93.790 191.600,94.202 191.600 C 95.392 191.600,96.400 193.519,96.400 195.783 C 96.400 198.032,97.140 199.600,98.202 199.600 C 100.371 199.600,101.608 209.782,99.640 211.440 C 98.918 212.048,96.705 214.215,95.540 215.455 C 95.243 215.771,94.415 216.489,93.700 217.050 C 92.495 217.996,92.400 218.244,92.400 220.436 C 92.400 222.200,92.222 222.947,91.700 223.380 C 91.038 223.928,88.720 226.199,87.540 227.455 C 87.243 227.771,86.415 228.489,85.700 229.050 C 84.495 229.996,84.400 230.244,84.400 232.436 C 84.400 234.325,84.235 234.941,83.580 235.500 C 82.797 236.168,80.690 238.231,79.540 239.455 C 79.243 239.771,78.415 240.489,77.700 241.050 C 76.495 241.996,76.400 242.244,76.400 244.436 C 76.400 246.200,76.222 246.947,75.700 247.380 C 75.038 247.928,72.720 250.199,71.540 251.455 C 71.243 251.771,70.415 252.489,69.700 253.050 C 68.495 253.996,68.400 254.244,68.400 256.436 C 68.400 258.200,68.222 258.947,67.700 259.380 C 67.038 259.928,64.720 262.199,63.540 263.455 C 63.243 263.771,62.415 264.489,61.700 265.050 C 60.532 265.968,60.400 266.281,60.400 268.147 C 60.400 271.928,56.424 271.600,102.202 271.600 L 142.394 271.600 143.397 272.472 C 143.949 272.952,144.400 273.542,144.400 273.783 C 144.400 274.199,145.790 275.600,146.202 275.600 C 146.618 275.600,148.400 277.370,148.400 277.783 C 148.400 278.199,149.790 279.600,150.202 279.600 C 151.392 279.600,152.400 281.519,152.400 283.783 C 152.400 286.032,153.140 287.600,154.202 287.600 C 154.618 287.600,156.400 289.370,156.400 289.783 C 156.400 290.199,157.790 291.600,158.202 291.600 C 158.618 291.600,160.400 293.370,160.400 293.783 C 160.400 294.199,161.790 295.600,162.202 295.600 C 163.392 295.600,164.400 297.519,164.400 299.783 C 164.400 302.032,165.140 303.600,166.202 303.600 C 166.618 303.600,168.400 305.370,168.400 305.783 C 168.400 306.199,169.790 307.600,170.202 307.600 C 170.618 307.600,172.400 309.370,172.400 309.783 C 172.400 310.199,173.790 311.600,174.202 311.600 C 175.392 311.600,176.400 313.519,176.400 315.783 C 176.400 318.032,177.140 319.600,178.202 319.600 C 178.618 319.600,180.400 321.370,180.400 321.783 C 180.400 322.199,181.790 323.600,182.202 323.600 C 182.618 323.600,184.400 325.370,184.400 325.783 C 184.400 326.199,185.790 327.600,186.202 327.600 C 187.392 327.600,188.400 329.519,188.400 331.783 C 188.400 334.032,189.140 335.600,190.202 335.600 C 190.618 335.600,192.400 337.370,192.400 337.783 C 192.400 338.199,193.790 339.600,194.202 339.600 C 194.618 339.600,196.400 341.370,196.400 341.783 C 196.400 344.009,198.684 343.607,200.279 341.100 C 200.455 340.822,201.275 340.092,202.100 339.477 C 203.523 338.417,203.601 338.243,203.613 336.080 C 203.626 333.614,203.918 333.050,205.889 331.666 C 206.598 331.169,207.466 330.272,207.820 329.675 C 208.173 329.077,209.063 328.194,209.797 327.712 C 210.532 327.230,211.435 326.333,211.804 325.718 C 212.173 325.103,213.178 324.107,214.038 323.504 C 215.554 322.440,215.600 322.338,215.600 320.046 C 215.600 317.997,215.740 317.559,216.656 316.742 C 218.877 314.762,219.866 313.779,220.227 313.198 C 220.432 312.866,221.275 312.092,222.100 311.477 C 223.535 310.408,223.600 310.258,223.600 308.022 C 223.600 305.999,223.743 305.557,224.656 304.742 C 226.877 302.762,227.866 301.779,228.227 301.198 C 228.432 300.866,229.275 300.092,230.100 299.477 C 231.523 298.417,231.601 298.243,231.613 296.080 C 231.626 293.614,231.918 293.050,233.889 291.666 C 234.598 291.169,235.466 290.272,235.820 289.675 C 236.173 289.077,237.063 288.194,237.797 287.712 C 238.532 287.230,239.435 286.333,239.804 285.718 C 240.173 285.103,241.178 284.107,242.038 283.504 C 243.554 282.440,243.600 282.338,243.600 280.046 C 243.600 277.997,243.740 277.559,244.656 276.742 C 246.002 275.542,247.542 274.002,248.742 272.656 L 249.684 271.600 289.980 271.600 C 328.510 271.600,330.305 271.568,330.938 270.869 C 332.339 269.320,331.461 264.400,329.783 264.400 C 329.370 264.400,327.600 262.618,327.600 262.202 C 327.600 261.790,326.199 260.400,325.783 260.400 C 324.645 260.400,323.600 258.390,323.600 256.202 C 323.600 254.033,322.819 252.400,321.783 252.400 C 321.370 252.400,319.600 250.618,319.600 250.202 C 319.600 249.790,318.199 248.400,317.783 248.400 C 316.645 248.400,315.600 246.390,315.600 244.202 C 315.600 242.033,314.819 240.400,313.783 240.400 C 313.370 240.400,311.600 238.618,311.600 238.202 C 311.600 237.790,310.199 236.400,309.783 236.400 C 308.645 236.400,307.600 234.390,307.600 232.202 C 307.600 230.033,306.819 228.400,305.783 228.400 C 305.324 228.400,304.112 227.083,303.361 225.769 C 303.119 225.346,302.525 224.799,302.039 224.552 C 300.170 223.604,299.600 222.559,299.600 220.079 C 299.600 217.778,298.904 216.400,297.741 216.400 C 297.318 216.400,296.086 215.038,295.361 213.769 C 295.119 213.346,294.525 212.799,294.039 212.552 C 291.238 211.131,290.271 202.869,292.656 200.742 C 294.877 198.762,295.866 197.779,296.227 197.198 C 296.432 196.866,297.275 196.092,298.100 195.477 C 299.523 194.417,299.601 194.243,299.613 192.080 C 299.627 189.590,299.865 189.149,302.100 187.480 C 303.534 186.408,303.600 186.257,303.600 184.022 C 303.600 181.999,303.743 181.557,304.656 180.742 C 306.877 178.762,307.866 177.779,308.227 177.198 C 308.432 176.866,309.275 176.092,310.100 175.477 C 311.535 174.408,311.600 174.258,311.600 172.022 C 311.600 169.999,311.743 169.557,312.656 168.742 C 314.877 166.762,315.866 165.779,316.227 165.198 C 316.432 164.866,317.275 164.092,318.100 163.477 C 319.535 162.408,319.600 162.258,319.600 160.022 C 319.600 157.999,319.743 157.557,320.656 156.742 C 322.877 154.762,323.866 153.779,324.227 153.198 C 324.432 152.866,325.275 152.092,326.100 151.477 C 327.535 150.408,327.600 150.258,327.600 148.022 C 327.600 145.991,327.740 145.560,328.667 144.742 C 329.553 143.959,331.394 142.108,332.706 140.679 C 332.867 140.503,333.613 139.862,334.361 139.255 C 335.711 138.162,335.716 138.145,334.972 137.276 L 334.222 136.400 291.783 136.400 L 249.344 136.400 248.472 135.397 C 247.992 134.845,247.600 134.307,247.600 134.202 C 247.600 133.790,246.199 132.400,245.783 132.400 C 245.370 132.400,243.600 130.618,243.600 130.202 C 243.600 129.790,242.199 128.400,241.783 128.400 C 240.645 128.400,239.600 126.390,239.600 124.202 C 239.600 122.033,238.819 120.400,237.783 120.400 C 237.370 120.400,235.600 118.618,235.600 118.202 C 235.600 117.790,234.199 116.400,233.783 116.400 C 232.645 116.400,231.600 114.390,231.600 112.202 C 231.600 110.033,230.819 108.400,229.783 108.400 C 229.370 108.400,227.600 106.618,227.600 106.202 C 227.600 105.790,226.199 104.400,225.783 104.400 C 224.645 104.400,223.600 102.390,223.600 100.202 C 223.600 98.033,222.819 96.400,221.783 96.400 C 221.370 96.400,219.600 94.618,219.600 94.202 C 219.600 93.790,218.199 92.400,217.783 92.400 C 217.370 92.400,215.600 90.618,215.600 90.202 C 215.600 89.790,214.199 88.400,213.783 88.400 C 212.645 88.400,211.600 86.390,211.600 84.202 C 211.600 82.033,210.819 80.400,209.783 80.400 C 209.370 80.400,207.600 78.618,207.600 78.202 C 207.600 77.790,206.199 76.400,205.783 76.400 C 204.645 76.400,203.600 74.390,203.600 72.202 C 203.600 70.033,202.819 68.400,201.783 68.400 C 201.358 68.400,199.600 66.612,199.600 66.180 C 199.600 64.752,198.039 64.444,197.067 65.680 M203.161 135.500 C 203.836 135.885,204.556 136.682,204.763 137.270 C 204.975 137.876,205.843 138.744,206.762 139.270 C 207.681 139.796,208.550 140.665,208.762 141.270 C 208.974 141.875,209.843 142.744,210.762 143.270 C 211.681 143.796,212.550 144.665,212.762 145.270 C 212.974 145.875,213.843 146.744,214.762 147.270 C 216.609 148.327,217.200 149.582,217.200 152.448 C 217.200 154.277,217.282 154.423,218.793 155.288 C 219.686 155.799,220.552 156.671,220.762 157.270 C 220.974 157.875,221.843 158.744,222.762 159.270 C 223.681 159.796,224.550 160.665,224.762 161.270 C 224.974 161.875,225.843 162.744,226.762 163.270 C 227.681 163.796,228.550 164.665,228.762 165.270 C 228.974 165.875,229.843 166.744,230.762 167.270 C 231.681 167.796,232.550 168.665,232.762 169.270 C 232.974 169.875,233.843 170.744,234.762 171.270 C 235.681 171.796,236.550 172.665,236.762 173.270 C 236.974 173.875,237.843 174.744,238.762 175.270 C 240.609 176.327,241.200 177.582,241.200 180.448 C 241.200 182.277,241.282 182.423,242.793 183.288 C 243.686 183.799,244.552 184.671,244.762 185.270 C 244.974 185.875,245.843 186.744,246.762 187.270 C 247.681 187.796,248.550 188.665,248.762 189.270 C 248.974 189.875,249.843 190.744,250.762 191.270 C 254.250 193.267,254.370 203.688,250.917 204.827 C 249.829 205.186,249.358 205.653,248.897 206.827 C 247.507 210.364,237.304 210.315,235.270 206.762 C 234.744 205.843,233.875 204.974,233.270 204.762 C 232.665 204.550,231.796 203.681,231.270 202.762 C 230.744 201.843,229.875 200.974,229.270 200.762 C 228.665 200.550,227.796 199.681,227.270 198.762 C 226.737 197.830,225.878 196.976,225.256 196.760 C 223.813 196.257,222.844 194.293,222.710 191.600 C 222.609 189.580,222.501 189.356,221.389 188.866 C 220.724 188.573,219.765 187.614,219.260 186.735 C 218.746 185.842,217.868 184.972,217.270 184.762 C 216.665 184.550,215.796 183.681,215.270 182.762 C 214.744 181.843,213.875 180.974,213.270 180.762 C 212.665 180.550,211.796 179.681,211.270 178.762 C 210.744 177.843,209.875 176.974,209.270 176.762 C 208.665 176.550,207.796 175.681,207.270 174.762 C 206.744 173.843,205.875 172.974,205.270 172.762 C 204.665 172.550,203.796 171.681,203.270 170.762 C 202.737 169.830,201.878 168.976,201.256 168.760 C 199.819 168.259,198.845 166.296,198.710 163.631 C 198.572 160.915,197.804 160.518,196.940 162.717 C 196.459 163.941,195.961 164.451,194.804 164.905 C 193.662 165.354,193.184 165.837,192.835 166.893 C 192.484 167.958,192.010 168.432,190.835 168.893 C 189.653 169.358,189.187 169.827,188.827 170.917 C 188.269 172.608,186.942 173.200,183.708 173.200 C 181.555 173.200,181.530 173.214,180.924 174.756 C 180.460 175.939,179.951 176.455,178.804 176.905 C 177.662 177.354,177.184 177.837,176.835 178.893 C 176.484 179.958,176.010 180.432,174.835 180.893 C 173.661 181.355,173.186 181.829,172.835 182.893 C 172.484 183.958,172.010 184.432,170.835 184.893 C 169.650 185.359,169.187 185.827,168.825 186.926 C 168.459 188.033,168.033 188.459,166.926 188.825 C 165.829 189.187,165.359 189.650,164.897 190.827 C 164.187 192.633,162.947 193.200,159.708 193.200 C 157.555 193.200,157.530 193.214,156.924 194.756 C 156.460 195.939,155.951 196.455,154.804 196.905 C 153.651 197.358,153.185 197.835,152.825 198.926 C 152.459 200.033,152.033 200.459,150.926 200.825 C 149.829 201.187,149.359 201.650,148.897 202.827 C 147.507 206.364,137.304 206.315,135.270 202.762 C 134.744 201.843,133.876 200.975,133.270 200.763 C 129.599 199.477,129.773 188.785,133.489 187.246 C 134.174 186.962,134.951 186.173,135.332 185.373 C 135.720 184.561,136.549 183.725,137.345 183.345 C 138.132 182.971,138.971 182.132,139.345 181.345 C 139.725 180.549,140.561 179.720,141.373 179.332 C 142.173 178.951,142.962 178.174,143.246 177.489 C 143.967 175.748,145.787 174.803,148.426 174.801 C 150.577 174.800,150.674 174.753,151.322 173.396 C 151.719 172.561,152.541 171.729,153.345 171.345 C 154.132 170.971,154.971 170.132,155.345 169.345 C 155.720 168.559,156.559 167.720,157.345 167.345 C 158.132 166.971,158.971 166.132,159.345 165.345 C 159.720 164.559,160.559 163.720,161.345 163.345 C 162.132 162.971,162.971 162.132,163.345 161.345 C 163.725 160.549,164.561 159.720,165.373 159.332 C 166.173 158.951,166.962 158.174,167.246 157.489 C 167.967 155.748,169.787 154.803,172.426 154.801 C 174.577 154.800,174.674 154.753,175.322 153.396 C 175.719 152.561,176.541 151.729,177.345 151.345 C 178.132 150.971,178.971 150.132,179.345 149.345 C 179.720 148.559,180.559 147.720,181.345 147.345 C 182.132 146.971,182.971 146.132,183.345 145.345 C 183.720 144.559,184.559 143.720,185.345 143.345 C 186.132 142.971,186.971 142.132,187.345 141.345 C 187.725 140.549,188.561 139.720,189.373 139.332 C 190.173 138.951,190.962 138.174,191.246 137.489 C 192.339 134.849,199.831 133.599,203.161 135.500 M199.161 179.500 C 199.836 179.885,200.556 180.682,200.763 181.270 C 200.975 181.876,201.843 182.744,202.762 183.270 C 203.681 183.796,204.550 184.665,204.762 185.270 C 204.974 185.875,205.843 186.744,206.762 187.270 C 207.681 187.796,208.550 188.665,208.762 189.270 C 208.974 189.875,209.843 190.744,210.762 191.270 C 212.609 192.327,213.200 193.582,213.200 196.448 C 213.200 198.277,213.282 198.423,214.793 199.288 C 215.686 199.799,216.552 200.671,216.762 201.270 C 216.974 201.875,217.843 202.744,218.762 203.270 C 219.681 203.796,220.550 204.665,220.762 205.270 C 220.974 205.875,221.843 206.744,222.762 207.270 C 223.681 207.796,224.550 208.665,224.762 209.270 C 224.974 209.875,225.843 210.744,226.762 211.270 C 227.681 211.796,228.550 212.665,228.762 213.270 C 228.974 213.875,229.843 214.744,230.762 215.270 C 231.681 215.796,232.550 216.665,232.762 217.270 C 232.974 217.875,233.843 218.744,234.762 219.270 C 236.609 220.327,237.200 221.582,237.200 224.448 C 237.200 226.277,237.282 226.423,238.793 227.288 C 239.686 227.799,240.552 228.671,240.762 229.270 C 240.974 229.875,241.843 230.744,242.762 231.270 C 243.681 231.796,244.550 232.665,244.762 233.270 C 244.974 233.875,245.843 234.744,246.762 235.270 C 250.250 237.267,250.370 247.688,246.917 248.827 C 245.829 249.186,245.358 249.653,244.897 250.827 C 243.507 254.364,233.304 254.315,231.270 250.762 C 230.744 249.843,229.875 248.974,229.270 248.762 C 228.665 248.550,227.796 247.681,227.270 246.762 C 226.744 245.843,225.875 244.974,225.270 244.762 C 224.665 244.550,223.796 243.681,223.270 242.762 C 222.737 241.830,221.878 240.976,221.256 240.760 C 219.813 240.257,218.844 238.293,218.710 235.600 C 218.609 233.580,218.501 233.356,217.389 232.866 C 216.724 232.573,215.765 231.614,215.260 230.735 C 214.746 229.842,213.868 228.972,213.270 228.762 C 212.665 228.550,211.796 227.681,211.270 226.762 C 210.744 225.843,209.875 224.974,209.270 224.762 C 208.665 224.550,207.796 223.681,207.270 222.762 C 206.744 221.843,205.875 220.974,205.270 220.762 C 204.665 220.550,203.796 219.681,203.270 218.762 C 202.744 217.843,201.875 216.974,201.270 216.762 C 200.665 216.550,199.796 215.681,199.270 214.762 C 198.737 213.830,197.878 212.976,197.256 212.760 C 195.819 212.259,194.845 210.296,194.710 207.631 C 194.572 204.915,193.804 204.518,192.940 206.717 C 192.459 207.941,191.961 208.451,190.804 208.905 C 189.662 209.354,189.184 209.837,188.835 210.893 C 188.484 211.958,188.010 212.432,186.835 212.893 C 185.653 213.358,185.187 213.827,184.827 214.917 C 184.269 216.608,182.942 217.200,179.708 217.200 C 177.555 217.200,177.530 217.214,176.924 218.756 C 176.460 219.939,175.951 220.455,174.804 220.905 C 173.662 221.354,173.184 221.837,172.835 222.893 C 172.484 223.958,172.010 224.432,170.835 224.893 C 169.661 225.355,169.186 225.829,168.835 226.893 C 168.484 227.958,168.010 228.432,166.835 228.893 C 165.650 229.359,165.187 229.827,164.825 230.926 C 164.459 232.033,164.033 232.459,162.926 232.825 C 161.829 233.187,161.359 233.650,160.897 234.827 C 160.187 236.633,158.947 237.200,155.708 237.200 C 153.555 237.200,153.530 237.214,152.924 238.756 C 152.460 239.939,151.951 240.455,150.804 240.905 C 149.651 241.358,149.185 241.835,148.825 242.926 C 148.459 244.033,148.033 244.459,146.926 244.825 C 145.829 245.187,145.359 245.650,144.897 246.827 C 143.507 250.364,133.304 250.315,131.270 246.762 C 130.744 245.843,129.876 244.975,129.270 244.763 C 125.599 243.477,125.773 232.785,129.489 231.246 C 130.174 230.962,130.951 230.173,131.332 229.373 C 131.720 228.561,132.549 227.725,133.345 227.345 C 134.132 226.971,134.971 226.132,135.345 225.345 C 135.725 224.549,136.561 223.720,137.373 223.332 C 138.173 222.951,138.962 222.174,139.246 221.489 C 139.967 219.748,141.787 218.803,144.426 218.801 C 146.577 218.800,146.674 218.753,147.322 217.396 C 147.719 216.561,148.541 215.729,149.345 215.345 C 150.132 214.971,150.971 214.132,151.345 213.345 C 151.720 212.559,152.559 211.720,153.345 211.345 C 154.132 210.971,154.971 210.132,155.345 209.345 C 155.720 208.559,156.559 207.720,157.345 207.345 C 158.132 206.971,158.971 206.132,159.345 205.345 C 159.725 204.549,160.561 203.720,161.373 203.332 C 162.173 202.951,162.962 202.174,163.246 201.489 C 163.967 199.748,165.787 198.803,168.426 198.801 C 170.577 198.800,170.674 198.753,171.322 197.396 C 171.719 196.561,172.541 195.729,173.345 195.345 C 174.132 194.971,174.971 194.132,175.345 193.345 C 175.720 192.559,176.559 191.720,177.345 191.345 C 178.132 190.971,178.971 190.132,179.345 189.345 C 179.720 188.559,180.559 187.720,181.345 187.345 C 182.132 186.971,182.971 186.132,183.345 185.345 C 183.725 184.549,184.561 183.720,185.373 183.332 C 186.173 182.951,186.962 182.174,187.246 181.489 C 188.339 178.849,195.831 177.599,199.161 179.500 " stroke="none" fill="#24b44c" fill-rule="evenodd"></path><path id="path2" d="M190.000 36.000 L 190.000 38.000 188.000 38.000 L 186.000 38.000 186.000 40.000 L 186.000 42.000 184.000 42.000 L 182.000 42.000 182.000 46.000 L 182.000 50.000 180.000 50.000 L 178.000 50.000 178.000 52.000 L 178.000 54.000 176.000 54.000 L 174.000 54.000 174.000 56.000 L 174.000 58.000 172.000 58.000 L 170.000 58.000 170.000 62.000 L 170.000 66.000 168.000 66.000 L 166.000 66.000 166.000 68.000 L 166.000 70.000 164.000 70.000 L 162.000 70.000 162.000 72.000 L 162.000 74.000 160.000 74.000 L 158.000 74.000 158.000 78.000 L 158.000 82.000 156.000 82.000 L 154.000 82.000 154.000 84.000 L 154.000 86.000 152.000 86.000 L 150.000 86.000 150.000 88.000 L 150.000 90.000 148.000 90.000 L 146.000 90.000 146.000 94.000 L 146.000 98.000 144.000 98.000 L 142.000 98.000 142.000 100.000 L 142.000 102.000 140.000 102.000 L 138.000 102.000 138.000 104.000 L 138.000 106.000 136.000 106.000 L 134.000 106.000 134.000 110.000 L 134.000 114.000 82.000 114.000 L 30.000 114.000 30.000 116.000 L 30.000 118.000 28.000 118.000 L 26.000 118.000 26.000 126.000 L 26.000 134.000 28.000 134.000 L 30.000 134.000 30.000 138.000 L 30.000 142.000 32.000 142.000 L 34.000 142.000 34.000 144.000 L 34.000 146.000 36.000 146.000 L 38.000 146.000 38.000 150.000 L 38.000 154.000 40.000 154.000 L 42.000 154.000 42.000 156.000 L 42.000 158.000 44.000 158.000 L 46.000 158.000 46.000 162.000 L 46.000 166.000 48.000 166.000 L 50.000 166.000 50.000 168.000 L 50.000 170.000 52.000 170.000 L 54.000 170.000 54.000 174.000 L 54.000 178.000 56.000 178.000 L 58.000 178.000 58.000 180.000 L 58.000 182.000 60.000 182.000 L 62.000 182.000 62.000 186.000 L 62.000 190.000 64.000 190.000 L 66.000 190.000 66.000 192.000 L 66.000 194.000 68.000 194.000 L 70.000 194.000 70.000 198.000 L 70.000 202.000 72.000 202.000 L 74.000 202.000 74.000 206.000 L 74.000 210.000 72.000 210.000 L 70.000 210.000 70.000 212.000 L 70.000 214.000 68.000 214.000 L 66.000 214.000 66.000 218.000 L 66.000 222.000 64.000 222.000 L 62.000 222.000 62.000 224.000 L 62.000 226.000 60.000 226.000 L 58.000 226.000 58.000 230.000 L 58.000 234.000 56.000 234.000 L 54.000 234.000 54.000 236.000 L 54.000 238.000 52.000 238.000 L 50.000 238.000 50.000 242.000 L 50.000 246.000 48.000 246.000 L 46.000 246.000 46.000 248.000 L 46.000 250.000 44.000 250.000 L 42.000 250.000 42.000 254.000 L 42.000 258.000 40.000 258.000 L 38.000 258.000 38.000 260.000 L 38.000 262.000 36.000 262.000 L 34.000 262.000 34.000 266.000 L 34.000 270.000 32.000 270.000 L 30.000 270.000 30.000 272.000 L 30.000 274.000 28.000 274.000 L 26.000 274.000 26.000 282.000 L 26.000 290.000 28.000 290.000 L 30.000 290.000 30.000 292.000 L 30.000 294.000 82.000 294.000 L 134.000 294.000 134.000 298.000 L 134.000 302.000 136.000 302.000 L 138.000 302.000 138.000 304.000 L 138.000 306.000 140.000 306.000 L 142.000 306.000 142.000 308.000 L 142.000 310.000 144.000 310.000 L 146.000 310.000 146.000 314.000 L 146.000 318.000 148.000 318.000 L 150.000 318.000 150.000 320.000 L 150.000 322.000 152.000 322.000 L 154.000 322.000 154.000 324.000 L 154.000 326.000 156.000 326.000 L 158.000 326.000 158.000 330.000 L 158.000 334.000 160.000 334.000 L 162.000 334.000 162.000 336.000 L 162.000 338.000 164.000 338.000 L 166.000 338.000 166.000 340.000 L 166.000 342.000 168.000 342.000 L 170.000 342.000 170.000 346.000 L 170.000 350.000 172.000 350.000 L 174.000 350.000 174.000 352.000 L 174.000 354.000 176.000 354.000 L 178.000 354.000 178.000 356.000 L 178.000 358.000 180.000 358.000 L 182.000 358.000 182.000 362.000 L 182.000 366.000 184.000 366.000 L 186.000 366.000 186.000 368.000 L 186.000 370.000 188.000 370.000 L 190.000 370.000 190.000 372.000 L 190.000 374.000 198.000 374.000 L 206.000 374.000 206.000 372.000 L 206.000 370.000 208.000 370.000 L 210.000 370.000 210.000 368.000 L 210.000 366.000 212.000 366.000 L 214.000 366.000 214.000 362.000 L 214.000 358.000 216.000 358.000 L 218.000 358.000 218.000 356.000 L 218.000 354.000 220.000 354.000 L 222.000 354.000 222.000 350.000 L 222.000 346.000 224.000 346.000 L 226.000 346.000 226.000 344.000 L 226.000 342.000 228.000 342.000 L 230.000 342.000 230.000 338.000 L 230.000 334.000 232.000 334.000 L 234.000 334.000 234.000 332.000 L 234.000 330.000 236.000 330.000 L 238.000 330.000 238.000 328.000 L 238.000 326.000 240.000 326.000 L 242.000 326.000 242.000 322.000 L 242.000 318.000 244.000 318.000 L 246.000 318.000 246.000 316.000 L 246.000 314.000 248.000 314.000 L 250.000 314.000 250.000 310.000 L 250.000 306.000 252.000 306.000 L 254.000 306.000 254.000 304.000 L 254.000 302.000 256.000 302.000 L 258.000 302.000 258.000 298.000 L 258.000 294.000 310.000 294.000 L 362.000 294.000 362.000 292.000 L 362.000 290.000 364.000 290.000 L 366.000 290.000 366.000 282.000 L 366.000 274.000 364.000 274.000 L 362.000 274.000 362.000 272.000 L 362.000 270.000 360.000 270.000 L 358.000 270.000 358.000 266.000 L 358.000 262.000 356.000 262.000 L 354.000 262.000 354.000 260.000 L 354.000 258.000 352.000 258.000 L 350.000 258.000 350.000 254.000 L 350.000 250.000 348.000 250.000 L 346.000 250.000 346.000 248.000 L 346.000 246.000 344.000 246.000 L 342.000 246.000 342.000 242.000 L 342.000 238.000 340.000 238.000 L 338.000 238.000 338.000 236.000 L 338.000 234.000 336.000 234.000 L 334.000 234.000 334.000 230.000 L 334.000 226.000 332.000 226.000 L 330.000 226.000 330.000 224.000 L 330.000 222.000 328.000 222.000 L 326.000 222.000 326.000 218.000 L 326.000 214.000 324.000 214.000 L 322.000 214.000 322.000 212.000 L 322.000 210.000 320.000 210.000 L 318.000 210.000 318.000 206.000 L 318.000 202.000 320.000 202.000 L 322.000 202.000 322.000 198.000 L 322.000 194.000 324.000 194.000 L 326.000 194.000 326.000 192.000 L 326.000 190.000 328.000 190.000 L 330.000 190.000 330.000 186.000 L 330.000 182.000 332.000 182.000 L 334.000 182.000 334.000 180.000 L 334.000 178.000 336.000 178.000 L 338.000 178.000 338.000 174.000 L 338.000 170.000 340.000 170.000 L 342.000 170.000 342.000 168.000 L 342.000 166.000 344.000 166.000 L 346.000 166.000 346.000 162.000 L 346.000 158.000 348.000 158.000 L 350.000 158.000 350.000 156.000 L 350.000 154.000 352.000 154.000 L 354.000 154.000 354.000 150.000 L 354.000 146.000 356.000 146.000 L 358.000 146.000 358.000 144.000 L 358.000 142.000 360.000 142.000 L 362.000 142.000 362.000 138.000 L 362.000 134.000 364.000 134.000 L 366.000 134.000 366.000 126.000 L 366.000 118.000 364.000 118.000 L 362.000 118.000 362.000 116.000 L 362.000 114.000 310.000 114.000 L 258.000 114.000 258.000 110.000 L 258.000 106.000 256.000 106.000 L 254.000 106.000 254.000 104.000 L 254.000 102.000 252.000 102.000 L 250.000 102.000 250.000 98.000 L 250.000 94.000 248.000 94.000 L 246.000 94.000 246.000 92.000 L 246.000 90.000 244.000 90.000 L 242.000 90.000 242.000 86.000 L 242.000 82.000 240.000 82.000 L 238.000 82.000 238.000 80.000 L 238.000 78.000 236.000 78.000 L 234.000 78.000 234.000 76.000 L 234.000 74.000 232.000 74.000 L 230.000 74.000 230.000 70.000 L 230.000 66.000 228.000 66.000 L 226.000 66.000 226.000 64.000 L 226.000 62.000 224.000 62.000 L 222.000 62.000 222.000 58.000 L 222.000 54.000 220.000 54.000 L 218.000 54.000 218.000 52.000 L 218.000 50.000 216.000 50.000 L 214.000 50.000 214.000 46.000 L 214.000 42.000 212.000 42.000 L 210.000 42.000 210.000 40.000 L 210.000 38.000 208.000 38.000 L 206.000 38.000 206.000 36.000 L 206.000 34.000 198.000 34.000 L 190.000 34.000 190.000 36.000 M199.611 64.500 C 200.615 65.655,202.745 67.785,203.900 68.789 C 204.646 69.438,204.800 69.981,204.800 71.967 C 204.800 74.101,204.914 74.441,205.847 75.081 C 206.422 75.477,207.231 76.160,207.643 76.600 C 209.908 79.015,210.790 79.863,211.649 80.453 C 212.451 81.004,212.631 81.535,212.800 83.837 C 212.992 86.459,213.059 86.606,214.505 87.586 C 215.333 88.147,216.360 89.181,216.788 89.884 C 217.215 90.586,218.091 91.433,218.734 91.766 C 219.377 92.099,220.273 92.996,220.724 93.761 C 221.175 94.525,222.091 95.433,222.760 95.779 C 224.380 96.617,224.800 97.518,224.800 100.155 C 224.800 102.086,224.931 102.453,225.847 103.081 C 226.422 103.477,227.231 104.160,227.643 104.600 C 228.944 105.987,230.966 107.977,231.900 108.789 C 232.646 109.438,232.800 109.981,232.800 111.967 C 232.800 114.101,232.914 114.441,233.847 115.081 C 234.422 115.477,235.231 116.160,235.643 116.600 C 237.908 119.015,238.790 119.863,239.649 120.453 C 240.451 121.004,240.631 121.535,240.800 123.837 C 240.992 126.459,241.059 126.606,242.505 127.586 C 243.333 128.147,244.359 129.179,244.785 129.880 C 245.211 130.580,246.047 131.409,246.643 131.721 C 247.238 132.033,248.201 132.988,248.782 133.844 L 249.839 135.400 292.555 135.600 L 335.271 135.800 336.045 136.756 C 337.061 138.010,336.275 140.400,334.847 140.400 C 334.314 140.400,332.400 142.314,332.400 142.847 C 332.400 143.357,331.386 144.400,330.890 144.400 C 329.694 144.400,328.900 145.892,328.738 148.445 C 328.576 150.989,327.901 152.400,326.847 152.400 C 326.314 152.400,324.400 154.314,324.400 154.847 C 324.400 155.357,323.386 156.400,322.890 156.400 C 321.694 156.400,320.900 157.892,320.738 160.445 C 320.576 162.989,319.901 164.400,318.847 164.400 C 318.314 164.400,316.400 166.314,316.400 166.847 C 316.400 167.357,315.386 168.400,314.890 168.400 C 313.694 168.400,312.900 169.892,312.738 172.445 C 312.576 174.989,311.901 176.400,310.847 176.400 C 310.314 176.400,308.400 178.314,308.400 178.847 C 308.400 179.357,307.386 180.400,306.890 180.400 C 305.694 180.400,304.900 181.892,304.738 184.445 C 304.564 187.165,304.084 188.066,302.545 188.554 C 301.428 188.908,300.881 190.182,300.697 192.858 C 300.548 195.013,299.823 196.400,298.845 196.400 C 298.367 196.400,296.400 198.431,296.400 198.924 C 296.400 199.393,295.339 200.400,294.844 200.400 C 293.406 200.400,292.800 202.125,292.800 206.213 C 292.800 210.453,293.031 211.065,294.883 211.720 C 295.259 211.853,296.030 212.697,296.598 213.596 C 297.165 214.495,298.055 215.393,298.574 215.590 C 300.110 216.174,300.800 217.549,300.800 220.027 C 300.800 222.319,301.268 223.148,302.883 223.720 C 303.259 223.853,304.023 224.685,304.581 225.569 C 305.139 226.454,306.131 227.454,306.786 227.793 C 308.380 228.617,308.800 229.527,308.800 232.155 C 308.800 234.086,308.931 234.453,309.847 235.081 C 310.422 235.477,311.231 236.160,311.643 236.600 C 312.944 237.987,314.966 239.977,315.900 240.789 C 316.646 241.438,316.800 241.981,316.800 243.967 C 316.800 246.101,316.914 246.441,317.847 247.081 C 318.422 247.477,319.231 248.160,319.643 248.600 C 320.944 249.987,322.966 251.977,323.900 252.789 C 324.646 253.438,324.800 253.981,324.800 255.967 C 324.800 258.101,324.914 258.441,325.847 259.081 C 326.422 259.477,327.231 260.160,327.643 260.600 C 328.939 261.981,330.962 263.974,331.943 264.833 C 332.796 265.579,332.872 265.922,332.734 268.368 C 332.468 273.074,337.238 272.584,290.471 272.706 L 249.884 272.811 249.142 273.667 C 248.734 274.137,248.400 274.688,248.400 274.890 C 248.400 275.365,247.365 276.400,246.890 276.400 C 245.694 276.400,244.900 277.892,244.738 280.445 C 244.576 282.989,243.901 284.400,242.847 284.400 C 242.314 284.400,240.400 286.314,240.400 286.847 C 240.400 287.377,239.377 288.400,238.847 288.400 C 238.314 288.400,236.400 290.314,236.400 290.847 C 236.400 291.357,235.386 292.400,234.890 292.400 C 233.694 292.400,232.900 293.892,232.738 296.445 C 232.576 298.989,231.901 300.400,230.847 300.400 C 230.314 300.400,228.400 302.314,228.400 302.847 C 228.400 303.357,227.386 304.400,226.890 304.400 C 225.694 304.400,224.900 305.892,224.738 308.445 C 224.576 310.989,223.901 312.400,222.847 312.400 C 222.314 312.400,220.400 314.314,220.400 314.847 C 220.400 315.357,219.386 316.400,218.890 316.400 C 217.694 316.400,216.900 317.892,216.738 320.445 C 216.576 322.989,215.901 324.400,214.847 324.400 C 214.314 324.400,212.400 326.314,212.400 326.847 C 212.400 327.377,211.377 328.400,210.847 328.400 C 210.314 328.400,208.400 330.314,208.400 330.847 C 208.400 331.357,207.386 332.400,206.890 332.400 C 205.694 332.400,204.900 333.892,204.738 336.445 C 204.576 338.989,203.901 340.400,202.847 340.400 C 202.314 340.400,200.400 342.314,200.400 342.847 C 200.400 344.361,197.860 345.123,196.813 343.924 C 196.369 343.416,195.443 342.437,194.755 341.748 C 194.067 341.059,193.144 340.136,192.704 339.696 C 192.264 339.256,191.409 338.379,190.803 337.748 C 190.198 337.117,189.275 336.306,188.751 335.947 C 187.949 335.396,187.769 334.865,187.600 332.563 C 187.408 329.941,187.341 329.794,185.895 328.814 C 185.067 328.253,184.040 327.219,183.612 326.516 C 183.185 325.814,182.290 324.957,181.624 324.613 C 180.958 324.268,180.135 323.449,179.795 322.791 C 179.455 322.134,178.466 321.147,177.596 320.598 C 175.919 319.539,175.671 318.971,175.505 315.817 C 175.410 314.020,175.259 313.738,173.895 312.814 C 173.067 312.253,172.040 311.219,171.612 310.516 C 171.185 309.814,170.290 308.957,169.624 308.613 C 168.958 308.268,168.135 307.449,167.795 306.791 C 167.455 306.134,166.466 305.147,165.596 304.598 C 163.919 303.539,163.671 302.971,163.505 299.817 C 163.410 298.020,163.259 297.738,161.895 296.814 C 161.067 296.253,160.040 295.219,159.612 294.516 C 159.185 293.814,158.290 292.957,157.624 292.613 C 156.958 292.268,156.135 291.449,155.795 290.791 C 155.455 290.134,154.466 289.147,153.596 288.598 C 151.919 287.539,151.671 286.971,151.505 283.817 C 151.409 282.007,151.264 281.741,149.844 280.779 C 148.988 280.199,148.033 279.238,147.721 278.643 C 147.409 278.047,146.580 277.211,145.880 276.785 C 145.179 276.359,144.146 275.333,143.584 274.505 L 142.561 273.000 101.845 272.800 L 61.129 272.600 60.365 271.656 C 58.735 269.643,59.714 263.600,61.670 263.600 C 62.068 263.600,63.600 262.112,63.600 261.726 C 63.600 261.327,65.281 259.600,65.670 259.600 C 66.755 259.600,67.600 257.904,67.600 255.726 C 67.600 253.542,68.574 251.600,69.670 251.600 C 70.068 251.600,71.600 250.112,71.600 249.726 C 71.600 249.327,73.281 247.600,73.670 247.600 C 74.755 247.600,75.600 245.904,75.600 243.726 C 75.600 241.542,76.574 239.600,77.670 239.600 C 78.068 239.600,79.600 238.112,79.600 237.726 C 79.600 237.327,81.281 235.600,81.670 235.600 C 82.755 235.600,83.600 233.904,83.600 231.726 C 83.600 229.542,84.574 227.600,85.670 227.600 C 86.068 227.600,87.600 226.112,87.600 225.726 C 87.600 225.327,89.281 223.600,89.670 223.600 C 90.755 223.600,91.600 221.904,91.600 219.726 C 91.600 217.542,92.574 215.600,93.670 215.600 C 94.068 215.600,95.600 214.112,95.600 213.726 C 95.600 213.327,97.281 211.600,97.670 211.600 C 99.861 211.600,100.621 202.737,98.551 201.319 C 95.932 199.523,95.600 198.975,95.600 196.437 C 95.600 194.299,95.486 193.959,94.553 193.319 C 93.978 192.923,93.169 192.240,92.757 191.800 C 91.456 190.413,89.434 188.423,88.500 187.611 C 87.754 186.962,87.600 186.419,87.600 184.433 C 87.600 182.299,87.486 181.959,86.553 181.319 C 85.978 180.923,85.169 180.240,84.757 179.800 C 83.456 178.413,81.434 176.423,80.500 175.611 C 79.754 174.962,79.600 174.419,79.600 172.433 C 79.600 170.299,79.486 169.959,78.553 169.319 C 77.978 168.923,77.169 168.240,76.757 167.800 C 75.456 166.413,73.434 164.423,72.500 163.611 C 71.754 162.962,71.600 162.419,71.600 160.433 C 71.600 158.299,71.486 157.959,70.553 157.319 C 69.978 156.923,69.169 156.240,68.757 155.800 C 66.492 153.385,65.610 152.537,64.751 151.947 C 63.949 151.396,63.769 150.865,63.600 148.563 C 63.407 145.923,63.349 145.799,61.844 144.779 C 60.988 144.200,60.036 143.245,59.729 142.658 C 59.421 142.071,58.460 141.143,57.592 140.595 C 55.568 139.317,55.161 137.919,56.421 136.578 L 57.339 135.600 99.670 135.600 C 145.356 135.600,143.600 135.675,143.600 133.726 C 143.600 133.327,145.281 131.600,145.670 131.600 C 146.068 131.600,147.600 130.112,147.600 129.726 C 147.600 129.327,149.281 127.600,149.670 127.600 C 150.755 127.600,151.600 125.904,151.600 123.726 C 151.600 121.542,152.574 119.600,153.670 119.600 C 154.068 119.600,155.600 118.112,155.600 117.726 C 155.600 117.327,157.281 115.600,157.670 115.600 C 158.068 115.600,159.600 114.112,159.600 113.726 C 159.600 113.327,161.281 111.600,161.670 111.600 C 162.755 111.600,163.600 109.904,163.600 107.726 C 163.600 105.542,164.574 103.600,165.670 103.600 C 166.068 103.600,167.600 102.112,167.600 101.726 C 167.600 101.327,169.281 99.600,169.670 99.600 C 170.068 99.600,171.600 98.112,171.600 97.726 C 171.600 97.327,173.281 95.600,173.670 95.600 C 174.755 95.600,175.600 93.904,175.600 91.726 C 175.600 89.542,176.574 87.600,177.670 87.600 C 178.068 87.600,179.600 86.112,179.600 85.726 C 179.600 85.327,181.281 83.600,181.670 83.600 C 182.068 83.600,183.600 82.112,183.600 81.726 C 183.600 81.327,185.281 79.600,185.670 79.600 C 186.755 79.600,187.600 77.904,187.600 75.726 C 187.600 73.542,188.574 71.600,189.670 71.600 C 190.068 71.600,191.600 70.112,191.600 69.726 C 191.600 69.327,193.281 67.600,193.670 67.600 C 194.068 67.600,195.600 66.112,195.600 65.726 C 195.600 64.041,198.454 63.169,199.611 64.500 " stroke="none" fill="#fcf404" fill-rule="evenodd"></path><path id="path3" d="M196.470 64.526 C 195.991 65.035,195.600 65.575,195.600 65.726 C 195.600 66.112,194.068 67.600,193.670 67.600 C 193.281 67.600,191.600 69.327,191.600 69.726 C 191.600 70.112,190.068 71.600,189.670 71.600 C 188.574 71.600,187.600 73.542,187.600 75.726 C 187.600 77.904,186.755 79.600,185.670 79.600 C 185.281 79.600,183.600 81.327,183.600 81.726 C 183.600 82.112,182.068 83.600,181.670 83.600 C 181.281 83.600,179.600 85.327,179.600 85.726 C 179.600 86.112,178.068 87.600,177.670 87.600 C 176.574 87.600,175.600 89.542,175.600 91.726 C 175.600 93.904,174.755 95.600,173.670 95.600 C 173.281 95.600,171.600 97.327,171.600 97.726 C 171.600 98.112,170.068 99.600,169.670 99.600 C 169.281 99.600,167.600 101.327,167.600 101.726 C 167.600 102.112,166.068 103.600,165.670 103.600 C 164.574 103.600,163.600 105.542,163.600 107.726 C 163.600 109.904,162.755 111.600,161.670 111.600 C 161.281 111.600,159.600 113.327,159.600 113.726 C 159.600 114.112,158.068 115.600,157.670 115.600 C 157.281 115.600,155.600 117.327,155.600 117.726 C 155.600 118.112,154.068 119.600,153.670 119.600 C 152.574 119.600,151.600 121.542,151.600 123.726 C 151.600 125.904,150.755 127.600,149.670 127.600 C 149.281 127.600,147.600 129.327,147.600 129.726 C 147.600 130.112,146.068 131.600,145.670 131.600 C 145.281 131.600,143.600 133.327,143.600 133.726 C 143.600 135.675,145.356 135.600,99.670 135.600 L 57.339 135.600 56.421 136.578 C 55.161 137.919,55.568 139.317,57.592 140.595 C 58.460 141.143,59.421 142.071,59.729 142.658 C 60.036 143.245,60.988 144.200,61.844 144.779 C 63.349 145.799,63.407 145.923,63.600 148.563 C 63.769 150.865,63.949 151.396,64.751 151.947 C 65.610 152.537,66.492 153.385,68.757 155.800 C 69.169 156.240,69.978 156.923,70.553 157.319 C 71.486 157.959,71.600 158.299,71.600 160.433 C 71.600 162.419,71.754 162.962,72.500 163.611 C 73.434 164.423,75.456 166.413,76.757 167.800 C 77.169 168.240,77.978 168.923,78.553 169.319 C 79.486 169.959,79.600 170.299,79.600 172.433 C 79.600 174.419,79.754 174.962,80.500 175.611 C 81.434 176.423,83.456 178.413,84.757 179.800 C 85.169 180.240,85.978 180.923,86.553 181.319 C 87.486 181.959,87.600 182.299,87.600 184.433 C 87.600 186.419,87.754 186.962,88.500 187.611 C 89.434 188.423,91.456 190.413,92.757 191.800 C 93.169 192.240,93.978 192.923,94.553 193.319 C 95.486 193.959,95.600 194.299,95.600 196.437 C 95.600 198.975,95.932 199.523,98.551 201.319 C 100.621 202.737,99.861 211.600,97.670 211.600 C 97.281 211.600,95.600 213.327,95.600 213.726 C 95.600 214.112,94.068 215.600,93.670 215.600 C 92.574 215.600,91.600 217.542,91.600 219.726 C 91.600 221.904,90.755 223.600,89.670 223.600 C 89.281 223.600,87.600 225.327,87.600 225.726 C 87.600 226.112,86.068 227.600,85.670 227.600 C 84.574 227.600,83.600 229.542,83.600 231.726 C 83.600 233.904,82.755 235.600,81.670 235.600 C 81.281 235.600,79.600 237.327,79.600 237.726 C 79.600 238.112,78.068 239.600,77.670 239.600 C 76.574 239.600,75.600 241.542,75.600 243.726 C 75.600 245.904,74.755 247.600,73.670 247.600 C 73.281 247.600,71.600 249.327,71.600 249.726 C 71.600 250.112,70.068 251.600,69.670 251.600 C 68.574 251.600,67.600 253.542,67.600 255.726 C 67.600 257.904,66.755 259.600,65.670 259.600 C 65.281 259.600,63.600 261.327,63.600 261.726 C 63.600 262.112,62.068 263.600,61.670 263.600 C 59.714 263.600,58.735 269.643,60.365 271.656 L 61.129 272.600 101.845 272.800 L 142.561 273.000 143.584 274.505 C 144.146 275.333,145.179 276.359,145.880 276.785 C 146.580 277.211,147.409 278.047,147.721 278.643 C 148.033 279.238,148.988 280.199,149.844 280.779 C 151.264 281.741,151.409 282.007,151.505 283.817 C 151.671 286.971,151.919 287.539,153.596 288.598 C 154.466 289.147,155.455 290.134,155.795 290.791 C 156.135 291.449,156.958 292.268,157.624 292.613 C 158.290 292.957,159.185 293.814,159.612 294.516 C 160.040 295.219,161.067 296.253,161.895 296.814 C 163.259 297.738,163.410 298.020,163.505 299.817 C 163.671 302.971,163.919 303.539,165.596 304.598 C 166.466 305.147,167.455 306.134,167.795 306.791 C 168.135 307.449,168.958 308.268,169.624 308.613 C 170.290 308.957,171.185 309.814,171.612 310.516 C 172.040 311.219,173.067 312.253,173.895 312.814 C 175.259 313.738,175.410 314.020,175.505 315.817 C 175.671 318.971,175.919 319.539,177.596 320.598 C 178.466 321.147,179.455 322.134,179.795 322.791 C 180.135 323.449,180.958 324.268,181.624 324.613 C 182.290 324.957,183.185 325.814,183.612 326.516 C 184.040 327.219,185.067 328.253,185.895 328.814 C 187.341 329.794,187.408 329.941,187.600 332.563 C 187.769 334.865,187.949 335.396,188.751 335.947 C 189.275 336.306,190.198 337.117,190.803 337.748 C 191.409 338.379,192.264 339.256,192.704 339.696 C 193.144 340.136,194.067 341.059,194.755 341.748 C 195.443 342.437,196.369 343.416,196.813 343.924 C 197.860 345.123,200.400 344.361,200.400 342.847 C 200.400 342.314,202.314 340.400,202.847 340.400 C 203.901 340.400,204.576 338.989,204.738 336.445 C 204.900 333.892,205.694 332.400,206.890 332.400 C 207.386 332.400,208.400 331.357,208.400 330.847 C 208.400 330.314,210.314 328.400,210.847 328.400 C 211.377 328.400,212.400 327.377,212.400 326.847 C 212.400 326.314,214.314 324.400,214.847 324.400 C 215.901 324.400,216.576 322.989,216.738 320.445 C 216.900 317.892,217.694 316.400,218.890 316.400 C 219.386 316.400,220.400 315.357,220.400 314.847 C 220.400 314.314,222.314 312.400,222.847 312.400 C 223.901 312.400,224.576 310.989,224.738 308.445 C 224.900 305.892,225.694 304.400,226.890 304.400 C 227.386 304.400,228.400 303.357,228.400 302.847 C 228.400 302.314,230.314 300.400,230.847 300.400 C 231.901 300.400,232.576 298.989,232.738 296.445 C 232.900 293.892,233.694 292.400,234.890 292.400 C 235.386 292.400,236.400 291.357,236.400 290.847 C 236.400 290.314,238.314 288.400,238.847 288.400 C 239.377 288.400,240.400 287.377,240.400 286.847 C 240.400 286.314,242.314 284.400,242.847 284.400 C 243.901 284.400,244.576 282.989,244.738 280.445 C 244.900 277.892,245.694 276.400,246.890 276.400 C 247.365 276.400,248.400 275.365,248.400 274.890 C 248.400 274.688,248.734 274.137,249.142 273.667 L 249.884 272.811 290.471 272.706 C 337.238 272.584,332.468 273.074,332.734 268.368 C 332.872 265.922,332.796 265.579,331.943 264.833 C 330.962 263.974,328.939 261.981,327.643 260.600 C 327.231 260.160,326.422 259.477,325.847 259.081 C 324.914 258.441,324.800 258.101,324.800 255.967 C 324.800 253.981,324.646 253.438,323.900 252.789 C 322.966 251.977,320.944 249.987,319.643 248.600 C 319.231 248.160,318.422 247.477,317.847 247.081 C 316.914 246.441,316.800 246.101,316.800 243.967 C 316.800 241.981,316.646 241.438,315.900 240.789 C 314.966 239.977,312.944 237.987,311.643 236.600 C 311.231 236.160,310.422 235.477,309.847 235.081 C 308.931 234.453,308.800 234.086,308.800 232.155 C 308.800 229.527,308.380 228.617,306.786 227.793 C 306.131 227.454,305.139 226.454,304.581 225.569 C 304.023 224.685,303.259 223.853,302.883 223.720 C 301.268 223.148,300.800 222.319,300.800 220.027 C 300.800 217.549,300.110 216.174,298.574 215.590 C 298.055 215.393,297.165 214.495,296.598 213.596 C 296.030 212.697,295.259 211.853,294.883 211.720 C 293.031 211.065,292.800 210.453,292.800 206.213 C 292.800 202.125,293.406 200.400,294.844 200.400 C 295.339 200.400,296.400 199.393,296.400 198.924 C 296.400 198.431,298.367 196.400,298.845 196.400 C 299.823 196.400,300.548 195.013,300.697 192.858 C 300.881 190.182,301.428 188.908,302.545 188.554 C 304.084 188.066,304.564 187.165,304.738 184.445 C 304.900 181.892,305.694 180.400,306.890 180.400 C 307.386 180.400,308.400 179.357,308.400 178.847 C 308.400 178.314,310.314 176.400,310.847 176.400 C 311.901 176.400,312.576 174.989,312.738 172.445 C 312.900 169.892,313.694 168.400,314.890 168.400 C 315.386 168.400,316.400 167.357,316.400 166.847 C 316.400 166.314,318.314 164.400,318.847 164.400 C 319.901 164.400,320.576 162.989,320.738 160.445 C 320.900 157.892,321.694 156.400,322.890 156.400 C 323.386 156.400,324.400 155.357,324.400 154.847 C 324.400 154.314,326.314 152.400,326.847 152.400 C 327.901 152.400,328.576 150.989,328.738 148.445 C 328.900 145.892,329.694 144.400,330.890 144.400 C 331.386 144.400,332.400 143.357,332.400 142.847 C 332.400 142.314,334.314 140.400,334.847 140.400 C 336.275 140.400,337.061 138.010,336.045 136.756 L 335.271 135.800 292.555 135.600 L 249.839 135.400 248.782 133.844 C 248.201 132.988,247.238 132.033,246.643 131.721 C 246.047 131.409,245.211 130.580,244.785 129.880 C 244.359 129.179,243.333 128.147,242.505 127.586 C 241.059 126.606,240.992 126.459,240.800 123.837 C 240.631 121.535,240.451 121.004,239.649 120.453 C 238.790 119.863,237.908 119.015,235.643 116.600 C 235.231 116.160,234.422 115.477,233.847 115.081 C 232.914 114.441,232.800 114.101,232.800 111.967 C 232.800 109.981,232.646 109.438,231.900 108.789 C 230.966 107.977,228.944 105.987,227.643 104.600 C 227.231 104.160,226.422 103.477,225.847 103.081 C 224.931 102.453,224.800 102.086,224.800 100.155 C 224.800 97.518,224.380 96.617,222.760 95.779 C 222.091 95.433,221.175 94.525,220.724 93.761 C 220.273 92.996,219.377 92.099,218.734 91.766 C 218.091 91.433,217.215 90.586,216.788 89.884 C 216.360 89.181,215.333 88.147,214.505 87.586 C 213.059 86.606,212.992 86.459,212.800 83.837 C 212.631 81.535,212.451 81.004,211.649 80.453 C 210.790 79.863,209.908 79.015,207.643 76.600 C 207.231 76.160,206.422 75.477,205.847 75.081 C 204.914 74.441,204.800 74.101,204.800 71.967 C 204.800 69.981,204.646 69.438,203.900 68.789 C 202.745 67.785,200.615 65.655,199.611 64.500 C 198.610 63.349,197.567 63.357,196.470 64.526 M199.600 66.180 C 199.600 66.612,201.358 68.400,201.783 68.400 C 202.819 68.400,203.600 70.033,203.600 72.202 C 203.600 74.390,204.645 76.400,205.783 76.400 C 206.199 76.400,207.600 77.790,207.600 78.202 C 207.600 78.618,209.370 80.400,209.783 80.400 C 210.819 80.400,211.600 82.033,211.600 84.202 C 211.600 86.390,212.645 88.400,213.783 88.400 C 214.199 88.400,215.600 89.790,215.600 90.202 C 215.600 90.618,217.370 92.400,217.783 92.400 C 218.199 92.400,219.600 93.790,219.600 94.202 C 219.600 94.618,221.370 96.400,221.783 96.400 C 222.819 96.400,223.600 98.033,223.600 100.202 C 223.600 102.390,224.645 104.400,225.783 104.400 C 226.199 104.400,227.600 105.790,227.600 106.202 C 227.600 106.618,229.370 108.400,229.783 108.400 C 230.819 108.400,231.600 110.033,231.600 112.202 C 231.600 114.390,232.645 116.400,233.783 116.400 C 234.199 116.400,235.600 117.790,235.600 118.202 C 235.600 118.618,237.370 120.400,237.783 120.400 C 238.819 120.400,239.600 122.033,239.600 124.202 C 239.600 126.390,240.645 128.400,241.783 128.400 C 242.199 128.400,243.600 129.790,243.600 130.202 C 243.600 130.618,245.370 132.400,245.783 132.400 C 246.199 132.400,247.600 133.790,247.600 134.202 C 247.600 134.307,247.992 134.845,248.472 135.397 L 249.344 136.400 291.783 136.400 L 334.222 136.400 334.972 137.276 C 335.716 138.145,335.711 138.162,334.361 139.255 C 333.613 139.862,332.867 140.503,332.706 140.679 C 331.394 142.108,329.553 143.959,328.667 144.742 C 327.740 145.560,327.600 145.991,327.600 148.022 C 327.600 150.258,327.535 150.408,326.100 151.477 C 325.275 152.092,324.432 152.866,324.227 153.198 C 323.866 153.779,322.877 154.762,320.656 156.742 C 319.743 157.557,319.600 157.999,319.600 160.022 C 319.600 162.258,319.535 162.408,318.100 163.477 C 317.275 164.092,316.432 164.866,316.227 165.198 C 315.866 165.779,314.877 166.762,312.656 168.742 C 311.743 169.557,311.600 169.999,311.600 172.022 C 311.600 174.258,311.535 174.408,310.100 175.477 C 309.275 176.092,308.432 176.866,308.227 177.198 C 307.866 177.779,306.877 178.762,304.656 180.742 C 303.743 181.557,303.600 181.999,303.600 184.022 C 303.600 186.257,303.534 186.408,302.100 187.480 C 299.865 189.149,299.627 189.590,299.613 192.080 C 299.601 194.243,299.523 194.417,298.100 195.477 C 297.275 196.092,296.432 196.866,296.227 197.198 C 295.866 197.779,294.877 198.762,292.656 200.742 C 290.271 202.869,291.238 211.131,294.039 212.552 C 294.525 212.799,295.119 213.346,295.361 213.769 C 296.086 215.038,297.318 216.400,297.741 216.400 C 298.904 216.400,299.600 217.778,299.600 220.079 C 299.600 222.559,300.170 223.604,302.039 224.552 C 302.525 224.799,303.119 225.346,303.361 225.769 C 304.112 227.083,305.324 228.400,305.783 228.400 C 306.819 228.400,307.600 230.033,307.600 232.202 C 307.600 234.390,308.645 236.400,309.783 236.400 C 310.199 236.400,311.600 237.790,311.600 238.202 C 311.600 238.618,313.370 240.400,313.783 240.400 C 314.819 240.400,315.600 242.033,315.600 244.202 C 315.600 246.390,316.645 248.400,317.783 248.400 C 318.199 248.400,319.600 249.790,319.600 250.202 C 319.600 250.618,321.370 252.400,321.783 252.400 C 322.819 252.400,323.600 254.033,323.600 256.202 C 323.600 258.390,324.645 260.400,325.783 260.400 C 326.199 260.400,327.600 261.790,327.600 262.202 C 327.600 262.618,329.370 264.400,329.783 264.400 C 331.461 264.400,332.339 269.320,330.938 270.869 C 330.305 271.568,328.510 271.600,289.980 271.600 L 249.684 271.600 248.742 272.656 C 247.542 274.002,246.002 275.542,244.656 276.742 C 243.740 277.559,243.600 277.997,243.600 280.046 C 243.600 282.338,243.554 282.440,242.038 283.504 C 241.178 284.107,240.173 285.103,239.804 285.718 C 239.435 286.333,238.532 287.230,237.797 287.712 C 237.063 288.194,236.173 289.077,235.820 289.675 C 235.466 290.272,234.598 291.169,233.889 291.666 C 231.918 293.050,231.626 293.614,231.613 296.080 C 231.601 298.243,231.523 298.417,230.100 299.477 C 229.275 300.092,228.432 300.866,228.227 301.198 C 227.866 301.779,226.877 302.762,224.656 304.742 C 223.743 305.557,223.600 305.999,223.600 308.022 C 223.600 310.258,223.535 310.408,222.100 311.477 C 221.275 312.092,220.432 312.866,220.227 313.198 C 219.866 313.779,218.877 314.762,216.656 316.742 C 215.740 317.559,215.600 317.997,215.600 320.046 C 215.600 322.338,215.554 322.440,214.038 323.504 C 213.178 324.107,212.173 325.103,211.804 325.718 C 211.435 326.333,210.532 327.230,209.797 327.712 C 209.063 328.194,208.173 329.077,207.820 329.675 C 207.466 330.272,206.598 331.169,205.889 331.666 C 203.918 333.050,203.626 333.614,203.613 336.080 C 203.601 338.243,203.523 338.417,202.100 339.477 C 201.275 340.092,200.455 340.822,200.279 341.100 C 198.684 343.607,196.400 344.009,196.400 341.783 C 196.400 341.370,194.618 339.600,194.202 339.600 C 193.790 339.600,192.400 338.199,192.400 337.783 C 192.400 337.370,190.618 335.600,190.202 335.600 C 189.140 335.600,188.400 334.032,188.400 331.783 C 188.400 329.519,187.392 327.600,186.202 327.600 C 185.790 327.600,184.400 326.199,184.400 325.783 C 184.400 325.370,182.618 323.600,182.202 323.600 C 181.790 323.600,180.400 322.199,180.400 321.783 C 180.400 321.370,178.618 319.600,178.202 319.600 C 177.140 319.600,176.400 318.032,176.400 315.783 C 176.400 313.519,175.392 311.600,174.202 311.600 C 173.790 311.600,172.400 310.199,172.400 309.783 C 172.400 309.370,170.618 307.600,170.202 307.600 C 169.790 307.600,168.400 306.199,168.400 305.783 C 168.400 305.370,166.618 303.600,166.202 303.600 C 165.140 303.600,164.400 302.032,164.400 299.783 C 164.400 297.519,163.392 295.600,162.202 295.600 C 161.790 295.600,160.400 294.199,160.400 293.783 C 160.400 293.370,158.618 291.600,158.202 291.600 C 157.790 291.600,156.400 290.199,156.400 289.783 C 156.400 289.370,154.618 287.600,154.202 287.600 C 153.140 287.600,152.400 286.032,152.400 283.783 C 152.400 281.519,151.392 279.600,150.202 279.600 C 149.790 279.600,148.400 278.199,148.400 277.783 C 148.400 277.370,146.618 275.600,146.202 275.600 C 145.790 275.600,144.400 274.199,144.400 273.783 C 144.400 273.542,143.949 272.952,143.397 272.472 L 142.394 271.600 102.202 271.600 C 56.424 271.600,60.400 271.928,60.400 268.147 C 60.400 266.281,60.532 265.968,61.700 265.050 C 62.415 264.489,63.243 263.771,63.540 263.455 C 64.720 262.199,67.038 259.928,67.700 259.380 C 68.222 258.947,68.400 258.200,68.400 256.436 C 68.400 254.244,68.495 253.996,69.700 253.050 C 70.415 252.489,71.243 251.771,71.540 251.455 C 72.720 250.199,75.038 247.928,75.700 247.380 C 76.222 246.947,76.400 246.200,76.400 244.436 C 76.400 242.244,76.495 241.996,77.700 241.050 C 78.415 240.489,79.243 239.771,79.540 239.455 C 80.690 238.231,82.797 236.168,83.580 235.500 C 84.235 234.941,84.400 234.325,84.400 232.436 C 84.400 230.244,84.495 229.996,85.700 229.050 C 86.415 228.489,87.243 227.771,87.540 227.455 C 88.720 226.199,91.038 223.928,91.700 223.380 C 92.222 222.947,92.400 222.200,92.400 220.436 C 92.400 218.244,92.495 217.996,93.700 217.050 C 94.415 216.489,95.243 215.771,95.540 215.455 C 96.705 214.215,98.918 212.048,99.640 211.440 C 101.608 209.782,100.371 199.600,98.202 199.600 C 97.140 199.600,96.400 198.032,96.400 195.783 C 96.400 193.519,95.392 191.600,94.202 191.600 C 93.790 191.600,92.400 190.199,92.400 189.783 C 92.400 189.370,90.618 187.600,90.202 187.600 C 89.140 187.600,88.400 186.032,88.400 183.783 C 88.400 181.519,87.392 179.600,86.202 179.600 C 85.790 179.600,84.400 178.199,84.400 177.783 C 84.400 177.370,82.618 175.600,82.202 175.600 C 81.140 175.600,80.400 174.032,80.400 171.783 C 80.400 169.519,79.392 167.600,78.202 167.600 C 77.790 167.600,76.400 166.199,76.400 165.783 C 76.400 165.370,74.618 163.600,74.202 163.600 C 73.140 163.600,72.400 162.032,72.400 159.783 C 72.400 157.519,71.392 155.600,70.202 155.600 C 69.790 155.600,68.400 154.199,68.400 153.783 C 68.400 153.370,66.618 151.600,66.202 151.600 C 65.140 151.600,64.400 150.032,64.400 147.783 C 64.400 145.519,63.392 143.600,62.202 143.600 C 61.790 143.600,60.400 142.199,60.400 141.783 C 60.400 141.370,58.618 139.600,58.202 139.600 C 57.037 139.600,56.463 138.184,57.277 137.318 L 58.139 136.400 100.470 136.400 C 142.650 136.400,142.802 136.397,143.500 135.580 C 143.885 135.129,144.803 134.157,145.540 133.420 C 146.277 132.683,147.150 131.810,147.480 131.480 C 147.810 131.150,148.737 130.223,149.540 129.420 C 150.343 128.617,151.315 127.699,151.700 127.380 C 152.222 126.947,152.400 126.200,152.400 124.436 C 152.400 122.244,152.495 121.996,153.700 121.050 C 154.415 120.489,155.243 119.771,155.540 119.455 C 155.837 119.139,156.710 118.250,157.480 117.480 C 158.250 116.710,159.123 115.837,159.420 115.540 C 159.717 115.243,160.617 114.343,161.420 113.540 C 162.223 112.737,163.222 111.792,163.640 111.440 C 164.229 110.944,164.400 110.267,164.400 108.436 C 164.400 106.244,164.495 105.996,165.700 105.050 C 166.415 104.489,167.216 103.798,167.480 103.515 C 167.744 103.232,168.590 102.370,169.360 101.600 C 170.130 100.830,171.057 99.903,171.420 99.540 C 171.783 99.177,172.710 98.250,173.480 97.480 C 174.250 96.710,175.222 95.792,175.640 95.440 C 176.229 94.944,176.400 94.267,176.400 92.436 C 176.400 90.244,176.495 89.996,177.700 89.050 C 178.415 88.489,179.216 87.798,179.480 87.515 C 179.744 87.232,180.644 86.316,181.480 85.480 C 182.316 84.644,183.243 83.717,183.540 83.420 C 183.837 83.123,184.710 82.250,185.480 81.480 C 186.250 80.710,187.222 79.792,187.640 79.440 C 188.229 78.944,188.400 78.267,188.400 76.436 C 188.400 74.244,188.495 73.996,189.700 73.050 C 190.415 72.489,191.243 71.771,191.540 71.455 C 192.237 70.713,194.713 68.237,195.455 67.540 C 195.771 67.243,196.496 66.406,197.067 65.680 C 198.039 64.444,199.600 64.752,199.600 66.180 " stroke="none" fill="#c8d454" fill-rule="evenodd"></path><path id="path4" d="M192.968 135.554 C 192.291 135.967,191.516 136.838,191.246 137.489 C 190.962 138.174,190.173 138.951,189.373 139.332 C 188.561 139.720,187.725 140.549,187.345 141.345 C 186.971 142.132,186.132 142.971,185.345 143.345 C 184.559 143.720,183.720 144.559,183.345 145.345 C 182.971 146.132,182.132 146.971,181.345 147.345 C 180.559 147.720,179.720 148.559,179.345 149.345 C 178.971 150.132,178.132 150.971,177.345 151.345 C 176.541 151.729,175.719 152.561,175.322 153.396 C 174.674 154.753,174.577 154.800,172.426 154.801 C 169.787 154.803,167.967 155.748,167.246 157.489 C 166.962 158.174,166.173 158.951,165.373 159.332 C 164.561 159.720,163.725 160.549,163.345 161.345 C 162.971 162.132,162.132 162.971,161.345 163.345 C 160.559 163.720,159.720 164.559,159.345 165.345 C 158.971 166.132,158.132 166.971,157.345 167.345 C 156.559 167.720,155.720 168.559,155.345 169.345 C 154.971 170.132,154.132 170.971,153.345 171.345 C 152.541 171.729,151.719 172.561,151.322 173.396 C 150.674 174.753,150.577 174.800,148.426 174.801 C 145.787 174.803,143.967 175.748,143.246 177.489 C 142.962 178.174,142.173 178.951,141.373 179.332 C 140.561 179.720,139.725 180.549,139.345 181.345 C 138.971 182.132,138.132 182.971,137.345 183.345 C 136.549 183.725,135.720 184.561,135.332 185.373 C 134.951 186.173,134.174 186.962,133.489 187.246 C 129.773 188.785,129.599 199.477,133.270 200.763 C 133.876 200.975,134.744 201.843,135.270 202.762 C 137.304 206.315,147.507 206.364,148.897 202.827 C 149.359 201.650,149.829 201.187,150.926 200.825 C 152.033 200.459,152.459 200.033,152.825 198.926 C 153.185 197.835,153.651 197.358,154.804 196.905 C 155.951 196.455,156.460 195.939,156.924 194.756 C 157.530 193.214,157.555 193.200,159.708 193.200 C 162.947 193.200,164.187 192.633,164.897 190.827 C 165.359 189.650,165.829 189.187,166.926 188.825 C 168.033 188.459,168.459 188.033,168.825 186.926 C 169.187 185.827,169.650 185.359,170.835 184.893 C 172.010 184.432,172.484 183.958,172.835 182.893 C 173.186 181.829,173.661 181.355,174.835 180.893 C 176.010 180.432,176.484 179.958,176.835 178.893 C 177.184 177.837,177.662 177.354,178.804 176.905 C 179.951 176.455,180.460 175.939,180.924 174.756 C 181.530 173.214,181.555 173.200,183.708 173.200 C 186.942 173.200,188.269 172.608,188.827 170.917 C 189.187 169.827,189.653 169.358,190.835 168.893 C 192.010 168.432,192.484 167.958,192.835 166.893 C 193.184 165.837,193.662 165.354,194.804 164.905 C 195.961 164.451,196.459 163.941,196.940 162.717 C 197.804 160.518,198.572 160.915,198.710 163.631 C 198.845 166.296,199.819 168.259,201.256 168.760 C 201.878 168.976,202.737 169.830,203.270 170.762 C 203.796 171.681,204.665 172.550,205.270 172.762 C 205.875 172.974,206.744 173.843,207.270 174.762 C 207.796 175.681,208.665 176.550,209.270 176.762 C 209.875 176.974,210.744 177.843,211.270 178.762 C 211.796 179.681,212.665 180.550,213.270 180.762 C 213.875 180.974,214.744 181.843,215.270 182.762 C 215.796 183.681,216.665 184.550,217.270 184.762 C 217.868 184.972,218.746 185.842,219.260 186.735 C 219.765 187.614,220.724 188.573,221.389 188.866 C 222.501 189.356,222.609 189.580,222.710 191.600 C 222.844 194.293,223.813 196.257,225.256 196.760 C 225.878 196.976,226.737 197.830,227.270 198.762 C 227.796 199.681,228.665 200.550,229.270 200.762 C 229.875 200.974,230.744 201.843,231.270 202.762 C 231.796 203.681,232.665 204.550,233.270 204.762 C 233.875 204.974,234.744 205.843,235.270 206.762 C 237.304 210.315,247.507 210.364,248.897 206.827 C 249.358 205.653,249.829 205.186,250.917 204.827 C 254.370 203.688,254.250 193.267,250.762 191.270 C 249.843 190.744,248.974 189.875,248.762 189.270 C 248.550 188.665,247.681 187.796,246.762 187.270 C 245.843 186.744,244.974 185.875,244.762 185.270 C 244.552 184.671,243.686 183.799,242.793 183.288 C 241.282 182.423,241.200 182.277,241.200 180.448 C 241.200 177.582,240.609 176.327,238.762 175.270 C 237.843 174.744,236.974 173.875,236.762 173.270 C 236.550 172.665,235.681 171.796,234.762 171.270 C 233.843 170.744,232.974 169.875,232.762 169.270 C 232.550 168.665,231.681 167.796,230.762 167.270 C 229.843 166.744,228.974 165.875,228.762 165.270 C 228.550 164.665,227.681 163.796,226.762 163.270 C 225.843 162.744,224.974 161.875,224.762 161.270 C 224.550 160.665,223.681 159.796,222.762 159.270 C 221.843 158.744,220.974 157.875,220.762 157.270 C 220.552 156.671,219.686 155.799,218.793 155.288 C 217.282 154.423,217.200 154.277,217.200 152.448 C 217.200 149.582,216.609 148.327,214.762 147.270 C 213.843 146.744,212.974 145.875,212.762 145.270 C 212.550 144.665,211.681 143.796,210.762 143.270 C 209.843 142.744,208.974 141.875,208.762 141.270 C 208.550 140.665,207.681 139.796,206.762 139.270 C 205.843 138.744,204.975 137.876,204.763 137.270 C 203.898 134.803,196.068 133.664,192.968 135.554 M202.877 137.500 C 203.208 137.885,203.587 138.507,203.720 138.883 C 203.853 139.259,204.697 140.030,205.596 140.598 C 206.495 141.165,207.397 142.066,207.600 142.600 C 207.803 143.134,208.703 144.034,209.600 144.600 C 210.497 145.166,211.392 146.053,211.589 146.570 C 211.785 147.088,212.723 148.032,213.673 148.668 C 215.384 149.815,215.402 149.851,215.600 152.600 C 215.798 155.349,215.816 155.385,217.527 156.532 C 218.477 157.168,219.415 158.112,219.611 158.630 C 219.808 159.147,220.703 160.034,221.600 160.600 C 222.497 161.166,223.397 162.066,223.600 162.600 C 223.803 163.134,224.703 164.034,225.600 164.600 C 226.497 165.166,227.397 166.066,227.600 166.600 C 227.803 167.134,228.703 168.034,229.600 168.600 C 230.497 169.166,231.397 170.066,231.600 170.600 C 231.803 171.134,232.703 172.034,233.600 172.600 C 234.497 173.166,235.392 174.053,235.589 174.570 C 235.785 175.088,236.723 176.032,237.673 176.668 C 239.384 177.815,239.402 177.851,239.600 180.600 C 239.798 183.349,239.816 183.385,241.527 184.532 C 242.477 185.168,243.415 186.112,243.611 186.630 C 243.808 187.147,244.703 188.034,245.600 188.600 C 246.497 189.166,247.392 190.053,247.589 190.570 C 247.785 191.088,248.723 192.033,249.673 192.670 L 251.400 193.828 251.514 197.900 C 251.629 202.015,251.097 203.600,249.600 203.600 C 249.081 203.600,247.600 205.081,247.600 205.600 C 247.600 207.097,246.015 207.629,241.900 207.514 L 237.828 207.400 236.670 205.673 C 236.033 204.723,235.088 203.785,234.570 203.589 C 234.053 203.392,233.166 202.497,232.600 201.600 C 232.034 200.703,231.134 199.803,230.600 199.600 C 230.066 199.397,229.165 198.495,228.598 197.596 C 228.030 196.697,227.259 195.853,226.883 195.720 C 225.268 195.148,224.800 194.319,224.800 192.027 C 224.800 189.549,224.110 188.174,222.574 187.590 C 222.055 187.393,221.166 186.497,220.600 185.600 C 220.034 184.703,219.134 183.803,218.600 183.600 C 218.066 183.397,217.166 182.497,216.600 181.600 C 216.034 180.703,215.134 179.803,214.600 179.600 C 214.066 179.397,213.166 178.497,212.600 177.600 C 212.034 176.703,211.134 175.803,210.600 175.600 C 210.066 175.397,209.166 174.497,208.600 173.600 C 208.034 172.703,207.134 171.803,206.600 171.600 C 206.066 171.397,205.165 170.495,204.598 169.596 C 204.030 168.697,203.259 167.853,202.883 167.720 C 201.261 167.146,200.800 166.322,200.800 163.992 C 200.800 161.327,199.766 159.600,198.171 159.600 C 197.200 159.600,195.600 160.845,195.600 161.600 C 195.600 161.820,195.240 162.360,194.800 162.800 C 194.360 163.240,193.820 163.600,193.600 163.600 C 193.380 163.600,192.840 163.960,192.400 164.400 C 191.960 164.840,191.600 165.380,191.600 165.600 C 191.600 165.820,191.240 166.360,190.800 166.800 C 190.360 167.240,189.820 167.600,189.600 167.600 C 189.380 167.600,188.840 167.960,188.400 168.400 C 187.960 168.840,187.600 169.380,187.600 169.600 C 187.600 170.779,185.958 171.600,183.600 171.600 C 181.242 171.600,179.600 172.421,179.600 173.600 C 179.600 173.820,179.240 174.360,178.800 174.800 C 178.360 175.240,177.820 175.600,177.600 175.600 C 177.380 175.600,176.840 175.960,176.400 176.400 C 175.960 176.840,175.600 177.380,175.600 177.600 C 175.600 177.820,175.240 178.360,174.800 178.800 C 174.360 179.240,173.820 179.600,173.600 179.600 C 173.380 179.600,172.840 179.960,172.400 180.400 C 171.960 180.840,171.600 181.380,171.600 181.600 C 171.600 182.119,170.119 183.600,169.600 183.600 C 169.380 183.600,168.840 183.960,168.400 184.400 C 167.960 184.840,167.600 185.380,167.600 185.600 C 167.600 186.119,166.119 187.600,165.600 187.600 C 165.380 187.600,164.840 187.960,164.400 188.400 C 163.960 188.840,163.600 189.380,163.600 189.600 C 163.600 190.779,161.958 191.600,159.600 191.600 C 157.242 191.600,155.600 192.421,155.600 193.600 C 155.600 193.820,155.240 194.360,154.800 194.800 C 154.360 195.240,153.820 195.600,153.600 195.600 C 153.081 195.600,151.600 197.081,151.600 197.600 C 151.600 197.820,151.240 198.360,150.800 198.800 C 150.360 199.240,149.820 199.600,149.600 199.600 C 149.081 199.600,147.600 201.081,147.600 201.600 C 147.600 203.097,146.015 203.629,141.900 203.514 L 137.828 203.400 136.667 201.669 C 136.029 200.718,135.212 199.835,134.853 199.709 C 133.026 199.065,132.800 198.447,132.800 194.109 C 132.800 189.998,133.151 188.800,134.353 188.800 C 134.579 188.800,135.222 188.342,135.782 187.782 C 136.342 187.222,136.800 186.579,136.800 186.353 C 136.800 186.128,137.057 185.686,137.371 185.371 C 137.686 185.057,138.128 184.800,138.353 184.800 C 138.579 184.800,139.222 184.342,139.782 183.782 C 140.342 183.222,140.800 182.579,140.800 182.353 C 140.800 181.823,141.823 180.800,142.353 180.800 C 142.886 180.800,144.800 178.886,144.800 178.353 C 144.800 177.335,146.025 176.800,148.353 176.800 C 150.742 176.800,152.800 175.667,152.800 174.353 C 152.800 173.823,153.823 172.800,154.353 172.800 C 154.886 172.800,156.800 170.886,156.800 170.353 C 156.800 169.823,157.823 168.800,158.353 168.800 C 158.579 168.800,159.222 168.342,159.782 167.782 C 160.342 167.222,160.800 166.579,160.800 166.353 C 160.800 165.823,161.823 164.800,162.353 164.800 C 162.886 164.800,164.800 162.886,164.800 162.353 C 164.800 161.823,165.823 160.800,166.353 160.800 C 166.886 160.800,168.800 158.886,168.800 158.353 C 168.800 157.335,170.025 156.800,172.353 156.800 C 174.742 156.800,176.800 155.667,176.800 154.353 C 176.800 154.128,177.057 153.686,177.371 153.371 C 177.686 153.057,178.128 152.800,178.353 152.800 C 178.886 152.800,180.800 150.886,180.800 150.353 C 180.800 150.128,181.057 149.686,181.371 149.371 C 181.686 149.057,182.128 148.800,182.353 148.800 C 182.886 148.800,184.800 146.886,184.800 146.353 C 184.800 145.823,185.823 144.800,186.353 144.800 C 186.579 144.800,187.222 144.342,187.782 143.782 C 188.342 143.222,188.800 142.579,188.800 142.353 C 188.800 141.823,189.823 140.800,190.353 140.800 C 190.880 140.800,192.800 138.889,192.800 138.365 C 192.800 136.689,201.537 135.939,202.877 137.500 M188.968 179.554 C 188.291 179.967,187.516 180.838,187.246 181.489 C 186.962 182.174,186.173 182.951,185.373 183.332 C 184.561 183.720,183.725 184.549,183.345 185.345 C 182.971 186.132,182.132 186.971,181.345 187.345 C 180.559 187.720,179.720 188.559,179.345 189.345 C 178.971 190.132,178.132 190.971,177.345 191.345 C 176.559 191.720,175.720 192.559,175.345 193.345 C 174.971 194.132,174.132 194.971,173.345 195.345 C 172.541 195.729,171.719 196.561,171.322 197.396 C 170.674 198.753,170.577 198.800,168.426 198.801 C 165.787 198.803,163.967 199.748,163.246 201.489 C 162.962 202.174,162.173 202.951,161.373 203.332 C 160.561 203.720,159.725 204.549,159.345 205.345 C 158.971 206.132,158.132 206.971,157.345 207.345 C 156.559 207.720,155.720 208.559,155.345 209.345 C 154.971 210.132,154.132 210.971,153.345 211.345 C 152.559 211.720,151.720 212.559,151.345 213.345 C 150.971 214.132,150.132 214.971,149.345 215.345 C 148.541 215.729,147.719 216.561,147.322 217.396 C 146.674 218.753,146.577 218.800,144.426 218.801 C 141.787 218.803,139.967 219.748,139.246 221.489 C 138.962 222.174,138.173 222.951,137.373 223.332 C 136.561 223.720,135.725 224.549,135.345 225.345 C 134.971 226.132,134.132 226.971,133.345 227.345 C 132.549 227.725,131.720 228.561,131.332 229.373 C 130.951 230.173,130.174 230.962,129.489 231.246 C 125.773 232.785,125.599 243.477,129.270 244.763 C 129.876 244.975,130.744 245.843,131.270 246.762 C 133.304 250.315,143.507 250.364,144.897 246.827 C 145.359 245.650,145.829 245.187,146.926 244.825 C 148.033 244.459,148.459 244.033,148.825 242.926 C 149.185 241.835,149.651 241.358,150.804 240.905 C 151.951 240.455,152.460 239.939,152.924 238.756 C 153.530 237.214,153.555 237.200,155.708 237.200 C 158.947 237.200,160.187 236.633,160.897 234.827 C 161.359 233.650,161.829 233.187,162.926 232.825 C 164.033 232.459,164.459 232.033,164.825 230.926 C 165.187 229.827,165.650 229.359,166.835 228.893 C 168.010 228.432,168.484 227.958,168.835 226.893 C 169.186 225.829,169.661 225.355,170.835 224.893 C 172.010 224.432,172.484 223.958,172.835 222.893 C 173.184 221.837,173.662 221.354,174.804 220.905 C 175.951 220.455,176.460 219.939,176.924 218.756 C 177.530 217.214,177.555 217.200,179.708 217.200 C 182.942 217.200,184.269 216.608,184.827 214.917 C 185.187 213.827,185.653 213.358,186.835 212.893 C 188.010 212.432,188.484 211.958,188.835 210.893 C 189.184 209.837,189.662 209.354,190.804 208.905 C 191.961 208.451,192.459 207.941,192.940 206.717 C 193.804 204.518,194.572 204.915,194.710 207.631 C 194.845 210.296,195.819 212.259,197.256 212.760 C 197.878 212.976,198.737 213.830,199.270 214.762 C 199.796 215.681,200.665 216.550,201.270 216.762 C 201.875 216.974,202.744 217.843,203.270 218.762 C 203.796 219.681,204.665 220.550,205.270 220.762 C 205.875 220.974,206.744 221.843,207.270 222.762 C 207.796 223.681,208.665 224.550,209.270 224.762 C 209.875 224.974,210.744 225.843,211.270 226.762 C 211.796 227.681,212.665 228.550,213.270 228.762 C 213.868 228.972,214.746 229.842,215.260 230.735 C 215.765 231.614,216.724 232.573,217.389 232.866 C 218.501 233.356,218.609 233.580,218.710 235.600 C 218.844 238.293,219.813 240.257,221.256 240.760 C 221.878 240.976,222.737 241.830,223.270 242.762 C 223.796 243.681,224.665 244.550,225.270 244.762 C 225.875 244.974,226.744 245.843,227.270 246.762 C 227.796 247.681,228.665 248.550,229.270 248.762 C 229.875 248.974,230.744 249.843,231.270 250.762 C 233.304 254.315,243.507 254.364,244.897 250.827 C 245.358 249.653,245.829 249.186,246.917 248.827 C 250.370 247.688,250.250 237.267,246.762 235.270 C 245.843 234.744,244.974 233.875,244.762 233.270 C 244.550 232.665,243.681 231.796,242.762 231.270 C 241.843 230.744,240.974 229.875,240.762 229.270 C 240.552 228.671,239.686 227.799,238.793 227.288 C 237.282 226.423,237.200 226.277,237.200 224.448 C 237.200 221.582,236.609 220.327,234.762 219.270 C 233.843 218.744,232.974 217.875,232.762 217.270 C 232.550 216.665,231.681 215.796,230.762 215.270 C 229.843 214.744,228.974 213.875,228.762 213.270 C 228.550 212.665,227.681 211.796,226.762 211.270 C 225.843 210.744,224.974 209.875,224.762 209.270 C 224.550 208.665,223.681 207.796,222.762 207.270 C 221.843 206.744,220.974 205.875,220.762 205.270 C 220.550 204.665,219.681 203.796,218.762 203.270 C 217.843 202.744,216.974 201.875,216.762 201.270 C 216.552 200.671,215.686 199.799,214.793 199.288 C 213.282 198.423,213.200 198.277,213.200 196.448 C 213.200 193.582,212.609 192.327,210.762 191.270 C 209.843 190.744,208.974 189.875,208.762 189.270 C 208.550 188.665,207.681 187.796,206.762 187.270 C 205.843 186.744,204.974 185.875,204.762 185.270 C 204.550 184.665,203.681 183.796,202.762 183.270 C 201.843 182.744,200.975 181.876,200.763 181.270 C 199.898 178.803,192.068 177.664,188.968 179.554 M198.877 181.500 C 199.208 181.885,199.587 182.507,199.720 182.883 C 199.853 183.259,200.697 184.030,201.596 184.598 C 202.495 185.165,203.397 186.066,203.600 186.600 C 203.803 187.134,204.703 188.034,205.600 188.600 C 206.497 189.166,207.392 190.053,207.589 190.570 C 207.785 191.088,208.723 192.032,209.673 192.668 C 211.384 193.815,211.402 193.851,211.600 196.600 C 211.798 199.349,211.816 199.385,213.527 200.532 C 214.477 201.168,215.415 202.112,215.611 202.630 C 215.808 203.147,216.703 204.034,217.600 204.600 C 218.497 205.166,219.397 206.066,219.600 206.600 C 219.803 207.134,220.703 208.034,221.600 208.600 C 222.497 209.166,223.397 210.066,223.600 210.600 C 223.803 211.134,224.703 212.034,225.600 212.600 C 226.497 213.166,227.397 214.066,227.600 214.600 C 227.803 215.134,228.703 216.034,229.600 216.600 C 230.497 217.166,231.392 218.053,231.589 218.570 C 231.785 219.088,232.723 220.032,233.673 220.668 C 235.384 221.815,235.402 221.851,235.600 224.600 C 235.798 227.349,235.816 227.385,237.527 228.532 C 238.477 229.168,239.415 230.112,239.611 230.630 C 239.808 231.147,240.703 232.034,241.600 232.600 C 242.497 233.166,243.392 234.053,243.589 234.570 C 243.785 235.088,244.723 236.033,245.673 236.670 L 247.400 237.828 247.514 241.900 C 247.629 246.015,247.097 247.600,245.600 247.600 C 245.081 247.600,243.600 249.081,243.600 249.600 C 243.600 251.097,242.015 251.629,237.900 251.514 L 233.828 251.400 232.670 249.673 C 232.033 248.723,231.088 247.785,230.570 247.589 C 230.053 247.392,229.166 246.497,228.600 245.600 C 228.034 244.703,227.134 243.803,226.600 243.600 C 226.066 243.397,225.165 242.495,224.598 241.596 C 224.030 240.697,223.259 239.853,222.883 239.720 C 221.268 239.148,220.800 238.319,220.800 236.027 C 220.800 233.549,220.110 232.174,218.574 231.590 C 218.055 231.393,217.166 230.497,216.600 229.600 C 216.034 228.703,215.134 227.803,214.600 227.600 C 214.066 227.397,213.166 226.497,212.600 225.600 C 212.034 224.703,211.134 223.803,210.600 223.600 C 210.066 223.397,209.166 222.497,208.600 221.600 C 208.034 220.703,207.134 219.803,206.600 219.600 C 206.066 219.397,205.166 218.497,204.600 217.600 C 204.034 216.703,203.134 215.803,202.600 215.600 C 202.066 215.397,201.165 214.495,200.598 213.596 C 200.030 212.697,199.259 211.853,198.883 211.720 C 197.261 211.146,196.800 210.322,196.800 207.992 C 196.800 205.327,195.766 203.600,194.171 203.600 C 193.200 203.600,191.600 204.845,191.600 205.600 C 191.600 205.820,191.240 206.360,190.800 206.800 C 190.360 207.240,189.820 207.600,189.600 207.600 C 189.380 207.600,188.840 207.960,188.400 208.400 C 187.960 208.840,187.600 209.380,187.600 209.600 C 187.600 209.820,187.240 210.360,186.800 210.800 C 186.360 211.240,185.820 211.600,185.600 211.600 C 185.380 211.600,184.840 211.960,184.400 212.400 C 183.960 212.840,183.600 213.380,183.600 213.600 C 183.600 214.779,181.958 215.600,179.600 215.600 C 177.242 215.600,175.600 216.421,175.600 217.600 C 175.600 217.820,175.240 218.360,174.800 218.800 C 174.360 219.240,173.820 219.600,173.600 219.600 C 173.380 219.600,172.840 219.960,172.400 220.400 C 171.960 220.840,171.600 221.380,171.600 221.600 C 171.600 221.820,171.240 222.360,170.800 222.800 C 170.360 223.240,169.820 223.600,169.600 223.600 C 169.380 223.600,168.840 223.960,168.400 224.400 C 167.960 224.840,167.600 225.380,167.600 225.600 C 167.600 226.119,166.119 227.600,165.600 227.600 C 165.380 227.600,164.840 227.960,164.400 228.400 C 163.960 228.840,163.600 229.380,163.600 229.600 C 163.600 230.119,162.119 231.600,161.600 231.600 C 161.380 231.600,160.840 231.960,160.400 232.400 C 159.960 232.840,159.600 233.380,159.600 233.600 C 159.600 234.779,157.958 235.600,155.600 235.600 C 153.242 235.600,151.600 236.421,151.600 237.600 C 151.600 238.119,150.119 239.600,149.600 239.600 C 149.081 239.600,147.600 241.081,147.600 241.600 C 147.600 242.119,146.119 243.600,145.600 243.600 C 145.081 243.600,143.600 245.081,143.600 245.600 C 143.600 247.097,142.015 247.629,137.900 247.514 L 133.828 247.400 132.667 245.669 C 132.029 244.718,131.212 243.835,130.853 243.709 C 129.026 243.065,128.800 242.447,128.800 238.109 C 128.800 233.998,129.151 232.800,130.353 232.800 C 130.886 232.800,132.800 230.886,132.800 230.353 C 132.800 229.823,133.823 228.800,134.353 228.800 C 134.886 228.800,136.800 226.886,136.800 226.353 C 136.800 225.823,137.823 224.800,138.353 224.800 C 138.886 224.800,140.800 222.886,140.800 222.353 C 140.800 221.335,142.025 220.800,144.353 220.800 C 146.742 220.800,148.800 219.667,148.800 218.353 C 148.800 217.823,149.823 216.800,150.353 216.800 C 150.886 216.800,152.800 214.886,152.800 214.353 C 152.800 213.823,153.823 212.800,154.353 212.800 C 154.886 212.800,156.800 210.886,156.800 210.353 C 156.800 209.823,157.823 208.800,158.353 208.800 C 158.886 208.800,160.800 206.886,160.800 206.353 C 160.800 205.823,161.823 204.800,162.353 204.800 C 162.886 204.800,164.800 202.886,164.800 202.353 C 164.800 201.335,166.025 200.800,168.353 200.800 C 170.742 200.800,172.800 199.667,172.800 198.353 C 172.800 198.128,173.057 197.686,173.371 197.371 C 173.686 197.057,174.128 196.800,174.353 196.800 C 174.886 196.800,176.800 194.886,176.800 194.353 C 176.800 194.128,177.057 193.686,177.371 193.371 C 177.686 193.057,178.128 192.800,178.353 192.800 C 178.886 192.800,180.800 190.886,180.800 190.353 C 180.800 189.823,181.823 188.800,182.353 188.800 C 182.579 188.800,183.222 188.342,183.782 187.782 C 184.342 187.222,184.800 186.579,184.800 186.353 C 184.800 185.823,185.823 184.800,186.353 184.800 C 186.880 184.800,188.800 182.889,188.800 182.365 C 188.800 180.689,197.537 179.939,198.877 181.500 " stroke="none" fill="#58d478" fill-rule="evenodd"></path></g></svg>