<svg id="svg" version="1.1" xmlns="http://www.w3.org/2000/svg" xmlns:xlink="http://www.w3.org/1999/xlink" width="400" height="400" viewBox="0, 0, 400,400"><g id="svgg"><path id="path0" d="M197.237 67.048 C 196.854 68.108,196.317 68.666,195.236 69.127 C 194.197 69.571,193.571 70.197,193.127 71.236 C 192.666 72.317,192.108 72.854,191.048 73.237 C 189.609 73.758,189.600 73.775,189.600 76.100 C 189.600 78.995,188.817 80.598,187.097 81.219 C 186.172 81.554,185.596 82.138,185.141 83.203 C 184.679 84.286,184.113 84.852,183.141 85.203 C 182.170 85.555,181.604 86.121,181.141 87.203 C 180.665 88.318,180.117 88.850,179.048 89.237 C 177.609 89.758,177.600 89.775,177.600 92.100 C 177.600 94.995,176.817 96.598,175.097 97.219 C 174.172 97.554,173.596 98.138,173.141 99.203 C 172.674 100.298,172.114 100.852,171.107 101.216 C 170.090 101.583,169.583 102.090,169.216 103.107 C 168.846 104.130,168.304 104.668,167.161 105.148 C 165.612 105.799,165.608 105.805,165.604 108.120 C 165.599 110.997,164.811 112.599,163.097 113.219 C 162.172 113.554,161.596 114.138,161.141 115.203 C 160.674 116.298,160.114 116.852,159.107 117.216 C 158.090 117.583,157.583 118.090,157.216 119.107 C 156.846 120.130,156.304 120.668,155.161 121.148 C 153.612 121.799,153.608 121.805,153.604 124.120 C 153.599 127.019,152.813 128.599,151.063 129.232 C 150.092 129.583,149.578 130.104,149.216 131.107 C 148.852 132.114,148.298 132.674,147.203 133.141 C 146.138 133.596,145.554 134.172,145.219 135.097 C 144.263 137.742,146.829 137.600,100.020 137.600 C 59.806 137.600,55.367 137.712,58.300 138.649 C 60.021 139.199,60.644 139.737,61.270 141.217 C 61.697 142.225,62.206 142.805,62.670 142.813 C 64.440 142.844,65.600 144.988,65.600 148.231 C 65.600 149.969,65.746 150.472,66.300 150.649 C 68.021 151.199,68.644 151.737,69.270 153.217 C 69.697 154.225,70.206 154.805,70.670 154.813 C 72.440 154.844,73.600 156.988,73.600 160.231 C 73.600 161.969,73.746 162.472,74.300 162.649 C 76.021 163.199,76.644 163.737,77.270 165.217 C 77.697 166.225,78.206 166.805,78.670 166.813 C 80.440 166.844,81.600 168.988,81.600 172.231 C 81.600 173.969,81.746 174.472,82.300 174.649 C 84.021 175.199,84.644 175.737,85.270 177.217 C 85.697 178.225,86.206 178.805,86.670 178.813 C 88.440 178.844,89.600 180.988,89.600 184.231 C 89.600 185.969,89.746 186.472,90.300 186.649 C 92.021 187.199,92.644 187.737,93.270 189.217 C 93.697 190.225,94.206 190.805,94.670 190.813 C 96.440 190.844,97.600 192.988,97.600 196.231 C 97.600 197.969,97.746 198.472,98.300 198.649 C 101.104 199.545,101.600 200.701,101.600 206.348 C 101.600 211.123,101.093 212.498,99.063 213.232 C 98.092 213.583,97.578 214.104,97.216 215.107 C 96.846 216.130,96.304 216.668,95.161 217.148 C 93.612 217.799,93.608 217.805,93.604 220.120 C 93.599 223.019,92.813 224.599,91.063 225.232 C 90.092 225.583,89.578 226.104,89.216 227.107 C 88.846 228.130,88.304 228.668,87.161 229.148 C 85.612 229.799,85.608 229.805,85.604 232.120 C 85.599 235.019,84.813 236.599,83.063 237.232 C 82.092 237.583,81.578 238.104,81.216 239.107 C 80.846 240.130,80.304 240.668,79.161 241.148 C 77.612 241.799,77.608 241.805,77.604 244.120 C 77.599 247.019,76.813 248.599,75.063 249.232 C 74.092 249.583,73.578 250.104,73.216 251.107 C 72.846 252.130,72.304 252.668,71.161 253.148 C 69.612 253.799,69.608 253.805,69.604 256.120 C 69.599 259.019,68.813 260.599,67.063 261.232 C 66.092 261.583,65.578 262.104,65.216 263.107 C 64.844 264.136,64.307 264.665,63.146 265.148 L 61.580 265.800 61.690 268.200 L 61.800 270.600 102.600 270.800 C 128.793 270.928,143.615 271.143,144.000 271.400 C 144.330 271.620,144.912 272.475,145.294 273.300 C 145.706 274.191,146.274 274.805,146.694 274.813 C 147.711 274.831,148.502 275.588,149.294 277.300 C 149.706 278.191,150.274 278.805,150.694 278.813 C 152.440 278.844,153.600 281.006,153.600 284.231 C 153.600 285.969,153.746 286.472,154.300 286.649 C 156.021 287.199,156.644 287.737,157.270 289.217 C 157.697 290.225,158.206 290.805,158.670 290.813 C 159.710 290.831,160.497 291.576,161.294 293.300 C 161.706 294.191,162.274 294.805,162.694 294.813 C 164.440 294.844,165.600 297.006,165.600 300.231 C 165.600 301.969,165.746 302.472,166.300 302.649 C 168.021 303.199,168.644 303.737,169.270 305.217 C 169.697 306.225,170.206 306.805,170.670 306.813 C 171.710 306.831,172.497 307.576,173.294 309.300 C 173.706 310.191,174.274 310.805,174.694 310.813 C 176.440 310.844,177.600 313.006,177.600 316.231 C 177.600 317.969,177.746 318.472,178.300 318.649 C 180.021 319.199,180.644 319.737,181.270 321.217 C 181.697 322.225,182.206 322.805,182.670 322.813 C 183.710 322.831,184.497 323.576,185.294 325.300 C 185.706 326.191,186.274 326.805,186.694 326.813 C 188.440 326.844,189.600 329.006,189.600 332.231 C 189.600 333.969,189.746 334.472,190.300 334.649 C 192.021 335.199,192.644 335.737,193.270 337.217 C 193.697 338.225,194.206 338.805,194.670 338.813 C 195.713 338.831,196.497 339.577,197.304 341.321 C 198.005 342.838,198.800 343.002,198.800 341.631 C 198.800 340.688,200.621 338.882,201.731 338.724 C 202.518 338.612,202.611 338.328,202.717 335.738 C 202.843 332.641,203.833 330.994,205.731 330.724 C 206.268 330.647,206.647 330.268,206.724 329.731 C 206.883 328.611,208.611 326.883,209.731 326.724 C 210.268 326.647,210.647 326.268,210.724 325.731 C 210.883 324.611,212.611 322.883,213.731 322.724 C 214.518 322.612,214.611 322.328,214.717 319.738 C 214.843 316.641,215.833 314.994,217.731 314.724 C 218.268 314.647,218.647 314.268,218.724 313.731 C 218.883 312.611,220.611 310.883,221.731 310.724 C 222.518 310.612,222.611 310.328,222.717 307.738 C 222.843 304.641,223.833 302.994,225.731 302.724 C 226.268 302.647,226.647 302.268,226.724 301.731 C 226.883 300.611,228.611 298.883,229.731 298.724 C 230.518 298.612,230.611 298.328,230.717 295.738 C 230.843 292.641,231.833 290.994,233.731 290.724 C 234.268 290.647,234.647 290.268,234.724 289.731 C 234.883 288.611,236.611 286.883,237.731 286.724 C 238.268 286.647,238.647 286.268,238.724 285.731 C 238.883 284.611,240.611 282.883,241.731 282.724 C 242.518 282.612,242.611 282.328,242.717 279.738 C 242.843 276.641,243.833 274.994,245.731 274.724 C 246.268 274.647,246.647 274.268,246.724 273.731 C 246.792 273.253,247.311 272.399,247.876 271.833 L 248.905 270.804 289.753 270.702 L 330.600 270.600 330.720 268.303 L 330.840 266.006 329.320 265.303 C 327.589 264.502,326.831 263.714,326.813 262.694 C 326.805 262.274,326.191 261.706,325.300 261.294 C 323.135 260.292,322.827 259.723,322.813 256.694 L 322.800 253.987 321.300 253.294 C 319.588 252.502,318.831 251.711,318.813 250.694 C 318.805 250.274,318.191 249.706,317.300 249.294 C 315.135 248.292,314.827 247.723,314.813 244.694 L 314.800 241.987 313.300 241.294 C 311.588 240.502,310.831 239.711,310.813 238.694 C 310.805 238.274,310.191 237.706,309.300 237.294 C 307.131 236.291,306.827 235.725,306.813 232.670 L 306.800 229.941 305.223 229.270 C 304.060 228.776,303.495 228.217,303.072 227.144 C 302.647 226.065,302.127 225.553,301.062 225.168 C 299.358 224.552,298.800 223.303,298.800 220.111 C 298.800 217.964,298.783 217.933,297.223 217.270 C 296.060 216.776,295.495 216.217,295.072 215.144 C 294.647 214.065,294.127 213.553,293.062 213.168 C 289.337 211.821,289.941 198.879,293.732 198.813 C 294.206 198.804,294.680 198.251,295.075 197.244 C 295.642 195.801,296.324 195.217,298.100 194.649 C 298.652 194.472,298.800 193.971,298.800 192.272 C 298.800 188.644,299.479 187.486,302.100 186.649 C 302.652 186.472,302.800 185.971,302.800 184.272 C 302.800 180.644,303.479 179.486,306.100 178.649 C 306.485 178.526,306.800 178.084,306.800 177.667 C 306.800 176.695,308.602 174.884,309.731 174.724 C 310.518 174.612,310.611 174.328,310.717 171.738 C 310.843 168.641,311.833 166.994,313.731 166.724 C 314.268 166.647,314.647 166.268,314.724 165.731 C 314.883 164.611,316.611 162.883,317.731 162.724 C 318.518 162.612,318.611 162.328,318.717 159.738 C 318.843 156.641,319.833 154.994,321.731 154.724 C 322.268 154.647,322.647 154.268,322.724 153.731 C 322.883 152.611,324.611 150.883,325.731 150.724 C 326.518 150.612,326.611 150.328,326.717 147.738 C 326.843 144.641,327.833 142.994,329.731 142.724 C 330.268 142.647,330.647 142.268,330.724 141.731 C 330.877 140.654,332.592 138.890,333.647 138.724 C 334.078 138.656,334.425 138.420,334.416 138.200 C 334.406 137.937,319.818 137.731,291.900 137.600 C 266.732 137.482,249.074 137.247,248.600 137.025 C 247.562 136.538,246.829 135.582,246.813 134.694 C 246.805 134.274,246.191 133.706,245.300 133.294 C 243.588 132.502,242.831 131.711,242.813 130.694 C 242.805 130.274,242.191 129.706,241.300 129.294 C 239.135 128.292,238.827 127.723,238.813 124.694 L 238.800 121.987 237.300 121.294 C 235.588 120.502,234.831 119.711,234.813 118.694 C 234.805 118.274,234.191 117.706,233.300 117.294 C 231.135 116.292,230.827 115.723,230.813 112.694 L 230.800 109.987 229.300 109.294 C 227.588 108.502,226.831 107.711,226.813 106.694 C 226.805 106.274,226.191 105.706,225.300 105.294 C 223.135 104.292,222.827 103.723,222.813 100.694 L 222.800 97.987 221.300 97.294 C 219.588 96.502,218.831 95.711,218.813 94.694 C 218.805 94.274,218.191 93.706,217.300 93.294 C 215.588 92.502,214.831 91.711,214.813 90.694 C 214.805 90.274,214.191 89.706,213.300 89.294 C 211.135 88.292,210.827 87.723,210.813 84.694 L 210.800 81.987 209.300 81.294 C 207.588 80.502,206.831 79.711,206.813 78.694 C 206.805 78.274,206.191 77.706,205.300 77.294 C 203.131 76.291,202.827 75.725,202.813 72.670 L 202.800 69.941 201.217 69.270 C 199.737 68.644,199.199 68.021,198.649 66.300 C 198.300 65.208,197.808 65.469,197.237 67.048 M235.728 160.070 C 236.096 160.438,236.557 161.162,236.754 161.678 C 236.950 162.195,237.626 162.882,238.255 163.206 C 240.625 164.425,240.800 164.897,240.800 170.075 C 240.800 174.506,240.739 174.882,239.900 175.611 C 239.405 176.041,238.460 176.933,237.800 177.592 C 237.140 178.252,236.193 179.198,235.696 179.696 C 235.198 180.193,234.275 181.117,233.644 181.748 C 233.012 182.379,232.136 183.256,231.696 183.696 C 231.256 184.136,230.356 185.036,229.696 185.696 C 229.036 186.356,228.159 187.232,227.748 187.644 C 227.337 188.055,226.460 188.931,225.800 189.591 C 225.140 190.251,224.217 191.175,223.748 191.644 C 223.279 192.112,222.356 193.036,221.696 193.696 C 221.036 194.356,220.136 195.256,219.696 195.696 C 219.256 196.136,218.356 197.036,217.696 197.696 C 216.875 198.517,214.699 200.692,213.696 201.696 C 213.036 202.356,212.136 203.256,211.696 203.696 C 211.256 204.136,210.356 205.036,209.696 205.696 C 209.036 206.356,208.136 207.256,207.696 207.696 C 207.256 208.136,206.356 209.036,205.696 209.696 C 205.036 210.356,204.136 211.256,203.696 211.696 C 203.256 212.136,202.356 213.036,201.696 213.696 C 201.036 214.356,200.136 215.256,199.696 215.696 C 199.256 216.136,198.356 217.036,197.696 217.696 C 197.036 218.356,196.136 219.256,195.696 219.696 C 195.256 220.136,194.356 221.036,193.696 221.696 C 193.036 222.356,192.136 223.256,191.696 223.696 C 191.256 224.136,190.356 225.036,189.696 225.696 C 189.036 226.356,188.136 227.256,187.696 227.696 C 187.256 228.136,186.356 229.036,185.696 229.696 C 185.036 230.356,184.112 231.279,183.644 231.748 C 183.175 232.217,182.298 233.093,181.696 233.696 C 181.093 234.298,180.193 235.198,179.696 235.696 C 179.198 236.193,178.298 237.093,177.696 237.696 C 177.093 238.298,176.217 239.175,175.748 239.644 C 175.279 240.112,174.356 241.036,173.696 241.696 C 173.036 242.356,172.136 243.256,171.696 243.696 C 171.256 244.136,170.333 245.059,169.645 245.748 C 168.957 246.437,168.041 247.405,167.611 247.900 C 166.882 248.739,166.506 248.800,162.075 248.800 C 156.897 248.800,156.425 248.625,155.206 246.255 C 154.882 245.626,154.195 244.950,153.678 244.754 C 151.637 243.978,151.409 243.370,151.267 238.332 L 151.133 233.605 152.414 232.451 C 153.119 231.815,154.056 230.936,154.496 230.496 C 154.936 230.056,155.836 229.156,156.496 228.496 C 157.156 227.836,158.056 226.936,158.496 226.496 C 158.936 226.056,159.836 225.156,160.496 224.496 C 161.156 223.836,162.056 222.936,162.496 222.496 C 162.936 222.056,163.836 221.156,164.496 220.496 C 165.156 219.836,166.056 218.936,166.496 218.496 C 166.936 218.056,167.836 217.156,168.496 216.496 C 169.156 215.836,170.056 214.936,170.496 214.496 C 170.936 214.056,171.836 213.156,172.496 212.496 C 173.156 211.836,174.056 210.936,174.496 210.496 C 174.936 210.056,175.836 209.156,176.496 208.496 C 177.156 207.836,178.056 206.936,178.496 206.496 C 178.936 206.056,179.836 205.156,180.496 204.496 C 181.156 203.836,182.056 202.936,182.496 202.496 C 182.936 202.056,183.836 201.156,184.496 200.496 C 185.156 199.836,186.056 198.936,186.496 198.496 C 186.936 198.056,187.836 197.156,188.496 196.496 C 189.156 195.836,190.056 194.936,190.496 194.496 C 190.936 194.056,191.836 193.156,192.496 192.496 C 193.156 191.836,194.056 190.936,194.496 190.496 C 194.936 190.056,195.836 189.156,196.496 188.496 C 197.156 187.836,198.056 186.936,198.496 186.496 C 198.936 186.056,199.812 185.179,200.444 184.548 C 201.075 183.917,201.998 182.993,202.496 182.496 C 202.993 181.998,203.940 181.051,204.600 180.391 C 205.260 179.731,206.113 178.878,206.496 178.496 C 206.878 178.113,207.731 177.260,208.391 176.600 C 209.051 175.940,209.998 174.993,210.496 174.496 C 210.993 173.998,211.940 173.051,212.600 172.391 C 213.260 171.731,214.113 170.878,214.496 170.496 C 214.878 170.113,215.755 169.237,216.444 168.548 C 217.132 167.859,218.056 166.936,218.496 166.496 C 218.936 166.056,219.812 165.179,220.444 164.548 C 221.075 163.917,221.951 163.040,222.391 162.600 C 222.831 162.160,223.735 161.200,224.398 160.467 L 225.605 159.133 230.332 159.267 C 234.096 159.373,235.196 159.537,235.728 160.070 " stroke="none" fill="#24b44c" fill-rule="evenodd"></path><path id="path1" d="M190.000 36.000 L 190.000 38.000 188.000 38.000 L 186.000 38.000 186.000 40.000 L 186.000 42.000 184.000 42.000 L 182.000 42.000 182.000 46.000 L 182.000 50.000 180.000 50.000 L 178.000 50.000 178.000 52.000 L 178.000 54.000 176.000 54.000 L 174.000 54.000 174.000 56.000 L 174.000 58.000 172.000 58.000 L 170.000 58.000 170.000 62.000 L 170.000 66.000 168.000 66.000 L 166.000 66.000 166.000 68.000 L 166.000 70.000 164.000 70.000 L 162.000 70.000 162.000 72.000 L 162.000 74.000 160.000 74.000 L 158.000 74.000 158.000 78.000 L 158.000 82.000 156.000 82.000 L 154.000 82.000 154.000 84.000 L 154.000 86.000 152.000 86.000 L 150.000 86.000 150.000 88.000 L 150.000 90.000 148.000 90.000 L 146.000 90.000 146.000 94.000 L 146.000 98.000 144.000 98.000 L 142.000 98.000 142.000 100.000 L 142.000 102.000 140.000 102.000 L 138.000 102.000 138.000 104.000 L 138.000 106.000 136.000 106.000 L 134.000 106.000 134.000 110.000 L 134.000 114.000 82.000 114.000 L 30.000 114.000 30.000 116.000 L 30.000 118.000 28.000 118.000 L 26.000 118.000 26.000 126.000 L 26.000 134.000 28.000 134.000 L 30.000 134.000 30.000 138.000 L 30.000 142.000 32.000 142.000 L 34.000 142.000 34.000 144.000 L 34.000 146.000 36.000 146.000 L 38.000 146.000 38.000 150.000 L 38.000 154.000 40.000 154.000 L 42.000 154.000 42.000 156.000 L 42.000 158.000 44.000 158.000 L 46.000 158.000 46.000 162.000 L 46.000 166.000 48.000 166.000 L 50.000 166.000 50.000 168.000 L 50.000 170.000 52.000 170.000 L 54.000 170.000 54.000 174.000 L 54.000 178.000 56.000 178.000 L 58.000 178.000 58.000 180.000 L 58.000 182.000 60.000 182.000 L 62.000 182.000 62.000 186.000 L 62.000 190.000 64.000 190.000 L 66.000 190.000 66.000 192.000 L 66.000 194.000 68.000 194.000 L 70.000 194.000 70.000 198.000 L 70.000 202.000 72.000 202.000 L 74.000 202.000 74.000 206.000 L 74.000 210.000 72.000 210.000 L 70.000 210.000 70.000 212.000 L 70.000 214.000 68.000 214.000 L 66.000 214.000 66.000 218.000 L 66.000 222.000 64.000 222.000 L 62.000 222.000 62.000 224.000 L 62.000 226.000 60.000 226.000 L 58.000 226.000 58.000 230.000 L 58.000 234.000 56.000 234.000 L 54.000 234.000 54.000 236.000 L 54.000 238.000 52.000 238.000 L 50.000 238.000 50.000 242.000 L 50.000 246.000 48.000 246.000 L 46.000 246.000 46.000 248.000 L 46.000 250.000 44.000 250.000 L 42.000 250.000 42.000 254.000 L 42.000 258.000 40.000 258.000 L 38.000 258.000 38.000 260.000 L 38.000 262.000 36.000 262.000 L 34.000 262.000 34.000 266.000 L 34.000 270.000 32.000 270.000 L 30.000 270.000 30.000 272.000 L 30.000 274.000 28.000 274.000 L 26.000 274.000 26.000 282.000 L 26.000 290.000 28.000 290.000 L 30.000 290.000 30.000 292.000 L 30.000 294.000 82.000 294.000 L 134.000 294.000 134.000 298.000 L 134.000 302.000 136.000 302.000 L 138.000 302.000 138.000 304.000 L 138.000 306.000 140.000 306.000 L 142.000 306.000 142.000 308.000 L 142.000 310.000 144.000 310.000 L 146.000 310.000 146.000 314.000 L 146.000 318.000 148.000 318.000 L 150.000 318.000 150.000 320.000 L 150.000 322.000 152.000 322.000 L 154.000 322.000 154.000 324.000 L 154.000 326.000 156.000 326.000 L 158.000 326.000 158.000 330.000 L 158.000 334.000 160.000 334.000 L 162.000 334.000 162.000 336.000 L 162.000 338.000 164.000 338.000 L 166.000 338.000 166.000 340.000 L 166.000 342.000 168.000 342.000 L 170.000 342.000 170.000 346.000 L 170.000 350.000 172.000 350.000 L 174.000 350.000 174.000 352.000 L 174.000 354.000 176.000 354.000 L 178.000 354.000 178.000 356.000 L 178.000 358.000 180.000 358.000 L 182.000 358.000 182.000 362.000 L 182.000 366.000 184.000 366.000 L 186.000 366.000 186.000 368.000 L 186.000 370.000 188.000 370.000 L 190.000 370.000 190.000 372.000 L 190.000 374.000 198.000 374.000 L 206.000 374.000 206.000 372.000 L 206.000 370.000 208.000 370.000 L 210.000 370.000 210.000 368.000 L 210.000 366.000 212.000 366.000 L 214.000 366.000 214.000 362.000 L 214.000 358.000 216.000 358.000 L 218.000 358.000 218.000 356.000 L 218.000 354.000 220.000 354.000 L 222.000 354.000 222.000 350.000 L 222.000 346.000 224.000 346.000 L 226.000 346.000 226.000 344.000 L 226.000 342.000 228.000 342.000 L 230.000 342.000 230.000 338.000 L 230.000 334.000 232.000 334.000 L 234.000 334.000 234.000 332.000 L 234.000 330.000 236.000 330.000 L 238.000 330.000 238.000 328.000 L 238.000 326.000 240.000 326.000 L 242.000 326.000 242.000 322.000 L 242.000 318.000 244.000 318.000 L 246.000 318.000 246.000 316.000 L 246.000 314.000 248.000 314.000 L 250.000 314.000 250.000 310.000 L 250.000 306.000 252.000 306.000 L 254.000 306.000 254.000 304.000 L 254.000 302.000 256.000 302.000 L 258.000 302.000 258.000 298.000 L 258.000 294.000 310.000 294.000 L 362.000 294.000 362.000 292.000 L 362.000 290.000 364.000 290.000 L 366.000 290.000 366.000 282.000 L 366.000 274.000 364.000 274.000 L 362.000 274.000 362.000 272.000 L 362.000 270.000 360.000 270.000 L 358.000 270.000 358.000 266.000 L 358.000 262.000 356.000 262.000 L 354.000 262.000 354.000 260.000 L 354.000 258.000 352.000 258.000 L 350.000 258.000 350.000 254.000 L 350.000 250.000 348.000 250.000 L 346.000 250.000 346.000 248.000 L 346.000 246.000 344.000 246.000 L 342.000 246.000 342.000 242.000 L 342.000 238.000 340.000 238.000 L 338.000 238.000 338.000 236.000 L 338.000 234.000 336.000 234.000 L 334.000 234.000 334.000 230.000 L 334.000 226.000 332.000 226.000 L 330.000 226.000 330.000 224.000 L 330.000 222.000 328.000 222.000 L 326.000 222.000 326.000 218.000 L 326.000 214.000 324.000 214.000 L 322.000 214.000 322.000 212.000 L 322.000 210.000 320.000 210.000 L 318.000 210.000 318.000 206.000 L 318.000 202.000 320.000 202.000 L 322.000 202.000 322.000 198.000 L 322.000 194.000 324.000 194.000 L 326.000 194.000 326.000 192.000 L 326.000 190.000 328.000 190.000 L 330.000 190.000 330.000 186.000 L 330.000 182.000 332.000 182.000 L 334.000 182.000 334.000 180.000 L 334.000 178.000 336.000 178.000 L 338.000 178.000 338.000 174.000 L 338.000 170.000 340.000 170.000 L 342.000 170.000 342.000 168.000 L 342.000 166.000 344.000 166.000 L 346.000 166.000 346.000 162.000 L 346.000 158.000 348.000 158.000 L 350.000 158.000 350.000 156.000 L 350.000 154.000 352.000 154.000 L 354.000 154.000 354.000 150.000 L 354.000 146.000 356.000 146.000 L 358.000 146.000 358.000 144.000 L 358.000 142.000 360.000 142.000 L 362.000 142.000 362.000 138.000 L 362.000 134.000 364.000 134.000 L 366.000 134.000 366.000 126.000 L 366.000 118.000 364.000 118.000 L 362.000 118.000 362.000 116.000 L 362.000 114.000 310.000 114.000 L 258.000 114.000 258.000 110.000 L 258.000 106.000 256.000 106.000 L 254.000 106.000 254.000 104.000 L 254.000 102.000 252.000 102.000 L 250.000 102.000 250.000 98.000 L 250.000 94.000 248.000 94.000 L 246.000 94.000 246.000 92.000 L 246.000 90.000 244.000 90.000 L 242.000 90.000 242.000 86.000 L 242.000 82.000 240.000 82.000 L 238.000 82.000 238.000 80.000 L 238.000 78.000 236.000 78.000 L 234.000 78.000 234.000 76.000 L 234.000 74.000 232.000 74.000 L 230.000 74.000 230.000 70.000 L 230.000 66.000 228.000 66.000 L 226.000 66.000 226.000 64.000 L 226.000 62.000 224.000 62.000 L 222.000 62.000 222.000 58.000 L 222.000 54.000 220.000 54.000 L 218.000 54.000 218.000 52.000 L 218.000 50.000 216.000 50.000 L 214.000 50.000 214.000 46.000 L 214.000 42.000 212.000 42.000 L 210.000 42.000 210.000 40.000 L 210.000 38.000 208.000 38.000 L 206.000 38.000 206.000 36.000 L 206.000 34.000 198.000 34.000 L 190.000 34.000 190.000 36.000 M200.165 65.648 C 200.526 66.260,201.402 67.169,202.111 67.666 C 204.082 69.050,204.374 69.614,204.387 72.080 C 204.399 74.243,204.477 74.417,205.900 75.477 C 206.725 76.092,207.568 76.866,207.773 77.198 C 208.134 77.779,209.123 78.762,211.344 80.742 C 212.260 81.559,212.400 81.997,212.400 84.046 C 212.400 86.338,212.446 86.440,213.962 87.504 C 214.822 88.107,215.827 89.103,216.196 89.718 C 216.565 90.333,217.468 91.230,218.203 91.712 C 218.937 92.194,219.827 93.077,220.180 93.675 C 220.534 94.272,221.402 95.169,222.111 95.666 C 224.082 97.050,224.374 97.614,224.387 100.080 C 224.399 102.243,224.477 102.417,225.900 103.477 C 226.725 104.092,227.568 104.866,227.773 105.198 C 228.134 105.779,229.123 106.762,231.344 108.742 C 232.257 109.557,232.400 109.999,232.400 112.022 C 232.400 114.258,232.465 114.408,233.900 115.477 C 234.725 116.092,235.568 116.866,235.773 117.198 C 236.134 117.779,237.123 118.762,239.344 120.742 C 240.260 121.559,240.400 121.997,240.400 124.046 C 240.400 126.338,240.446 126.440,241.962 127.504 C 242.822 128.107,243.827 129.103,244.196 129.718 C 244.565 130.333,245.437 131.212,246.133 131.671 C 246.830 132.129,247.893 133.201,248.496 134.052 L 249.592 135.600 291.942 135.600 L 334.291 135.600 335.345 136.655 C 336.791 138.100,336.379 139.160,333.803 140.627 C 333.391 140.861,332.861 141.391,332.627 141.803 C 332.077 142.768,330.521 144.400,330.150 144.400 C 329.093 144.400,328.400 145.858,328.400 148.080 C 328.400 150.508,327.858 151.457,325.803 152.627 C 325.391 152.861,324.861 153.391,324.627 153.803 C 324.077 154.768,322.521 156.400,322.150 156.400 C 321.093 156.400,320.400 157.858,320.400 160.080 C 320.400 162.508,319.858 163.457,317.803 164.627 C 317.391 164.861,316.861 165.391,316.627 165.803 C 316.077 166.768,314.521 168.400,314.150 168.400 C 313.093 168.400,312.400 169.858,312.400 172.080 C 312.400 174.508,311.858 175.457,309.803 176.627 C 309.391 176.861,308.861 177.391,308.627 177.803 C 308.077 178.768,306.521 180.400,306.150 180.400 C 305.097 180.400,304.400 181.858,304.400 184.059 C 304.400 186.391,303.390 188.400,302.217 188.400 C 301.181 188.400,300.400 190.033,300.400 192.202 C 300.400 194.390,299.355 196.400,298.217 196.400 C 297.801 196.400,296.400 197.790,296.400 198.202 C 296.400 198.618,294.630 200.400,294.217 200.400 C 292.899 200.400,292.400 201.989,292.400 206.184 L 292.400 210.359 293.900 211.477 C 294.725 212.092,295.568 212.866,295.773 213.198 C 296.134 213.779,297.123 214.762,299.344 216.742 C 300.257 217.557,300.400 217.999,300.400 220.022 C 300.400 222.258,300.465 222.408,301.900 223.477 C 302.725 224.092,303.568 224.866,303.773 225.198 C 304.134 225.779,305.123 226.762,307.344 228.742 C 308.257 229.557,308.400 229.999,308.400 232.022 C 308.400 234.258,308.465 234.408,309.900 235.477 C 310.725 236.092,311.568 236.866,311.773 237.198 C 312.134 237.779,313.123 238.762,315.344 240.742 C 316.257 241.557,316.400 241.999,316.400 244.022 C 316.400 246.258,316.465 246.408,317.900 247.477 C 318.725 248.092,319.568 248.866,319.773 249.198 C 320.134 249.779,321.123 250.762,323.344 252.742 C 324.257 253.557,324.400 253.999,324.400 256.022 C 324.400 258.258,324.465 258.408,325.900 259.477 C 326.725 260.092,327.568 260.866,327.773 261.198 C 328.134 261.779,329.123 262.762,331.344 264.742 C 332.853 266.088,332.896 269.940,331.418 271.418 L 330.436 272.400 290.150 272.400 C 247.489 272.400,248.400 272.363,248.400 274.080 C 248.400 274.504,246.561 276.400,246.150 276.400 C 245.093 276.400,244.400 277.858,244.400 280.080 C 244.400 282.508,243.858 283.457,241.803 284.627 C 241.391 284.861,240.861 285.391,240.627 285.803 C 240.080 286.764,238.764 288.080,237.803 288.627 C 237.391 288.861,236.861 289.391,236.627 289.803 C 236.077 290.768,234.521 292.400,234.150 292.400 C 233.093 292.400,232.400 293.858,232.400 296.080 C 232.400 298.508,231.858 299.457,229.803 300.627 C 229.391 300.861,228.861 301.391,228.627 301.803 C 228.077 302.768,226.521 304.400,226.150 304.400 C 225.093 304.400,224.400 305.858,224.400 308.080 C 224.400 310.508,223.858 311.457,221.803 312.627 C 221.391 312.861,220.861 313.391,220.627 313.803 C 220.077 314.768,218.521 316.400,218.150 316.400 C 217.093 316.400,216.400 317.858,216.400 320.080 C 216.400 322.508,215.858 323.457,213.803 324.627 C 213.391 324.861,212.861 325.391,212.627 325.803 C 212.080 326.764,210.764 328.080,209.803 328.627 C 209.391 328.861,208.861 329.391,208.627 329.803 C 208.077 330.768,206.521 332.400,206.150 332.400 C 205.093 332.400,204.400 333.858,204.400 336.080 C 204.400 338.508,203.858 339.457,201.803 340.627 C 201.391 340.861,200.861 341.391,200.627 341.803 C 198.978 344.700,197.333 344.888,195.834 342.350 C 195.449 341.698,194.532 340.770,193.797 340.288 C 193.063 339.806,192.173 338.923,191.820 338.325 C 191.466 337.728,190.598 336.831,189.889 336.334 C 187.915 334.949,187.626 334.386,187.613 331.896 C 187.600 329.677,187.543 329.552,186.038 328.496 C 185.178 327.893,184.173 326.897,183.804 326.282 C 183.435 325.667,182.532 324.770,181.797 324.288 C 181.063 323.806,180.173 322.923,179.820 322.325 C 179.466 321.728,178.598 320.831,177.889 320.334 C 175.915 318.949,175.626 318.386,175.613 315.896 C 175.600 313.677,175.543 313.552,174.038 312.496 C 173.178 311.893,172.173 310.897,171.804 310.282 C 171.435 309.667,170.532 308.770,169.797 308.288 C 169.063 307.806,168.173 306.923,167.820 306.325 C 167.466 305.728,166.598 304.831,165.889 304.334 C 163.915 302.949,163.626 302.386,163.613 299.896 C 163.600 297.677,163.543 297.552,162.038 296.496 C 161.178 295.893,160.173 294.897,159.804 294.282 C 159.435 293.667,158.532 292.770,157.797 292.288 C 157.063 291.806,156.173 290.923,155.820 290.325 C 155.466 289.728,154.598 288.831,153.889 288.334 C 151.915 286.949,151.626 286.386,151.613 283.896 C 151.600 281.677,151.543 281.552,150.038 280.496 C 149.178 279.893,148.173 278.897,147.804 278.282 C 147.435 277.667,146.563 276.788,145.867 276.329 C 145.170 275.871,144.107 274.799,143.504 273.948 L 142.408 272.400 102.058 272.400 L 61.709 272.400 60.655 271.345 C 59.785 270.476,59.600 269.925,59.600 268.204 C 59.600 266.023,59.701 265.855,62.651 263.144 C 63.283 262.563,64.162 261.663,64.605 261.144 C 65.047 260.625,65.902 259.842,66.505 259.405 C 67.474 258.701,67.600 258.352,67.600 256.363 C 67.600 254.002,67.667 253.887,70.651 251.144 C 71.283 250.563,72.162 249.663,72.605 249.144 C 73.047 248.625,73.902 247.842,74.505 247.405 C 75.474 246.701,75.600 246.352,75.600 244.363 C 75.600 242.002,75.667 241.887,78.651 239.144 C 79.283 238.563,80.162 237.663,80.605 237.144 C 81.047 236.625,81.902 235.842,82.505 235.405 C 83.474 234.701,83.600 234.352,83.600 232.363 C 83.600 230.002,83.667 229.887,86.651 227.144 C 87.283 226.563,88.162 225.663,88.605 225.144 C 89.047 224.625,89.902 223.842,90.505 223.405 C 91.474 222.701,91.600 222.352,91.600 220.363 C 91.600 218.002,91.667 217.887,94.651 215.144 C 95.283 214.563,96.162 213.663,96.605 213.144 C 97.047 212.625,97.902 211.842,98.505 211.405 C 99.586 210.620,99.600 210.553,99.600 206.125 L 99.600 201.641 98.100 200.520 C 95.865 198.851,95.627 198.410,95.613 195.920 C 95.601 193.757,95.523 193.583,94.100 192.523 C 93.275 191.908,92.432 191.134,92.227 190.802 C 91.866 190.221,90.877 189.238,88.656 187.258 C 87.743 186.443,87.600 186.001,87.600 183.978 C 87.600 181.742,87.535 181.592,86.100 180.523 C 85.275 179.908,84.432 179.134,84.227 178.802 C 83.866 178.221,82.877 177.238,80.656 175.258 C 79.743 174.443,79.600 174.001,79.600 171.978 C 79.600 169.742,79.535 169.592,78.100 168.523 C 77.275 167.908,76.432 167.134,76.227 166.802 C 75.866 166.221,74.877 165.238,72.656 163.258 C 71.743 162.443,71.600 162.001,71.600 159.978 C 71.600 157.742,71.535 157.592,70.100 156.523 C 69.275 155.908,68.432 155.134,68.227 154.802 C 67.866 154.221,66.877 153.238,64.656 151.258 C 63.740 150.441,63.600 150.003,63.600 147.954 C 63.600 145.668,63.551 145.557,62.052 144.496 C 61.201 143.893,60.129 142.830,59.671 142.133 C 59.212 141.437,58.318 140.561,57.685 140.187 C 55.641 138.979,55.449 138.213,56.841 136.821 L 58.062 135.600 100.336 135.600 L 142.610 135.600 143.405 134.505 C 143.842 133.902,144.625 133.047,145.144 132.605 C 145.663 132.162,146.563 131.287,147.144 130.660 C 147.725 130.032,148.478 129.222,148.817 128.860 C 149.157 128.497,149.922 127.842,150.517 127.405 C 151.471 126.705,151.600 126.343,151.600 124.363 C 151.600 122.002,151.667 121.887,154.651 119.144 C 155.283 118.563,156.181 117.663,156.646 117.144 C 157.111 116.625,158.011 115.725,158.646 115.144 C 159.281 114.563,160.162 113.663,160.605 113.144 C 161.047 112.625,161.902 111.842,162.505 111.405 C 163.474 110.701,163.600 110.352,163.600 108.363 C 163.600 106.002,163.667 105.887,166.651 103.144 C 167.283 102.563,168.181 101.663,168.646 101.144 C 169.111 100.625,170.011 99.725,170.646 99.144 C 171.281 98.563,172.162 97.663,172.605 97.144 C 173.047 96.625,173.902 95.842,174.505 95.405 C 175.474 94.701,175.600 94.352,175.600 92.363 C 175.600 90.002,175.667 89.887,178.651 87.144 C 179.283 86.563,180.181 85.663,180.646 85.144 C 181.111 84.625,182.011 83.725,182.646 83.144 C 183.281 82.563,184.162 81.663,184.605 81.144 C 185.047 80.625,185.902 79.842,186.505 79.405 C 187.477 78.699,187.600 78.355,187.600 76.330 C 187.600 74.299,187.733 73.928,188.824 72.925 C 189.497 72.306,190.532 71.281,191.124 70.646 C 191.716 70.011,192.625 69.111,193.144 68.646 C 193.663 68.181,194.563 67.283,195.144 66.651 C 198.260 63.261,198.703 63.173,200.165 65.648 " stroke="none" fill="#fae206" fill-rule="evenodd"></path><path id="path2" d="M197.137 64.571 C 196.622 65.083,195.725 66.019,195.144 66.651 C 194.563 67.283,193.663 68.181,193.144 68.646 C 192.625 69.111,191.716 70.011,191.124 70.646 C 190.532 71.281,189.497 72.306,188.824 72.925 C 187.733 73.928,187.600 74.299,187.600 76.330 C 187.600 78.355,187.477 78.699,186.505 79.405 C 185.902 79.842,185.047 80.625,184.605 81.144 C 184.162 81.663,183.281 82.563,182.646 83.144 C 182.011 83.725,181.111 84.625,180.646 85.144 C 180.181 85.663,179.283 86.563,178.651 87.144 C 175.667 89.887,175.600 90.002,175.600 92.363 C 175.600 94.352,175.474 94.701,174.505 95.405 C 173.902 95.842,173.047 96.625,172.605 97.144 C 172.162 97.663,171.281 98.563,170.646 99.144 C 170.011 99.725,169.111 100.625,168.646 101.144 C 168.181 101.663,167.283 102.563,166.651 103.144 C 163.667 105.887,163.600 106.002,163.600 108.363 C 163.600 110.352,163.474 110.701,162.505 111.405 C 161.902 111.842,161.047 112.625,160.605 113.144 C 160.162 113.663,159.281 114.563,158.646 115.144 C 158.011 115.725,157.111 116.625,156.646 117.144 C 156.181 117.663,155.283 118.563,154.651 119.144 C 151.667 121.887,151.600 122.002,151.600 124.363 C 151.600 126.343,151.471 126.705,150.517 127.405 C 149.922 127.842,149.157 128.497,148.817 128.860 C 148.478 129.222,147.725 130.032,147.144 130.660 C 146.563 131.287,145.663 132.162,145.144 132.605 C 144.625 133.047,143.842 133.902,143.405 134.505 L 142.610 135.600 100.336 135.600 L 58.062 135.600 56.841 136.821 C 55.449 138.213,55.641 138.979,57.685 140.187 C 58.318 140.561,59.212 141.437,59.671 142.133 C 60.129 142.830,61.201 143.893,62.052 144.496 C 63.551 145.557,63.600 145.668,63.600 147.954 C 63.600 150.003,63.740 150.441,64.656 151.258 C 66.877 153.238,67.866 154.221,68.227 154.802 C 68.432 155.134,69.275 155.908,70.100 156.523 C 71.535 157.592,71.600 157.742,71.600 159.978 C 71.600 162.001,71.743 162.443,72.656 163.258 C 74.877 165.238,75.866 166.221,76.227 166.802 C 76.432 167.134,77.275 167.908,78.100 168.523 C 79.535 169.592,79.600 169.742,79.600 171.978 C 79.600 174.001,79.743 174.443,80.656 175.258 C 82.877 177.238,83.866 178.221,84.227 178.802 C 84.432 179.134,85.275 179.908,86.100 180.523 C 87.535 181.592,87.600 181.742,87.600 183.978 C 87.600 186.001,87.743 186.443,88.656 187.258 C 90.877 189.238,91.866 190.221,92.227 190.802 C 92.432 191.134,93.275 191.908,94.100 192.523 C 95.523 193.583,95.601 193.757,95.613 195.920 C 95.627 198.410,95.865 198.851,98.100 200.520 L 99.600 201.641 99.600 206.125 C 99.600 210.553,99.586 210.620,98.505 211.405 C 97.902 211.842,97.047 212.625,96.605 213.144 C 96.162 213.663,95.283 214.563,94.651 215.144 C 91.667 217.887,91.600 218.002,91.600 220.363 C 91.600 222.352,91.474 222.701,90.505 223.405 C 89.902 223.842,89.047 224.625,88.605 225.144 C 88.162 225.663,87.283 226.563,86.651 227.144 C 83.667 229.887,83.600 230.002,83.600 232.363 C 83.600 234.352,83.474 234.701,82.505 235.405 C 81.902 235.842,81.047 236.625,80.605 237.144 C 80.162 237.663,79.283 238.563,78.651 239.144 C 75.667 241.887,75.600 242.002,75.600 244.363 C 75.600 246.352,75.474 246.701,74.505 247.405 C 73.902 247.842,73.047 248.625,72.605 249.144 C 72.162 249.663,71.283 250.563,70.651 251.144 C 67.667 253.887,67.600 254.002,67.600 256.363 C 67.600 258.352,67.474 258.701,66.505 259.405 C 65.902 259.842,65.047 260.625,64.605 261.144 C 64.162 261.663,63.283 262.563,62.651 263.144 C 59.701 265.855,59.600 266.023,59.600 268.204 C 59.600 269.925,59.785 270.476,60.655 271.345 L 61.709 272.400 102.058 272.400 L 142.408 272.400 143.504 273.948 C 144.107 274.799,145.170 275.871,145.867 276.329 C 146.563 276.788,147.435 277.667,147.804 278.282 C 148.173 278.897,149.178 279.893,150.038 280.496 C 151.543 281.552,151.600 281.677,151.613 283.896 C 151.626 286.386,151.915 286.949,153.889 288.334 C 154.598 288.831,155.466 289.728,155.820 290.325 C 156.173 290.923,157.063 291.806,157.797 292.288 C 158.532 292.770,159.435 293.667,159.804 294.282 C 160.173 294.897,161.178 295.893,162.038 296.496 C 163.543 297.552,163.600 297.677,163.613 299.896 C 163.626 302.386,163.915 302.949,165.889 304.334 C 166.598 304.831,167.466 305.728,167.820 306.325 C 168.173 306.923,169.063 307.806,169.797 308.288 C 170.532 308.770,171.435 309.667,171.804 310.282 C 172.173 310.897,173.178 311.893,174.038 312.496 C 175.543 313.552,175.600 313.677,175.613 315.896 C 175.626 318.386,175.915 318.949,177.889 320.334 C 178.598 320.831,179.466 321.728,179.820 322.325 C 180.173 322.923,181.063 323.806,181.797 324.288 C 182.532 324.770,183.435 325.667,183.804 326.282 C 184.173 326.897,185.178 327.893,186.038 328.496 C 187.543 329.552,187.600 329.677,187.613 331.896 C 187.626 334.386,187.915 334.949,189.889 336.334 C 190.598 336.831,191.466 337.728,191.820 338.325 C 192.173 338.923,193.063 339.806,193.797 340.288 C 194.532 340.770,195.449 341.698,195.834 342.350 C 197.333 344.888,198.978 344.700,200.627 341.803 C 200.861 341.391,201.391 340.861,201.803 340.627 C 203.858 339.457,204.400 338.508,204.400 336.080 C 204.400 333.858,205.093 332.400,206.150 332.400 C 206.521 332.400,208.077 330.768,208.627 329.803 C 208.861 329.391,209.391 328.861,209.803 328.627 C 210.764 328.080,212.080 326.764,212.627 325.803 C 212.861 325.391,213.391 324.861,213.803 324.627 C 215.858 323.457,216.400 322.508,216.400 320.080 C 216.400 317.858,217.093 316.400,218.150 316.400 C 218.521 316.400,220.077 314.768,220.627 313.803 C 220.861 313.391,221.391 312.861,221.803 312.627 C 223.858 311.457,224.400 310.508,224.400 308.080 C 224.400 305.858,225.093 304.400,226.150 304.400 C 226.521 304.400,228.077 302.768,228.627 301.803 C 228.861 301.391,229.391 300.861,229.803 300.627 C 231.858 299.457,232.400 298.508,232.400 296.080 C 232.400 293.858,233.093 292.400,234.150 292.400 C 234.521 292.400,236.077 290.768,236.627 289.803 C 236.861 289.391,237.391 288.861,237.803 288.627 C 238.764 288.080,240.080 286.764,240.627 285.803 C 240.861 285.391,241.391 284.861,241.803 284.627 C 243.858 283.457,244.400 282.508,244.400 280.080 C 244.400 277.858,245.093 276.400,246.150 276.400 C 246.561 276.400,248.400 274.504,248.400 274.080 C 248.400 272.363,247.489 272.400,290.150 272.400 L 330.436 272.400 331.418 271.418 C 332.896 269.940,332.853 266.088,331.344 264.742 C 329.123 262.762,328.134 261.779,327.773 261.198 C 327.568 260.866,326.725 260.092,325.900 259.477 C 324.465 258.408,324.400 258.258,324.400 256.022 C 324.400 253.999,324.257 253.557,323.344 252.742 C 321.123 250.762,320.134 249.779,319.773 249.198 C 319.568 248.866,318.725 248.092,317.900 247.477 C 316.465 246.408,316.400 246.258,316.400 244.022 C 316.400 241.999,316.257 241.557,315.344 240.742 C 313.123 238.762,312.134 237.779,311.773 237.198 C 311.568 236.866,310.725 236.092,309.900 235.477 C 308.465 234.408,308.400 234.258,308.400 232.022 C 308.400 229.999,308.257 229.557,307.344 228.742 C 305.123 226.762,304.134 225.779,303.773 225.198 C 303.568 224.866,302.725 224.092,301.900 223.477 C 300.465 222.408,300.400 222.258,300.400 220.022 C 300.400 217.999,300.257 217.557,299.344 216.742 C 297.123 214.762,296.134 213.779,295.773 213.198 C 295.568 212.866,294.725 212.092,293.900 211.477 L 292.400 210.359 292.400 206.184 C 292.400 201.989,292.899 200.400,294.217 200.400 C 294.630 200.400,296.400 198.618,296.400 198.202 C 296.400 197.790,297.801 196.400,298.217 196.400 C 299.355 196.400,300.400 194.390,300.400 192.202 C 300.400 190.033,301.181 188.400,302.217 188.400 C 303.390 188.400,304.400 186.391,304.400 184.059 C 304.400 181.858,305.097 180.400,306.150 180.400 C 306.521 180.400,308.077 178.768,308.627 177.803 C 308.861 177.391,309.391 176.861,309.803 176.627 C 311.858 175.457,312.400 174.508,312.400 172.080 C 312.400 169.858,313.093 168.400,314.150 168.400 C 314.521 168.400,316.077 166.768,316.627 165.803 C 316.861 165.391,317.391 164.861,317.803 164.627 C 319.858 163.457,320.400 162.508,320.400 160.080 C 320.400 157.858,321.093 156.400,322.150 156.400 C 322.521 156.400,324.077 154.768,324.627 153.803 C 324.861 153.391,325.391 152.861,325.803 152.627 C 327.858 151.457,328.400 150.508,328.400 148.080 C 328.400 145.858,329.093 144.400,330.150 144.400 C 330.521 144.400,332.077 142.768,332.627 141.803 C 332.861 141.391,333.391 140.861,333.803 140.627 C 336.379 139.160,336.791 138.100,335.345 136.655 L 334.291 135.600 291.942 135.600 L 249.592 135.600 248.496 134.052 C 247.893 133.201,246.830 132.129,246.133 131.671 C 245.437 131.212,244.565 130.333,244.196 129.718 C 243.827 129.103,242.822 128.107,241.962 127.504 C 240.446 126.440,240.400 126.338,240.400 124.046 C 240.400 121.997,240.260 121.559,239.344 120.742 C 237.123 118.762,236.134 117.779,235.773 117.198 C 235.568 116.866,234.725 116.092,233.900 115.477 C 232.465 114.408,232.400 114.258,232.400 112.022 C 232.400 109.999,232.257 109.557,231.344 108.742 C 229.123 106.762,228.134 105.779,227.773 105.198 C 227.568 104.866,226.725 104.092,225.900 103.477 C 224.477 102.417,224.399 102.243,224.387 100.080 C 224.374 97.614,224.082 97.050,222.111 95.666 C 221.402 95.169,220.534 94.272,220.180 93.675 C 219.827 93.077,218.937 92.194,218.203 91.712 C 217.468 91.230,216.565 90.333,216.196 89.718 C 215.827 89.103,214.822 88.107,213.962 87.504 C 212.446 86.440,212.400 86.338,212.400 84.046 C 212.400 81.997,212.260 81.559,211.344 80.742 C 209.123 78.762,208.134 77.779,207.773 77.198 C 207.568 76.866,206.725 76.092,205.900 75.477 C 204.477 74.417,204.399 74.243,204.387 72.080 C 204.374 69.614,204.082 69.050,202.111 67.666 C 201.402 67.169,200.526 66.260,200.165 65.648 C 199.066 63.788,198.226 63.489,197.137 64.571 M198.649 66.300 C 199.199 68.021,199.737 68.644,201.217 69.270 L 202.800 69.941 202.813 72.670 C 202.827 75.725,203.131 76.291,205.300 77.294 C 206.191 77.706,206.805 78.274,206.813 78.694 C 206.831 79.711,207.588 80.502,209.300 81.294 L 210.800 81.987 210.813 84.694 C 210.827 87.723,211.135 88.292,213.300 89.294 C 214.191 89.706,214.805 90.274,214.813 90.694 C 214.831 91.711,215.588 92.502,217.300 93.294 C 218.191 93.706,218.805 94.274,218.813 94.694 C 218.831 95.711,219.588 96.502,221.300 97.294 L 222.800 97.987 222.813 100.694 C 222.827 103.723,223.135 104.292,225.300 105.294 C 226.191 105.706,226.805 106.274,226.813 106.694 C 226.831 107.711,227.588 108.502,229.300 109.294 L 230.800 109.987 230.813 112.694 C 230.827 115.723,231.135 116.292,233.300 117.294 C 234.191 117.706,234.805 118.274,234.813 118.694 C 234.831 119.711,235.588 120.502,237.300 121.294 L 238.800 121.987 238.813 124.694 C 238.827 127.723,239.135 128.292,241.300 129.294 C 242.191 129.706,242.805 130.274,242.813 130.694 C 242.831 131.711,243.588 132.502,245.300 133.294 C 246.191 133.706,246.805 134.274,246.813 134.694 C 246.829 135.582,247.562 136.538,248.600 137.025 C 249.074 137.247,266.732 137.482,291.900 137.600 C 319.818 137.731,334.406 137.937,334.416 138.200 C 334.425 138.420,334.078 138.656,333.647 138.724 C 332.592 138.890,330.877 140.654,330.724 141.731 C 330.647 142.268,330.268 142.647,329.731 142.724 C 327.833 142.994,326.843 144.641,326.717 147.738 C 326.611 150.328,326.518 150.612,325.731 150.724 C 324.611 150.883,322.883 152.611,322.724 153.731 C 322.647 154.268,322.268 154.647,321.731 154.724 C 319.833 154.994,318.843 156.641,318.717 159.738 C 318.611 162.328,318.518 162.612,317.731 162.724 C 316.611 162.883,314.883 164.611,314.724 165.731 C 314.647 166.268,314.268 166.647,313.731 166.724 C 311.833 166.994,310.843 168.641,310.717 171.738 C 310.611 174.328,310.518 174.612,309.731 174.724 C 308.602 174.884,306.800 176.695,306.800 177.667 C 306.800 178.084,306.485 178.526,306.100 178.649 C 303.479 179.486,302.800 180.644,302.800 184.272 C 302.800 185.971,302.652 186.472,302.100 186.649 C 299.479 187.486,298.800 188.644,298.800 192.272 C 298.800 193.971,298.652 194.472,298.100 194.649 C 296.324 195.217,295.642 195.801,295.075 197.244 C 294.680 198.251,294.206 198.804,293.732 198.813 C 291.580 198.850,290.800 200.806,290.800 206.166 C 290.800 211.328,291.174 212.485,293.062 213.168 C 294.127 213.553,294.647 214.065,295.072 215.144 C 295.495 216.217,296.060 216.776,297.223 217.270 C 298.783 217.933,298.800 217.964,298.800 220.111 C 298.800 223.303,299.358 224.552,301.062 225.168 C 302.127 225.553,302.647 226.065,303.072 227.144 C 303.495 228.217,304.060 228.776,305.223 229.270 L 306.800 229.941 306.813 232.670 C 306.827 235.725,307.131 236.291,309.300 237.294 C 310.191 237.706,310.805 238.274,310.813 238.694 C 310.831 239.711,311.588 240.502,313.300 241.294 L 314.800 241.987 314.813 244.694 C 314.827 247.723,315.135 248.292,317.300 249.294 C 318.191 249.706,318.805 250.274,318.813 250.694 C 318.831 251.711,319.588 252.502,321.300 253.294 L 322.800 253.987 322.813 256.694 C 322.827 259.723,323.135 260.292,325.300 261.294 C 326.191 261.706,326.805 262.274,326.813 262.694 C 326.831 263.714,327.589 264.502,329.320 265.303 L 330.840 266.006 330.720 268.303 L 330.600 270.600 289.753 270.702 L 248.905 270.804 247.876 271.833 C 247.311 272.399,246.792 273.253,246.724 273.731 C 246.647 274.268,246.268 274.647,245.731 274.724 C 243.833 274.994,242.843 276.641,242.717 279.738 C 242.611 282.328,242.518 282.612,241.731 282.724 C 240.611 282.883,238.883 284.611,238.724 285.731 C 238.647 286.268,238.268 286.647,237.731 286.724 C 236.611 286.883,234.883 288.611,234.724 289.731 C 234.647 290.268,234.268 290.647,233.731 290.724 C 231.833 290.994,230.843 292.641,230.717 295.738 C 230.611 298.328,230.518 298.612,229.731 298.724 C 228.611 298.883,226.883 300.611,226.724 301.731 C 226.647 302.268,226.268 302.647,225.731 302.724 C 223.833 302.994,222.843 304.641,222.717 307.738 C 222.611 310.328,222.518 310.612,221.731 310.724 C 220.611 310.883,218.883 312.611,218.724 313.731 C 218.647 314.268,218.268 314.647,217.731 314.724 C 215.833 314.994,214.843 316.641,214.717 319.738 C 214.611 322.328,214.518 322.612,213.731 322.724 C 212.611 322.883,210.883 324.611,210.724 325.731 C 210.647 326.268,210.268 326.647,209.731 326.724 C 208.611 326.883,206.883 328.611,206.724 329.731 C 206.647 330.268,206.268 330.647,205.731 330.724 C 203.833 330.994,202.843 332.641,202.717 335.738 C 202.611 338.328,202.518 338.612,201.731 338.724 C 200.621 338.882,198.800 340.688,198.800 341.631 C 198.800 343.002,198.005 342.838,197.304 341.321 C 196.497 339.577,195.713 338.831,194.670 338.813 C 194.206 338.805,193.697 338.225,193.270 337.217 C 192.644 335.737,192.021 335.199,190.300 334.649 C 189.746 334.472,189.600 333.969,189.600 332.231 C 189.600 329.006,188.440 326.844,186.694 326.813 C 186.274 326.805,185.706 326.191,185.294 325.300 C 184.497 323.576,183.710 322.831,182.670 322.813 C 182.206 322.805,181.697 322.225,181.270 321.217 C 180.644 319.737,180.021 319.199,178.300 318.649 C 177.746 318.472,177.600 317.969,177.600 316.231 C 177.600 313.006,176.440 310.844,174.694 310.813 C 174.274 310.805,173.706 310.191,173.294 309.300 C 172.497 307.576,171.710 306.831,170.670 306.813 C 170.206 306.805,169.697 306.225,169.270 305.217 C 168.644 303.737,168.021 303.199,166.300 302.649 C 165.746 302.472,165.600 301.969,165.600 300.231 C 165.600 297.006,164.440 294.844,162.694 294.813 C 162.274 294.805,161.706 294.191,161.294 293.300 C 160.497 291.576,159.710 290.831,158.670 290.813 C 158.206 290.805,157.697 290.225,157.270 289.217 C 156.644 287.737,156.021 287.199,154.300 286.649 C 153.746 286.472,153.600 285.969,153.600 284.231 C 153.600 281.006,152.440 278.844,150.694 278.813 C 150.274 278.805,149.706 278.191,149.294 277.300 C 148.502 275.588,147.711 274.831,146.694 274.813 C 146.274 274.805,145.706 274.191,145.294 273.300 C 144.912 272.475,144.330 271.620,144.000 271.400 C 143.615 271.143,128.793 270.928,102.600 270.800 L 61.800 270.600 61.690 268.200 L 61.580 265.800 63.146 265.148 C 64.307 264.665,64.844 264.136,65.216 263.107 C 65.578 262.104,66.092 261.583,67.063 261.232 C 68.813 260.599,69.599 259.019,69.604 256.120 C 69.608 253.805,69.612 253.799,71.161 253.148 C 72.304 252.668,72.846 252.130,73.216 251.107 C 73.578 250.104,74.092 249.583,75.063 249.232 C 76.813 248.599,77.599 247.019,77.604 244.120 C 77.608 241.805,77.612 241.799,79.161 241.148 C 80.304 240.668,80.846 240.130,81.216 239.107 C 81.578 238.104,82.092 237.583,83.063 237.232 C 84.813 236.599,85.599 235.019,85.604 232.120 C 85.608 229.805,85.612 229.799,87.161 229.148 C 88.304 228.668,88.846 228.130,89.216 227.107 C 89.578 226.104,90.092 225.583,91.063 225.232 C 92.813 224.599,93.599 223.019,93.604 220.120 C 93.608 217.805,93.612 217.799,95.161 217.148 C 96.304 216.668,96.846 216.130,97.216 215.107 C 97.578 214.104,98.092 213.583,99.063 213.232 C 101.093 212.498,101.600 211.123,101.600 206.348 C 101.600 200.701,101.104 199.545,98.300 198.649 C 97.746 198.472,97.600 197.969,97.600 196.231 C 97.600 192.988,96.440 190.844,94.670 190.813 C 94.206 190.805,93.697 190.225,93.270 189.217 C 92.644 187.737,92.021 187.199,90.300 186.649 C 89.746 186.472,89.600 185.969,89.600 184.231 C 89.600 180.988,88.440 178.844,86.670 178.813 C 86.206 178.805,85.697 178.225,85.270 177.217 C 84.644 175.737,84.021 175.199,82.300 174.649 C 81.746 174.472,81.600 173.969,81.600 172.231 C 81.600 168.988,80.440 166.844,78.670 166.813 C 78.206 166.805,77.697 166.225,77.270 165.217 C 76.644 163.737,76.021 163.199,74.300 162.649 C 73.746 162.472,73.600 161.969,73.600 160.231 C 73.600 156.988,72.440 154.844,70.670 154.813 C 70.206 154.805,69.697 154.225,69.270 153.217 C 68.644 151.737,68.021 151.199,66.300 150.649 C 65.746 150.472,65.600 149.969,65.600 148.231 C 65.600 144.988,64.440 142.844,62.670 142.813 C 62.206 142.805,61.697 142.225,61.270 141.217 C 60.644 139.737,60.021 139.199,58.300 138.649 C 55.367 137.712,59.806 137.600,100.020 137.600 C 146.829 137.600,144.263 137.742,145.219 135.097 C 145.554 134.172,146.138 133.596,147.203 133.141 C 148.298 132.674,148.852 132.114,149.216 131.107 C 149.578 130.104,150.092 129.583,151.063 129.232 C 152.813 128.599,153.599 127.019,153.604 124.120 C 153.608 121.805,153.612 121.799,155.161 121.148 C 156.304 120.668,156.846 120.130,157.216 119.107 C 157.583 118.090,158.090 117.583,159.107 117.216 C 160.114 116.852,160.674 116.298,161.141 115.203 C 161.596 114.138,162.172 113.554,163.097 113.219 C 164.811 112.599,165.599 110.997,165.604 108.120 C 165.608 105.805,165.612 105.799,167.161 105.148 C 168.304 104.668,168.846 104.130,169.216 103.107 C 169.583 102.090,170.090 101.583,171.107 101.216 C 172.114 100.852,172.674 100.298,173.141 99.203 C 173.596 98.138,174.172 97.554,175.097 97.219 C 176.817 96.598,177.600 94.995,177.600 92.100 C 177.600 89.775,177.609 89.758,179.048 89.237 C 180.117 88.850,180.665 88.318,181.141 87.203 C 181.604 86.121,182.170 85.555,183.141 85.203 C 184.113 84.852,184.679 84.286,185.141 83.203 C 185.596 82.138,186.172 81.554,187.097 81.219 C 188.817 80.598,189.600 78.995,189.600 76.100 C 189.600 73.775,189.609 73.758,191.048 73.237 C 192.108 72.854,192.666 72.317,193.127 71.236 C 193.571 70.197,194.197 69.571,195.236 69.127 C 196.317 68.666,196.854 68.108,197.237 67.048 C 197.808 65.469,198.300 65.208,198.649 66.300 M224.398 160.467 C 223.735 161.200,222.831 162.160,222.391 162.600 C 221.951 163.040,221.075 163.917,220.444 164.548 C 218.994 165.997,218.024 166.967,216.444 168.548 C 215.755 169.237,214.878 170.113,214.496 170.496 C 214.113 170.878,213.260 171.731,212.600 172.391 C 211.940 173.051,210.993 173.998,210.496 174.496 C 209.998 174.993,209.051 175.940,208.391 176.600 C 207.731 177.260,206.878 178.113,206.496 178.496 C 205.336 179.655,208.022 176.970,202.496 182.496 C 201.998 182.993,201.075 183.917,200.444 184.548 C 199.812 185.179,198.936 186.056,198.496 186.496 C 198.056 186.936,197.156 187.836,196.496 188.496 C 195.836 189.156,194.936 190.056,194.496 190.496 C 194.056 190.936,193.156 191.836,192.496 192.496 C 191.836 193.156,190.936 194.056,190.496 194.496 C 190.056 194.936,189.156 195.836,188.496 196.496 C 187.836 197.156,186.936 198.056,186.496 198.496 C 186.056 198.936,185.156 199.836,184.496 200.496 C 183.836 201.156,182.936 202.056,182.496 202.496 C 182.056 202.936,181.156 203.836,180.496 204.496 C 179.836 205.156,178.936 206.056,178.496 206.496 C 178.056 206.936,177.156 207.836,176.496 208.496 C 175.836 209.156,174.936 210.056,174.496 210.496 C 174.056 210.936,173.156 211.836,172.496 212.496 C 171.836 213.156,170.936 214.056,170.496 214.496 C 170.056 214.936,169.156 215.836,168.496 216.496 C 167.836 217.156,166.936 218.056,166.496 218.496 C 166.056 218.936,165.156 219.836,164.496 220.496 C 163.836 221.156,162.936 222.056,162.496 222.496 C 162.056 222.936,161.156 223.836,160.496 224.496 C 159.836 225.156,158.936 226.056,158.496 226.496 C 158.056 226.936,157.156 227.836,156.496 228.496 C 155.836 229.156,154.936 230.056,154.496 230.496 C 154.056 230.936,153.119 231.815,152.414 232.451 L 151.133 233.605 151.267 238.332 C 151.409 243.370,151.637 243.978,153.678 244.754 C 154.195 244.950,154.882 245.626,155.206 246.255 C 156.425 248.625,156.897 248.800,162.075 248.800 C 166.506 248.800,166.882 248.739,167.611 247.900 C 168.041 247.405,168.957 246.437,169.645 245.748 C 170.333 245.059,171.256 244.136,171.696 243.696 C 172.136 243.256,173.036 242.356,173.696 241.696 C 174.356 241.036,175.279 240.112,175.748 239.644 C 176.217 239.175,177.093 238.298,177.696 237.696 C 178.298 237.093,179.198 236.193,179.696 235.696 C 180.193 235.198,181.093 234.298,181.696 233.696 C 182.298 233.093,183.175 232.217,183.644 231.748 C 184.112 231.279,185.036 230.356,185.696 229.696 C 186.356 229.036,187.256 228.136,187.696 227.696 C 188.136 227.256,189.036 226.356,189.696 225.696 C 190.356 225.036,191.256 224.136,191.696 223.696 C 192.136 223.256,193.036 222.356,193.696 221.696 C 194.356 221.036,195.256 220.136,195.696 219.696 C 196.136 219.256,197.036 218.356,197.696 217.696 C 198.356 217.036,199.256 216.136,199.696 215.696 C 200.136 215.256,201.036 214.356,201.696 213.696 C 202.356 213.036,203.256 212.136,203.696 211.696 C 204.136 211.256,205.036 210.356,205.696 209.696 C 206.356 209.036,207.256 208.136,207.696 207.696 C 208.136 207.256,209.036 206.356,209.696 205.696 C 210.356 205.036,211.256 204.136,211.696 203.696 C 212.136 203.256,213.036 202.356,213.696 201.696 C 214.699 200.692,216.875 198.517,217.696 197.696 C 218.356 197.036,219.256 196.136,219.696 195.696 C 220.136 195.256,221.036 194.356,221.696 193.696 C 222.356 193.036,223.279 192.112,223.748 191.644 C 224.217 191.175,225.140 190.251,225.800 189.591 C 226.460 188.931,227.337 188.055,227.748 187.644 C 228.159 187.232,229.036 186.356,229.696 185.696 C 230.356 185.036,231.256 184.136,231.696 183.696 C 232.136 183.256,233.012 182.379,233.644 181.748 C 234.275 181.117,235.198 180.193,235.696 179.696 C 236.193 179.198,237.140 178.252,237.800 177.592 C 238.460 176.933,239.405 176.041,239.900 175.611 C 240.739 174.882,240.800 174.506,240.800 170.075 C 240.800 164.897,240.625 164.425,238.255 163.206 C 237.626 162.882,236.950 162.195,236.754 161.678 C 235.978 159.637,235.370 159.409,230.332 159.267 L 225.605 159.133 224.398 160.467 M235.030 160.706 C 235.267 160.868,235.786 161.561,236.184 162.246 C 236.583 162.931,237.469 163.817,238.154 164.216 C 239.952 165.261,239.987 165.373,239.994 170.130 C 240.000 174.339,239.970 174.485,238.935 175.330 C 238.349 175.809,237.404 176.714,236.835 177.343 C 236.266 177.972,235.366 178.872,234.835 179.343 C 234.304 179.814,233.404 180.714,232.835 181.343 C 232.266 181.972,231.366 182.872,230.835 183.343 C 230.304 183.814,229.404 184.714,228.835 185.343 C 228.266 185.972,227.366 186.872,226.835 187.343 C 226.304 187.814,225.404 188.714,224.835 189.343 C 224.266 189.972,223.366 190.872,222.835 191.343 C 222.304 191.814,221.404 192.714,220.835 193.343 C 220.266 193.972,219.366 194.872,218.835 195.343 C 218.304 195.814,217.404 196.714,216.835 197.343 C 216.266 197.972,215.366 198.872,214.835 199.343 C 214.304 199.814,213.404 200.714,212.835 201.343 C 212.266 201.972,211.366 202.872,210.835 203.343 C 210.304 203.814,209.404 204.714,208.835 205.343 C 208.266 205.972,207.366 206.872,206.835 207.343 C 206.304 207.814,205.404 208.714,204.835 209.343 C 204.266 209.972,203.366 210.872,202.835 211.343 C 202.304 211.814,201.404 212.714,200.835 213.343 C 200.266 213.972,199.366 214.872,198.835 215.343 C 198.304 215.814,197.404 216.714,196.835 217.343 C 196.266 217.972,195.366 218.872,194.835 219.343 C 194.304 219.814,193.404 220.714,192.835 221.343 C 192.266 221.972,191.372 222.872,190.848 223.343 C 189.638 224.433,188.433 225.638,187.343 226.848 C 186.872 227.372,185.972 228.266,185.343 228.835 C 184.714 229.404,183.814 230.304,183.343 230.835 C 182.872 231.366,181.972 232.266,181.343 232.835 C 180.714 233.404,179.814 234.304,179.343 234.835 C 178.872 235.366,177.972 236.266,177.343 236.835 C 176.714 237.404,175.814 238.304,175.343 238.835 C 174.872 239.366,173.972 240.266,173.343 240.835 C 172.714 241.404,171.814 242.304,171.343 242.835 C 170.872 243.366,169.972 244.266,169.343 244.835 C 168.714 245.404,167.809 246.349,167.330 246.935 C 166.485 247.970,166.339 248.000,162.130 247.994 C 157.362 247.987,157.263 247.956,156.198 246.124 C 155.790 245.423,154.851 244.523,154.111 244.124 C 152.438 243.224,152.340 242.822,152.484 237.443 C 152.586 233.600,152.693 233.033,153.385 232.643 C 154.529 231.997,156.205 230.309,156.514 229.491 C 156.661 229.101,157.101 228.661,157.491 228.514 C 158.405 228.169,160.169 226.405,160.514 225.491 C 160.661 225.101,161.101 224.661,161.491 224.514 C 162.405 224.169,164.169 222.405,164.514 221.491 C 164.661 221.101,165.101 220.661,165.491 220.514 C 166.405 220.169,168.169 218.405,168.514 217.491 C 168.661 217.101,169.101 216.661,169.491 216.514 C 170.405 216.169,172.169 214.405,172.514 213.491 C 172.661 213.101,173.101 212.661,173.491 212.514 C 174.405 212.169,176.169 210.405,176.514 209.491 C 176.661 209.101,177.101 208.661,177.491 208.514 C 178.405 208.169,180.169 206.405,180.514 205.491 C 180.661 205.101,181.101 204.661,181.491 204.514 C 182.405 204.169,184.169 202.405,184.514 201.491 C 184.661 201.101,185.101 200.661,185.491 200.514 C 186.405 200.169,188.169 198.405,188.514 197.491 C 188.661 197.101,189.101 196.661,189.491 196.514 C 190.405 196.169,192.169 194.405,192.514 193.491 C 192.661 193.101,193.101 192.661,193.491 192.514 C 194.405 192.169,196.169 190.405,196.514 189.491 C 196.661 189.101,197.101 188.661,197.491 188.514 C 198.405 188.169,200.169 186.405,200.514 185.491 C 200.661 185.101,201.101 184.661,201.491 184.514 C 201.881 184.367,202.660 183.786,203.223 183.223 C 203.786 182.660,204.367 181.881,204.514 181.491 C 204.661 181.101,205.101 180.661,205.491 180.514 C 206.405 180.169,208.169 178.405,208.514 177.491 C 208.661 177.101,209.101 176.661,209.491 176.514 C 210.405 176.169,212.169 174.405,212.514 173.491 C 212.661 173.101,213.101 172.661,213.491 172.514 C 214.405 172.169,216.169 170.405,216.514 169.491 C 216.661 169.101,217.101 168.661,217.491 168.514 C 218.405 168.169,220.169 166.405,220.514 165.491 C 220.661 165.101,221.101 164.661,221.491 164.514 C 222.338 164.194,224.400 162.207,224.400 161.711 C 224.400 160.672,225.560 160.400,229.980 160.406 C 232.521 160.409,234.794 160.544,235.030 160.706 " stroke="none" fill="#58b828" fill-rule="evenodd"></path><path id="path3" d="M224.880 160.880 C 224.616 161.144,224.400 161.518,224.400 161.711 C 224.400 162.207,222.338 164.194,221.491 164.514 C 221.101 164.661,220.661 165.101,220.514 165.491 C 220.169 166.405,218.405 168.169,217.491 168.514 C 217.101 168.661,216.661 169.101,216.514 169.491 C 216.169 170.405,214.405 172.169,213.491 172.514 C 213.101 172.661,212.661 173.101,212.514 173.491 C 212.169 174.405,210.405 176.169,209.491 176.514 C 209.101 176.661,208.661 177.101,208.514 177.491 C 208.169 178.405,206.405 180.169,205.491 180.514 C 205.101 180.661,204.661 181.101,204.514 181.491 C 204.367 181.881,203.786 182.660,203.223 183.223 C 202.660 183.786,201.881 184.367,201.491 184.514 C 201.101 184.661,200.661 185.101,200.514 185.491 C 200.169 186.405,198.405 188.169,197.491 188.514 C 197.101 188.661,196.661 189.101,196.514 189.491 C 196.169 190.405,194.405 192.169,193.491 192.514 C 193.101 192.661,192.661 193.101,192.514 193.491 C 192.169 194.405,190.405 196.169,189.491 196.514 C 189.101 196.661,188.661 197.101,188.514 197.491 C 188.169 198.405,186.405 200.169,185.491 200.514 C 185.101 200.661,184.661 201.101,184.514 201.491 C 184.169 202.405,182.405 204.169,181.491 204.514 C 181.101 204.661,180.661 205.101,180.514 205.491 C 180.367 205.881,179.786 206.660,179.223 207.223 C 178.660 207.786,177.881 208.367,177.491 208.514 C 177.101 208.661,176.661 209.101,176.514 209.491 C 176.169 210.405,174.405 212.169,173.491 212.514 C 173.101 212.661,172.661 213.101,172.514 213.491 C 172.169 214.405,170.405 216.169,169.491 216.514 C 169.101 216.661,168.661 217.101,168.514 217.491 C 168.367 217.881,167.786 218.660,167.223 219.223 C 166.660 219.786,165.881 220.367,165.491 220.514 C 165.101 220.661,164.661 221.101,164.514 221.491 C 164.169 222.405,162.405 224.169,161.491 224.514 C 161.101 224.661,160.661 225.101,160.514 225.491 C 160.169 226.405,158.405 228.169,157.491 228.514 C 157.101 228.661,156.661 229.101,156.514 229.491 C 156.205 230.309,154.529 231.997,153.385 232.643 C 152.693 233.033,152.586 233.600,152.484 237.443 C 152.340 242.822,152.438 243.224,154.111 244.124 C 154.851 244.523,155.790 245.423,156.198 246.124 C 157.263 247.956,157.362 247.987,162.130 247.994 C 166.339 248.000,166.485 247.970,167.330 246.935 C 167.809 246.349,168.714 245.404,169.343 244.835 C 169.972 244.266,170.872 243.366,171.343 242.835 C 171.814 242.304,172.714 241.404,173.343 240.835 C 173.972 240.266,174.872 239.366,175.343 238.835 C 175.814 238.304,176.714 237.404,177.343 236.835 C 177.972 236.266,178.872 235.366,179.343 234.835 C 179.814 234.304,180.714 233.404,181.343 232.835 C 181.972 232.266,182.872 231.366,183.343 230.835 C 183.814 230.304,184.714 229.404,185.343 228.835 C 185.972 228.266,186.872 227.372,187.343 226.848 C 188.433 225.638,189.638 224.433,190.848 223.343 C 191.372 222.872,192.266 221.972,192.835 221.343 C 193.404 220.714,194.304 219.814,194.835 219.343 C 195.366 218.872,196.266 217.972,196.835 217.343 C 197.404 216.714,198.304 215.814,198.835 215.343 C 199.366 214.872,200.266 213.972,200.835 213.343 C 201.404 212.714,202.304 211.814,202.835 211.343 C 203.366 210.872,204.266 209.972,204.835 209.343 C 205.404 208.714,206.304 207.814,206.835 207.343 C 207.366 206.872,208.266 205.972,208.835 205.343 C 209.404 204.714,210.304 203.814,210.835 203.343 C 211.366 202.872,212.266 201.972,212.835 201.343 C 213.404 200.714,214.304 199.814,214.835 199.343 C 215.366 198.872,216.266 197.972,216.835 197.343 C 217.404 196.714,218.304 195.814,218.835 195.343 C 219.366 194.872,220.266 193.972,220.835 193.343 C 221.404 192.714,222.304 191.814,222.835 191.343 C 223.366 190.872,224.266 189.972,224.835 189.343 C 225.404 188.714,226.304 187.814,226.835 187.343 C 227.366 186.872,228.266 185.972,228.835 185.343 C 229.404 184.714,230.304 183.814,230.835 183.343 C 231.366 182.872,232.266 181.972,232.835 181.343 C 233.404 180.714,234.304 179.814,234.835 179.343 C 235.366 178.872,236.266 177.972,236.835 177.343 C 237.404 176.714,238.349 175.809,238.935 175.330 C 239.970 174.485,240.000 174.339,239.994 170.130 C 239.987 165.373,239.952 165.261,238.154 164.216 C 237.469 163.817,236.583 162.931,236.184 162.246 C 235.786 161.561,235.267 160.868,235.030 160.706 C 234.283 160.196,225.412 160.348,224.880 160.880 " stroke="none" fill="#ed1c24" fill-rule="evenodd"></path><path id="path4" d="M197.137 64.571 C 196.622 65.083,195.725 66.019,195.144 66.651 C 194.563 67.283,193.663 68.181,193.144 68.646 C 192.625 69.111,191.716 70.011,191.124 70.646 C 190.532 71.281,189.497 72.306,188.824 72.925 C 187.733 73.928,187.600 74.299,187.600 76.330 C 187.600 78.355,187.477 78.699,186.505 79.405 C 185.902 79.842,185.047 80.625,184.605 81.144 C 184.162 81.663,183.281 82.563,182.646 83.144 C 182.011 83.725,181.111 84.625,180.646 85.144 C 180.181 85.663,179.283 86.563,178.651 87.144 C 175.667 89.887,175.600 90.002,175.600 92.363 C 175.600 94.352,175.474 94.701,174.505 95.405 C 173.902 95.842,173.047 96.625,172.605 97.144 C 172.162 97.663,171.281 98.563,170.646 99.144 C 170.011 99.725,169.111 100.625,168.646 101.144 C 168.181 101.663,167.283 102.563,166.651 103.144 C 163.667 105.887,163.600 106.002,163.600 108.363 C 163.600 110.352,163.474 110.701,162.505 111.405 C 161.902 111.842,161.047 112.625,160.605 113.144 C 160.162 113.663,159.281 114.563,158.646 115.144 C 158.011 115.725,157.111 116.625,156.646 117.144 C 156.181 117.663,155.283 118.563,154.651 119.144 C 151.667 121.887,151.600 122.002,151.600 124.363 C 151.600 126.343,151.471 126.705,150.517 127.405 C 149.922 127.842,149.157 128.497,148.817 128.860 C 148.478 129.222,147.725 130.032,147.144 130.660 C 146.563 131.287,145.663 132.162,145.144 132.605 C 144.625 133.047,143.842 133.902,143.405 134.505 L 142.610 135.600 100.336 135.600 L 58.062 135.600 56.841 136.821 C 55.449 138.213,55.641 138.979,57.685 140.187 C 58.318 140.561,59.212 141.437,59.671 142.133 C 60.129 142.830,61.201 143.893,62.052 144.496 C 63.551 145.557,63.600 145.668,63.600 147.954 C 63.600 150.003,63.740 150.441,64.656 151.258 C 66.877 153.238,67.866 154.221,68.227 154.802 C 68.432 155.134,69.275 155.908,70.100 156.523 C 71.535 157.592,71.600 157.742,71.600 159.978 C 71.600 162.001,71.743 162.443,72.656 163.258 C 74.877 165.238,75.866 166.221,76.227 166.802 C 76.432 167.134,77.275 167.908,78.100 168.523 C 79.535 169.592,79.600 169.742,79.600 171.978 C 79.600 174.001,79.743 174.443,80.656 175.258 C 82.877 177.238,83.866 178.221,84.227 178.802 C 84.432 179.134,85.275 179.908,86.100 180.523 C 87.535 181.592,87.600 181.742,87.600 183.978 C 87.600 186.001,87.743 186.443,88.656 187.258 C 90.877 189.238,91.866 190.221,92.227 190.802 C 92.432 191.134,93.275 191.908,94.100 192.523 C 95.523 193.583,95.601 193.757,95.613 195.920 C 95.627 198.410,95.865 198.851,98.100 200.520 L 99.600 201.641 99.600 206.125 C 99.600 210.553,99.586 210.620,98.505 211.405 C 97.902 211.842,97.047 212.625,96.605 213.144 C 96.162 213.663,95.283 214.563,94.651 215.144 C 91.667 217.887,91.600 218.002,91.600 220.363 C 91.600 222.352,91.474 222.701,90.505 223.405 C 89.902 223.842,89.047 224.625,88.605 225.144 C 88.162 225.663,87.283 226.563,86.651 227.144 C 83.667 229.887,83.600 230.002,83.600 232.363 C 83.600 234.352,83.474 234.701,82.505 235.405 C 81.902 235.842,81.047 236.625,80.605 237.144 C 80.162 237.663,79.283 238.563,78.651 239.144 C 75.667 241.887,75.600 242.002,75.600 244.363 C 75.600 246.352,75.474 246.701,74.505 247.405 C 73.902 247.842,73.047 248.625,72.605 249.144 C 72.162 249.663,71.283 250.563,70.651 251.144 C 67.667 253.887,67.600 254.002,67.600 256.363 C 67.600 258.352,67.474 258.701,66.505 259.405 C 65.902 259.842,65.047 260.625,64.605 261.144 C 64.162 261.663,63.283 262.563,62.651 263.144 C 59.701 265.855,59.600 266.023,59.600 268.204 C 59.600 269.925,59.785 270.476,60.655 271.345 L 61.709 272.400 102.058 272.400 L 142.408 272.400 143.504 273.948 C 144.107 274.799,145.170 275.871,145.867 276.329 C 146.563 276.788,147.435 277.667,147.804 278.282 C 148.173 278.897,149.178 279.893,150.038 280.496 C 151.543 281.552,151.600 281.677,151.613 283.896 C 151.626 286.386,151.915 286.949,153.889 288.334 C 154.598 288.831,155.466 289.728,155.820 290.325 C 156.173 290.923,157.063 291.806,157.797 292.288 C 158.532 292.770,159.435 293.667,159.804 294.282 C 160.173 294.897,161.178 295.893,162.038 296.496 C 163.543 297.552,163.600 297.677,163.613 299.896 C 163.626 302.386,163.915 302.949,165.889 304.334 C 166.598 304.831,167.466 305.728,167.820 306.325 C 168.173 306.923,169.063 307.806,169.797 308.288 C 170.532 308.770,171.435 309.667,171.804 310.282 C 172.173 310.897,173.178 311.893,174.038 312.496 C 175.543 313.552,175.600 313.677,175.613 315.896 C 175.626 318.386,175.915 318.949,177.889 320.334 C 178.598 320.831,179.466 321.728,179.820 322.325 C 180.173 322.923,181.063 323.806,181.797 324.288 C 182.532 324.770,183.435 325.667,183.804 326.282 C 184.173 326.897,185.178 327.893,186.038 328.496 C 187.543 329.552,187.600 329.677,187.613 331.896 C 187.626 334.386,187.915 334.949,189.889 336.334 C 190.598 336.831,191.466 337.728,191.820 338.325 C 192.173 338.923,193.063 339.806,193.797 340.288 C 194.532 340.770,195.449 341.698,195.834 342.350 C 197.333 344.888,198.978 344.700,200.627 341.803 C 200.861 341.391,201.391 340.861,201.803 340.627 C 203.858 339.457,204.400 338.508,204.400 336.080 C 204.400 333.858,205.093 332.400,206.150 332.400 C 206.521 332.400,208.077 330.768,208.627 329.803 C 208.861 329.391,209.391 328.861,209.803 328.627 C 210.764 328.080,212.080 326.764,212.627 325.803 C 212.861 325.391,213.391 324.861,213.803 324.627 C 215.858 323.457,216.400 322.508,216.400 320.080 C 216.400 317.858,217.093 316.400,218.150 316.400 C 218.521 316.400,220.077 314.768,220.627 313.803 C 220.861 313.391,221.391 312.861,221.803 312.627 C 223.858 311.457,224.400 310.508,224.400 308.080 C 224.400 305.858,225.093 304.400,226.150 304.400 C 226.521 304.400,228.077 302.768,228.627 301.803 C 228.861 301.391,229.391 300.861,229.803 300.627 C 231.858 299.457,232.400 298.508,232.400 296.080 C 232.400 293.858,233.093 292.400,234.150 292.400 C 234.521 292.400,236.077 290.768,236.627 289.803 C 236.861 289.391,237.391 288.861,237.803 288.627 C 238.764 288.080,240.080 286.764,240.627 285.803 C 240.861 285.391,241.391 284.861,241.803 284.627 C 243.858 283.457,244.400 282.508,244.400 280.080 C 244.400 277.858,245.093 276.400,246.150 276.400 C 246.561 276.400,248.400 274.504,248.400 274.080 C 248.400 272.363,247.489 272.400,290.150 272.400 L 330.436 272.400 331.418 271.418 C 332.896 269.940,332.853 266.088,331.344 264.742 C 329.123 262.762,328.134 261.779,327.773 261.198 C 327.568 260.866,326.725 260.092,325.900 259.477 C 324.465 258.408,324.400 258.258,324.400 256.022 C 324.400 253.999,324.257 253.557,323.344 252.742 C 321.123 250.762,320.134 249.779,319.773 249.198 C 319.568 248.866,318.725 248.092,317.900 247.477 C 316.465 246.408,316.400 246.258,316.400 244.022 C 316.400 241.999,316.257 241.557,315.344 240.742 C 313.123 238.762,312.134 237.779,311.773 237.198 C 311.568 236.866,310.725 236.092,309.900 235.477 C 308.465 234.408,308.400 234.258,308.400 232.022 C 308.400 229.999,308.257 229.557,307.344 228.742 C 305.123 226.762,304.134 225.779,303.773 225.198 C 303.568 224.866,302.725 224.092,301.900 223.477 C 300.465 222.408,300.400 222.258,300.400 220.022 C 300.400 217.999,300.257 217.557,299.344 216.742 C 297.123 214.762,296.134 213.779,295.773 213.198 C 295.568 212.866,294.725 212.092,293.900 211.477 L 292.400 210.359 292.400 206.184 C 292.400 201.989,292.899 200.400,294.217 200.400 C 294.630 200.400,296.400 198.618,296.400 198.202 C 296.400 197.790,297.801 196.400,298.217 196.400 C 299.355 196.400,300.400 194.390,300.400 192.202 C 300.400 190.033,301.181 188.400,302.217 188.400 C 303.390 188.400,304.400 186.391,304.400 184.059 C 304.400 181.858,305.097 180.400,306.150 180.400 C 306.521 180.400,308.077 178.768,308.627 177.803 C 308.861 177.391,309.391 176.861,309.803 176.627 C 311.858 175.457,312.400 174.508,312.400 172.080 C 312.400 169.858,313.093 168.400,314.150 168.400 C 314.521 168.400,316.077 166.768,316.627 165.803 C 316.861 165.391,317.391 164.861,317.803 164.627 C 319.858 163.457,320.400 162.508,320.400 160.080 C 320.400 157.858,321.093 156.400,322.150 156.400 C 322.521 156.400,324.077 154.768,324.627 153.803 C 324.861 153.391,325.391 152.861,325.803 152.627 C 327.858 151.457,328.400 150.508,328.400 148.080 C 328.400 145.858,329.093 144.400,330.150 144.400 C 330.521 144.400,332.077 142.768,332.627 141.803 C 332.861 141.391,333.391 140.861,333.803 140.627 C 336.379 139.160,336.791 138.100,335.345 136.655 L 334.291 135.600 291.942 135.600 L 249.592 135.600 248.496 134.052 C 247.893 133.201,246.830 132.129,246.133 131.671 C 245.437 131.212,244.565 130.333,244.196 129.718 C 243.827 129.103,242.822 128.107,241.962 127.504 C 240.446 126.440,240.400 126.338,240.400 124.046 C 240.400 121.997,240.260 121.559,239.344 120.742 C 237.123 118.762,236.134 117.779,235.773 117.198 C 235.568 116.866,234.725 116.092,233.900 115.477 C 232.465 114.408,232.400 114.258,232.400 112.022 C 232.400 109.999,232.257 109.557,231.344 108.742 C 229.123 106.762,228.134 105.779,227.773 105.198 C 227.568 104.866,226.725 104.092,225.900 103.477 C 224.477 102.417,224.399 102.243,224.387 100.080 C 224.374 97.614,224.082 97.050,222.111 95.666 C 221.402 95.169,220.534 94.272,220.180 93.675 C 219.827 93.077,218.937 92.194,218.203 91.712 C 217.468 91.230,216.565 90.333,216.196 89.718 C 215.827 89.103,214.822 88.107,213.962 87.504 C 212.446 86.440,212.400 86.338,212.400 84.046 C 212.400 81.997,212.260 81.559,211.344 80.742 C 209.123 78.762,208.134 77.779,207.773 77.198 C 207.568 76.866,206.725 76.092,205.900 75.477 C 204.477 74.417,204.399 74.243,204.387 72.080 C 204.374 69.614,204.082 69.050,202.111 67.666 C 201.402 67.169,200.526 66.260,200.165 65.648 C 199.066 63.788,198.226 63.489,197.137 64.571 M198.649 66.300 C 199.199 68.021,199.737 68.644,201.217 69.270 L 202.800 69.941 202.813 72.670 C 202.827 75.725,203.131 76.291,205.300 77.294 C 206.191 77.706,206.805 78.274,206.813 78.694 C 206.831 79.711,207.588 80.502,209.300 81.294 L 210.800 81.987 210.813 84.694 C 210.827 87.723,211.135 88.292,213.300 89.294 C 214.191 89.706,214.805 90.274,214.813 90.694 C 214.831 91.711,215.588 92.502,217.300 93.294 C 218.191 93.706,218.805 94.274,218.813 94.694 C 218.831 95.711,219.588 96.502,221.300 97.294 L 222.800 97.987 222.813 100.694 C 222.827 103.723,223.135 104.292,225.300 105.294 C 226.191 105.706,226.805 106.274,226.813 106.694 C 226.831 107.711,227.588 108.502,229.300 109.294 L 230.800 109.987 230.813 112.694 C 230.827 115.723,231.135 116.292,233.300 117.294 C 234.191 117.706,234.805 118.274,234.813 118.694 C 234.831 119.711,235.588 120.502,237.300 121.294 L 238.800 121.987 238.813 124.694 C 238.827 127.723,239.135 128.292,241.300 129.294 C 242.191 129.706,242.805 130.274,242.813 130.694 C 242.831 131.711,243.588 132.502,245.300 133.294 C 246.191 133.706,246.805 134.274,246.813 134.694 C 246.829 135.582,247.562 136.538,248.600 137.025 C 249.074 137.247,266.732 137.482,291.900 137.600 C 319.818 137.731,334.406 137.937,334.416 138.200 C 334.425 138.420,334.078 138.656,333.647 138.724 C 332.592 138.890,330.877 140.654,330.724 141.731 C 330.647 142.268,330.268 142.647,329.731 142.724 C 327.833 142.994,326.843 144.641,326.717 147.738 C 326.611 150.328,326.518 150.612,325.731 150.724 C 324.611 150.883,322.883 152.611,322.724 153.731 C 322.647 154.268,322.268 154.647,321.731 154.724 C 319.833 154.994,318.843 156.641,318.717 159.738 C 318.611 162.328,318.518 162.612,317.731 162.724 C 316.611 162.883,314.883 164.611,314.724 165.731 C 314.647 166.268,314.268 166.647,313.731 166.724 C 311.833 166.994,310.843 168.641,310.717 171.738 C 310.611 174.328,310.518 174.612,309.731 174.724 C 308.602 174.884,306.800 176.695,306.800 177.667 C 306.800 178.084,306.485 178.526,306.100 178.649 C 303.479 179.486,302.800 180.644,302.800 184.272 C 302.800 185.971,302.652 186.472,302.100 186.649 C 299.479 187.486,298.800 188.644,298.800 192.272 C 298.800 193.971,298.652 194.472,298.100 194.649 C 296.324 195.217,295.642 195.801,295.075 197.244 C 294.680 198.251,294.206 198.804,293.732 198.813 C 291.580 198.850,290.800 200.806,290.800 206.166 C 290.800 211.328,291.174 212.485,293.062 213.168 C 294.127 213.553,294.647 214.065,295.072 215.144 C 295.495 216.217,296.060 216.776,297.223 217.270 C 298.783 217.933,298.800 217.964,298.800 220.111 C 298.800 223.303,299.358 224.552,301.062 225.168 C 302.127 225.553,302.647 226.065,303.072 227.144 C 303.495 228.217,304.060 228.776,305.223 229.270 L 306.800 229.941 306.813 232.670 C 306.827 235.725,307.131 236.291,309.300 237.294 C 310.191 237.706,310.805 238.274,310.813 238.694 C 310.831 239.711,311.588 240.502,313.300 241.294 L 314.800 241.987 314.813 244.694 C 314.827 247.723,315.135 248.292,317.300 249.294 C 318.191 249.706,318.805 250.274,318.813 250.694 C 318.831 251.711,319.588 252.502,321.300 253.294 L 322.800 253.987 322.813 256.694 C 322.827 259.723,323.135 260.292,325.300 261.294 C 326.191 261.706,326.805 262.274,326.813 262.694 C 326.831 263.714,327.589 264.502,329.320 265.303 L 330.840 266.006 330.720 268.303 L 330.600 270.600 289.753 270.702 L 248.905 270.804 247.876 271.833 C 247.311 272.399,246.792 273.253,246.724 273.731 C 246.647 274.268,246.268 274.647,245.731 274.724 C 243.833 274.994,242.843 276.641,242.717 279.738 C 242.611 282.328,242.518 282.612,241.731 282.724 C 240.611 282.883,238.883 284.611,238.724 285.731 C 238.647 286.268,238.268 286.647,237.731 286.724 C 236.611 286.883,234.883 288.611,234.724 289.731 C 234.647 290.268,234.268 290.647,233.731 290.724 C 231.833 290.994,230.843 292.641,230.717 295.738 C 230.611 298.328,230.518 298.612,229.731 298.724 C 228.611 298.883,226.883 300.611,226.724 301.731 C 226.647 302.268,226.268 302.647,225.731 302.724 C 223.833 302.994,222.843 304.641,222.717 307.738 C 222.611 310.328,222.518 310.612,221.731 310.724 C 220.611 310.883,218.883 312.611,218.724 313.731 C 218.647 314.268,218.268 314.647,217.731 314.724 C 215.833 314.994,214.843 316.641,214.717 319.738 C 214.611 322.328,214.518 322.612,213.731 322.724 C 212.611 322.883,210.883 324.611,210.724 325.731 C 210.647 326.268,210.268 326.647,209.731 326.724 C 208.611 326.883,206.883 328.611,206.724 329.731 C 206.647 330.268,206.268 330.647,205.731 330.724 C 203.833 330.994,202.843 332.641,202.717 335.738 C 202.611 338.328,202.518 338.612,201.731 338.724 C 200.621 338.882,198.800 340.688,198.800 341.631 C 198.800 343.002,198.005 342.838,197.304 341.321 C 196.497 339.577,195.713 338.831,194.670 338.813 C 194.206 338.805,193.697 338.225,193.270 337.217 C 192.644 335.737,192.021 335.199,190.300 334.649 C 189.746 334.472,189.600 333.969,189.600 332.231 C 189.600 329.006,188.440 326.844,186.694 326.813 C 186.274 326.805,185.706 326.191,185.294 325.300 C 184.497 323.576,183.710 322.831,182.670 322.813 C 182.206 322.805,181.697 322.225,181.270 321.217 C 180.644 319.737,180.021 319.199,178.300 318.649 C 177.746 318.472,177.600 317.969,177.600 316.231 C 177.600 313.006,176.440 310.844,174.694 310.813 C 174.274 310.805,173.706 310.191,173.294 309.300 C 172.497 307.576,171.710 306.831,170.670 306.813 C 170.206 306.805,169.697 306.225,169.270 305.217 C 168.644 303.737,168.021 303.199,166.300 302.649 C 165.746 302.472,165.600 301.969,165.600 300.231 C 165.600 297.006,164.440 294.844,162.694 294.813 C 162.274 294.805,161.706 294.191,161.294 293.300 C 160.497 291.576,159.710 290.831,158.670 290.813 C 158.206 290.805,157.697 290.225,157.270 289.217 C 156.644 287.737,156.021 287.199,154.300 286.649 C 153.746 286.472,153.600 285.969,153.600 284.231 C 153.600 281.006,152.440 278.844,150.694 278.813 C 150.274 278.805,149.706 278.191,149.294 277.300 C 148.502 275.588,147.711 274.831,146.694 274.813 C 146.274 274.805,145.706 274.191,145.294 273.300 C 144.912 272.475,144.330 271.620,144.000 271.400 C 143.615 271.143,128.793 270.928,102.600 270.800 L 61.800 270.600 61.690 268.200 L 61.580 265.800 63.146 265.148 C 64.307 264.665,64.844 264.136,65.216 263.107 C 65.578 262.104,66.092 261.583,67.063 261.232 C 68.813 260.599,69.599 259.019,69.604 256.120 C 69.608 253.805,69.612 253.799,71.161 253.148 C 72.304 252.668,72.846 252.130,73.216 251.107 C 73.578 250.104,74.092 249.583,75.063 249.232 C 76.813 248.599,77.599 247.019,77.604 244.120 C 77.608 241.805,77.612 241.799,79.161 241.148 C 80.304 240.668,80.846 240.130,81.216 239.107 C 81.578 238.104,82.092 237.583,83.063 237.232 C 84.813 236.599,85.599 235.019,85.604 232.120 C 85.608 229.805,85.612 229.799,87.161 229.148 C 88.304 228.668,88.846 228.130,89.216 227.107 C 89.578 226.104,90.092 225.583,91.063 225.232 C 92.813 224.599,93.599 223.019,93.604 220.120 C 93.608 217.805,93.612 217.799,95.161 217.148 C 96.304 216.668,96.846 216.130,97.216 215.107 C 97.578 214.104,98.092 213.583,99.063 213.232 C 101.093 212.498,101.600 211.123,101.600 206.348 C 101.600 200.701,101.104 199.545,98.300 198.649 C 97.746 198.472,97.600 197.969,97.600 196.231 C 97.600 192.988,96.440 190.844,94.670 190.813 C 94.206 190.805,93.697 190.225,93.270 189.217 C 92.644 187.737,92.021 187.199,90.300 186.649 C 89.746 186.472,89.600 185.969,89.600 184.231 C 89.600 180.988,88.440 178.844,86.670 178.813 C 86.206 178.805,85.697 178.225,85.270 177.217 C 84.644 175.737,84.021 175.199,82.300 174.649 C 81.746 174.472,81.600 173.969,81.600 172.231 C 81.600 168.988,80.440 166.844,78.670 166.813 C 78.206 166.805,77.697 166.225,77.270 165.217 C 76.644 163.737,76.021 163.199,74.300 162.649 C 73.746 162.472,73.600 161.969,73.600 160.231 C 73.600 156.988,72.440 154.844,70.670 154.813 C 70.206 154.805,69.697 154.225,69.270 153.217 C 68.644 151.737,68.021 151.199,66.300 150.649 C 65.746 150.472,65.600 149.969,65.600 148.231 C 65.600 144.988,64.440 142.844,62.670 142.813 C 62.206 142.805,61.697 142.225,61.270 141.217 C 60.644 139.737,60.021 139.199,58.300 138.649 C 55.367 137.712,59.806 137.600,100.020 137.600 C 146.829 137.600,144.263 137.742,145.219 135.097 C 145.554 134.172,146.138 133.596,147.203 133.141 C 148.298 132.674,148.852 132.114,149.216 131.107 C 149.578 130.104,150.092 129.583,151.063 129.232 C 152.813 128.599,153.599 127.019,153.604 124.120 C 153.608 121.805,153.612 121.799,155.161 121.148 C 156.304 120.668,156.846 120.130,157.216 119.107 C 157.583 118.090,158.090 117.583,159.107 117.216 C 160.114 116.852,160.674 116.298,161.141 115.203 C 161.596 114.138,162.172 113.554,163.097 113.219 C 164.811 112.599,165.599 110.997,165.604 108.120 C 165.608 105.805,165.612 105.799,167.161 105.148 C 168.304 104.668,168.846 104.130,169.216 103.107 C 169.583 102.090,170.090 101.583,171.107 101.216 C 172.114 100.852,172.674 100.298,173.141 99.203 C 173.596 98.138,174.172 97.554,175.097 97.219 C 176.817 96.598,177.600 94.995,177.600 92.100 C 177.600 89.775,177.609 89.758,179.048 89.237 C 180.117 88.850,180.665 88.318,181.141 87.203 C 181.604 86.121,182.170 85.555,183.141 85.203 C 184.113 84.852,184.679 84.286,185.141 83.203 C 185.596 82.138,186.172 81.554,187.097 81.219 C 188.817 80.598,189.600 78.995,189.600 76.100 C 189.600 73.775,189.609 73.758,191.048 73.237 C 192.108 72.854,192.666 72.317,193.127 71.236 C 193.571 70.197,194.197 69.571,195.236 69.127 C 196.317 68.666,196.854 68.108,197.237 67.048 C 197.808 65.469,198.300 65.208,198.649 66.300 M224.398 160.467 C 223.735 161.200,222.831 162.160,222.391 162.600 C 221.951 163.040,221.075 163.917,220.444 164.548 C 218.994 165.997,218.024 166.967,216.444 168.548 C 215.755 169.237,214.878 170.113,214.496 170.496 C 214.113 170.878,213.260 171.731,212.600 172.391 C 211.940 173.051,210.993 173.998,210.496 174.496 C 209.998 174.993,209.051 175.940,208.391 176.600 C 207.731 177.260,206.878 178.113,206.496 178.496 C 205.336 179.655,208.022 176.970,202.496 182.496 C 201.998 182.993,201.075 183.917,200.444 184.548 C 199.812 185.179,198.936 186.056,198.496 186.496 C 198.056 186.936,197.156 187.836,196.496 188.496 C 195.836 189.156,194.936 190.056,194.496 190.496 C 194.056 190.936,193.156 191.836,192.496 192.496 C 191.836 193.156,190.936 194.056,190.496 194.496 C 190.056 194.936,189.156 195.836,188.496 196.496 C 187.836 197.156,186.936 198.056,186.496 198.496 C 186.056 198.936,185.156 199.836,184.496 200.496 C 183.836 201.156,182.936 202.056,182.496 202.496 C 182.056 202.936,181.156 203.836,180.496 204.496 C 179.836 205.156,178.936 206.056,178.496 206.496 C 178.056 206.936,177.156 207.836,176.496 208.496 C 175.836 209.156,174.936 210.056,174.496 210.496 C 174.056 210.936,173.156 211.836,172.496 212.496 C 171.836 213.156,170.936 214.056,170.496 214.496 C 170.056 214.936,169.156 215.836,168.496 216.496 C 167.836 217.156,166.936 218.056,166.496 218.496 C 166.056 218.936,165.156 219.836,164.496 220.496 C 163.836 221.156,162.936 222.056,162.496 222.496 C 162.056 222.936,161.156 223.836,160.496 224.496 C 159.836 225.156,158.936 226.056,158.496 226.496 C 158.056 226.936,157.156 227.836,156.496 228.496 C 155.836 229.156,154.936 230.056,154.496 230.496 C 154.056 230.936,153.119 231.815,152.414 232.451 L 151.133 233.605 151.267 238.332 C 151.409 243.370,151.637 243.978,153.678 244.754 C 154.195 244.950,154.882 245.626,155.206 246.255 C 156.425 248.625,156.897 248.800,162.075 248.800 C 166.506 248.800,166.882 248.739,167.611 247.900 C 168.041 247.405,168.957 246.437,169.645 245.748 C 170.333 245.059,171.256 244.136,171.696 243.696 C 172.136 243.256,173.036 242.356,173.696 241.696 C 174.356 241.036,175.279 240.112,175.748 239.644 C 176.217 239.175,177.093 238.298,177.696 237.696 C 178.298 237.093,179.198 236.193,179.696 235.696 C 180.193 235.198,181.093 234.298,181.696 233.696 C 182.298 233.093,183.175 232.217,183.644 231.748 C 184.112 231.279,185.036 230.356,185.696 229.696 C 186.356 229.036,187.256 228.136,187.696 227.696 C 188.136 227.256,189.036 226.356,189.696 225.696 C 190.356 225.036,191.256 224.136,191.696 223.696 C 192.136 223.256,193.036 222.356,193.696 221.696 C 194.356 221.036,195.256 220.136,195.696 219.696 C 196.136 219.256,197.036 218.356,197.696 217.696 C 198.356 217.036,199.256 216.136,199.696 215.696 C 200.136 215.256,201.036 214.356,201.696 213.696 C 202.356 213.036,203.256 212.136,203.696 211.696 C 204.136 211.256,205.036 210.356,205.696 209.696 C 206.356 209.036,207.256 208.136,207.696 207.696 C 208.136 207.256,209.036 206.356,209.696 205.696 C 210.356 205.036,211.256 204.136,211.696 203.696 C 212.136 203.256,213.036 202.356,213.696 201.696 C 214.699 200.692,216.875 198.517,217.696 197.696 C 218.356 197.036,219.256 196.136,219.696 195.696 C 220.136 195.256,221.036 194.356,221.696 193.696 C 222.356 193.036,223.279 192.112,223.748 191.644 C 224.217 191.175,225.140 190.251,225.800 189.591 C 226.460 188.931,227.337 188.055,227.748 187.644 C 228.159 187.232,229.036 186.356,229.696 185.696 C 230.356 185.036,231.256 184.136,231.696 183.696 C 232.136 183.256,233.012 182.379,233.644 181.748 C 234.275 181.117,235.198 180.193,235.696 179.696 C 236.193 179.198,237.140 178.252,237.800 177.592 C 238.460 176.933,239.405 176.041,239.900 175.611 C 240.739 174.882,240.800 174.506,240.800 170.075 C 240.800 164.897,240.625 164.425,238.255 163.206 C 237.626 162.882,236.950 162.195,236.754 161.678 C 235.978 159.637,235.370 159.409,230.332 159.267 L 225.605 159.133 224.398 160.467 M235.030 160.706 C 235.267 160.868,235.786 161.561,236.184 162.246 C 236.583 162.931,237.469 163.817,238.154 164.216 C 239.952 165.261,239.987 165.373,239.994 170.130 C 240.000 174.339,239.970 174.485,238.935 175.330 C 238.349 175.809,237.404 176.714,236.835 177.343 C 236.266 177.972,235.366 178.872,234.835 179.343 C 234.304 179.814,233.404 180.714,232.835 181.343 C 232.266 181.972,231.366 182.872,230.835 183.343 C 230.304 183.814,229.404 184.714,228.835 185.343 C 228.266 185.972,227.366 186.872,226.835 187.343 C 226.304 187.814,225.404 188.714,224.835 189.343 C 224.266 189.972,223.366 190.872,222.835 191.343 C 222.304 191.814,221.404 192.714,220.835 193.343 C 220.266 193.972,219.366 194.872,218.835 195.343 C 218.304 195.814,217.404 196.714,216.835 197.343 C 216.266 197.972,215.366 198.872,214.835 199.343 C 214.304 199.814,213.404 200.714,212.835 201.343 C 212.266 201.972,211.366 202.872,210.835 203.343 C 210.304 203.814,209.404 204.714,208.835 205.343 C 208.266 205.972,207.366 206.872,206.835 207.343 C 206.304 207.814,205.404 208.714,204.835 209.343 C 204.266 209.972,203.366 210.872,202.835 211.343 C 202.304 211.814,201.404 212.714,200.835 213.343 C 200.266 213.972,199.366 214.872,198.835 215.343 C 198.304 215.814,197.404 216.714,196.835 217.343 C 196.266 217.972,195.366 218.872,194.835 219.343 C 194.304 219.814,193.404 220.714,192.835 221.343 C 192.266 221.972,191.372 222.872,190.848 223.343 C 189.638 224.433,188.433 225.638,187.343 226.848 C 186.872 227.372,185.972 228.266,185.343 228.835 C 184.714 229.404,183.814 230.304,183.343 230.835 C 182.872 231.366,181.972 232.266,181.343 232.835 C 180.714 233.404,179.814 234.304,179.343 234.835 C 178.872 235.366,177.972 236.266,177.343 236.835 C 176.714 237.404,175.814 238.304,175.343 238.835 C 174.872 239.366,173.972 240.266,173.343 240.835 C 172.714 241.404,171.814 242.304,171.343 242.835 C 170.872 243.366,169.972 244.266,169.343 244.835 C 168.714 245.404,167.809 246.349,167.330 246.935 C 166.485 247.970,166.339 248.000,162.130 247.994 C 157.362 247.987,157.263 247.956,156.198 246.124 C 155.790 245.423,154.851 244.523,154.111 244.124 C 152.438 243.224,152.340 242.822,152.484 237.443 C 152.586 233.600,152.693 233.033,153.385 232.643 C 154.529 231.997,156.205 230.309,156.514 229.491 C 156.661 229.101,157.101 228.661,157.491 228.514 C 158.405 228.169,160.169 226.405,160.514 225.491 C 160.661 225.101,161.101 224.661,161.491 224.514 C 162.405 224.169,164.169 222.405,164.514 221.491 C 164.661 221.101,165.101 220.661,165.491 220.514 C 166.405 220.169,168.169 218.405,168.514 217.491 C 168.661 217.101,169.101 216.661,169.491 216.514 C 170.405 216.169,172.169 214.405,172.514 213.491 C 172.661 213.101,173.101 212.661,173.491 212.514 C 174.405 212.169,176.169 210.405,176.514 209.491 C 176.661 209.101,177.101 208.661,177.491 208.514 C 178.405 208.169,180.169 206.405,180.514 205.491 C 180.661 205.101,181.101 204.661,181.491 204.514 C 182.405 204.169,184.169 202.405,184.514 201.491 C 184.661 201.101,185.101 200.661,185.491 200.514 C 186.405 200.169,188.169 198.405,188.514 197.491 C 188.661 197.101,189.101 196.661,189.491 196.514 C 190.405 196.169,192.169 194.405,192.514 193.491 C 192.661 193.101,193.101 192.661,193.491 192.514 C 194.405 192.169,196.169 190.405,196.514 189.491 C 196.661 189.101,197.101 188.661,197.491 188.514 C 198.405 188.169,200.169 186.405,200.514 185.491 C 200.661 185.101,201.101 184.661,201.491 184.514 C 201.881 184.367,202.660 183.786,203.223 183.223 C 203.786 182.660,204.367 181.881,204.514 181.491 C 204.661 181.101,205.101 180.661,205.491 180.514 C 206.405 180.169,208.169 178.405,208.514 177.491 C 208.661 177.101,209.101 176.661,209.491 176.514 C 210.405 176.169,212.169 174.405,212.514 173.491 C 212.661 173.101,213.101 172.661,213.491 172.514 C 214.405 172.169,216.169 170.405,216.514 169.491 C 216.661 169.101,217.101 168.661,217.491 168.514 C 218.405 168.169,220.169 166.405,220.514 165.491 C 220.661 165.101,221.101 164.661,221.491 164.514 C 222.338 164.194,224.400 162.207,224.400 161.711 C 224.400 160.672,225.560 160.400,229.980 160.406 C 232.521 160.409,234.794 160.544,235.030 160.706 " stroke="none" fill="#58b828" fill-rule="evenodd"></path></g></svg>