<svg id="svg" version="1.1" xmlns="http://www.w3.org/2000/svg" xmlns:xlink="http://www.w3.org/1999/xlink" width="400" height="400" viewBox="0, 0, 400,400"><g id="svgg"><path id="path0" d="M181.423 30.089 C 181.080 30.578,180.800 31.186,180.800 31.440 C 180.800 32.779,179.528 32.999,170.640 33.200 L 161.800 33.400 161.122 34.758 C 160.011 36.984,159.999 36.987,152.681 37.200 L 145.800 37.400 145.122 38.758 C 144.107 40.792,143.856 40.929,140.706 41.174 C 137.887 41.393,137.780 41.441,137.122 42.758 C 136.107 44.792,135.856 44.929,132.706 45.174 C 129.887 45.393,129.780 45.441,129.122 46.758 C 128.107 48.792,127.856 48.929,124.706 49.174 C 121.887 49.393,121.780 49.441,121.122 50.758 C 120.107 52.791,119.856 52.929,116.708 53.174 C 113.825 53.398,113.798 53.411,113.002 54.937 C 112.502 55.896,111.705 56.681,110.885 57.024 C 110.025 57.384,109.370 58.053,108.991 58.960 C 108.235 60.768,107.933 60.922,104.609 61.181 C 101.839 61.397,101.794 61.419,101.002 62.937 C 100.502 63.896,99.705 64.681,98.885 65.024 C 98.018 65.387,97.370 66.054,96.981 66.983 C 96.579 67.947,95.946 68.579,94.982 68.982 C 94.017 69.385,93.385 70.017,92.982 70.982 C 92.579 71.947,91.947 72.579,90.982 72.982 C 90.011 73.387,89.385 74.017,88.974 75.000 C 88.271 76.683,87.161 77.200,84.254 77.200 C 81.635 77.200,81.200 77.635,81.200 80.254 C 81.200 83.161,80.683 84.271,79.000 84.974 C 78.017 85.385,77.387 86.011,76.982 86.982 C 76.579 87.947,75.947 88.579,74.982 88.982 C 74.017 89.385,73.385 90.017,72.982 90.982 C 72.579 91.946,71.947 92.579,70.983 92.981 C 70.054 93.370,69.387 94.018,69.024 94.885 C 68.681 95.705,67.896 96.502,66.937 97.002 C 65.419 97.794,65.397 97.839,65.181 100.609 C 64.922 103.933,64.768 104.235,62.960 104.991 C 62.053 105.370,61.384 106.025,61.024 106.885 C 60.681 107.705,59.896 108.502,58.937 109.002 C 57.411 109.798,57.398 109.825,57.174 112.708 C 56.929 115.856,56.791 116.107,54.758 117.122 C 53.441 117.780,53.393 117.887,53.174 120.706 C 52.929 123.856,52.792 124.107,50.758 125.122 C 49.441 125.780,49.393 125.887,49.174 128.706 C 48.929 131.856,48.792 132.107,46.758 133.122 C 45.441 133.780,45.393 133.887,45.174 136.706 C 44.929 139.856,44.792 140.107,42.758 141.122 L 41.400 141.800 41.200 148.681 C 40.987 155.999,40.984 156.011,38.758 157.122 L 37.400 157.800 37.200 166.681 C 36.987 176.149,37.024 175.991,34.758 177.122 L 33.400 177.800 33.296 198.102 L 33.193 218.404 34.742 219.023 C 37.114 219.972,37.200 220.429,37.200 232.022 L 37.200 242.406 38.746 243.025 C 40.843 243.864,41.200 244.882,41.200 250.022 L 41.200 254.406 42.746 255.025 C 44.646 255.785,45.200 256.914,45.200 260.022 L 45.200 262.406 46.746 263.025 C 48.646 263.785,49.200 264.914,49.200 268.022 L 49.200 270.406 50.746 271.025 C 52.646 271.785,53.200 272.914,53.200 276.022 L 53.200 278.406 54.746 279.025 C 56.646 279.785,57.200 280.914,57.200 284.022 L 57.200 286.406 58.746 287.025 C 60.646 287.785,61.200 288.914,61.200 292.022 L 61.200 294.406 62.788 295.042 C 63.987 295.522,64.501 296.021,64.883 297.080 C 65.258 298.115,65.782 298.639,66.883 299.080 C 67.985 299.521,68.509 300.045,68.883 301.080 C 69.258 302.115,69.782 302.639,70.883 303.080 C 71.985 303.521,72.509 304.045,72.883 305.080 C 73.258 306.115,73.782 306.639,74.883 307.080 C 75.985 307.521,76.509 308.045,76.883 309.080 C 77.256 310.110,77.783 310.640,78.864 311.072 C 80.665 311.793,80.887 312.248,81.174 315.800 L 81.400 318.600 84.200 318.826 C 87.752 319.113,88.207 319.335,88.928 321.136 C 89.360 322.217,89.890 322.744,90.920 323.117 C 91.955 323.491,92.479 324.015,92.920 325.117 C 93.361 326.218,93.885 326.742,94.920 327.117 C 95.955 327.491,96.479 328.015,96.920 329.117 C 97.361 330.218,97.885 330.742,98.920 331.117 C 99.955 331.491,100.479 332.015,100.920 333.117 C 101.361 334.218,101.885 334.742,102.920 335.117 C 103.979 335.499,104.478 336.013,104.958 337.212 L 105.594 338.800 107.978 338.800 C 111.086 338.800,112.215 339.354,112.975 341.254 L 113.594 342.800 115.978 342.800 C 119.086 342.800,120.215 343.354,120.975 345.254 L 121.594 346.800 123.978 346.800 C 127.086 346.800,128.215 347.354,128.975 349.254 L 129.594 350.800 131.978 350.800 C 135.086 350.800,136.215 351.354,136.975 353.254 L 137.594 354.800 139.978 354.800 C 143.086 354.800,144.215 355.354,144.975 357.254 L 145.594 358.800 149.978 358.800 C 155.118 358.800,156.136 359.157,156.975 361.254 L 157.594 362.800 165.978 362.800 C 175.410 362.800,176.050 362.943,176.975 365.254 L 177.594 366.800 202.007 366.800 L 226.420 366.800 226.806 365.785 C 227.884 362.948,228.432 362.800,237.868 362.800 L 246.420 362.800 246.806 361.785 C 247.744 359.316,248.924 358.800,253.626 358.800 C 258.488 358.800,259.200 358.639,259.200 357.538 C 259.200 355.974,261.098 354.800,263.626 354.800 C 266.462 354.800,267.200 354.539,267.200 353.538 C 267.200 351.974,269.098 350.800,271.626 350.800 C 274.462 350.800,275.200 350.539,275.200 349.538 C 275.200 347.974,277.098 346.800,279.626 346.800 C 282.462 346.800,283.200 346.539,283.200 345.538 C 283.200 343.974,285.098 342.800,287.626 342.800 C 290.462 342.800,291.200 342.539,291.200 341.538 C 291.200 339.940,293.093 338.801,295.758 338.794 C 298.556 338.787,298.863 338.638,299.408 337.018 C 299.677 336.222,300.340 335.579,301.440 335.049 C 302.576 334.502,303.184 333.899,303.437 333.069 C 303.660 332.336,304.314 331.604,305.133 331.171 C 305.866 330.783,306.780 329.880,307.164 329.164 C 307.548 328.448,308.448 327.548,309.164 327.164 C 309.880 326.780,310.782 325.875,311.169 325.153 C 311.557 324.431,312.532 323.499,313.337 323.081 C 314.141 322.663,314.800 322.083,314.800 321.792 C 314.800 320.261,317.167 318.839,319.913 318.718 L 322.600 318.600 322.718 315.913 C 322.839 313.167,324.261 310.800,325.792 310.800 C 326.083 310.800,326.663 310.141,327.081 309.337 C 327.499 308.532,328.431 307.557,329.153 307.169 C 329.875 306.782,330.780 305.880,331.164 305.164 C 331.548 304.448,332.448 303.548,333.164 303.164 C 333.880 302.780,334.780 301.880,335.164 301.164 C 335.548 300.448,336.448 299.548,337.164 299.164 C 337.880 298.780,338.782 297.875,339.169 297.153 C 339.557 296.431,340.532 295.499,341.337 295.081 C 342.784 294.330,342.800 294.295,342.800 291.819 C 342.800 289.086,343.681 287.606,345.785 286.806 C 346.725 286.448,346.800 286.232,346.800 283.868 C 346.800 281.082,347.668 279.611,349.785 278.806 C 350.725 278.448,350.800 278.232,350.800 275.868 C 350.800 273.082,351.668 271.611,353.785 270.806 C 354.725 270.448,354.800 270.232,354.800 267.868 C 354.800 265.082,355.668 263.611,357.785 262.806 C 358.725 262.448,358.800 262.232,358.800 259.868 C 358.800 257.082,359.668 255.611,361.785 254.806 C 362.790 254.424,362.800 254.373,362.800 249.868 C 362.800 244.899,363.282 243.757,365.785 242.806 L 366.800 242.420 366.800 233.868 C 366.800 224.432,366.948 223.884,369.785 222.806 L 370.800 222.420 370.800 198.007 L 370.800 173.594 369.254 172.975 C 366.943 172.050,366.800 171.410,366.800 161.978 L 366.800 153.594 365.254 152.975 C 363.157 152.136,362.800 151.118,362.800 145.978 L 362.800 141.594 361.254 140.975 C 359.354 140.215,358.800 139.086,358.800 135.978 L 358.800 133.594 357.254 132.975 C 355.354 132.215,354.800 131.086,354.800 127.978 L 354.800 125.594 353.254 124.975 C 351.354 124.215,350.800 123.086,350.800 119.978 L 350.800 117.594 349.254 116.975 C 347.354 116.215,346.800 115.086,346.800 111.978 L 346.800 109.594 345.254 108.975 C 343.354 108.215,342.800 107.086,342.800 103.978 L 342.800 101.594 341.212 100.958 C 340.013 100.478,339.499 99.979,339.117 98.920 C 338.742 97.885,338.218 97.361,337.117 96.920 C 336.015 96.479,335.491 95.955,335.117 94.920 C 334.742 93.885,334.218 93.361,333.117 92.920 C 332.015 92.479,331.491 91.955,331.117 90.920 C 330.742 89.885,330.218 89.361,329.117 88.920 C 328.015 88.479,327.491 87.955,327.117 86.920 C 326.744 85.890,326.217 85.360,325.136 84.928 C 323.335 84.207,323.113 83.752,322.826 80.200 L 322.600 77.400 319.800 77.174 C 316.248 76.887,315.793 76.665,315.072 74.864 C 314.640 73.783,314.110 73.256,313.080 72.883 C 312.045 72.509,311.521 71.985,311.080 70.883 C 310.639 69.782,310.115 69.258,309.080 68.883 C 308.045 68.509,307.521 67.985,307.080 66.883 C 306.635 65.771,306.117 65.258,305.047 64.871 C 303.950 64.475,303.534 64.051,303.287 63.076 C 303.039 62.099,302.566 61.619,301.271 61.027 C 300.103 60.493,299.503 59.935,299.334 59.227 C 298.921 57.493,298.435 57.200,295.970 57.200 C 293.104 57.200,291.658 56.586,291.335 55.231 C 290.921 53.493,290.436 53.200,287.970 53.200 C 285.104 53.200,283.658 52.586,283.335 51.231 C 282.921 49.493,282.436 49.200,279.970 49.200 C 277.104 49.200,275.658 48.586,275.335 47.231 C 274.921 45.493,274.436 45.200,271.970 45.200 C 269.104 45.200,267.658 44.586,267.335 43.231 C 266.921 41.493,266.436 41.200,263.970 41.200 C 261.104 41.200,259.658 40.586,259.335 39.231 C 258.880 37.320,258.563 37.200,253.970 37.200 C 248.885 37.200,247.862 36.838,247.025 34.746 L 246.406 33.200 238.022 33.200 C 228.590 33.200,227.950 33.057,227.025 30.746 L 226.406 29.200 204.226 29.200 L 182.045 29.200 181.423 30.089 " stroke="none" fill="#9cdcec" fill-rule="evenodd"></path><path id="path1" d="M174.269 6.264 C 174.121 6.412,174.000 7.310,174.000 8.260 L 174.000 9.986 164.100 10.093 L 154.200 10.200 154.078 12.092 L 153.957 13.983 146.078 14.092 L 138.200 14.200 138.079 16.086 L 137.957 17.972 134.079 18.086 L 130.200 18.200 130.079 20.086 L 129.957 21.972 126.079 22.086 L 122.200 22.200 122.079 24.089 L 121.957 25.979 116.079 26.089 L 110.200 26.200 110.079 28.079 L 109.958 29.958 108.079 30.079 L 106.200 30.200 106.079 32.086 L 105.957 33.972 102.079 34.086 L 98.200 34.200 98.079 36.079 L 97.958 37.958 96.079 38.079 L 94.200 38.200 94.079 40.086 L 93.957 41.972 90.079 42.086 L 86.200 42.200 86.079 44.079 L 85.958 45.958 84.079 46.079 L 82.200 46.200 82.079 48.079 L 81.958 49.958 80.079 50.079 L 78.200 50.200 78.079 52.079 L 77.958 53.958 76.079 54.079 L 74.200 54.200 74.079 56.079 L 73.958 57.958 72.079 58.079 L 70.200 58.200 70.079 60.079 L 69.958 61.958 68.079 62.079 L 66.200 62.200 66.079 64.079 L 65.958 65.958 64.079 66.079 L 62.200 66.200 62.079 68.079 L 61.958 69.958 60.079 70.079 L 58.200 70.200 58.079 72.079 L 57.958 73.958 56.079 74.079 L 54.200 74.200 54.079 76.079 L 53.958 77.958 52.079 78.079 L 50.200 78.200 50.079 80.079 L 49.958 81.958 48.079 82.079 L 46.200 82.200 46.086 86.079 L 45.972 89.957 44.086 90.079 L 42.200 90.200 42.079 92.079 L 41.958 93.958 40.079 94.079 L 38.200 94.200 38.086 98.079 L 37.972 101.957 36.086 102.079 L 34.200 102.200 34.079 104.079 L 33.958 105.958 32.079 106.079 L 30.200 106.200 30.089 112.079 L 29.979 117.957 28.089 118.079 L 26.200 118.200 26.086 122.079 L 25.972 125.957 24.086 126.079 L 22.200 126.200 22.089 132.079 L 21.979 137.957 20.089 138.079 L 18.200 138.200 18.089 144.079 L 17.979 149.957 16.089 150.079 L 14.200 150.200 14.093 160.078 L 13.986 169.957 12.093 170.078 L 10.200 170.200 10.200 198.000 L 10.200 225.800 12.093 225.922 L 13.986 226.043 14.093 235.922 L 14.200 245.800 16.092 245.922 L 17.983 246.043 18.092 253.922 L 18.200 261.800 20.086 261.921 L 21.972 262.043 22.086 265.921 L 22.200 269.800 24.089 269.921 L 25.979 270.043 26.089 275.921 L 26.200 281.800 28.086 281.921 L 29.972 282.043 30.086 285.921 L 30.200 289.800 32.079 289.921 L 33.958 290.042 34.079 291.921 L 34.200 293.800 36.086 293.921 L 37.972 294.043 38.086 297.921 L 38.200 301.800 40.086 301.921 L 41.972 302.043 42.086 305.921 L 42.200 309.800 44.079 309.921 L 45.958 310.042 46.079 311.921 L 46.200 313.800 48.079 313.921 L 49.958 314.042 50.079 315.921 L 50.200 317.800 52.079 317.921 L 53.958 318.042 54.079 319.921 L 54.200 321.800 56.079 321.921 L 57.958 322.042 58.079 323.921 L 58.200 325.800 60.086 325.921 L 61.972 326.043 62.086 329.921 L 62.200 333.800 64.079 333.921 L 65.958 334.042 66.079 335.921 L 66.200 337.800 70.079 337.914 L 73.957 338.028 74.079 339.914 L 74.200 341.800 76.079 341.921 L 77.958 342.042 78.079 343.921 L 78.200 345.800 80.079 345.921 L 81.958 346.042 82.079 347.921 L 82.200 349.800 84.079 349.921 L 85.958 350.042 86.079 351.921 L 86.200 353.800 90.079 353.914 L 93.957 354.028 94.079 355.914 L 94.200 357.800 96.079 357.921 L 97.958 358.042 98.079 359.921 L 98.200 361.800 102.079 361.914 L 105.957 362.028 106.079 363.914 L 106.200 365.800 108.079 365.921 L 109.958 366.042 110.079 367.921 L 110.200 369.800 114.079 369.914 L 117.957 370.028 118.079 371.914 L 118.200 373.800 124.079 373.911 L 129.957 374.021 130.079 375.911 L 130.200 377.800 134.079 377.914 L 137.957 378.028 138.079 379.914 L 138.200 381.800 146.078 381.908 L 153.957 382.017 154.078 383.908 L 154.200 385.800 164.078 385.907 L 173.957 386.014 174.078 387.907 L 174.200 389.800 202.000 389.800 L 229.800 389.800 229.922 387.907 L 230.043 386.014 239.922 385.907 L 249.800 385.800 249.922 383.908 L 250.043 382.017 257.922 381.908 L 265.800 381.800 265.921 379.914 L 266.043 378.028 269.921 377.914 L 273.800 377.800 273.921 375.911 L 274.043 374.021 279.921 373.911 L 285.800 373.800 285.921 371.914 L 286.043 370.028 289.921 369.914 L 293.800 369.800 293.921 367.921 L 294.042 366.042 295.921 365.921 L 297.800 365.800 297.921 363.914 L 298.043 362.028 301.921 361.914 L 305.800 361.800 305.921 359.914 L 306.043 358.028 309.921 357.914 L 313.800 357.800 313.921 355.921 L 314.042 354.042 315.921 353.921 L 317.800 353.800 317.921 351.921 L 318.042 350.042 319.921 349.921 L 321.800 349.800 321.921 347.921 L 322.042 346.042 323.921 345.921 L 325.800 345.800 325.921 343.921 L 326.042 342.042 327.921 341.921 L 329.800 341.800 329.921 339.914 L 330.043 338.028 333.921 337.914 L 337.800 337.800 337.921 335.921 L 338.042 334.042 339.921 333.921 L 341.800 333.800 341.914 329.921 L 342.028 326.043 343.914 325.921 L 345.800 325.800 345.921 323.921 L 346.042 322.042 347.921 321.921 L 349.800 321.800 349.921 319.921 L 350.042 318.042 351.921 317.921 L 353.800 317.800 353.921 315.921 L 354.042 314.042 355.921 313.921 L 357.800 313.800 357.921 311.921 L 358.042 310.042 359.921 309.921 L 361.800 309.800 361.914 305.921 L 362.028 302.043 363.914 301.921 L 365.800 301.800 365.921 299.921 L 366.042 298.042 367.921 297.921 L 369.800 297.800 369.914 293.921 L 370.028 290.043 371.914 289.921 L 373.800 289.800 373.914 285.921 L 374.028 282.043 375.914 281.921 L 377.800 281.800 377.911 275.921 L 378.021 270.043 379.911 269.921 L 381.800 269.800 381.914 265.921 L 382.028 262.043 383.914 261.921 L 385.800 261.800 385.908 253.922 L 386.017 246.043 387.908 245.922 L 389.800 245.800 389.907 235.922 L 390.014 226.043 391.907 225.922 L 393.800 225.800 393.800 198.000 L 393.800 170.200 391.907 170.078 L 390.014 169.957 389.907 160.078 L 389.800 150.200 387.908 150.078 L 386.017 149.957 385.908 142.078 L 385.800 134.200 383.914 134.079 L 382.028 133.957 381.914 130.079 L 381.800 126.200 379.911 126.079 L 378.021 125.957 377.911 120.079 L 377.800 114.200 375.914 114.079 L 374.028 113.957 373.914 110.079 L 373.800 106.200 371.921 106.079 L 370.042 105.958 369.921 104.079 L 369.800 102.200 367.914 102.079 L 366.028 101.957 365.914 98.079 L 365.800 94.200 363.921 94.079 L 362.042 93.958 361.921 92.079 L 361.800 90.200 359.914 90.079 L 358.028 89.957 357.914 86.079 L 357.800 82.200 355.921 82.079 L 354.042 81.958 353.921 80.079 L 353.800 78.200 351.921 78.079 L 350.042 77.958 349.921 76.079 L 349.800 74.200 347.921 74.079 L 346.042 73.958 345.921 72.079 L 345.800 70.200 343.914 70.079 L 342.028 69.957 341.914 66.079 L 341.800 62.200 339.921 62.079 L 338.042 61.958 337.921 60.079 L 337.800 58.200 333.921 58.086 L 330.043 57.972 329.921 56.086 L 329.800 54.200 327.921 54.079 L 326.042 53.958 325.921 52.079 L 325.800 50.200 323.921 50.079 L 322.042 49.958 321.921 48.079 L 321.800 46.200 319.921 46.079 L 318.042 45.958 317.921 44.079 L 317.800 42.200 315.921 42.079 L 314.042 41.958 313.921 40.079 L 313.800 38.200 309.921 38.086 L 306.043 37.972 305.921 36.086 L 305.800 34.200 301.921 34.086 L 298.043 33.972 297.921 32.086 L 297.800 30.200 295.921 30.079 L 294.042 29.958 293.921 28.079 L 293.800 26.200 289.921 26.086 L 286.043 25.972 285.921 24.086 L 285.800 22.200 279.921 22.089 L 274.043 21.979 273.921 20.089 L 273.800 18.200 269.921 18.086 L 266.043 17.972 265.921 16.086 L 265.800 14.200 257.922 14.092 L 250.043 13.983 249.922 12.092 L 249.800 10.200 239.922 10.093 L 230.043 9.986 229.922 8.093 L 229.800 6.200 202.169 6.097 C 186.973 6.041,174.418 6.116,174.269 6.264 M226.800 28.513 C 227.130 28.781,227.904 29.675,228.520 30.500 L 229.641 32.000 237.920 32.013 C 246.914 32.027,246.622 31.958,248.520 34.500 L 249.641 36.000 254.020 36.000 C 258.778 36.000,258.695 35.966,260.760 38.720 C 261.648 39.905,261.894 40.000,264.060 40.000 C 266.546 40.000,266.853 40.178,268.760 42.720 C 269.648 43.905,269.894 44.000,272.060 44.000 C 274.546 44.000,274.853 44.178,276.760 46.720 C 277.648 47.905,277.894 48.000,280.060 48.000 C 282.546 48.000,282.853 48.178,284.760 50.720 C 285.648 51.905,285.894 52.000,288.060 52.000 C 290.546 52.000,290.853 52.178,292.760 54.720 C 293.648 55.905,293.894 56.000,296.060 56.000 C 298.544 56.000,298.854 56.179,300.752 58.710 C 301.275 59.408,302.020 60.079,302.407 60.202 C 302.794 60.325,303.574 61.126,304.140 61.981 C 304.706 62.837,305.674 63.835,306.291 64.199 C 306.908 64.564,307.806 65.463,308.288 66.197 C 308.770 66.932,309.670 67.832,310.288 68.197 C 310.906 68.563,311.806 69.463,312.288 70.197 C 312.770 70.932,313.667 71.835,314.282 72.204 C 314.897 72.573,315.893 73.578,316.496 74.438 C 317.559 75.952,317.664 76.000,319.942 76.000 C 323.265 76.000,324.400 77.135,324.400 80.458 C 324.400 82.736,324.448 82.841,325.962 83.904 C 326.822 84.507,327.827 85.503,328.196 86.118 C 328.565 86.733,329.468 87.630,330.203 88.112 C 330.937 88.594,331.837 89.494,332.203 90.112 C 332.568 90.730,333.451 91.619,334.164 92.087 C 334.878 92.555,335.845 93.522,336.313 94.236 C 336.781 94.949,337.687 95.843,338.328 96.221 C 338.968 96.599,339.791 97.415,340.157 98.035 C 340.523 98.655,341.402 99.569,342.111 100.066 C 344.082 101.450,344.374 102.014,344.387 104.480 C 344.399 106.642,344.477 106.817,345.900 107.880 C 348.135 109.549,348.373 109.990,348.387 112.480 C 348.399 114.642,348.477 114.817,349.900 115.880 C 352.135 117.549,352.373 117.990,352.387 120.480 C 352.399 122.642,352.477 122.817,353.900 123.880 C 356.135 125.549,356.373 125.990,356.387 128.480 C 356.399 130.642,356.477 130.817,357.900 131.880 C 360.135 133.549,360.373 133.990,360.387 136.480 C 360.399 138.642,360.477 138.817,361.900 139.880 C 364.314 141.682,364.373 141.841,364.387 146.480 L 364.400 150.759 365.900 151.880 C 368.442 153.778,368.373 153.486,368.387 162.480 L 368.400 170.759 369.900 171.880 C 370.725 172.496,371.619 173.270,371.887 173.600 C 372.258 174.056,372.378 179.958,372.387 198.259 L 372.400 222.317 370.900 223.572 C 370.075 224.263,369.175 225.009,368.900 225.230 C 368.529 225.528,368.400 227.781,368.400 233.974 L 368.400 242.317 366.900 243.572 C 366.075 244.263,365.175 245.009,364.900 245.230 C 364.555 245.507,364.400 246.981,364.400 249.974 L 364.400 254.317 362.900 255.572 C 362.075 256.263,361.175 257.009,360.900 257.230 C 360.603 257.469,360.400 258.581,360.400 259.974 C 360.400 262.454,360.454 262.373,356.900 265.230 C 356.603 265.469,356.400 266.581,356.400 267.974 C 356.400 270.454,356.454 270.373,352.900 273.230 C 352.603 273.469,352.400 274.581,352.400 275.974 C 352.400 278.454,352.454 278.373,348.900 281.230 C 348.603 281.469,348.400 282.581,348.400 283.974 C 348.400 286.454,348.454 286.373,344.900 289.230 C 344.603 289.469,344.400 290.581,344.400 291.974 C 344.400 294.192,344.320 294.384,342.900 295.570 C 342.075 296.260,341.252 296.986,341.072 297.184 C 340.891 297.382,340.024 298.264,339.144 299.144 C 338.264 300.024,337.364 300.924,337.144 301.144 C 336.924 301.364,336.024 302.264,335.144 303.144 C 334.264 304.024,333.364 304.924,333.144 305.144 C 332.924 305.364,332.024 306.264,331.144 307.144 C 330.264 308.024,329.364 308.924,329.144 309.144 C 328.924 309.364,328.060 310.231,327.225 311.072 C 326.389 311.912,325.412 312.832,325.053 313.116 C 324.584 313.486,324.400 314.282,324.400 315.941 C 324.400 319.172,323.159 320.400,319.894 320.400 C 318.279 320.400,317.484 320.587,317.116 321.053 C 316.832 321.412,315.912 322.389,315.072 323.225 C 314.231 324.060,313.364 324.924,313.144 325.144 C 312.924 325.364,312.024 326.264,311.144 327.144 C 310.264 328.024,309.364 328.924,309.144 329.144 C 308.924 329.364,308.024 330.264,307.144 331.144 C 306.264 332.024,305.389 332.891,305.200 333.072 C 305.011 333.252,303.342 334.975,301.491 336.900 L 298.125 340.400 295.925 340.400 C 293.777 340.400,293.686 340.447,292.039 342.400 C 290.373 344.375,290.324 344.400,288.039 344.400 C 285.754 344.400,285.704 344.425,284.039 346.400 C 282.373 348.375,282.324 348.400,280.039 348.400 C 277.754 348.400,277.704 348.425,276.039 350.400 C 274.373 352.375,274.324 352.400,272.039 352.400 C 269.754 352.400,269.704 352.425,268.039 354.400 C 266.373 356.375,266.324 356.400,264.039 356.400 C 261.754 356.400,261.704 356.425,260.039 358.400 L 258.352 360.400 253.992 360.400 C 250.985 360.400,249.507 360.555,249.230 360.900 C 249.009 361.175,248.263 362.075,247.572 362.900 L 246.317 364.400 237.974 364.400 C 231.781 364.400,229.528 364.529,229.230 364.900 C 229.009 365.175,228.263 366.075,227.572 366.900 L 226.317 368.400 202.259 368.387 C 183.958 368.378,178.056 368.258,177.600 367.887 C 177.270 367.619,176.496 366.725,175.880 365.900 L 174.759 364.400 166.480 364.387 C 157.486 364.373,157.778 364.442,155.880 361.900 L 154.759 360.400 150.480 360.387 C 145.841 360.373,145.682 360.314,143.880 357.900 C 142.817 356.477,142.642 356.399,140.480 356.387 C 137.990 356.373,137.549 356.135,135.880 353.900 C 134.817 352.477,134.642 352.399,132.480 352.387 C 129.990 352.373,129.549 352.135,127.880 349.900 C 126.817 348.477,126.642 348.399,124.480 348.387 C 121.990 348.373,121.549 348.135,119.880 345.900 C 118.817 344.477,118.642 344.399,116.480 344.387 C 113.990 344.373,113.549 344.135,111.880 341.900 C 110.817 340.477,110.642 340.399,108.480 340.387 C 106.014 340.374,105.450 340.082,104.066 338.111 C 103.569 337.402,102.672 336.534,102.075 336.180 C 101.477 335.827,100.594 334.937,100.112 334.203 C 99.630 333.468,98.730 332.568,98.112 332.203 C 97.494 331.837,96.594 330.937,96.112 330.203 C 95.630 329.468,94.730 328.568,94.112 328.203 C 93.494 327.837,92.594 326.937,92.112 326.203 C 91.630 325.468,90.733 324.565,90.118 324.196 C 89.503 323.827,88.507 322.822,87.904 321.962 C 86.841 320.448,86.736 320.400,84.458 320.400 C 81.135 320.400,80.000 319.265,80.000 315.942 C 80.000 313.664,79.952 313.559,78.438 312.496 C 77.578 311.893,76.573 310.897,76.204 310.282 C 75.835 309.667,74.932 308.770,74.197 308.288 C 73.463 307.806,72.563 306.906,72.197 306.288 C 71.832 305.670,70.932 304.770,70.197 304.288 C 69.463 303.806,68.563 302.906,68.197 302.288 C 67.832 301.670,66.932 300.770,66.197 300.288 C 65.463 299.806,64.573 298.923,64.220 298.325 C 63.866 297.728,62.998 296.831,62.289 296.334 C 60.318 294.950,60.026 294.386,60.013 291.920 C 60.001 289.758,59.923 289.583,58.500 288.520 C 56.265 286.851,56.027 286.410,56.013 283.920 C 56.001 281.758,55.923 281.583,54.500 280.520 C 52.265 278.851,52.027 278.410,52.013 275.920 C 52.001 273.758,51.923 273.583,50.500 272.520 C 48.265 270.851,48.027 270.410,48.013 267.920 C 48.001 265.758,47.923 265.583,46.500 264.520 C 44.265 262.851,44.027 262.410,44.013 259.920 C 44.001 257.758,43.923 257.583,42.500 256.520 C 40.086 254.718,40.027 254.559,40.013 249.920 L 40.000 245.641 38.500 244.520 C 35.929 242.600,36.027 243.094,36.013 231.920 L 36.000 221.641 34.500 220.520 C 33.675 219.904,32.781 219.130,32.513 218.800 C 32.144 218.347,32.022 213.278,32.013 198.050 L 32.000 177.900 34.000 176.086 L 36.000 174.271 36.000 166.086 L 36.000 157.900 38.000 156.086 L 40.000 154.271 40.000 148.086 L 40.000 141.900 42.000 140.086 C 43.935 138.331,44.000 138.200,44.000 136.086 C 44.000 133.971,44.065 133.841,46.000 132.086 C 47.935 130.331,48.000 130.200,48.000 128.086 C 48.000 125.971,48.065 125.841,50.000 124.086 C 51.935 122.331,52.000 122.200,52.000 120.086 C 52.000 117.971,52.065 117.841,54.000 116.086 C 55.924 114.340,56.000 114.190,56.000 112.133 L 56.000 109.994 60.000 106.077 L 64.000 102.160 64.000 100.098 L 64.000 98.036 72.000 90.079 L 80.000 82.122 80.000 80.043 C 80.000 77.139,81.139 76.000,84.043 76.000 L 86.122 76.000 94.079 68.000 L 102.036 60.000 104.098 60.000 L 106.160 60.000 110.077 56.000 L 113.994 52.000 116.133 52.000 C 118.190 52.000,118.340 51.924,120.086 50.000 C 121.841 48.065,121.971 48.000,124.086 48.000 C 126.200 48.000,126.331 47.935,128.086 46.000 C 129.841 44.065,129.971 44.000,132.086 44.000 C 134.200 44.000,134.331 43.935,136.086 42.000 C 137.841 40.065,137.971 40.000,140.086 40.000 C 142.200 40.000,142.331 39.935,144.086 38.000 L 145.900 36.000 152.086 36.000 L 158.271 36.000 160.086 34.000 L 161.900 32.000 170.086 32.000 L 178.271 32.000 180.086 30.000 L 181.900 28.000 204.050 28.013 C 220.851 28.022,226.345 28.143,226.800 28.513 " stroke="none" fill="#04a4ec" fill-rule="evenodd"></path><path id="path2" d="M180.086 30.000 L 178.271 32.000 170.086 32.000 L 161.900 32.000 160.086 34.000 L 158.271 36.000 152.086 36.000 L 145.900 36.000 144.086 38.000 C 142.331 39.935,142.200 40.000,140.086 40.000 C 137.971 40.000,137.841 40.065,136.086 42.000 C 134.331 43.935,134.200 44.000,132.086 44.000 C 129.971 44.000,129.841 44.065,128.086 46.000 C 126.331 47.935,126.200 48.000,124.086 48.000 C 121.971 48.000,121.841 48.065,120.086 50.000 C 118.340 51.924,118.190 52.000,116.133 52.000 L 113.994 52.000 110.077 56.000 L 106.160 60.000 104.098 60.000 L 102.036 60.000 94.079 68.000 L 86.122 76.000 84.043 76.000 C 81.139 76.000,80.000 77.139,80.000 80.043 L 80.000 82.122 72.000 90.079 L 64.000 98.036 64.000 100.098 L 64.000 102.160 60.000 106.077 L 56.000 109.994 56.000 112.133 C 56.000 114.190,55.924 114.340,54.000 116.086 C 52.065 117.841,52.000 117.971,52.000 120.086 C 52.000 122.200,51.935 122.331,50.000 124.086 C 48.065 125.841,48.000 125.971,48.000 128.086 C 48.000 130.200,47.935 130.331,46.000 132.086 C 44.065 133.841,44.000 133.971,44.000 136.086 C 44.000 138.200,43.935 138.331,42.000 140.086 L 40.000 141.900 40.000 148.086 L 40.000 154.271 38.000 156.086 L 36.000 157.900 36.000 166.086 L 36.000 174.271 34.000 176.086 L 32.000 177.900 32.013 198.050 C 32.022 213.278,32.144 218.347,32.513 218.800 C 32.781 219.130,33.675 219.904,34.500 220.520 L 36.000 221.641 36.013 231.920 C 36.027 243.094,35.929 242.600,38.500 244.520 L 40.000 245.641 40.013 249.920 C 40.027 254.559,40.086 254.718,42.500 256.520 C 43.923 257.583,44.001 257.758,44.013 259.920 C 44.027 262.410,44.265 262.851,46.500 264.520 C 47.923 265.583,48.001 265.758,48.013 267.920 C 48.027 270.410,48.265 270.851,50.500 272.520 C 51.923 273.583,52.001 273.758,52.013 275.920 C 52.027 278.410,52.265 278.851,54.500 280.520 C 55.923 281.583,56.001 281.758,56.013 283.920 C 56.027 286.410,56.265 286.851,58.500 288.520 C 59.923 289.583,60.001 289.758,60.013 291.920 C 60.026 294.386,60.318 294.950,62.289 296.334 C 62.998 296.831,63.866 297.728,64.220 298.325 C 64.573 298.923,65.463 299.806,66.197 300.288 C 66.932 300.770,67.832 301.670,68.197 302.288 C 68.563 302.906,69.463 303.806,70.197 304.288 C 70.932 304.770,71.832 305.670,72.197 306.288 C 72.563 306.906,73.463 307.806,74.197 308.288 C 74.932 308.770,75.835 309.667,76.204 310.282 C 76.573 310.897,77.578 311.893,78.438 312.496 C 79.952 313.559,80.000 313.664,80.000 315.942 C 80.000 319.265,81.135 320.400,84.458 320.400 C 86.736 320.400,86.841 320.448,87.904 321.962 C 88.507 322.822,89.503 323.827,90.118 324.196 C 90.733 324.565,91.630 325.468,92.112 326.203 C 92.594 326.937,93.494 327.837,94.112 328.203 C 94.730 328.568,95.630 329.468,96.112 330.203 C 96.594 330.937,97.494 331.837,98.112 332.203 C 98.730 332.568,99.630 333.468,100.112 334.203 C 100.594 334.937,101.477 335.827,102.075 336.180 C 102.672 336.534,103.569 337.402,104.066 338.111 C 105.450 340.082,106.014 340.374,108.480 340.387 C 110.642 340.399,110.817 340.477,111.880 341.900 C 113.549 344.135,113.990 344.373,116.480 344.387 C 118.642 344.399,118.817 344.477,119.880 345.900 C 121.549 348.135,121.990 348.373,124.480 348.387 C 126.642 348.399,126.817 348.477,127.880 349.900 C 129.549 352.135,129.990 352.373,132.480 352.387 C 134.642 352.399,134.817 352.477,135.880 353.900 C 137.549 356.135,137.990 356.373,140.480 356.387 C 142.642 356.399,142.817 356.477,143.880 357.900 C 145.682 360.314,145.841 360.373,150.480 360.387 L 154.759 360.400 155.880 361.900 C 157.778 364.442,157.486 364.373,166.480 364.387 L 174.759 364.400 175.880 365.900 C 176.496 366.725,177.270 367.619,177.600 367.887 C 178.056 368.258,183.958 368.378,202.259 368.387 L 226.317 368.400 227.572 366.900 C 228.263 366.075,229.009 365.175,229.230 364.900 C 229.528 364.529,231.781 364.400,237.974 364.400 L 246.317 364.400 247.572 362.900 C 248.263 362.075,249.009 361.175,249.230 360.900 C 249.507 360.555,250.985 360.400,253.992 360.400 L 258.352 360.400 260.039 358.400 C 261.704 356.425,261.754 356.400,264.039 356.400 C 266.324 356.400,266.373 356.375,268.039 354.400 C 269.704 352.425,269.754 352.400,272.039 352.400 C 274.324 352.400,274.373 352.375,276.039 350.400 C 277.704 348.425,277.754 348.400,280.039 348.400 C 282.324 348.400,282.373 348.375,284.039 346.400 C 285.704 344.425,285.754 344.400,288.039 344.400 C 290.324 344.400,290.373 344.375,292.039 342.400 C 293.686 340.447,293.777 340.400,295.925 340.400 L 298.125 340.400 301.491 336.900 C 303.342 334.975,305.011 333.252,305.200 333.072 C 305.389 332.891,306.264 332.024,307.144 331.144 C 308.024 330.264,308.924 329.364,309.144 329.144 C 309.364 328.924,310.264 328.024,311.144 327.144 C 312.024 326.264,312.924 325.364,313.144 325.144 C 313.364 324.924,314.231 324.060,315.072 323.225 C 315.912 322.389,316.832 321.412,317.116 321.053 C 317.484 320.587,318.279 320.400,319.894 320.400 C 323.159 320.400,324.400 319.172,324.400 315.941 C 324.400 314.282,324.584 313.486,325.053 313.116 C 325.412 312.832,326.389 311.912,327.225 311.072 C 328.060 310.231,328.924 309.364,329.144 309.144 C 329.364 308.924,330.264 308.024,331.144 307.144 C 332.024 306.264,332.924 305.364,333.144 305.144 C 333.364 304.924,334.264 304.024,335.144 303.144 C 336.024 302.264,336.924 301.364,337.144 301.144 C 337.364 300.924,338.264 300.024,339.144 299.144 C 340.024 298.264,340.891 297.382,341.072 297.184 C 341.252 296.986,342.075 296.260,342.900 295.570 C 344.320 294.384,344.400 294.192,344.400 291.974 C 344.400 290.581,344.603 289.469,344.900 289.230 C 348.454 286.373,348.400 286.454,348.400 283.974 C 348.400 282.581,348.603 281.469,348.900 281.230 C 352.454 278.373,352.400 278.454,352.400 275.974 C 352.400 274.581,352.603 273.469,352.900 273.230 C 356.454 270.373,356.400 270.454,356.400 267.974 C 356.400 266.581,356.603 265.469,356.900 265.230 C 360.454 262.373,360.400 262.454,360.400 259.974 C 360.400 258.581,360.603 257.469,360.900 257.230 C 361.175 257.009,362.075 256.263,362.900 255.572 L 364.400 254.317 364.400 249.974 C 364.400 246.981,364.555 245.507,364.900 245.230 C 365.175 245.009,366.075 244.263,366.900 243.572 L 368.400 242.317 368.400 233.974 C 368.400 227.781,368.529 225.528,368.900 225.230 C 369.175 225.009,370.075 224.263,370.900 223.572 L 372.400 222.317 372.387 198.259 C 372.378 179.958,372.258 174.056,371.887 173.600 C 371.619 173.270,370.725 172.496,369.900 171.880 L 368.400 170.759 368.387 162.480 C 368.373 153.486,368.442 153.778,365.900 151.880 L 364.400 150.759 364.387 146.480 C 364.373 141.841,364.314 141.682,361.900 139.880 C 360.477 138.817,360.399 138.642,360.387 136.480 C 360.373 133.990,360.135 133.549,357.900 131.880 C 356.477 130.817,356.399 130.642,356.387 128.480 C 356.373 125.990,356.135 125.549,353.900 123.880 C 352.477 122.817,352.399 122.642,352.387 120.480 C 352.373 117.990,352.135 117.549,349.900 115.880 C 348.477 114.817,348.399 114.642,348.387 112.480 C 348.373 109.990,348.135 109.549,345.900 107.880 C 344.477 106.817,344.399 106.642,344.387 104.480 C 344.374 102.014,344.082 101.450,342.111 100.066 C 341.402 99.569,340.523 98.655,340.157 98.035 C 339.791 97.415,338.968 96.599,338.328 96.221 C 337.687 95.843,336.781 94.949,336.313 94.236 C 335.845 93.522,334.878 92.555,334.164 92.087 C 333.451 91.619,332.568 90.730,332.203 90.112 C 331.837 89.494,330.937 88.594,330.203 88.112 C 329.468 87.630,328.565 86.733,328.196 86.118 C 327.827 85.503,326.822 84.507,325.962 83.904 C 324.448 82.841,324.400 82.736,324.400 80.458 C 324.400 77.135,323.265 76.000,319.942 76.000 C 317.664 76.000,317.559 75.952,316.496 74.438 C 315.893 73.578,314.897 72.573,314.282 72.204 C 313.667 71.835,312.770 70.932,312.288 70.197 C 311.806 69.463,310.906 68.563,310.288 68.197 C 309.670 67.832,308.770 66.932,308.288 66.197 C 307.806 65.463,306.908 64.564,306.291 64.199 C 305.674 63.835,304.706 62.837,304.140 61.981 C 303.574 61.126,302.794 60.325,302.407 60.202 C 302.020 60.079,301.275 59.408,300.752 58.710 C 298.854 56.179,298.544 56.000,296.060 56.000 C 293.894 56.000,293.648 55.905,292.760 54.720 C 290.853 52.178,290.546 52.000,288.060 52.000 C 285.894 52.000,285.648 51.905,284.760 50.720 C 282.853 48.178,282.546 48.000,280.060 48.000 C 277.894 48.000,277.648 47.905,276.760 46.720 C 274.853 44.178,274.546 44.000,272.060 44.000 C 269.894 44.000,269.648 43.905,268.760 42.720 C 266.853 40.178,266.546 40.000,264.060 40.000 C 261.894 40.000,261.648 39.905,260.760 38.720 C 258.695 35.966,258.778 36.000,254.020 36.000 L 249.641 36.000 248.520 34.500 C 246.622 31.958,246.914 32.027,237.920 32.013 L 229.641 32.000 228.520 30.500 C 227.904 29.675,227.130 28.781,226.800 28.513 C 226.345 28.143,220.851 28.022,204.050 28.013 L 181.900 28.000 180.086 30.000 M227.025 30.746 C 227.950 33.057,228.590 33.200,238.022 33.200 L 246.406 33.200 247.025 34.746 C 247.862 36.838,248.885 37.200,253.970 37.200 C 258.563 37.200,258.880 37.320,259.335 39.231 C 259.658 40.586,261.104 41.200,263.970 41.200 C 266.436 41.200,266.921 41.493,267.335 43.231 C 267.658 44.586,269.104 45.200,271.970 45.200 C 274.436 45.200,274.921 45.493,275.335 47.231 C 275.658 48.586,277.104 49.200,279.970 49.200 C 282.436 49.200,282.921 49.493,283.335 51.231 C 283.658 52.586,285.104 53.200,287.970 53.200 C 290.436 53.200,290.921 53.493,291.335 55.231 C 291.658 56.586,293.104 57.200,295.970 57.200 C 298.435 57.200,298.921 57.493,299.334 59.227 C 299.503 59.935,300.103 60.493,301.271 61.027 C 302.566 61.619,303.039 62.099,303.287 63.076 C 303.534 64.051,303.950 64.475,305.047 64.871 C 306.117 65.258,306.635 65.771,307.080 66.883 C 307.521 67.985,308.045 68.509,309.080 68.883 C 310.115 69.258,310.639 69.782,311.080 70.883 C 311.521 71.985,312.045 72.509,313.080 72.883 C 314.110 73.256,314.640 73.783,315.072 74.864 C 315.793 76.665,316.248 76.887,319.800 77.174 L 322.600 77.400 322.826 80.200 C 323.113 83.752,323.335 84.207,325.136 84.928 C 326.217 85.360,326.744 85.890,327.117 86.920 C 327.491 87.955,328.015 88.479,329.117 88.920 C 330.218 89.361,330.742 89.885,331.117 90.920 C 331.491 91.955,332.015 92.479,333.117 92.920 C 334.218 93.361,334.742 93.885,335.117 94.920 C 335.491 95.955,336.015 96.479,337.117 96.920 C 338.218 97.361,338.742 97.885,339.117 98.920 C 339.499 99.979,340.013 100.478,341.212 100.958 L 342.800 101.594 342.800 103.978 C 342.800 107.086,343.354 108.215,345.254 108.975 L 346.800 109.594 346.800 111.978 C 346.800 115.086,347.354 116.215,349.254 116.975 L 350.800 117.594 350.800 119.978 C 350.800 123.086,351.354 124.215,353.254 124.975 L 354.800 125.594 354.800 127.978 C 354.800 131.086,355.354 132.215,357.254 132.975 L 358.800 133.594 358.800 135.978 C 358.800 139.086,359.354 140.215,361.254 140.975 L 362.800 141.594 362.800 145.978 C 362.800 151.118,363.157 152.136,365.254 152.975 L 366.800 153.594 366.800 161.978 C 366.800 171.410,366.943 172.050,369.254 172.975 L 370.800 173.594 370.800 198.007 L 370.800 222.420 369.785 222.806 C 366.948 223.884,366.800 224.432,366.800 233.868 L 366.800 242.420 365.785 242.806 C 363.282 243.757,362.800 244.899,362.800 249.868 C 362.800 254.373,362.790 254.424,361.785 254.806 C 359.668 255.611,358.800 257.082,358.800 259.868 C 358.800 262.232,358.725 262.448,357.785 262.806 C 355.668 263.611,354.800 265.082,354.800 267.868 C 354.800 270.232,354.725 270.448,353.785 270.806 C 351.668 271.611,350.800 273.082,350.800 275.868 C 350.800 278.232,350.725 278.448,349.785 278.806 C 347.668 279.611,346.800 281.082,346.800 283.868 C 346.800 286.232,346.725 286.448,345.785 286.806 C 343.681 287.606,342.800 289.086,342.800 291.819 C 342.800 294.295,342.784 294.330,341.337 295.081 C 340.532 295.499,339.557 296.431,339.169 297.153 C 338.782 297.875,337.880 298.780,337.164 299.164 C 336.448 299.548,335.548 300.448,335.164 301.164 C 334.780 301.880,333.880 302.780,333.164 303.164 C 332.448 303.548,331.548 304.448,331.164 305.164 C 330.780 305.880,329.875 306.782,329.153 307.169 C 328.431 307.557,327.499 308.532,327.081 309.337 C 326.663 310.141,326.083 310.800,325.792 310.800 C 324.261 310.800,322.839 313.167,322.718 315.913 L 322.600 318.600 319.913 318.718 C 317.167 318.839,314.800 320.261,314.800 321.792 C 314.800 322.083,314.141 322.663,313.337 323.081 C 312.532 323.499,311.557 324.431,311.169 325.153 C 310.782 325.875,309.880 326.780,309.164 327.164 C 308.448 327.548,307.548 328.448,307.164 329.164 C 306.780 329.880,305.866 330.783,305.133 331.171 C 304.314 331.604,303.660 332.336,303.437 333.069 C 303.184 333.899,302.576 334.502,301.440 335.049 C 300.340 335.579,299.677 336.222,299.408 337.018 C 298.863 338.638,298.556 338.787,295.758 338.794 C 293.093 338.801,291.200 339.940,291.200 341.538 C 291.200 342.539,290.462 342.800,287.626 342.800 C 285.098 342.800,283.200 343.974,283.200 345.538 C 283.200 346.539,282.462 346.800,279.626 346.800 C 277.098 346.800,275.200 347.974,275.200 349.538 C 275.200 350.539,274.462 350.800,271.626 350.800 C 269.098 350.800,267.200 351.974,267.200 353.538 C 267.200 354.539,266.462 354.800,263.626 354.800 C 261.098 354.800,259.200 355.974,259.200 357.538 C 259.200 358.639,258.488 358.800,253.626 358.800 C 248.924 358.800,247.744 359.316,246.806 361.785 L 246.420 362.800 237.868 362.800 C 228.432 362.800,227.884 362.948,226.806 365.785 L 226.420 366.800 202.007 366.800 L 177.594 366.800 176.975 365.254 C 176.050 362.943,175.410 362.800,165.978 362.800 L 157.594 362.800 156.975 361.254 C 156.136 359.157,155.118 358.800,149.978 358.800 L 145.594 358.800 144.975 357.254 C 144.215 355.354,143.086 354.800,139.978 354.800 L 137.594 354.800 136.975 353.254 C 136.215 351.354,135.086 350.800,131.978 350.800 L 129.594 350.800 128.975 349.254 C 128.215 347.354,127.086 346.800,123.978 346.800 L 121.594 346.800 120.975 345.254 C 120.215 343.354,119.086 342.800,115.978 342.800 L 113.594 342.800 112.975 341.254 C 112.215 339.354,111.086 338.800,107.978 338.800 L 105.594 338.800 104.958 337.212 C 104.478 336.013,103.979 335.499,102.920 335.117 C 101.885 334.742,101.361 334.218,100.920 333.117 C 100.479 332.015,99.955 331.491,98.920 331.117 C 97.885 330.742,97.361 330.218,96.920 329.117 C 96.479 328.015,95.955 327.491,94.920 327.117 C 93.885 326.742,93.361 326.218,92.920 325.117 C 92.479 324.015,91.955 323.491,90.920 323.117 C 89.890 322.744,89.360 322.217,88.928 321.136 C 88.207 319.335,87.752 319.113,84.200 318.826 L 81.400 318.600 81.174 315.800 C 80.887 312.248,80.665 311.793,78.864 311.072 C 77.783 310.640,77.256 310.110,76.883 309.080 C 76.509 308.045,75.985 307.521,74.883 307.080 C 73.782 306.639,73.258 306.115,72.883 305.080 C 72.509 304.045,71.985 303.521,70.883 303.080 C 69.782 302.639,69.258 302.115,68.883 301.080 C 68.509 300.045,67.985 299.521,66.883 299.080 C 65.782 298.639,65.258 298.115,64.883 297.080 C 64.501 296.021,63.987 295.522,62.788 295.042 L 61.200 294.406 61.200 292.022 C 61.200 288.914,60.646 287.785,58.746 287.025 L 57.200 286.406 57.200 284.022 C 57.200 280.914,56.646 279.785,54.746 279.025 L 53.200 278.406 53.200 276.022 C 53.200 272.914,52.646 271.785,50.746 271.025 L 49.200 270.406 49.200 268.022 C 49.200 264.914,48.646 263.785,46.746 263.025 L 45.200 262.406 45.200 260.022 C 45.200 256.914,44.646 255.785,42.746 255.025 L 41.200 254.406 41.200 250.022 C 41.200 244.882,40.843 243.864,38.746 243.025 L 37.200 242.406 37.200 232.022 C 37.200 220.429,37.114 219.972,34.742 219.023 L 33.193 218.404 33.296 198.102 L 33.400 177.800 34.758 177.122 C 37.024 175.991,36.987 176.149,37.200 166.681 L 37.400 157.800 38.758 157.122 C 40.984 156.011,40.987 155.999,41.200 148.681 L 41.400 141.800 42.758 141.122 C 44.792 140.107,44.929 139.856,45.174 136.706 C 45.393 133.887,45.441 133.780,46.758 133.122 C 48.792 132.107,48.929 131.856,49.174 128.706 C 49.393 125.887,49.441 125.780,50.758 125.122 C 52.792 124.107,52.929 123.856,53.174 120.706 C 53.393 117.887,53.441 117.780,54.758 117.122 C 56.791 116.107,56.929 115.856,57.174 112.708 C 57.398 109.825,57.411 109.798,58.937 109.002 C 59.896 108.502,60.681 107.705,61.024 106.885 C 61.384 106.025,62.053 105.370,62.960 104.991 C 64.768 104.235,64.922 103.933,65.181 100.609 C 65.397 97.839,65.419 97.794,66.937 97.002 C 67.896 96.502,68.681 95.705,69.024 94.885 C 69.387 94.018,70.054 93.370,70.983 92.981 C 71.947 92.579,72.579 91.946,72.982 90.982 C 73.385 90.017,74.017 89.385,74.982 88.982 C 75.947 88.579,76.579 87.947,76.982 86.982 C 77.387 86.011,78.017 85.385,79.000 84.974 C 80.683 84.271,81.200 83.161,81.200 80.254 C 81.200 77.635,81.635 77.200,84.254 77.200 C 87.161 77.200,88.271 76.683,88.974 75.000 C 89.385 74.017,90.011 73.387,90.982 72.982 C 91.947 72.579,92.579 71.947,92.982 70.982 C 93.385 70.017,94.017 69.385,94.982 68.982 C 95.946 68.579,96.579 67.947,96.981 66.983 C 97.370 66.054,98.018 65.387,98.885 65.024 C 99.705 64.681,100.502 63.896,101.002 62.937 C 101.794 61.419,101.839 61.397,104.609 61.181 C 107.933 60.922,108.235 60.768,108.991 58.960 C 109.370 58.053,110.025 57.384,110.885 57.024 C 111.705 56.681,112.502 55.896,113.002 54.937 C 113.798 53.411,113.825 53.398,116.708 53.174 C 119.856 52.929,120.107 52.791,121.122 50.758 C 121.780 49.441,121.887 49.393,124.706 49.174 C 127.856 48.929,128.107 48.792,129.122 46.758 C 129.780 45.441,129.887 45.393,132.706 45.174 C 135.856 44.929,136.107 44.792,137.122 42.758 C 137.780 41.441,137.887 41.393,140.706 41.174 C 143.856 40.929,144.107 40.792,145.122 38.758 L 145.800 37.400 152.681 37.200 C 159.999 36.987,160.011 36.984,161.122 34.758 L 161.800 33.400 170.640 33.200 C 179.528 32.999,180.800 32.779,180.800 31.440 C 180.800 31.186,181.080 30.578,181.423 30.089 L 182.045 29.200 204.226 29.200 L 226.406 29.200 227.025 30.746 " stroke="none" fill="#a0c0ec" fill-rule="evenodd"></path><path id="path3" d="M180.086 30.000 L 178.271 32.000 170.086 32.000 L 161.900 32.000 160.086 34.000 L 158.271 36.000 152.086 36.000 L 145.900 36.000 144.086 38.000 C 142.331 39.935,142.200 40.000,140.086 40.000 C 137.971 40.000,137.841 40.065,136.086 42.000 C 134.331 43.935,134.200 44.000,132.086 44.000 C 129.971 44.000,129.841 44.065,128.086 46.000 C 126.331 47.935,126.200 48.000,124.086 48.000 C 121.971 48.000,121.841 48.065,120.086 50.000 C 118.340 51.924,118.190 52.000,116.133 52.000 L 113.994 52.000 110.077 56.000 L 106.160 60.000 104.098 60.000 L 102.036 60.000 94.079 68.000 L 86.122 76.000 84.043 76.000 C 81.139 76.000,80.000 77.139,80.000 80.043 L 80.000 82.122 72.000 90.079 L 64.000 98.036 64.000 100.098 L 64.000 102.160 60.000 106.077 L 56.000 109.994 56.000 112.133 C 56.000 114.190,55.924 114.340,54.000 116.086 C 52.065 117.841,52.000 117.971,52.000 120.086 C 52.000 122.200,51.935 122.331,50.000 124.086 C 48.065 125.841,48.000 125.971,48.000 128.086 C 48.000 130.200,47.935 130.331,46.000 132.086 C 44.065 133.841,44.000 133.971,44.000 136.086 C 44.000 138.200,43.935 138.331,42.000 140.086 L 40.000 141.900 40.000 148.086 L 40.000 154.271 38.000 156.086 L 36.000 157.900 36.000 166.086 L 36.000 174.271 34.000 176.086 L 32.000 177.900 32.013 198.050 C 32.022 213.278,32.144 218.347,32.513 218.800 C 32.781 219.130,33.675 219.904,34.500 220.520 L 36.000 221.641 36.013 231.920 C 36.027 243.094,35.929 242.600,38.500 244.520 L 40.000 245.641 40.013 249.920 C 40.027 254.559,40.086 254.718,42.500 256.520 C 43.923 257.583,44.001 257.758,44.013 259.920 C 44.027 262.410,44.265 262.851,46.500 264.520 C 47.923 265.583,48.001 265.758,48.013 267.920 C 48.027 270.410,48.265 270.851,50.500 272.520 C 51.923 273.583,52.001 273.758,52.013 275.920 C 52.027 278.410,52.265 278.851,54.500 280.520 C 55.923 281.583,56.001 281.758,56.013 283.920 C 56.027 286.410,56.265 286.851,58.500 288.520 C 59.923 289.583,60.001 289.758,60.013 291.920 C 60.026 294.386,60.318 294.950,62.289 296.334 C 62.998 296.831,63.866 297.728,64.220 298.325 C 64.573 298.923,65.463 299.806,66.197 300.288 C 66.932 300.770,67.832 301.670,68.197 302.288 C 68.563 302.906,69.463 303.806,70.197 304.288 C 70.932 304.770,71.832 305.670,72.197 306.288 C 72.563 306.906,73.463 307.806,74.197 308.288 C 74.932 308.770,75.835 309.667,76.204 310.282 C 76.573 310.897,77.578 311.893,78.438 312.496 C 79.952 313.559,80.000 313.664,80.000 315.942 C 80.000 319.265,81.135 320.400,84.458 320.400 C 86.736 320.400,86.841 320.448,87.904 321.962 C 88.507 322.822,89.503 323.827,90.118 324.196 C 90.733 324.565,91.630 325.468,92.112 326.203 C 92.594 326.937,93.494 327.837,94.112 328.203 C 94.730 328.568,95.630 329.468,96.112 330.203 C 96.594 330.937,97.494 331.837,98.112 332.203 C 98.730 332.568,99.630 333.468,100.112 334.203 C 100.594 334.937,101.477 335.827,102.075 336.180 C 102.672 336.534,103.569 337.402,104.066 338.111 C 105.450 340.082,106.014 340.374,108.480 340.387 C 110.642 340.399,110.817 340.477,111.880 341.900 C 113.549 344.135,113.990 344.373,116.480 344.387 C 118.642 344.399,118.817 344.477,119.880 345.900 C 121.549 348.135,121.990 348.373,124.480 348.387 C 126.642 348.399,126.817 348.477,127.880 349.900 C 129.549 352.135,129.990 352.373,132.480 352.387 C 134.642 352.399,134.817 352.477,135.880 353.900 C 137.549 356.135,137.990 356.373,140.480 356.387 C 142.642 356.399,142.817 356.477,143.880 357.900 C 145.682 360.314,145.841 360.373,150.480 360.387 L 154.759 360.400 155.880 361.900 C 157.778 364.442,157.486 364.373,166.480 364.387 L 174.759 364.400 175.880 365.900 C 176.496 366.725,177.270 367.619,177.600 367.887 C 178.056 368.258,183.958 368.378,202.259 368.387 L 226.317 368.400 227.572 366.900 C 228.263 366.075,229.009 365.175,229.230 364.900 C 229.528 364.529,231.781 364.400,237.974 364.400 L 246.317 364.400 247.572 362.900 C 248.263 362.075,249.009 361.175,249.230 360.900 C 249.507 360.555,250.985 360.400,253.992 360.400 L 258.352 360.400 260.039 358.400 C 261.704 356.425,261.754 356.400,264.039 356.400 C 266.324 356.400,266.373 356.375,268.039 354.400 C 269.704 352.425,269.754 352.400,272.039 352.400 C 274.324 352.400,274.373 352.375,276.039 350.400 C 277.704 348.425,277.754 348.400,280.039 348.400 C 282.324 348.400,282.373 348.375,284.039 346.400 C 285.704 344.425,285.754 344.400,288.039 344.400 C 290.324 344.400,290.373 344.375,292.039 342.400 C 293.686 340.447,293.777 340.400,295.925 340.400 L 298.125 340.400 301.491 336.900 C 303.342 334.975,305.011 333.252,305.200 333.072 C 305.389 332.891,306.264 332.024,307.144 331.144 C 308.024 330.264,308.924 329.364,309.144 329.144 C 309.364 328.924,310.264 328.024,311.144 327.144 C 312.024 326.264,312.924 325.364,313.144 325.144 C 313.364 324.924,314.231 324.060,315.072 323.225 C 315.912 322.389,316.832 321.412,317.116 321.053 C 317.484 320.587,318.279 320.400,319.894 320.400 C 323.159 320.400,324.400 319.172,324.400 315.941 C 324.400 314.282,324.584 313.486,325.053 313.116 C 325.412 312.832,326.389 311.912,327.225 311.072 C 328.060 310.231,328.924 309.364,329.144 309.144 C 329.364 308.924,330.264 308.024,331.144 307.144 C 332.024 306.264,332.924 305.364,333.144 305.144 C 333.364 304.924,334.264 304.024,335.144 303.144 C 336.024 302.264,336.924 301.364,337.144 301.144 C 337.364 300.924,338.264 300.024,339.144 299.144 C 340.024 298.264,340.891 297.382,341.072 297.184 C 341.252 296.986,342.075 296.260,342.900 295.570 C 344.320 294.384,344.400 294.192,344.400 291.974 C 344.400 290.581,344.603 289.469,344.900 289.230 C 348.454 286.373,348.400 286.454,348.400 283.974 C 348.400 282.581,348.603 281.469,348.900 281.230 C 352.454 278.373,352.400 278.454,352.400 275.974 C 352.400 274.581,352.603 273.469,352.900 273.230 C 356.454 270.373,356.400 270.454,356.400 267.974 C 356.400 266.581,356.603 265.469,356.900 265.230 C 360.454 262.373,360.400 262.454,360.400 259.974 C 360.400 258.581,360.603 257.469,360.900 257.230 C 361.175 257.009,362.075 256.263,362.900 255.572 L 364.400 254.317 364.400 249.974 C 364.400 246.981,364.555 245.507,364.900 245.230 C 365.175 245.009,366.075 244.263,366.900 243.572 L 368.400 242.317 368.400 233.974 C 368.400 227.781,368.529 225.528,368.900 225.230 C 369.175 225.009,370.075 224.263,370.900 223.572 L 372.400 222.317 372.387 198.259 C 372.378 179.958,372.258 174.056,371.887 173.600 C 371.619 173.270,370.725 172.496,369.900 171.880 L 368.400 170.759 368.387 162.480 C 368.373 153.486,368.442 153.778,365.900 151.880 L 364.400 150.759 364.387 146.480 C 364.373 141.841,364.314 141.682,361.900 139.880 C 360.477 138.817,360.399 138.642,360.387 136.480 C 360.373 133.990,360.135 133.549,357.900 131.880 C 356.477 130.817,356.399 130.642,356.387 128.480 C 356.373 125.990,356.135 125.549,353.900 123.880 C 352.477 122.817,352.399 122.642,352.387 120.480 C 352.373 117.990,352.135 117.549,349.900 115.880 C 348.477 114.817,348.399 114.642,348.387 112.480 C 348.373 109.990,348.135 109.549,345.900 107.880 C 344.477 106.817,344.399 106.642,344.387 104.480 C 344.374 102.014,344.082 101.450,342.111 100.066 C 341.402 99.569,340.523 98.655,340.157 98.035 C 339.791 97.415,338.968 96.599,338.328 96.221 C 337.687 95.843,336.781 94.949,336.313 94.236 C 335.845 93.522,334.878 92.555,334.164 92.087 C 333.451 91.619,332.568 90.730,332.203 90.112 C 331.837 89.494,330.937 88.594,330.203 88.112 C 329.468 87.630,328.565 86.733,328.196 86.118 C 327.827 85.503,326.822 84.507,325.962 83.904 C 324.448 82.841,324.400 82.736,324.400 80.458 C 324.400 77.135,323.265 76.000,319.942 76.000 C 317.664 76.000,317.559 75.952,316.496 74.438 C 315.893 73.578,314.897 72.573,314.282 72.204 C 313.667 71.835,312.770 70.932,312.288 70.197 C 311.806 69.463,310.906 68.563,310.288 68.197 C 309.670 67.832,308.770 66.932,308.288 66.197 C 307.806 65.463,306.908 64.564,306.291 64.199 C 305.674 63.835,304.706 62.837,304.140 61.981 C 303.574 61.126,302.794 60.325,302.407 60.202 C 302.020 60.079,301.275 59.408,300.752 58.710 C 298.854 56.179,298.544 56.000,296.060 56.000 C 293.894 56.000,293.648 55.905,292.760 54.720 C 290.853 52.178,290.546 52.000,288.060 52.000 C 285.894 52.000,285.648 51.905,284.760 50.720 C 282.853 48.178,282.546 48.000,280.060 48.000 C 277.894 48.000,277.648 47.905,276.760 46.720 C 274.853 44.178,274.546 44.000,272.060 44.000 C 269.894 44.000,269.648 43.905,268.760 42.720 C 266.853 40.178,266.546 40.000,264.060 40.000 C 261.894 40.000,261.648 39.905,260.760 38.720 C 258.695 35.966,258.778 36.000,254.020 36.000 L 249.641 36.000 248.520 34.500 C 246.622 31.958,246.914 32.027,237.920 32.013 L 229.641 32.000 228.520 30.500 C 227.904 29.675,227.130 28.781,226.800 28.513 C 226.345 28.143,220.851 28.022,204.050 28.013 L 181.900 28.000 180.086 30.000 M227.025 30.746 C 227.950 33.057,228.590 33.200,238.022 33.200 L 246.406 33.200 247.025 34.746 C 247.862 36.838,248.885 37.200,253.970 37.200 C 258.563 37.200,258.880 37.320,259.335 39.231 C 259.658 40.586,261.104 41.200,263.970 41.200 C 266.436 41.200,266.921 41.493,267.335 43.231 C 267.658 44.586,269.104 45.200,271.970 45.200 C 274.436 45.200,274.921 45.493,275.335 47.231 C 275.658 48.586,277.104 49.200,279.970 49.200 C 282.436 49.200,282.921 49.493,283.335 51.231 C 283.658 52.586,285.104 53.200,287.970 53.200 C 290.436 53.200,290.921 53.493,291.335 55.231 C 291.658 56.586,293.104 57.200,295.970 57.200 C 298.435 57.200,298.921 57.493,299.334 59.227 C 299.503 59.935,300.103 60.493,301.271 61.027 C 302.566 61.619,303.039 62.099,303.287 63.076 C 303.534 64.051,303.950 64.475,305.047 64.871 C 306.117 65.258,306.635 65.771,307.080 66.883 C 307.521 67.985,308.045 68.509,309.080 68.883 C 310.115 69.258,310.639 69.782,311.080 70.883 C 311.521 71.985,312.045 72.509,313.080 72.883 C 314.110 73.256,314.640 73.783,315.072 74.864 C 315.793 76.665,316.248 76.887,319.800 77.174 L 322.600 77.400 322.826 80.200 C 323.113 83.752,323.335 84.207,325.136 84.928 C 326.217 85.360,326.744 85.890,327.117 86.920 C 327.491 87.955,328.015 88.479,329.117 88.920 C 330.218 89.361,330.742 89.885,331.117 90.920 C 331.491 91.955,332.015 92.479,333.117 92.920 C 334.218 93.361,334.742 93.885,335.117 94.920 C 335.491 95.955,336.015 96.479,337.117 96.920 C 338.218 97.361,338.742 97.885,339.117 98.920 C 339.499 99.979,340.013 100.478,341.212 100.958 L 342.800 101.594 342.800 103.978 C 342.800 107.086,343.354 108.215,345.254 108.975 L 346.800 109.594 346.800 111.978 C 346.800 115.086,347.354 116.215,349.254 116.975 L 350.800 117.594 350.800 119.978 C 350.800 123.086,351.354 124.215,353.254 124.975 L 354.800 125.594 354.800 127.978 C 354.800 131.086,355.354 132.215,357.254 132.975 L 358.800 133.594 358.800 135.978 C 358.800 139.086,359.354 140.215,361.254 140.975 L 362.800 141.594 362.800 145.978 C 362.800 151.118,363.157 152.136,365.254 152.975 L 366.800 153.594 366.800 161.978 C 366.800 171.410,366.943 172.050,369.254 172.975 L 370.800 173.594 370.800 198.007 L 370.800 222.420 369.785 222.806 C 366.948 223.884,366.800 224.432,366.800 233.868 L 366.800 242.420 365.785 242.806 C 363.282 243.757,362.800 244.899,362.800 249.868 C 362.800 254.373,362.790 254.424,361.785 254.806 C 359.668 255.611,358.800 257.082,358.800 259.868 C 358.800 262.232,358.725 262.448,357.785 262.806 C 355.668 263.611,354.800 265.082,354.800 267.868 C 354.800 270.232,354.725 270.448,353.785 270.806 C 351.668 271.611,350.800 273.082,350.800 275.868 C 350.800 278.232,350.725 278.448,349.785 278.806 C 347.668 279.611,346.800 281.082,346.800 283.868 C 346.800 286.232,346.725 286.448,345.785 286.806 C 343.681 287.606,342.800 289.086,342.800 291.819 C 342.800 294.295,342.784 294.330,341.337 295.081 C 340.532 295.499,339.557 296.431,339.169 297.153 C 338.782 297.875,337.880 298.780,337.164 299.164 C 336.448 299.548,335.548 300.448,335.164 301.164 C 334.780 301.880,333.880 302.780,333.164 303.164 C 332.448 303.548,331.548 304.448,331.164 305.164 C 330.780 305.880,329.875 306.782,329.153 307.169 C 328.431 307.557,327.499 308.532,327.081 309.337 C 326.663 310.141,326.083 310.800,325.792 310.800 C 324.261 310.800,322.839 313.167,322.718 315.913 L 322.600 318.600 319.913 318.718 C 317.167 318.839,314.800 320.261,314.800 321.792 C 314.800 322.083,314.141 322.663,313.337 323.081 C 312.532 323.499,311.557 324.431,311.169 325.153 C 310.782 325.875,309.880 326.780,309.164 327.164 C 308.448 327.548,307.548 328.448,307.164 329.164 C 306.780 329.880,305.866 330.783,305.133 331.171 C 304.314 331.604,303.660 332.336,303.437 333.069 C 303.184 333.899,302.576 334.502,301.440 335.049 C 300.340 335.579,299.677 336.222,299.408 337.018 C 298.863 338.638,298.556 338.787,295.758 338.794 C 293.093 338.801,291.200 339.940,291.200 341.538 C 291.200 342.539,290.462 342.800,287.626 342.800 C 285.098 342.800,283.200 343.974,283.200 345.538 C 283.200 346.539,282.462 346.800,279.626 346.800 C 277.098 346.800,275.200 347.974,275.200 349.538 C 275.200 350.539,274.462 350.800,271.626 350.800 C 269.098 350.800,267.200 351.974,267.200 353.538 C 267.200 354.539,266.462 354.800,263.626 354.800 C 261.098 354.800,259.200 355.974,259.200 357.538 C 259.200 358.639,258.488 358.800,253.626 358.800 C 248.924 358.800,247.744 359.316,246.806 361.785 L 246.420 362.800 237.868 362.800 C 228.432 362.800,227.884 362.948,226.806 365.785 L 226.420 366.800 202.007 366.800 L 177.594 366.800 176.975 365.254 C 176.050 362.943,175.410 362.800,165.978 362.800 L 157.594 362.800 156.975 361.254 C 156.136 359.157,155.118 358.800,149.978 358.800 L 145.594 358.800 144.975 357.254 C 144.215 355.354,143.086 354.800,139.978 354.800 L 137.594 354.800 136.975 353.254 C 136.215 351.354,135.086 350.800,131.978 350.800 L 129.594 350.800 128.975 349.254 C 128.215 347.354,127.086 346.800,123.978 346.800 L 121.594 346.800 120.975 345.254 C 120.215 343.354,119.086 342.800,115.978 342.800 L 113.594 342.800 112.975 341.254 C 112.215 339.354,111.086 338.800,107.978 338.800 L 105.594 338.800 104.958 337.212 C 104.478 336.013,103.979 335.499,102.920 335.117 C 101.885 334.742,101.361 334.218,100.920 333.117 C 100.479 332.015,99.955 331.491,98.920 331.117 C 97.885 330.742,97.361 330.218,96.920 329.117 C 96.479 328.015,95.955 327.491,94.920 327.117 C 93.885 326.742,93.361 326.218,92.920 325.117 C 92.479 324.015,91.955 323.491,90.920 323.117 C 89.890 322.744,89.360 322.217,88.928 321.136 C 88.207 319.335,87.752 319.113,84.200 318.826 L 81.400 318.600 81.174 315.800 C 80.887 312.248,80.665 311.793,78.864 311.072 C 77.783 310.640,77.256 310.110,76.883 309.080 C 76.509 308.045,75.985 307.521,74.883 307.080 C 73.782 306.639,73.258 306.115,72.883 305.080 C 72.509 304.045,71.985 303.521,70.883 303.080 C 69.782 302.639,69.258 302.115,68.883 301.080 C 68.509 300.045,67.985 299.521,66.883 299.080 C 65.782 298.639,65.258 298.115,64.883 297.080 C 64.501 296.021,63.987 295.522,62.788 295.042 L 61.200 294.406 61.200 292.022 C 61.200 288.914,60.646 287.785,58.746 287.025 L 57.200 286.406 57.200 284.022 C 57.200 280.914,56.646 279.785,54.746 279.025 L 53.200 278.406 53.200 276.022 C 53.200 272.914,52.646 271.785,50.746 271.025 L 49.200 270.406 49.200 268.022 C 49.200 264.914,48.646 263.785,46.746 263.025 L 45.200 262.406 45.200 260.022 C 45.200 256.914,44.646 255.785,42.746 255.025 L 41.200 254.406 41.200 250.022 C 41.200 244.882,40.843 243.864,38.746 243.025 L 37.200 242.406 37.200 232.022 C 37.200 220.429,37.114 219.972,34.742 219.023 L 33.193 218.404 33.296 198.102 L 33.400 177.800 34.758 177.122 C 37.024 175.991,36.987 176.149,37.200 166.681 L 37.400 157.800 38.758 157.122 C 40.984 156.011,40.987 155.999,41.200 148.681 L 41.400 141.800 42.758 141.122 C 44.792 140.107,44.929 139.856,45.174 136.706 C 45.393 133.887,45.441 133.780,46.758 133.122 C 48.792 132.107,48.929 131.856,49.174 128.706 C 49.393 125.887,49.441 125.780,50.758 125.122 C 52.792 124.107,52.929 123.856,53.174 120.706 C 53.393 117.887,53.441 117.780,54.758 117.122 C 56.791 116.107,56.929 115.856,57.174 112.708 C 57.398 109.825,57.411 109.798,58.937 109.002 C 59.896 108.502,60.681 107.705,61.024 106.885 C 61.384 106.025,62.053 105.370,62.960 104.991 C 64.768 104.235,64.922 103.933,65.181 100.609 C 65.397 97.839,65.419 97.794,66.937 97.002 C 67.896 96.502,68.681 95.705,69.024 94.885 C 69.387 94.018,70.054 93.370,70.983 92.981 C 71.947 92.579,72.579 91.946,72.982 90.982 C 73.385 90.017,74.017 89.385,74.982 88.982 C 75.947 88.579,76.579 87.947,76.982 86.982 C 77.387 86.011,78.017 85.385,79.000 84.974 C 80.683 84.271,81.200 83.161,81.200 80.254 C 81.200 77.635,81.635 77.200,84.254 77.200 C 87.161 77.200,88.271 76.683,88.974 75.000 C 89.385 74.017,90.011 73.387,90.982 72.982 C 91.947 72.579,92.579 71.947,92.982 70.982 C 93.385 70.017,94.017 69.385,94.982 68.982 C 95.946 68.579,96.579 67.947,96.981 66.983 C 97.370 66.054,98.018 65.387,98.885 65.024 C 99.705 64.681,100.502 63.896,101.002 62.937 C 101.794 61.419,101.839 61.397,104.609 61.181 C 107.933 60.922,108.235 60.768,108.991 58.960 C 109.370 58.053,110.025 57.384,110.885 57.024 C 111.705 56.681,112.502 55.896,113.002 54.937 C 113.798 53.411,113.825 53.398,116.708 53.174 C 119.856 52.929,120.107 52.791,121.122 50.758 C 121.780 49.441,121.887 49.393,124.706 49.174 C 127.856 48.929,128.107 48.792,129.122 46.758 C 129.780 45.441,129.887 45.393,132.706 45.174 C 135.856 44.929,136.107 44.792,137.122 42.758 C 137.780 41.441,137.887 41.393,140.706 41.174 C 143.856 40.929,144.107 40.792,145.122 38.758 L 145.800 37.400 152.681 37.200 C 159.999 36.987,160.011 36.984,161.122 34.758 L 161.800 33.400 170.640 33.200 C 179.528 32.999,180.800 32.779,180.800 31.440 C 180.800 31.186,181.080 30.578,181.423 30.089 L 182.045 29.200 204.226 29.200 L 226.406 29.200 227.025 30.746 " stroke="none" fill="#a0c0ec" fill-rule="evenodd"></path><path id="path4" d="M180.086 30.000 L 178.271 32.000 170.086 32.000 L 161.900 32.000 160.086 34.000 L 158.271 36.000 152.086 36.000 L 145.900 36.000 144.086 38.000 C 142.331 39.935,142.200 40.000,140.086 40.000 C 137.971 40.000,137.841 40.065,136.086 42.000 C 134.331 43.935,134.200 44.000,132.086 44.000 C 129.971 44.000,129.841 44.065,128.086 46.000 C 126.331 47.935,126.200 48.000,124.086 48.000 C 121.971 48.000,121.841 48.065,120.086 50.000 C 118.340 51.924,118.190 52.000,116.133 52.000 L 113.994 52.000 110.077 56.000 L 106.160 60.000 104.098 60.000 L 102.036 60.000 94.079 68.000 L 86.122 76.000 84.043 76.000 C 81.139 76.000,80.000 77.139,80.000 80.043 L 80.000 82.122 72.000 90.079 L 64.000 98.036 64.000 100.098 L 64.000 102.160 60.000 106.077 L 56.000 109.994 56.000 112.133 C 56.000 114.190,55.924 114.340,54.000 116.086 C 52.065 117.841,52.000 117.971,52.000 120.086 C 52.000 122.200,51.935 122.331,50.000 124.086 C 48.065 125.841,48.000 125.971,48.000 128.086 C 48.000 130.200,47.935 130.331,46.000 132.086 C 44.065 133.841,44.000 133.971,44.000 136.086 C 44.000 138.200,43.935 138.331,42.000 140.086 L 40.000 141.900 40.000 148.086 L 40.000 154.271 38.000 156.086 L 36.000 157.900 36.000 166.086 L 36.000 174.271 34.000 176.086 L 32.000 177.900 32.013 198.050 C 32.022 213.278,32.144 218.347,32.513 218.800 C 32.781 219.130,33.675 219.904,34.500 220.520 L 36.000 221.641 36.013 231.920 C 36.027 243.094,35.929 242.600,38.500 244.520 L 40.000 245.641 40.013 249.920 C 40.027 254.559,40.086 254.718,42.500 256.520 C 43.923 257.583,44.001 257.758,44.013 259.920 C 44.027 262.410,44.265 262.851,46.500 264.520 C 47.923 265.583,48.001 265.758,48.013 267.920 C 48.027 270.410,48.265 270.851,50.500 272.520 C 51.923 273.583,52.001 273.758,52.013 275.920 C 52.027 278.410,52.265 278.851,54.500 280.520 C 55.923 281.583,56.001 281.758,56.013 283.920 C 56.027 286.410,56.265 286.851,58.500 288.520 C 59.923 289.583,60.001 289.758,60.013 291.920 C 60.026 294.386,60.318 294.950,62.289 296.334 C 62.998 296.831,63.866 297.728,64.220 298.325 C 64.573 298.923,65.463 299.806,66.197 300.288 C 66.932 300.770,67.832 301.670,68.197 302.288 C 68.563 302.906,69.463 303.806,70.197 304.288 C 70.932 304.770,71.832 305.670,72.197 306.288 C 72.563 306.906,73.463 307.806,74.197 308.288 C 74.932 308.770,75.835 309.667,76.204 310.282 C 76.573 310.897,77.578 311.893,78.438 312.496 C 79.952 313.559,80.000 313.664,80.000 315.942 C 80.000 319.265,81.135 320.400,84.458 320.400 C 86.736 320.400,86.841 320.448,87.904 321.962 C 88.507 322.822,89.503 323.827,90.118 324.196 C 90.733 324.565,91.630 325.468,92.112 326.203 C 92.594 326.937,93.494 327.837,94.112 328.203 C 94.730 328.568,95.630 329.468,96.112 330.203 C 96.594 330.937,97.494 331.837,98.112 332.203 C 98.730 332.568,99.630 333.468,100.112 334.203 C 100.594 334.937,101.477 335.827,102.075 336.180 C 102.672 336.534,103.569 337.402,104.066 338.111 C 105.450 340.082,106.014 340.374,108.480 340.387 C 110.642 340.399,110.817 340.477,111.880 341.900 C 113.549 344.135,113.990 344.373,116.480 344.387 C 118.642 344.399,118.817 344.477,119.880 345.900 C 121.549 348.135,121.990 348.373,124.480 348.387 C 126.642 348.399,126.817 348.477,127.880 349.900 C 129.549 352.135,129.990 352.373,132.480 352.387 C 134.642 352.399,134.817 352.477,135.880 353.900 C 137.549 356.135,137.990 356.373,140.480 356.387 C 142.642 356.399,142.817 356.477,143.880 357.900 C 145.682 360.314,145.841 360.373,150.480 360.387 L 154.759 360.400 155.880 361.900 C 157.778 364.442,157.486 364.373,166.480 364.387 L 174.759 364.400 175.880 365.900 C 176.496 366.725,177.270 367.619,177.600 367.887 C 178.056 368.258,183.958 368.378,202.259 368.387 L 226.317 368.400 227.572 366.900 C 228.263 366.075,229.009 365.175,229.230 364.900 C 229.528 364.529,231.781 364.400,237.974 364.400 L 246.317 364.400 247.572 362.900 C 248.263 362.075,249.009 361.175,249.230 360.900 C 249.507 360.555,250.985 360.400,253.992 360.400 L 258.352 360.400 260.039 358.400 C 261.704 356.425,261.754 356.400,264.039 356.400 C 266.324 356.400,266.373 356.375,268.039 354.400 C 269.704 352.425,269.754 352.400,272.039 352.400 C 274.324 352.400,274.373 352.375,276.039 350.400 C 277.704 348.425,277.754 348.400,280.039 348.400 C 282.324 348.400,282.373 348.375,284.039 346.400 C 285.704 344.425,285.754 344.400,288.039 344.400 C 290.324 344.400,290.373 344.375,292.039 342.400 C 293.686 340.447,293.777 340.400,295.925 340.400 L 298.125 340.400 301.491 336.900 C 303.342 334.975,305.011 333.252,305.200 333.072 C 305.389 332.891,306.264 332.024,307.144 331.144 C 308.024 330.264,308.924 329.364,309.144 329.144 C 309.364 328.924,310.264 328.024,311.144 327.144 C 312.024 326.264,312.924 325.364,313.144 325.144 C 313.364 324.924,314.231 324.060,315.072 323.225 C 315.912 322.389,316.832 321.412,317.116 321.053 C 317.484 320.587,318.279 320.400,319.894 320.400 C 323.159 320.400,324.400 319.172,324.400 315.941 C 324.400 314.282,324.584 313.486,325.053 313.116 C 325.412 312.832,326.389 311.912,327.225 311.072 C 328.060 310.231,328.924 309.364,329.144 309.144 C 329.364 308.924,330.264 308.024,331.144 307.144 C 332.024 306.264,332.924 305.364,333.144 305.144 C 333.364 304.924,334.264 304.024,335.144 303.144 C 336.024 302.264,336.924 301.364,337.144 301.144 C 337.364 300.924,338.264 300.024,339.144 299.144 C 340.024 298.264,340.891 297.382,341.072 297.184 C 341.252 296.986,342.075 296.260,342.900 295.570 C 344.320 294.384,344.400 294.192,344.400 291.974 C 344.400 290.581,344.603 289.469,344.900 289.230 C 348.454 286.373,348.400 286.454,348.400 283.974 C 348.400 282.581,348.603 281.469,348.900 281.230 C 352.454 278.373,352.400 278.454,352.400 275.974 C 352.400 274.581,352.603 273.469,352.900 273.230 C 356.454 270.373,356.400 270.454,356.400 267.974 C 356.400 266.581,356.603 265.469,356.900 265.230 C 360.454 262.373,360.400 262.454,360.400 259.974 C 360.400 258.581,360.603 257.469,360.900 257.230 C 361.175 257.009,362.075 256.263,362.900 255.572 L 364.400 254.317 364.400 249.974 C 364.400 246.981,364.555 245.507,364.900 245.230 C 365.175 245.009,366.075 244.263,366.900 243.572 L 368.400 242.317 368.400 233.974 C 368.400 227.781,368.529 225.528,368.900 225.230 C 369.175 225.009,370.075 224.263,370.900 223.572 L 372.400 222.317 372.387 198.259 C 372.378 179.958,372.258 174.056,371.887 173.600 C 371.619 173.270,370.725 172.496,369.900 171.880 L 368.400 170.759 368.387 162.480 C 368.373 153.486,368.442 153.778,365.900 151.880 L 364.400 150.759 364.387 146.480 C 364.373 141.841,364.314 141.682,361.900 139.880 C 360.477 138.817,360.399 138.642,360.387 136.480 C 360.373 133.990,360.135 133.549,357.900 131.880 C 356.477 130.817,356.399 130.642,356.387 128.480 C 356.373 125.990,356.135 125.549,353.900 123.880 C 352.477 122.817,352.399 122.642,352.387 120.480 C 352.373 117.990,352.135 117.549,349.900 115.880 C 348.477 114.817,348.399 114.642,348.387 112.480 C 348.373 109.990,348.135 109.549,345.900 107.880 C 344.477 106.817,344.399 106.642,344.387 104.480 C 344.374 102.014,344.082 101.450,342.111 100.066 C 341.402 99.569,340.523 98.655,340.157 98.035 C 339.791 97.415,338.968 96.599,338.328 96.221 C 337.687 95.843,336.781 94.949,336.313 94.236 C 335.845 93.522,334.878 92.555,334.164 92.087 C 333.451 91.619,332.568 90.730,332.203 90.112 C 331.837 89.494,330.937 88.594,330.203 88.112 C 329.468 87.630,328.565 86.733,328.196 86.118 C 327.827 85.503,326.822 84.507,325.962 83.904 C 324.448 82.841,324.400 82.736,324.400 80.458 C 324.400 77.135,323.265 76.000,319.942 76.000 C 317.664 76.000,317.559 75.952,316.496 74.438 C 315.893 73.578,314.897 72.573,314.282 72.204 C 313.667 71.835,312.770 70.932,312.288 70.197 C 311.806 69.463,310.906 68.563,310.288 68.197 C 309.670 67.832,308.770 66.932,308.288 66.197 C 307.806 65.463,306.908 64.564,306.291 64.199 C 305.674 63.835,304.706 62.837,304.140 61.981 C 303.574 61.126,302.794 60.325,302.407 60.202 C 302.020 60.079,301.275 59.408,300.752 58.710 C 298.854 56.179,298.544 56.000,296.060 56.000 C 293.894 56.000,293.648 55.905,292.760 54.720 C 290.853 52.178,290.546 52.000,288.060 52.000 C 285.894 52.000,285.648 51.905,284.760 50.720 C 282.853 48.178,282.546 48.000,280.060 48.000 C 277.894 48.000,277.648 47.905,276.760 46.720 C 274.853 44.178,274.546 44.000,272.060 44.000 C 269.894 44.000,269.648 43.905,268.760 42.720 C 266.853 40.178,266.546 40.000,264.060 40.000 C 261.894 40.000,261.648 39.905,260.760 38.720 C 258.695 35.966,258.778 36.000,254.020 36.000 L 249.641 36.000 248.520 34.500 C 246.622 31.958,246.914 32.027,237.920 32.013 L 229.641 32.000 228.520 30.500 C 227.904 29.675,227.130 28.781,226.800 28.513 C 226.345 28.143,220.851 28.022,204.050 28.013 L 181.900 28.000 180.086 30.000 M227.025 30.746 C 227.950 33.057,228.590 33.200,238.022 33.200 L 246.406 33.200 247.025 34.746 C 247.862 36.838,248.885 37.200,253.970 37.200 C 258.563 37.200,258.880 37.320,259.335 39.231 C 259.658 40.586,261.104 41.200,263.970 41.200 C 266.436 41.200,266.921 41.493,267.335 43.231 C 267.658 44.586,269.104 45.200,271.970 45.200 C 274.436 45.200,274.921 45.493,275.335 47.231 C 275.658 48.586,277.104 49.200,279.970 49.200 C 282.436 49.200,282.921 49.493,283.335 51.231 C 283.658 52.586,285.104 53.200,287.970 53.200 C 290.436 53.200,290.921 53.493,291.335 55.231 C 291.658 56.586,293.104 57.200,295.970 57.200 C 298.435 57.200,298.921 57.493,299.334 59.227 C 299.503 59.935,300.103 60.493,301.271 61.027 C 302.566 61.619,303.039 62.099,303.287 63.076 C 303.534 64.051,303.950 64.475,305.047 64.871 C 306.117 65.258,306.635 65.771,307.080 66.883 C 307.521 67.985,308.045 68.509,309.080 68.883 C 310.115 69.258,310.639 69.782,311.080 70.883 C 311.521 71.985,312.045 72.509,313.080 72.883 C 314.110 73.256,314.640 73.783,315.072 74.864 C 315.793 76.665,316.248 76.887,319.800 77.174 L 322.600 77.400 322.826 80.200 C 323.113 83.752,323.335 84.207,325.136 84.928 C 326.217 85.360,326.744 85.890,327.117 86.920 C 327.491 87.955,328.015 88.479,329.117 88.920 C 330.218 89.361,330.742 89.885,331.117 90.920 C 331.491 91.955,332.015 92.479,333.117 92.920 C 334.218 93.361,334.742 93.885,335.117 94.920 C 335.491 95.955,336.015 96.479,337.117 96.920 C 338.218 97.361,338.742 97.885,339.117 98.920 C 339.499 99.979,340.013 100.478,341.212 100.958 L 342.800 101.594 342.800 103.978 C 342.800 107.086,343.354 108.215,345.254 108.975 L 346.800 109.594 346.800 111.978 C 346.800 115.086,347.354 116.215,349.254 116.975 L 350.800 117.594 350.800 119.978 C 350.800 123.086,351.354 124.215,353.254 124.975 L 354.800 125.594 354.800 127.978 C 354.800 131.086,355.354 132.215,357.254 132.975 L 358.800 133.594 358.800 135.978 C 358.800 139.086,359.354 140.215,361.254 140.975 L 362.800 141.594 362.800 145.978 C 362.800 151.118,363.157 152.136,365.254 152.975 L 366.800 153.594 366.800 161.978 C 366.800 171.410,366.943 172.050,369.254 172.975 L 370.800 173.594 370.800 198.007 L 370.800 222.420 369.785 222.806 C 366.948 223.884,366.800 224.432,366.800 233.868 L 366.800 242.420 365.785 242.806 C 363.282 243.757,362.800 244.899,362.800 249.868 C 362.800 254.373,362.790 254.424,361.785 254.806 C 359.668 255.611,358.800 257.082,358.800 259.868 C 358.800 262.232,358.725 262.448,357.785 262.806 C 355.668 263.611,354.800 265.082,354.800 267.868 C 354.800 270.232,354.725 270.448,353.785 270.806 C 351.668 271.611,350.800 273.082,350.800 275.868 C 350.800 278.232,350.725 278.448,349.785 278.806 C 347.668 279.611,346.800 281.082,346.800 283.868 C 346.800 286.232,346.725 286.448,345.785 286.806 C 343.681 287.606,342.800 289.086,342.800 291.819 C 342.800 294.295,342.784 294.330,341.337 295.081 C 340.532 295.499,339.557 296.431,339.169 297.153 C 338.782 297.875,337.880 298.780,337.164 299.164 C 336.448 299.548,335.548 300.448,335.164 301.164 C 334.780 301.880,333.880 302.780,333.164 303.164 C 332.448 303.548,331.548 304.448,331.164 305.164 C 330.780 305.880,329.875 306.782,329.153 307.169 C 328.431 307.557,327.499 308.532,327.081 309.337 C 326.663 310.141,326.083 310.800,325.792 310.800 C 324.261 310.800,322.839 313.167,322.718 315.913 L 322.600 318.600 319.913 318.718 C 317.167 318.839,314.800 320.261,314.800 321.792 C 314.800 322.083,314.141 322.663,313.337 323.081 C 312.532 323.499,311.557 324.431,311.169 325.153 C 310.782 325.875,309.880 326.780,309.164 327.164 C 308.448 327.548,307.548 328.448,307.164 329.164 C 306.780 329.880,305.866 330.783,305.133 331.171 C 304.314 331.604,303.660 332.336,303.437 333.069 C 303.184 333.899,302.576 334.502,301.440 335.049 C 300.340 335.579,299.677 336.222,299.408 337.018 C 298.863 338.638,298.556 338.787,295.758 338.794 C 293.093 338.801,291.200 339.940,291.200 341.538 C 291.200 342.539,290.462 342.800,287.626 342.800 C 285.098 342.800,283.200 343.974,283.200 345.538 C 283.200 346.539,282.462 346.800,279.626 346.800 C 277.098 346.800,275.200 347.974,275.200 349.538 C 275.200 350.539,274.462 350.800,271.626 350.800 C 269.098 350.800,267.200 351.974,267.200 353.538 C 267.200 354.539,266.462 354.800,263.626 354.800 C 261.098 354.800,259.200 355.974,259.200 357.538 C 259.200 358.639,258.488 358.800,253.626 358.800 C 248.924 358.800,247.744 359.316,246.806 361.785 L 246.420 362.800 237.868 362.800 C 228.432 362.800,227.884 362.948,226.806 365.785 L 226.420 366.800 202.007 366.800 L 177.594 366.800 176.975 365.254 C 176.050 362.943,175.410 362.800,165.978 362.800 L 157.594 362.800 156.975 361.254 C 156.136 359.157,155.118 358.800,149.978 358.800 L 145.594 358.800 144.975 357.254 C 144.215 355.354,143.086 354.800,139.978 354.800 L 137.594 354.800 136.975 353.254 C 136.215 351.354,135.086 350.800,131.978 350.800 L 129.594 350.800 128.975 349.254 C 128.215 347.354,127.086 346.800,123.978 346.800 L 121.594 346.800 120.975 345.254 C 120.215 343.354,119.086 342.800,115.978 342.800 L 113.594 342.800 112.975 341.254 C 112.215 339.354,111.086 338.800,107.978 338.800 L 105.594 338.800 104.958 337.212 C 104.478 336.013,103.979 335.499,102.920 335.117 C 101.885 334.742,101.361 334.218,100.920 333.117 C 100.479 332.015,99.955 331.491,98.920 331.117 C 97.885 330.742,97.361 330.218,96.920 329.117 C 96.479 328.015,95.955 327.491,94.920 327.117 C 93.885 326.742,93.361 326.218,92.920 325.117 C 92.479 324.015,91.955 323.491,90.920 323.117 C 89.890 322.744,89.360 322.217,88.928 321.136 C 88.207 319.335,87.752 319.113,84.200 318.826 L 81.400 318.600 81.174 315.800 C 80.887 312.248,80.665 311.793,78.864 311.072 C 77.783 310.640,77.256 310.110,76.883 309.080 C 76.509 308.045,75.985 307.521,74.883 307.080 C 73.782 306.639,73.258 306.115,72.883 305.080 C 72.509 304.045,71.985 303.521,70.883 303.080 C 69.782 302.639,69.258 302.115,68.883 301.080 C 68.509 300.045,67.985 299.521,66.883 299.080 C 65.782 298.639,65.258 298.115,64.883 297.080 C 64.501 296.021,63.987 295.522,62.788 295.042 L 61.200 294.406 61.200 292.022 C 61.200 288.914,60.646 287.785,58.746 287.025 L 57.200 286.406 57.200 284.022 C 57.200 280.914,56.646 279.785,54.746 279.025 L 53.200 278.406 53.200 276.022 C 53.200 272.914,52.646 271.785,50.746 271.025 L 49.200 270.406 49.200 268.022 C 49.200 264.914,48.646 263.785,46.746 263.025 L 45.200 262.406 45.200 260.022 C 45.200 256.914,44.646 255.785,42.746 255.025 L 41.200 254.406 41.200 250.022 C 41.200 244.882,40.843 243.864,38.746 243.025 L 37.200 242.406 37.200 232.022 C 37.200 220.429,37.114 219.972,34.742 219.023 L 33.193 218.404 33.296 198.102 L 33.400 177.800 34.758 177.122 C 37.024 175.991,36.987 176.149,37.200 166.681 L 37.400 157.800 38.758 157.122 C 40.984 156.011,40.987 155.999,41.200 148.681 L 41.400 141.800 42.758 141.122 C 44.792 140.107,44.929 139.856,45.174 136.706 C 45.393 133.887,45.441 133.780,46.758 133.122 C 48.792 132.107,48.929 131.856,49.174 128.706 C 49.393 125.887,49.441 125.780,50.758 125.122 C 52.792 124.107,52.929 123.856,53.174 120.706 C 53.393 117.887,53.441 117.780,54.758 117.122 C 56.791 116.107,56.929 115.856,57.174 112.708 C 57.398 109.825,57.411 109.798,58.937 109.002 C 59.896 108.502,60.681 107.705,61.024 106.885 C 61.384 106.025,62.053 105.370,62.960 104.991 C 64.768 104.235,64.922 103.933,65.181 100.609 C 65.397 97.839,65.419 97.794,66.937 97.002 C 67.896 96.502,68.681 95.705,69.024 94.885 C 69.387 94.018,70.054 93.370,70.983 92.981 C 71.947 92.579,72.579 91.946,72.982 90.982 C 73.385 90.017,74.017 89.385,74.982 88.982 C 75.947 88.579,76.579 87.947,76.982 86.982 C 77.387 86.011,78.017 85.385,79.000 84.974 C 80.683 84.271,81.200 83.161,81.200 80.254 C 81.200 77.635,81.635 77.200,84.254 77.200 C 87.161 77.200,88.271 76.683,88.974 75.000 C 89.385 74.017,90.011 73.387,90.982 72.982 C 91.947 72.579,92.579 71.947,92.982 70.982 C 93.385 70.017,94.017 69.385,94.982 68.982 C 95.946 68.579,96.579 67.947,96.981 66.983 C 97.370 66.054,98.018 65.387,98.885 65.024 C 99.705 64.681,100.502 63.896,101.002 62.937 C 101.794 61.419,101.839 61.397,104.609 61.181 C 107.933 60.922,108.235 60.768,108.991 58.960 C 109.370 58.053,110.025 57.384,110.885 57.024 C 111.705 56.681,112.502 55.896,113.002 54.937 C 113.798 53.411,113.825 53.398,116.708 53.174 C 119.856 52.929,120.107 52.791,121.122 50.758 C 121.780 49.441,121.887 49.393,124.706 49.174 C 127.856 48.929,128.107 48.792,129.122 46.758 C 129.780 45.441,129.887 45.393,132.706 45.174 C 135.856 44.929,136.107 44.792,137.122 42.758 C 137.780 41.441,137.887 41.393,140.706 41.174 C 143.856 40.929,144.107 40.792,145.122 38.758 L 145.800 37.400 152.681 37.200 C 159.999 36.987,160.011 36.984,161.122 34.758 L 161.800 33.400 170.640 33.200 C 179.528 32.999,180.800 32.779,180.800 31.440 C 180.800 31.186,181.080 30.578,181.423 30.089 L 182.045 29.200 204.226 29.200 L 226.406 29.200 227.025 30.746 " stroke="none" fill="#a0c0ec" fill-rule="evenodd"></path></g></svg>