<svg id="svg" version="1.1" xmlns="http://www.w3.org/2000/svg" xmlns:xlink="http://www.w3.org/1999/xlink" width="400" height="400" viewBox="0, 0, 400,400"><g id="svgg"><path id="path0" d="M189.239 35.042 C 188.854 36.108,188.319 36.665,187.236 37.127 C 186.197 37.571,185.571 38.197,185.127 39.236 C 184.674 40.298,184.106 40.855,183.107 41.216 C 182.090 41.583,181.583 42.090,181.216 43.107 C 180.855 44.106,180.298 44.674,179.236 45.127 C 178.197 45.571,177.571 46.197,177.127 47.236 C 176.679 48.286,176.104 48.855,175.141 49.203 C 174.170 49.555,173.604 50.121,173.141 51.203 C 172.679 52.286,172.113 52.852,171.141 53.203 C 170.170 53.555,169.604 54.121,169.141 55.203 C 168.679 56.286,168.113 56.852,167.141 57.203 C 166.170 57.555,165.604 58.121,165.141 59.203 C 164.679 60.286,164.113 60.852,163.141 61.203 C 162.170 61.555,161.604 62.121,161.141 63.203 C 160.679 64.286,160.113 64.852,159.141 65.203 C 158.170 65.555,157.604 66.121,157.141 67.203 C 156.679 68.286,156.113 68.852,155.141 69.203 C 154.170 69.555,153.604 70.121,153.141 71.203 C 152.679 72.286,152.113 72.852,151.141 73.203 C 150.170 73.555,149.604 74.121,149.141 75.203 C 148.679 76.286,148.113 76.852,147.141 77.203 C 146.170 77.555,145.604 78.121,145.141 79.203 C 144.679 80.286,144.113 80.852,143.141 81.203 C 142.170 81.555,141.604 82.121,141.141 83.203 C 140.679 84.286,140.113 84.852,139.141 85.203 C 138.170 85.555,137.604 86.121,137.141 87.203 C 136.679 88.286,136.113 88.852,135.141 89.203 C 134.170 89.555,133.604 90.121,133.141 91.203 C 132.679 92.286,132.113 92.852,131.141 93.203 C 130.170 93.555,129.604 94.121,129.141 95.203 C 128.679 96.286,128.113 96.852,127.141 97.203 C 126.170 97.555,125.604 98.121,125.141 99.203 C 124.679 100.286,124.113 100.852,123.141 101.203 C 122.170 101.555,121.604 102.121,121.141 103.203 C 120.674 104.298,120.114 104.852,119.107 105.216 C 118.093 105.583,117.583 106.091,117.219 107.099 C 116.841 108.144,116.290 108.671,114.959 109.259 C 112.814 110.208,112.809 110.250,114.781 111.039 C 115.988 111.522,116.469 111.998,116.818 113.054 C 117.163 114.099,117.649 114.586,118.809 115.050 C 120.616 115.773,121.200 117.047,121.200 120.263 C 121.200 122.386,121.215 122.413,122.781 123.039 C 123.988 123.522,124.469 123.998,124.818 125.054 C 125.163 126.101,125.648 126.586,126.818 127.054 C 127.987 127.522,128.472 128.007,128.818 129.054 C 129.163 130.099,129.649 130.586,130.809 131.050 C 132.616 131.773,133.200 133.047,133.200 136.263 C 133.200 138.386,133.215 138.413,134.781 139.039 C 135.988 139.522,136.469 139.998,136.818 141.054 C 137.163 142.101,137.648 142.586,138.818 143.054 C 139.987 143.522,140.472 144.007,140.818 145.054 C 141.163 146.099,141.649 146.586,142.809 147.050 C 144.616 147.773,145.200 149.047,145.200 152.263 C 145.200 154.386,145.215 154.413,146.781 155.039 C 147.988 155.522,148.469 155.998,148.818 157.054 C 149.163 158.101,149.648 158.586,150.818 159.054 C 151.987 159.522,152.472 160.007,152.818 161.054 C 153.163 162.099,153.649 162.586,154.809 163.050 C 156.616 163.773,157.200 165.047,157.200 168.263 C 157.200 170.386,157.215 170.413,158.781 171.039 C 159.988 171.522,160.469 171.998,160.818 173.054 C 161.163 174.101,161.648 174.586,162.818 175.054 C 163.987 175.522,164.472 176.007,164.818 177.054 C 165.163 178.099,165.649 178.586,166.809 179.050 C 168.616 179.773,169.200 181.047,169.200 184.263 C 169.200 186.386,169.215 186.413,170.781 187.039 C 171.988 187.522,172.469 187.998,172.818 189.054 C 173.163 190.101,173.648 190.586,174.818 191.054 C 175.987 191.522,176.472 192.007,176.818 193.054 C 177.163 194.101,177.648 194.586,178.818 195.054 C 179.987 195.522,180.472 196.007,180.818 197.054 C 181.163 198.099,181.649 198.586,182.809 199.050 C 184.616 199.773,185.200 201.047,185.200 204.263 C 185.200 206.378,185.220 206.415,186.748 207.026 C 187.948 207.506,188.440 208.010,188.931 209.262 C 190.630 213.586,190.600 215.161,190.600 122.200 C 190.600 61.194,190.471 33.824,190.182 33.727 C 189.953 33.651,189.528 34.243,189.239 35.042 M69.699 198.100 L 69.800 278.600 82.200 278.600 L 94.600 278.600 94.701 200.068 L 94.802 121.536 93.206 120.909 C 92.016 120.442,91.486 119.941,91.124 118.941 L 90.639 117.600 80.119 117.600 L 69.598 117.600 69.699 198.100 M109.785 141.700 C 109.680 141.975,109.641 173.779,109.697 212.375 L 109.800 282.549 111.131 282.894 C 112.180 283.166,112.625 283.606,113.227 284.969 C 113.828 286.328,114.255 286.751,115.216 286.943 C 116.181 287.136,116.604 287.559,117.216 288.943 C 117.828 290.327,118.251 290.750,119.216 290.943 C 120.181 291.136,120.604 291.559,121.216 292.943 C 121.828 294.327,122.251 294.750,123.216 294.943 C 124.181 295.136,124.604 295.559,125.216 296.943 C 125.828 298.327,126.251 298.750,127.216 298.943 C 128.181 299.136,128.604 299.559,129.216 300.943 C 129.828 302.327,130.251 302.750,131.216 302.943 C 132.181 303.136,132.604 303.559,133.216 304.943 C 133.828 306.327,134.251 306.750,135.216 306.943 C 136.181 307.136,136.604 307.559,137.216 308.943 C 137.828 310.327,138.251 310.750,139.216 310.943 C 140.181 311.136,140.604 311.559,141.216 312.943 C 141.828 314.327,142.251 314.750,143.216 314.943 C 144.181 315.136,144.604 315.559,145.216 316.943 C 145.828 318.327,146.251 318.750,147.216 318.943 C 148.181 319.136,148.604 319.559,149.216 320.943 C 149.828 322.327,150.251 322.750,151.216 322.943 C 152.181 323.136,152.604 323.559,153.216 324.943 C 153.828 326.327,154.251 326.750,155.216 326.943 C 156.181 327.136,156.604 327.559,157.216 328.943 C 157.828 330.327,158.251 330.750,159.216 330.943 C 160.181 331.136,160.604 331.559,161.216 332.943 C 161.828 334.327,162.251 334.750,163.216 334.943 C 164.181 335.136,164.604 335.559,165.216 336.943 C 165.828 338.327,166.251 338.750,167.216 338.943 C 168.181 339.136,168.604 339.559,169.216 340.943 C 169.828 342.327,170.251 342.750,171.216 342.943 C 172.181 343.136,172.604 343.559,173.216 344.943 C 173.828 346.327,174.251 346.750,175.216 346.943 C 176.181 347.136,176.604 347.559,177.216 348.943 C 177.828 350.327,178.251 350.750,179.216 350.943 C 180.181 351.136,180.604 351.559,181.216 352.943 C 181.828 354.327,182.251 354.750,183.216 354.943 C 184.181 355.136,184.604 355.559,185.216 356.943 C 185.828 358.327,186.251 358.750,187.216 358.943 C 188.189 359.138,188.604 359.560,189.243 361.003 C 189.684 362.002,190.215 362.714,190.423 362.586 C 190.656 362.442,190.800 340.087,190.800 303.944 L 190.800 245.536 189.223 244.916 C 188.023 244.445,187.501 243.935,187.041 242.785 C 186.586 241.649,186.093 241.161,185.054 240.818 C 184.007 240.472,183.522 239.987,183.054 238.818 C 182.589 237.657,182.099 237.163,181.077 236.825 C 179.367 236.261,178.800 235.047,178.800 231.949 L 178.800 229.536 177.223 228.916 C 176.023 228.445,175.501 227.935,175.041 226.785 C 174.586 225.649,174.093 225.161,173.054 224.818 C 172.007 224.472,171.522 223.987,171.054 222.818 C 170.589 221.657,170.099 221.163,169.077 220.825 C 167.367 220.261,166.800 219.047,166.800 215.949 L 166.800 213.536 165.223 212.916 C 164.023 212.445,163.501 211.935,163.041 210.785 C 162.586 209.649,162.093 209.161,161.054 208.818 C 160.007 208.472,159.522 207.987,159.054 206.818 C 158.589 205.657,158.099 205.163,157.077 204.825 C 155.367 204.261,154.800 203.047,154.800 199.949 L 154.800 197.536 153.223 196.916 C 152.023 196.445,151.501 195.935,151.041 194.785 C 150.586 193.649,150.093 193.161,149.054 192.818 C 148.007 192.472,147.522 191.987,147.054 190.818 C 146.589 189.657,146.099 189.163,145.077 188.825 C 143.367 188.261,142.800 187.047,142.800 183.949 L 142.800 181.536 141.223 180.916 C 140.023 180.445,139.501 179.935,139.041 178.785 C 138.586 177.649,138.093 177.161,137.054 176.818 C 136.007 176.472,135.522 175.987,135.054 174.818 C 134.586 173.648,134.101 173.163,133.054 172.818 C 132.007 172.472,131.522 171.987,131.054 170.818 C 130.589 169.657,130.099 169.163,129.077 168.825 C 127.367 168.261,126.800 167.047,126.800 163.949 L 126.800 161.536 125.223 160.916 C 124.023 160.445,123.501 159.935,123.041 158.785 C 122.586 157.649,122.093 157.161,121.054 156.818 C 120.007 156.472,119.522 155.987,119.054 154.818 C 118.589 153.657,118.099 153.163,117.077 152.825 C 115.367 152.261,114.800 151.047,114.800 147.949 L 114.800 145.536 113.223 144.916 C 112.012 144.440,111.502 143.937,111.026 142.748 C 110.372 141.115,110.096 140.881,109.785 141.700 " stroke="none" fill="#dcfcfc" fill-rule="evenodd"></path><path id="path1" d="M26.000 12.000 L 26.000 14.000 24.000 14.000 L 22.000 14.000 22.000 22.000 L 22.000 30.000 24.000 30.000 L 26.000 30.000 26.000 32.000 L 26.000 34.000 28.000 34.000 L 30.000 34.000 30.000 38.000 L 30.000 42.000 32.000 42.000 L 34.000 42.000 34.000 44.000 L 34.000 46.000 36.000 46.000 L 38.000 46.000 38.000 48.000 L 38.000 50.000 40.000 50.000 L 42.000 50.000 42.000 54.000 L 42.000 58.000 44.000 58.000 L 46.000 58.000 46.000 60.000 L 46.000 62.000 48.000 62.000 L 50.000 62.000 50.000 64.000 L 50.000 66.000 52.000 66.000 L 54.000 66.000 54.000 70.000 L 54.000 74.000 56.000 74.000 L 58.000 74.000 58.000 76.000 L 58.000 78.000 60.000 78.000 L 62.000 78.000 62.000 80.000 L 62.000 82.000 64.000 82.000 L 66.000 82.000 66.000 86.000 L 66.000 90.000 68.000 90.000 L 70.000 90.000 70.000 92.000 L 70.000 94.000 72.000 94.000 L 74.000 94.000 74.000 96.000 L 74.000 98.000 75.979 98.000 L 77.958 98.000 78.079 100.100 L 78.200 102.200 80.848 103.520 C 82.722 104.454,83.703 105.225,84.207 106.160 C 84.598 106.887,85.503 107.797,86.218 108.182 C 86.933 108.567,87.848 109.494,88.251 110.243 C 88.654 110.992,89.285 111.700,89.652 111.816 C 90.019 111.933,90.796 112.505,91.379 113.088 C 93.101 114.810,92.204 114.978,80.110 115.200 C 69.440 115.396,69.202 115.418,68.310 116.311 L 67.400 117.222 67.282 197.511 C 67.153 285.354,67.019 279.935,69.344 280.559 C 69.815 280.686,75.743 280.792,82.518 280.795 L 94.836 280.800 95.818 279.818 L 96.800 278.836 96.809 202.318 C 96.817 129.588,96.853 125.754,97.529 124.875 L 98.241 123.950 99.306 125.015 C 99.892 125.601,100.477 126.413,100.606 126.820 C 100.735 127.226,101.174 127.665,101.580 127.794 C 103.411 128.375,104.400 130.000,104.400 132.426 C 104.400 134.605,105.014 136.000,105.974 136.000 C 106.992 136.000,108.367 138.113,107.890 138.945 C 107.510 139.609,107.373 155.675,107.280 210.800 C 107.147 288.862,107.002 283.962,109.463 284.580 C 110.037 284.724,110.870 285.545,111.501 286.590 C 112.109 287.597,112.968 288.456,113.501 288.590 C 114.033 288.723,114.892 289.582,115.501 290.590 C 116.109 291.597,116.968 292.456,117.501 292.590 C 118.033 292.723,118.892 293.582,119.501 294.590 C 120.109 295.597,120.968 296.456,121.501 296.590 C 122.033 296.723,122.892 297.582,123.501 298.590 C 124.109 299.597,124.968 300.456,125.501 300.590 C 126.033 300.723,126.892 301.582,127.501 302.590 C 128.109 303.597,128.968 304.456,129.501 304.590 C 130.033 304.723,130.892 305.582,131.501 306.590 C 132.109 307.597,132.968 308.456,133.501 308.590 C 134.033 308.723,134.892 309.582,135.501 310.590 C 136.109 311.597,136.968 312.456,137.501 312.590 C 138.033 312.723,138.892 313.582,139.501 314.590 C 140.109 315.597,140.968 316.456,141.501 316.590 C 142.033 316.723,142.892 317.582,143.501 318.590 C 144.109 319.597,144.968 320.456,145.501 320.590 C 146.033 320.723,146.892 321.582,147.501 322.590 C 148.109 323.597,148.968 324.456,149.501 324.590 C 150.033 324.723,150.892 325.582,151.501 326.590 C 152.109 327.597,152.968 328.456,153.501 328.590 C 154.033 328.723,154.892 329.582,155.501 330.590 C 156.109 331.597,156.968 332.456,157.501 332.590 C 158.033 332.723,158.892 333.582,159.501 334.590 C 160.109 335.597,160.968 336.456,161.501 336.590 C 162.033 336.723,162.892 337.582,163.501 338.590 C 164.109 339.597,164.968 340.456,165.501 340.590 C 166.033 340.723,166.892 341.582,167.501 342.590 C 168.109 343.597,168.968 344.456,169.501 344.590 C 170.033 344.723,170.892 345.582,171.501 346.590 C 172.109 347.597,172.968 348.456,173.501 348.590 C 174.033 348.723,174.892 349.582,175.501 350.590 C 176.109 351.597,176.968 352.456,177.501 352.590 C 178.033 352.723,178.892 353.582,179.501 354.590 C 180.109 355.597,180.968 356.456,181.501 356.590 C 182.033 356.723,182.892 357.582,183.501 358.590 C 184.098 359.579,184.970 360.456,185.483 360.585 C 185.987 360.712,186.874 361.577,187.454 362.508 C 188.033 363.438,188.529 364.230,188.555 364.267 C 189.040 364.964,190.911 364.726,191.780 363.856 L 192.800 362.836 192.809 308.318 C 192.817 256.678,192.855 253.751,193.529 252.875 L 194.241 251.950 195.306 253.015 C 195.892 253.601,196.467 254.381,196.584 254.748 C 196.700 255.115,197.408 255.746,198.157 256.149 C 198.906 256.552,199.833 257.467,200.218 258.182 C 200.603 258.897,201.500 259.795,202.212 260.178 C 203.925 261.101,204.329 262.041,204.489 265.471 C 204.583 267.480,204.830 268.570,205.311 269.102 C 205.776 269.615,206.000 270.536,206.000 271.931 L 206.000 274.000 208.000 274.000 L 210.000 274.000 210.000 276.000 L 210.000 278.000 212.000 278.000 L 214.000 278.000 214.000 282.000 L 214.000 286.000 216.000 286.000 L 218.000 286.000 218.000 288.000 L 218.000 290.000 220.000 290.000 L 222.000 290.000 222.000 292.000 L 222.000 294.000 224.000 294.000 L 226.000 294.000 226.000 298.000 L 226.000 302.000 228.000 302.000 L 230.000 302.000 230.000 304.000 L 230.000 306.000 232.000 306.000 L 234.000 306.000 234.000 308.000 L 234.000 310.000 236.000 310.000 L 238.000 310.000 238.000 314.000 L 238.000 318.000 240.000 318.000 L 242.000 318.000 242.000 320.000 L 242.000 322.000 244.000 322.000 L 246.000 322.000 246.000 324.000 L 246.000 326.000 248.000 326.000 L 250.000 326.000 250.000 330.000 L 250.000 334.000 252.000 334.000 L 254.000 334.000 254.000 336.000 L 254.000 338.000 256.000 338.000 L 258.000 338.000 258.000 340.000 L 258.000 342.000 260.000 342.000 L 262.000 342.000 262.000 346.000 L 262.000 350.000 264.000 350.000 L 266.000 350.000 266.000 352.000 L 266.000 354.000 268.000 354.000 L 270.000 354.000 270.000 356.000 L 270.000 358.000 272.000 358.000 L 274.000 358.000 274.000 362.000 L 274.000 366.000 276.000 366.000 L 278.000 366.000 278.000 368.000 L 278.000 370.000 280.000 370.000 L 282.000 370.000 282.000 372.000 L 282.000 374.000 290.000 374.000 L 298.000 374.000 298.000 372.000 L 298.000 370.000 300.000 370.000 L 302.000 370.000 302.000 362.000 L 302.000 354.000 300.000 354.000 L 298.000 354.000 298.000 352.000 L 298.000 350.000 296.000 350.000 L 294.000 350.000 294.000 346.000 L 294.000 342.000 292.000 342.000 L 290.000 342.000 290.000 340.000 L 290.000 338.000 288.000 338.000 L 286.000 338.000 286.000 336.000 L 286.000 334.000 284.000 334.000 L 282.000 334.000 282.000 330.000 L 282.000 326.000 280.000 326.000 L 278.000 326.000 278.000 324.000 L 278.000 322.000 276.000 322.000 L 274.000 322.000 274.000 320.000 L 274.000 318.000 272.000 318.000 L 270.000 318.000 270.000 314.000 L 270.000 310.000 268.000 310.000 L 266.000 310.000 266.000 308.000 L 266.000 306.000 264.000 306.000 L 262.000 306.000 262.000 304.000 L 262.000 302.000 260.000 302.000 L 258.000 302.000 258.000 298.000 L 258.000 294.000 256.000 294.000 L 254.000 294.000 254.000 292.000 L 254.000 290.000 252.000 290.000 L 250.000 290.000 250.000 288.000 L 250.000 286.000 248.000 286.000 L 246.000 286.000 246.000 282.000 L 246.000 278.000 244.000 278.000 L 242.000 278.000 242.000 276.000 L 242.000 274.000 240.000 274.000 L 238.000 274.000 238.000 272.000 L 238.000 270.000 236.000 270.000 L 234.000 270.000 234.000 266.000 L 234.000 262.000 232.000 262.000 L 230.000 262.000 230.000 260.000 L 230.000 258.000 228.000 258.000 L 226.000 258.000 226.000 256.000 L 226.000 254.000 224.000 254.000 L 222.000 254.000 222.000 250.000 L 222.000 246.000 220.000 246.000 L 218.000 246.000 218.000 244.000 L 218.000 242.000 216.000 242.000 L 214.000 242.000 214.000 240.000 L 214.000 238.000 212.000 238.000 L 210.000 238.000 210.000 234.000 L 210.000 230.000 208.000 230.000 C 206.267 230.000,206.000 229.893,206.000 229.200 C 206.000 228.389,205.471 228.235,203.177 228.380 C 202.088 228.448,200.211 226.895,199.794 225.580 C 199.665 225.174,199.226 224.735,198.820 224.606 C 196.989 224.025,196.000 222.400,196.000 219.974 C 196.000 217.795,195.386 216.400,194.426 216.400 C 193.274 216.400,192.100 214.331,192.435 212.890 C 192.808 211.285,192.937 34.750,192.566 33.369 C 191.946 31.061,188.791 30.990,187.703 33.260 C 187.161 34.391,186.385 35.134,185.057 35.796 C 184.586 36.031,183.976 36.690,183.703 37.260 C 183.161 38.391,182.385 39.134,181.057 39.796 C 180.586 40.031,179.976 40.690,179.703 41.260 C 179.162 42.389,178.385 43.134,177.065 43.792 C 176.598 44.025,176.025 44.598,175.792 45.065 C 175.133 46.388,174.389 47.162,173.252 47.706 C 172.678 47.982,171.982 48.678,171.706 49.252 C 171.162 50.389,170.388 51.133,169.065 51.792 C 168.598 52.025,168.025 52.598,167.792 53.065 C 167.134 54.385,166.389 55.162,165.260 55.703 C 164.690 55.976,164.031 56.586,163.796 57.057 C 163.134 58.385,162.391 59.161,161.260 59.703 C 160.690 59.976,160.031 60.586,159.796 61.057 C 159.134 62.385,158.391 63.161,157.260 63.703 C 156.690 63.976,156.031 64.586,155.796 65.057 C 155.134 66.385,154.391 67.161,153.260 67.703 C 152.690 67.976,152.031 68.586,151.796 69.057 C 151.134 70.385,150.391 71.161,149.260 71.703 C 148.690 71.976,148.031 72.586,147.796 73.057 C 147.134 74.385,146.391 75.161,145.260 75.703 C 144.690 75.976,144.031 76.586,143.796 77.057 C 143.134 78.385,142.391 79.161,141.260 79.703 C 140.690 79.976,140.031 80.586,139.796 81.057 C 139.134 82.385,138.391 83.161,137.260 83.703 C 136.690 83.976,136.031 84.586,135.796 85.057 C 135.134 86.385,134.391 87.161,133.260 87.703 C 132.690 87.976,132.031 88.586,131.796 89.057 C 131.133 90.388,130.391 91.161,129.252 91.706 C 128.678 91.982,127.982 92.678,127.706 93.252 C 127.161 94.391,126.388 95.133,125.057 95.796 C 124.586 96.031,123.976 96.690,123.703 97.260 C 123.161 98.391,122.385 99.134,121.057 99.796 C 120.586 100.031,119.976 100.690,119.703 101.260 C 119.162 102.389,118.385 103.134,117.065 103.792 C 116.598 104.025,116.016 104.616,115.772 105.105 C 114.961 106.733,113.897 107.600,112.712 107.600 C 112.071 107.600,111.219 107.776,110.818 107.990 C 109.446 108.725,108.001 106.707,107.994 104.045 C 107.987 101.469,107.860 101.207,106.131 100.202 C 104.433 99.215,103.883 98.058,104.059 95.844 C 104.201 94.062,104.168 94.000,103.103 94.000 C 102.046 94.000,102.000 93.916,102.000 92.000 L 102.000 90.000 100.000 90.000 L 98.000 90.000 98.000 86.000 L 98.000 82.000 96.000 82.000 L 94.000 82.000 94.000 80.000 L 94.000 78.000 92.000 78.000 L 90.000 78.000 90.000 76.000 L 90.000 74.000 88.000 74.000 L 86.000 74.000 86.000 70.000 L 86.000 66.000 84.000 66.000 L 82.000 66.000 82.000 64.000 L 82.000 62.000 80.000 62.000 L 78.000 62.000 78.000 60.000 L 78.000 58.000 76.000 58.000 L 74.000 58.000 74.000 54.000 L 74.000 50.000 72.000 50.000 L 70.000 50.000 70.000 48.000 L 70.000 46.000 68.000 46.000 L 66.000 46.000 66.000 44.000 L 66.000 42.000 64.000 42.000 L 62.000 42.000 62.000 38.000 L 62.000 34.000 60.000 34.000 L 58.000 34.000 58.000 32.000 L 58.000 30.000 56.000 30.000 L 54.000 30.000 54.000 28.000 L 54.000 26.000 52.000 26.000 L 50.000 26.000 50.000 22.000 L 50.000 18.000 48.000 18.000 L 46.000 18.000 46.000 16.000 L 46.000 14.000 44.000 14.000 L 42.000 14.000 42.000 12.000 L 42.000 10.000 34.000 10.000 L 26.000 10.000 26.000 12.000 M191.887 33.600 C 192.267 34.067,192.377 53.646,192.387 122.245 L 192.400 210.291 191.345 211.345 C 189.965 212.726,189.819 212.695,188.397 210.732 C 187.732 209.815,186.663 208.745,186.020 208.354 C 184.449 207.398,184.000 206.436,184.000 204.026 C 184.000 202.470,183.808 201.838,183.173 201.300 C 182.718 200.915,181.734 199.970,180.987 199.200 C 180.239 198.430,179.339 197.530,178.987 197.200 C 178.634 196.870,177.734 195.970,176.987 195.200 C 176.239 194.430,175.339 193.530,174.987 193.200 C 174.634 192.870,173.734 191.970,172.987 191.200 C 171.419 189.585,170.820 189.007,169.185 187.531 C 168.141 186.589,168.000 186.196,168.000 184.231 C 168.000 182.468,167.826 181.853,167.173 181.300 C 166.718 180.915,165.734 179.970,164.987 179.200 C 164.239 178.430,163.339 177.530,162.987 177.200 C 162.634 176.870,161.734 175.970,160.987 175.200 C 159.419 173.585,158.820 173.007,157.185 171.531 C 156.141 170.589,156.000 170.196,156.000 168.231 C 156.000 166.468,155.826 165.853,155.173 165.300 C 154.718 164.915,153.734 163.970,152.987 163.200 C 152.239 162.430,151.339 161.530,150.987 161.200 C 150.634 160.870,149.734 159.970,148.987 159.200 C 147.452 157.619,146.999 157.182,145.242 155.588 C 144.136 154.585,144.000 154.218,144.000 152.231 C 144.000 150.468,143.826 149.853,143.173 149.300 C 142.718 148.915,141.734 147.970,140.987 147.200 C 140.239 146.430,139.339 145.530,138.987 145.200 C 138.634 144.870,137.734 143.970,136.987 143.200 C 135.452 141.619,134.999 141.182,133.242 139.588 C 132.136 138.585,132.000 138.218,132.000 136.231 C 132.000 134.468,131.826 133.853,131.173 133.300 C 130.718 132.915,129.734 131.970,128.987 131.200 C 128.239 130.430,127.339 129.530,126.987 129.200 C 126.634 128.870,125.734 127.970,124.987 127.200 C 123.452 125.619,122.999 125.182,121.242 123.588 C 120.136 122.585,120.000 122.218,120.000 120.231 C 120.000 118.046,119.142 116.400,118.003 116.400 C 117.784 116.400,117.061 115.650,116.397 114.732 C 115.732 113.815,114.663 112.745,114.020 112.354 C 112.041 111.150,111.513 108.400,113.260 108.400 C 113.497 108.400,130.882 91.205,151.891 70.189 C 192.598 29.470,190.266 31.604,191.887 33.600 M90.848 116.426 C 91.285 116.660,91.963 117.377,92.354 118.020 C 92.745 118.663,93.815 119.732,94.732 120.397 L 96.400 121.605 96.400 199.928 L 96.400 278.250 95.278 279.325 L 94.156 280.400 82.133 280.400 L 70.109 280.400 69.055 279.345 L 68.000 278.291 68.000 198.127 L 68.000 117.964 68.982 116.982 L 69.964 116.000 80.008 116.000 C 86.341 116.000,90.346 116.157,90.848 116.426 M110.848 140.426 C 111.285 140.660,111.963 141.377,112.354 142.020 C 112.745 142.663,113.815 143.732,114.732 144.397 C 116.359 145.575,116.400 145.662,116.400 147.926 C 116.400 150.441,116.643 150.892,118.873 152.523 C 119.683 153.115,120.457 153.951,120.594 154.380 C 120.730 154.809,121.481 155.555,122.262 156.038 C 123.043 156.521,123.993 157.428,124.373 158.052 C 124.753 158.677,125.815 159.732,126.732 160.397 C 128.359 161.575,128.400 161.662,128.400 163.926 C 128.400 166.441,128.643 166.892,130.873 168.523 C 131.683 169.115,132.454 169.939,132.586 170.355 C 132.718 170.771,133.547 171.588,134.429 172.172 C 135.311 172.755,136.236 173.680,136.485 174.226 C 136.734 174.773,137.555 175.601,138.310 176.068 C 139.065 176.534,139.993 177.428,140.373 178.052 C 140.753 178.677,141.815 179.732,142.732 180.397 C 144.359 181.575,144.400 181.662,144.400 183.926 C 144.400 186.441,144.643 186.892,146.873 188.523 C 147.683 189.115,148.457 189.951,148.594 190.380 C 148.730 190.809,149.481 191.555,150.262 192.038 C 151.043 192.521,151.993 193.428,152.373 194.052 C 152.753 194.677,153.815 195.732,154.732 196.397 C 156.359 197.575,156.400 197.662,156.400 199.926 C 156.400 202.441,156.643 202.892,158.873 204.523 C 159.683 205.115,160.457 205.951,160.594 206.380 C 160.730 206.809,161.481 207.555,162.262 208.038 C 163.043 208.521,163.993 209.428,164.373 210.052 C 164.753 210.677,165.815 211.732,166.732 212.397 C 168.359 213.575,168.400 213.662,168.400 215.926 C 168.400 218.441,168.643 218.892,170.873 220.523 C 171.683 221.115,172.457 221.951,172.594 222.380 C 172.730 222.809,173.481 223.555,174.262 224.038 C 175.043 224.521,175.993 225.428,176.373 226.052 C 176.753 226.677,177.815 227.732,178.732 228.397 C 180.359 229.575,180.400 229.662,180.400 231.926 C 180.400 234.441,180.643 234.892,182.873 236.523 C 183.683 237.115,184.457 237.951,184.594 238.380 C 184.730 238.809,185.481 239.555,186.262 240.038 C 187.043 240.521,187.993 241.428,188.373 242.052 C 188.753 242.677,189.815 243.732,190.732 244.397 L 192.400 245.605 192.400 303.928 L 192.400 362.250 191.259 363.343 L 190.119 364.436 189.159 363.351 C 188.632 362.754,187.570 361.664,186.800 360.928 C 186.030 360.191,185.247 359.429,185.060 359.234 C 184.873 359.040,184.000 358.160,183.120 357.280 C 182.240 356.400,181.340 355.500,181.120 355.280 C 180.900 355.060,180.000 354.160,179.120 353.280 C 178.240 352.400,177.340 351.500,177.120 351.280 C 176.900 351.060,176.000 350.160,175.120 349.280 C 174.240 348.400,173.340 347.500,173.120 347.280 C 172.900 347.060,172.000 346.160,171.120 345.280 C 170.240 344.400,169.340 343.500,169.120 343.280 C 168.900 343.060,168.000 342.160,167.120 341.280 C 166.240 340.400,165.340 339.500,165.120 339.280 C 164.900 339.060,164.000 338.160,163.120 337.280 C 162.240 336.400,161.340 335.500,161.120 335.280 C 160.900 335.060,160.000 334.160,159.120 333.280 C 158.240 332.400,157.340 331.500,157.120 331.280 C 156.900 331.060,156.000 330.160,155.120 329.280 C 154.240 328.400,153.340 327.500,153.120 327.280 C 152.900 327.060,152.000 326.160,151.120 325.280 C 150.240 324.400,149.340 323.500,149.120 323.280 C 148.900 323.060,148.000 322.160,147.120 321.280 C 146.240 320.400,145.340 319.500,145.120 319.280 C 144.900 319.060,144.000 318.160,143.120 317.280 C 142.240 316.400,141.340 315.500,141.120 315.280 C 140.900 315.060,140.000 314.160,139.120 313.280 C 138.240 312.400,137.340 311.500,137.120 311.280 C 136.900 311.060,136.000 310.160,135.120 309.280 C 134.240 308.400,133.340 307.500,133.120 307.280 C 132.900 307.060,132.000 306.160,131.120 305.280 C 130.240 304.400,129.340 303.500,129.120 303.280 C 128.900 303.060,128.000 302.160,127.120 301.280 C 126.240 300.400,125.340 299.500,125.120 299.280 C 124.900 299.060,124.000 298.160,123.120 297.280 C 122.240 296.400,121.340 295.500,121.120 295.280 C 120.900 295.060,120.000 294.160,119.120 293.280 C 118.240 292.400,117.340 291.500,117.120 291.280 C 116.900 291.060,116.027 290.187,115.180 289.340 C 114.333 288.493,113.453 287.620,113.226 287.400 C 112.998 287.180,112.209 286.370,111.472 285.600 C 110.736 284.830,109.652 283.775,109.064 283.255 L 107.993 282.310 108.097 211.723 C 108.198 142.373,108.214 141.126,108.976 140.568 C 109.906 139.888,109.852 139.892,110.848 140.426 " stroke="none" fill="#ec1c24" fill-rule="evenodd"></path><path id="path2" d="M190.000 8.000 L 190.000 10.000 188.000 10.000 L 186.000 10.000 186.000 12.000 L 186.000 14.000 184.000 14.000 L 182.000 14.000 182.000 16.000 L 182.000 18.000 180.000 18.000 L 178.000 18.000 178.000 20.000 L 178.000 22.000 176.000 22.000 L 174.000 22.000 174.000 24.000 L 174.000 26.000 172.000 26.000 L 170.000 26.000 170.000 28.000 L 170.000 30.000 168.000 30.000 L 166.000 30.000 166.000 32.000 L 166.000 34.000 164.000 34.000 L 162.000 34.000 162.000 36.000 L 162.000 38.000 160.000 38.000 L 158.000 38.000 158.000 40.000 L 158.000 42.000 156.000 42.000 L 154.000 42.000 154.000 44.000 L 154.000 46.000 152.000 46.000 L 150.000 46.000 150.000 48.000 L 150.000 50.000 148.000 50.000 L 146.000 50.000 146.000 52.000 L 146.000 54.000 144.000 54.000 L 142.000 54.000 142.000 56.000 L 142.000 58.000 140.000 58.000 L 138.000 58.000 138.000 60.000 L 138.000 62.000 136.000 62.000 L 134.000 62.000 134.000 64.000 L 134.000 66.000 132.000 66.000 L 130.000 66.000 130.000 68.000 L 130.000 70.000 128.000 70.000 L 126.000 70.000 126.000 72.000 L 126.000 74.000 124.000 74.000 L 122.000 74.000 122.000 76.000 L 122.000 78.000 120.000 78.000 L 118.000 78.000 118.000 80.000 L 118.000 82.000 116.000 82.000 L 114.000 82.000 114.000 84.000 L 114.000 86.000 112.000 86.000 L 110.000 86.000 110.000 88.000 L 110.000 90.000 108.000 90.000 L 106.000 90.000 106.000 91.972 C 106.000 93.713,105.894 93.959,105.100 94.072 C 103.038 94.365,103.791 98.841,106.131 100.202 C 107.860 101.207,107.987 101.469,107.994 104.045 C 108.001 106.707,109.446 108.725,110.818 107.990 C 111.219 107.776,112.071 107.600,112.712 107.600 C 113.899 107.600,114.961 106.732,115.776 105.097 C 116.022 104.604,116.690 103.976,117.260 103.703 C 118.391 103.161,119.134 102.385,119.796 101.057 C 120.031 100.586,120.690 99.976,121.260 99.703 C 122.391 99.161,123.134 98.385,123.796 97.057 C 124.031 96.586,124.690 95.976,125.260 95.703 C 126.391 95.161,127.134 94.385,127.796 93.057 C 128.031 92.586,128.690 91.976,129.260 91.703 C 130.391 91.161,131.134 90.385,131.796 89.057 C 132.031 88.586,132.690 87.976,133.260 87.703 C 134.391 87.161,135.134 86.385,135.796 85.057 C 136.031 84.586,136.690 83.976,137.260 83.703 C 138.391 83.161,139.134 82.385,139.796 81.057 C 140.031 80.586,140.690 79.976,141.260 79.703 C 142.389 79.162,143.134 78.385,143.792 77.065 C 144.025 76.598,144.598 76.025,145.065 75.792 C 146.385 75.134,147.162 74.389,147.703 73.260 C 147.976 72.690,148.586 72.031,149.057 71.796 C 150.388 71.133,151.161 70.391,151.706 69.252 C 151.982 68.678,152.678 67.982,153.252 67.706 C 154.391 67.161,155.133 66.388,155.796 65.057 C 156.031 64.586,156.690 63.976,157.260 63.703 C 158.391 63.161,159.134 62.385,159.796 61.057 C 160.031 60.586,160.690 59.976,161.260 59.703 C 162.391 59.161,163.134 58.385,163.796 57.057 C 164.031 56.586,164.690 55.976,165.260 55.703 C 166.391 55.161,167.134 54.385,167.796 53.057 C 168.031 52.586,168.690 51.976,169.260 51.703 C 170.391 51.161,171.134 50.385,171.796 49.057 C 172.031 48.586,172.690 47.976,173.260 47.703 C 174.391 47.161,175.134 46.385,175.796 45.057 C 176.031 44.586,176.690 43.976,177.260 43.703 C 178.389 43.162,179.134 42.385,179.792 41.065 C 180.025 40.598,180.598 40.025,181.065 39.792 C 182.385 39.134,183.162 38.389,183.703 37.260 C 183.976 36.690,184.586 36.031,185.057 35.796 C 186.385 35.134,187.161 34.391,187.703 33.260 C 188.791 30.990,191.946 31.061,192.566 33.369 C 192.937 34.750,192.808 211.285,192.435 212.890 C 192.100 214.331,193.274 216.400,194.426 216.400 C 195.386 216.400,196.000 217.795,196.000 219.974 C 196.000 222.400,196.989 224.025,198.820 224.606 C 199.226 224.735,199.665 225.174,199.794 225.580 C 200.337 227.290,201.971 228.354,204.031 228.338 L 206.000 228.323 206.000 117.162 L 206.000 6.000 198.000 6.000 L 190.000 6.000 190.000 8.000 M54.000 198.000 L 54.000 294.000 76.000 294.000 L 98.000 294.000 98.000 296.000 L 98.000 298.000 100.000 298.000 L 102.000 298.000 102.000 300.000 L 102.000 302.000 104.000 302.000 L 106.000 302.000 106.000 304.000 L 106.000 306.000 108.000 306.000 L 110.000 306.000 110.000 308.000 L 110.000 310.000 112.000 310.000 L 114.000 310.000 114.000 312.000 L 114.000 314.000 116.000 314.000 L 118.000 314.000 118.000 316.000 L 118.000 318.000 120.000 318.000 L 122.000 318.000 122.000 320.000 L 122.000 322.000 124.000 322.000 L 126.000 322.000 126.000 324.000 L 126.000 326.000 128.000 326.000 L 130.000 326.000 130.000 328.000 L 130.000 330.000 132.000 330.000 L 134.000 330.000 134.000 332.000 L 134.000 334.000 136.000 334.000 L 138.000 334.000 138.000 336.000 L 138.000 338.000 140.000 338.000 L 142.000 338.000 142.000 340.000 L 142.000 342.000 144.000 342.000 L 146.000 342.000 146.000 344.000 L 146.000 346.000 148.000 346.000 L 150.000 346.000 150.000 348.000 L 150.000 350.000 152.000 350.000 L 154.000 350.000 154.000 352.000 L 154.000 354.000 156.000 354.000 L 158.000 354.000 158.000 356.000 L 158.000 358.000 160.000 358.000 L 162.000 358.000 162.000 360.000 L 162.000 362.000 164.000 362.000 L 166.000 362.000 166.000 364.000 L 166.000 366.000 168.000 366.000 L 170.000 366.000 170.000 368.000 L 170.000 370.000 172.000 370.000 L 174.000 370.000 174.000 372.000 L 174.000 374.000 176.000 374.000 L 178.000 374.000 178.000 376.000 L 178.000 378.000 180.000 378.000 L 182.000 378.000 182.000 380.000 L 182.000 382.000 184.000 382.000 L 186.000 382.000 186.000 384.000 L 186.000 386.000 188.000 386.000 L 190.000 386.000 190.000 388.000 L 190.000 390.000 198.000 390.000 L 206.000 390.000 206.000 329.931 C 206.000 273.664,205.956 269.815,205.311 269.102 C 204.830 268.570,204.583 267.480,204.489 265.471 C 204.329 262.041,203.925 261.101,202.212 260.178 C 201.500 259.795,200.603 258.897,200.218 258.182 C 199.833 257.467,198.906 256.552,198.157 256.149 C 197.408 255.746,196.700 255.115,196.584 254.748 C 196.467 254.381,195.892 253.601,195.306 253.015 L 194.241 251.950 193.529 252.875 C 192.855 253.751,192.817 256.678,192.809 308.318 L 192.800 362.836 191.780 363.856 C 190.911 364.726,189.040 364.964,188.555 364.267 C 188.529 364.230,188.033 363.438,187.454 362.508 C 186.874 361.577,185.987 360.712,185.483 360.585 C 184.970 360.456,184.098 359.579,183.501 358.590 C 182.892 357.582,182.033 356.723,181.501 356.590 C 180.968 356.456,180.109 355.597,179.501 354.590 C 178.892 353.582,178.033 352.723,177.501 352.590 C 176.968 352.456,176.109 351.597,175.501 350.590 C 174.892 349.582,174.033 348.723,173.501 348.590 C 172.968 348.456,172.109 347.597,171.501 346.590 C 170.892 345.582,170.033 344.723,169.501 344.590 C 168.968 344.456,168.109 343.597,167.501 342.590 C 166.892 341.582,166.033 340.723,165.501 340.590 C 164.968 340.456,164.109 339.597,163.501 338.590 C 162.892 337.582,162.033 336.723,161.501 336.590 C 160.968 336.456,160.109 335.597,159.501 334.590 C 158.892 333.582,158.033 332.723,157.501 332.590 C 156.968 332.456,156.109 331.597,155.501 330.590 C 154.892 329.582,154.033 328.723,153.501 328.590 C 152.968 328.456,152.109 327.597,151.501 326.590 C 150.892 325.582,150.033 324.723,149.501 324.590 C 148.968 324.456,148.109 323.597,147.501 322.590 C 146.892 321.582,146.033 320.723,145.501 320.590 C 144.968 320.456,144.109 319.597,143.501 318.590 C 142.892 317.582,142.033 316.723,141.501 316.590 C 140.968 316.456,140.109 315.597,139.501 314.590 C 138.892 313.582,138.033 312.723,137.501 312.590 C 136.968 312.456,136.109 311.597,135.501 310.590 C 134.892 309.582,134.033 308.723,133.501 308.590 C 132.968 308.456,132.109 307.597,131.501 306.590 C 130.892 305.582,130.033 304.723,129.501 304.590 C 128.968 304.456,128.109 303.597,127.501 302.590 C 126.892 301.582,126.033 300.723,125.501 300.590 C 124.968 300.456,124.109 299.597,123.501 298.590 C 122.892 297.582,122.033 296.723,121.501 296.590 C 120.968 296.456,120.109 295.597,119.501 294.590 C 118.892 293.582,118.033 292.723,117.501 292.590 C 116.968 292.456,116.109 291.597,115.501 290.590 C 114.892 289.582,114.033 288.723,113.501 288.590 C 112.968 288.456,112.109 287.597,111.501 286.590 C 110.870 285.545,110.037 284.724,109.463 284.580 C 107.002 283.962,107.147 288.862,107.280 210.800 C 107.373 155.675,107.510 139.609,107.890 138.945 C 108.367 138.113,106.992 136.000,105.974 136.000 C 105.014 136.000,104.400 134.605,104.400 132.426 C 104.400 130.000,103.411 128.375,101.580 127.794 C 101.174 127.665,100.735 127.226,100.606 126.820 C 100.477 126.413,99.892 125.601,99.306 125.015 L 98.241 123.950 97.529 124.875 C 96.853 125.754,96.817 129.588,96.809 202.318 L 96.800 278.836 95.818 279.818 L 94.836 280.800 82.518 280.795 C 75.743 280.792,69.815 280.686,69.344 280.559 C 67.019 279.935,67.153 285.354,67.282 197.511 L 67.400 117.222 68.310 116.311 C 69.202 115.418,69.440 115.396,80.110 115.200 C 92.204 114.978,93.101 114.810,91.379 113.088 C 90.796 112.505,90.019 111.933,89.652 111.816 C 89.285 111.700,88.654 110.992,88.251 110.243 C 87.848 109.494,86.933 108.567,86.218 108.182 C 85.503 107.797,84.599 106.889,84.208 106.163 C 83.692 105.204,82.713 104.457,80.619 103.423 L 77.740 102.000 65.870 102.000 L 54.000 102.000 54.000 198.000 " stroke="none" fill="#040404" fill-rule="evenodd"></path><path id="path3" d="" stroke="none" fill="#78c8100" fill-rule="evenodd"></path><path id="path4" d="" stroke="none" fill="#78c8100" fill-rule="evenodd"></path></g></svg>