<svg id="svg" version="1.1" xmlns="http://www.w3.org/2000/svg" xmlns:xlink="http://www.w3.org/1999/xlink" width="400" height="236.68639053254438" viewBox="0, 0, 400,236.68639053254438"><g id="svgg"><path id="path0" d="M81.338 8.007 C 80.715 8.696,80.737 95.765,81.361 96.239 C 81.702 96.498,90.535 96.554,131.535 96.561 L 181.296 96.568 181.872 95.656 C 182.188 95.154,182.829 94.519,183.295 94.244 L 184.142 93.744 184.142 91.235 C 184.142 88.389,184.268 88.036,185.572 87.213 C 186.480 86.640,186.509 86.581,186.509 85.307 C 186.509 83.693,186.740 83.235,187.939 82.479 C 188.847 81.906,188.876 81.847,188.876 80.573 C 188.876 78.960,189.107 78.502,190.306 77.745 C 191.214 77.172,191.243 77.113,191.243 75.839 C 191.243 74.226,191.474 73.768,192.673 73.011 C 193.590 72.432,193.609 72.391,193.609 71.035 C 193.609 69.546,194.116 68.574,195.045 68.279 C 195.306 68.196,195.782 67.714,196.102 67.207 C 196.422 66.700,197.002 66.121,197.391 65.920 C 197.780 65.719,198.267 65.229,198.472 64.831 C 198.678 64.434,199.216 63.890,199.668 63.624 C 200.121 63.357,200.650 62.831,200.844 62.455 C 201.038 62.080,201.620 61.506,202.137 61.179 C 203.064 60.594,203.077 60.566,203.077 59.150 C 203.077 57.843,203.143 57.656,203.815 57.052 C 204.747 56.214,205.326 55.635,206.164 54.703 C 206.768 54.030,206.955 53.964,208.263 53.964 C 209.678 53.964,209.706 53.951,210.292 53.024 C 210.618 52.507,211.203 51.920,211.592 51.719 C 211.981 51.518,212.468 51.028,212.673 50.630 C 212.879 50.233,213.417 49.689,213.869 49.422 C 214.322 49.155,214.851 48.630,215.045 48.254 C 215.239 47.879,215.813 47.310,216.319 46.990 C 216.826 46.670,217.309 46.194,217.392 45.932 C 217.686 45.003,218.659 44.497,220.147 44.497 C 221.503 44.497,221.545 44.477,222.124 43.560 C 222.880 42.362,223.338 42.130,224.952 42.130 C 226.226 42.130,226.285 42.101,226.857 41.194 C 227.614 39.995,228.072 39.763,229.686 39.763 C 230.959 39.763,231.018 39.734,231.591 38.827 C 232.348 37.628,232.806 37.396,234.419 37.396 C 235.693 37.396,235.752 37.367,236.325 36.460 C 237.148 35.156,237.502 35.030,240.337 35.030 L 242.834 35.030 243.426 34.093 C 244.324 32.670,244.361 32.663,250.987 32.663 L 257.035 32.663 257.627 31.726 C 258.563 30.243,258.348 30.273,267.769 30.347 C 277.161 30.420,276.488 30.315,277.590 31.883 L 278.123 32.641 284.345 32.711 C 291.113 32.787,290.704 32.703,291.785 34.240 L 292.311 34.989 294.990 35.068 C 297.850 35.153,297.869 35.161,298.880 36.599 C 299.355 37.276,299.535 37.349,300.932 37.438 C 302.462 37.536,303.432 38.115,303.432 38.931 C 303.432 39.373,304.383 39.724,305.855 39.826 C 307.205 39.920,308.166 40.532,308.166 41.298 C 308.166 41.740,309.117 42.091,310.588 42.193 C 311.938 42.286,312.899 42.899,312.899 43.665 C 312.899 44.107,313.851 44.458,315.322 44.560 C 316.634 44.651,317.633 45.263,317.633 45.975 C 317.633 46.233,318.600 47.081,318.907 47.093 C 319.173 47.103,320.000 48.048,320.000 48.341 C 320.000 48.599,320.967 49.448,321.274 49.460 C 321.566 49.471,322.367 50.428,322.367 50.765 C 322.367 51.207,323.318 51.559,324.790 51.660 C 326.101 51.751,327.101 52.363,327.101 53.075 C 327.101 53.333,328.067 54.182,328.375 54.193 C 328.640 54.203,329.467 55.148,329.467 55.442 C 329.467 55.700,330.434 56.549,330.741 56.560 C 331.007 56.570,331.834 57.515,331.834 57.809 C 331.834 58.067,332.801 58.915,333.108 58.927 C 333.727 58.950,334.201 60.007,334.201 61.359 C 334.201 62.725,334.703 63.632,335.475 63.661 C 335.741 63.671,336.568 64.616,336.568 64.910 C 336.568 65.168,337.535 66.016,337.842 66.028 C 338.108 66.038,338.935 66.983,338.935 67.276 C 338.935 67.534,339.902 68.383,340.209 68.394 C 340.827 68.418,341.302 69.474,341.302 70.827 C 341.302 72.193,341.803 73.099,342.576 73.128 C 343.194 73.152,343.669 74.208,343.669 75.560 C 343.669 76.927,344.170 77.833,344.943 77.862 C 345.208 77.872,346.036 78.817,346.036 79.111 C 346.036 79.369,347.002 80.217,347.310 80.229 C 348.094 80.258,348.402 81.278,348.402 83.844 C 348.402 86.457,348.708 87.293,349.676 87.329 C 350.461 87.359,350.769 88.379,350.769 90.945 C 350.769 93.557,351.075 94.393,352.043 94.430 C 352.976 94.465,353.136 95.341,353.136 100.412 C 353.136 105.595,353.273 106.221,354.410 106.264 C 355.469 106.304,355.503 106.681,355.503 118.390 L 355.503 129.489 354.940 130.011 C 354.630 130.298,354.098 130.724,353.757 130.958 L 353.136 131.383 353.136 136.353 C 353.136 141.869,353.227 141.533,351.390 142.792 C 350.784 143.208,350.769 143.278,350.769 145.821 C 350.769 148.653,350.743 148.714,349.023 149.893 C 348.417 150.308,348.402 150.378,348.402 152.919 C 348.402 155.321,348.362 155.555,347.870 155.983 C 347.317 156.463,346.121 157.641,345.351 158.462 C 345.107 158.722,344.629 159.126,344.288 159.360 C 343.736 159.739,343.669 159.940,343.669 161.205 C 343.669 162.707,343.472 163.032,341.922 164.094 C 341.379 164.466,341.302 164.682,341.302 165.825 C 341.302 167.386,341.053 167.919,340.095 168.415 C 339.699 168.619,339.157 169.157,338.890 169.609 C 338.623 170.061,338.093 170.593,337.713 170.789 C 337.332 170.986,336.814 171.487,336.561 171.903 C 336.308 172.319,335.700 172.931,335.210 173.263 C 334.354 173.842,334.315 173.929,334.201 175.481 C 334.101 176.843,333.994 177.157,333.520 177.483 C 333.210 177.696,332.664 178.175,332.306 178.549 C 331.947 178.923,331.441 179.441,331.181 179.702 C 330.921 179.962,330.388 180.495,329.997 180.885 C 329.607 181.276,329.074 181.808,328.814 182.068 C 328.554 182.329,328.035 182.835,327.661 183.193 C 327.288 183.551,326.808 184.098,326.596 184.408 C 326.270 184.882,325.955 184.989,324.594 185.089 C 323.042 185.202,322.955 185.242,322.375 186.098 C 322.043 186.588,321.431 187.196,321.016 187.448 C 320.600 187.701,320.099 188.219,319.902 188.600 C 319.705 188.981,319.174 189.510,318.722 189.777 C 318.269 190.044,317.732 190.586,317.527 190.982 C 317.031 191.941,316.498 192.189,314.938 192.189 C 313.794 192.189,313.579 192.267,313.206 192.810 C 312.144 194.360,311.819 194.556,310.318 194.556 C 309.052 194.556,308.852 194.624,308.473 195.176 C 308.239 195.516,307.834 195.995,307.574 196.239 C 306.753 197.008,305.576 198.205,305.095 198.757 C 304.668 199.249,304.433 199.290,302.042 199.290 L 299.453 199.290 298.602 200.473 L 297.752 201.657 295.052 201.657 L 292.352 201.657 291.502 202.840 L 290.652 204.024 285.585 204.024 L 280.518 204.024 279.668 205.207 L 278.817 206.391 267.611 206.391 C 255.784 206.391,255.417 206.358,255.377 205.298 C 255.334 204.160,254.707 204.024,249.525 204.024 C 244.454 204.024,243.578 203.864,243.542 202.931 C 243.506 201.962,242.670 201.657,240.057 201.657 C 237.491 201.657,236.471 201.349,236.442 200.564 C 236.405 199.596,235.569 199.290,232.957 199.290 C 230.390 199.290,229.371 198.982,229.341 198.197 C 229.330 197.890,228.481 196.923,228.223 196.923 C 227.929 196.923,226.984 196.096,226.974 195.830 C 226.945 195.058,226.039 194.556,224.673 194.556 C 223.320 194.556,222.264 194.082,222.241 193.463 C 222.212 192.691,221.305 192.189,219.939 192.189 C 218.586 192.189,217.530 191.715,217.507 191.096 C 217.495 190.789,216.647 189.822,216.389 189.822 C 216.095 189.822,215.150 188.995,215.140 188.730 C 215.128 188.422,214.280 187.456,214.022 187.456 C 213.728 187.456,212.783 186.629,212.773 186.363 C 212.744 185.590,211.838 185.089,210.472 185.089 C 209.119 185.089,208.063 184.614,208.039 183.996 C 208.028 183.689,207.179 182.722,206.921 182.722 C 206.628 182.722,205.683 181.895,205.673 181.629 C 205.661 181.322,204.812 180.355,204.554 180.355 C 204.261 180.355,203.316 179.528,203.306 179.262 C 203.294 178.955,202.446 177.988,202.188 177.988 C 201.476 177.988,200.864 176.989,200.773 175.677 C 200.671 174.206,200.320 173.254,199.878 173.254 C 199.540 173.254,198.583 172.453,198.572 172.162 C 198.560 171.854,197.712 170.888,197.454 170.888 C 197.160 170.888,196.215 170.060,196.205 169.795 C 196.194 169.488,195.345 168.521,195.087 168.521 C 194.375 168.521,193.763 167.521,193.672 166.210 C 193.571 164.738,193.219 163.787,192.777 163.787 C 192.011 163.787,191.399 162.826,191.305 161.476 C 191.204 160.005,190.852 159.053,190.410 159.053 C 189.644 159.053,189.032 158.092,188.939 156.742 C 188.837 155.271,188.485 154.320,188.044 154.320 C 187.277 154.320,186.665 153.358,186.572 152.009 C 186.470 150.537,186.119 149.586,185.677 149.586 C 184.654 149.586,184.262 148.659,184.192 146.075 C 184.124 143.583,183.854 142.485,183.310 142.485 C 182.972 142.485,182.015 141.684,182.004 141.392 C 182.000 141.277,181.796 140.944,181.552 140.651 L 181.108 140.118 131.419 140.118 C 83.582 140.118,81.716 140.134,81.338 140.551 C 80.715 141.241,80.737 228.309,81.361 228.783 C 81.943 229.224,391.701 229.270,392.142 228.828 C 392.583 228.387,392.538 8.570,392.097 7.988 C 391.594 7.327,81.937 7.345,81.338 8.007 " stroke="none" fill="#ec1c24" fill-rule="evenodd"></path><path id="path1" d="M72.189 47.929 L 72.189 95.858 36.095 95.858 L 0.000 95.858 0.000 118.343 L 0.000 140.828 36.095 140.828 L 72.189 140.828 72.189 188.757 L 72.189 236.686 236.095 236.686 L 400.000 236.686 400.000 118.343 L 400.000 0.000 236.095 0.000 L 72.189 0.000 72.189 47.929 M392.527 7.709 C 393.187 8.368,393.086 228.453,392.426 229.112 C 391.766 229.772,81.742 229.873,81.082 229.214 C 80.590 228.722,80.503 140.656,80.994 140.166 C 81.315 139.845,181.206 139.743,181.675 140.063 C 181.815 140.158,182.122 140.568,182.358 140.974 C 182.593 141.379,183.118 141.904,183.523 142.139 C 184.586 142.757,184.608 142.827,184.612 145.589 C 184.615 148.087,185.098 149.349,186.051 149.349 C 186.619 149.349,186.982 150.175,186.982 151.464 C 186.982 152.781,187.696 154.083,188.418 154.083 C 188.986 154.083,189.349 154.908,189.349 156.198 C 189.349 157.515,190.063 158.817,190.785 158.817 C 191.352 158.817,191.716 159.642,191.716 160.931 C 191.716 162.248,192.430 163.550,193.151 163.550 C 193.719 163.550,194.083 164.376,194.083 165.665 C 194.083 167.082,194.667 168.062,195.709 168.393 C 195.926 168.462,196.299 168.880,196.538 169.324 C 196.776 169.767,197.318 170.315,197.741 170.543 C 198.164 170.771,198.692 171.295,198.914 171.708 C 199.137 172.121,199.658 172.657,200.074 172.898 C 201.101 173.496,201.176 173.649,201.180 175.175 C 201.184 176.547,201.783 177.534,202.810 177.860 C 203.027 177.929,203.400 178.348,203.638 178.791 C 203.877 179.234,204.418 179.783,204.841 180.011 C 205.264 180.239,205.797 180.771,206.025 181.194 C 206.253 181.617,206.801 182.159,207.245 182.397 C 207.688 182.636,208.106 183.009,208.175 183.226 C 208.501 184.252,209.489 184.852,210.861 184.856 C 212.386 184.860,212.540 184.935,213.137 185.962 C 213.379 186.377,213.914 186.899,214.327 187.121 C 214.740 187.344,215.264 187.872,215.492 188.295 C 215.720 188.718,216.269 189.259,216.712 189.498 C 217.155 189.736,217.574 190.109,217.643 190.327 C 217.974 191.368,218.954 191.953,220.370 191.953 C 221.660 191.953,222.485 192.316,222.485 192.884 C 222.485 193.592,223.788 194.320,225.062 194.323 C 226.587 194.327,226.741 194.402,227.338 195.429 C 227.580 195.845,228.132 196.375,228.565 196.608 C 228.998 196.841,229.408 197.210,229.477 197.427 C 229.886 198.717,230.696 199.053,233.388 199.053 C 235.879 199.053,236.686 199.281,236.686 199.985 C 236.686 200.945,237.945 201.420,240.489 201.420 C 242.979 201.420,243.787 201.648,243.787 202.351 C 243.787 202.455,244.068 202.820,244.411 203.163 L 245.035 203.787 249.956 203.787 C 254.910 203.787,255.621 203.904,255.621 204.718 C 255.621 204.821,255.902 205.187,256.245 205.530 L 256.869 206.154 267.506 206.154 L 278.143 206.154 278.776 205.494 C 279.124 205.131,279.526 204.625,279.671 204.370 C 279.916 203.935,280.249 203.901,284.960 203.841 L 289.987 203.777 290.615 203.122 C 290.960 202.762,291.360 202.258,291.505 202.003 C 291.737 201.591,292.071 201.531,294.430 201.471 C 297.273 201.400,297.721 201.203,298.605 199.636 C 298.837 199.225,299.171 199.164,301.531 199.104 C 304.346 199.033,305.112 198.702,305.630 197.332 C 305.717 197.101,305.977 196.841,306.208 196.754 C 306.692 196.571,307.691 195.579,308.072 194.902 C 308.280 194.532,308.635 194.423,309.818 194.367 C 311.349 194.293,312.062 193.856,312.806 192.535 C 313.014 192.165,313.369 192.057,314.552 192.000 C 316.084 191.926,317.044 191.343,317.464 190.231 C 317.551 190.001,317.811 189.740,318.042 189.653 C 318.583 189.449,319.627 188.405,319.831 187.864 C 319.918 187.634,320.178 187.374,320.409 187.286 C 320.893 187.104,321.892 186.111,322.273 185.435 C 322.481 185.065,322.837 184.956,324.019 184.899 C 325.552 184.826,326.512 184.243,326.931 183.131 C 327.019 182.900,327.279 182.640,327.509 182.553 C 328.050 182.349,329.094 181.305,329.298 180.764 C 329.385 180.533,329.646 180.273,329.876 180.186 C 330.417 179.982,331.461 178.938,331.665 178.397 C 331.752 178.166,332.012 177.906,332.243 177.819 C 333.355 177.399,333.938 176.439,334.012 174.907 C 334.068 173.724,334.177 173.369,334.547 173.161 C 335.224 172.780,336.216 171.781,336.399 171.296 C 336.486 171.066,336.746 170.806,336.977 170.718 C 337.518 170.514,338.562 169.470,338.766 168.930 C 338.853 168.699,339.113 168.439,339.344 168.352 C 340.456 167.932,341.039 166.972,341.112 165.440 C 341.169 164.257,341.278 163.901,341.648 163.693 C 342.969 162.950,343.406 162.237,343.479 160.706 C 343.536 159.523,343.645 159.168,344.015 158.960 C 344.691 158.579,345.683 157.580,345.866 157.095 C 345.953 156.864,346.214 156.604,346.444 156.517 C 347.814 156.000,348.146 155.233,348.217 152.418 C 348.276 150.059,348.337 149.725,348.748 149.493 C 350.315 148.609,350.512 148.160,350.584 145.318 C 350.643 142.958,350.704 142.624,351.115 142.392 C 351.370 142.248,351.874 141.848,352.235 141.502 L 352.890 140.874 352.954 135.847 C 353.014 131.137,353.047 130.804,353.482 130.558 C 353.737 130.414,354.243 130.011,354.606 129.663 L 355.266 129.030 355.266 118.394 L 355.266 107.757 354.642 107.133 C 354.299 106.790,353.934 106.509,353.831 106.509 C 353.016 106.509,352.899 105.798,352.899 100.844 L 352.899 95.923 352.275 95.299 C 351.932 94.955,351.567 94.675,351.464 94.675 C 350.761 94.675,350.533 93.867,350.533 91.376 C 350.533 88.833,350.057 87.574,349.097 87.574 C 348.394 87.574,348.166 86.766,348.166 84.276 C 348.166 81.583,347.829 80.774,346.540 80.365 C 346.322 80.296,345.954 79.885,345.721 79.452 C 345.488 79.019,344.957 78.467,344.542 78.226 C 343.515 77.629,343.440 77.475,343.436 75.949 C 343.432 74.676,342.704 73.373,341.996 73.373 C 341.429 73.373,341.065 72.547,341.065 71.258 C 341.065 69.841,340.481 68.861,339.439 68.530 C 339.222 68.462,338.849 68.043,338.610 67.600 C 338.372 67.157,337.830 66.608,337.407 66.380 C 336.984 66.152,336.456 65.628,336.234 65.215 C 336.011 64.802,335.490 64.266,335.074 64.025 C 334.047 63.428,333.972 63.274,333.968 61.748 C 333.964 60.377,333.365 59.389,332.338 59.063 C 332.121 58.994,331.748 58.575,331.510 58.132 C 331.271 57.689,330.730 57.140,330.307 56.912 C 329.884 56.684,329.351 56.152,329.123 55.729 C 328.895 55.306,328.346 54.764,327.903 54.526 C 327.460 54.287,327.041 53.914,326.973 53.697 C 326.647 52.671,325.659 52.071,324.287 52.067 C 322.762 52.063,322.608 51.988,322.011 50.961 C 321.769 50.546,321.234 50.024,320.821 49.802 C 320.408 49.579,319.884 49.051,319.656 48.628 C 319.428 48.205,318.879 47.664,318.436 47.425 C 317.993 47.187,317.574 46.814,317.505 46.597 C 317.174 45.555,316.194 44.970,314.778 44.970 C 313.488 44.970,312.663 44.607,312.663 44.039 C 312.663 43.317,311.361 42.604,310.044 42.604 C 308.755 42.604,307.929 42.240,307.929 41.672 C 307.929 40.950,306.627 40.237,305.310 40.237 C 304.021 40.237,303.195 39.873,303.195 39.305 C 303.195 38.582,301.893 37.870,300.571 37.870 C 299.255 37.870,299.168 37.832,298.546 36.982 C 297.486 35.533,297.406 35.503,294.641 35.503 L 292.095 35.503 291.446 34.615 C 290.318 33.074,290.631 33.136,283.990 33.136 L 277.894 33.136 277.244 32.249 C 276.102 30.687,276.641 30.769,267.518 30.769 L 259.150 30.769 258.628 31.330 C 258.341 31.639,257.875 32.172,257.592 32.514 L 257.077 33.136 251.013 33.136 L 244.949 33.136 244.427 33.697 C 244.140 34.006,243.674 34.538,243.391 34.881 C 242.894 35.481,242.788 35.503,240.362 35.503 C 237.623 35.503,237.793 35.430,236.290 37.248 C 235.846 37.785,235.593 37.870,234.445 37.870 C 233.049 37.870,232.949 37.930,231.556 39.614 C 231.112 40.151,230.860 40.237,229.711 40.237 C 228.316 40.237,228.215 40.297,226.823 41.981 C 226.378 42.518,226.126 42.604,224.978 42.604 C 223.582 42.604,223.482 42.664,222.089 44.348 C 221.645 44.885,221.392 44.970,220.244 44.970 C 218.852 44.970,218.911 44.936,217.363 46.656 C 217.084 46.966,216.552 47.494,216.179 47.831 C 215.807 48.168,215.275 48.700,214.996 49.015 C 214.717 49.329,214.185 49.861,213.813 50.198 C 213.441 50.535,212.908 51.067,212.629 51.381 C 212.350 51.696,211.818 52.228,211.446 52.565 C 211.074 52.902,210.538 53.461,210.255 53.807 C 209.808 54.354,209.564 54.438,208.410 54.438 C 207.018 54.438,207.077 54.404,205.529 56.123 C 205.250 56.433,204.691 56.967,204.286 57.310 C 203.622 57.873,203.550 58.065,203.550 59.281 C 203.550 60.447,203.467 60.697,202.928 61.142 C 202.237 61.714,201.558 62.377,200.795 63.224 C 200.516 63.534,199.983 64.062,199.611 64.399 C 199.239 64.736,198.707 65.268,198.428 65.583 C 198.149 65.897,197.617 66.429,197.245 66.766 C 196.872 67.103,196.340 67.635,196.061 67.950 C 195.782 68.264,195.223 68.801,194.818 69.144 C 194.155 69.707,194.083 69.899,194.083 71.115 C 194.083 72.281,193.999 72.531,193.461 72.976 C 191.777 74.369,191.716 74.470,191.716 75.865 C 191.716 77.013,191.631 77.266,191.094 77.710 C 189.410 79.103,189.349 79.203,189.349 80.599 C 189.349 81.747,189.264 82.000,188.727 82.444 C 187.043 83.837,186.982 83.937,186.982 85.333 C 186.982 86.481,186.897 86.734,186.360 87.178 C 184.543 88.681,184.615 88.511,184.615 91.250 C 184.615 93.676,184.594 93.782,183.993 94.278 C 183.203 94.932,182.506 95.629,181.852 96.419 L 181.338 97.041 131.396 97.041 C 86.310 97.041,81.418 97.005,81.082 96.669 C 80.590 96.178,80.503 8.112,80.994 7.621 C 81.486 7.129,392.035 7.217,392.527 7.709 " stroke="none" fill="#040404" fill-rule="evenodd"></path><path id="path2" d="M80.994 7.621 C 80.503 8.112,80.590 96.178,81.082 96.669 C 81.418 97.005,86.310 97.041,131.396 97.041 L 181.338 97.041 181.852 96.419 C 182.135 96.077,182.593 95.571,182.869 95.295 C 183.145 95.019,183.651 94.561,183.993 94.278 C 184.594 93.782,184.615 93.676,184.615 91.250 C 184.615 88.511,184.543 88.681,186.360 87.178 C 186.897 86.734,186.982 86.481,186.982 85.333 C 186.982 83.937,187.043 83.837,188.727 82.444 C 189.264 82.000,189.349 81.747,189.349 80.599 C 189.349 79.203,189.410 79.103,191.094 77.710 C 191.631 77.266,191.716 77.013,191.716 75.865 C 191.716 74.470,191.777 74.369,193.461 72.976 C 193.999 72.531,194.083 72.281,194.083 71.115 C 194.083 69.899,194.155 69.707,194.818 69.144 C 195.223 68.801,195.782 68.264,196.061 67.950 C 196.340 67.635,196.872 67.103,197.245 66.766 C 197.617 66.429,198.149 65.897,198.428 65.583 C 198.707 65.268,199.239 64.736,199.611 64.399 C 199.983 64.062,200.516 63.534,200.795 63.224 C 201.558 62.377,202.237 61.714,202.928 61.142 C 203.467 60.697,203.550 60.447,203.550 59.281 C 203.550 58.065,203.622 57.873,204.286 57.310 C 204.691 56.967,205.250 56.433,205.529 56.123 C 207.077 54.404,207.018 54.438,208.410 54.438 C 209.564 54.438,209.808 54.354,210.255 53.807 C 210.538 53.461,211.074 52.902,211.446 52.565 C 211.818 52.228,212.350 51.696,212.629 51.381 C 212.908 51.067,213.441 50.535,213.813 50.198 C 214.185 49.861,214.717 49.329,214.996 49.015 C 215.275 48.700,215.807 48.168,216.179 47.831 C 216.552 47.494,217.084 46.966,217.363 46.656 C 218.911 44.936,218.852 44.970,220.244 44.970 C 221.392 44.970,221.645 44.885,222.089 44.348 C 223.482 42.664,223.582 42.604,224.978 42.604 C 226.126 42.604,226.378 42.518,226.823 41.981 C 228.215 40.297,228.316 40.237,229.711 40.237 C 230.860 40.237,231.112 40.151,231.556 39.614 C 232.949 37.930,233.049 37.870,234.445 37.870 C 235.593 37.870,235.846 37.785,236.290 37.248 C 237.793 35.430,237.623 35.503,240.362 35.503 C 242.788 35.503,242.894 35.481,243.391 34.881 C 243.674 34.538,244.140 34.006,244.427 33.697 L 244.949 33.136 251.013 33.136 L 257.077 33.136 257.592 32.514 C 257.875 32.172,258.341 31.639,258.628 31.330 L 259.150 30.769 267.518 30.769 C 276.641 30.769,276.102 30.687,277.244 32.249 L 277.894 33.136 283.990 33.136 C 290.631 33.136,290.318 33.074,291.446 34.615 L 292.095 35.503 294.641 35.503 C 297.406 35.503,297.486 35.533,298.546 36.982 C 299.168 37.832,299.255 37.870,300.571 37.870 C 301.893 37.870,303.195 38.582,303.195 39.305 C 303.195 39.873,304.021 40.237,305.310 40.237 C 306.627 40.237,307.929 40.950,307.929 41.672 C 307.929 42.240,308.755 42.604,310.044 42.604 C 311.361 42.604,312.663 43.317,312.663 44.039 C 312.663 44.607,313.488 44.970,314.778 44.970 C 316.194 44.970,317.174 45.555,317.505 46.597 C 317.574 46.814,317.993 47.187,318.436 47.425 C 318.879 47.664,319.428 48.205,319.656 48.628 C 319.884 49.051,320.408 49.579,320.821 49.802 C 321.234 50.024,321.769 50.546,322.011 50.961 C 322.608 51.988,322.762 52.063,324.287 52.067 C 325.659 52.071,326.647 52.671,326.973 53.697 C 327.041 53.914,327.460 54.287,327.903 54.526 C 328.346 54.764,328.895 55.306,329.123 55.729 C 329.351 56.152,329.884 56.684,330.307 56.912 C 330.730 57.140,331.271 57.689,331.510 58.132 C 331.748 58.575,332.121 58.994,332.338 59.063 C 333.365 59.389,333.964 60.377,333.968 61.748 C 333.972 63.274,334.047 63.428,335.074 64.025 C 335.490 64.266,336.011 64.802,336.234 65.215 C 336.456 65.628,336.984 66.152,337.407 66.380 C 337.830 66.608,338.372 67.157,338.610 67.600 C 338.849 68.043,339.222 68.462,339.439 68.530 C 340.481 68.861,341.065 69.841,341.065 71.258 C 341.065 72.547,341.429 73.373,341.996 73.373 C 342.704 73.373,343.432 74.676,343.436 75.949 C 343.440 77.475,343.515 77.629,344.542 78.226 C 344.957 78.467,345.488 79.019,345.721 79.452 C 345.954 79.885,346.322 80.296,346.540 80.365 C 347.829 80.774,348.166 81.583,348.166 84.276 C 348.166 86.766,348.394 87.574,349.097 87.574 C 350.057 87.574,350.533 88.833,350.533 91.376 C 350.533 93.867,350.761 94.675,351.464 94.675 C 351.567 94.675,351.932 94.955,352.275 95.299 L 352.899 95.923 352.899 100.844 C 352.899 105.798,353.016 106.509,353.831 106.509 C 353.934 106.509,354.299 106.790,354.642 107.133 L 355.266 107.757 355.266 118.394 L 355.266 129.030 354.606 129.663 C 354.243 130.011,353.737 130.414,353.482 130.558 C 353.047 130.804,353.014 131.137,352.954 135.847 L 352.890 140.874 352.235 141.502 C 351.874 141.848,351.370 142.248,351.115 142.392 C 350.704 142.624,350.643 142.958,350.584 145.318 C 350.512 148.160,350.315 148.609,348.748 149.493 C 348.337 149.725,348.276 150.059,348.217 152.418 C 348.146 155.233,347.814 156.000,346.444 156.517 C 346.214 156.604,345.953 156.864,345.866 157.095 C 345.683 157.580,344.691 158.579,344.015 158.960 C 343.645 159.168,343.536 159.523,343.479 160.706 C 343.406 162.237,342.969 162.950,341.648 163.693 C 341.278 163.901,341.169 164.257,341.112 165.440 C 341.039 166.972,340.456 167.932,339.344 168.352 C 339.113 168.439,338.853 168.699,338.766 168.930 C 338.562 169.470,337.518 170.514,336.977 170.718 C 336.746 170.806,336.486 171.066,336.399 171.296 C 336.216 171.781,335.224 172.780,334.547 173.161 C 334.177 173.369,334.068 173.724,334.012 174.907 C 333.938 176.439,333.355 177.399,332.243 177.819 C 332.012 177.906,331.752 178.166,331.665 178.397 C 331.461 178.938,330.417 179.982,329.876 180.186 C 329.646 180.273,329.385 180.533,329.298 180.764 C 329.094 181.305,328.050 182.349,327.509 182.553 C 327.279 182.640,327.019 182.900,326.931 183.131 C 326.512 184.243,325.552 184.826,324.019 184.899 C 322.837 184.956,322.481 185.065,322.273 185.435 C 321.892 186.111,320.893 187.104,320.409 187.286 C 320.178 187.374,319.918 187.634,319.831 187.864 C 319.627 188.405,318.583 189.449,318.042 189.653 C 317.811 189.740,317.551 190.001,317.464 190.231 C 317.044 191.343,316.084 191.926,314.552 192.000 C 313.369 192.057,313.014 192.165,312.806 192.535 C 312.062 193.856,311.349 194.293,309.818 194.367 C 308.635 194.423,308.280 194.532,308.072 194.902 C 307.691 195.579,306.692 196.571,306.208 196.754 C 305.977 196.841,305.717 197.101,305.630 197.332 C 305.112 198.702,304.346 199.033,301.531 199.104 C 299.171 199.164,298.837 199.225,298.605 199.636 C 297.721 201.203,297.273 201.400,294.430 201.471 C 292.071 201.531,291.737 201.591,291.505 202.003 C 291.360 202.258,290.960 202.762,290.615 203.122 L 289.987 203.777 284.960 203.841 C 280.249 203.901,279.916 203.935,279.671 204.370 C 279.526 204.625,279.124 205.131,278.776 205.494 L 278.143 206.154 267.506 206.154 L 256.869 206.154 256.245 205.530 C 255.902 205.187,255.621 204.821,255.621 204.718 C 255.621 203.904,254.910 203.787,249.956 203.787 L 245.035 203.787 244.411 203.163 C 244.068 202.820,243.787 202.455,243.787 202.351 C 243.787 201.648,242.979 201.420,240.489 201.420 C 237.945 201.420,236.686 200.945,236.686 199.985 C 236.686 199.281,235.879 199.053,233.388 199.053 C 230.696 199.053,229.886 198.717,229.477 197.427 C 229.408 197.210,228.998 196.841,228.565 196.608 C 228.132 196.375,227.580 195.845,227.338 195.429 C 226.741 194.402,226.587 194.327,225.062 194.323 C 223.788 194.320,222.485 193.592,222.485 192.884 C 222.485 192.316,221.660 191.953,220.370 191.953 C 218.954 191.953,217.974 191.368,217.643 190.327 C 217.574 190.109,217.155 189.736,216.712 189.498 C 216.269 189.259,215.720 188.718,215.492 188.295 C 215.264 187.872,214.740 187.344,214.327 187.121 C 213.914 186.899,213.379 186.377,213.137 185.962 C 212.540 184.935,212.386 184.860,210.861 184.856 C 209.489 184.852,208.501 184.252,208.175 183.226 C 208.106 183.009,207.688 182.636,207.245 182.397 C 206.801 182.159,206.253 181.617,206.025 181.194 C 205.797 180.771,205.264 180.239,204.841 180.011 C 204.418 179.783,203.877 179.234,203.638 178.791 C 203.400 178.348,203.027 177.929,202.810 177.860 C 201.783 177.534,201.184 176.547,201.180 175.175 C 201.176 173.649,201.101 173.496,200.074 172.898 C 199.658 172.657,199.137 172.121,198.914 171.708 C 198.692 171.295,198.164 170.771,197.741 170.543 C 197.318 170.315,196.776 169.767,196.538 169.324 C 196.299 168.880,195.926 168.462,195.709 168.393 C 194.667 168.062,194.083 167.082,194.083 165.665 C 194.083 164.376,193.719 163.550,193.151 163.550 C 192.430 163.550,191.716 162.248,191.716 160.931 C 191.716 159.642,191.352 158.817,190.785 158.817 C 190.063 158.817,189.349 157.515,189.349 156.198 C 189.349 154.908,188.986 154.083,188.418 154.083 C 187.696 154.083,186.982 152.781,186.982 151.464 C 186.982 150.175,186.619 149.349,186.051 149.349 C 185.098 149.349,184.615 148.087,184.612 145.589 C 184.608 142.827,184.586 142.757,183.523 142.139 C 183.118 141.904,182.593 141.379,182.358 140.974 C 182.122 140.568,181.815 140.158,181.675 140.063 C 181.206 139.743,81.315 139.845,80.994 140.166 C 80.503 140.656,80.590 228.722,81.082 229.214 C 81.742 229.873,391.766 229.772,392.426 229.112 C 393.086 228.453,393.187 8.368,392.527 7.709 C 392.035 7.217,81.486 7.129,80.994 7.621 M392.097 7.988 C 392.538 8.570,392.583 228.387,392.142 228.828 C 391.701 229.270,81.943 229.224,81.361 228.783 C 80.737 228.309,80.715 141.241,81.338 140.551 C 81.716 140.134,83.582 140.118,131.419 140.118 L 181.108 140.118 181.552 140.651 C 181.796 140.944,182.000 141.277,182.004 141.392 C 182.015 141.684,182.972 142.485,183.310 142.485 C 183.854 142.485,184.124 143.583,184.192 146.075 C 184.262 148.659,184.654 149.586,185.677 149.586 C 186.119 149.586,186.470 150.537,186.572 152.009 C 186.665 153.358,187.277 154.320,188.044 154.320 C 188.485 154.320,188.837 155.271,188.939 156.742 C 189.032 158.092,189.644 159.053,190.410 159.053 C 190.852 159.053,191.204 160.005,191.305 161.476 C 191.399 162.826,192.011 163.787,192.777 163.787 C 193.219 163.787,193.571 164.738,193.672 166.210 C 193.763 167.521,194.375 168.521,195.087 168.521 C 195.345 168.521,196.194 169.488,196.205 169.795 C 196.215 170.060,197.160 170.888,197.454 170.888 C 197.712 170.888,198.560 171.854,198.572 172.162 C 198.583 172.453,199.540 173.254,199.878 173.254 C 200.320 173.254,200.671 174.206,200.773 175.677 C 200.864 176.989,201.476 177.988,202.188 177.988 C 202.446 177.988,203.294 178.955,203.306 179.262 C 203.316 179.528,204.261 180.355,204.554 180.355 C 204.812 180.355,205.661 181.322,205.673 181.629 C 205.683 181.895,206.628 182.722,206.921 182.722 C 207.179 182.722,208.028 183.689,208.039 183.996 C 208.063 184.614,209.119 185.089,210.472 185.089 C 211.838 185.089,212.744 185.590,212.773 186.363 C 212.783 186.629,213.728 187.456,214.022 187.456 C 214.280 187.456,215.128 188.422,215.140 188.730 C 215.150 188.995,216.095 189.822,216.389 189.822 C 216.647 189.822,217.495 190.789,217.507 191.096 C 217.530 191.715,218.586 192.189,219.939 192.189 C 221.305 192.189,222.212 192.691,222.241 193.463 C 222.264 194.082,223.320 194.556,224.673 194.556 C 226.039 194.556,226.945 195.058,226.974 195.830 C 226.984 196.096,227.929 196.923,228.223 196.923 C 228.481 196.923,229.330 197.890,229.341 198.197 C 229.371 198.982,230.390 199.290,232.957 199.290 C 235.569 199.290,236.405 199.596,236.442 200.564 C 236.471 201.349,237.491 201.657,240.057 201.657 C 242.670 201.657,243.506 201.962,243.542 202.931 C 243.578 203.864,244.454 204.024,249.525 204.024 C 254.707 204.024,255.334 204.160,255.377 205.298 C 255.417 206.358,255.784 206.391,267.611 206.391 L 278.817 206.391 279.668 205.207 L 280.518 204.024 285.585 204.024 L 290.652 204.024 291.502 202.840 L 292.352 201.657 295.052 201.657 L 297.752 201.657 298.602 200.473 L 299.453 199.290 302.042 199.290 C 304.433 199.290,304.668 199.249,305.095 198.757 C 305.576 198.205,306.753 197.008,307.574 196.239 C 307.834 195.995,308.239 195.516,308.473 195.176 C 308.852 194.624,309.052 194.556,310.318 194.556 C 311.819 194.556,312.144 194.360,313.206 192.810 C 313.579 192.267,313.794 192.189,314.938 192.189 C 316.498 192.189,317.031 191.941,317.527 190.982 C 317.732 190.586,318.269 190.044,318.722 189.777 C 319.174 189.510,319.705 188.981,319.902 188.600 C 320.099 188.219,320.600 187.701,321.016 187.448 C 321.431 187.196,322.043 186.588,322.375 186.098 C 322.955 185.242,323.042 185.202,324.594 185.089 C 325.955 184.989,326.270 184.882,326.596 184.408 C 326.808 184.098,327.288 183.551,327.661 183.193 C 328.035 182.835,328.554 182.329,328.814 182.068 C 329.074 181.808,329.607 181.276,329.997 180.885 C 330.388 180.495,330.921 179.962,331.181 179.702 C 331.441 179.441,331.947 178.923,332.306 178.549 C 332.664 178.175,333.210 177.696,333.520 177.483 C 333.994 177.157,334.101 176.843,334.201 175.481 C 334.315 173.929,334.354 173.842,335.210 173.263 C 335.700 172.931,336.308 172.319,336.561 171.903 C 336.814 171.487,337.332 170.986,337.713 170.789 C 338.093 170.593,338.623 170.061,338.890 169.609 C 339.157 169.157,339.699 168.619,340.095 168.415 C 341.053 167.919,341.302 167.386,341.302 165.825 C 341.302 164.682,341.379 164.466,341.922 164.094 C 343.472 163.032,343.669 162.707,343.669 161.205 C 343.669 159.940,343.736 159.739,344.288 159.360 C 344.629 159.126,345.107 158.722,345.351 158.462 C 346.121 157.641,347.317 156.463,347.870 155.983 C 348.362 155.555,348.402 155.321,348.402 152.919 C 348.402 150.378,348.417 150.308,349.023 149.893 C 350.743 148.714,350.769 148.653,350.769 145.821 C 350.769 143.278,350.784 143.208,351.390 142.792 C 353.227 141.533,353.136 141.869,353.136 136.353 L 353.136 131.383 353.757 130.958 C 354.098 130.724,354.630 130.298,354.940 130.011 L 355.503 129.489 355.503 118.390 C 355.503 106.681,355.469 106.304,354.410 106.264 C 353.273 106.221,353.136 105.595,353.136 100.412 C 353.136 95.341,352.976 94.465,352.043 94.430 C 351.075 94.393,350.769 93.557,350.769 90.945 C 350.769 88.379,350.461 87.359,349.676 87.329 C 348.708 87.293,348.402 86.457,348.402 83.844 C 348.402 81.278,348.094 80.258,347.310 80.229 C 347.002 80.217,346.036 79.369,346.036 79.111 C 346.036 78.817,345.208 77.872,344.943 77.862 C 344.170 77.833,343.669 76.927,343.669 75.560 C 343.669 74.208,343.194 73.152,342.576 73.128 C 341.803 73.099,341.302 72.193,341.302 70.827 C 341.302 69.474,340.827 68.418,340.209 68.394 C 339.902 68.383,338.935 67.534,338.935 67.276 C 338.935 66.983,338.108 66.038,337.842 66.028 C 337.535 66.016,336.568 65.168,336.568 64.910 C 336.568 64.616,335.741 63.671,335.475 63.661 C 334.703 63.632,334.201 62.725,334.201 61.359 C 334.201 60.007,333.727 58.950,333.108 58.927 C 332.801 58.915,331.834 58.067,331.834 57.809 C 331.834 57.515,331.007 56.570,330.741 56.560 C 330.434 56.549,329.467 55.700,329.467 55.442 C 329.467 55.148,328.640 54.203,328.375 54.193 C 328.067 54.182,327.101 53.333,327.101 53.075 C 327.101 52.363,326.101 51.751,324.790 51.660 C 323.318 51.559,322.367 51.207,322.367 50.765 C 322.367 50.428,321.566 49.471,321.274 49.460 C 320.967 49.448,320.000 48.599,320.000 48.341 C 320.000 48.048,319.173 47.103,318.907 47.093 C 318.600 47.081,317.633 46.233,317.633 45.975 C 317.633 45.263,316.634 44.651,315.322 44.560 C 313.851 44.458,312.899 44.107,312.899 43.665 C 312.899 42.899,311.938 42.286,310.588 42.193 C 309.117 42.091,308.166 41.740,308.166 41.298 C 308.166 40.532,307.205 39.920,305.855 39.826 C 304.383 39.724,303.432 39.373,303.432 38.931 C 303.432 38.115,302.462 37.536,300.932 37.438 C 299.535 37.349,299.355 37.276,298.880 36.599 C 297.869 35.161,297.850 35.153,294.990 35.068 L 292.311 34.989 291.785 34.240 C 290.704 32.703,291.113 32.787,284.345 32.711 L 278.123 32.641 277.590 31.883 C 276.488 30.315,277.161 30.420,267.769 30.347 C 258.348 30.273,258.563 30.243,257.627 31.726 L 257.035 32.663 250.987 32.663 C 244.361 32.663,244.324 32.670,243.426 34.093 L 242.834 35.030 240.337 35.030 C 237.502 35.030,237.148 35.156,236.325 36.460 C 235.752 37.367,235.693 37.396,234.419 37.396 C 232.806 37.396,232.348 37.628,231.591 38.827 C 231.018 39.734,230.959 39.763,229.686 39.763 C 228.072 39.763,227.614 39.995,226.857 41.194 C 226.285 42.101,226.226 42.130,224.952 42.130 C 223.338 42.130,222.880 42.362,222.124 43.560 C 221.545 44.477,221.503 44.497,220.147 44.497 C 218.659 44.497,217.686 45.003,217.392 45.932 C 217.309 46.194,216.826 46.670,216.319 46.990 C 215.813 47.310,215.239 47.879,215.045 48.254 C 214.851 48.630,214.322 49.155,213.869 49.422 C 213.417 49.689,212.879 50.233,212.673 50.630 C 212.468 51.028,211.981 51.518,211.592 51.719 C 211.203 51.920,210.618 52.507,210.292 53.024 C 209.706 53.951,209.678 53.964,208.263 53.964 C 206.955 53.964,206.768 54.030,206.164 54.703 C 205.326 55.635,204.747 56.214,203.815 57.052 C 203.143 57.656,203.077 57.843,203.077 59.150 C 203.077 60.566,203.064 60.594,202.137 61.179 C 201.620 61.506,201.038 62.080,200.844 62.455 C 200.650 62.831,200.121 63.357,199.668 63.624 C 199.216 63.890,198.678 64.434,198.472 64.831 C 198.267 65.229,197.780 65.719,197.391 65.920 C 197.002 66.121,196.422 66.700,196.102 67.207 C 195.782 67.714,195.306 68.196,195.045 68.279 C 194.116 68.574,193.609 69.546,193.609 71.035 C 193.609 72.391,193.590 72.432,192.673 73.011 C 191.474 73.768,191.243 74.226,191.243 75.839 C 191.243 77.113,191.214 77.172,190.306 77.745 C 189.107 78.502,188.876 78.960,188.876 80.573 C 188.876 81.847,188.847 81.906,187.939 82.479 C 186.740 83.235,186.509 83.693,186.509 85.307 C 186.509 86.581,186.480 86.640,185.572 87.213 C 184.268 88.036,184.142 88.389,184.142 91.235 L 184.142 93.744 183.295 94.244 C 182.829 94.519,182.188 95.154,181.872 95.656 L 181.296 96.568 131.535 96.561 C 90.535 96.554,81.702 96.498,81.361 96.239 C 80.737 95.765,80.715 8.696,81.338 8.007 C 81.937 7.345,391.594 7.327,392.097 7.988 " stroke="none" fill="#f01014" fill-rule="evenodd"></path><path id="path3" d="M80.994 7.621 C 80.503 8.112,80.590 96.178,81.082 96.669 C 81.418 97.005,86.310 97.041,131.396 97.041 L 181.338 97.041 181.852 96.419 C 182.135 96.077,182.593 95.571,182.869 95.295 C 183.145 95.019,183.651 94.561,183.993 94.278 C 184.594 93.782,184.615 93.676,184.615 91.250 C 184.615 88.511,184.543 88.681,186.360 87.178 C 186.897 86.734,186.982 86.481,186.982 85.333 C 186.982 83.937,187.043 83.837,188.727 82.444 C 189.264 82.000,189.349 81.747,189.349 80.599 C 189.349 79.203,189.410 79.103,191.094 77.710 C 191.631 77.266,191.716 77.013,191.716 75.865 C 191.716 74.470,191.777 74.369,193.461 72.976 C 193.999 72.531,194.083 72.281,194.083 71.115 C 194.083 69.899,194.155 69.707,194.818 69.144 C 195.223 68.801,195.782 68.264,196.061 67.950 C 196.340 67.635,196.872 67.103,197.245 66.766 C 197.617 66.429,198.149 65.897,198.428 65.583 C 198.707 65.268,199.239 64.736,199.611 64.399 C 199.983 64.062,200.516 63.534,200.795 63.224 C 201.558 62.377,202.237 61.714,202.928 61.142 C 203.467 60.697,203.550 60.447,203.550 59.281 C 203.550 58.065,203.622 57.873,204.286 57.310 C 204.691 56.967,205.250 56.433,205.529 56.123 C 207.077 54.404,207.018 54.438,208.410 54.438 C 209.564 54.438,209.808 54.354,210.255 53.807 C 210.538 53.461,211.074 52.902,211.446 52.565 C 211.818 52.228,212.350 51.696,212.629 51.381 C 212.908 51.067,213.441 50.535,213.813 50.198 C 214.185 49.861,214.717 49.329,214.996 49.015 C 215.275 48.700,215.807 48.168,216.179 47.831 C 216.552 47.494,217.084 46.966,217.363 46.656 C 218.911 44.936,218.852 44.970,220.244 44.970 C 221.392 44.970,221.645 44.885,222.089 44.348 C 223.482 42.664,223.582 42.604,224.978 42.604 C 226.126 42.604,226.378 42.518,226.823 41.981 C 228.215 40.297,228.316 40.237,229.711 40.237 C 230.860 40.237,231.112 40.151,231.556 39.614 C 232.949 37.930,233.049 37.870,234.445 37.870 C 235.593 37.870,235.846 37.785,236.290 37.248 C 237.793 35.430,237.623 35.503,240.362 35.503 C 242.788 35.503,242.894 35.481,243.391 34.881 C 243.674 34.538,244.140 34.006,244.427 33.697 L 244.949 33.136 251.013 33.136 L 257.077 33.136 257.592 32.514 C 257.875 32.172,258.341 31.639,258.628 31.330 L 259.150 30.769 267.518 30.769 C 276.641 30.769,276.102 30.687,277.244 32.249 L 277.894 33.136 283.990 33.136 C 290.631 33.136,290.318 33.074,291.446 34.615 L 292.095 35.503 294.641 35.503 C 297.406 35.503,297.486 35.533,298.546 36.982 C 299.168 37.832,299.255 37.870,300.571 37.870 C 301.893 37.870,303.195 38.582,303.195 39.305 C 303.195 39.873,304.021 40.237,305.310 40.237 C 306.627 40.237,307.929 40.950,307.929 41.672 C 307.929 42.240,308.755 42.604,310.044 42.604 C 311.361 42.604,312.663 43.317,312.663 44.039 C 312.663 44.607,313.488 44.970,314.778 44.970 C 316.194 44.970,317.174 45.555,317.505 46.597 C 317.574 46.814,317.993 47.187,318.436 47.425 C 318.879 47.664,319.428 48.205,319.656 48.628 C 319.884 49.051,320.408 49.579,320.821 49.802 C 321.234 50.024,321.769 50.546,322.011 50.961 C 322.608 51.988,322.762 52.063,324.287 52.067 C 325.659 52.071,326.647 52.671,326.973 53.697 C 327.041 53.914,327.460 54.287,327.903 54.526 C 328.346 54.764,328.895 55.306,329.123 55.729 C 329.351 56.152,329.884 56.684,330.307 56.912 C 330.730 57.140,331.271 57.689,331.510 58.132 C 331.748 58.575,332.121 58.994,332.338 59.063 C 333.365 59.389,333.964 60.377,333.968 61.748 C 333.972 63.274,334.047 63.428,335.074 64.025 C 335.490 64.266,336.011 64.802,336.234 65.215 C 336.456 65.628,336.984 66.152,337.407 66.380 C 337.830 66.608,338.372 67.157,338.610 67.600 C 338.849 68.043,339.222 68.462,339.439 68.530 C 340.481 68.861,341.065 69.841,341.065 71.258 C 341.065 72.547,341.429 73.373,341.996 73.373 C 342.704 73.373,343.432 74.676,343.436 75.949 C 343.440 77.475,343.515 77.629,344.542 78.226 C 344.957 78.467,345.488 79.019,345.721 79.452 C 345.954 79.885,346.322 80.296,346.540 80.365 C 347.829 80.774,348.166 81.583,348.166 84.276 C 348.166 86.766,348.394 87.574,349.097 87.574 C 350.057 87.574,350.533 88.833,350.533 91.376 C 350.533 93.867,350.761 94.675,351.464 94.675 C 351.567 94.675,351.932 94.955,352.275 95.299 L 352.899 95.923 352.899 100.844 C 352.899 105.798,353.016 106.509,353.831 106.509 C 353.934 106.509,354.299 106.790,354.642 107.133 L 355.266 107.757 355.266 118.394 L 355.266 129.030 354.606 129.663 C 354.243 130.011,353.737 130.414,353.482 130.558 C 353.047 130.804,353.014 131.137,352.954 135.847 L 352.890 140.874 352.235 141.502 C 351.874 141.848,351.370 142.248,351.115 142.392 C 350.704 142.624,350.643 142.958,350.584 145.318 C 350.512 148.160,350.315 148.609,348.748 149.493 C 348.337 149.725,348.276 150.059,348.217 152.418 C 348.146 155.233,347.814 156.000,346.444 156.517 C 346.214 156.604,345.953 156.864,345.866 157.095 C 345.683 157.580,344.691 158.579,344.015 158.960 C 343.645 159.168,343.536 159.523,343.479 160.706 C 343.406 162.237,342.969 162.950,341.648 163.693 C 341.278 163.901,341.169 164.257,341.112 165.440 C 341.039 166.972,340.456 167.932,339.344 168.352 C 339.113 168.439,338.853 168.699,338.766 168.930 C 338.562 169.470,337.518 170.514,336.977 170.718 C 336.746 170.806,336.486 171.066,336.399 171.296 C 336.216 171.781,335.224 172.780,334.547 173.161 C 334.177 173.369,334.068 173.724,334.012 174.907 C 333.938 176.439,333.355 177.399,332.243 177.819 C 332.012 177.906,331.752 178.166,331.665 178.397 C 331.461 178.938,330.417 179.982,329.876 180.186 C 329.646 180.273,329.385 180.533,329.298 180.764 C 329.094 181.305,328.050 182.349,327.509 182.553 C 327.279 182.640,327.019 182.900,326.931 183.131 C 326.512 184.243,325.552 184.826,324.019 184.899 C 322.837 184.956,322.481 185.065,322.273 185.435 C 321.892 186.111,320.893 187.104,320.409 187.286 C 320.178 187.374,319.918 187.634,319.831 187.864 C 319.627 188.405,318.583 189.449,318.042 189.653 C 317.811 189.740,317.551 190.001,317.464 190.231 C 317.044 191.343,316.084 191.926,314.552 192.000 C 313.369 192.057,313.014 192.165,312.806 192.535 C 312.062 193.856,311.349 194.293,309.818 194.367 C 308.635 194.423,308.280 194.532,308.072 194.902 C 307.691 195.579,306.692 196.571,306.208 196.754 C 305.977 196.841,305.717 197.101,305.630 197.332 C 305.112 198.702,304.346 199.033,301.531 199.104 C 299.171 199.164,298.837 199.225,298.605 199.636 C 297.721 201.203,297.273 201.400,294.430 201.471 C 292.071 201.531,291.737 201.591,291.505 202.003 C 291.360 202.258,290.960 202.762,290.615 203.122 L 289.987 203.777 284.960 203.841 C 280.249 203.901,279.916 203.935,279.671 204.370 C 279.526 204.625,279.124 205.131,278.776 205.494 L 278.143 206.154 267.506 206.154 L 256.869 206.154 256.245 205.530 C 255.902 205.187,255.621 204.821,255.621 204.718 C 255.621 203.904,254.910 203.787,249.956 203.787 L 245.035 203.787 244.411 203.163 C 244.068 202.820,243.787 202.455,243.787 202.351 C 243.787 201.648,242.979 201.420,240.489 201.420 C 237.945 201.420,236.686 200.945,236.686 199.985 C 236.686 199.281,235.879 199.053,233.388 199.053 C 230.696 199.053,229.886 198.717,229.477 197.427 C 229.408 197.210,228.998 196.841,228.565 196.608 C 228.132 196.375,227.580 195.845,227.338 195.429 C 226.741 194.402,226.587 194.327,225.062 194.323 C 223.788 194.320,222.485 193.592,222.485 192.884 C 222.485 192.316,221.660 191.953,220.370 191.953 C 218.954 191.953,217.974 191.368,217.643 190.327 C 217.574 190.109,217.155 189.736,216.712 189.498 C 216.269 189.259,215.720 188.718,215.492 188.295 C 215.264 187.872,214.740 187.344,214.327 187.121 C 213.914 186.899,213.379 186.377,213.137 185.962 C 212.540 184.935,212.386 184.860,210.861 184.856 C 209.489 184.852,208.501 184.252,208.175 183.226 C 208.106 183.009,207.688 182.636,207.245 182.397 C 206.801 182.159,206.253 181.617,206.025 181.194 C 205.797 180.771,205.264 180.239,204.841 180.011 C 204.418 179.783,203.877 179.234,203.638 178.791 C 203.400 178.348,203.027 177.929,202.810 177.860 C 201.783 177.534,201.184 176.547,201.180 175.175 C 201.176 173.649,201.101 173.496,200.074 172.898 C 199.658 172.657,199.137 172.121,198.914 171.708 C 198.692 171.295,198.164 170.771,197.741 170.543 C 197.318 170.315,196.776 169.767,196.538 169.324 C 196.299 168.880,195.926 168.462,195.709 168.393 C 194.667 168.062,194.083 167.082,194.083 165.665 C 194.083 164.376,193.719 163.550,193.151 163.550 C 192.430 163.550,191.716 162.248,191.716 160.931 C 191.716 159.642,191.352 158.817,190.785 158.817 C 190.063 158.817,189.349 157.515,189.349 156.198 C 189.349 154.908,188.986 154.083,188.418 154.083 C 187.696 154.083,186.982 152.781,186.982 151.464 C 186.982 150.175,186.619 149.349,186.051 149.349 C 185.098 149.349,184.615 148.087,184.612 145.589 C 184.608 142.827,184.586 142.757,183.523 142.139 C 183.118 141.904,182.593 141.379,182.358 140.974 C 182.122 140.568,181.815 140.158,181.675 140.063 C 181.206 139.743,81.315 139.845,80.994 140.166 C 80.503 140.656,80.590 228.722,81.082 229.214 C 81.742 229.873,391.766 229.772,392.426 229.112 C 393.086 228.453,393.187 8.368,392.527 7.709 C 392.035 7.217,81.486 7.129,80.994 7.621 M392.097 7.988 C 392.538 8.570,392.583 228.387,392.142 228.828 C 391.701 229.270,81.943 229.224,81.361 228.783 C 80.737 228.309,80.715 141.241,81.338 140.551 C 81.716 140.134,83.582 140.118,131.419 140.118 L 181.108 140.118 181.552 140.651 C 181.796 140.944,182.000 141.277,182.004 141.392 C 182.015 141.684,182.972 142.485,183.310 142.485 C 183.854 142.485,184.124 143.583,184.192 146.075 C 184.262 148.659,184.654 149.586,185.677 149.586 C 186.119 149.586,186.470 150.537,186.572 152.009 C 186.665 153.358,187.277 154.320,188.044 154.320 C 188.485 154.320,188.837 155.271,188.939 156.742 C 189.032 158.092,189.644 159.053,190.410 159.053 C 190.852 159.053,191.204 160.005,191.305 161.476 C 191.399 162.826,192.011 163.787,192.777 163.787 C 193.219 163.787,193.571 164.738,193.672 166.210 C 193.763 167.521,194.375 168.521,195.087 168.521 C 195.345 168.521,196.194 169.488,196.205 169.795 C 196.215 170.060,197.160 170.888,197.454 170.888 C 197.712 170.888,198.560 171.854,198.572 172.162 C 198.583 172.453,199.540 173.254,199.878 173.254 C 200.320 173.254,200.671 174.206,200.773 175.677 C 200.864 176.989,201.476 177.988,202.188 177.988 C 202.446 177.988,203.294 178.955,203.306 179.262 C 203.316 179.528,204.261 180.355,204.554 180.355 C 204.812 180.355,205.661 181.322,205.673 181.629 C 205.683 181.895,206.628 182.722,206.921 182.722 C 207.179 182.722,208.028 183.689,208.039 183.996 C 208.063 184.614,209.119 185.089,210.472 185.089 C 211.838 185.089,212.744 185.590,212.773 186.363 C 212.783 186.629,213.728 187.456,214.022 187.456 C 214.280 187.456,215.128 188.422,215.140 188.730 C 215.150 188.995,216.095 189.822,216.389 189.822 C 216.647 189.822,217.495 190.789,217.507 191.096 C 217.530 191.715,218.586 192.189,219.939 192.189 C 221.305 192.189,222.212 192.691,222.241 193.463 C 222.264 194.082,223.320 194.556,224.673 194.556 C 226.039 194.556,226.945 195.058,226.974 195.830 C 226.984 196.096,227.929 196.923,228.223 196.923 C 228.481 196.923,229.330 197.890,229.341 198.197 C 229.371 198.982,230.390 199.290,232.957 199.290 C 235.569 199.290,236.405 199.596,236.442 200.564 C 236.471 201.349,237.491 201.657,240.057 201.657 C 242.670 201.657,243.506 201.962,243.542 202.931 C 243.578 203.864,244.454 204.024,249.525 204.024 C 254.707 204.024,255.334 204.160,255.377 205.298 C 255.417 206.358,255.784 206.391,267.611 206.391 L 278.817 206.391 279.668 205.207 L 280.518 204.024 285.585 204.024 L 290.652 204.024 291.502 202.840 L 292.352 201.657 295.052 201.657 L 297.752 201.657 298.602 200.473 L 299.453 199.290 302.042 199.290 C 304.433 199.290,304.668 199.249,305.095 198.757 C 305.576 198.205,306.753 197.008,307.574 196.239 C 307.834 195.995,308.239 195.516,308.473 195.176 C 308.852 194.624,309.052 194.556,310.318 194.556 C 311.819 194.556,312.144 194.360,313.206 192.810 C 313.579 192.267,313.794 192.189,314.938 192.189 C 316.498 192.189,317.031 191.941,317.527 190.982 C 317.732 190.586,318.269 190.044,318.722 189.777 C 319.174 189.510,319.705 188.981,319.902 188.600 C 320.099 188.219,320.600 187.701,321.016 187.448 C 321.431 187.196,322.043 186.588,322.375 186.098 C 322.955 185.242,323.042 185.202,324.594 185.089 C 325.955 184.989,326.270 184.882,326.596 184.408 C 326.808 184.098,327.288 183.551,327.661 183.193 C 328.035 182.835,328.554 182.329,328.814 182.068 C 329.074 181.808,329.607 181.276,329.997 180.885 C 330.388 180.495,330.921 179.962,331.181 179.702 C 331.441 179.441,331.947 178.923,332.306 178.549 C 332.664 178.175,333.210 177.696,333.520 177.483 C 333.994 177.157,334.101 176.843,334.201 175.481 C 334.315 173.929,334.354 173.842,335.210 173.263 C 335.700 172.931,336.308 172.319,336.561 171.903 C 336.814 171.487,337.332 170.986,337.713 170.789 C 338.093 170.593,338.623 170.061,338.890 169.609 C 339.157 169.157,339.699 168.619,340.095 168.415 C 341.053 167.919,341.302 167.386,341.302 165.825 C 341.302 164.682,341.379 164.466,341.922 164.094 C 343.472 163.032,343.669 162.707,343.669 161.205 C 343.669 159.940,343.736 159.739,344.288 159.360 C 344.629 159.126,345.107 158.722,345.351 158.462 C 346.121 157.641,347.317 156.463,347.870 155.983 C 348.362 155.555,348.402 155.321,348.402 152.919 C 348.402 150.378,348.417 150.308,349.023 149.893 C 350.743 148.714,350.769 148.653,350.769 145.821 C 350.769 143.278,350.784 143.208,351.390 142.792 C 353.227 141.533,353.136 141.869,353.136 136.353 L 353.136 131.383 353.757 130.958 C 354.098 130.724,354.630 130.298,354.940 130.011 L 355.503 129.489 355.503 118.390 C 355.503 106.681,355.469 106.304,354.410 106.264 C 353.273 106.221,353.136 105.595,353.136 100.412 C 353.136 95.341,352.976 94.465,352.043 94.430 C 351.075 94.393,350.769 93.557,350.769 90.945 C 350.769 88.379,350.461 87.359,349.676 87.329 C 348.708 87.293,348.402 86.457,348.402 83.844 C 348.402 81.278,348.094 80.258,347.310 80.229 C 347.002 80.217,346.036 79.369,346.036 79.111 C 346.036 78.817,345.208 77.872,344.943 77.862 C 344.170 77.833,343.669 76.927,343.669 75.560 C 343.669 74.208,343.194 73.152,342.576 73.128 C 341.803 73.099,341.302 72.193,341.302 70.827 C 341.302 69.474,340.827 68.418,340.209 68.394 C 339.902 68.383,338.935 67.534,338.935 67.276 C 338.935 66.983,338.108 66.038,337.842 66.028 C 337.535 66.016,336.568 65.168,336.568 64.910 C 336.568 64.616,335.741 63.671,335.475 63.661 C 334.703 63.632,334.201 62.725,334.201 61.359 C 334.201 60.007,333.727 58.950,333.108 58.927 C 332.801 58.915,331.834 58.067,331.834 57.809 C 331.834 57.515,331.007 56.570,330.741 56.560 C 330.434 56.549,329.467 55.700,329.467 55.442 C 329.467 55.148,328.640 54.203,328.375 54.193 C 328.067 54.182,327.101 53.333,327.101 53.075 C 327.101 52.363,326.101 51.751,324.790 51.660 C 323.318 51.559,322.367 51.207,322.367 50.765 C 322.367 50.428,321.566 49.471,321.274 49.460 C 320.967 49.448,320.000 48.599,320.000 48.341 C 320.000 48.048,319.173 47.103,318.907 47.093 C 318.600 47.081,317.633 46.233,317.633 45.975 C 317.633 45.263,316.634 44.651,315.322 44.560 C 313.851 44.458,312.899 44.107,312.899 43.665 C 312.899 42.899,311.938 42.286,310.588 42.193 C 309.117 42.091,308.166 41.740,308.166 41.298 C 308.166 40.532,307.205 39.920,305.855 39.826 C 304.383 39.724,303.432 39.373,303.432 38.931 C 303.432 38.115,302.462 37.536,300.932 37.438 C 299.535 37.349,299.355 37.276,298.880 36.599 C 297.869 35.161,297.850 35.153,294.990 35.068 L 292.311 34.989 291.785 34.240 C 290.704 32.703,291.113 32.787,284.345 32.711 L 278.123 32.641 277.590 31.883 C 276.488 30.315,277.161 30.420,267.769 30.347 C 258.348 30.273,258.563 30.243,257.627 31.726 L 257.035 32.663 250.987 32.663 C 244.361 32.663,244.324 32.670,243.426 34.093 L 242.834 35.030 240.337 35.030 C 237.502 35.030,237.148 35.156,236.325 36.460 C 235.752 37.367,235.693 37.396,234.419 37.396 C 232.806 37.396,232.348 37.628,231.591 38.827 C 231.018 39.734,230.959 39.763,229.686 39.763 C 228.072 39.763,227.614 39.995,226.857 41.194 C 226.285 42.101,226.226 42.130,224.952 42.130 C 223.338 42.130,222.880 42.362,222.124 43.560 C 221.545 44.477,221.503 44.497,220.147 44.497 C 218.659 44.497,217.686 45.003,217.392 45.932 C 217.309 46.194,216.826 46.670,216.319 46.990 C 215.813 47.310,215.239 47.879,215.045 48.254 C 214.851 48.630,214.322 49.155,213.869 49.422 C 213.417 49.689,212.879 50.233,212.673 50.630 C 212.468 51.028,211.981 51.518,211.592 51.719 C 211.203 51.920,210.618 52.507,210.292 53.024 C 209.706 53.951,209.678 53.964,208.263 53.964 C 206.955 53.964,206.768 54.030,206.164 54.703 C 205.326 55.635,204.747 56.214,203.815 57.052 C 203.143 57.656,203.077 57.843,203.077 59.150 C 203.077 60.566,203.064 60.594,202.137 61.179 C 201.620 61.506,201.038 62.080,200.844 62.455 C 200.650 62.831,200.121 63.357,199.668 63.624 C 199.216 63.890,198.678 64.434,198.472 64.831 C 198.267 65.229,197.780 65.719,197.391 65.920 C 197.002 66.121,196.422 66.700,196.102 67.207 C 195.782 67.714,195.306 68.196,195.045 68.279 C 194.116 68.574,193.609 69.546,193.609 71.035 C 193.609 72.391,193.590 72.432,192.673 73.011 C 191.474 73.768,191.243 74.226,191.243 75.839 C 191.243 77.113,191.214 77.172,190.306 77.745 C 189.107 78.502,188.876 78.960,188.876 80.573 C 188.876 81.847,188.847 81.906,187.939 82.479 C 186.740 83.235,186.509 83.693,186.509 85.307 C 186.509 86.581,186.480 86.640,185.572 87.213 C 184.268 88.036,184.142 88.389,184.142 91.235 L 184.142 93.744 183.295 94.244 C 182.829 94.519,182.188 95.154,181.872 95.656 L 181.296 96.568 131.535 96.561 C 90.535 96.554,81.702 96.498,81.361 96.239 C 80.737 95.765,80.715 8.696,81.338 8.007 C 81.937 7.345,391.594 7.327,392.097 7.988 " stroke="none" fill="#f01014" fill-rule="evenodd"></path><path id="path4" d="M80.994 7.621 C 80.503 8.112,80.590 96.178,81.082 96.669 C 81.418 97.005,86.310 97.041,131.396 97.041 L 181.338 97.041 181.852 96.419 C 182.135 96.077,182.593 95.571,182.869 95.295 C 183.145 95.019,183.651 94.561,183.993 94.278 C 184.594 93.782,184.615 93.676,184.615 91.250 C 184.615 88.511,184.543 88.681,186.360 87.178 C 186.897 86.734,186.982 86.481,186.982 85.333 C 186.982 83.937,187.043 83.837,188.727 82.444 C 189.264 82.000,189.349 81.747,189.349 80.599 C 189.349 79.203,189.410 79.103,191.094 77.710 C 191.631 77.266,191.716 77.013,191.716 75.865 C 191.716 74.470,191.777 74.369,193.461 72.976 C 193.999 72.531,194.083 72.281,194.083 71.115 C 194.083 69.899,194.155 69.707,194.818 69.144 C 195.223 68.801,195.782 68.264,196.061 67.950 C 196.340 67.635,196.872 67.103,197.245 66.766 C 197.617 66.429,198.149 65.897,198.428 65.583 C 198.707 65.268,199.239 64.736,199.611 64.399 C 199.983 64.062,200.516 63.534,200.795 63.224 C 201.558 62.377,202.237 61.714,202.928 61.142 C 203.467 60.697,203.550 60.447,203.550 59.281 C 203.550 58.065,203.622 57.873,204.286 57.310 C 204.691 56.967,205.250 56.433,205.529 56.123 C 207.077 54.404,207.018 54.438,208.410 54.438 C 209.564 54.438,209.808 54.354,210.255 53.807 C 210.538 53.461,211.074 52.902,211.446 52.565 C 211.818 52.228,212.350 51.696,212.629 51.381 C 212.908 51.067,213.441 50.535,213.813 50.198 C 214.185 49.861,214.717 49.329,214.996 49.015 C 215.275 48.700,215.807 48.168,216.179 47.831 C 216.552 47.494,217.084 46.966,217.363 46.656 C 218.911 44.936,218.852 44.970,220.244 44.970 C 221.392 44.970,221.645 44.885,222.089 44.348 C 223.482 42.664,223.582 42.604,224.978 42.604 C 226.126 42.604,226.378 42.518,226.823 41.981 C 228.215 40.297,228.316 40.237,229.711 40.237 C 230.860 40.237,231.112 40.151,231.556 39.614 C 232.949 37.930,233.049 37.870,234.445 37.870 C 235.593 37.870,235.846 37.785,236.290 37.248 C 237.793 35.430,237.623 35.503,240.362 35.503 C 242.788 35.503,242.894 35.481,243.391 34.881 C 243.674 34.538,244.140 34.006,244.427 33.697 L 244.949 33.136 251.013 33.136 L 257.077 33.136 257.592 32.514 C 257.875 32.172,258.341 31.639,258.628 31.330 L 259.150 30.769 267.518 30.769 C 276.641 30.769,276.102 30.687,277.244 32.249 L 277.894 33.136 283.990 33.136 C 290.631 33.136,290.318 33.074,291.446 34.615 L 292.095 35.503 294.641 35.503 C 297.406 35.503,297.486 35.533,298.546 36.982 C 299.168 37.832,299.255 37.870,300.571 37.870 C 301.893 37.870,303.195 38.582,303.195 39.305 C 303.195 39.873,304.021 40.237,305.310 40.237 C 306.627 40.237,307.929 40.950,307.929 41.672 C 307.929 42.240,308.755 42.604,310.044 42.604 C 311.361 42.604,312.663 43.317,312.663 44.039 C 312.663 44.607,313.488 44.970,314.778 44.970 C 316.194 44.970,317.174 45.555,317.505 46.597 C 317.574 46.814,317.993 47.187,318.436 47.425 C 318.879 47.664,319.428 48.205,319.656 48.628 C 319.884 49.051,320.408 49.579,320.821 49.802 C 321.234 50.024,321.769 50.546,322.011 50.961 C 322.608 51.988,322.762 52.063,324.287 52.067 C 325.659 52.071,326.647 52.671,326.973 53.697 C 327.041 53.914,327.460 54.287,327.903 54.526 C 328.346 54.764,328.895 55.306,329.123 55.729 C 329.351 56.152,329.884 56.684,330.307 56.912 C 330.730 57.140,331.271 57.689,331.510 58.132 C 331.748 58.575,332.121 58.994,332.338 59.063 C 333.365 59.389,333.964 60.377,333.968 61.748 C 333.972 63.274,334.047 63.428,335.074 64.025 C 335.490 64.266,336.011 64.802,336.234 65.215 C 336.456 65.628,336.984 66.152,337.407 66.380 C 337.830 66.608,338.372 67.157,338.610 67.600 C 338.849 68.043,339.222 68.462,339.439 68.530 C 340.481 68.861,341.065 69.841,341.065 71.258 C 341.065 72.547,341.429 73.373,341.996 73.373 C 342.704 73.373,343.432 74.676,343.436 75.949 C 343.440 77.475,343.515 77.629,344.542 78.226 C 344.957 78.467,345.488 79.019,345.721 79.452 C 345.954 79.885,346.322 80.296,346.540 80.365 C 347.829 80.774,348.166 81.583,348.166 84.276 C 348.166 86.766,348.394 87.574,349.097 87.574 C 350.057 87.574,350.533 88.833,350.533 91.376 C 350.533 93.867,350.761 94.675,351.464 94.675 C 351.567 94.675,351.932 94.955,352.275 95.299 L 352.899 95.923 352.899 100.844 C 352.899 105.798,353.016 106.509,353.831 106.509 C 353.934 106.509,354.299 106.790,354.642 107.133 L 355.266 107.757 355.266 118.394 L 355.266 129.030 354.606 129.663 C 354.243 130.011,353.737 130.414,353.482 130.558 C 353.047 130.804,353.014 131.137,352.954 135.847 L 352.890 140.874 352.235 141.502 C 351.874 141.848,351.370 142.248,351.115 142.392 C 350.704 142.624,350.643 142.958,350.584 145.318 C 350.512 148.160,350.315 148.609,348.748 149.493 C 348.337 149.725,348.276 150.059,348.217 152.418 C 348.146 155.233,347.814 156.000,346.444 156.517 C 346.214 156.604,345.953 156.864,345.866 157.095 C 345.683 157.580,344.691 158.579,344.015 158.960 C 343.645 159.168,343.536 159.523,343.479 160.706 C 343.406 162.237,342.969 162.950,341.648 163.693 C 341.278 163.901,341.169 164.257,341.112 165.440 C 341.039 166.972,340.456 167.932,339.344 168.352 C 339.113 168.439,338.853 168.699,338.766 168.930 C 338.562 169.470,337.518 170.514,336.977 170.718 C 336.746 170.806,336.486 171.066,336.399 171.296 C 336.216 171.781,335.224 172.780,334.547 173.161 C 334.177 173.369,334.068 173.724,334.012 174.907 C 333.938 176.439,333.355 177.399,332.243 177.819 C 332.012 177.906,331.752 178.166,331.665 178.397 C 331.461 178.938,330.417 179.982,329.876 180.186 C 329.646 180.273,329.385 180.533,329.298 180.764 C 329.094 181.305,328.050 182.349,327.509 182.553 C 327.279 182.640,327.019 182.900,326.931 183.131 C 326.512 184.243,325.552 184.826,324.019 184.899 C 322.837 184.956,322.481 185.065,322.273 185.435 C 321.892 186.111,320.893 187.104,320.409 187.286 C 320.178 187.374,319.918 187.634,319.831 187.864 C 319.627 188.405,318.583 189.449,318.042 189.653 C 317.811 189.740,317.551 190.001,317.464 190.231 C 317.044 191.343,316.084 191.926,314.552 192.000 C 313.369 192.057,313.014 192.165,312.806 192.535 C 312.062 193.856,311.349 194.293,309.818 194.367 C 308.635 194.423,308.280 194.532,308.072 194.902 C 307.691 195.579,306.692 196.571,306.208 196.754 C 305.977 196.841,305.717 197.101,305.630 197.332 C 305.112 198.702,304.346 199.033,301.531 199.104 C 299.171 199.164,298.837 199.225,298.605 199.636 C 297.721 201.203,297.273 201.400,294.430 201.471 C 292.071 201.531,291.737 201.591,291.505 202.003 C 291.360 202.258,290.960 202.762,290.615 203.122 L 289.987 203.777 284.960 203.841 C 280.249 203.901,279.916 203.935,279.671 204.370 C 279.526 204.625,279.124 205.131,278.776 205.494 L 278.143 206.154 267.506 206.154 L 256.869 206.154 256.245 205.530 C 255.902 205.187,255.621 204.821,255.621 204.718 C 255.621 203.904,254.910 203.787,249.956 203.787 L 245.035 203.787 244.411 203.163 C 244.068 202.820,243.787 202.455,243.787 202.351 C 243.787 201.648,242.979 201.420,240.489 201.420 C 237.945 201.420,236.686 200.945,236.686 199.985 C 236.686 199.281,235.879 199.053,233.388 199.053 C 230.696 199.053,229.886 198.717,229.477 197.427 C 229.408 197.210,228.998 196.841,228.565 196.608 C 228.132 196.375,227.580 195.845,227.338 195.429 C 226.741 194.402,226.587 194.327,225.062 194.323 C 223.788 194.320,222.485 193.592,222.485 192.884 C 222.485 192.316,221.660 191.953,220.370 191.953 C 218.954 191.953,217.974 191.368,217.643 190.327 C 217.574 190.109,217.155 189.736,216.712 189.498 C 216.269 189.259,215.720 188.718,215.492 188.295 C 215.264 187.872,214.740 187.344,214.327 187.121 C 213.914 186.899,213.379 186.377,213.137 185.962 C 212.540 184.935,212.386 184.860,210.861 184.856 C 209.489 184.852,208.501 184.252,208.175 183.226 C 208.106 183.009,207.688 182.636,207.245 182.397 C 206.801 182.159,206.253 181.617,206.025 181.194 C 205.797 180.771,205.264 180.239,204.841 180.011 C 204.418 179.783,203.877 179.234,203.638 178.791 C 203.400 178.348,203.027 177.929,202.810 177.860 C 201.783 177.534,201.184 176.547,201.180 175.175 C 201.176 173.649,201.101 173.496,200.074 172.898 C 199.658 172.657,199.137 172.121,198.914 171.708 C 198.692 171.295,198.164 170.771,197.741 170.543 C 197.318 170.315,196.776 169.767,196.538 169.324 C 196.299 168.880,195.926 168.462,195.709 168.393 C 194.667 168.062,194.083 167.082,194.083 165.665 C 194.083 164.376,193.719 163.550,193.151 163.550 C 192.430 163.550,191.716 162.248,191.716 160.931 C 191.716 159.642,191.352 158.817,190.785 158.817 C 190.063 158.817,189.349 157.515,189.349 156.198 C 189.349 154.908,188.986 154.083,188.418 154.083 C 187.696 154.083,186.982 152.781,186.982 151.464 C 186.982 150.175,186.619 149.349,186.051 149.349 C 185.098 149.349,184.615 148.087,184.612 145.589 C 184.608 142.827,184.586 142.757,183.523 142.139 C 183.118 141.904,182.593 141.379,182.358 140.974 C 182.122 140.568,181.815 140.158,181.675 140.063 C 181.206 139.743,81.315 139.845,80.994 140.166 C 80.503 140.656,80.590 228.722,81.082 229.214 C 81.742 229.873,391.766 229.772,392.426 229.112 C 393.086 228.453,393.187 8.368,392.527 7.709 C 392.035 7.217,81.486 7.129,80.994 7.621 M392.097 7.988 C 392.538 8.570,392.583 228.387,392.142 228.828 C 391.701 229.270,81.943 229.224,81.361 228.783 C 80.737 228.309,80.715 141.241,81.338 140.551 C 81.716 140.134,83.582 140.118,131.419 140.118 L 181.108 140.118 181.552 140.651 C 181.796 140.944,182.000 141.277,182.004 141.392 C 182.015 141.684,182.972 142.485,183.310 142.485 C 183.854 142.485,184.124 143.583,184.192 146.075 C 184.262 148.659,184.654 149.586,185.677 149.586 C 186.119 149.586,186.470 150.537,186.572 152.009 C 186.665 153.358,187.277 154.320,188.044 154.320 C 188.485 154.320,188.837 155.271,188.939 156.742 C 189.032 158.092,189.644 159.053,190.410 159.053 C 190.852 159.053,191.204 160.005,191.305 161.476 C 191.399 162.826,192.011 163.787,192.777 163.787 C 193.219 163.787,193.571 164.738,193.672 166.210 C 193.763 167.521,194.375 168.521,195.087 168.521 C 195.345 168.521,196.194 169.488,196.205 169.795 C 196.215 170.060,197.160 170.888,197.454 170.888 C 197.712 170.888,198.560 171.854,198.572 172.162 C 198.583 172.453,199.540 173.254,199.878 173.254 C 200.320 173.254,200.671 174.206,200.773 175.677 C 200.864 176.989,201.476 177.988,202.188 177.988 C 202.446 177.988,203.294 178.955,203.306 179.262 C 203.316 179.528,204.261 180.355,204.554 180.355 C 204.812 180.355,205.661 181.322,205.673 181.629 C 205.683 181.895,206.628 182.722,206.921 182.722 C 207.179 182.722,208.028 183.689,208.039 183.996 C 208.063 184.614,209.119 185.089,210.472 185.089 C 211.838 185.089,212.744 185.590,212.773 186.363 C 212.783 186.629,213.728 187.456,214.022 187.456 C 214.280 187.456,215.128 188.422,215.140 188.730 C 215.150 188.995,216.095 189.822,216.389 189.822 C 216.647 189.822,217.495 190.789,217.507 191.096 C 217.530 191.715,218.586 192.189,219.939 192.189 C 221.305 192.189,222.212 192.691,222.241 193.463 C 222.264 194.082,223.320 194.556,224.673 194.556 C 226.039 194.556,226.945 195.058,226.974 195.830 C 226.984 196.096,227.929 196.923,228.223 196.923 C 228.481 196.923,229.330 197.890,229.341 198.197 C 229.371 198.982,230.390 199.290,232.957 199.290 C 235.569 199.290,236.405 199.596,236.442 200.564 C 236.471 201.349,237.491 201.657,240.057 201.657 C 242.670 201.657,243.506 201.962,243.542 202.931 C 243.578 203.864,244.454 204.024,249.525 204.024 C 254.707 204.024,255.334 204.160,255.377 205.298 C 255.417 206.358,255.784 206.391,267.611 206.391 L 278.817 206.391 279.668 205.207 L 280.518 204.024 285.585 204.024 L 290.652 204.024 291.502 202.840 L 292.352 201.657 295.052 201.657 L 297.752 201.657 298.602 200.473 L 299.453 199.290 302.042 199.290 C 304.433 199.290,304.668 199.249,305.095 198.757 C 305.576 198.205,306.753 197.008,307.574 196.239 C 307.834 195.995,308.239 195.516,308.473 195.176 C 308.852 194.624,309.052 194.556,310.318 194.556 C 311.819 194.556,312.144 194.360,313.206 192.810 C 313.579 192.267,313.794 192.189,314.938 192.189 C 316.498 192.189,317.031 191.941,317.527 190.982 C 317.732 190.586,318.269 190.044,318.722 189.777 C 319.174 189.510,319.705 188.981,319.902 188.600 C 320.099 188.219,320.600 187.701,321.016 187.448 C 321.431 187.196,322.043 186.588,322.375 186.098 C 322.955 185.242,323.042 185.202,324.594 185.089 C 325.955 184.989,326.270 184.882,326.596 184.408 C 326.808 184.098,327.288 183.551,327.661 183.193 C 328.035 182.835,328.554 182.329,328.814 182.068 C 329.074 181.808,329.607 181.276,329.997 180.885 C 330.388 180.495,330.921 179.962,331.181 179.702 C 331.441 179.441,331.947 178.923,332.306 178.549 C 332.664 178.175,333.210 177.696,333.520 177.483 C 333.994 177.157,334.101 176.843,334.201 175.481 C 334.315 173.929,334.354 173.842,335.210 173.263 C 335.700 172.931,336.308 172.319,336.561 171.903 C 336.814 171.487,337.332 170.986,337.713 170.789 C 338.093 170.593,338.623 170.061,338.890 169.609 C 339.157 169.157,339.699 168.619,340.095 168.415 C 341.053 167.919,341.302 167.386,341.302 165.825 C 341.302 164.682,341.379 164.466,341.922 164.094 C 343.472 163.032,343.669 162.707,343.669 161.205 C 343.669 159.940,343.736 159.739,344.288 159.360 C 344.629 159.126,345.107 158.722,345.351 158.462 C 346.121 157.641,347.317 156.463,347.870 155.983 C 348.362 155.555,348.402 155.321,348.402 152.919 C 348.402 150.378,348.417 150.308,349.023 149.893 C 350.743 148.714,350.769 148.653,350.769 145.821 C 350.769 143.278,350.784 143.208,351.390 142.792 C 353.227 141.533,353.136 141.869,353.136 136.353 L 353.136 131.383 353.757 130.958 C 354.098 130.724,354.630 130.298,354.940 130.011 L 355.503 129.489 355.503 118.390 C 355.503 106.681,355.469 106.304,354.410 106.264 C 353.273 106.221,353.136 105.595,353.136 100.412 C 353.136 95.341,352.976 94.465,352.043 94.430 C 351.075 94.393,350.769 93.557,350.769 90.945 C 350.769 88.379,350.461 87.359,349.676 87.329 C 348.708 87.293,348.402 86.457,348.402 83.844 C 348.402 81.278,348.094 80.258,347.310 80.229 C 347.002 80.217,346.036 79.369,346.036 79.111 C 346.036 78.817,345.208 77.872,344.943 77.862 C 344.170 77.833,343.669 76.927,343.669 75.560 C 343.669 74.208,343.194 73.152,342.576 73.128 C 341.803 73.099,341.302 72.193,341.302 70.827 C 341.302 69.474,340.827 68.418,340.209 68.394 C 339.902 68.383,338.935 67.534,338.935 67.276 C 338.935 66.983,338.108 66.038,337.842 66.028 C 337.535 66.016,336.568 65.168,336.568 64.910 C 336.568 64.616,335.741 63.671,335.475 63.661 C 334.703 63.632,334.201 62.725,334.201 61.359 C 334.201 60.007,333.727 58.950,333.108 58.927 C 332.801 58.915,331.834 58.067,331.834 57.809 C 331.834 57.515,331.007 56.570,330.741 56.560 C 330.434 56.549,329.467 55.700,329.467 55.442 C 329.467 55.148,328.640 54.203,328.375 54.193 C 328.067 54.182,327.101 53.333,327.101 53.075 C 327.101 52.363,326.101 51.751,324.790 51.660 C 323.318 51.559,322.367 51.207,322.367 50.765 C 322.367 50.428,321.566 49.471,321.274 49.460 C 320.967 49.448,320.000 48.599,320.000 48.341 C 320.000 48.048,319.173 47.103,318.907 47.093 C 318.600 47.081,317.633 46.233,317.633 45.975 C 317.633 45.263,316.634 44.651,315.322 44.560 C 313.851 44.458,312.899 44.107,312.899 43.665 C 312.899 42.899,311.938 42.286,310.588 42.193 C 309.117 42.091,308.166 41.740,308.166 41.298 C 308.166 40.532,307.205 39.920,305.855 39.826 C 304.383 39.724,303.432 39.373,303.432 38.931 C 303.432 38.115,302.462 37.536,300.932 37.438 C 299.535 37.349,299.355 37.276,298.880 36.599 C 297.869 35.161,297.850 35.153,294.990 35.068 L 292.311 34.989 291.785 34.240 C 290.704 32.703,291.113 32.787,284.345 32.711 L 278.123 32.641 277.590 31.883 C 276.488 30.315,277.161 30.420,267.769 30.347 C 258.348 30.273,258.563 30.243,257.627 31.726 L 257.035 32.663 250.987 32.663 C 244.361 32.663,244.324 32.670,243.426 34.093 L 242.834 35.030 240.337 35.030 C 237.502 35.030,237.148 35.156,236.325 36.460 C 235.752 37.367,235.693 37.396,234.419 37.396 C 232.806 37.396,232.348 37.628,231.591 38.827 C 231.018 39.734,230.959 39.763,229.686 39.763 C 228.072 39.763,227.614 39.995,226.857 41.194 C 226.285 42.101,226.226 42.130,224.952 42.130 C 223.338 42.130,222.880 42.362,222.124 43.560 C 221.545 44.477,221.503 44.497,220.147 44.497 C 218.659 44.497,217.686 45.003,217.392 45.932 C 217.309 46.194,216.826 46.670,216.319 46.990 C 215.813 47.310,215.239 47.879,215.045 48.254 C 214.851 48.630,214.322 49.155,213.869 49.422 C 213.417 49.689,212.879 50.233,212.673 50.630 C 212.468 51.028,211.981 51.518,211.592 51.719 C 211.203 51.920,210.618 52.507,210.292 53.024 C 209.706 53.951,209.678 53.964,208.263 53.964 C 206.955 53.964,206.768 54.030,206.164 54.703 C 205.326 55.635,204.747 56.214,203.815 57.052 C 203.143 57.656,203.077 57.843,203.077 59.150 C 203.077 60.566,203.064 60.594,202.137 61.179 C 201.620 61.506,201.038 62.080,200.844 62.455 C 200.650 62.831,200.121 63.357,199.668 63.624 C 199.216 63.890,198.678 64.434,198.472 64.831 C 198.267 65.229,197.780 65.719,197.391 65.920 C 197.002 66.121,196.422 66.700,196.102 67.207 C 195.782 67.714,195.306 68.196,195.045 68.279 C 194.116 68.574,193.609 69.546,193.609 71.035 C 193.609 72.391,193.590 72.432,192.673 73.011 C 191.474 73.768,191.243 74.226,191.243 75.839 C 191.243 77.113,191.214 77.172,190.306 77.745 C 189.107 78.502,188.876 78.960,188.876 80.573 C 188.876 81.847,188.847 81.906,187.939 82.479 C 186.740 83.235,186.509 83.693,186.509 85.307 C 186.509 86.581,186.480 86.640,185.572 87.213 C 184.268 88.036,184.142 88.389,184.142 91.235 L 184.142 93.744 183.295 94.244 C 182.829 94.519,182.188 95.154,181.872 95.656 L 181.296 96.568 131.535 96.561 C 90.535 96.554,81.702 96.498,81.361 96.239 C 80.737 95.765,80.715 8.696,81.338 8.007 C 81.937 7.345,391.594 7.327,392.097 7.988 " stroke="none" fill="#f01014" fill-rule="evenodd"></path></g></svg>