<svg id="svg" version="1.1" xmlns="http://www.w3.org/2000/svg" xmlns:xlink="http://www.w3.org/1999/xlink" width="400" height="236.68639053254438" viewBox="0, 0, 400,236.68639053254438"><g id="svgg"><path id="path0" d="M81.082 7.709 C 80.459 8.332,80.520 96.086,81.143 96.650 C 81.543 97.012,85.367 97.041,131.355 97.041 L 181.134 97.041 182.875 95.301 L 184.615 93.560 184.615 91.129 L 184.615 88.698 185.799 87.625 C 186.944 86.586,186.982 86.509,186.982 85.258 C 186.982 84.007,187.021 83.929,188.166 82.891 C 189.310 81.852,189.349 81.775,189.349 80.524 C 189.349 79.273,189.388 79.196,190.533 78.157 C 191.677 77.119,191.716 77.041,191.716 75.790 C 191.716 74.539,191.755 74.462,192.899 73.423 C 194.035 72.393,194.083 72.300,194.083 71.097 L 194.083 69.844 198.817 65.135 L 203.550 60.427 203.550 59.219 C 203.550 57.362,206.475 54.438,208.332 54.438 L 209.540 54.438 214.248 49.704 L 218.956 44.970 220.209 44.970 C 221.412 44.970,221.505 44.923,222.536 43.787 C 223.574 42.642,223.652 42.604,224.903 42.604 C 226.154 42.604,226.231 42.565,227.270 41.420 C 228.308 40.275,228.385 40.237,229.636 40.237 C 230.887 40.237,230.965 40.198,232.003 39.053 C 233.042 37.909,233.119 37.870,234.370 37.870 C 235.621 37.870,235.699 37.831,236.737 36.686 L 237.811 35.503 240.287 35.503 L 242.764 35.503 243.838 34.320 L 244.911 33.136 250.938 33.136 L 256.965 33.136 258.039 31.953 L 259.112 30.769 267.544 30.769 C 276.891 30.769,276.064 30.634,277.373 32.379 L 277.941 33.136 284.059 33.136 C 290.817 33.136,290.281 33.021,291.574 34.746 L 292.142 35.503 294.710 35.503 C 297.499 35.503,297.453 35.485,298.674 37.113 C 299.193 37.804,299.357 37.870,300.568 37.877 C 302.017 37.886,302.281 38.029,303.266 39.349 C 303.895 40.191,303.999 40.237,305.278 40.244 C 306.751 40.252,307.012 40.394,308.000 41.716 C 308.629 42.558,308.732 42.604,310.012 42.611 C 311.485 42.619,311.746 42.760,312.734 44.083 C 313.363 44.925,313.466 44.971,314.746 44.978 C 316.205 44.986,316.539 45.158,317.357 46.325 C 317.652 46.744,318.193 47.264,318.559 47.481 C 318.926 47.698,319.409 48.185,319.633 48.564 C 319.856 48.942,320.377 49.474,320.789 49.746 C 321.201 50.017,321.830 50.652,322.187 51.155 C 322.815 52.042,322.880 52.071,324.233 52.071 C 325.450 52.071,325.703 52.153,326.188 52.702 C 326.495 53.050,327.118 53.690,327.574 54.126 C 328.030 54.561,328.477 54.996,328.568 55.092 C 328.783 55.318,330.554 57.089,330.872 57.396 C 331.007 57.527,331.474 58.006,331.910 58.462 C 332.345 58.917,332.986 59.541,333.333 59.847 C 333.883 60.333,333.964 60.585,333.964 61.802 C 333.964 63.155,333.994 63.220,334.880 63.848 C 335.384 64.205,336.018 64.834,336.290 65.247 C 336.561 65.659,337.093 66.179,337.472 66.403 C 337.851 66.627,338.338 67.110,338.554 67.476 C 338.771 67.843,339.291 68.384,339.711 68.678 C 340.877 69.497,341.049 69.831,341.058 71.290 C 341.065 72.569,341.111 72.673,341.953 73.302 C 343.275 74.289,343.416 74.550,343.424 76.023 C 343.432 77.303,343.477 77.406,344.320 78.034 C 344.808 78.398,345.306 78.856,345.428 79.052 C 345.641 79.396,346.227 79.977,347.541 81.149 C 348.144 81.687,348.166 81.797,348.166 84.273 L 348.166 86.840 349.053 87.503 C 350.481 88.569,350.517 88.664,350.525 91.408 L 350.533 93.940 351.420 94.603 C 352.924 95.727,352.884 95.554,352.892 100.876 L 352.899 105.775 353.787 106.438 C 355.340 107.598,355.251 106.864,355.259 118.496 L 355.266 129.182 354.379 129.925 C 353.891 130.333,353.358 130.774,353.195 130.905 C 352.976 131.082,352.899 132.415,352.899 136.079 L 352.899 141.016 352.012 141.759 C 351.524 142.167,350.991 142.609,350.828 142.739 C 350.624 142.903,350.533 143.776,350.533 145.547 L 350.533 148.117 349.645 148.859 C 349.157 149.268,348.624 149.709,348.462 149.840 C 348.258 150.004,348.166 150.876,348.166 152.648 L 348.166 155.217 347.278 155.959 C 346.790 156.367,346.303 156.796,346.196 156.913 C 345.654 157.508,344.157 158.972,343.818 159.240 C 343.540 159.460,343.432 159.932,343.432 160.932 C 343.432 162.399,343.464 162.351,341.361 164.041 C 341.185 164.183,341.065 164.841,341.065 165.665 C 341.065 166.978,341.018 167.091,340.178 167.793 C 339.689 168.201,339.203 168.631,339.096 168.748 C 338.989 168.865,338.475 169.387,337.955 169.907 C 337.434 170.428,336.901 170.961,336.771 171.091 C 336.641 171.221,336.130 171.734,335.636 172.232 C 335.142 172.729,334.563 173.273,334.351 173.441 C 334.072 173.661,333.964 174.133,333.964 175.133 C 333.964 176.445,333.917 176.559,333.077 177.261 C 332.589 177.669,332.102 178.098,331.995 178.215 C 331.888 178.332,331.375 178.854,330.854 179.375 C 330.333 179.896,329.801 180.428,329.671 180.558 C 329.541 180.688,329.008 181.221,328.487 181.742 C 327.967 182.262,327.445 182.776,327.328 182.883 C 327.211 182.990,326.781 183.476,326.373 183.964 C 325.671 184.805,325.557 184.852,324.245 184.852 C 323.245 184.852,322.774 184.960,322.554 185.238 C 322.386 185.451,321.842 186.029,321.344 186.524 C 320.847 187.018,320.333 187.529,320.203 187.659 C 320.073 187.789,319.541 188.322,319.020 188.842 C 318.499 189.363,317.977 189.876,317.860 189.983 C 317.743 190.090,317.313 190.577,316.906 191.065 C 316.204 191.905,316.090 191.953,314.778 191.953 C 313.953 191.953,313.295 192.073,313.154 192.249 C 311.464 194.351,311.511 194.320,310.044 194.320 C 309.044 194.320,308.573 194.427,308.353 194.706 C 308.085 195.045,306.621 196.541,306.026 197.084 C 305.909 197.191,305.479 197.678,305.071 198.166 L 304.330 199.053 301.788 199.053 L 299.246 199.053 298.248 200.237 L 297.250 201.420 294.698 201.420 L 292.145 201.420 291.147 202.604 L 290.149 203.787 285.230 203.787 L 280.311 203.787 279.313 204.970 L 278.315 206.154 267.619 206.146 C 255.975 206.138,256.710 206.228,255.550 204.675 L 254.887 203.787 249.988 203.779 C 244.667 203.771,244.839 203.812,243.716 202.308 L 243.053 201.420 240.520 201.413 C 237.776 201.404,237.682 201.369,236.615 199.941 L 235.952 199.053 233.386 199.053 C 230.910 199.053,230.799 199.031,230.262 198.428 C 229.090 197.114,228.508 196.529,228.164 196.316 C 227.968 196.194,227.510 195.695,227.146 195.207 C 226.519 194.365,226.416 194.319,225.136 194.312 C 223.663 194.304,223.402 194.163,222.414 192.840 C 221.785 191.998,221.682 191.952,220.402 191.945 C 218.943 191.937,218.609 191.765,217.791 190.598 C 217.496 190.179,216.966 189.665,216.612 189.456 C 216.258 189.247,215.736 188.720,215.451 188.286 C 215.166 187.851,214.635 187.316,214.271 187.098 C 213.907 186.880,213.318 186.285,212.961 185.777 C 212.331 184.879,212.271 184.852,210.915 184.852 C 209.698 184.852,209.445 184.771,208.960 184.221 C 208.653 183.874,208.030 183.233,207.574 182.797 C 207.118 182.362,206.655 181.911,206.544 181.796 C 206.283 181.523,204.512 179.752,204.240 179.491 C 204.125 179.380,203.674 178.917,203.238 178.462 C 202.803 178.006,202.162 177.382,201.815 177.076 C 201.265 176.590,201.183 176.338,201.183 175.121 C 201.183 173.764,201.156 173.704,200.259 173.075 C 199.750 172.718,199.156 172.128,198.937 171.764 C 198.719 171.400,198.185 170.870,197.750 170.585 C 197.315 170.300,196.789 169.777,196.580 169.423 C 196.371 169.070,195.857 168.539,195.437 168.245 C 194.271 167.426,194.099 167.092,194.090 165.633 C 194.083 164.354,194.037 164.250,193.195 163.622 C 191.873 162.634,191.732 162.373,191.724 160.900 C 191.716 159.620,191.670 159.517,190.828 158.888 C 189.506 157.900,189.365 157.639,189.357 156.166 C 189.349 154.886,189.304 154.783,188.462 154.154 C 187.139 153.166,186.998 152.905,186.990 151.432 C 186.983 150.153,186.937 150.049,186.095 149.420 C 184.666 148.353,184.631 148.261,184.623 145.501 L 184.615 142.954 183.718 142.315 C 183.225 141.964,182.533 141.273,182.182 140.779 L 181.543 139.882 131.498 139.882 C 86.319 139.882,81.418 139.918,81.082 140.254 C 80.459 140.876,80.520 228.630,81.143 229.194 C 81.545 229.558,92.689 229.586,236.723 229.586 L 391.870 229.586 392.385 229.038 L 392.899 228.490 392.899 118.305 C 392.899 11.861,392.885 8.107,392.467 7.729 C 391.817 7.141,81.670 7.121,81.082 7.709 " stroke="none" fill="#24b44c" fill-rule="evenodd"></path><path id="path1" d="M72.189 47.929 L 72.189 95.858 36.095 95.858 L 0.000 95.858 0.000 118.343 L 0.000 140.828 36.095 140.828 L 72.189 140.828 72.189 188.757 L 72.189 236.686 236.095 236.686 L 400.000 236.686 400.000 118.343 L 400.000 0.000 236.095 0.000 L 72.189 0.000 72.189 47.929 M392.467 7.729 C 392.885 8.107,392.899 11.861,392.899 118.305 L 392.899 228.490 392.385 229.038 L 391.870 229.586 236.723 229.586 C 92.689 229.586,81.545 229.558,81.143 229.194 C 80.520 228.630,80.459 140.876,81.082 140.254 C 81.418 139.918,86.319 139.882,131.498 139.882 L 181.543 139.882 182.182 140.779 C 182.533 141.273,183.225 141.964,183.718 142.315 L 184.615 142.954 184.623 145.501 C 184.631 148.261,184.666 148.353,186.095 149.420 C 186.937 150.049,186.983 150.153,186.990 151.432 C 186.998 152.905,187.139 153.166,188.462 154.154 C 189.304 154.783,189.349 154.886,189.357 156.166 C 189.365 157.639,189.506 157.900,190.828 158.888 C 191.670 159.517,191.716 159.620,191.724 160.900 C 191.732 162.373,191.873 162.634,193.195 163.622 C 194.037 164.250,194.083 164.354,194.090 165.633 C 194.099 167.092,194.271 167.426,195.437 168.245 C 195.857 168.539,196.371 169.070,196.580 169.423 C 196.789 169.777,197.315 170.300,197.750 170.585 C 198.185 170.870,198.719 171.400,198.937 171.764 C 199.156 172.128,199.750 172.718,200.259 173.075 C 201.156 173.704,201.183 173.764,201.183 175.121 C 201.183 176.338,201.265 176.590,201.815 177.076 C 202.162 177.382,202.803 178.006,203.238 178.462 C 203.674 178.917,204.125 179.380,204.240 179.491 C 204.512 179.752,206.283 181.523,206.544 181.796 C 206.655 181.911,207.118 182.362,207.574 182.797 C 208.030 183.233,208.653 183.874,208.960 184.221 C 209.445 184.771,209.698 184.852,210.915 184.852 C 212.271 184.852,212.331 184.879,212.961 185.777 C 213.318 186.285,213.907 186.880,214.271 187.098 C 214.635 187.316,215.166 187.851,215.451 188.286 C 215.736 188.720,216.258 189.247,216.612 189.456 C 216.966 189.665,217.496 190.179,217.791 190.598 C 218.609 191.765,218.943 191.937,220.402 191.945 C 221.682 191.952,221.785 191.998,222.414 192.840 C 223.402 194.163,223.663 194.304,225.136 194.312 C 226.416 194.319,226.519 194.365,227.146 195.207 C 227.510 195.695,227.968 196.194,228.164 196.316 C 228.508 196.529,229.090 197.114,230.262 198.428 C 230.799 199.031,230.910 199.053,233.386 199.053 L 235.952 199.053 236.615 199.941 C 237.682 201.369,237.776 201.404,240.520 201.413 L 243.053 201.420 243.716 202.308 C 244.839 203.812,244.667 203.771,249.988 203.779 L 254.887 203.787 255.550 204.675 C 256.710 206.228,255.975 206.138,267.619 206.146 L 278.315 206.154 279.313 204.970 L 280.311 203.787 285.230 203.787 L 290.149 203.787 291.147 202.604 L 292.145 201.420 294.698 201.420 L 297.250 201.420 298.248 200.237 L 299.246 199.053 301.788 199.053 L 304.330 199.053 305.071 198.166 C 305.479 197.678,305.909 197.191,306.026 197.084 C 306.621 196.541,308.085 195.045,308.353 194.706 C 308.573 194.427,309.044 194.320,310.044 194.320 C 311.511 194.320,311.464 194.351,313.154 192.249 C 313.295 192.073,313.953 191.953,314.778 191.953 C 316.090 191.953,316.204 191.905,316.906 191.065 C 317.313 190.577,317.743 190.090,317.860 189.983 C 317.977 189.876,318.499 189.363,319.020 188.842 C 319.541 188.322,320.073 187.789,320.203 187.659 C 320.333 187.529,320.847 187.018,321.344 186.524 C 321.842 186.029,322.386 185.451,322.554 185.238 C 322.774 184.960,323.245 184.852,324.245 184.852 C 325.557 184.852,325.671 184.805,326.373 183.964 C 326.781 183.476,327.211 182.990,327.328 182.883 C 327.445 182.776,327.967 182.262,328.487 181.742 C 329.008 181.221,329.541 180.688,329.671 180.558 C 329.801 180.428,330.333 179.896,330.854 179.375 C 331.375 178.854,331.888 178.332,331.995 178.215 C 332.102 178.098,332.589 177.669,333.077 177.261 C 333.917 176.559,333.964 176.445,333.964 175.133 C 333.964 174.133,334.072 173.661,334.351 173.441 C 334.563 173.273,335.142 172.729,335.636 172.232 C 336.130 171.734,336.641 171.221,336.771 171.091 C 336.901 170.961,337.434 170.428,337.955 169.907 C 338.475 169.387,338.989 168.865,339.096 168.748 C 339.203 168.631,339.689 168.201,340.178 167.793 C 341.018 167.091,341.065 166.978,341.065 165.665 C 341.065 164.841,341.185 164.183,341.361 164.041 C 343.464 162.351,343.432 162.399,343.432 160.932 C 343.432 159.932,343.540 159.460,343.818 159.240 C 344.157 158.972,345.654 157.508,346.196 156.913 C 346.303 156.796,346.790 156.367,347.278 155.959 L 348.166 155.217 348.166 152.648 C 348.166 150.876,348.258 150.004,348.462 149.840 C 348.624 149.709,349.157 149.268,349.645 148.859 L 350.533 148.117 350.533 145.547 C 350.533 143.776,350.624 142.903,350.828 142.739 C 350.991 142.609,351.524 142.167,352.012 141.759 L 352.899 141.016 352.899 136.079 C 352.899 132.415,352.976 131.082,353.195 130.905 C 353.358 130.774,353.891 130.333,354.379 129.925 L 355.266 129.182 355.259 118.496 C 355.251 106.864,355.340 107.598,353.787 106.438 L 352.899 105.775 352.892 100.876 C 352.884 95.554,352.924 95.727,351.420 94.603 L 350.533 93.940 350.525 91.408 C 350.517 88.664,350.481 88.569,349.053 87.503 L 348.166 86.840 348.166 84.273 C 348.166 81.797,348.144 81.687,347.541 81.149 C 346.227 79.977,345.641 79.396,345.428 79.052 C 345.306 78.856,344.808 78.398,344.320 78.034 C 343.477 77.406,343.432 77.303,343.424 76.023 C 343.416 74.550,343.275 74.289,341.953 73.302 C 341.111 72.673,341.065 72.569,341.058 71.290 C 341.049 69.831,340.877 69.497,339.711 68.678 C 339.291 68.384,338.771 67.843,338.554 67.476 C 338.338 67.110,337.851 66.627,337.472 66.403 C 337.093 66.179,336.561 65.659,336.290 65.247 C 336.018 64.834,335.384 64.205,334.880 63.848 C 333.994 63.220,333.964 63.155,333.964 61.802 C 333.964 60.585,333.883 60.333,333.333 59.847 C 332.986 59.541,332.345 58.917,331.910 58.462 C 331.474 58.006,331.007 57.527,330.872 57.396 C 330.554 57.089,328.783 55.318,328.568 55.092 C 328.477 54.996,328.030 54.561,327.574 54.126 C 327.118 53.690,326.495 53.050,326.188 52.702 C 325.703 52.153,325.450 52.071,324.233 52.071 C 322.880 52.071,322.815 52.042,322.187 51.155 C 321.830 50.652,321.201 50.017,320.789 49.746 C 320.377 49.474,319.856 48.942,319.633 48.564 C 319.409 48.185,318.926 47.698,318.559 47.481 C 318.193 47.264,317.652 46.744,317.357 46.325 C 316.539 45.158,316.205 44.986,314.746 44.978 C 313.466 44.971,313.363 44.925,312.734 44.083 C 311.746 42.760,311.485 42.619,310.012 42.611 C 308.732 42.604,308.629 42.558,308.000 41.716 C 307.012 40.394,306.751 40.252,305.278 40.244 C 303.999 40.237,303.895 40.191,303.266 39.349 C 302.281 38.029,302.017 37.886,300.568 37.877 C 299.357 37.870,299.193 37.804,298.674 37.113 C 297.453 35.485,297.499 35.503,294.710 35.503 L 292.142 35.503 291.574 34.746 C 290.281 33.021,290.817 33.136,284.059 33.136 L 277.941 33.136 277.373 32.379 C 276.064 30.634,276.891 30.769,267.544 30.769 L 259.112 30.769 258.039 31.953 L 256.965 33.136 250.938 33.136 L 244.911 33.136 243.838 34.320 L 242.764 35.503 240.287 35.503 L 237.811 35.503 236.737 36.686 C 235.699 37.831,235.621 37.870,234.370 37.870 C 233.119 37.870,233.042 37.909,232.003 39.053 C 230.965 40.198,230.887 40.237,229.636 40.237 C 228.385 40.237,228.308 40.275,227.270 41.420 C 226.231 42.565,226.154 42.604,224.903 42.604 C 223.652 42.604,223.574 42.642,222.536 43.787 C 221.505 44.923,221.412 44.970,220.209 44.970 L 218.956 44.970 214.248 49.704 L 209.540 54.438 208.332 54.438 C 206.475 54.438,203.550 57.362,203.550 59.219 L 203.550 60.427 198.817 65.135 L 194.083 69.844 194.083 71.097 C 194.083 72.300,194.035 72.393,192.899 73.423 C 191.755 74.462,191.716 74.539,191.716 75.790 C 191.716 77.041,191.677 77.119,190.533 78.157 C 189.388 79.196,189.349 79.273,189.349 80.524 C 189.349 81.775,189.310 81.852,188.166 82.891 C 187.021 83.929,186.982 84.007,186.982 85.258 C 186.982 86.509,186.944 86.586,185.799 87.625 L 184.615 88.698 184.615 91.129 L 184.615 93.560 182.875 95.301 L 181.134 97.041 131.355 97.041 C 85.367 97.041,81.543 97.012,81.143 96.650 C 80.520 96.086,80.459 8.332,81.082 7.709 C 81.670 7.121,391.817 7.141,392.467 7.729 " stroke="none" fill="#040404" fill-rule="evenodd"></path><path id="path2" d="" stroke="none" fill="#14b828" fill-rule="evenodd"></path><path id="path3" d="" stroke="none" fill="#14b828" fill-rule="evenodd"></path><path id="path4" d="" stroke="none" fill="#14b828" fill-rule="evenodd"></path></g></svg>